<svg xmlns="http://www.w3.org/2000/svg" viewBox="0 0 600 460" style="font-family: Inter, system-ui, sans-serif;">
<rect width="600" height="460" fill="#f8fafc" />
<path d="M 200.0 330.0 L 400.0 330.0 L 400.0 130.0 L 200.0 130.0 Z" fill="#22c55e" fill-opacity="0.1" stroke="#22c55e" stroke-width="3"/>
<text x="180.00" y="345.00" font-family="sans-serif" font-size="18" font-weight="bold" fill="#1e293b" text-anchor="middle" dominant-baseline="middle">A</text>
<text x="420.00" y="345.00" font-family="sans-serif" font-size="18" font-weight="bold" fill="#1e293b" text-anchor="middle" dominant-baseline="middle">B</text>
<text x="420.00" y="115.00" font-family="sans-serif" font-size="18" font-weight="bold" fill="#1e293b" text-anchor="middle" dominant-baseline="middle">C</text>
<text x="180.00" y="115.00" font-family="sans-serif" font-size="18" font-weight="bold" fill="#1e293b" text-anchor="middle" dominant-baseline="middle">D</text>
<path d="M 215.00 330.00 L 215.00 315.00 L 200.00 315.00" fill="none" stroke="#ef4444" stroke-width="2"/>
<path d="M 400.00 315.00 L 385.00 315.00 L 385.00 330.00" fill="none" stroke="#ef4444" stroke-width="2"/>
<path d="M 385.00 130.00 L 385.00 145.00 L 400.00 145.00" fill="none" stroke="#ef4444" stroke-width="2"/>
<path d="M 200.00 145.00 L 215.00 145.00 L 215.00 130.00" fill="none" stroke="#ef4444" stroke-width="2"/>
<line x1="300.00" y1="338.00" x2="300.00" y2="322.00" stroke="#1e293b" stroke-width="2"/>
<line x1="408.00" y1="230.00" x2="392.00" y2="230.00" stroke="#1e293b" stroke-width="2"/>
<line x1="300.00" y1="122.00" x2="300.00" y2="138.00" stroke="#1e293b" stroke-width="2"/>
<line x1="192.00" y1="230.00" x2="208.00" y2="230.00" stroke="#1e293b" stroke-width="2"/>
<line x1="200.0" y1="330.0" x2="400.0" y2="130.0" stroke="#22c55e" stroke-width="2" stroke-dasharray="5,5"/>
<line x1="400.0" y1="330.0" x2="200.0" y2="130.0" stroke="#22c55e" stroke-width="2" stroke-dasharray="5,5"/>
<path d="M 300.0 215.0 L 315.0 215.0 L 315.0 230.0" fill="none" stroke="#ef4444" stroke-width="2"/>
<text x="300.00" y="385.00" font-family="sans-serif" font-size="20" font-weight="bold" fill="#1e293b" text-anchor="middle" dominant-baseline="middle">Rectángulo + Rombo: Perfección</text>
<text x="300.00" y="35.00" font-family="sans-serif" font-size="22" font-weight="bold" fill="#1e293b" text-anchor="middle" dominant-baseline="middle">El Cuadrado: Perfección</text>
</svg>