<svg xmlns="http://www.w3.org/2000/svg" viewBox="0 0 600 460" style="font-family: Inter, system-ui, sans-serif;">
<rect width="600" height="460" fill="#f8fafc" />
<path d="M 300.00 100.00 L 420.00 180.00 L 300.00 360.00 L 180.00 180.00 Z" fill="#22c55e" fill-opacity="0.1" stroke="#22c55e" stroke-width="3" stroke-linejoin="round"/>
<text x="300.00" y="70.00" font-family="sans-serif" font-size="18" font-weight="bold" fill="#1e293b" text-anchor="middle" dominant-baseline="middle">A</text>
<text x="450.00" y="180.00" font-family="sans-serif" font-size="18" font-weight="bold" fill="#1e293b" text-anchor="middle" dominant-baseline="middle">B</text>
<text x="300.00" y="390.00" font-family="sans-serif" font-size="18" font-weight="bold" fill="#1e293b" text-anchor="middle" dominant-baseline="middle">C</text>
<text x="150.00" y="180.00" font-family="sans-serif" font-size="18" font-weight="bold" fill="#1e293b" text-anchor="middle" dominant-baseline="middle">D</text>
<line x1="300.0" y1="100.0" x2="300.0" y2="360.0" stroke="#22c55e" stroke-width="2" stroke-dasharray="5,5"/>
<line x1="420.0" y1="180.0" x2="180.0" y2="180.0" stroke="#22c55e" stroke-width="2" stroke-dasharray="5,5"/>
<path d="M 315.00 180.00 L 315.00 165.00 L 300.00 165.00" fill="none" stroke="#ef4444" stroke-width="2"/>
<line x1="360.22" y1="132.46" x2="359.78" y2="147.54" stroke="#22c55e" stroke-width="2"/>

<line x1="246.88" y1="143.11" x2="233.12" y2="136.89" stroke="#22c55e" stroke-width="2"/>

<line x1="369.21" y1="267.73" x2="354.12" y2="267.28" stroke="#22c55e" stroke-width="2"/>
<line x1="365.88" y1="272.72" x2="350.79" y2="272.27" stroke="#22c55e" stroke-width="2"/>

<line x1="241.44" y1="260.63" x2="235.23" y2="274.38" stroke="#22c55e" stroke-width="2"/>
<line x1="244.77" y1="265.62" x2="238.56" y2="279.37" stroke="#22c55e" stroke-width="2"/>

<text x="360.00" y="165.00" font-family="sans-serif" font-size="18" font-weight="bold" fill="#22c55e" text-anchor="middle" dominant-baseline="middle">d</text>
<text x="285.00" y="240.00" font-family="sans-serif" font-size="18" font-weight="bold" fill="#22c55e" text-anchor="middle" dominant-baseline="middle">D</text>
<text x="300.00" y="35.00" font-family="sans-serif" font-size="22" font-weight="bold" fill="#1e293b" text-anchor="middle" dominant-baseline="middle">El Deltoide (Cometa)</text>
</svg>