<svg xmlns="http://www.w3.org/2000/svg" viewBox="0 0 600 460" style="font-family: Inter, system-ui, sans-serif;">
<rect width="600" height="460" fill="#f8fafc" />
<path d="M 300.00 120.00 L 400.00 180.00 L 300.00 320.00 L 200.00 180.00 Z" fill="none" fill-opacity="0.1" stroke="#22c55e" stroke-width="3" stroke-linejoin="round"/>
<text x="300.00" y="95.00" font-family="sans-serif" font-size="18" font-weight="bold" fill="#1e293b" text-anchor="middle" dominant-baseline="middle">A</text>
<text x="425.00" y="180.00" font-family="sans-serif" font-size="18" font-weight="bold" fill="#1e293b" text-anchor="middle" dominant-baseline="middle">B</text>
<text x="300.00" y="345.00" font-family="sans-serif" font-size="18" font-weight="bold" fill="#1e293b" text-anchor="middle" dominant-baseline="middle">C</text>
<text x="175.00" y="180.00" font-family="sans-serif" font-size="18" font-weight="bold" fill="#1e293b" text-anchor="middle" dominant-baseline="middle">D</text>
<line x1="300.0" y1="120.0" x2="300.0" y2="320.0" stroke="#22c55e" stroke-width="3"/>
<line x1="400.0" y1="180.0" x2="200.0" y2="180.0" stroke="#22c55e" stroke-width="3"/>
<rect x="300.0" y="165.0" width="15" height="15" fill="none" stroke="#ef4444" stroke-width="2"/>
<line x1="400.0" y1="340.0" x2="200.0" y2="340.0" stroke="#1e293b" stroke-width="1.5"/>
<line x1="400.0" y1="335.0" x2="400.0" y2="345.0" stroke="#1e293b" stroke-width="1.5"/>
<line x1="200.0" y1="335.0" x2="200.0" y2="345.0" stroke="#1e293b" stroke-width="1.5"/>
<line x1="400.0" y1="180.0" x2="400.0" y2="340.0" stroke="#e2e8f0" stroke-width="1" stroke-dasharray="2,2"/>
<line x1="200.0" y1="180.0" x2="200.0" y2="340.0" stroke="#e2e8f0" stroke-width="1" stroke-dasharray="2,2"/>
<text x="300.00" y="360.00" font-family="sans-serif" font-size="14" font-weight="bold" fill="#1e293b" text-anchor="middle" dominant-baseline="middle">Diagonal Menor (d)</text>
<line x1="430.0" y1="120.0" x2="430.0" y2="320.0" stroke="#1e293b" stroke-width="1.5"/>
<line x1="425.0" y1="120.0" x2="435.0" y2="120.0" stroke="#1e293b" stroke-width="1.5"/>
<line x1="425.0" y1="320.0" x2="435.0" y2="320.0" stroke="#1e293b" stroke-width="1.5"/>
<line x1="300.0" y1="120.0" x2="430.0" y2="120.0" stroke="#e2e8f0" stroke-width="1" stroke-dasharray="2,2"/>
<line x1="300.0" y1="320.0" x2="430.0" y2="320.0" stroke="#e2e8f0" stroke-width="1" stroke-dasharray="2,2"/>
<text x="450.0" y="220.0" font-family="sans-serif" font-size="14" font-weight="bold" fill="#1e293b" text-anchor="middle" dominant-baseline="middle" transform="rotate(-90 450.0 220.0)">Diagonal Mayor (D)</text>
<rect x="210.0" y="390.0" width="180" height="50" rx="8" fill="#fef3c7" stroke="#e2e8f0"/>
<text x="300.00" y="415.00" font-family="sans-serif" font-size="18" font-weight="bold" fill="#1e293b" text-anchor="middle" dominant-baseline="middle">Área = (D · d) / 2</text>
<text x="300.00" y="35.00" font-family="sans-serif" font-size="22" font-weight="bold" fill="#1e293b" text-anchor="middle" dominant-baseline="middle">Fórmula del Área (Deltoide)</text>
</svg>