<svg xmlns="http://www.w3.org/2000/svg" viewBox="0 0 600 460" style="font-family: Inter, system-ui, sans-serif;">
<rect width="600" height="460" fill="#f8fafc" />
<path d="M 300.00 120.00 L 380.00 180.00 L 300.00 360.00 L 220.00 180.00 Z" fill="#22c55e" fill-opacity="0.1" stroke="#22c55e" stroke-width="3" stroke-linejoin="round"/>
<text x="300.00" y="100.00" font-family="sans-serif" font-size="18" font-weight="bold" fill="#1e293b" text-anchor="middle" dominant-baseline="middle">A</text>
<text x="400.00" y="180.00" font-family="sans-serif" font-size="18" font-weight="bold" fill="#1e293b" text-anchor="middle" dominant-baseline="middle">B</text>
<text x="300.00" y="380.00" font-family="sans-serif" font-size="18" font-weight="bold" fill="#1e293b" text-anchor="middle" dominant-baseline="middle">C</text>
<text x="200.00" y="180.00" font-family="sans-serif" font-size="18" font-weight="bold" fill="#1e293b" text-anchor="middle" dominant-baseline="middle">D</text>
<line x1="300.0" y1="120.0" x2="300.0" y2="360.0" stroke="#1e293b" stroke-width="2" stroke-dasharray="4,4"/>
<line x1="380.0" y1="180.0" x2="220.0" y2="180.0" stroke="#1e293b" stroke-width="2" stroke-dasharray="4,4"/>
<line x1="380.0" y1="380.0" x2="220.0" y2="380.0" stroke="#1e293b" stroke-width="1.5"/>
<line x1="380.0" y1="375.0" x2="380.0" y2="385.0" stroke="#1e293b" stroke-width="1.5"/>
<line x1="220.0" y1="375.0" x2="220.0" y2="385.0" stroke="#1e293b" stroke-width="1.5"/>
<line x1="380.0" y1="180.0" x2="380.0" y2="380.0" stroke="#e2e8f0" stroke-width="1" stroke-dasharray="2,2"/>
<line x1="220.0" y1="180.0" x2="220.0" y2="380.0" stroke="#e2e8f0" stroke-width="1" stroke-dasharray="2,2"/>
<text x="300.00" y="400.00" font-family="sans-serif" font-size="14" font-weight="bold" fill="#1e293b" text-anchor="middle" dominant-baseline="middle">d = 40</text>
<line x1="410.0" y1="120.0" x2="410.0" y2="360.0" stroke="#1e293b" stroke-width="1.5"/>
<line x1="405.0" y1="120.0" x2="415.0" y2="120.0" stroke="#1e293b" stroke-width="1.5"/>
<line x1="405.0" y1="360.0" x2="415.0" y2="360.0" stroke="#1e293b" stroke-width="1.5"/>
<line x1="300.0" y1="120.0" x2="410.0" y2="120.0" stroke="#e2e8f0" stroke-width="1" stroke-dasharray="2,2"/>
<line x1="300.0" y1="360.0" x2="410.0" y2="360.0" stroke="#e2e8f0" stroke-width="1" stroke-dasharray="2,2"/>
<text x="430.0" y="240.0" font-family="sans-serif" font-size="14" font-weight="bold" fill="#1e293b" text-anchor="middle" dominant-baseline="middle" transform="rotate(-90 430.0 240.0)">D = 60</text>
<text x="300.00" y="450.00" font-family="sans-serif" font-size="22" font-weight="bold" fill="#22c55e" text-anchor="middle" dominant-baseline="middle">A = (60 × 40) / 2 = 1200</text>
<text x="300.00" y="35.00" font-family="sans-serif" font-size="22" font-weight="bold" fill="#1e293b" text-anchor="middle" dominant-baseline="middle">Ejemplo: Área de la Cometa</text>
</svg>