<svg xmlns="http://www.w3.org/2000/svg" viewBox="0 0 600 460" style="font-family: Inter, system-ui, sans-serif;">
<rect width="600" height="460" fill="#f8fafc" />
<path d="M 150.0 230.0 L 300.0 140.0 L 450.0 230.0 L 300.0 320.0 Z" fill="#22c55e" fill-opacity="0.2" stroke="#22c55e" stroke-width="3"/>
<line x1="150.0" y1="230.0" x2="450.0" y2="230.0" stroke="#1e293b" stroke-width="1.5" stroke-dasharray="4,4"/>
<line x1="300.0" y1="140.0" x2="300.0" y2="320.0" stroke="#1e293b" stroke-width="1.5" stroke-dasharray="4,4"/>
<text x="130.00" y="230.00" font-family="sans-serif" font-size="18" font-weight="bold" fill="#1e293b" text-anchor="middle" dominant-baseline="middle">A</text>
<text x="300.00" y="120.00" font-family="sans-serif" font-size="18" font-weight="bold" fill="#1e293b" text-anchor="middle" dominant-baseline="middle">B</text>
<text x="470.00" y="230.00" font-family="sans-serif" font-size="18" font-weight="bold" fill="#1e293b" text-anchor="middle" dominant-baseline="middle">C</text>
<text x="300.00" y="345.00" font-family="sans-serif" font-size="18" font-weight="bold" fill="#1e293b" text-anchor="middle" dominant-baseline="middle">D</text>
<line x1="150.0" y1="345.0" x2="450.0" y2="345.0" stroke="#1e293b" stroke-width="1.5"/>
<line x1="150.0" y1="340.0" x2="150.0" y2="350.0" stroke="#1e293b" stroke-width="1.5"/>
<line x1="450.0" y1="340.0" x2="450.0" y2="350.0" stroke="#1e293b" stroke-width="1.5"/>
<line x1="150.0" y1="230.0" x2="150.0" y2="345.0" stroke="#e2e8f0" stroke-width="1" stroke-dasharray="2,2"/>
<line x1="450.0" y1="230.0" x2="450.0" y2="345.0" stroke="#e2e8f0" stroke-width="1" stroke-dasharray="2,2"/>
<text x="300.00" y="365.00" font-family="sans-serif" font-size="14" font-weight="bold" fill="#1e293b" text-anchor="middle" dominant-baseline="middle">D = 10</text>
<line x1="475.0" y1="140.0" x2="475.0" y2="320.0" stroke="#1e293b" stroke-width="1.5"/>
<line x1="470.0" y1="140.0" x2="480.0" y2="140.0" stroke="#1e293b" stroke-width="1.5"/>
<line x1="470.0" y1="320.0" x2="480.0" y2="320.0" stroke="#1e293b" stroke-width="1.5"/>
<line x1="300.0" y1="140.0" x2="475.0" y2="140.0" stroke="#e2e8f0" stroke-width="1" stroke-dasharray="2,2"/>
<line x1="300.0" y1="320.0" x2="475.0" y2="320.0" stroke="#e2e8f0" stroke-width="1" stroke-dasharray="2,2"/>
<text x="495.0" y="230.0" font-family="sans-serif" font-size="14" font-weight="bold" fill="#1e293b" text-anchor="middle" dominant-baseline="middle" transform="rotate(-90 495.0 230.0)">d = 6</text>
<text x="300.00" y="395.00" font-family="sans-serif" font-size="20" font-weight="bold" fill="#22c55e" text-anchor="middle" dominant-baseline="middle">Área = (10 × 6) / 2 = 30</text>
<text x="300.00" y="35.00" font-family="sans-serif" font-size="22" font-weight="bold" fill="#1e293b" text-anchor="middle" dominant-baseline="middle">Ejemplo 4: Área del Rombo (D=10, d=6)</text>
</svg>