<svg xmlns="http://www.w3.org/2000/svg" viewBox="0 0 600 460" style="font-family: Inter, system-ui, sans-serif;">
<rect width="600" height="460" fill="#f8fafc" />
<rect x="220.0" y="60" width="160" height="40" rx="8" fill="#fef3c7" stroke="#1e293b"/>
<text x="300.00" y="80.00" font-family="sans-serif" font-size="18" font-weight="bold" fill="#1e293b" text-anchor="middle" dominant-baseline="middle">CUADRILÁTERO</text>
<line x1="300.0" y1="100" x2="120.0" y2="160" stroke="#e2e8f0" stroke-width="2"/>
<line x1="300.0" y1="100" x2="300.0" y2="160" stroke="#e2e8f0" stroke-width="2"/>
<line x1="300.0" y1="100" x2="480.0" y2="160" stroke="#e2e8f0" stroke-width="2"/>
<rect x="50.0" y="160" width="140" height="40" rx="4" fill="white" stroke="#3b82f6" stroke-width="2"/>
<text x="120.00" y="180.00" font-family="sans-serif" font-size="18" font-weight="bold" fill="#3b82f6" text-anchor="middle" dominant-baseline="middle">Trapezoide</text>
<text x="120.00" y="215.00" font-family="sans-serif" font-size="12" font-weight="bold" fill="#64748b" text-anchor="middle" dominant-baseline="middle">0 pares paralelos</text>
<rect x="230.0" y="160" width="140" height="40" rx="4" fill="white" stroke="#3b82f6" stroke-width="2"/>
<text x="300.00" y="180.00" font-family="sans-serif" font-size="18" font-weight="bold" fill="#3b82f6" text-anchor="middle" dominant-baseline="middle">Trapecio</text>
<text x="300.00" y="215.00" font-family="sans-serif" font-size="12" font-weight="bold" fill="#64748b" text-anchor="middle" dominant-baseline="middle">1 par paralelo</text>
<rect x="410.0" y="160" width="140" height="40" rx="4" fill="white" stroke="#3b82f6" stroke-width="2"/>
<text x="480.00" y="180.00" font-family="sans-serif" font-size="18" font-weight="bold" fill="#3b82f6" text-anchor="middle" dominant-baseline="middle">Paralelogramo</text>
<text x="480.00" y="215.00" font-family="sans-serif" font-size="12" font-weight="bold" fill="#64748b" text-anchor="middle" dominant-baseline="middle">2 pares paralelos</text>
<line x1="480.0" y1="200" x2="410.0" y2="260" stroke="#e2e8f0" stroke-width="2"/>
<line x1="480.0" y1="200" x2="550.0" y2="260" stroke="#e2e8f0" stroke-width="2"/>
<rect x="355.0" y="260" width="110" height="40" rx="4" fill="white" stroke="#22c55e" stroke-width="2"/>
<text x="410.00" y="280.00" font-family="sans-serif" font-size="18" font-weight="bold" fill="#22c55e" text-anchor="middle" dominant-baseline="middle">Rectángulo</text>
<rect x="495.0" y="260" width="110" height="40" rx="4" fill="white" stroke="#22c55e" stroke-width="2"/>
<text x="550.00" y="280.00" font-family="sans-serif" font-size="18" font-weight="bold" fill="#22c55e" text-anchor="middle" dominant-baseline="middle">Rombo</text>
<line x1="410.0" y1="300" x2="480.0" y2="360" stroke="#e2e8f0" stroke-width="2"/>
<line x1="550.0" y1="300" x2="480.0" y2="360" stroke="#e2e8f0" stroke-width="2"/>
<rect x="420.0" y="360" width="120" height="40" rx="4" fill="white" stroke="#22c55e" stroke-width="2"/>
<text x="480.00" y="380.00" font-family="sans-serif" font-size="18" font-weight="bold" fill="#22c55e" text-anchor="middle" dominant-baseline="middle">CUADRADO</text>
<text x="480.00" y="415.00" font-family="sans-serif" font-size="12" font-weight="bold" fill="#22c55e" text-anchor="middle" dominant-baseline="middle">¡Lo tiene TODO!</text>
<text x="300.00" y="35.00" font-family="sans-serif" font-size="22" font-weight="bold" fill="#1e293b" text-anchor="middle" dominant-baseline="middle">Clasificación de Cuadriláteros</text>
</svg>