<svg xmlns="http://www.w3.org/2000/svg" viewBox="0 0 600 460" style="font-family: Inter, system-ui, sans-serif;">
<rect width="600" height="460" fill="#f8fafc" />
<path d="M 150.00 320.00 L 225.00 140.00 L 375.00 140.00 L 450.00 320.00 Z" fill="#3b82f6" fill-opacity="0.1" stroke="#3b82f6" stroke-width="3" stroke-linejoin="round"/>
<path d="M 150.00 320.00 L 225.00 140.00 L 225.00 320.00 Z" fill="#22c55e" fill-opacity="0.2" stroke="#22c55e" stroke-width="2.5" stroke-linejoin="round"/>
<path d="M 210.00 320.00 L 210.00 305.00 L 225.00 305.00" fill="none" stroke="#ef4444" stroke-width="2"/>
<text x="130.00" y="335.00" font-family="sans-serif" font-size="18" font-weight="bold" fill="#1e293b" text-anchor="middle" dominant-baseline="middle">A</text>
<text x="225.00" y="125.00" font-family="sans-serif" font-size="18" font-weight="bold" fill="#1e293b" text-anchor="middle" dominant-baseline="middle">B</text>
<text x="375.00" y="125.00" font-family="sans-serif" font-size="18" font-weight="bold" fill="#1e293b" text-anchor="middle" dominant-baseline="middle">C</text>
<text x="470.00" y="335.00" font-family="sans-serif" font-size="18" font-weight="bold" fill="#1e293b" text-anchor="middle" dominant-baseline="middle">D</text>
<line x1="150.0" y1="355.0" x2="450.0" y2="355.0" stroke="#1e293b" stroke-width="1.5"/>
<line x1="150.0" y1="350.0" x2="150.0" y2="360.0" stroke="#1e293b" stroke-width="1.5"/>
<line x1="450.0" y1="350.0" x2="450.0" y2="360.0" stroke="#1e293b" stroke-width="1.5"/>
<line x1="150.0" y1="320.0" x2="150.0" y2="355.0" stroke="#e2e8f0" stroke-width="1" stroke-dasharray="2,2"/>
<line x1="450.0" y1="320.0" x2="450.0" y2="355.0" stroke="#e2e8f0" stroke-width="1" stroke-dasharray="2,2"/>
<text x="300.00" y="375.00" font-family="sans-serif" font-size="14" font-weight="bold" fill="#1e293b" text-anchor="middle" dominant-baseline="middle">Base Mayor (B) = 20</text>
<line x1="225.0" y1="105.0" x2="375.0" y2="105.0" stroke="#1e293b" stroke-width="1.5"/>
<line x1="225.0" y1="100.0" x2="225.0" y2="110.0" stroke="#1e293b" stroke-width="1.5"/>
<line x1="375.0" y1="100.0" x2="375.0" y2="110.0" stroke="#1e293b" stroke-width="1.5"/>
<line x1="225.0" y1="140.0" x2="225.0" y2="105.0" stroke="#e2e8f0" stroke-width="1" stroke-dasharray="2,2"/>
<line x1="375.0" y1="140.0" x2="375.0" y2="105.0" stroke="#e2e8f0" stroke-width="1" stroke-dasharray="2,2"/>
<text x="300.00" y="125.00" font-family="sans-serif" font-size="14" font-weight="bold" fill="#1e293b" text-anchor="middle" dominant-baseline="middle">Base Menor (b) = 10</text>
<line x1="190.0" y1="320.0" x2="190.0" y2="140.0" stroke="#1e293b" stroke-width="1.5"/>
<line x1="185.0" y1="320.0" x2="195.0" y2="320.0" stroke="#1e293b" stroke-width="1.5"/>
<line x1="185.0" y1="140.0" x2="195.0" y2="140.0" stroke="#1e293b" stroke-width="1.5"/>
<line x1="225.0" y1="320.0" x2="190.0" y2="320.0" stroke="#e2e8f0" stroke-width="1" stroke-dasharray="2,2"/>
<line x1="225.0" y1="140.0" x2="190.0" y2="140.0" stroke="#e2e8f0" stroke-width="1" stroke-dasharray="2,2"/>
<text x="210.0" y="230.0" font-family="sans-serif" font-size="14" font-weight="bold" fill="#1e293b" text-anchor="middle" dominant-baseline="middle" transform="rotate(-90 210.0 230.0)">h = 12</text>
<text x="187.50" y="340.00" font-family="sans-serif" font-size="18" font-weight="bold" fill="#22c55e" text-anchor="middle" dominant-baseline="middle">base=5</text>
<text x="157.50" y="220.00" font-family="sans-serif" font-size="18" font-weight="bold" fill="#ef4444" text-anchor="middle" dominant-baseline="middle">L=13</text>
<text x="300.00" y="400.00" font-family="sans-serif" font-size="18" font-weight="bold" fill="#ef4444" text-anchor="middle" dominant-baseline="middle">L = √(12² + 5²) = 13</text>
<text x="300.00" y="35.00" font-family="sans-serif" font-size="22" font-weight="bold" fill="#1e293b" text-anchor="middle" dominant-baseline="middle">Ejemplo 2: Perímetro de Trapecio Isósceles</text>
</svg>