<svg xmlns="http://www.w3.org/2000/svg" viewBox="0 0 600 460" style="font-family: Inter, system-ui, sans-serif;">
<rect width="600" height="460" fill="#f8fafc" />
<path d="M 140.00 310.00 L 460.00 310.00 L 410.00 150.00 L 270.00 150.00 Z" fill="none" fill-opacity="0.1" stroke="#3b82f6" stroke-width="3" stroke-linejoin="round"/>
<text x="120.00" y="330.00" font-family="sans-serif" font-size="18" font-weight="bold" fill="#1e293b" text-anchor="middle" dominant-baseline="middle">A</text>
<text x="480.00" y="330.00" font-family="sans-serif" font-size="18" font-weight="bold" fill="#1e293b" text-anchor="middle" dominant-baseline="middle">B</text>
<text x="430.00" y="130.00" font-family="sans-serif" font-size="18" font-weight="bold" fill="#1e293b" text-anchor="middle" dominant-baseline="middle">C</text>
<text x="250.00" y="130.00" font-family="sans-serif" font-size="18" font-weight="bold" fill="#1e293b" text-anchor="middle" dominant-baseline="middle">D</text>
<circle cx="205.0" cy="230.0" r="4" fill="#22c55e"/>
<circle cx="435.0" cy="230.0" r="4" fill="#22c55e"/>
<line x1="205.0" y1="230.0" x2="435.0" y2="230.0" stroke="#22c55e" stroke-width="4"/>
<text x="190.00" y="215.00" font-family="sans-serif" font-size="18" font-weight="bold" fill="#22c55e" text-anchor="middle" dominant-baseline="middle">M</text>
<text x="450.00" y="215.00" font-family="sans-serif" font-size="18" font-weight="bold" fill="#22c55e" text-anchor="middle" dominant-baseline="middle">N</text>
<text x="340.00" y="215.00" font-family="sans-serif" font-size="18" font-weight="bold" fill="#22c55e" text-anchor="middle" dominant-baseline="middle">Base Media (m)</text>
<line x1="140.0" y1="350.0" x2="460.0" y2="350.0" stroke="#1e293b" stroke-width="1.5"/>
<line x1="140.0" y1="345.0" x2="140.0" y2="355.0" stroke="#1e293b" stroke-width="1.5"/>
<line x1="460.0" y1="345.0" x2="460.0" y2="355.0" stroke="#1e293b" stroke-width="1.5"/>
<line x1="140.0" y1="310.0" x2="140.0" y2="350.0" stroke="#e2e8f0" stroke-width="1" stroke-dasharray="2,2"/>
<line x1="460.0" y1="310.0" x2="460.0" y2="350.0" stroke="#e2e8f0" stroke-width="1" stroke-dasharray="2,2"/>
<text x="300.00" y="370.00" font-family="sans-serif" font-size="14" font-weight="bold" fill="#1e293b" text-anchor="middle" dominant-baseline="middle">B</text>
<line x1="270.0" y1="110.0" x2="410.0" y2="110.0" stroke="#1e293b" stroke-width="1.5"/>
<line x1="270.0" y1="105.0" x2="270.0" y2="115.0" stroke="#1e293b" stroke-width="1.5"/>
<line x1="410.0" y1="105.0" x2="410.0" y2="115.0" stroke="#1e293b" stroke-width="1.5"/>
<line x1="270.0" y1="150.0" x2="270.0" y2="110.0" stroke="#e2e8f0" stroke-width="1" stroke-dasharray="2,2"/>
<line x1="410.0" y1="150.0" x2="410.0" y2="110.0" stroke="#e2e8f0" stroke-width="1" stroke-dasharray="2,2"/>
<text x="340.00" y="130.00" font-family="sans-serif" font-size="14" font-weight="bold" fill="#1e293b" text-anchor="middle" dominant-baseline="middle">b</text>
<line x1="165.01" y1="269.07" x2="179.99" y2="270.93" stroke="#22c55e" stroke-width="2"/>

<line x1="230.01" y1="189.07" x2="244.99" y2="190.93" stroke="#22c55e" stroke-width="2"/>

<line x1="443.48" y1="278.59" x2="453.31" y2="267.14" stroke="#22c55e" stroke-width="2"/>
<line x1="441.69" y1="272.86" x2="451.52" y2="261.41" stroke="#22c55e" stroke-width="2"/>

<line x1="418.48" y1="198.59" x2="428.31" y2="187.14" stroke="#22c55e" stroke-width="2"/>
<line x1="416.69" y1="192.86" x2="426.52" y2="181.41" stroke="#22c55e" stroke-width="2"/>

<rect x="230.0" y="340.0" width="140" height="50" rx="8" fill="#fef3c7" stroke="#e2e8f0"/>
<text x="300.00" y="365.00" font-family="sans-serif" font-size="18" font-weight="bold" fill="#1e293b" text-anchor="middle" dominant-baseline="middle">m = (B + b) / 2</text>
<text x="300.00" y="35.00" font-family="sans-serif" font-size="22" font-weight="bold" fill="#1e293b" text-anchor="middle" dominant-baseline="middle">Base Media o Mediana</text>
</svg>