<svg xmlns="http://www.w3.org/2000/svg" viewBox="0 0 600 460" style="font-family: Inter, system-ui, sans-serif;">
<rect width="600" height="460" fill="#f8fafc" />
<path d="M 150.00 305.00 L 450.00 305.00 L 410.00 155.00 L 230.00 155.00 Z" fill="none" fill-opacity="0.1" stroke="#3b82f6" stroke-width="3" stroke-linejoin="round"/>
<text x="130.00" y="325.00" font-family="sans-serif" font-size="18" font-weight="bold" fill="#1e293b" text-anchor="middle" dominant-baseline="middle">A</text>
<text x="470.00" y="325.00" font-family="sans-serif" font-size="18" font-weight="bold" fill="#1e293b" text-anchor="middle" dominant-baseline="middle">B</text>
<text x="430.00" y="135.00" font-family="sans-serif" font-size="18" font-weight="bold" fill="#1e293b" text-anchor="middle" dominant-baseline="middle">C</text>
<text x="210.00" y="135.00" font-family="sans-serif" font-size="18" font-weight="bold" fill="#1e293b" text-anchor="middle" dominant-baseline="middle">D</text>
<path d="M 150.00 305.00 L 166.47 274.12 A 35 35 0 0 1 185.00 305.00 Z" fill="#f97316" fill-opacity="0.2" stroke="none"/>
<path d="M 166.47 274.12 A 35 35 0 0 1 185.00 305.00" fill="none" stroke="#f97316" stroke-width="2"/>

<text x="185.00" y="285.00" font-family="sans-serif" font-size="18" font-weight="bold" fill="#1e293b" text-anchor="middle" dominant-baseline="middle">α</text>
<path d="M 230.00 155.00 L 265.00 155.00 A 35 35 0 0 1 213.53 185.88 Z" fill="#f97316" fill-opacity="0.2" stroke="none"/>
<path d="M 265.00 155.00 A 35 35 0 0 1 213.53 185.88" fill="none" stroke="#f97316" stroke-width="2"/>

<text x="245.00" y="190.00" font-family="sans-serif" font-size="18" font-weight="bold" fill="#1e293b" text-anchor="middle" dominant-baseline="middle">δ</text>
<line x1="110.0" y1="305.0" x2="490.0" y2="305.0" stroke="#e2e8f0" stroke-dasharray="4,4"/>
<line x1="190.0" y1="155.0" x2="450.0" y2="155.0" stroke="#e2e8f0" stroke-dasharray="4,4"/>
<text x="300.00" y="365.00" font-family="sans-serif" font-size="20" font-weight="bold" fill="#1e293b" text-anchor="middle" dominant-baseline="middle">α + δ = 180°</text>
<text x="300.00" y="35.00" font-family="sans-serif" font-size="22" font-weight="bold" fill="#1e293b" text-anchor="middle" dominant-baseline="middle">Ángulos Conjugados (Entre Paralelas)</text>
</svg>