<svg xmlns="http://www.w3.org/2000/svg" viewBox="0 0 600 460" style="font-family: Inter, system-ui, sans-serif;">
<rect width="600" height="460" fill="#f8fafc" />
<path d="M 200.00 305.00 L 550.00 305.00 L 340.00 155.00 L 240.00 155.00 Z" fill="none" fill-opacity="0.1" stroke="#f97316" stroke-width="3" stroke-linejoin="round"/>
<text x="180.00" y="325.00" font-family="sans-serif" font-size="18" font-weight="bold" fill="#1e293b" text-anchor="middle" dominant-baseline="middle">A</text>
<text x="570.00" y="325.00" font-family="sans-serif" font-size="18" font-weight="bold" fill="#1e293b" text-anchor="middle" dominant-baseline="middle">B</text>
<text x="360.00" y="135.00" font-family="sans-serif" font-size="18" font-weight="bold" fill="#1e293b" text-anchor="middle" dominant-baseline="middle">C</text>
<text x="220.00" y="135.00" font-family="sans-serif" font-size="18" font-weight="bold" fill="#1e293b" text-anchor="middle" dominant-baseline="middle">D</text>
<text x="180.00" y="230.00" font-family="sans-serif" font-size="18" font-weight="bold" fill="#1e293b" text-anchor="middle" dominant-baseline="middle">L₁ = 5</text>
<text x="485.00" y="230.00" font-family="sans-serif" font-size="18" font-weight="bold" fill="#1e293b" text-anchor="middle" dominant-baseline="middle">L₂ = 8</text>
<line x1="200.0" y1="345.0" x2="550.0" y2="345.0" stroke="#1e293b" stroke-width="1.5"/>
<line x1="200.0" y1="340.0" x2="200.0" y2="350.0" stroke="#1e293b" stroke-width="1.5"/>
<line x1="550.0" y1="340.0" x2="550.0" y2="350.0" stroke="#1e293b" stroke-width="1.5"/>
<line x1="200.0" y1="305.0" x2="200.0" y2="345.0" stroke="#e2e8f0" stroke-width="1" stroke-dasharray="2,2"/>
<line x1="550.0" y1="305.0" x2="550.0" y2="345.0" stroke="#e2e8f0" stroke-width="1" stroke-dasharray="2,2"/>
<text x="375.00" y="365.00" font-family="sans-serif" font-size="14" font-weight="bold" fill="#1e293b" text-anchor="middle" dominant-baseline="middle">Base Mayor</text>
<path d="M 200.00 305.00 L 207.73 276.01 A 30 30 0 0 1 230.00 305.00 Z" fill="#f97316" fill-opacity="0.2" stroke="none"/>
<path d="M 207.73 276.01 A 30 30 0 0 1 230.00 305.00" fill="none" stroke="#f97316" stroke-width="2"/>

<path d="M 550.00 305.00 L 510.00 305.00 A 40 40 0 0 1 517.45 281.75 Z" fill="#ef4444" fill-opacity="0.2" stroke="none"/>
<path d="M 510.00 305.00 A 40 40 0 0 1 517.45 281.75" fill="none" stroke="#ef4444" stroke-width="2"/>

<text x="375.00" y="395.00" font-family="sans-serif" font-size="16" font-weight="bold" fill="#f97316" text-anchor="middle" dominant-baseline="middle">L₁ ≠ L₂ ⟹ Ángulos Basales Diferentes</text>
<text x="300.00" y="35.00" font-family="sans-serif" font-size="22" font-weight="bold" fill="#1e293b" text-anchor="middle" dominant-baseline="middle">Ejemplo: Trapecio Escaleno</text>
</svg>