<svg xmlns="http://www.w3.org/2000/svg" viewBox="0 0 600 460" style="font-family: Inter, system-ui, sans-serif;">
<rect width="600" height="460" fill="#f8fafc" />
<path d="M 160.00 310.00 L 440.00 310.00 L 310.00 150.00 L 160.00 150.00 Z" fill="none" fill-opacity="0.1" stroke="#3b82f6" stroke-width="3" stroke-linejoin="round"/>
<text x="140.00" y="330.00" font-family="sans-serif" font-size="18" font-weight="bold" fill="#1e293b" text-anchor="middle" dominant-baseline="middle">A</text>
<text x="460.00" y="330.00" font-family="sans-serif" font-size="18" font-weight="bold" fill="#1e293b" text-anchor="middle" dominant-baseline="middle">B</text>
<text x="330.00" y="130.00" font-family="sans-serif" font-size="18" font-weight="bold" fill="#1e293b" text-anchor="middle" dominant-baseline="middle">C</text>
<text x="140.00" y="130.00" font-family="sans-serif" font-size="18" font-weight="bold" fill="#1e293b" text-anchor="middle" dominant-baseline="middle">D</text>
<path d="M 175.00 310.00 L 175.00 295.00 L 160.00 295.00" fill="none" stroke="#ef4444" stroke-width="2"/>
<path d="M 160.00 165.00 L 175.00 165.00 L 175.00 150.00" fill="none" stroke="#ef4444" stroke-width="2"/>
<path d="M 440.00 310.00 L 400.00 310.00 A 40 40 0 0 1 414.78 278.96 Z" fill="#f97316" fill-opacity="0.2" stroke="none"/>
<path d="M 400.00 310.00 A 40 40 0 0 1 414.78 278.96" fill="none" stroke="#f97316" stroke-width="2"/>

<text x="380.00" y="290.00" font-family="sans-serif" font-size="18" font-weight="bold" fill="#1e293b" text-anchor="middle" dominant-baseline="middle">50°</text>
<path d="M 310.00 150.00 L 335.22 181.04 A 40 40 0 0 1 270.00 150.00 Z" fill="#ef4444" fill-opacity="0.2" stroke="none"/>
<path d="M 335.22 181.04 A 40 40 0 0 1 270.00 150.00" fill="none" stroke="#ef4444" stroke-width="2"/>

<text x="275.00" y="185.00" font-family="sans-serif" font-size="20" font-weight="bold" fill="#ef4444" text-anchor="middle" dominant-baseline="middle">x = ?</text>
<text x="300.00" y="380.00" font-family="sans-serif" font-size="18" font-weight="bold" fill="#64748b" text-anchor="middle" dominant-baseline="middle">x + 50° = 180°</text>
<text x="300.00" y="35.00" font-family="sans-serif" font-size="22" font-weight="bold" fill="#1e293b" text-anchor="middle" dominant-baseline="middle">Ejemplo: Ángulos en Trapecio Rectángulo</text>
</svg>