<svg xmlns="http://www.w3.org/2000/svg" viewBox="0 0 600 460" style="font-family: Inter, system-ui, sans-serif;">
<rect width="600" height="460" fill="#f8fafc" />
<path d="M 160.00 300.00 L 440.00 300.00 L 370.00 160.00 L 230.00 160.00 Z" fill="#22c55e" fill-opacity="0.05" stroke="#22c55e" stroke-width="3" stroke-linejoin="round"/>
<text x="140.00" y="320.00" font-family="sans-serif" font-size="18" font-weight="bold" fill="#1e293b" text-anchor="middle" dominant-baseline="middle">A</text>
<text x="460.00" y="320.00" font-family="sans-serif" font-size="18" font-weight="bold" fill="#1e293b" text-anchor="middle" dominant-baseline="middle">B</text>
<text x="390.00" y="140.00" font-family="sans-serif" font-size="18" font-weight="bold" fill="#1e293b" text-anchor="middle" dominant-baseline="middle">C</text>
<text x="210.00" y="140.00" font-family="sans-serif" font-size="18" font-weight="bold" fill="#1e293b" text-anchor="middle" dominant-baseline="middle">D</text>
<line x1="187.49" y1="230.72" x2="202.51" y2="229.28" stroke="#22c55e" stroke-width="2"/>

<line x1="401.06" y1="236.44" x2="408.94" y2="223.56" stroke="#22c55e" stroke-width="2"/>

<path d="M 160.00 300.00 L 173.42 273.17 A 30 30 0 0 1 190.00 300.00 Z" fill="#22c55e" fill-opacity="0.2" stroke="none"/>
<path d="M 173.42 273.17 A 30 30 0 0 1 190.00 300.00" fill="none" stroke="#22c55e" stroke-width="2"/>

<path d="M 440.00 300.00 L 410.00 300.00 A 30 30 0 0 1 426.58 273.17 Z" fill="#22c55e" fill-opacity="0.2" stroke="none"/>
<path d="M 410.00 300.00 A 30 30 0 0 1 426.58 273.17" fill="none" stroke="#22c55e" stroke-width="2"/>

<text x="300.00" y="370.00" font-family="sans-serif" font-size="16" font-weight="bold" fill="#64748b" text-anchor="middle" dominant-baseline="middle">Lados laterales y ángulos basales iguales</text>
<text x="300.00" y="35.00" font-family="sans-serif" font-size="22" font-weight="bold" fill="#1e293b" text-anchor="middle" dominant-baseline="middle">Trapecio Isósceles</text>
</svg>