<svg xmlns="http://www.w3.org/2000/svg" viewBox="0 0 600 300">
  <defs></defs>
  <rect x="0.00" y="0.00" width="600.00" height="300.00" fill="white" stroke="none" stroke-width="0" rx="0"  />
  <text x="150.00" y="40.00" font-family="Inter, sans-serif" font-size="16" font-weight="bold" fill="#22c55e" text-anchor="middle" dominant-baseline="middle">3 Puntos = 1 Plano</text>
  <polygon points="50.00,150.00 150.00,100.00 250.00,150.00 150.00,200.00" fill="#bbf7d0" stroke="#22c55e" stroke-width="2"/>
  <circle cx="100.00" cy="150.00" r="5" fill="#1e293b" />
  <circle cx="150.00" cy="125.00" r="5" fill="#1e293b" />
  <circle cx="200.00" cy="150.00" r="5" fill="#1e293b" />
  <text x="150.00" y="230.00" font-family="Inter, sans-serif" font-size="12" font-weight="normal" fill="#64748b" text-anchor="middle" dominant-baseline="middle">Siempre tocan el plano</text>
  <text x="150.00" y="250.00" font-family="Inter, sans-serif" font-size="12" font-weight="normal" fill="#64748b" text-anchor="middle" dominant-baseline="middle">(Como un trípode)</text>
  <line x1="300.00" y1="30.00" x2="300.00" y2="270.00" stroke="#e2e8f0" stroke-width="2"  />
  <text x="450.00" y="40.00" font-family="Inter, sans-serif" font-size="16" font-weight="bold" fill="#ef4444" text-anchor="middle" dominant-baseline="middle">4 Puntos = ¿Duda?</text>
  <polygon points="350.00,150.00 450.00,100.00 550.00,150.00 450.00,200.00" fill="#fecaca" stroke="#1e293b" stroke-width="2"/>
  <circle cx="400.00" cy="150.00" r="5" fill="#1e293b" />
  <circle cx="450.00" cy="125.00" r="5" fill="#1e293b" />
  <circle cx="500.00" cy="150.00" r="5" fill="#1e293b" />
  <circle cx="450.00" cy="80.00" r="5" fill="#ef4444" />
  <text x="460.00" y="80.00" font-family="Inter, sans-serif" font-size="14" font-weight="bold" fill="#ef4444" text-anchor="middle" dominant-baseline="middle">?</text>
  <line x1="450.00" y1="80.00" x2="450.00" y2="175.00" stroke="#ef4444" stroke-width="2" stroke-dasharray="5,5" />
  <circle cx="450.00" cy="175.00" r="3" fill="none" stroke="#ef4444" stroke-width="1"/>
  <text x="450.00" y="230.00" font-family="Inter, sans-serif" font-size="12" font-weight="normal" fill="#64748b" text-anchor="middle" dominant-baseline="middle">Uno puede quedar fuera</text>
  <text x="450.00" y="250.00" font-family="Inter, sans-serif" font-size="12" font-weight="normal" fill="#64748b" text-anchor="middle" dominant-baseline="middle">(Silla coja)</text>
</svg>