<svg xmlns="http://www.w3.org/2000/svg" viewBox="0 0 600 500">
  <defs>
        <marker id="arrow-64748b" markerWidth="10" markerHeight="10" 
                refX="8" refY="5.0" orient="auto">
            <polygon points="0,0 10,5.0 0,10" fill="#64748b"/>
        </marker></defs>
  <rect x="0.00" y="0.00" width="600.00" height="500.00" fill="#ffffff" stroke="none" stroke-width="0" rx="0"/>
  <text x="300.00" y="25.00" font-family="Inter, sans-serif" font-size="15" font-weight="bold" fill="#1e293b" text-anchor="middle" dominant-baseline="middle">Alturas y Ortocentro</text>
  <line x1="50.00" y1="450.00" x2="50.00" y2="50.00" stroke="#e2e8f0" stroke-width="0.5"  />
  <line x1="175.00" y1="450.00" x2="175.00" y2="50.00" stroke="#e2e8f0" stroke-width="0.5"  />
  <line x1="237.50" y1="450.00" x2="237.50" y2="50.00" stroke="#e2e8f0" stroke-width="0.5"  />
  <line x1="300.00" y1="450.00" x2="300.00" y2="50.00" stroke="#e2e8f0" stroke-width="0.5"  />
  <line x1="362.50" y1="450.00" x2="362.50" y2="50.00" stroke="#e2e8f0" stroke-width="0.5"  />
  <line x1="425.00" y1="450.00" x2="425.00" y2="50.00" stroke="#e2e8f0" stroke-width="0.5"  />
  <line x1="487.50" y1="450.00" x2="487.50" y2="50.00" stroke="#e2e8f0" stroke-width="0.5"  />
  <line x1="550.00" y1="450.00" x2="550.00" y2="50.00" stroke="#e2e8f0" stroke-width="0.5"  />
  <line x1="50.00" y1="450.00" x2="550.00" y2="450.00" stroke="#e2e8f0" stroke-width="0.5"  />
  <line x1="50.00" y1="335.71" x2="550.00" y2="335.71" stroke="#e2e8f0" stroke-width="0.5"  />
  <line x1="50.00" y1="278.57" x2="550.00" y2="278.57" stroke="#e2e8f0" stroke-width="0.5"  />
  <line x1="50.00" y1="221.43" x2="550.00" y2="221.43" stroke="#e2e8f0" stroke-width="0.5"  />
  <line x1="50.00" y1="164.29" x2="550.00" y2="164.29" stroke="#e2e8f0" stroke-width="0.5"  />
  <line x1="50.00" y1="107.14" x2="550.00" y2="107.14" stroke="#e2e8f0" stroke-width="0.5"  />
  <line x1="50.00" y1="50.00" x2="550.00" y2="50.00" stroke="#e2e8f0" stroke-width="0.5"  />
  <line x1="50.00" y1="392.86" x2="550.00" y2="392.86" stroke="#64748b" stroke-width="2"  marker-end="url(#arrow-64748b)"/>
  <line x1="112.50" y1="450.00" x2="112.50" y2="50.00" stroke="#64748b" stroke-width="2"  marker-end="url(#arrow-64748b)"/>
  <text x="545.00" y="412.86" font-family="Inter, sans-serif" font-size="14" font-weight="bold" fill="#64748b" text-anchor="middle" dominant-baseline="middle">x</text>
  <text x="92.50" y="60.00" font-family="Inter, sans-serif" font-size="14" font-weight="bold" fill="#64748b" text-anchor="middle" dominant-baseline="middle">y</text>
  <line x1="50.00" y1="387.86" x2="50.00" y2="397.86" stroke="#64748b" stroke-width="1"  />
  <text x="50.00" y="410.86" font-family="Inter, sans-serif" font-size="11" font-weight="normal" fill="#64748b" text-anchor="middle" dominant-baseline="middle">-1</text>
  <line x1="175.00" y1="387.86" x2="175.00" y2="397.86" stroke="#64748b" stroke-width="1"  />
  <text x="175.00" y="410.86" font-family="Inter, sans-serif" font-size="11" font-weight="normal" fill="#64748b" text-anchor="middle" dominant-baseline="middle">1</text>
  <line x1="237.50" y1="387.86" x2="237.50" y2="397.86" stroke="#64748b" stroke-width="1"  />
  <text x="237.50" y="410.86" font-family="Inter, sans-serif" font-size="11" font-weight="normal" fill="#64748b" text-anchor="middle" dominant-baseline="middle">2</text>
  <line x1="300.00" y1="387.86" x2="300.00" y2="397.86" stroke="#64748b" stroke-width="1"  />
  <text x="300.00" y="410.86" font-family="Inter, sans-serif" font-size="11" font-weight="normal" fill="#64748b" text-anchor="middle" dominant-baseline="middle">3</text>
  <line x1="362.50" y1="387.86" x2="362.50" y2="397.86" stroke="#64748b" stroke-width="1"  />
  <text x="362.50" y="410.86" font-family="Inter, sans-serif" font-size="11" font-weight="normal" fill="#64748b" text-anchor="middle" dominant-baseline="middle">4</text>
  <line x1="425.00" y1="387.86" x2="425.00" y2="397.86" stroke="#64748b" stroke-width="1"  />
  <text x="425.00" y="410.86" font-family="Inter, sans-serif" font-size="11" font-weight="normal" fill="#64748b" text-anchor="middle" dominant-baseline="middle">5</text>
  <line x1="487.50" y1="387.86" x2="487.50" y2="397.86" stroke="#64748b" stroke-width="1"  />
  <text x="487.50" y="410.86" font-family="Inter, sans-serif" font-size="11" font-weight="normal" fill="#64748b" text-anchor="middle" dominant-baseline="middle">6</text>
  <line x1="550.00" y1="387.86" x2="550.00" y2="397.86" stroke="#64748b" stroke-width="1"  />
  <text x="550.00" y="410.86" font-family="Inter, sans-serif" font-size="11" font-weight="normal" fill="#64748b" text-anchor="middle" dominant-baseline="middle">7</text>
  <line x1="107.50" y1="450.00" x2="117.50" y2="450.00" stroke="#64748b" stroke-width="1"  />
  <text x="97.50" y="450.00" font-family="Inter, sans-serif" font-size="11" font-weight="normal" fill="#64748b" text-anchor="end" dominant-baseline="middle">-1</text>
  <line x1="107.50" y1="335.71" x2="117.50" y2="335.71" stroke="#64748b" stroke-width="1"  />
  <text x="97.50" y="335.71" font-family="Inter, sans-serif" font-size="11" font-weight="normal" fill="#64748b" text-anchor="end" dominant-baseline="middle">1</text>
  <line x1="107.50" y1="278.57" x2="117.50" y2="278.57" stroke="#64748b" stroke-width="1"  />
  <text x="97.50" y="278.57" font-family="Inter, sans-serif" font-size="11" font-weight="normal" fill="#64748b" text-anchor="end" dominant-baseline="middle">2</text>
  <line x1="107.50" y1="221.43" x2="117.50" y2="221.43" stroke="#64748b" stroke-width="1"  />
  <text x="97.50" y="221.43" font-family="Inter, sans-serif" font-size="11" font-weight="normal" fill="#64748b" text-anchor="end" dominant-baseline="middle">3</text>
  <line x1="107.50" y1="164.29" x2="117.50" y2="164.29" stroke="#64748b" stroke-width="1"  />
  <text x="97.50" y="164.29" font-family="Inter, sans-serif" font-size="11" font-weight="normal" fill="#64748b" text-anchor="end" dominant-baseline="middle">4</text>
  <line x1="107.50" y1="107.14" x2="117.50" y2="107.14" stroke="#64748b" stroke-width="1"  />
  <text x="97.50" y="107.14" font-family="Inter, sans-serif" font-size="11" font-weight="normal" fill="#64748b" text-anchor="end" dominant-baseline="middle">5</text>
  <line x1="107.50" y1="50.00" x2="117.50" y2="50.00" stroke="#64748b" stroke-width="1"  />
  <text x="97.50" y="50.00" font-family="Inter, sans-serif" font-size="11" font-weight="normal" fill="#64748b" text-anchor="end" dominant-baseline="middle">6</text>
  <text x="100.50" y="407.86" font-family="Inter, sans-serif" font-size="11" font-weight="normal" fill="#64748b" text-anchor="middle" dominant-baseline="middle">O</text>
  <polygon points="175.00,335.71 487.50,335.71 300.00,107.14" fill="#dbeafe" stroke="#3b82f6" stroke-width="2"/>
  <line x1="175.00" y1="335.71" x2="375.00" y2="198.57" stroke="#ef4444" stroke-width="1.5"  />
  <line x1="487.50" y1="335.71" x2="237.50" y2="221.43" stroke="#22c55e" stroke-width="1.5"  />
  <line x1="300.00" y1="107.14" x2="300.00" y2="335.71" stroke="#3b82f6" stroke-width="1.5"  />
  <circle cx="300.00" cy="250.00" r="5" fill="#ef4444" />
  <text x="310.00" y="240.00" font-family="Inter, sans-serif" font-size="12" font-weight="bold" fill="#ef4444" text-anchor="start" dominant-baseline="middle">H(3, 2.5)</text>
  <circle cx="175.00" cy="335.71" r="5" fill="#3b82f6" />
  <text x="185.00" y="325.71" font-family="Inter, sans-serif" font-size="12" font-weight="bold" fill="#3b82f6" text-anchor="start" dominant-baseline="middle">A(1, 1)</text>
  <circle cx="487.50" cy="335.71" r="5" fill="#3b82f6" />
  <text x="497.50" y="325.71" font-family="Inter, sans-serif" font-size="12" font-weight="bold" fill="#3b82f6" text-anchor="start" dominant-baseline="middle">B(6, 1)</text>
  <circle cx="300.00" cy="107.14" r="5" fill="#3b82f6" />
  <text x="300.00" y="92.14" font-family="Inter, sans-serif" font-size="12" font-weight="bold" fill="#3b82f6" text-anchor="start" dominant-baseline="middle">C(3, 5)</text>
  <text x="308.00" y="327.71" font-family="Inter, sans-serif" font-size="10" font-weight="normal" fill="#3b82f6" text-anchor="middle" dominant-baseline="middle">⊥</text>
  <rect x="96.75" y="455.00" width="406.50" height="30.00" fill="#fef3c7" stroke="#f97316" stroke-width="1" rx="6"/>
  <text x="300.00" y="470.00" font-family="Inter, sans-serif" font-size="10" font-weight="bold" fill="#1e293b" text-anchor="middle" dominant-baseline="middle">Alturas: perpendiculares desde vértice al lado opuesto | H = ortocentro</text>
</svg>