<svg xmlns="http://www.w3.org/2000/svg" viewBox="0 0 600 480">
  <defs>
        <marker id="arrow-64748b" markerWidth="10" markerHeight="10" 
                refX="8" refY="5.0" orient="auto">
            <polygon points="0,0 10,5.0 0,10" fill="#64748b"/>
        </marker></defs>
  <rect x="0.00" y="0.00" width="600.00" height="480.00" fill="#ffffff" stroke="none" stroke-width="0" rx="0"/>
  <text x="300.00" y="25.00" font-family="Inter, sans-serif" font-size="16" font-weight="bold" fill="#1e293b" text-anchor="middle" dominant-baseline="middle">Angulo Inclinacion</text>
  <line x1="50.00" y1="430.00" x2="50.00" y2="50.00" stroke="#e2e8f0" stroke-width="0.5"  />
  <line x1="100.00" y1="430.00" x2="100.00" y2="50.00" stroke="#e2e8f0" stroke-width="0.5"  />
  <line x1="150.00" y1="430.00" x2="150.00" y2="50.00" stroke="#e2e8f0" stroke-width="0.5"  />
  <line x1="200.00" y1="430.00" x2="200.00" y2="50.00" stroke="#e2e8f0" stroke-width="0.5"  />
  <line x1="300.00" y1="430.00" x2="300.00" y2="50.00" stroke="#e2e8f0" stroke-width="0.5"  />
  <line x1="350.00" y1="430.00" x2="350.00" y2="50.00" stroke="#e2e8f0" stroke-width="0.5"  />
  <line x1="400.00" y1="430.00" x2="400.00" y2="50.00" stroke="#e2e8f0" stroke-width="0.5"  />
  <line x1="450.00" y1="430.00" x2="450.00" y2="50.00" stroke="#e2e8f0" stroke-width="0.5"  />
  <line x1="500.00" y1="430.00" x2="500.00" y2="50.00" stroke="#e2e8f0" stroke-width="0.5"  />
  <line x1="550.00" y1="430.00" x2="550.00" y2="50.00" stroke="#e2e8f0" stroke-width="0.5"  />
  <line x1="50.00" y1="430.00" x2="550.00" y2="430.00" stroke="#e2e8f0" stroke-width="0.5"  />
  <line x1="50.00" y1="382.50" x2="550.00" y2="382.50" stroke="#e2e8f0" stroke-width="0.5"  />
  <line x1="50.00" y1="287.50" x2="550.00" y2="287.50" stroke="#e2e8f0" stroke-width="0.5"  />
  <line x1="50.00" y1="240.00" x2="550.00" y2="240.00" stroke="#e2e8f0" stroke-width="0.5"  />
  <line x1="50.00" y1="192.50" x2="550.00" y2="192.50" stroke="#e2e8f0" stroke-width="0.5"  />
  <line x1="50.00" y1="145.00" x2="550.00" y2="145.00" stroke="#e2e8f0" stroke-width="0.5"  />
  <line x1="50.00" y1="97.50" x2="550.00" y2="97.50" stroke="#e2e8f0" stroke-width="0.5"  />
  <line x1="50.00" y1="50.00" x2="550.00" y2="50.00" stroke="#e2e8f0" stroke-width="0.5"  />
  <line x1="50.00" y1="335.00" x2="550.00" y2="335.00" stroke="#64748b" stroke-width="2"  marker-end="url(#arrow-64748b)"/>
  <line x1="250.00" y1="430.00" x2="250.00" y2="50.00" stroke="#64748b" stroke-width="2"  marker-end="url(#arrow-64748b)"/>
  <text x="545.00" y="355.00" font-family="Inter, sans-serif" font-size="14" font-weight="bold" fill="#64748b" text-anchor="middle" dominant-baseline="middle">x</text>
  <text x="230.00" y="60.00" font-family="Inter, sans-serif" font-size="14" font-weight="bold" fill="#64748b" text-anchor="middle" dominant-baseline="middle">y</text>
  <line x1="50.00" y1="330.00" x2="50.00" y2="340.00" stroke="#64748b" stroke-width="1"  />
  <text x="50.00" y="353.00" font-family="Inter, sans-serif" font-size="11" font-weight="normal" fill="#64748b" text-anchor="middle" dominant-baseline="middle">-4</text>
  <line x1="100.00" y1="330.00" x2="100.00" y2="340.00" stroke="#64748b" stroke-width="1"  />
  <text x="100.00" y="353.00" font-family="Inter, sans-serif" font-size="11" font-weight="normal" fill="#64748b" text-anchor="middle" dominant-baseline="middle">-3</text>
  <line x1="150.00" y1="330.00" x2="150.00" y2="340.00" stroke="#64748b" stroke-width="1"  />
  <text x="150.00" y="353.00" font-family="Inter, sans-serif" font-size="11" font-weight="normal" fill="#64748b" text-anchor="middle" dominant-baseline="middle">-2</text>
  <line x1="200.00" y1="330.00" x2="200.00" y2="340.00" stroke="#64748b" stroke-width="1"  />
  <text x="200.00" y="353.00" font-family="Inter, sans-serif" font-size="11" font-weight="normal" fill="#64748b" text-anchor="middle" dominant-baseline="middle">-1</text>
  <line x1="300.00" y1="330.00" x2="300.00" y2="340.00" stroke="#64748b" stroke-width="1"  />
  <text x="300.00" y="353.00" font-family="Inter, sans-serif" font-size="11" font-weight="normal" fill="#64748b" text-anchor="middle" dominant-baseline="middle">1</text>
  <line x1="350.00" y1="330.00" x2="350.00" y2="340.00" stroke="#64748b" stroke-width="1"  />
  <text x="350.00" y="353.00" font-family="Inter, sans-serif" font-size="11" font-weight="normal" fill="#64748b" text-anchor="middle" dominant-baseline="middle">2</text>
  <line x1="400.00" y1="330.00" x2="400.00" y2="340.00" stroke="#64748b" stroke-width="1"  />
  <text x="400.00" y="353.00" font-family="Inter, sans-serif" font-size="11" font-weight="normal" fill="#64748b" text-anchor="middle" dominant-baseline="middle">3</text>
  <line x1="450.00" y1="330.00" x2="450.00" y2="340.00" stroke="#64748b" stroke-width="1"  />
  <text x="450.00" y="353.00" font-family="Inter, sans-serif" font-size="11" font-weight="normal" fill="#64748b" text-anchor="middle" dominant-baseline="middle">4</text>
  <line x1="500.00" y1="330.00" x2="500.00" y2="340.00" stroke="#64748b" stroke-width="1"  />
  <text x="500.00" y="353.00" font-family="Inter, sans-serif" font-size="11" font-weight="normal" fill="#64748b" text-anchor="middle" dominant-baseline="middle">5</text>
  <line x1="550.00" y1="330.00" x2="550.00" y2="340.00" stroke="#64748b" stroke-width="1"  />
  <text x="550.00" y="353.00" font-family="Inter, sans-serif" font-size="11" font-weight="normal" fill="#64748b" text-anchor="middle" dominant-baseline="middle">6</text>
  <line x1="245.00" y1="430.00" x2="255.00" y2="430.00" stroke="#64748b" stroke-width="1"  />
  <text x="235.00" y="430.00" font-family="Inter, sans-serif" font-size="11" font-weight="normal" fill="#64748b" text-anchor="end" dominant-baseline="middle">-2</text>
  <line x1="245.00" y1="382.50" x2="255.00" y2="382.50" stroke="#64748b" stroke-width="1"  />
  <text x="235.00" y="382.50" font-family="Inter, sans-serif" font-size="11" font-weight="normal" fill="#64748b" text-anchor="end" dominant-baseline="middle">-1</text>
  <line x1="245.00" y1="287.50" x2="255.00" y2="287.50" stroke="#64748b" stroke-width="1"  />
  <text x="235.00" y="287.50" font-family="Inter, sans-serif" font-size="11" font-weight="normal" fill="#64748b" text-anchor="end" dominant-baseline="middle">1</text>
  <line x1="245.00" y1="240.00" x2="255.00" y2="240.00" stroke="#64748b" stroke-width="1"  />
  <text x="235.00" y="240.00" font-family="Inter, sans-serif" font-size="11" font-weight="normal" fill="#64748b" text-anchor="end" dominant-baseline="middle">2</text>
  <line x1="245.00" y1="192.50" x2="255.00" y2="192.50" stroke="#64748b" stroke-width="1"  />
  <text x="235.00" y="192.50" font-family="Inter, sans-serif" font-size="11" font-weight="normal" fill="#64748b" text-anchor="end" dominant-baseline="middle">3</text>
  <line x1="245.00" y1="145.00" x2="255.00" y2="145.00" stroke="#64748b" stroke-width="1"  />
  <text x="235.00" y="145.00" font-family="Inter, sans-serif" font-size="11" font-weight="normal" fill="#64748b" text-anchor="end" dominant-baseline="middle">4</text>
  <line x1="245.00" y1="97.50" x2="255.00" y2="97.50" stroke="#64748b" stroke-width="1"  />
  <text x="235.00" y="97.50" font-family="Inter, sans-serif" font-size="11" font-weight="normal" fill="#64748b" text-anchor="end" dominant-baseline="middle">5</text>
  <line x1="245.00" y1="50.00" x2="255.00" y2="50.00" stroke="#64748b" stroke-width="1"  />
  <text x="235.00" y="50.00" font-family="Inter, sans-serif" font-size="11" font-weight="normal" fill="#64748b" text-anchor="end" dominant-baseline="middle">6</text>
  <text x="238.00" y="350.00" font-family="Inter, sans-serif" font-size="11" font-weight="normal" fill="#64748b" text-anchor="middle" dominant-baseline="middle">O</text>
  <line x1="150.00" y1="430.00" x2="500.00" y2="97.50" stroke="#3b82f6" stroke-width="2.5"  />
  <path d="M 290.0 335.0 A 40 40 0 0 0 278.2842712474619 306.7157287525381" fill="none" stroke="#f97316" stroke-width="2"/>
  <text x="300.81" y="313.95" font-family="Inter, sans-serif" font-size="16" font-weight="bold" fill="#f97316" text-anchor="middle" dominant-baseline="middle">θ</text>
  <text x="460.00" y="135.00" font-family="Inter, sans-serif" font-size="12" font-weight="bold" fill="#3b82f6" text-anchor="start" dominant-baseline="middle">m = 1</text>
  <rect x="179.80" y="433.60" width="240.40" height="32.80" fill="#fef3c7" stroke="#f97316" stroke-width="1" rx="6"/>
  <text x="300.00" y="450.00" font-family="Inter, sans-serif" font-size="12" font-weight="bold" fill="#1e293b" text-anchor="middle" dominant-baseline="middle">m = tan(θ)  →  θ = arctan(1) = 45°</text>
</svg>