<svg xmlns="http://www.w3.org/2000/svg" viewBox="0 0 600 500">
  <defs>
        <marker id="arrow-64748b-10" markerWidth="10" markerHeight="10" 
                refX="9.0" refY="5.0" orient="auto"
                markerUnits="userSpaceOnUse">
            <polygon points="0,0 10,5.0 0,10" fill="#64748b"/>
        </marker>

        <marker id="arrow-64748b-10" markerWidth="10" markerHeight="10" 
                refX="9.0" refY="5.0" orient="auto"
                markerUnits="userSpaceOnUse">
            <polygon points="0,0 10,5.0 0,10" fill="#64748b"/>
        </marker>

        <marker id="arrow-3b82f6-10" markerWidth="10" markerHeight="10" 
                refX="9.0" refY="5.0" orient="auto"
                markerUnits="userSpaceOnUse">
            <polygon points="0,0 10,5.0 0,10" fill="#3b82f6"/>
        </marker>

        <marker id="arrow-22c55e-10" markerWidth="10" markerHeight="10" 
                refX="9.0" refY="5.0" orient="auto"
                markerUnits="userSpaceOnUse">
            <polygon points="0,0 10,5.0 0,10" fill="#22c55e"/>
        </marker>

        <marker id="arrow-ef4444-12" markerWidth="12" markerHeight="12" 
                refX="10.8" refY="6.0" orient="auto"
                markerUnits="userSpaceOnUse">
            <polygon points="0,0 12,6.0 0,12" fill="#ef4444"/>
        </marker></defs>
  <rect x="0.00" y="0.00" width="600.00" height="500.00" fill="#ffffff" stroke="none" stroke-width="0" rx="0"  />
  <text x="300.00" y="30.00" font-family="Inter, sans-serif" font-size="18" font-weight="bold" fill="#1e293b" text-anchor="middle" dominant-baseline="middle">Suma Gráfica (Ley del Paralelogramo)</text>
  <line x1="102.86" y1="430.00" x2="102.86" y2="70.00" stroke="#e2e8f0" stroke-width="0.5"  />
  <line x1="234.29" y1="430.00" x2="234.29" y2="70.00" stroke="#e2e8f0" stroke-width="0.5"  />
  <line x1="300.00" y1="430.00" x2="300.00" y2="70.00" stroke="#e2e8f0" stroke-width="0.5"  />
  <line x1="365.71" y1="430.00" x2="365.71" y2="70.00" stroke="#e2e8f0" stroke-width="0.5"  />
  <line x1="431.43" y1="430.00" x2="431.43" y2="70.00" stroke="#e2e8f0" stroke-width="0.5"  />
  <line x1="497.14" y1="430.00" x2="497.14" y2="70.00" stroke="#e2e8f0" stroke-width="0.5"  />
  <line x1="70.00" y1="400.00" x2="530.00" y2="400.00" stroke="#e2e8f0" stroke-width="0.5"  />
  <line x1="70.00" y1="280.00" x2="530.00" y2="280.00" stroke="#e2e8f0" stroke-width="0.5"  />
  <line x1="70.00" y1="220.00" x2="530.00" y2="220.00" stroke="#e2e8f0" stroke-width="0.5"  />
  <line x1="70.00" y1="160.00" x2="530.00" y2="160.00" stroke="#e2e8f0" stroke-width="0.5"  />
  <line x1="70.00" y1="100.00" x2="530.00" y2="100.00" stroke="#e2e8f0" stroke-width="0.5"  />
  <line x1="70.00" y1="340.00" x2="530.00" y2="340.00" stroke="#64748b" stroke-width="2"  marker-end="url(#arrow-64748b-10)"/>
  <line x1="168.57" y1="430.00" x2="168.57" y2="70.00" stroke="#64748b" stroke-width="2"  marker-end="url(#arrow-64748b-10)"/>
  <text x="525.00" y="360.00" font-family="Inter, sans-serif" font-size="14" font-weight="bold" fill="#64748b" text-anchor="middle" dominant-baseline="middle">Re</text>
  <text x="148.57" y="80.00" font-family="Inter, sans-serif" font-size="14" font-weight="bold" fill="#64748b" text-anchor="middle" dominant-baseline="middle">Im</text>
  <line x1="102.86" y1="335.00" x2="102.86" y2="345.00" stroke="#64748b" stroke-width="1"  />
  <text x="102.86" y="358.00" font-family="Inter, sans-serif" font-size="11" font-weight="normal" fill="#64748b" text-anchor="middle" dominant-baseline="middle">-1</text>
  <line x1="234.29" y1="335.00" x2="234.29" y2="345.00" stroke="#64748b" stroke-width="1"  />
  <text x="234.29" y="358.00" font-family="Inter, sans-serif" font-size="11" font-weight="normal" fill="#64748b" text-anchor="middle" dominant-baseline="middle">1</text>
  <line x1="300.00" y1="335.00" x2="300.00" y2="345.00" stroke="#64748b" stroke-width="1"  />
  <text x="300.00" y="358.00" font-family="Inter, sans-serif" font-size="11" font-weight="normal" fill="#64748b" text-anchor="middle" dominant-baseline="middle">2</text>
  <line x1="365.71" y1="335.00" x2="365.71" y2="345.00" stroke="#64748b" stroke-width="1"  />
  <text x="365.71" y="358.00" font-family="Inter, sans-serif" font-size="11" font-weight="normal" fill="#64748b" text-anchor="middle" dominant-baseline="middle">3</text>
  <line x1="431.43" y1="335.00" x2="431.43" y2="345.00" stroke="#64748b" stroke-width="1"  />
  <text x="431.43" y="358.00" font-family="Inter, sans-serif" font-size="11" font-weight="normal" fill="#64748b" text-anchor="middle" dominant-baseline="middle">4</text>
  <line x1="497.14" y1="335.00" x2="497.14" y2="345.00" stroke="#64748b" stroke-width="1"  />
  <text x="497.14" y="358.00" font-family="Inter, sans-serif" font-size="11" font-weight="normal" fill="#64748b" text-anchor="middle" dominant-baseline="middle">5</text>
  <line x1="163.57" y1="400.00" x2="173.57" y2="400.00" stroke="#64748b" stroke-width="1"  />
  <text x="153.57" y="400.00" font-family="Inter, sans-serif" font-size="11" font-weight="normal" fill="#64748b" text-anchor="end" dominant-baseline="middle">-1</text>
  <line x1="163.57" y1="280.00" x2="173.57" y2="280.00" stroke="#64748b" stroke-width="1"  />
  <text x="153.57" y="280.00" font-family="Inter, sans-serif" font-size="11" font-weight="normal" fill="#64748b" text-anchor="end" dominant-baseline="middle">1</text>
  <line x1="163.57" y1="220.00" x2="173.57" y2="220.00" stroke="#64748b" stroke-width="1"  />
  <text x="153.57" y="220.00" font-family="Inter, sans-serif" font-size="11" font-weight="normal" fill="#64748b" text-anchor="end" dominant-baseline="middle">2</text>
  <line x1="163.57" y1="160.00" x2="173.57" y2="160.00" stroke="#64748b" stroke-width="1"  />
  <text x="153.57" y="160.00" font-family="Inter, sans-serif" font-size="11" font-weight="normal" fill="#64748b" text-anchor="end" dominant-baseline="middle">3</text>
  <line x1="163.57" y1="100.00" x2="173.57" y2="100.00" stroke="#64748b" stroke-width="1"  />
  <text x="153.57" y="100.00" font-family="Inter, sans-serif" font-size="11" font-weight="normal" fill="#64748b" text-anchor="end" dominant-baseline="middle">4</text>
  <text x="156.57" y="355.00" font-family="Inter, sans-serif" font-size="11" font-weight="normal" fill="#64748b" text-anchor="middle" dominant-baseline="middle">O</text>
  <line x1="365.71" y1="280.00" x2="431.43" y2="160.00" stroke="#94a3b8" stroke-width="1.5" stroke-dasharray="5,5" />
  <line x1="234.29" y1="220.00" x2="431.43" y2="160.00" stroke="#94a3b8" stroke-width="1.5" stroke-dasharray="5,5" />
  <line x1="168.57" y1="340.00" x2="365.71" y2="280.00" stroke="#3b82f6" stroke-width="3"  marker-end="url(#arrow-3b82f6-10)"/>
  <line x1="168.57" y1="340.00" x2="234.29" y2="220.00" stroke="#22c55e" stroke-width="3"  marker-end="url(#arrow-22c55e-10)"/>
  <line x1="168.57" y1="340.00" x2="431.43" y2="160.00" stroke="#ef4444" stroke-width="4"  marker-end="url(#arrow-ef4444-12)"/>
  <circle cx="365.71" cy="280.00" r="5" fill="#3b82f6" />
  <text x="375.71" y="270.00" font-family="Inter, sans-serif" font-size="12" font-weight="bold" fill="#3b82f6" text-anchor="start" dominant-baseline="middle">z₁=3+1i(3, 1)</text>
  <circle cx="234.29" cy="220.00" r="5" fill="#22c55e" />
  <text x="244.29" y="210.00" font-family="Inter, sans-serif" font-size="12" font-weight="bold" fill="#22c55e" text-anchor="start" dominant-baseline="middle">z₂=1+2i(1, 2)</text>
  <circle cx="431.43" cy="160.00" r="7" fill="#ef4444" />
  <text x="441.43" y="150.00" font-family="Inter, sans-serif" font-size="12" font-weight="bold" fill="#ef4444" text-anchor="start" dominant-baseline="middle">Suma(4, 3)</text>
  <rect x="207.30" y="442.20" width="185.40" height="35.60" fill="#fef3c7" stroke="#f97316" stroke-width="1" rx="6"  />
  <text x="300.00" y="460.00" font-family="Inter, sans-serif" font-size="14" font-weight="bold" fill="#1e293b" text-anchor="middle" dominant-baseline="middle">(3+1i) + (1+2i) = 4+3i</text>
</svg>