<svg xmlns="http://www.w3.org/2000/svg" viewBox="0 0 600 500">
  <defs>
        <marker id="arrow-64748b-10" markerWidth="10" markerHeight="10" 
                refX="9.0" refY="5.0" orient="auto"
                markerUnits="userSpaceOnUse">
            <polygon points="0,0 10,5.0 0,10" fill="#64748b"/>
        </marker>

        <marker id="arrow-64748b-10" markerWidth="10" markerHeight="10" 
                refX="9.0" refY="5.0" orient="auto"
                markerUnits="userSpaceOnUse">
            <polygon points="0,0 10,5.0 0,10" fill="#64748b"/>
        </marker></defs>
  <rect x="0.00" y="0.00" width="600.00" height="500.00" fill="#ffffff" stroke="none" stroke-width="0" rx="0"  />
  <text x="300.00" y="30.00" font-family="Inter, sans-serif" font-size="18" font-weight="bold" fill="#1e293b" text-anchor="middle" dominant-baseline="middle">Números Complejos en los Cuadrantes</text>
  <line x1="60.00" y1="440.00" x2="60.00" y2="60.00" stroke="#e2e8f0" stroke-width="0.5"  />
  <line x1="100.00" y1="440.00" x2="100.00" y2="60.00" stroke="#e2e8f0" stroke-width="0.5"  />
  <line x1="140.00" y1="440.00" x2="140.00" y2="60.00" stroke="#e2e8f0" stroke-width="0.5"  />
  <line x1="180.00" y1="440.00" x2="180.00" y2="60.00" stroke="#e2e8f0" stroke-width="0.5"  />
  <line x1="220.00" y1="440.00" x2="220.00" y2="60.00" stroke="#e2e8f0" stroke-width="0.5"  />
  <line x1="260.00" y1="440.00" x2="260.00" y2="60.00" stroke="#e2e8f0" stroke-width="0.5"  />
  <line x1="340.00" y1="440.00" x2="340.00" y2="60.00" stroke="#e2e8f0" stroke-width="0.5"  />
  <line x1="380.00" y1="440.00" x2="380.00" y2="60.00" stroke="#e2e8f0" stroke-width="0.5"  />
  <line x1="420.00" y1="440.00" x2="420.00" y2="60.00" stroke="#e2e8f0" stroke-width="0.5"  />
  <line x1="460.00" y1="440.00" x2="460.00" y2="60.00" stroke="#e2e8f0" stroke-width="0.5"  />
  <line x1="500.00" y1="440.00" x2="500.00" y2="60.00" stroke="#e2e8f0" stroke-width="0.5"  />
  <line x1="540.00" y1="440.00" x2="540.00" y2="60.00" stroke="#e2e8f0" stroke-width="0.5"  />
  <line x1="60.00" y1="440.00" x2="540.00" y2="440.00" stroke="#e2e8f0" stroke-width="0.5"  />
  <line x1="60.00" y1="402.00" x2="540.00" y2="402.00" stroke="#e2e8f0" stroke-width="0.5"  />
  <line x1="60.00" y1="364.00" x2="540.00" y2="364.00" stroke="#e2e8f0" stroke-width="0.5"  />
  <line x1="60.00" y1="326.00" x2="540.00" y2="326.00" stroke="#e2e8f0" stroke-width="0.5"  />
  <line x1="60.00" y1="288.00" x2="540.00" y2="288.00" stroke="#e2e8f0" stroke-width="0.5"  />
  <line x1="60.00" y1="212.00" x2="540.00" y2="212.00" stroke="#e2e8f0" stroke-width="0.5"  />
  <line x1="60.00" y1="174.00" x2="540.00" y2="174.00" stroke="#e2e8f0" stroke-width="0.5"  />
  <line x1="60.00" y1="136.00" x2="540.00" y2="136.00" stroke="#e2e8f0" stroke-width="0.5"  />
  <line x1="60.00" y1="98.00" x2="540.00" y2="98.00" stroke="#e2e8f0" stroke-width="0.5"  />
  <line x1="60.00" y1="60.00" x2="540.00" y2="60.00" stroke="#e2e8f0" stroke-width="0.5"  />
  <line x1="60.00" y1="250.00" x2="540.00" y2="250.00" stroke="#64748b" stroke-width="2"  marker-end="url(#arrow-64748b-10)"/>
  <line x1="300.00" y1="440.00" x2="300.00" y2="60.00" stroke="#64748b" stroke-width="2"  marker-end="url(#arrow-64748b-10)"/>
  <text x="535.00" y="270.00" font-family="Inter, sans-serif" font-size="14" font-weight="bold" fill="#64748b" text-anchor="middle" dominant-baseline="middle">Re</text>
  <text x="280.00" y="70.00" font-family="Inter, sans-serif" font-size="14" font-weight="bold" fill="#64748b" text-anchor="middle" dominant-baseline="middle">Im</text>
  <line x1="60.00" y1="245.00" x2="60.00" y2="255.00" stroke="#64748b" stroke-width="1"  />
  <text x="60.00" y="268.00" font-family="Inter, sans-serif" font-size="11" font-weight="normal" fill="#64748b" text-anchor="middle" dominant-baseline="middle">-6</text>
  <line x1="100.00" y1="245.00" x2="100.00" y2="255.00" stroke="#64748b" stroke-width="1"  />
  <text x="100.00" y="268.00" font-family="Inter, sans-serif" font-size="11" font-weight="normal" fill="#64748b" text-anchor="middle" dominant-baseline="middle">-5</text>
  <line x1="140.00" y1="245.00" x2="140.00" y2="255.00" stroke="#64748b" stroke-width="1"  />
  <text x="140.00" y="268.00" font-family="Inter, sans-serif" font-size="11" font-weight="normal" fill="#64748b" text-anchor="middle" dominant-baseline="middle">-4</text>
  <line x1="180.00" y1="245.00" x2="180.00" y2="255.00" stroke="#64748b" stroke-width="1"  />
  <text x="180.00" y="268.00" font-family="Inter, sans-serif" font-size="11" font-weight="normal" fill="#64748b" text-anchor="middle" dominant-baseline="middle">-3</text>
  <line x1="220.00" y1="245.00" x2="220.00" y2="255.00" stroke="#64748b" stroke-width="1"  />
  <text x="220.00" y="268.00" font-family="Inter, sans-serif" font-size="11" font-weight="normal" fill="#64748b" text-anchor="middle" dominant-baseline="middle">-2</text>
  <line x1="260.00" y1="245.00" x2="260.00" y2="255.00" stroke="#64748b" stroke-width="1"  />
  <text x="260.00" y="268.00" font-family="Inter, sans-serif" font-size="11" font-weight="normal" fill="#64748b" text-anchor="middle" dominant-baseline="middle">-1</text>
  <line x1="340.00" y1="245.00" x2="340.00" y2="255.00" stroke="#64748b" stroke-width="1"  />
  <text x="340.00" y="268.00" font-family="Inter, sans-serif" font-size="11" font-weight="normal" fill="#64748b" text-anchor="middle" dominant-baseline="middle">1</text>
  <line x1="380.00" y1="245.00" x2="380.00" y2="255.00" stroke="#64748b" stroke-width="1"  />
  <text x="380.00" y="268.00" font-family="Inter, sans-serif" font-size="11" font-weight="normal" fill="#64748b" text-anchor="middle" dominant-baseline="middle">2</text>
  <line x1="420.00" y1="245.00" x2="420.00" y2="255.00" stroke="#64748b" stroke-width="1"  />
  <text x="420.00" y="268.00" font-family="Inter, sans-serif" font-size="11" font-weight="normal" fill="#64748b" text-anchor="middle" dominant-baseline="middle">3</text>
  <line x1="460.00" y1="245.00" x2="460.00" y2="255.00" stroke="#64748b" stroke-width="1"  />
  <text x="460.00" y="268.00" font-family="Inter, sans-serif" font-size="11" font-weight="normal" fill="#64748b" text-anchor="middle" dominant-baseline="middle">4</text>
  <line x1="500.00" y1="245.00" x2="500.00" y2="255.00" stroke="#64748b" stroke-width="1"  />
  <text x="500.00" y="268.00" font-family="Inter, sans-serif" font-size="11" font-weight="normal" fill="#64748b" text-anchor="middle" dominant-baseline="middle">5</text>
  <line x1="540.00" y1="245.00" x2="540.00" y2="255.00" stroke="#64748b" stroke-width="1"  />
  <text x="540.00" y="268.00" font-family="Inter, sans-serif" font-size="11" font-weight="normal" fill="#64748b" text-anchor="middle" dominant-baseline="middle">6</text>
  <line x1="295.00" y1="440.00" x2="305.00" y2="440.00" stroke="#64748b" stroke-width="1"  />
  <text x="285.00" y="440.00" font-family="Inter, sans-serif" font-size="11" font-weight="normal" fill="#64748b" text-anchor="end" dominant-baseline="middle">-5</text>
  <line x1="295.00" y1="402.00" x2="305.00" y2="402.00" stroke="#64748b" stroke-width="1"  />
  <text x="285.00" y="402.00" font-family="Inter, sans-serif" font-size="11" font-weight="normal" fill="#64748b" text-anchor="end" dominant-baseline="middle">-4</text>
  <line x1="295.00" y1="364.00" x2="305.00" y2="364.00" stroke="#64748b" stroke-width="1"  />
  <text x="285.00" y="364.00" font-family="Inter, sans-serif" font-size="11" font-weight="normal" fill="#64748b" text-anchor="end" dominant-baseline="middle">-3</text>
  <line x1="295.00" y1="326.00" x2="305.00" y2="326.00" stroke="#64748b" stroke-width="1"  />
  <text x="285.00" y="326.00" font-family="Inter, sans-serif" font-size="11" font-weight="normal" fill="#64748b" text-anchor="end" dominant-baseline="middle">-2</text>
  <line x1="295.00" y1="288.00" x2="305.00" y2="288.00" stroke="#64748b" stroke-width="1"  />
  <text x="285.00" y="288.00" font-family="Inter, sans-serif" font-size="11" font-weight="normal" fill="#64748b" text-anchor="end" dominant-baseline="middle">-1</text>
  <line x1="295.00" y1="212.00" x2="305.00" y2="212.00" stroke="#64748b" stroke-width="1"  />
  <text x="285.00" y="212.00" font-family="Inter, sans-serif" font-size="11" font-weight="normal" fill="#64748b" text-anchor="end" dominant-baseline="middle">1</text>
  <line x1="295.00" y1="174.00" x2="305.00" y2="174.00" stroke="#64748b" stroke-width="1"  />
  <text x="285.00" y="174.00" font-family="Inter, sans-serif" font-size="11" font-weight="normal" fill="#64748b" text-anchor="end" dominant-baseline="middle">2</text>
  <line x1="295.00" y1="136.00" x2="305.00" y2="136.00" stroke="#64748b" stroke-width="1"  />
  <text x="285.00" y="136.00" font-family="Inter, sans-serif" font-size="11" font-weight="normal" fill="#64748b" text-anchor="end" dominant-baseline="middle">3</text>
  <line x1="295.00" y1="98.00" x2="305.00" y2="98.00" stroke="#64748b" stroke-width="1"  />
  <text x="285.00" y="98.00" font-family="Inter, sans-serif" font-size="11" font-weight="normal" fill="#64748b" text-anchor="end" dominant-baseline="middle">4</text>
  <line x1="295.00" y1="60.00" x2="305.00" y2="60.00" stroke="#64748b" stroke-width="1"  />
  <text x="285.00" y="60.00" font-family="Inter, sans-serif" font-size="11" font-weight="normal" fill="#64748b" text-anchor="end" dominant-baseline="middle">5</text>
  <text x="288.00" y="265.00" font-family="Inter, sans-serif" font-size="11" font-weight="normal" fill="#64748b" text-anchor="middle" dominant-baseline="middle">O</text>
  <line x1="420.00" y1="174.00" x2="420.00" y2="250.00" stroke="#ef4444" stroke-width="1" stroke-dasharray="5,5" />
  <line x1="420.00" y1="174.00" x2="300.00" y2="174.00" stroke="#ef4444" stroke-width="1" stroke-dasharray="5,5" />
  <circle cx="420.00" cy="174.00" r="5" fill="#ef4444" />
  <text x="430.00" y="159.00" font-family="Inter, sans-serif" font-size="12" font-weight="bold" fill="#ef4444" text-anchor="start" dominant-baseline="middle">z₁ = 3 + 2i</text>
  <line x1="140.00" y1="212.00" x2="140.00" y2="250.00" stroke="#22c55e" stroke-width="1" stroke-dasharray="5,5" />
  <line x1="140.00" y1="212.00" x2="300.00" y2="212.00" stroke="#22c55e" stroke-width="1" stroke-dasharray="5,5" />
  <circle cx="140.00" cy="212.00" r="5" fill="#22c55e" />
  <text x="150.00" y="197.00" font-family="Inter, sans-serif" font-size="12" font-weight="bold" fill="#22c55e" text-anchor="start" dominant-baseline="middle">z₂ = -4 + i</text>
  <line x1="220.00" y1="364.00" x2="220.00" y2="250.00" stroke="#f97316" stroke-width="1" stroke-dasharray="5,5" />
  <line x1="220.00" y1="364.00" x2="300.00" y2="364.00" stroke="#f97316" stroke-width="1" stroke-dasharray="5,5" />
  <circle cx="220.00" cy="364.00" r="5" fill="#f97316" />
  <text x="230.00" y="389.00" font-family="Inter, sans-serif" font-size="12" font-weight="bold" fill="#f97316" text-anchor="start" dominant-baseline="middle">z₃ = -2 - 3i</text>
  <line x1="500.00" y1="402.00" x2="500.00" y2="250.00" stroke="#ef4444" stroke-width="1" stroke-dasharray="5,5" />
  <line x1="500.00" y1="402.00" x2="300.00" y2="402.00" stroke="#ef4444" stroke-width="1" stroke-dasharray="5,5" />
  <circle cx="500.00" cy="402.00" r="5" fill="#ef4444" />
  <text x="510.00" y="427.00" font-family="Inter, sans-serif" font-size="12" font-weight="bold" fill="#ef4444" text-anchor="start" dominant-baseline="middle">z₄ = 5 - 4i</text>
</svg>