<svg xmlns="http://www.w3.org/2000/svg" viewBox="0 0 600 480">
  <defs>
        <marker id="arrow-64748b" markerWidth="10" markerHeight="10" 
                refX="8" refY="5.0" orient="auto">
            <polygon points="0,0 10,5.0 0,10" fill="#64748b"/>
        </marker></defs>
  <rect x="0.00" y="0.00" width="600.00" height="480.00" fill="#ffffff" stroke="none" stroke-width="0" rx="0"/>
  <text x="300.00" y="25.00" font-family="Inter, sans-serif" font-size="16" font-weight="bold" fill="#1e293b" text-anchor="middle" dominant-baseline="middle">Calculo Pendiente</text>
  <line x1="50.00" y1="430.00" x2="50.00" y2="50.00" stroke="#e2e8f0" stroke-width="0.5"  />
  <line x1="175.00" y1="430.00" x2="175.00" y2="50.00" stroke="#e2e8f0" stroke-width="0.5"  />
  <line x1="237.50" y1="430.00" x2="237.50" y2="50.00" stroke="#e2e8f0" stroke-width="0.5"  />
  <line x1="300.00" y1="430.00" x2="300.00" y2="50.00" stroke="#e2e8f0" stroke-width="0.5"  />
  <line x1="362.50" y1="430.00" x2="362.50" y2="50.00" stroke="#e2e8f0" stroke-width="0.5"  />
  <line x1="425.00" y1="430.00" x2="425.00" y2="50.00" stroke="#e2e8f0" stroke-width="0.5"  />
  <line x1="487.50" y1="430.00" x2="487.50" y2="50.00" stroke="#e2e8f0" stroke-width="0.5"  />
  <line x1="550.00" y1="430.00" x2="550.00" y2="50.00" stroke="#e2e8f0" stroke-width="0.5"  />
  <line x1="50.00" y1="430.00" x2="550.00" y2="430.00" stroke="#e2e8f0" stroke-width="0.5"  />
  <line x1="50.00" y1="335.00" x2="550.00" y2="335.00" stroke="#e2e8f0" stroke-width="0.5"  />
  <line x1="50.00" y1="287.50" x2="550.00" y2="287.50" stroke="#e2e8f0" stroke-width="0.5"  />
  <line x1="50.00" y1="240.00" x2="550.00" y2="240.00" stroke="#e2e8f0" stroke-width="0.5"  />
  <line x1="50.00" y1="192.50" x2="550.00" y2="192.50" stroke="#e2e8f0" stroke-width="0.5"  />
  <line x1="50.00" y1="145.00" x2="550.00" y2="145.00" stroke="#e2e8f0" stroke-width="0.5"  />
  <line x1="50.00" y1="97.50" x2="550.00" y2="97.50" stroke="#e2e8f0" stroke-width="0.5"  />
  <line x1="50.00" y1="50.00" x2="550.00" y2="50.00" stroke="#e2e8f0" stroke-width="0.5"  />
  <line x1="50.00" y1="382.50" x2="550.00" y2="382.50" stroke="#64748b" stroke-width="2"  marker-end="url(#arrow-64748b)"/>
  <line x1="112.50" y1="430.00" x2="112.50" y2="50.00" stroke="#64748b" stroke-width="2"  marker-end="url(#arrow-64748b)"/>
  <text x="545.00" y="402.50" font-family="Inter, sans-serif" font-size="14" font-weight="bold" fill="#64748b" text-anchor="middle" dominant-baseline="middle">x</text>
  <text x="92.50" y="60.00" font-family="Inter, sans-serif" font-size="14" font-weight="bold" fill="#64748b" text-anchor="middle" dominant-baseline="middle">y</text>
  <line x1="50.00" y1="377.50" x2="50.00" y2="387.50" stroke="#64748b" stroke-width="1"  />
  <text x="50.00" y="400.50" font-family="Inter, sans-serif" font-size="11" font-weight="normal" fill="#64748b" text-anchor="middle" dominant-baseline="middle">-1</text>
  <line x1="175.00" y1="377.50" x2="175.00" y2="387.50" stroke="#64748b" stroke-width="1"  />
  <text x="175.00" y="400.50" font-family="Inter, sans-serif" font-size="11" font-weight="normal" fill="#64748b" text-anchor="middle" dominant-baseline="middle">1</text>
  <line x1="237.50" y1="377.50" x2="237.50" y2="387.50" stroke="#64748b" stroke-width="1"  />
  <text x="237.50" y="400.50" font-family="Inter, sans-serif" font-size="11" font-weight="normal" fill="#64748b" text-anchor="middle" dominant-baseline="middle">2</text>
  <line x1="300.00" y1="377.50" x2="300.00" y2="387.50" stroke="#64748b" stroke-width="1"  />
  <text x="300.00" y="400.50" font-family="Inter, sans-serif" font-size="11" font-weight="normal" fill="#64748b" text-anchor="middle" dominant-baseline="middle">3</text>
  <line x1="362.50" y1="377.50" x2="362.50" y2="387.50" stroke="#64748b" stroke-width="1"  />
  <text x="362.50" y="400.50" font-family="Inter, sans-serif" font-size="11" font-weight="normal" fill="#64748b" text-anchor="middle" dominant-baseline="middle">4</text>
  <line x1="425.00" y1="377.50" x2="425.00" y2="387.50" stroke="#64748b" stroke-width="1"  />
  <text x="425.00" y="400.50" font-family="Inter, sans-serif" font-size="11" font-weight="normal" fill="#64748b" text-anchor="middle" dominant-baseline="middle">5</text>
  <line x1="487.50" y1="377.50" x2="487.50" y2="387.50" stroke="#64748b" stroke-width="1"  />
  <text x="487.50" y="400.50" font-family="Inter, sans-serif" font-size="11" font-weight="normal" fill="#64748b" text-anchor="middle" dominant-baseline="middle">6</text>
  <line x1="550.00" y1="377.50" x2="550.00" y2="387.50" stroke="#64748b" stroke-width="1"  />
  <text x="550.00" y="400.50" font-family="Inter, sans-serif" font-size="11" font-weight="normal" fill="#64748b" text-anchor="middle" dominant-baseline="middle">7</text>
  <line x1="107.50" y1="430.00" x2="117.50" y2="430.00" stroke="#64748b" stroke-width="1"  />
  <text x="97.50" y="430.00" font-family="Inter, sans-serif" font-size="11" font-weight="normal" fill="#64748b" text-anchor="end" dominant-baseline="middle">-1</text>
  <line x1="107.50" y1="335.00" x2="117.50" y2="335.00" stroke="#64748b" stroke-width="1"  />
  <text x="97.50" y="335.00" font-family="Inter, sans-serif" font-size="11" font-weight="normal" fill="#64748b" text-anchor="end" dominant-baseline="middle">1</text>
  <line x1="107.50" y1="287.50" x2="117.50" y2="287.50" stroke="#64748b" stroke-width="1"  />
  <text x="97.50" y="287.50" font-family="Inter, sans-serif" font-size="11" font-weight="normal" fill="#64748b" text-anchor="end" dominant-baseline="middle">2</text>
  <line x1="107.50" y1="240.00" x2="117.50" y2="240.00" stroke="#64748b" stroke-width="1"  />
  <text x="97.50" y="240.00" font-family="Inter, sans-serif" font-size="11" font-weight="normal" fill="#64748b" text-anchor="end" dominant-baseline="middle">3</text>
  <line x1="107.50" y1="192.50" x2="117.50" y2="192.50" stroke="#64748b" stroke-width="1"  />
  <text x="97.50" y="192.50" font-family="Inter, sans-serif" font-size="11" font-weight="normal" fill="#64748b" text-anchor="end" dominant-baseline="middle">4</text>
  <line x1="107.50" y1="145.00" x2="117.50" y2="145.00" stroke="#64748b" stroke-width="1"  />
  <text x="97.50" y="145.00" font-family="Inter, sans-serif" font-size="11" font-weight="normal" fill="#64748b" text-anchor="end" dominant-baseline="middle">5</text>
  <line x1="107.50" y1="97.50" x2="117.50" y2="97.50" stroke="#64748b" stroke-width="1"  />
  <text x="97.50" y="97.50" font-family="Inter, sans-serif" font-size="11" font-weight="normal" fill="#64748b" text-anchor="end" dominant-baseline="middle">6</text>
  <line x1="107.50" y1="50.00" x2="117.50" y2="50.00" stroke="#64748b" stroke-width="1"  />
  <text x="97.50" y="50.00" font-family="Inter, sans-serif" font-size="11" font-weight="normal" fill="#64748b" text-anchor="end" dominant-baseline="middle">7</text>
  <text x="100.50" y="397.50" font-family="Inter, sans-serif" font-size="11" font-weight="normal" fill="#64748b" text-anchor="middle" dominant-baseline="middle">O</text>
  <polygon points="175.00,287.50 362.50,287.50 362.50,145.00" fill="#fef3c7" stroke="none" stroke-width="2"/>
  <line x1="175.00" y1="287.50" x2="362.50" y2="287.50" stroke="#94a3b8" stroke-width="1.5" stroke-dasharray="5,5" />
  <line x1="362.50" y1="287.50" x2="362.50" y2="145.00" stroke="#94a3b8" stroke-width="1.5" stroke-dasharray="5,5" />
  <polyline points="350.50,287.50 350.50,275.50 362.50,275.50" fill="none" stroke="#94a3b8" stroke-width="1.5"/>
  <line x1="175.00" y1="287.50" x2="362.50" y2="145.00" stroke="#3b82f6" stroke-width="2.5"  />
  <text x="268.75" y="305.50" font-family="Inter, sans-serif" font-size="12" font-weight="bold" fill="#22c55e" text-anchor="middle" dominant-baseline="middle">Δx = 3</text>
  <text x="380.50" y="216.25" font-family="Inter, sans-serif" font-size="12" font-weight="bold" fill="#ef4444" text-anchor="middle" dominant-baseline="middle">Δy = 3</text>
  <circle cx="175.00" cy="287.50" r="5" fill="#3b82f6" />
  <text x="185.00" y="277.50" font-family="Inter, sans-serif" font-size="12" font-weight="bold" fill="#3b82f6" text-anchor="start" dominant-baseline="middle">P₁(1, 2)</text>
  <circle cx="362.50" cy="145.00" r="5" fill="#3b82f6" />
  <text x="302.50" y="135.00" font-family="Inter, sans-serif" font-size="12" font-weight="bold" fill="#3b82f6" text-anchor="start" dominant-baseline="middle">P₂(4, 5)</text>
  <rect x="224.07" y="432.90" width="151.85" height="34.20" fill="#fef3c7" stroke="#f97316" stroke-width="1" rx="6"/>
  <text x="300.00" y="450.00" font-family="Inter, sans-serif" font-size="13" font-weight="bold" fill="#1e293b" text-anchor="middle" dominant-baseline="middle">m = Δy/Δx = 3/3 = 1</text>
</svg>