<svg xmlns="http://www.w3.org/2000/svg" viewBox="0 0 600 500">
  <defs>
        <marker id="arrow-64748b-10" markerWidth="10" markerHeight="10" 
                refX="9.0" refY="5.0" orient="auto"
                markerUnits="userSpaceOnUse">
            <polygon points="0,0 10,5.0 0,10" fill="#64748b"/>
        </marker>

        <marker id="arrow-64748b-10" markerWidth="10" markerHeight="10" 
                refX="9.0" refY="5.0" orient="auto"
                markerUnits="userSpaceOnUse">
            <polygon points="0,0 10,5.0 0,10" fill="#64748b"/>
        </marker>

        <marker id="arrow-3b82f6-10" markerWidth="10" markerHeight="10" 
                refX="9.0" refY="5.0" orient="auto"
                markerUnits="userSpaceOnUse">
            <polygon points="0,0 10,5.0 0,10" fill="#3b82f6"/>
        </marker>

        <marker id="arrow-22c55e-10" markerWidth="10" markerHeight="10" 
                refX="9.0" refY="5.0" orient="auto"
                markerUnits="userSpaceOnUse">
            <polygon points="0,0 10,5.0 0,10" fill="#22c55e"/>
        </marker></defs>
  <rect x="0.00" y="0.00" width="600.00" height="500.00" fill="#ffffff" stroke="none" stroke-width="0" rx="0"  />
  <text x="300.00" y="30.00" font-family="Inter, sans-serif" font-size="18" font-weight="bold" fill="#1e293b" text-anchor="middle" dominant-baseline="middle">Simetría del Conjugado (Reflejo)</text>
  <line x1="70.00" y1="430.00" x2="70.00" y2="70.00" stroke="#e2e8f0" stroke-width="0.5"  />
  <line x1="135.71" y1="430.00" x2="135.71" y2="70.00" stroke="#e2e8f0" stroke-width="0.5"  />
  <line x1="267.14" y1="430.00" x2="267.14" y2="70.00" stroke="#e2e8f0" stroke-width="0.5"  />
  <line x1="332.86" y1="430.00" x2="332.86" y2="70.00" stroke="#e2e8f0" stroke-width="0.5"  />
  <line x1="398.57" y1="430.00" x2="398.57" y2="70.00" stroke="#e2e8f0" stroke-width="0.5"  />
  <line x1="464.29" y1="430.00" x2="464.29" y2="70.00" stroke="#e2e8f0" stroke-width="0.5"  />
  <line x1="530.00" y1="430.00" x2="530.00" y2="70.00" stroke="#e2e8f0" stroke-width="0.5"  />
  <line x1="70.00" y1="430.00" x2="530.00" y2="430.00" stroke="#e2e8f0" stroke-width="0.5"  />
  <line x1="70.00" y1="385.00" x2="530.00" y2="385.00" stroke="#e2e8f0" stroke-width="0.5"  />
  <line x1="70.00" y1="340.00" x2="530.00" y2="340.00" stroke="#e2e8f0" stroke-width="0.5"  />
  <line x1="70.00" y1="295.00" x2="530.00" y2="295.00" stroke="#e2e8f0" stroke-width="0.5"  />
  <line x1="70.00" y1="205.00" x2="530.00" y2="205.00" stroke="#e2e8f0" stroke-width="0.5"  />
  <line x1="70.00" y1="160.00" x2="530.00" y2="160.00" stroke="#e2e8f0" stroke-width="0.5"  />
  <line x1="70.00" y1="115.00" x2="530.00" y2="115.00" stroke="#e2e8f0" stroke-width="0.5"  />
  <line x1="70.00" y1="70.00" x2="530.00" y2="70.00" stroke="#e2e8f0" stroke-width="0.5"  />
  <line x1="70.00" y1="250.00" x2="530.00" y2="250.00" stroke="#64748b" stroke-width="2"  marker-end="url(#arrow-64748b-10)"/>
  <line x1="201.43" y1="430.00" x2="201.43" y2="70.00" stroke="#64748b" stroke-width="2"  marker-end="url(#arrow-64748b-10)"/>
  <text x="525.00" y="270.00" font-family="Inter, sans-serif" font-size="14" font-weight="bold" fill="#64748b" text-anchor="middle" dominant-baseline="middle">Re</text>
  <text x="181.43" y="80.00" font-family="Inter, sans-serif" font-size="14" font-weight="bold" fill="#64748b" text-anchor="middle" dominant-baseline="middle">Im</text>
  <line x1="70.00" y1="245.00" x2="70.00" y2="255.00" stroke="#64748b" stroke-width="1"  />
  <text x="70.00" y="268.00" font-family="Inter, sans-serif" font-size="11" font-weight="normal" fill="#64748b" text-anchor="middle" dominant-baseline="middle">-2</text>
  <line x1="135.71" y1="245.00" x2="135.71" y2="255.00" stroke="#64748b" stroke-width="1"  />
  <text x="135.71" y="268.00" font-family="Inter, sans-serif" font-size="11" font-weight="normal" fill="#64748b" text-anchor="middle" dominant-baseline="middle">-1</text>
  <line x1="267.14" y1="245.00" x2="267.14" y2="255.00" stroke="#64748b" stroke-width="1"  />
  <text x="267.14" y="268.00" font-family="Inter, sans-serif" font-size="11" font-weight="normal" fill="#64748b" text-anchor="middle" dominant-baseline="middle">1</text>
  <line x1="332.86" y1="245.00" x2="332.86" y2="255.00" stroke="#64748b" stroke-width="1"  />
  <text x="332.86" y="268.00" font-family="Inter, sans-serif" font-size="11" font-weight="normal" fill="#64748b" text-anchor="middle" dominant-baseline="middle">2</text>
  <line x1="398.57" y1="245.00" x2="398.57" y2="255.00" stroke="#64748b" stroke-width="1"  />
  <text x="398.57" y="268.00" font-family="Inter, sans-serif" font-size="11" font-weight="normal" fill="#64748b" text-anchor="middle" dominant-baseline="middle">3</text>
  <line x1="464.29" y1="245.00" x2="464.29" y2="255.00" stroke="#64748b" stroke-width="1"  />
  <text x="464.29" y="268.00" font-family="Inter, sans-serif" font-size="11" font-weight="normal" fill="#64748b" text-anchor="middle" dominant-baseline="middle">4</text>
  <line x1="530.00" y1="245.00" x2="530.00" y2="255.00" stroke="#64748b" stroke-width="1"  />
  <text x="530.00" y="268.00" font-family="Inter, sans-serif" font-size="11" font-weight="normal" fill="#64748b" text-anchor="middle" dominant-baseline="middle">5</text>
  <line x1="196.43" y1="430.00" x2="206.43" y2="430.00" stroke="#64748b" stroke-width="1"  />
  <text x="186.43" y="430.00" font-family="Inter, sans-serif" font-size="11" font-weight="normal" fill="#64748b" text-anchor="end" dominant-baseline="middle">-4</text>
  <line x1="196.43" y1="385.00" x2="206.43" y2="385.00" stroke="#64748b" stroke-width="1"  />
  <text x="186.43" y="385.00" font-family="Inter, sans-serif" font-size="11" font-weight="normal" fill="#64748b" text-anchor="end" dominant-baseline="middle">-3</text>
  <line x1="196.43" y1="340.00" x2="206.43" y2="340.00" stroke="#64748b" stroke-width="1"  />
  <text x="186.43" y="340.00" font-family="Inter, sans-serif" font-size="11" font-weight="normal" fill="#64748b" text-anchor="end" dominant-baseline="middle">-2</text>
  <line x1="196.43" y1="295.00" x2="206.43" y2="295.00" stroke="#64748b" stroke-width="1"  />
  <text x="186.43" y="295.00" font-family="Inter, sans-serif" font-size="11" font-weight="normal" fill="#64748b" text-anchor="end" dominant-baseline="middle">-1</text>
  <line x1="196.43" y1="205.00" x2="206.43" y2="205.00" stroke="#64748b" stroke-width="1"  />
  <text x="186.43" y="205.00" font-family="Inter, sans-serif" font-size="11" font-weight="normal" fill="#64748b" text-anchor="end" dominant-baseline="middle">1</text>
  <line x1="196.43" y1="160.00" x2="206.43" y2="160.00" stroke="#64748b" stroke-width="1"  />
  <text x="186.43" y="160.00" font-family="Inter, sans-serif" font-size="11" font-weight="normal" fill="#64748b" text-anchor="end" dominant-baseline="middle">2</text>
  <line x1="196.43" y1="115.00" x2="206.43" y2="115.00" stroke="#64748b" stroke-width="1"  />
  <text x="186.43" y="115.00" font-family="Inter, sans-serif" font-size="11" font-weight="normal" fill="#64748b" text-anchor="end" dominant-baseline="middle">3</text>
  <line x1="196.43" y1="70.00" x2="206.43" y2="70.00" stroke="#64748b" stroke-width="1"  />
  <text x="186.43" y="70.00" font-family="Inter, sans-serif" font-size="11" font-weight="normal" fill="#64748b" text-anchor="end" dominant-baseline="middle">4</text>
  <text x="189.43" y="265.00" font-family="Inter, sans-serif" font-size="11" font-weight="normal" fill="#64748b" text-anchor="middle" dominant-baseline="middle">O</text>
  <line x1="398.57" y1="160.00" x2="398.57" y2="340.00" stroke="#94a3b8" stroke-width="1" stroke-dasharray="5,5" />
  <line x1="398.57" y1="160.00" x2="398.57" y2="250.00" stroke="#3b82f6" stroke-width="1" stroke-dasharray="5,5" />
  <line x1="398.57" y1="340.00" x2="398.57" y2="250.00" stroke="#22c55e" stroke-width="1" stroke-dasharray="5,5" />
  <line x1="201.43" y1="250.00" x2="398.57" y2="160.00" stroke="#3b82f6" stroke-width="3"  marker-end="url(#arrow-3b82f6-10)"/>
  <line x1="201.43" y1="250.00" x2="398.57" y2="340.00" stroke="#22c55e" stroke-width="3"  marker-end="url(#arrow-22c55e-10)"/>
  <circle cx="398.57" cy="160.00" r="6" fill="#3b82f6" />
  <text x="408.57" y="150.00" font-family="Inter, sans-serif" font-size="12" font-weight="bold" fill="#3b82f6" text-anchor="start" dominant-baseline="middle">z = 3 + 2i(3, 2)</text>
  <circle cx="398.57" cy="340.00" r="6" fill="#22c55e" />
  <text x="408.57" y="365.00" font-family="Inter, sans-serif" font-size="12" font-weight="bold" fill="#22c55e" text-anchor="start" dominant-baseline="middle">z̄ = 3 - 2i(3, -2)</text>
  <text x="300.00" y="470.00" font-family="Inter, sans-serif" font-size="14" font-weight="bold" fill="#64748b" text-anchor="middle" dominant-baseline="middle">Reflejo sobre el eje Real</text>
</svg>