<svg xmlns="http://www.w3.org/2000/svg" viewBox="0 0 600 500">
  <defs>
        <marker id="arrow-64748b-10" markerWidth="10" markerHeight="10" 
                refX="9.0" refY="5.0" orient="auto"
                markerUnits="userSpaceOnUse">
            <polygon points="0,0 10,5.0 0,10" fill="#64748b"/>
        </marker>

        <marker id="arrow-64748b-10" markerWidth="10" markerHeight="10" 
                refX="9.0" refY="5.0" orient="auto"
                markerUnits="userSpaceOnUse">
            <polygon points="0,0 10,5.0 0,10" fill="#64748b"/>
        </marker>

        <marker id="arrow-3b82f6-10" markerWidth="10" markerHeight="10" 
                refX="9.0" refY="5.0" orient="auto"
                markerUnits="userSpaceOnUse">
            <polygon points="0,0 10,5.0 0,10" fill="#3b82f6"/>
        </marker>

        <marker id="arrow-22c55e-10" markerWidth="10" markerHeight="10" 
                refX="9.0" refY="5.0" orient="auto"
                markerUnits="userSpaceOnUse">
            <polygon points="0,0 10,5.0 0,10" fill="#22c55e"/>
        </marker></defs>
  <rect x="0.00" y="0.00" width="600.00" height="500.00" fill="#ffffff" stroke="none" stroke-width="0" rx="0"  />
  <text x="300.00" y="30.00" font-family="Inter, sans-serif" font-size="18" font-weight="bold" fill="#1e293b" text-anchor="middle" dominant-baseline="middle">Conjugado en otros Cuadrantes</text>
  <line x1="70.00" y1="430.00" x2="70.00" y2="70.00" stroke="#e2e8f0" stroke-width="0.5"  />
  <line x1="127.50" y1="430.00" x2="127.50" y2="70.00" stroke="#e2e8f0" stroke-width="0.5"  />
  <line x1="185.00" y1="430.00" x2="185.00" y2="70.00" stroke="#e2e8f0" stroke-width="0.5"  />
  <line x1="242.50" y1="430.00" x2="242.50" y2="70.00" stroke="#e2e8f0" stroke-width="0.5"  />
  <line x1="300.00" y1="430.00" x2="300.00" y2="70.00" stroke="#e2e8f0" stroke-width="0.5"  />
  <line x1="357.50" y1="430.00" x2="357.50" y2="70.00" stroke="#e2e8f0" stroke-width="0.5"  />
  <line x1="472.50" y1="430.00" x2="472.50" y2="70.00" stroke="#e2e8f0" stroke-width="0.5"  />
  <line x1="530.00" y1="430.00" x2="530.00" y2="70.00" stroke="#e2e8f0" stroke-width="0.5"  />
  <line x1="70.00" y1="430.00" x2="530.00" y2="430.00" stroke="#e2e8f0" stroke-width="0.5"  />
  <line x1="70.00" y1="394.00" x2="530.00" y2="394.00" stroke="#e2e8f0" stroke-width="0.5"  />
  <line x1="70.00" y1="358.00" x2="530.00" y2="358.00" stroke="#e2e8f0" stroke-width="0.5"  />
  <line x1="70.00" y1="322.00" x2="530.00" y2="322.00" stroke="#e2e8f0" stroke-width="0.5"  />
  <line x1="70.00" y1="286.00" x2="530.00" y2="286.00" stroke="#e2e8f0" stroke-width="0.5"  />
  <line x1="70.00" y1="214.00" x2="530.00" y2="214.00" stroke="#e2e8f0" stroke-width="0.5"  />
  <line x1="70.00" y1="178.00" x2="530.00" y2="178.00" stroke="#e2e8f0" stroke-width="0.5"  />
  <line x1="70.00" y1="142.00" x2="530.00" y2="142.00" stroke="#e2e8f0" stroke-width="0.5"  />
  <line x1="70.00" y1="106.00" x2="530.00" y2="106.00" stroke="#e2e8f0" stroke-width="0.5"  />
  <line x1="70.00" y1="70.00" x2="530.00" y2="70.00" stroke="#e2e8f0" stroke-width="0.5"  />
  <line x1="70.00" y1="250.00" x2="530.00" y2="250.00" stroke="#64748b" stroke-width="2"  marker-end="url(#arrow-64748b-10)"/>
  <line x1="415.00" y1="430.00" x2="415.00" y2="70.00" stroke="#64748b" stroke-width="2"  marker-end="url(#arrow-64748b-10)"/>
  <text x="525.00" y="270.00" font-family="Inter, sans-serif" font-size="14" font-weight="bold" fill="#64748b" text-anchor="middle" dominant-baseline="middle">Re</text>
  <text x="395.00" y="80.00" font-family="Inter, sans-serif" font-size="14" font-weight="bold" fill="#64748b" text-anchor="middle" dominant-baseline="middle">Im</text>
  <line x1="70.00" y1="245.00" x2="70.00" y2="255.00" stroke="#64748b" stroke-width="1"  />
  <text x="70.00" y="268.00" font-family="Inter, sans-serif" font-size="11" font-weight="normal" fill="#64748b" text-anchor="middle" dominant-baseline="middle">-6</text>
  <line x1="127.50" y1="245.00" x2="127.50" y2="255.00" stroke="#64748b" stroke-width="1"  />
  <text x="127.50" y="268.00" font-family="Inter, sans-serif" font-size="11" font-weight="normal" fill="#64748b" text-anchor="middle" dominant-baseline="middle">-5</text>
  <line x1="185.00" y1="245.00" x2="185.00" y2="255.00" stroke="#64748b" stroke-width="1"  />
  <text x="185.00" y="268.00" font-family="Inter, sans-serif" font-size="11" font-weight="normal" fill="#64748b" text-anchor="middle" dominant-baseline="middle">-4</text>
  <line x1="242.50" y1="245.00" x2="242.50" y2="255.00" stroke="#64748b" stroke-width="1"  />
  <text x="242.50" y="268.00" font-family="Inter, sans-serif" font-size="11" font-weight="normal" fill="#64748b" text-anchor="middle" dominant-baseline="middle">-3</text>
  <line x1="300.00" y1="245.00" x2="300.00" y2="255.00" stroke="#64748b" stroke-width="1"  />
  <text x="300.00" y="268.00" font-family="Inter, sans-serif" font-size="11" font-weight="normal" fill="#64748b" text-anchor="middle" dominant-baseline="middle">-2</text>
  <line x1="357.50" y1="245.00" x2="357.50" y2="255.00" stroke="#64748b" stroke-width="1"  />
  <text x="357.50" y="268.00" font-family="Inter, sans-serif" font-size="11" font-weight="normal" fill="#64748b" text-anchor="middle" dominant-baseline="middle">-1</text>
  <line x1="472.50" y1="245.00" x2="472.50" y2="255.00" stroke="#64748b" stroke-width="1"  />
  <text x="472.50" y="268.00" font-family="Inter, sans-serif" font-size="11" font-weight="normal" fill="#64748b" text-anchor="middle" dominant-baseline="middle">1</text>
  <line x1="530.00" y1="245.00" x2="530.00" y2="255.00" stroke="#64748b" stroke-width="1"  />
  <text x="530.00" y="268.00" font-family="Inter, sans-serif" font-size="11" font-weight="normal" fill="#64748b" text-anchor="middle" dominant-baseline="middle">2</text>
  <line x1="410.00" y1="430.00" x2="420.00" y2="430.00" stroke="#64748b" stroke-width="1"  />
  <text x="400.00" y="430.00" font-family="Inter, sans-serif" font-size="11" font-weight="normal" fill="#64748b" text-anchor="end" dominant-baseline="middle">-5</text>
  <line x1="410.00" y1="394.00" x2="420.00" y2="394.00" stroke="#64748b" stroke-width="1"  />
  <text x="400.00" y="394.00" font-family="Inter, sans-serif" font-size="11" font-weight="normal" fill="#64748b" text-anchor="end" dominant-baseline="middle">-4</text>
  <line x1="410.00" y1="358.00" x2="420.00" y2="358.00" stroke="#64748b" stroke-width="1"  />
  <text x="400.00" y="358.00" font-family="Inter, sans-serif" font-size="11" font-weight="normal" fill="#64748b" text-anchor="end" dominant-baseline="middle">-3</text>
  <line x1="410.00" y1="322.00" x2="420.00" y2="322.00" stroke="#64748b" stroke-width="1"  />
  <text x="400.00" y="322.00" font-family="Inter, sans-serif" font-size="11" font-weight="normal" fill="#64748b" text-anchor="end" dominant-baseline="middle">-2</text>
  <line x1="410.00" y1="286.00" x2="420.00" y2="286.00" stroke="#64748b" stroke-width="1"  />
  <text x="400.00" y="286.00" font-family="Inter, sans-serif" font-size="11" font-weight="normal" fill="#64748b" text-anchor="end" dominant-baseline="middle">-1</text>
  <line x1="410.00" y1="214.00" x2="420.00" y2="214.00" stroke="#64748b" stroke-width="1"  />
  <text x="400.00" y="214.00" font-family="Inter, sans-serif" font-size="11" font-weight="normal" fill="#64748b" text-anchor="end" dominant-baseline="middle">1</text>
  <line x1="410.00" y1="178.00" x2="420.00" y2="178.00" stroke="#64748b" stroke-width="1"  />
  <text x="400.00" y="178.00" font-family="Inter, sans-serif" font-size="11" font-weight="normal" fill="#64748b" text-anchor="end" dominant-baseline="middle">2</text>
  <line x1="410.00" y1="142.00" x2="420.00" y2="142.00" stroke="#64748b" stroke-width="1"  />
  <text x="400.00" y="142.00" font-family="Inter, sans-serif" font-size="11" font-weight="normal" fill="#64748b" text-anchor="end" dominant-baseline="middle">3</text>
  <line x1="410.00" y1="106.00" x2="420.00" y2="106.00" stroke="#64748b" stroke-width="1"  />
  <text x="400.00" y="106.00" font-family="Inter, sans-serif" font-size="11" font-weight="normal" fill="#64748b" text-anchor="end" dominant-baseline="middle">4</text>
  <line x1="410.00" y1="70.00" x2="420.00" y2="70.00" stroke="#64748b" stroke-width="1"  />
  <text x="400.00" y="70.00" font-family="Inter, sans-serif" font-size="11" font-weight="normal" fill="#64748b" text-anchor="end" dominant-baseline="middle">5</text>
  <text x="403.00" y="265.00" font-family="Inter, sans-serif" font-size="11" font-weight="normal" fill="#64748b" text-anchor="middle" dominant-baseline="middle">O</text>
  <line x1="185.00" y1="142.00" x2="185.00" y2="358.00" stroke="#94a3b8" stroke-width="1" stroke-dasharray="5,5" />
  <line x1="185.00" y1="142.00" x2="185.00" y2="250.00" stroke="#3b82f6" stroke-width="1" stroke-dasharray="5,5" />
  <line x1="185.00" y1="358.00" x2="185.00" y2="250.00" stroke="#22c55e" stroke-width="1" stroke-dasharray="5,5" />
  <line x1="415.00" y1="250.00" x2="185.00" y2="142.00" stroke="#3b82f6" stroke-width="3"  marker-end="url(#arrow-3b82f6-10)"/>
  <line x1="415.00" y1="250.00" x2="185.00" y2="358.00" stroke="#22c55e" stroke-width="3"  marker-end="url(#arrow-22c55e-10)"/>
  <circle cx="185.00" cy="142.00" r="6" fill="#3b82f6" />
  <text x="195.00" y="132.00" font-family="Inter, sans-serif" font-size="12" font-weight="bold" fill="#3b82f6" text-anchor="start" dominant-baseline="middle">z = -4 + 3i(-4, 3)</text>
  <circle cx="185.00" cy="358.00" r="6" fill="#22c55e" />
  <text x="195.00" y="383.00" font-family="Inter, sans-serif" font-size="12" font-weight="bold" fill="#22c55e" text-anchor="start" dominant-baseline="middle">z̄ = -4 - 3i(-4, -3)</text>
  <text x="300.00" y="470.00" font-family="Inter, sans-serif" font-size="14" font-weight="bold" fill="#64748b" text-anchor="middle" dominant-baseline="middle">Reflejo sobre el eje Real</text>
</svg>