<svg xmlns="http://www.w3.org/2000/svg" viewBox="0 0 600 500">
  <defs>
        <marker id="arrow-64748b-10" markerWidth="10" markerHeight="10" 
                refX="9.0" refY="5.0" orient="auto"
                markerUnits="userSpaceOnUse">
            <polygon points="0,0 10,5.0 0,10" fill="#64748b"/>
        </marker>

        <marker id="arrow-64748b-10" markerWidth="10" markerHeight="10" 
                refX="9.0" refY="5.0" orient="auto"
                markerUnits="userSpaceOnUse">
            <polygon points="0,0 10,5.0 0,10" fill="#64748b"/>
        </marker>

        <marker id="arrow-3b82f6-10" markerWidth="10" markerHeight="10" 
                refX="9.0" refY="5.0" orient="auto"
                markerUnits="userSpaceOnUse">
            <polygon points="0,0 10,5.0 0,10" fill="#3b82f6"/>
        </marker>

        <marker id="arrow-22c55e-10" markerWidth="10" markerHeight="10" 
                refX="9.0" refY="5.0" orient="auto"
                markerUnits="userSpaceOnUse">
            <polygon points="0,0 10,5.0 0,10" fill="#22c55e"/>
        </marker></defs>
  <rect x="0.00" y="0.00" width="600.00" height="500.00" fill="#ffffff" stroke="none" stroke-width="0" rx="0"  />
  <text x="300.00" y="30.00" font-family="Inter, sans-serif" font-size="18" font-weight="bold" fill="#1e293b" text-anchor="middle" dominant-baseline="middle">Conjugado de un Real Puro</text>
  <line x1="70.00" y1="430.00" x2="70.00" y2="70.00" stroke="#e2e8f0" stroke-width="0.5"  />
  <line x1="121.11" y1="430.00" x2="121.11" y2="70.00" stroke="#e2e8f0" stroke-width="0.5"  />
  <line x1="223.33" y1="430.00" x2="223.33" y2="70.00" stroke="#e2e8f0" stroke-width="0.5"  />
  <line x1="274.44" y1="430.00" x2="274.44" y2="70.00" stroke="#e2e8f0" stroke-width="0.5"  />
  <line x1="325.56" y1="430.00" x2="325.56" y2="70.00" stroke="#e2e8f0" stroke-width="0.5"  />
  <line x1="376.67" y1="430.00" x2="376.67" y2="70.00" stroke="#e2e8f0" stroke-width="0.5"  />
  <line x1="427.78" y1="430.00" x2="427.78" y2="70.00" stroke="#e2e8f0" stroke-width="0.5"  />
  <line x1="478.89" y1="430.00" x2="478.89" y2="70.00" stroke="#e2e8f0" stroke-width="0.5"  />
  <line x1="530.00" y1="430.00" x2="530.00" y2="70.00" stroke="#e2e8f0" stroke-width="0.5"  />
  <line x1="70.00" y1="430.00" x2="530.00" y2="430.00" stroke="#e2e8f0" stroke-width="0.5"  />
  <line x1="70.00" y1="340.00" x2="530.00" y2="340.00" stroke="#e2e8f0" stroke-width="0.5"  />
  <line x1="70.00" y1="160.00" x2="530.00" y2="160.00" stroke="#e2e8f0" stroke-width="0.5"  />
  <line x1="70.00" y1="70.00" x2="530.00" y2="70.00" stroke="#e2e8f0" stroke-width="0.5"  />
  <line x1="70.00" y1="250.00" x2="530.00" y2="250.00" stroke="#64748b" stroke-width="2"  marker-end="url(#arrow-64748b-10)"/>
  <line x1="172.22" y1="430.00" x2="172.22" y2="70.00" stroke="#64748b" stroke-width="2"  marker-end="url(#arrow-64748b-10)"/>
  <text x="525.00" y="270.00" font-family="Inter, sans-serif" font-size="14" font-weight="bold" fill="#64748b" text-anchor="middle" dominant-baseline="middle">Re</text>
  <text x="152.22" y="80.00" font-family="Inter, sans-serif" font-size="14" font-weight="bold" fill="#64748b" text-anchor="middle" dominant-baseline="middle">Im</text>
  <line x1="70.00" y1="245.00" x2="70.00" y2="255.00" stroke="#64748b" stroke-width="1"  />
  <text x="70.00" y="268.00" font-family="Inter, sans-serif" font-size="11" font-weight="normal" fill="#64748b" text-anchor="middle" dominant-baseline="middle">-2</text>
  <line x1="121.11" y1="245.00" x2="121.11" y2="255.00" stroke="#64748b" stroke-width="1"  />
  <text x="121.11" y="268.00" font-family="Inter, sans-serif" font-size="11" font-weight="normal" fill="#64748b" text-anchor="middle" dominant-baseline="middle">-1</text>
  <line x1="223.33" y1="245.00" x2="223.33" y2="255.00" stroke="#64748b" stroke-width="1"  />
  <text x="223.33" y="268.00" font-family="Inter, sans-serif" font-size="11" font-weight="normal" fill="#64748b" text-anchor="middle" dominant-baseline="middle">1</text>
  <line x1="274.44" y1="245.00" x2="274.44" y2="255.00" stroke="#64748b" stroke-width="1"  />
  <text x="274.44" y="268.00" font-family="Inter, sans-serif" font-size="11" font-weight="normal" fill="#64748b" text-anchor="middle" dominant-baseline="middle">2</text>
  <line x1="325.56" y1="245.00" x2="325.56" y2="255.00" stroke="#64748b" stroke-width="1"  />
  <text x="325.56" y="268.00" font-family="Inter, sans-serif" font-size="11" font-weight="normal" fill="#64748b" text-anchor="middle" dominant-baseline="middle">3</text>
  <line x1="376.67" y1="245.00" x2="376.67" y2="255.00" stroke="#64748b" stroke-width="1"  />
  <text x="376.67" y="268.00" font-family="Inter, sans-serif" font-size="11" font-weight="normal" fill="#64748b" text-anchor="middle" dominant-baseline="middle">4</text>
  <line x1="427.78" y1="245.00" x2="427.78" y2="255.00" stroke="#64748b" stroke-width="1"  />
  <text x="427.78" y="268.00" font-family="Inter, sans-serif" font-size="11" font-weight="normal" fill="#64748b" text-anchor="middle" dominant-baseline="middle">5</text>
  <line x1="478.89" y1="245.00" x2="478.89" y2="255.00" stroke="#64748b" stroke-width="1"  />
  <text x="478.89" y="268.00" font-family="Inter, sans-serif" font-size="11" font-weight="normal" fill="#64748b" text-anchor="middle" dominant-baseline="middle">6</text>
  <line x1="530.00" y1="245.00" x2="530.00" y2="255.00" stroke="#64748b" stroke-width="1"  />
  <text x="530.00" y="268.00" font-family="Inter, sans-serif" font-size="11" font-weight="normal" fill="#64748b" text-anchor="middle" dominant-baseline="middle">7</text>
  <line x1="167.22" y1="430.00" x2="177.22" y2="430.00" stroke="#64748b" stroke-width="1"  />
  <text x="157.22" y="430.00" font-family="Inter, sans-serif" font-size="11" font-weight="normal" fill="#64748b" text-anchor="end" dominant-baseline="middle">-2</text>
  <line x1="167.22" y1="340.00" x2="177.22" y2="340.00" stroke="#64748b" stroke-width="1"  />
  <text x="157.22" y="340.00" font-family="Inter, sans-serif" font-size="11" font-weight="normal" fill="#64748b" text-anchor="end" dominant-baseline="middle">-1</text>
  <line x1="167.22" y1="160.00" x2="177.22" y2="160.00" stroke="#64748b" stroke-width="1"  />
  <text x="157.22" y="160.00" font-family="Inter, sans-serif" font-size="11" font-weight="normal" fill="#64748b" text-anchor="end" dominant-baseline="middle">1</text>
  <line x1="167.22" y1="70.00" x2="177.22" y2="70.00" stroke="#64748b" stroke-width="1"  />
  <text x="157.22" y="70.00" font-family="Inter, sans-serif" font-size="11" font-weight="normal" fill="#64748b" text-anchor="end" dominant-baseline="middle">2</text>
  <text x="160.22" y="265.00" font-family="Inter, sans-serif" font-size="11" font-weight="normal" fill="#64748b" text-anchor="middle" dominant-baseline="middle">O</text>
  <line x1="427.78" y1="250.00" x2="427.78" y2="250.00" stroke="#94a3b8" stroke-width="1" stroke-dasharray="5,5" />
  <line x1="427.78" y1="250.00" x2="427.78" y2="250.00" stroke="#3b82f6" stroke-width="1" stroke-dasharray="5,5" />
  <line x1="427.78" y1="250.00" x2="427.78" y2="250.00" stroke="#22c55e" stroke-width="1" stroke-dasharray="5,5" />
  <line x1="172.22" y1="250.00" x2="427.78" y2="250.00" stroke="#3b82f6" stroke-width="3"  marker-end="url(#arrow-3b82f6-10)"/>
  <line x1="172.22" y1="250.00" x2="427.78" y2="250.00" stroke="#22c55e" stroke-width="3"  marker-end="url(#arrow-22c55e-10)"/>
  <circle cx="427.78" cy="250.00" r="6" fill="#3b82f6" />
  <text x="437.78" y="240.00" font-family="Inter, sans-serif" font-size="12" font-weight="bold" fill="#3b82f6" text-anchor="start" dominant-baseline="middle">z = 5 + 0i(5, 0)</text>
  <circle cx="427.78" cy="250.00" r="6" fill="#22c55e" />
  <text x="437.78" y="275.00" font-family="Inter, sans-serif" font-size="12" font-weight="bold" fill="#22c55e" text-anchor="start" dominant-baseline="middle">z̄ = 5 - 0i(5, 0)</text>
  <text x="300.00" y="470.00" font-family="Inter, sans-serif" font-size="14" font-weight="bold" fill="#64748b" text-anchor="middle" dominant-baseline="middle">Reflejo sobre el eje Real</text>
</svg>