<svg xmlns="http://www.w3.org/2000/svg" viewBox="0 0 600 600">
  <defs>
        <marker id="arrow-64748b" markerWidth="10" markerHeight="10" 
                refX="8" refY="5.0" orient="auto">
            <polygon points="0,0 10,5.0 0,10" fill="#64748b"/>
        </marker></defs>
  <rect x="0.00" y="0.00" width="600.00" height="600.00" fill="#ffffff" stroke="none" stroke-width="0" rx="0"/>
  <text x="300.00" y="25.00" font-family="Inter, sans-serif" font-size="15" font-weight="bold" fill="#1e293b" text-anchor="middle" dominant-baseline="middle">Caso 2: Vértice y Directriz</text>
  <line x1="50.00" y1="550.00" x2="50.00" y2="50.00" stroke="#e2e8f0" stroke-width="0.5"  />
  <line x1="81.25" y1="550.00" x2="81.25" y2="50.00" stroke="#e2e8f0" stroke-width="0.5"  />
  <line x1="112.50" y1="550.00" x2="112.50" y2="50.00" stroke="#e2e8f0" stroke-width="0.5"  />
  <line x1="143.75" y1="550.00" x2="143.75" y2="50.00" stroke="#e2e8f0" stroke-width="0.5"  />
  <line x1="175.00" y1="550.00" x2="175.00" y2="50.00" stroke="#e2e8f0" stroke-width="0.5"  />
  <line x1="206.25" y1="550.00" x2="206.25" y2="50.00" stroke="#e2e8f0" stroke-width="0.5"  />
  <line x1="237.50" y1="550.00" x2="237.50" y2="50.00" stroke="#e2e8f0" stroke-width="0.5"  />
  <line x1="268.75" y1="550.00" x2="268.75" y2="50.00" stroke="#e2e8f0" stroke-width="0.5"  />
  <line x1="331.25" y1="550.00" x2="331.25" y2="50.00" stroke="#e2e8f0" stroke-width="0.5"  />
  <line x1="362.50" y1="550.00" x2="362.50" y2="50.00" stroke="#e2e8f0" stroke-width="0.5"  />
  <line x1="393.75" y1="550.00" x2="393.75" y2="50.00" stroke="#e2e8f0" stroke-width="0.5"  />
  <line x1="425.00" y1="550.00" x2="425.00" y2="50.00" stroke="#e2e8f0" stroke-width="0.5"  />
  <line x1="456.25" y1="550.00" x2="456.25" y2="50.00" stroke="#e2e8f0" stroke-width="0.5"  />
  <line x1="487.50" y1="550.00" x2="487.50" y2="50.00" stroke="#e2e8f0" stroke-width="0.5"  />
  <line x1="518.75" y1="550.00" x2="518.75" y2="50.00" stroke="#e2e8f0" stroke-width="0.5"  />
  <line x1="550.00" y1="550.00" x2="550.00" y2="50.00" stroke="#e2e8f0" stroke-width="0.5"  />
  <line x1="50.00" y1="550.00" x2="550.00" y2="550.00" stroke="#e2e8f0" stroke-width="0.5"  />
  <line x1="50.00" y1="514.29" x2="550.00" y2="514.29" stroke="#e2e8f0" stroke-width="0.5"  />
  <line x1="50.00" y1="478.57" x2="550.00" y2="478.57" stroke="#e2e8f0" stroke-width="0.5"  />
  <line x1="50.00" y1="442.86" x2="550.00" y2="442.86" stroke="#e2e8f0" stroke-width="0.5"  />
  <line x1="50.00" y1="407.14" x2="550.00" y2="407.14" stroke="#e2e8f0" stroke-width="0.5"  />
  <line x1="50.00" y1="371.43" x2="550.00" y2="371.43" stroke="#e2e8f0" stroke-width="0.5"  />
  <line x1="50.00" y1="300.00" x2="550.00" y2="300.00" stroke="#e2e8f0" stroke-width="0.5"  />
  <line x1="50.00" y1="264.29" x2="550.00" y2="264.29" stroke="#e2e8f0" stroke-width="0.5"  />
  <line x1="50.00" y1="228.57" x2="550.00" y2="228.57" stroke="#e2e8f0" stroke-width="0.5"  />
  <line x1="50.00" y1="192.86" x2="550.00" y2="192.86" stroke="#e2e8f0" stroke-width="0.5"  />
  <line x1="50.00" y1="157.14" x2="550.00" y2="157.14" stroke="#e2e8f0" stroke-width="0.5"  />
  <line x1="50.00" y1="121.43" x2="550.00" y2="121.43" stroke="#e2e8f0" stroke-width="0.5"  />
  <line x1="50.00" y1="85.71" x2="550.00" y2="85.71" stroke="#e2e8f0" stroke-width="0.5"  />
  <line x1="50.00" y1="50.00" x2="550.00" y2="50.00" stroke="#e2e8f0" stroke-width="0.5"  />
  <line x1="50.00" y1="335.71" x2="550.00" y2="335.71" stroke="#64748b" stroke-width="2"  marker-end="url(#arrow-64748b)"/>
  <line x1="300.00" y1="550.00" x2="300.00" y2="50.00" stroke="#64748b" stroke-width="2"  marker-end="url(#arrow-64748b)"/>
  <text x="545.00" y="355.71" font-family="Inter, sans-serif" font-size="14" font-weight="bold" fill="#64748b" text-anchor="middle" dominant-baseline="middle">x</text>
  <text x="280.00" y="60.00" font-family="Inter, sans-serif" font-size="14" font-weight="bold" fill="#64748b" text-anchor="middle" dominant-baseline="middle">y</text>
  <line x1="50.00" y1="330.71" x2="50.00" y2="340.71" stroke="#64748b" stroke-width="1"  />
  <text x="50.00" y="353.71" font-family="Inter, sans-serif" font-size="11" font-weight="normal" fill="#64748b" text-anchor="middle" dominant-baseline="middle">-8</text>
  <line x1="112.50" y1="330.71" x2="112.50" y2="340.71" stroke="#64748b" stroke-width="1"  />
  <text x="112.50" y="353.71" font-family="Inter, sans-serif" font-size="11" font-weight="normal" fill="#64748b" text-anchor="middle" dominant-baseline="middle">-6</text>
  <line x1="175.00" y1="330.71" x2="175.00" y2="340.71" stroke="#64748b" stroke-width="1"  />
  <text x="175.00" y="353.71" font-family="Inter, sans-serif" font-size="11" font-weight="normal" fill="#64748b" text-anchor="middle" dominant-baseline="middle">-4</text>
  <line x1="237.50" y1="330.71" x2="237.50" y2="340.71" stroke="#64748b" stroke-width="1"  />
  <text x="237.50" y="353.71" font-family="Inter, sans-serif" font-size="11" font-weight="normal" fill="#64748b" text-anchor="middle" dominant-baseline="middle">-2</text>
  <line x1="362.50" y1="330.71" x2="362.50" y2="340.71" stroke="#64748b" stroke-width="1"  />
  <text x="362.50" y="353.71" font-family="Inter, sans-serif" font-size="11" font-weight="normal" fill="#64748b" text-anchor="middle" dominant-baseline="middle">2</text>
  <line x1="425.00" y1="330.71" x2="425.00" y2="340.71" stroke="#64748b" stroke-width="1"  />
  <text x="425.00" y="353.71" font-family="Inter, sans-serif" font-size="11" font-weight="normal" fill="#64748b" text-anchor="middle" dominant-baseline="middle">4</text>
  <line x1="487.50" y1="330.71" x2="487.50" y2="340.71" stroke="#64748b" stroke-width="1"  />
  <text x="487.50" y="353.71" font-family="Inter, sans-serif" font-size="11" font-weight="normal" fill="#64748b" text-anchor="middle" dominant-baseline="middle">6</text>
  <line x1="550.00" y1="330.71" x2="550.00" y2="340.71" stroke="#64748b" stroke-width="1"  />
  <text x="550.00" y="353.71" font-family="Inter, sans-serif" font-size="11" font-weight="normal" fill="#64748b" text-anchor="middle" dominant-baseline="middle">8</text>
  <line x1="295.00" y1="550.00" x2="305.00" y2="550.00" stroke="#64748b" stroke-width="1"  />
  <text x="285.00" y="550.00" font-family="Inter, sans-serif" font-size="11" font-weight="normal" fill="#64748b" text-anchor="end" dominant-baseline="middle">-6</text>
  <line x1="295.00" y1="478.57" x2="305.00" y2="478.57" stroke="#64748b" stroke-width="1"  />
  <text x="285.00" y="478.57" font-family="Inter, sans-serif" font-size="11" font-weight="normal" fill="#64748b" text-anchor="end" dominant-baseline="middle">-4</text>
  <line x1="295.00" y1="407.14" x2="305.00" y2="407.14" stroke="#64748b" stroke-width="1"  />
  <text x="285.00" y="407.14" font-family="Inter, sans-serif" font-size="11" font-weight="normal" fill="#64748b" text-anchor="end" dominant-baseline="middle">-2</text>
  <line x1="295.00" y1="264.29" x2="305.00" y2="264.29" stroke="#64748b" stroke-width="1"  />
  <text x="285.00" y="264.29" font-family="Inter, sans-serif" font-size="11" font-weight="normal" fill="#64748b" text-anchor="end" dominant-baseline="middle">2</text>
  <line x1="295.00" y1="192.86" x2="305.00" y2="192.86" stroke="#64748b" stroke-width="1"  />
  <text x="285.00" y="192.86" font-family="Inter, sans-serif" font-size="11" font-weight="normal" fill="#64748b" text-anchor="end" dominant-baseline="middle">4</text>
  <line x1="295.00" y1="121.43" x2="305.00" y2="121.43" stroke="#64748b" stroke-width="1"  />
  <text x="285.00" y="121.43" font-family="Inter, sans-serif" font-size="11" font-weight="normal" fill="#64748b" text-anchor="end" dominant-baseline="middle">6</text>
  <line x1="295.00" y1="50.00" x2="305.00" y2="50.00" stroke="#64748b" stroke-width="1"  />
  <text x="285.00" y="50.00" font-family="Inter, sans-serif" font-size="11" font-weight="normal" fill="#64748b" text-anchor="end" dominant-baseline="middle">8</text>
  <text x="288.00" y="350.71" font-family="Inter, sans-serif" font-size="11" font-weight="normal" fill="#64748b" text-anchor="middle" dominant-baseline="middle">O</text>
  <polyline points="50.00,454.76 53.12,450.03 56.25,445.36 59.37,440.74 62.50,436.19 65.62,431.70 68.75,427.26 71.88,422.89 75.00,418.57 78.13,414.32 81.25,410.12 84.37,405.98 87.50,401.90 90.62,397.89 93.75,393.93 96.88,390.03 100.00,386.19 103.12,382.41 106.25,378.69 109.38,375.03 112.50,371.43 115.62,367.89 118.75,364.40 121.88,360.98 125.00,357.62 128.12,354.32 131.25,351.07 134.38,347.89 137.50,344.76 140.62,341.70 143.75,338.69 146.88,335.74 150.00,332.86 153.12,330.03 156.25,327.26 159.38,324.55 162.50,321.90 165.62,319.32 168.75,316.79 171.88,314.32 175.00,311.90 178.12,309.55 181.25,307.26 184.38,305.03 187.50,302.86 190.62,300.74 193.75,298.69 196.88,296.70 200.00,294.76 203.12,292.89 206.25,291.07 209.38,289.32 212.50,287.62 215.62,285.98 218.75,284.40 221.88,282.89 225.00,281.43 228.12,280.03 231.25,278.69 234.38,277.41 237.50,276.19 240.62,275.03 243.75,273.93 246.88,272.89 250.00,271.90 253.12,270.98 256.25,270.12 259.38,269.32 262.50,268.57 265.62,267.89 268.75,267.26 271.88,266.70 275.00,266.19 278.12,265.74 281.25,265.36 284.38,265.03 287.50,264.76 290.62,264.55 293.75,264.40 296.88,264.32 300.00,264.29 303.12,264.32 306.25,264.40 309.38,264.55 312.50,264.76 315.62,265.03 318.75,265.36 321.88,265.74 325.00,266.19 328.12,266.70 331.25,267.26 334.38,267.89 337.50,268.57 340.62,269.32 343.75,270.12 346.88,270.98 350.00,271.90 353.12,272.89 356.25,273.93 359.38,275.03 362.50,276.19 365.62,277.41 368.75,278.69 371.88,280.03 375.00,281.43 378.12,282.89 381.25,284.40 384.38,285.98 387.50,287.62 390.62,289.32 393.75,291.07 396.88,292.89 400.00,294.76 403.12,296.70 406.25,298.69 409.38,300.74 412.50,302.86 415.62,305.03 418.75,307.26 421.88,309.55 425.00,311.90 428.12,314.32 431.25,316.79 434.38,319.32 437.50,321.90 440.62,324.55 443.75,327.26 446.88,330.03 450.00,332.86 453.12,335.74 456.25,338.69 459.38,341.70 462.50,344.76 465.62,347.89 468.75,351.07 471.88,354.32 475.00,357.62 478.12,360.98 481.25,364.40 484.38,367.89 487.50,371.43 490.62,375.03 493.75,378.69 496.88,382.41 500.00,386.19 503.12,390.03 506.25,393.93 509.38,397.89 512.50,401.90 515.62,405.98 518.75,410.12 521.88,414.32 525.00,418.57 528.12,422.89 531.25,427.26 534.38,431.70 537.50,436.19 540.62,440.74 543.75,445.36 546.88,450.03 550.00,454.76" fill="none" stroke="#3b82f6" stroke-width="2.5"/>
  <circle cx="300.00" cy="264.29" r="5" fill="#ef4444" />
  <text x="310.00" y="274.29" font-family="Inter, sans-serif" font-size="12" font-weight="bold" fill="#ef4444" text-anchor="start" dominant-baseline="middle">V(0, 2)</text>
  <circle cx="300.00" cy="371.43" r="5" fill="#ef4444" />
  <text x="310.00" y="381.43" font-family="Inter, sans-serif" font-size="12" font-weight="bold" fill="#ef4444" text-anchor="start" dominant-baseline="middle">F(0, -1)</text>
  <line x1="81.25" y1="157.14" x2="518.75" y2="157.14" stroke="#22c55e" stroke-width="2"  />
  <text x="456.25" y="147.14" font-family="Inter, sans-serif" font-size="10" font-weight="normal" fill="#22c55e" text-anchor="middle" dominant-baseline="middle">y = 5 (directriz)</text>
  <line x1="300.00" y1="264.29" x2="300.00" y2="157.14" stroke="#a855f7" stroke-width="1.5" stroke-dasharray="5,5" />
  <text x="325.62" y="210.71" font-family="Inter, sans-serif" font-size="10" font-weight="bold" fill="#a855f7" text-anchor="middle" dominant-baseline="middle">p = 3</text>
  <rect x="186.12" y="554.30" width="227.75" height="31.40" fill="#fef3c7" stroke="#f97316" stroke-width="1" rx="6"/>
  <text x="300.00" y="570.00" font-family="Inter, sans-serif" font-size="11" font-weight="bold" fill="#1e293b" text-anchor="middle" dominant-baseline="middle">x² = -12(y - 2) | p = 3, abre abajo</text>
</svg>