<svg xmlns="http://www.w3.org/2000/svg" viewBox="0 0 600 600">
  <defs>
        <marker id="arrow-64748b" markerWidth="10" markerHeight="10" 
                refX="8" refY="5.0" orient="auto">
            <polygon points="0,0 10,5.0 0,10" fill="#64748b"/>
        </marker></defs>
  <rect x="0.00" y="0.00" width="600.00" height="600.00" fill="#ffffff" stroke="none" stroke-width="0" rx="0"/>
  <text x="300.00" y="25.00" font-family="Inter, sans-serif" font-size="15" font-weight="bold" fill="#1e293b" text-anchor="middle" dominant-baseline="middle">Caso 4: Vértice y Punto</text>
  <line x1="50.00" y1="550.00" x2="50.00" y2="50.00" stroke="#e2e8f0" stroke-width="0.5"  />
  <line x1="100.00" y1="550.00" x2="100.00" y2="50.00" stroke="#e2e8f0" stroke-width="0.5"  />
  <line x1="150.00" y1="550.00" x2="150.00" y2="50.00" stroke="#e2e8f0" stroke-width="0.5"  />
  <line x1="250.00" y1="550.00" x2="250.00" y2="50.00" stroke="#e2e8f0" stroke-width="0.5"  />
  <line x1="300.00" y1="550.00" x2="300.00" y2="50.00" stroke="#e2e8f0" stroke-width="0.5"  />
  <line x1="350.00" y1="550.00" x2="350.00" y2="50.00" stroke="#e2e8f0" stroke-width="0.5"  />
  <line x1="400.00" y1="550.00" x2="400.00" y2="50.00" stroke="#e2e8f0" stroke-width="0.5"  />
  <line x1="450.00" y1="550.00" x2="450.00" y2="50.00" stroke="#e2e8f0" stroke-width="0.5"  />
  <line x1="500.00" y1="550.00" x2="500.00" y2="50.00" stroke="#e2e8f0" stroke-width="0.5"  />
  <line x1="550.00" y1="550.00" x2="550.00" y2="50.00" stroke="#e2e8f0" stroke-width="0.5"  />
  <line x1="50.00" y1="550.00" x2="550.00" y2="550.00" stroke="#e2e8f0" stroke-width="0.5"  />
  <line x1="50.00" y1="450.00" x2="550.00" y2="450.00" stroke="#e2e8f0" stroke-width="0.5"  />
  <line x1="50.00" y1="400.00" x2="550.00" y2="400.00" stroke="#e2e8f0" stroke-width="0.5"  />
  <line x1="50.00" y1="350.00" x2="550.00" y2="350.00" stroke="#e2e8f0" stroke-width="0.5"  />
  <line x1="50.00" y1="300.00" x2="550.00" y2="300.00" stroke="#e2e8f0" stroke-width="0.5"  />
  <line x1="50.00" y1="250.00" x2="550.00" y2="250.00" stroke="#e2e8f0" stroke-width="0.5"  />
  <line x1="50.00" y1="200.00" x2="550.00" y2="200.00" stroke="#e2e8f0" stroke-width="0.5"  />
  <line x1="50.00" y1="150.00" x2="550.00" y2="150.00" stroke="#e2e8f0" stroke-width="0.5"  />
  <line x1="50.00" y1="100.00" x2="550.00" y2="100.00" stroke="#e2e8f0" stroke-width="0.5"  />
  <line x1="50.00" y1="50.00" x2="550.00" y2="50.00" stroke="#e2e8f0" stroke-width="0.5"  />
  <line x1="50.00" y1="500.00" x2="550.00" y2="500.00" stroke="#64748b" stroke-width="2"  marker-end="url(#arrow-64748b)"/>
  <line x1="200.00" y1="550.00" x2="200.00" y2="50.00" stroke="#64748b" stroke-width="2"  marker-end="url(#arrow-64748b)"/>
  <text x="545.00" y="520.00" font-family="Inter, sans-serif" font-size="14" font-weight="bold" fill="#64748b" text-anchor="middle" dominant-baseline="middle">x</text>
  <text x="180.00" y="60.00" font-family="Inter, sans-serif" font-size="14" font-weight="bold" fill="#64748b" text-anchor="middle" dominant-baseline="middle">y</text>
  <line x1="100.00" y1="495.00" x2="100.00" y2="505.00" stroke="#64748b" stroke-width="1"  />
  <text x="100.00" y="518.00" font-family="Inter, sans-serif" font-size="11" font-weight="normal" fill="#64748b" text-anchor="middle" dominant-baseline="middle">-2</text>
  <line x1="300.00" y1="495.00" x2="300.00" y2="505.00" stroke="#64748b" stroke-width="1"  />
  <text x="300.00" y="518.00" font-family="Inter, sans-serif" font-size="11" font-weight="normal" fill="#64748b" text-anchor="middle" dominant-baseline="middle">2</text>
  <line x1="400.00" y1="495.00" x2="400.00" y2="505.00" stroke="#64748b" stroke-width="1"  />
  <text x="400.00" y="518.00" font-family="Inter, sans-serif" font-size="11" font-weight="normal" fill="#64748b" text-anchor="middle" dominant-baseline="middle">4</text>
  <line x1="500.00" y1="495.00" x2="500.00" y2="505.00" stroke="#64748b" stroke-width="1"  />
  <text x="500.00" y="518.00" font-family="Inter, sans-serif" font-size="11" font-weight="normal" fill="#64748b" text-anchor="middle" dominant-baseline="middle">6</text>
  <line x1="195.00" y1="400.00" x2="205.00" y2="400.00" stroke="#64748b" stroke-width="1"  />
  <text x="185.00" y="400.00" font-family="Inter, sans-serif" font-size="11" font-weight="normal" fill="#64748b" text-anchor="end" dominant-baseline="middle">2</text>
  <line x1="195.00" y1="300.00" x2="205.00" y2="300.00" stroke="#64748b" stroke-width="1"  />
  <text x="185.00" y="300.00" font-family="Inter, sans-serif" font-size="11" font-weight="normal" fill="#64748b" text-anchor="end" dominant-baseline="middle">4</text>
  <line x1="195.00" y1="200.00" x2="205.00" y2="200.00" stroke="#64748b" stroke-width="1"  />
  <text x="185.00" y="200.00" font-family="Inter, sans-serif" font-size="11" font-weight="normal" fill="#64748b" text-anchor="end" dominant-baseline="middle">6</text>
  <line x1="195.00" y1="100.00" x2="205.00" y2="100.00" stroke="#64748b" stroke-width="1"  />
  <text x="185.00" y="100.00" font-family="Inter, sans-serif" font-size="11" font-weight="normal" fill="#64748b" text-anchor="end" dominant-baseline="middle">8</text>
  <text x="188.00" y="515.00" font-family="Inter, sans-serif" font-size="11" font-weight="normal" fill="#64748b" text-anchor="middle" dominant-baseline="middle">O</text>
  <polyline points="120.00,62.00 125.00,87.50 130.00,112.00 135.00,135.50 140.00,158.00 145.00,179.50 150.00,200.00 155.00,219.50 160.00,238.00 165.00,255.50 170.00,272.00 175.00,287.50 180.00,302.00 185.00,315.50 190.00,328.00 195.00,339.50 200.00,350.00 205.00,359.50 210.00,368.00 215.00,375.50 220.00,382.00 225.00,387.50 230.00,392.00 235.00,395.50 240.00,398.00 245.00,399.50 250.00,400.00 255.00,399.50 260.00,398.00 265.00,395.50 270.00,392.00 275.00,387.50 280.00,382.00 285.00,375.50 290.00,368.00 295.00,359.50 300.00,350.00 305.00,339.50 310.00,328.00 315.00,315.50 320.00,302.00 325.00,287.50 330.00,272.00 335.00,255.50 340.00,238.00 345.00,219.50 350.00,200.00 355.00,179.50 360.00,158.00 365.00,135.50 370.00,112.00 375.00,87.50 380.00,62.00" fill="none" stroke="#3b82f6" stroke-width="2.5"/>
  <circle cx="250.00" cy="400.00" r="5" fill="#ef4444" />
  <text x="200.00" y="410.00" font-family="Inter, sans-serif" font-size="12" font-weight="bold" fill="#ef4444" text-anchor="start" dominant-baseline="middle">V(1, 2)</text>
  <circle cx="350.00" cy="200.00" r="5" fill="#22c55e" />
  <text x="360.00" y="190.00" font-family="Inter, sans-serif" font-size="12" font-weight="bold" fill="#22c55e" text-anchor="start" dominant-baseline="middle">P(3, 6)</text>
  <circle cx="250.00" cy="387.50" r="4" fill="#ef4444" />
  <text x="260.00" y="387.50" font-family="Inter, sans-serif" font-size="12" font-weight="bold" fill="#ef4444" text-anchor="start" dominant-baseline="middle">F(1, 2.25)</text>
  <text x="100.00" y="150.00" font-family="Inter, sans-serif" font-size="9" font-weight="normal" fill="#64748b" text-anchor="middle" dominant-baseline="middle">(3-1)² = 4p(6-2)</text>
  <text x="100.00" y="165.00" font-family="Inter, sans-serif" font-size="9" font-weight="normal" fill="#64748b" text-anchor="middle" dominant-baseline="middle">4 = 16p → p = ¼</text>
  <rect x="189.15" y="554.30" width="221.70" height="31.40" fill="#fef3c7" stroke="#f97316" stroke-width="1" rx="6"/>
  <text x="300.00" y="570.00" font-family="Inter, sans-serif" font-size="11" font-weight="bold" fill="#1e293b" text-anchor="middle" dominant-baseline="middle">(x - 1)² = (y - 2) | p = ¼, 4p = 1</text>
</svg>