<svg xmlns="http://www.w3.org/2000/svg" viewBox="0 0 700 350">
  <defs></defs>
  <rect x="0.00" y="0.00" width="700.00" height="350.00" fill="#ffffff" stroke="none" stroke-width="0" rx="0"/>
  <text x="350.00" y="20.00" font-family="Inter, sans-serif" font-size="14" font-weight="bold" fill="#1e293b" text-anchor="middle" dominant-baseline="middle">Las Cuatro Orientaciones</text>
  <line x1="40.00" y1="170.00" x2="140.00" y2="170.00" stroke="#94a3b8" stroke-width="1"  />
  <line x1="90.00" y1="110.00" x2="90.00" y2="230.00" stroke="#94a3b8" stroke-width="1"  />
  <polyline points="60.0,140.0 61.0,142.0 62.0,143.9 63.0,145.7 64.0,147.5 65.0,149.2 66.0,150.8 67.0,152.4 68.0,153.9 69.0,155.3 70.0,156.7 71.0,158.0 72.0,159.2 73.0,160.4 74.0,161.5 75.0,162.5 76.0,163.5 77.0,164.4 78.0,165.2 79.0,166.0 80.0,166.7 81.0,167.3 82.0,167.9 83.0,168.4 84.0,168.8 85.0,169.2 86.0,169.5 87.0,169.7 88.0,169.9 89.0,170.0 90.0,170.0 91.0,170.0 92.0,169.9 93.0,169.7 94.0,169.5 95.0,169.2 96.0,168.8 97.0,168.4 98.0,167.9 99.0,167.3 100.0,166.7 101.0,166.0 102.0,165.2 103.0,164.4 104.0,163.5 105.0,162.5 106.0,161.5 107.0,160.4 108.0,159.2 109.0,158.0 110.0,156.7 111.0,155.3 112.0,153.9 113.0,152.4 114.0,150.8 115.0,149.2 116.0,147.5 117.0,145.7 118.0,143.9 119.0,142.0 120.0,140.0" fill="none" stroke="#3b82f6" stroke-width="2"/>
  <circle cx="90.00" cy="155.00" r="4.00" fill="#ef4444" stroke="#3b82f6" stroke-width="2" />
  <circle cx="90.00" cy="170.00" r="4.00" fill="#ef4444" stroke="#3b82f6" stroke-width="2" />
  <text x="90.00" y="255.00" font-family="Inter, sans-serif" font-size="10" font-weight="bold" fill="#1e293b" text-anchor="middle" dominant-baseline="middle">x² = 4py</text>
  <text x="90.00" y="270.00" font-family="Inter, sans-serif" font-size="9" font-weight="normal" fill="#64748b" text-anchor="middle" dominant-baseline="middle">arriba</text>
  <line x1="215.00" y1="170.00" x2="315.00" y2="170.00" stroke="#94a3b8" stroke-width="1"  />
  <line x1="265.00" y1="110.00" x2="265.00" y2="230.00" stroke="#94a3b8" stroke-width="1"  />
  <polyline points="235.0,200.0 236.0,198.0 237.0,196.1 238.0,194.3 239.0,192.5 240.0,190.8 241.0,189.2 242.0,187.6 243.0,186.1 244.0,184.7 245.0,183.3 246.0,182.0 247.0,180.8 248.0,179.6 249.0,178.5 250.0,177.5 251.0,176.5 252.0,175.6 253.0,174.8 254.0,174.0 255.0,173.3 256.0,172.7 257.0,172.1 258.0,171.6 259.0,171.2 260.0,170.8 261.0,170.5 262.0,170.3 263.0,170.1 264.0,170.0 265.0,170.0 266.0,170.0 267.0,170.1 268.0,170.3 269.0,170.5 270.0,170.8 271.0,171.2 272.0,171.6 273.0,172.1 274.0,172.7 275.0,173.3 276.0,174.0 277.0,174.8 278.0,175.6 279.0,176.5 280.0,177.5 281.0,178.5 282.0,179.6 283.0,180.8 284.0,182.0 285.0,183.3 286.0,184.7 287.0,186.1 288.0,187.6 289.0,189.2 290.0,190.8 291.0,192.5 292.0,194.3 293.0,196.1 294.0,198.0 295.0,200.0" fill="none" stroke="#3b82f6" stroke-width="2"/>
  <circle cx="265.00" cy="185.00" r="4.00" fill="#ef4444" stroke="#3b82f6" stroke-width="2" />
  <circle cx="265.00" cy="170.00" r="4.00" fill="#ef4444" stroke="#3b82f6" stroke-width="2" />
  <text x="265.00" y="255.00" font-family="Inter, sans-serif" font-size="10" font-weight="bold" fill="#1e293b" text-anchor="middle" dominant-baseline="middle">x² = -4py</text>
  <text x="265.00" y="270.00" font-family="Inter, sans-serif" font-size="9" font-weight="normal" fill="#64748b" text-anchor="middle" dominant-baseline="middle">abajo</text>
  <line x1="390.00" y1="170.00" x2="490.00" y2="170.00" stroke="#94a3b8" stroke-width="1"  />
  <line x1="440.00" y1="110.00" x2="440.00" y2="230.00" stroke="#94a3b8" stroke-width="1"  />
  <polyline points="470.0,140.0 468.0,141.0 466.1,142.0 464.3,143.0 462.5,144.0 460.8,145.0 459.2,146.0 457.6,147.0 456.1,148.0 454.7,149.0 453.3,150.0 452.0,151.0 450.8,152.0 449.6,153.0 448.5,154.0 447.5,155.0 446.5,156.0 445.6,157.0 444.8,158.0 444.0,159.0 443.3,160.0 442.7,161.0 442.1,162.0 441.6,163.0 441.2,164.0 440.8,165.0 440.5,166.0 440.3,167.0 440.1,168.0 440.0,169.0 440.0,170.0 440.0,171.0 440.1,172.0 440.3,173.0 440.5,174.0 440.8,175.0 441.2,176.0 441.6,177.0 442.1,178.0 442.7,179.0 443.3,180.0 444.0,181.0 444.8,182.0 445.6,183.0 446.5,184.0 447.5,185.0 448.5,186.0 449.6,187.0 450.8,188.0 452.0,189.0 453.3,190.0 454.7,191.0 456.1,192.0 457.6,193.0 459.2,194.0 460.8,195.0 462.5,196.0 464.3,197.0 466.1,198.0 468.0,199.0 470.0,200.0" fill="none" stroke="#3b82f6" stroke-width="2"/>
  <circle cx="455.00" cy="170.00" r="4.00" fill="#ef4444" stroke="#3b82f6" stroke-width="2" />
  <circle cx="440.00" cy="170.00" r="4.00" fill="#ef4444" stroke="#3b82f6" stroke-width="2" />
  <text x="440.00" y="255.00" font-family="Inter, sans-serif" font-size="10" font-weight="bold" fill="#1e293b" text-anchor="middle" dominant-baseline="middle">y² = 4px</text>
  <text x="440.00" y="270.00" font-family="Inter, sans-serif" font-size="9" font-weight="normal" fill="#64748b" text-anchor="middle" dominant-baseline="middle">derecha</text>
  <line x1="565.00" y1="170.00" x2="665.00" y2="170.00" stroke="#94a3b8" stroke-width="1"  />
  <line x1="615.00" y1="110.00" x2="615.00" y2="230.00" stroke="#94a3b8" stroke-width="1"  />
  <polyline points="585.0,140.0 587.0,141.0 588.9,142.0 590.7,143.0 592.5,144.0 594.2,145.0 595.8,146.0 597.4,147.0 598.9,148.0 600.3,149.0 601.7,150.0 603.0,151.0 604.2,152.0 605.4,153.0 606.5,154.0 607.5,155.0 608.5,156.0 609.4,157.0 610.2,158.0 611.0,159.0 611.7,160.0 612.3,161.0 612.9,162.0 613.4,163.0 613.8,164.0 614.2,165.0 614.5,166.0 614.7,167.0 614.9,168.0 615.0,169.0 615.0,170.0 615.0,171.0 614.9,172.0 614.7,173.0 614.5,174.0 614.2,175.0 613.8,176.0 613.4,177.0 612.9,178.0 612.3,179.0 611.7,180.0 611.0,181.0 610.2,182.0 609.4,183.0 608.5,184.0 607.5,185.0 606.5,186.0 605.4,187.0 604.2,188.0 603.0,189.0 601.7,190.0 600.3,191.0 598.9,192.0 597.4,193.0 595.8,194.0 594.2,195.0 592.5,196.0 590.7,197.0 588.9,198.0 587.0,199.0 585.0,200.0" fill="none" stroke="#3b82f6" stroke-width="2"/>
  <circle cx="600.00" cy="170.00" r="4.00" fill="#ef4444" stroke="#3b82f6" stroke-width="2" />
  <circle cx="615.00" cy="170.00" r="4.00" fill="#ef4444" stroke="#3b82f6" stroke-width="2" />
  <text x="615.00" y="255.00" font-family="Inter, sans-serif" font-size="10" font-weight="bold" fill="#1e293b" text-anchor="middle" dominant-baseline="middle">y² = -4px</text>
  <text x="615.00" y="270.00" font-family="Inter, sans-serif" font-size="9" font-weight="normal" fill="#64748b" text-anchor="middle" dominant-baseline="middle">izquierda</text>
</svg>