<svg xmlns="http://www.w3.org/2000/svg" viewBox="0 0 600 480">
  <defs>
        <marker id="arrow-64748b" markerWidth="10" markerHeight="10" 
                refX="8" refY="5.0" orient="auto">
            <polygon points="0,0 10,5.0 0,10" fill="#64748b"/>
        </marker></defs>
  <rect x="0.00" y="0.00" width="600.00" height="480.00" fill="#ffffff" stroke="none" stroke-width="0" rx="0"/>
  <text x="300.00" y="25.00" font-family="Inter, sans-serif" font-size="16" font-weight="bold" fill="#1e293b" text-anchor="middle" dominant-baseline="middle">Distancia</text>
  <line x1="50.00" y1="430.00" x2="50.00" y2="50.00" stroke="#e2e8f0" stroke-width="0.5"  />
  <line x1="192.86" y1="430.00" x2="192.86" y2="50.00" stroke="#e2e8f0" stroke-width="0.5"  />
  <line x1="264.29" y1="430.00" x2="264.29" y2="50.00" stroke="#e2e8f0" stroke-width="0.5"  />
  <line x1="335.71" y1="430.00" x2="335.71" y2="50.00" stroke="#e2e8f0" stroke-width="0.5"  />
  <line x1="407.14" y1="430.00" x2="407.14" y2="50.00" stroke="#e2e8f0" stroke-width="0.5"  />
  <line x1="478.57" y1="430.00" x2="478.57" y2="50.00" stroke="#e2e8f0" stroke-width="0.5"  />
  <line x1="550.00" y1="430.00" x2="550.00" y2="50.00" stroke="#e2e8f0" stroke-width="0.5"  />
  <line x1="50.00" y1="430.00" x2="550.00" y2="430.00" stroke="#e2e8f0" stroke-width="0.5"  />
  <line x1="50.00" y1="345.56" x2="550.00" y2="345.56" stroke="#e2e8f0" stroke-width="0.5"  />
  <line x1="50.00" y1="303.33" x2="550.00" y2="303.33" stroke="#e2e8f0" stroke-width="0.5"  />
  <line x1="50.00" y1="261.11" x2="550.00" y2="261.11" stroke="#e2e8f0" stroke-width="0.5"  />
  <line x1="50.00" y1="218.89" x2="550.00" y2="218.89" stroke="#e2e8f0" stroke-width="0.5"  />
  <line x1="50.00" y1="176.67" x2="550.00" y2="176.67" stroke="#e2e8f0" stroke-width="0.5"  />
  <line x1="50.00" y1="134.44" x2="550.00" y2="134.44" stroke="#e2e8f0" stroke-width="0.5"  />
  <line x1="50.00" y1="92.22" x2="550.00" y2="92.22" stroke="#e2e8f0" stroke-width="0.5"  />
  <line x1="50.00" y1="50.00" x2="550.00" y2="50.00" stroke="#e2e8f0" stroke-width="0.5"  />
  <line x1="50.00" y1="387.78" x2="550.00" y2="387.78" stroke="#64748b" stroke-width="2"  marker-end="url(#arrow-64748b)"/>
  <line x1="121.43" y1="430.00" x2="121.43" y2="50.00" stroke="#64748b" stroke-width="2"  marker-end="url(#arrow-64748b)"/>
  <text x="545.00" y="407.78" font-family="Inter, sans-serif" font-size="14" font-weight="bold" fill="#64748b" text-anchor="middle" dominant-baseline="middle">x</text>
  <text x="101.43" y="60.00" font-family="Inter, sans-serif" font-size="14" font-weight="bold" fill="#64748b" text-anchor="middle" dominant-baseline="middle">y</text>
  <line x1="50.00" y1="382.78" x2="50.00" y2="392.78" stroke="#64748b" stroke-width="1"  />
  <text x="50.00" y="405.78" font-family="Inter, sans-serif" font-size="11" font-weight="normal" fill="#64748b" text-anchor="middle" dominant-baseline="middle">-1</text>
  <line x1="192.86" y1="382.78" x2="192.86" y2="392.78" stroke="#64748b" stroke-width="1"  />
  <text x="192.86" y="405.78" font-family="Inter, sans-serif" font-size="11" font-weight="normal" fill="#64748b" text-anchor="middle" dominant-baseline="middle">1</text>
  <line x1="264.29" y1="382.78" x2="264.29" y2="392.78" stroke="#64748b" stroke-width="1"  />
  <text x="264.29" y="405.78" font-family="Inter, sans-serif" font-size="11" font-weight="normal" fill="#64748b" text-anchor="middle" dominant-baseline="middle">2</text>
  <line x1="335.71" y1="382.78" x2="335.71" y2="392.78" stroke="#64748b" stroke-width="1"  />
  <text x="335.71" y="405.78" font-family="Inter, sans-serif" font-size="11" font-weight="normal" fill="#64748b" text-anchor="middle" dominant-baseline="middle">3</text>
  <line x1="407.14" y1="382.78" x2="407.14" y2="392.78" stroke="#64748b" stroke-width="1"  />
  <text x="407.14" y="405.78" font-family="Inter, sans-serif" font-size="11" font-weight="normal" fill="#64748b" text-anchor="middle" dominant-baseline="middle">4</text>
  <line x1="478.57" y1="382.78" x2="478.57" y2="392.78" stroke="#64748b" stroke-width="1"  />
  <text x="478.57" y="405.78" font-family="Inter, sans-serif" font-size="11" font-weight="normal" fill="#64748b" text-anchor="middle" dominant-baseline="middle">5</text>
  <line x1="550.00" y1="382.78" x2="550.00" y2="392.78" stroke="#64748b" stroke-width="1"  />
  <text x="550.00" y="405.78" font-family="Inter, sans-serif" font-size="11" font-weight="normal" fill="#64748b" text-anchor="middle" dominant-baseline="middle">6</text>
  <line x1="116.43" y1="430.00" x2="126.43" y2="430.00" stroke="#64748b" stroke-width="1"  />
  <text x="106.43" y="430.00" font-family="Inter, sans-serif" font-size="11" font-weight="normal" fill="#64748b" text-anchor="end" dominant-baseline="middle">-1</text>
  <line x1="116.43" y1="345.56" x2="126.43" y2="345.56" stroke="#64748b" stroke-width="1"  />
  <text x="106.43" y="345.56" font-family="Inter, sans-serif" font-size="11" font-weight="normal" fill="#64748b" text-anchor="end" dominant-baseline="middle">1</text>
  <line x1="116.43" y1="303.33" x2="126.43" y2="303.33" stroke="#64748b" stroke-width="1"  />
  <text x="106.43" y="303.33" font-family="Inter, sans-serif" font-size="11" font-weight="normal" fill="#64748b" text-anchor="end" dominant-baseline="middle">2</text>
  <line x1="116.43" y1="261.11" x2="126.43" y2="261.11" stroke="#64748b" stroke-width="1"  />
  <text x="106.43" y="261.11" font-family="Inter, sans-serif" font-size="11" font-weight="normal" fill="#64748b" text-anchor="end" dominant-baseline="middle">3</text>
  <line x1="116.43" y1="218.89" x2="126.43" y2="218.89" stroke="#64748b" stroke-width="1"  />
  <text x="106.43" y="218.89" font-family="Inter, sans-serif" font-size="11" font-weight="normal" fill="#64748b" text-anchor="end" dominant-baseline="middle">4</text>
  <line x1="116.43" y1="176.67" x2="126.43" y2="176.67" stroke="#64748b" stroke-width="1"  />
  <text x="106.43" y="176.67" font-family="Inter, sans-serif" font-size="11" font-weight="normal" fill="#64748b" text-anchor="end" dominant-baseline="middle">5</text>
  <line x1="116.43" y1="134.44" x2="126.43" y2="134.44" stroke="#64748b" stroke-width="1"  />
  <text x="106.43" y="134.44" font-family="Inter, sans-serif" font-size="11" font-weight="normal" fill="#64748b" text-anchor="end" dominant-baseline="middle">6</text>
  <line x1="116.43" y1="92.22" x2="126.43" y2="92.22" stroke="#64748b" stroke-width="1"  />
  <text x="106.43" y="92.22" font-family="Inter, sans-serif" font-size="11" font-weight="normal" fill="#64748b" text-anchor="end" dominant-baseline="middle">7</text>
  <line x1="116.43" y1="50.00" x2="126.43" y2="50.00" stroke="#64748b" stroke-width="1"  />
  <text x="106.43" y="50.00" font-family="Inter, sans-serif" font-size="11" font-weight="normal" fill="#64748b" text-anchor="end" dominant-baseline="middle">8</text>
  <text x="109.43" y="402.78" font-family="Inter, sans-serif" font-size="11" font-weight="normal" fill="#64748b" text-anchor="middle" dominant-baseline="middle">O</text>
  <polygon points="192.86,303.33 407.14,303.33 407.14,134.44" fill="#fef3c7" stroke="none" stroke-width="2"/>
  <line x1="192.86" y1="303.33" x2="407.14" y2="303.33" stroke="#94a3b8" stroke-width="1.5" stroke-dasharray="5,5" />
  <line x1="407.14" y1="303.33" x2="407.14" y2="134.44" stroke="#94a3b8" stroke-width="1.5" stroke-dasharray="5,5" />
  <polyline points="395.14,303.33 395.14,291.33 407.14,291.33" fill="none" stroke="#94a3b8" stroke-width="1.5"/>
  <text x="300.00" y="318.33" font-family="Inter, sans-serif" font-size="12" font-weight="bold" fill="#94a3b8" text-anchor="middle" dominant-baseline="middle">Δx = 3</text>
  <text x="422.14" y="218.89" font-family="Inter, sans-serif" font-size="12" font-weight="bold" fill="#94a3b8" text-anchor="middle" dominant-baseline="middle">Δy = 4</text>
  <line x1="192.86" y1="303.33" x2="407.14" y2="134.44" stroke="#ef4444" stroke-width="2.5"  />
  <text x="300.00" y="208.89" font-family="Inter, sans-serif" font-size="12" font-weight="bold" fill="#ef4444" text-anchor="middle" dominant-baseline="middle">d</text>
  <circle cx="192.86" cy="303.33" r="5" fill="#3b82f6" />
  <text x="202.86" y="293.33" font-family="Inter, sans-serif" font-size="12" font-weight="bold" fill="#3b82f6" text-anchor="start" dominant-baseline="middle">P₁(1, 2)</text>
  <circle cx="407.14" cy="134.44" r="5" fill="#22c55e" />
  <text x="347.14" y="124.44" font-family="Inter, sans-serif" font-size="12" font-weight="bold" fill="#22c55e" text-anchor="start" dominant-baseline="middle">P₂(4, 6)</text>
  <rect x="174.02" y="432.90" width="251.95" height="34.20" fill="#fef3c7" stroke="#f97316" stroke-width="1" rx="6"/>
  <text x="300.00" y="450.00" font-family="Inter, sans-serif" font-size="13" font-weight="bold" fill="#1e293b" text-anchor="middle" dominant-baseline="middle">d = √(Δx² + Δy²) = √(3² + 4²) = 5</text>
</svg>