<svg xmlns="http://www.w3.org/2000/svg" viewBox="0 0 600 480">
  <defs>
        <marker id="arrow-64748b" markerWidth="10" markerHeight="10" 
                refX="8" refY="5.0" orient="auto">
            <polygon points="0,0 10,5.0 0,10" fill="#64748b"/>
        </marker></defs>
  <rect x="0.00" y="0.00" width="600.00" height="480.00" fill="#ffffff" stroke="none" stroke-width="0" rx="0"/>
  <text x="300.00" y="25.00" font-family="Inter, sans-serif" font-size="16" font-weight="bold" fill="#1e293b" text-anchor="middle" dominant-baseline="middle">Division Segmento en razón 1:2</text>
  <line x1="50.00" y1="430.00" x2="50.00" y2="50.00" stroke="#e2e8f0" stroke-width="0.5"  />
  <line x1="150.00" y1="430.00" x2="150.00" y2="50.00" stroke="#e2e8f0" stroke-width="0.5"  />
  <line x1="200.00" y1="430.00" x2="200.00" y2="50.00" stroke="#e2e8f0" stroke-width="0.5"  />
  <line x1="250.00" y1="430.00" x2="250.00" y2="50.00" stroke="#e2e8f0" stroke-width="0.5"  />
  <line x1="300.00" y1="430.00" x2="300.00" y2="50.00" stroke="#e2e8f0" stroke-width="0.5"  />
  <line x1="350.00" y1="430.00" x2="350.00" y2="50.00" stroke="#e2e8f0" stroke-width="0.5"  />
  <line x1="400.00" y1="430.00" x2="400.00" y2="50.00" stroke="#e2e8f0" stroke-width="0.5"  />
  <line x1="450.00" y1="430.00" x2="450.00" y2="50.00" stroke="#e2e8f0" stroke-width="0.5"  />
  <line x1="500.00" y1="430.00" x2="500.00" y2="50.00" stroke="#e2e8f0" stroke-width="0.5"  />
  <line x1="550.00" y1="430.00" x2="550.00" y2="50.00" stroke="#e2e8f0" stroke-width="0.5"  />
  <line x1="50.00" y1="430.00" x2="550.00" y2="430.00" stroke="#e2e8f0" stroke-width="0.5"  />
  <line x1="50.00" y1="360.91" x2="550.00" y2="360.91" stroke="#e2e8f0" stroke-width="0.5"  />
  <line x1="50.00" y1="326.36" x2="550.00" y2="326.36" stroke="#e2e8f0" stroke-width="0.5"  />
  <line x1="50.00" y1="291.82" x2="550.00" y2="291.82" stroke="#e2e8f0" stroke-width="0.5"  />
  <line x1="50.00" y1="257.27" x2="550.00" y2="257.27" stroke="#e2e8f0" stroke-width="0.5"  />
  <line x1="50.00" y1="222.73" x2="550.00" y2="222.73" stroke="#e2e8f0" stroke-width="0.5"  />
  <line x1="50.00" y1="188.18" x2="550.00" y2="188.18" stroke="#e2e8f0" stroke-width="0.5"  />
  <line x1="50.00" y1="153.64" x2="550.00" y2="153.64" stroke="#e2e8f0" stroke-width="0.5"  />
  <line x1="50.00" y1="119.09" x2="550.00" y2="119.09" stroke="#e2e8f0" stroke-width="0.5"  />
  <line x1="50.00" y1="84.55" x2="550.00" y2="84.55" stroke="#e2e8f0" stroke-width="0.5"  />
  <line x1="50.00" y1="50.00" x2="550.00" y2="50.00" stroke="#e2e8f0" stroke-width="0.5"  />
  <line x1="50.00" y1="395.45" x2="550.00" y2="395.45" stroke="#64748b" stroke-width="2"  marker-end="url(#arrow-64748b)"/>
  <line x1="100.00" y1="430.00" x2="100.00" y2="50.00" stroke="#64748b" stroke-width="2"  marker-end="url(#arrow-64748b)"/>
  <text x="545.00" y="415.45" font-family="Inter, sans-serif" font-size="14" font-weight="bold" fill="#64748b" text-anchor="middle" dominant-baseline="middle">x</text>
  <text x="80.00" y="60.00" font-family="Inter, sans-serif" font-size="14" font-weight="bold" fill="#64748b" text-anchor="middle" dominant-baseline="middle">y</text>
  <line x1="50.00" y1="390.45" x2="50.00" y2="400.45" stroke="#64748b" stroke-width="1"  />
  <text x="50.00" y="413.45" font-family="Inter, sans-serif" font-size="11" font-weight="normal" fill="#64748b" text-anchor="middle" dominant-baseline="middle">-1</text>
  <line x1="150.00" y1="390.45" x2="150.00" y2="400.45" stroke="#64748b" stroke-width="1"  />
  <text x="150.00" y="413.45" font-family="Inter, sans-serif" font-size="11" font-weight="normal" fill="#64748b" text-anchor="middle" dominant-baseline="middle">1</text>
  <line x1="200.00" y1="390.45" x2="200.00" y2="400.45" stroke="#64748b" stroke-width="1"  />
  <text x="200.00" y="413.45" font-family="Inter, sans-serif" font-size="11" font-weight="normal" fill="#64748b" text-anchor="middle" dominant-baseline="middle">2</text>
  <line x1="250.00" y1="390.45" x2="250.00" y2="400.45" stroke="#64748b" stroke-width="1"  />
  <text x="250.00" y="413.45" font-family="Inter, sans-serif" font-size="11" font-weight="normal" fill="#64748b" text-anchor="middle" dominant-baseline="middle">3</text>
  <line x1="300.00" y1="390.45" x2="300.00" y2="400.45" stroke="#64748b" stroke-width="1"  />
  <text x="300.00" y="413.45" font-family="Inter, sans-serif" font-size="11" font-weight="normal" fill="#64748b" text-anchor="middle" dominant-baseline="middle">4</text>
  <line x1="350.00" y1="390.45" x2="350.00" y2="400.45" stroke="#64748b" stroke-width="1"  />
  <text x="350.00" y="413.45" font-family="Inter, sans-serif" font-size="11" font-weight="normal" fill="#64748b" text-anchor="middle" dominant-baseline="middle">5</text>
  <line x1="400.00" y1="390.45" x2="400.00" y2="400.45" stroke="#64748b" stroke-width="1"  />
  <text x="400.00" y="413.45" font-family="Inter, sans-serif" font-size="11" font-weight="normal" fill="#64748b" text-anchor="middle" dominant-baseline="middle">6</text>
  <line x1="450.00" y1="390.45" x2="450.00" y2="400.45" stroke="#64748b" stroke-width="1"  />
  <text x="450.00" y="413.45" font-family="Inter, sans-serif" font-size="11" font-weight="normal" fill="#64748b" text-anchor="middle" dominant-baseline="middle">7</text>
  <line x1="500.00" y1="390.45" x2="500.00" y2="400.45" stroke="#64748b" stroke-width="1"  />
  <text x="500.00" y="413.45" font-family="Inter, sans-serif" font-size="11" font-weight="normal" fill="#64748b" text-anchor="middle" dominant-baseline="middle">8</text>
  <line x1="550.00" y1="390.45" x2="550.00" y2="400.45" stroke="#64748b" stroke-width="1"  />
  <text x="550.00" y="413.45" font-family="Inter, sans-serif" font-size="11" font-weight="normal" fill="#64748b" text-anchor="middle" dominant-baseline="middle">9</text>
  <line x1="95.00" y1="430.00" x2="105.00" y2="430.00" stroke="#64748b" stroke-width="1"  />
  <text x="85.00" y="430.00" font-family="Inter, sans-serif" font-size="11" font-weight="normal" fill="#64748b" text-anchor="end" dominant-baseline="middle">-1</text>
  <line x1="95.00" y1="360.91" x2="105.00" y2="360.91" stroke="#64748b" stroke-width="1"  />
  <text x="85.00" y="360.91" font-family="Inter, sans-serif" font-size="11" font-weight="normal" fill="#64748b" text-anchor="end" dominant-baseline="middle">1</text>
  <line x1="95.00" y1="326.36" x2="105.00" y2="326.36" stroke="#64748b" stroke-width="1"  />
  <text x="85.00" y="326.36" font-family="Inter, sans-serif" font-size="11" font-weight="normal" fill="#64748b" text-anchor="end" dominant-baseline="middle">2</text>
  <line x1="95.00" y1="291.82" x2="105.00" y2="291.82" stroke="#64748b" stroke-width="1"  />
  <text x="85.00" y="291.82" font-family="Inter, sans-serif" font-size="11" font-weight="normal" fill="#64748b" text-anchor="end" dominant-baseline="middle">3</text>
  <line x1="95.00" y1="257.27" x2="105.00" y2="257.27" stroke="#64748b" stroke-width="1"  />
  <text x="85.00" y="257.27" font-family="Inter, sans-serif" font-size="11" font-weight="normal" fill="#64748b" text-anchor="end" dominant-baseline="middle">4</text>
  <line x1="95.00" y1="222.73" x2="105.00" y2="222.73" stroke="#64748b" stroke-width="1"  />
  <text x="85.00" y="222.73" font-family="Inter, sans-serif" font-size="11" font-weight="normal" fill="#64748b" text-anchor="end" dominant-baseline="middle">5</text>
  <line x1="95.00" y1="188.18" x2="105.00" y2="188.18" stroke="#64748b" stroke-width="1"  />
  <text x="85.00" y="188.18" font-family="Inter, sans-serif" font-size="11" font-weight="normal" fill="#64748b" text-anchor="end" dominant-baseline="middle">6</text>
  <line x1="95.00" y1="153.64" x2="105.00" y2="153.64" stroke="#64748b" stroke-width="1"  />
  <text x="85.00" y="153.64" font-family="Inter, sans-serif" font-size="11" font-weight="normal" fill="#64748b" text-anchor="end" dominant-baseline="middle">7</text>
  <line x1="95.00" y1="119.09" x2="105.00" y2="119.09" stroke="#64748b" stroke-width="1"  />
  <text x="85.00" y="119.09" font-family="Inter, sans-serif" font-size="11" font-weight="normal" fill="#64748b" text-anchor="end" dominant-baseline="middle">8</text>
  <line x1="95.00" y1="84.55" x2="105.00" y2="84.55" stroke="#64748b" stroke-width="1"  />
  <text x="85.00" y="84.55" font-family="Inter, sans-serif" font-size="11" font-weight="normal" fill="#64748b" text-anchor="end" dominant-baseline="middle">9</text>
  <line x1="95.00" y1="50.00" x2="105.00" y2="50.00" stroke="#64748b" stroke-width="1"  />
  <text x="85.00" y="50.00" font-family="Inter, sans-serif" font-size="11" font-weight="normal" fill="#64748b" text-anchor="end" dominant-baseline="middle">10</text>
  <text x="88.00" y="410.45" font-family="Inter, sans-serif" font-size="11" font-weight="normal" fill="#64748b" text-anchor="middle" dominant-baseline="middle">O</text>
  <line x1="150.00" y1="326.36" x2="450.00" y2="119.09" stroke="#3b82f6" stroke-width="2"  />
  <text x="200.00" y="276.82" font-family="Inter, sans-serif" font-size="14" font-weight="bold" fill="#22c55e" text-anchor="middle" dominant-baseline="middle">1</text>
  <text x="350.00" y="173.18" font-family="Inter, sans-serif" font-size="14" font-weight="bold" fill="#f97316" text-anchor="middle" dominant-baseline="middle">2</text>
  <circle cx="150.00" cy="326.36" r="5" fill="#3b82f6" />
  <text x="160.00" y="316.36" font-family="Inter, sans-serif" font-size="12" font-weight="bold" fill="#3b82f6" text-anchor="start" dominant-baseline="middle">A(1, 2)</text>
  <circle cx="450.00" cy="119.09" r="5" fill="#3b82f6" />
  <text x="400.00" y="109.09" font-family="Inter, sans-serif" font-size="12" font-weight="bold" fill="#3b82f6" text-anchor="start" dominant-baseline="middle">B(7, 8)</text>
  <circle cx="250.00" cy="257.27" r="6" fill="#ef4444" />
  <text x="260.00" y="242.27" font-family="Inter, sans-serif" font-size="12" font-weight="bold" fill="#ef4444" text-anchor="start" dominant-baseline="middle">P(3, 4)</text>
  <rect x="179.80" y="433.60" width="240.40" height="32.80" fill="#fef3c7" stroke="#f97316" stroke-width="1" rx="6"/>
  <text x="300.00" y="450.00" font-family="Inter, sans-serif" font-size="12" font-weight="bold" fill="#1e293b" text-anchor="middle" dominant-baseline="middle">P divide AB en razón 1:2 → P(3, 4)</text>
</svg>