<svg xmlns="http://www.w3.org/2000/svg" viewBox="0 0 600 480">
  <defs>
        <marker id="arrow-64748b" markerWidth="10" markerHeight="10" 
                refX="8" refY="5.0" orient="auto">
            <polygon points="0,0 10,5.0 0,10" fill="#64748b"/>
        </marker></defs>
  <rect x="0.00" y="0.00" width="600.00" height="480.00" fill="#ffffff" stroke="none" stroke-width="0" rx="0"/>
  <text x="300.00" y="25.00" font-family="Inter, sans-serif" font-size="14" font-weight="bold" fill="#1e293b" text-anchor="middle" dominant-baseline="middle">Ecuación General: Ax + By + C = 0</text>
  <line x1="50.00" y1="430.00" x2="50.00" y2="50.00" stroke="#e2e8f0" stroke-width="0.5"  />
  <line x1="112.50" y1="430.00" x2="112.50" y2="50.00" stroke="#e2e8f0" stroke-width="0.5"  />
  <line x1="237.50" y1="430.00" x2="237.50" y2="50.00" stroke="#e2e8f0" stroke-width="0.5"  />
  <line x1="300.00" y1="430.00" x2="300.00" y2="50.00" stroke="#e2e8f0" stroke-width="0.5"  />
  <line x1="362.50" y1="430.00" x2="362.50" y2="50.00" stroke="#e2e8f0" stroke-width="0.5"  />
  <line x1="425.00" y1="430.00" x2="425.00" y2="50.00" stroke="#e2e8f0" stroke-width="0.5"  />
  <line x1="487.50" y1="430.00" x2="487.50" y2="50.00" stroke="#e2e8f0" stroke-width="0.5"  />
  <line x1="550.00" y1="430.00" x2="550.00" y2="50.00" stroke="#e2e8f0" stroke-width="0.5"  />
  <line x1="50.00" y1="430.00" x2="550.00" y2="430.00" stroke="#e2e8f0" stroke-width="0.5"  />
  <line x1="50.00" y1="303.33" x2="550.00" y2="303.33" stroke="#e2e8f0" stroke-width="0.5"  />
  <line x1="50.00" y1="240.00" x2="550.00" y2="240.00" stroke="#e2e8f0" stroke-width="0.5"  />
  <line x1="50.00" y1="176.67" x2="550.00" y2="176.67" stroke="#e2e8f0" stroke-width="0.5"  />
  <line x1="50.00" y1="113.33" x2="550.00" y2="113.33" stroke="#e2e8f0" stroke-width="0.5"  />
  <line x1="50.00" y1="50.00" x2="550.00" y2="50.00" stroke="#e2e8f0" stroke-width="0.5"  />
  <line x1="50.00" y1="366.67" x2="550.00" y2="366.67" stroke="#64748b" stroke-width="2"  marker-end="url(#arrow-64748b)"/>
  <line x1="175.00" y1="430.00" x2="175.00" y2="50.00" stroke="#64748b" stroke-width="2"  marker-end="url(#arrow-64748b)"/>
  <text x="545.00" y="386.67" font-family="Inter, sans-serif" font-size="14" font-weight="bold" fill="#64748b" text-anchor="middle" dominant-baseline="middle">x</text>
  <text x="155.00" y="60.00" font-family="Inter, sans-serif" font-size="14" font-weight="bold" fill="#64748b" text-anchor="middle" dominant-baseline="middle">y</text>
  <line x1="50.00" y1="361.67" x2="50.00" y2="371.67" stroke="#64748b" stroke-width="1"  />
  <text x="50.00" y="384.67" font-family="Inter, sans-serif" font-size="11" font-weight="normal" fill="#64748b" text-anchor="middle" dominant-baseline="middle">-2</text>
  <line x1="112.50" y1="361.67" x2="112.50" y2="371.67" stroke="#64748b" stroke-width="1"  />
  <text x="112.50" y="384.67" font-family="Inter, sans-serif" font-size="11" font-weight="normal" fill="#64748b" text-anchor="middle" dominant-baseline="middle">-1</text>
  <line x1="237.50" y1="361.67" x2="237.50" y2="371.67" stroke="#64748b" stroke-width="1"  />
  <text x="237.50" y="384.67" font-family="Inter, sans-serif" font-size="11" font-weight="normal" fill="#64748b" text-anchor="middle" dominant-baseline="middle">1</text>
  <line x1="300.00" y1="361.67" x2="300.00" y2="371.67" stroke="#64748b" stroke-width="1"  />
  <text x="300.00" y="384.67" font-family="Inter, sans-serif" font-size="11" font-weight="normal" fill="#64748b" text-anchor="middle" dominant-baseline="middle">2</text>
  <line x1="362.50" y1="361.67" x2="362.50" y2="371.67" stroke="#64748b" stroke-width="1"  />
  <text x="362.50" y="384.67" font-family="Inter, sans-serif" font-size="11" font-weight="normal" fill="#64748b" text-anchor="middle" dominant-baseline="middle">3</text>
  <line x1="425.00" y1="361.67" x2="425.00" y2="371.67" stroke="#64748b" stroke-width="1"  />
  <text x="425.00" y="384.67" font-family="Inter, sans-serif" font-size="11" font-weight="normal" fill="#64748b" text-anchor="middle" dominant-baseline="middle">4</text>
  <line x1="487.50" y1="361.67" x2="487.50" y2="371.67" stroke="#64748b" stroke-width="1"  />
  <text x="487.50" y="384.67" font-family="Inter, sans-serif" font-size="11" font-weight="normal" fill="#64748b" text-anchor="middle" dominant-baseline="middle">5</text>
  <line x1="550.00" y1="361.67" x2="550.00" y2="371.67" stroke="#64748b" stroke-width="1"  />
  <text x="550.00" y="384.67" font-family="Inter, sans-serif" font-size="11" font-weight="normal" fill="#64748b" text-anchor="middle" dominant-baseline="middle">6</text>
  <line x1="170.00" y1="430.00" x2="180.00" y2="430.00" stroke="#64748b" stroke-width="1"  />
  <text x="160.00" y="430.00" font-family="Inter, sans-serif" font-size="11" font-weight="normal" fill="#64748b" text-anchor="end" dominant-baseline="middle">-1</text>
  <line x1="170.00" y1="303.33" x2="180.00" y2="303.33" stroke="#64748b" stroke-width="1"  />
  <text x="160.00" y="303.33" font-family="Inter, sans-serif" font-size="11" font-weight="normal" fill="#64748b" text-anchor="end" dominant-baseline="middle">1</text>
  <line x1="170.00" y1="240.00" x2="180.00" y2="240.00" stroke="#64748b" stroke-width="1"  />
  <text x="160.00" y="240.00" font-family="Inter, sans-serif" font-size="11" font-weight="normal" fill="#64748b" text-anchor="end" dominant-baseline="middle">2</text>
  <line x1="170.00" y1="176.67" x2="180.00" y2="176.67" stroke="#64748b" stroke-width="1"  />
  <text x="160.00" y="176.67" font-family="Inter, sans-serif" font-size="11" font-weight="normal" fill="#64748b" text-anchor="end" dominant-baseline="middle">3</text>
  <line x1="170.00" y1="113.33" x2="180.00" y2="113.33" stroke="#64748b" stroke-width="1"  />
  <text x="160.00" y="113.33" font-family="Inter, sans-serif" font-size="11" font-weight="normal" fill="#64748b" text-anchor="end" dominant-baseline="middle">4</text>
  <line x1="170.00" y1="50.00" x2="180.00" y2="50.00" stroke="#64748b" stroke-width="1"  />
  <text x="160.00" y="50.00" font-family="Inter, sans-serif" font-size="11" font-weight="normal" fill="#64748b" text-anchor="end" dominant-baseline="middle">5</text>
  <text x="163.00" y="381.67" font-family="Inter, sans-serif" font-size="11" font-weight="normal" fill="#64748b" text-anchor="middle" dominant-baseline="middle">O</text>
  <line x1="143.75" y1="219.10" x2="487.50" y2="450.90" stroke="#3b82f6" stroke-width="2.5"  />
  <circle cx="362.50" cy="366.67" r="6" fill="#ef4444" />
  <circle cx="175.00" cy="240.00" r="6" fill="#22c55e" />
  <text x="372.50" y="384.67" font-family="Inter, sans-serif" font-size="10" font-weight="bold" fill="#ef4444" text-anchor="start" dominant-baseline="middle">Int. X: (3, 0)</text>
  <text x="185.00" y="235.00" font-family="Inter, sans-serif" font-size="10" font-weight="bold" fill="#22c55e" text-anchor="start" dominant-baseline="middle">Int. Y: (0, 2)</text>
  <text x="425.00" y="309.23" font-family="Inter, sans-serif" font-size="11" font-weight="bold" fill="#3b82f6" text-anchor="middle" dominant-baseline="middle">2x + 3y - 6 = 0</text>
  <rect x="151.75" y="435.00" width="296.50" height="30.00" fill="#fef3c7" stroke="#f97316" stroke-width="1" rx="6"/>
  <text x="300.00" y="450.00" font-family="Inter, sans-serif" font-size="10" font-weight="bold" fill="#1e293b" text-anchor="middle" dominant-baseline="middle">m = -A/B = -2/3  |  Int. X = -C/A  |  Int. Y = -C/B</text>
</svg>