<svg xmlns="http://www.w3.org/2000/svg" viewBox="0 0 600 600">
  <defs>
        <marker id="arrow-64748b" markerWidth="10" markerHeight="10" 
                refX="8" refY="5.0" orient="auto">
            <polygon points="0,0 10,5.0 0,10" fill="#64748b"/>
        </marker></defs>
  <rect x="0.00" y="0.00" width="600.00" height="600.00" fill="#ffffff" stroke="none" stroke-width="0" rx="0"/>
  <text x="300.00" y="25.00" font-family="Inter, sans-serif" font-size="15" font-weight="bold" fill="#1e293b" text-anchor="middle" dominant-baseline="middle">Elementos de la Circunferencia</text>
  <line x1="50.00" y1="550.00" x2="50.00" y2="50.00" stroke="#e2e8f0" stroke-width="0.5"  />
  <line x1="91.67" y1="550.00" x2="91.67" y2="50.00" stroke="#e2e8f0" stroke-width="0.5"  />
  <line x1="133.33" y1="550.00" x2="133.33" y2="50.00" stroke="#e2e8f0" stroke-width="0.5"  />
  <line x1="175.00" y1="550.00" x2="175.00" y2="50.00" stroke="#e2e8f0" stroke-width="0.5"  />
  <line x1="216.67" y1="550.00" x2="216.67" y2="50.00" stroke="#e2e8f0" stroke-width="0.5"  />
  <line x1="258.33" y1="550.00" x2="258.33" y2="50.00" stroke="#e2e8f0" stroke-width="0.5"  />
  <line x1="341.67" y1="550.00" x2="341.67" y2="50.00" stroke="#e2e8f0" stroke-width="0.5"  />
  <line x1="383.33" y1="550.00" x2="383.33" y2="50.00" stroke="#e2e8f0" stroke-width="0.5"  />
  <line x1="425.00" y1="550.00" x2="425.00" y2="50.00" stroke="#e2e8f0" stroke-width="0.5"  />
  <line x1="466.67" y1="550.00" x2="466.67" y2="50.00" stroke="#e2e8f0" stroke-width="0.5"  />
  <line x1="508.33" y1="550.00" x2="508.33" y2="50.00" stroke="#e2e8f0" stroke-width="0.5"  />
  <line x1="550.00" y1="550.00" x2="550.00" y2="50.00" stroke="#e2e8f0" stroke-width="0.5"  />
  <line x1="50.00" y1="550.00" x2="550.00" y2="550.00" stroke="#e2e8f0" stroke-width="0.5"  />
  <line x1="50.00" y1="508.33" x2="550.00" y2="508.33" stroke="#e2e8f0" stroke-width="0.5"  />
  <line x1="50.00" y1="466.67" x2="550.00" y2="466.67" stroke="#e2e8f0" stroke-width="0.5"  />
  <line x1="50.00" y1="425.00" x2="550.00" y2="425.00" stroke="#e2e8f0" stroke-width="0.5"  />
  <line x1="50.00" y1="383.33" x2="550.00" y2="383.33" stroke="#e2e8f0" stroke-width="0.5"  />
  <line x1="50.00" y1="341.67" x2="550.00" y2="341.67" stroke="#e2e8f0" stroke-width="0.5"  />
  <line x1="50.00" y1="258.33" x2="550.00" y2="258.33" stroke="#e2e8f0" stroke-width="0.5"  />
  <line x1="50.00" y1="216.67" x2="550.00" y2="216.67" stroke="#e2e8f0" stroke-width="0.5"  />
  <line x1="50.00" y1="175.00" x2="550.00" y2="175.00" stroke="#e2e8f0" stroke-width="0.5"  />
  <line x1="50.00" y1="133.33" x2="550.00" y2="133.33" stroke="#e2e8f0" stroke-width="0.5"  />
  <line x1="50.00" y1="91.67" x2="550.00" y2="91.67" stroke="#e2e8f0" stroke-width="0.5"  />
  <line x1="50.00" y1="50.00" x2="550.00" y2="50.00" stroke="#e2e8f0" stroke-width="0.5"  />
  <line x1="50.00" y1="300.00" x2="550.00" y2="300.00" stroke="#64748b" stroke-width="2"  marker-end="url(#arrow-64748b)"/>
  <line x1="300.00" y1="550.00" x2="300.00" y2="50.00" stroke="#64748b" stroke-width="2"  marker-end="url(#arrow-64748b)"/>
  <text x="545.00" y="320.00" font-family="Inter, sans-serif" font-size="14" font-weight="bold" fill="#64748b" text-anchor="middle" dominant-baseline="middle">x</text>
  <text x="280.00" y="60.00" font-family="Inter, sans-serif" font-size="14" font-weight="bold" fill="#64748b" text-anchor="middle" dominant-baseline="middle">y</text>
  <line x1="50.00" y1="295.00" x2="50.00" y2="305.00" stroke="#64748b" stroke-width="1"  />
  <text x="50.00" y="318.00" font-family="Inter, sans-serif" font-size="11" font-weight="normal" fill="#64748b" text-anchor="middle" dominant-baseline="middle">-6</text>
  <line x1="133.33" y1="295.00" x2="133.33" y2="305.00" stroke="#64748b" stroke-width="1"  />
  <text x="133.33" y="318.00" font-family="Inter, sans-serif" font-size="11" font-weight="normal" fill="#64748b" text-anchor="middle" dominant-baseline="middle">-4</text>
  <line x1="216.67" y1="295.00" x2="216.67" y2="305.00" stroke="#64748b" stroke-width="1"  />
  <text x="216.67" y="318.00" font-family="Inter, sans-serif" font-size="11" font-weight="normal" fill="#64748b" text-anchor="middle" dominant-baseline="middle">-2</text>
  <line x1="383.33" y1="295.00" x2="383.33" y2="305.00" stroke="#64748b" stroke-width="1"  />
  <text x="383.33" y="318.00" font-family="Inter, sans-serif" font-size="11" font-weight="normal" fill="#64748b" text-anchor="middle" dominant-baseline="middle">2</text>
  <line x1="466.67" y1="295.00" x2="466.67" y2="305.00" stroke="#64748b" stroke-width="1"  />
  <text x="466.67" y="318.00" font-family="Inter, sans-serif" font-size="11" font-weight="normal" fill="#64748b" text-anchor="middle" dominant-baseline="middle">4</text>
  <line x1="550.00" y1="295.00" x2="550.00" y2="305.00" stroke="#64748b" stroke-width="1"  />
  <text x="550.00" y="318.00" font-family="Inter, sans-serif" font-size="11" font-weight="normal" fill="#64748b" text-anchor="middle" dominant-baseline="middle">6</text>
  <line x1="295.00" y1="550.00" x2="305.00" y2="550.00" stroke="#64748b" stroke-width="1"  />
  <text x="285.00" y="550.00" font-family="Inter, sans-serif" font-size="11" font-weight="normal" fill="#64748b" text-anchor="end" dominant-baseline="middle">-6</text>
  <line x1="295.00" y1="466.67" x2="305.00" y2="466.67" stroke="#64748b" stroke-width="1"  />
  <text x="285.00" y="466.67" font-family="Inter, sans-serif" font-size="11" font-weight="normal" fill="#64748b" text-anchor="end" dominant-baseline="middle">-4</text>
  <line x1="295.00" y1="383.33" x2="305.00" y2="383.33" stroke="#64748b" stroke-width="1"  />
  <text x="285.00" y="383.33" font-family="Inter, sans-serif" font-size="11" font-weight="normal" fill="#64748b" text-anchor="end" dominant-baseline="middle">-2</text>
  <line x1="295.00" y1="216.67" x2="305.00" y2="216.67" stroke="#64748b" stroke-width="1"  />
  <text x="285.00" y="216.67" font-family="Inter, sans-serif" font-size="11" font-weight="normal" fill="#64748b" text-anchor="end" dominant-baseline="middle">2</text>
  <line x1="295.00" y1="133.33" x2="305.00" y2="133.33" stroke="#64748b" stroke-width="1"  />
  <text x="285.00" y="133.33" font-family="Inter, sans-serif" font-size="11" font-weight="normal" fill="#64748b" text-anchor="end" dominant-baseline="middle">4</text>
  <line x1="295.00" y1="50.00" x2="305.00" y2="50.00" stroke="#64748b" stroke-width="1"  />
  <text x="285.00" y="50.00" font-family="Inter, sans-serif" font-size="11" font-weight="normal" fill="#64748b" text-anchor="end" dominant-baseline="middle">6</text>
  <text x="288.00" y="315.00" font-family="Inter, sans-serif" font-size="11" font-weight="normal" fill="#64748b" text-anchor="middle" dominant-baseline="middle">O</text>
  <circle cx="341.67" cy="258.33" r="166.67" fill="#dbeafe" stroke="#3b82f6" stroke-width="2" fill-opacity="0.3"/>
  <line x1="341.67" y1="258.33" x2="508.33" y2="258.33" stroke="#ef4444" stroke-width="2"  />
  <text x="425.00" y="248.33" font-family="Inter, sans-serif" font-size="11" font-weight="bold" fill="#ef4444" text-anchor="middle" dominant-baseline="middle">r = 4</text>
  <line x1="175.00" y1="258.33" x2="508.33" y2="258.33" stroke="#22c55e" stroke-width="2" stroke-dasharray="5,5" />
  <text x="341.67" y="212.50" font-family="Inter, sans-serif" font-size="10" font-weight="normal" fill="#22c55e" text-anchor="middle" dominant-baseline="middle">d = 2r = 8</text>
  <line x1="258.33" y1="114.00" x2="425.00" y2="114.00" stroke="#a855f7" stroke-width="2"  />
  <text x="341.67" y="91.50" font-family="Inter, sans-serif" font-size="10" font-weight="normal" fill="#a855f7" text-anchor="middle" dominant-baseline="middle">cuerda</text>
  <circle cx="341.67" cy="258.33" r="5" fill="#ef4444" />
  <text x="351.67" y="248.33" font-family="Inter, sans-serif" font-size="12" font-weight="bold" fill="#ef4444" text-anchor="start" dominant-baseline="middle">C(1, 1)</text>
  <circle cx="508.33" cy="258.33" r="4" fill="#3b82f6" />
  <text x="518.33" y="248.33" font-family="Inter, sans-serif" font-size="12" font-weight="bold" fill="#3b82f6" text-anchor="start" dominant-baseline="middle">P(5, 1)</text>
  <circle cx="175.00" cy="258.33" r="4" fill="#22c55e" />
  <circle cx="258.33" cy="114.00" r="4" fill="#a855f7" />
  <circle cx="425.00" cy="114.00" r="4" fill="#a855f7" />
  <rect x="160.00" y="555.00" width="280.00" height="30.00" fill="#fef3c7" stroke="#f97316" stroke-width="1" rx="6"/>
  <text x="300.00" y="570.00" font-family="Inter, sans-serif" font-size="10" font-weight="bold" fill="#1e293b" text-anchor="middle" dominant-baseline="middle">Centro C(h,k) | Radio r | Diámetro d=2r | Cuerda</text>
</svg>