<svg xmlns="http://www.w3.org/2000/svg" viewBox="0 0 600 480">
  <defs>
        <marker id="arrow-64748b" markerWidth="10" markerHeight="10" 
                refX="8" refY="5.0" orient="auto">
            <polygon points="0,0 10,5.0 0,10" fill="#64748b"/>
        </marker></defs>
  <rect x="0.00" y="0.00" width="600.00" height="480.00" fill="#ffffff" stroke="none" stroke-width="0" rx="0"/>
  <text x="300.00" y="25.00" font-family="Inter, sans-serif" font-size="15" font-weight="bold" fill="#1e293b" text-anchor="middle" dominant-baseline="middle">Familia de Rectas (Haz)</text>
  <line x1="50.00" y1="430.00" x2="50.00" y2="50.00" stroke="#e2e8f0" stroke-width="0.5"  />
  <line x1="112.50" y1="430.00" x2="112.50" y2="50.00" stroke="#e2e8f0" stroke-width="0.5"  />
  <line x1="175.00" y1="430.00" x2="175.00" y2="50.00" stroke="#e2e8f0" stroke-width="0.5"  />
  <line x1="300.00" y1="430.00" x2="300.00" y2="50.00" stroke="#e2e8f0" stroke-width="0.5"  />
  <line x1="362.50" y1="430.00" x2="362.50" y2="50.00" stroke="#e2e8f0" stroke-width="0.5"  />
  <line x1="425.00" y1="430.00" x2="425.00" y2="50.00" stroke="#e2e8f0" stroke-width="0.5"  />
  <line x1="487.50" y1="430.00" x2="487.50" y2="50.00" stroke="#e2e8f0" stroke-width="0.5"  />
  <line x1="550.00" y1="430.00" x2="550.00" y2="50.00" stroke="#e2e8f0" stroke-width="0.5"  />
  <line x1="50.00" y1="430.00" x2="550.00" y2="430.00" stroke="#e2e8f0" stroke-width="0.5"  />
  <line x1="50.00" y1="375.71" x2="550.00" y2="375.71" stroke="#e2e8f0" stroke-width="0.5"  />
  <line x1="50.00" y1="267.14" x2="550.00" y2="267.14" stroke="#e2e8f0" stroke-width="0.5"  />
  <line x1="50.00" y1="212.86" x2="550.00" y2="212.86" stroke="#e2e8f0" stroke-width="0.5"  />
  <line x1="50.00" y1="158.57" x2="550.00" y2="158.57" stroke="#e2e8f0" stroke-width="0.5"  />
  <line x1="50.00" y1="104.29" x2="550.00" y2="104.29" stroke="#e2e8f0" stroke-width="0.5"  />
  <line x1="50.00" y1="50.00" x2="550.00" y2="50.00" stroke="#e2e8f0" stroke-width="0.5"  />
  <line x1="50.00" y1="321.43" x2="550.00" y2="321.43" stroke="#64748b" stroke-width="2"  marker-end="url(#arrow-64748b)"/>
  <line x1="237.50" y1="430.00" x2="237.50" y2="50.00" stroke="#64748b" stroke-width="2"  marker-end="url(#arrow-64748b)"/>
  <text x="545.00" y="341.43" font-family="Inter, sans-serif" font-size="14" font-weight="bold" fill="#64748b" text-anchor="middle" dominant-baseline="middle">x</text>
  <text x="217.50" y="60.00" font-family="Inter, sans-serif" font-size="14" font-weight="bold" fill="#64748b" text-anchor="middle" dominant-baseline="middle">y</text>
  <line x1="50.00" y1="316.43" x2="50.00" y2="326.43" stroke="#64748b" stroke-width="1"  />
  <text x="50.00" y="339.43" font-family="Inter, sans-serif" font-size="11" font-weight="normal" fill="#64748b" text-anchor="middle" dominant-baseline="middle">-3</text>
  <line x1="112.50" y1="316.43" x2="112.50" y2="326.43" stroke="#64748b" stroke-width="1"  />
  <text x="112.50" y="339.43" font-family="Inter, sans-serif" font-size="11" font-weight="normal" fill="#64748b" text-anchor="middle" dominant-baseline="middle">-2</text>
  <line x1="175.00" y1="316.43" x2="175.00" y2="326.43" stroke="#64748b" stroke-width="1"  />
  <text x="175.00" y="339.43" font-family="Inter, sans-serif" font-size="11" font-weight="normal" fill="#64748b" text-anchor="middle" dominant-baseline="middle">-1</text>
  <line x1="300.00" y1="316.43" x2="300.00" y2="326.43" stroke="#64748b" stroke-width="1"  />
  <text x="300.00" y="339.43" font-family="Inter, sans-serif" font-size="11" font-weight="normal" fill="#64748b" text-anchor="middle" dominant-baseline="middle">1</text>
  <line x1="362.50" y1="316.43" x2="362.50" y2="326.43" stroke="#64748b" stroke-width="1"  />
  <text x="362.50" y="339.43" font-family="Inter, sans-serif" font-size="11" font-weight="normal" fill="#64748b" text-anchor="middle" dominant-baseline="middle">2</text>
  <line x1="425.00" y1="316.43" x2="425.00" y2="326.43" stroke="#64748b" stroke-width="1"  />
  <text x="425.00" y="339.43" font-family="Inter, sans-serif" font-size="11" font-weight="normal" fill="#64748b" text-anchor="middle" dominant-baseline="middle">3</text>
  <line x1="487.50" y1="316.43" x2="487.50" y2="326.43" stroke="#64748b" stroke-width="1"  />
  <text x="487.50" y="339.43" font-family="Inter, sans-serif" font-size="11" font-weight="normal" fill="#64748b" text-anchor="middle" dominant-baseline="middle">4</text>
  <line x1="550.00" y1="316.43" x2="550.00" y2="326.43" stroke="#64748b" stroke-width="1"  />
  <text x="550.00" y="339.43" font-family="Inter, sans-serif" font-size="11" font-weight="normal" fill="#64748b" text-anchor="middle" dominant-baseline="middle">5</text>
  <line x1="232.50" y1="430.00" x2="242.50" y2="430.00" stroke="#64748b" stroke-width="1"  />
  <text x="222.50" y="430.00" font-family="Inter, sans-serif" font-size="11" font-weight="normal" fill="#64748b" text-anchor="end" dominant-baseline="middle">-2</text>
  <line x1="232.50" y1="375.71" x2="242.50" y2="375.71" stroke="#64748b" stroke-width="1"  />
  <text x="222.50" y="375.71" font-family="Inter, sans-serif" font-size="11" font-weight="normal" fill="#64748b" text-anchor="end" dominant-baseline="middle">-1</text>
  <line x1="232.50" y1="267.14" x2="242.50" y2="267.14" stroke="#64748b" stroke-width="1"  />
  <text x="222.50" y="267.14" font-family="Inter, sans-serif" font-size="11" font-weight="normal" fill="#64748b" text-anchor="end" dominant-baseline="middle">1</text>
  <line x1="232.50" y1="212.86" x2="242.50" y2="212.86" stroke="#64748b" stroke-width="1"  />
  <text x="222.50" y="212.86" font-family="Inter, sans-serif" font-size="11" font-weight="normal" fill="#64748b" text-anchor="end" dominant-baseline="middle">2</text>
  <line x1="232.50" y1="158.57" x2="242.50" y2="158.57" stroke="#64748b" stroke-width="1"  />
  <text x="222.50" y="158.57" font-family="Inter, sans-serif" font-size="11" font-weight="normal" fill="#64748b" text-anchor="end" dominant-baseline="middle">3</text>
  <line x1="232.50" y1="104.29" x2="242.50" y2="104.29" stroke="#64748b" stroke-width="1"  />
  <text x="222.50" y="104.29" font-family="Inter, sans-serif" font-size="11" font-weight="normal" fill="#64748b" text-anchor="end" dominant-baseline="middle">4</text>
  <line x1="232.50" y1="50.00" x2="242.50" y2="50.00" stroke="#64748b" stroke-width="1"  />
  <text x="222.50" y="50.00" font-family="Inter, sans-serif" font-size="11" font-weight="normal" fill="#64748b" text-anchor="end" dominant-baseline="middle">5</text>
  <text x="225.50" y="336.43" font-family="Inter, sans-serif" font-size="11" font-weight="normal" fill="#64748b" text-anchor="middle" dominant-baseline="middle">O</text>
  <line x1="81.25" y1="-167.14" x2="518.75" y2="592.86" stroke="#ef4444" stroke-width="1.5"  />
  <line x1="81.25" y1="22.86" x2="518.75" y2="402.86" stroke="#f97316" stroke-width="1.5"  />
  <line x1="81.25" y1="117.86" x2="518.75" y2="307.86" stroke="#eab308" stroke-width="1.5"  />
  <line x1="81.25" y1="212.86" x2="518.75" y2="212.86" stroke="#22c55e" stroke-width="1.5"  />
  <line x1="81.25" y1="307.86" x2="518.75" y2="117.86" stroke="#06b6d4" stroke-width="1.5"  />
  <line x1="81.25" y1="402.86" x2="518.75" y2="22.86" stroke="#3b82f6" stroke-width="1.5"  />
  <line x1="81.25" y1="592.86" x2="518.75" y2="-167.14" stroke="#8b5cf6" stroke-width="1.5"  />
  <circle cx="300.00" cy="212.86" r="7" fill="#1e293b" />
  <text x="310.00" y="202.86" font-family="Inter, sans-serif" font-size="12" font-weight="bold" fill="#1e293b" text-anchor="start" dominant-baseline="middle">P₀(1, 2)</text>
  <rect x="140.75" y="434.30" width="318.50" height="31.40" fill="#fef3c7" stroke="#f97316" stroke-width="1" rx="6"/>
  <text x="300.00" y="450.00" font-family="Inter, sans-serif" font-size="11" font-weight="bold" fill="#1e293b" text-anchor="middle" dominant-baseline="middle">Todas pasan por P₀(1, 2) con diferentes pendientes</text>
</svg>