<svg xmlns="http://www.w3.org/2000/svg" viewBox="0 0 600 480">
  <defs>
        <marker id="arrow-64748b" markerWidth="10" markerHeight="10" 
                refX="8" refY="5.0" orient="auto">
            <polygon points="0,0 10,5.0 0,10" fill="#64748b"/>
        </marker></defs>
  <rect x="0.00" y="0.00" width="600.00" height="480.00" fill="#ffffff" stroke="none" stroke-width="0" rx="0"/>
  <text x="300.00" y="25.00" font-family="Inter, sans-serif" font-size="15" font-weight="bold" fill="#1e293b" text-anchor="middle" dominant-baseline="middle">Forma Simétrica: x/a + y/b = 1</text>
  <line x1="50.00" y1="430.00" x2="50.00" y2="50.00" stroke="#e2e8f0" stroke-width="0.5"  />
  <line x1="192.86" y1="430.00" x2="192.86" y2="50.00" stroke="#e2e8f0" stroke-width="0.5"  />
  <line x1="264.29" y1="430.00" x2="264.29" y2="50.00" stroke="#e2e8f0" stroke-width="0.5"  />
  <line x1="335.71" y1="430.00" x2="335.71" y2="50.00" stroke="#e2e8f0" stroke-width="0.5"  />
  <line x1="407.14" y1="430.00" x2="407.14" y2="50.00" stroke="#e2e8f0" stroke-width="0.5"  />
  <line x1="478.57" y1="430.00" x2="478.57" y2="50.00" stroke="#e2e8f0" stroke-width="0.5"  />
  <line x1="550.00" y1="430.00" x2="550.00" y2="50.00" stroke="#e2e8f0" stroke-width="0.5"  />
  <line x1="50.00" y1="430.00" x2="550.00" y2="430.00" stroke="#e2e8f0" stroke-width="0.5"  />
  <line x1="50.00" y1="303.33" x2="550.00" y2="303.33" stroke="#e2e8f0" stroke-width="0.5"  />
  <line x1="50.00" y1="240.00" x2="550.00" y2="240.00" stroke="#e2e8f0" stroke-width="0.5"  />
  <line x1="50.00" y1="176.67" x2="550.00" y2="176.67" stroke="#e2e8f0" stroke-width="0.5"  />
  <line x1="50.00" y1="113.33" x2="550.00" y2="113.33" stroke="#e2e8f0" stroke-width="0.5"  />
  <line x1="50.00" y1="50.00" x2="550.00" y2="50.00" stroke="#e2e8f0" stroke-width="0.5"  />
  <line x1="50.00" y1="366.67" x2="550.00" y2="366.67" stroke="#64748b" stroke-width="2"  marker-end="url(#arrow-64748b)"/>
  <line x1="121.43" y1="430.00" x2="121.43" y2="50.00" stroke="#64748b" stroke-width="2"  marker-end="url(#arrow-64748b)"/>
  <text x="545.00" y="386.67" font-family="Inter, sans-serif" font-size="14" font-weight="bold" fill="#64748b" text-anchor="middle" dominant-baseline="middle">x</text>
  <text x="101.43" y="60.00" font-family="Inter, sans-serif" font-size="14" font-weight="bold" fill="#64748b" text-anchor="middle" dominant-baseline="middle">y</text>
  <line x1="50.00" y1="361.67" x2="50.00" y2="371.67" stroke="#64748b" stroke-width="1"  />
  <text x="50.00" y="384.67" font-family="Inter, sans-serif" font-size="11" font-weight="normal" fill="#64748b" text-anchor="middle" dominant-baseline="middle">-1</text>
  <line x1="192.86" y1="361.67" x2="192.86" y2="371.67" stroke="#64748b" stroke-width="1"  />
  <text x="192.86" y="384.67" font-family="Inter, sans-serif" font-size="11" font-weight="normal" fill="#64748b" text-anchor="middle" dominant-baseline="middle">1</text>
  <line x1="264.29" y1="361.67" x2="264.29" y2="371.67" stroke="#64748b" stroke-width="1"  />
  <text x="264.29" y="384.67" font-family="Inter, sans-serif" font-size="11" font-weight="normal" fill="#64748b" text-anchor="middle" dominant-baseline="middle">2</text>
  <line x1="335.71" y1="361.67" x2="335.71" y2="371.67" stroke="#64748b" stroke-width="1"  />
  <text x="335.71" y="384.67" font-family="Inter, sans-serif" font-size="11" font-weight="normal" fill="#64748b" text-anchor="middle" dominant-baseline="middle">3</text>
  <line x1="407.14" y1="361.67" x2="407.14" y2="371.67" stroke="#64748b" stroke-width="1"  />
  <text x="407.14" y="384.67" font-family="Inter, sans-serif" font-size="11" font-weight="normal" fill="#64748b" text-anchor="middle" dominant-baseline="middle">4</text>
  <line x1="478.57" y1="361.67" x2="478.57" y2="371.67" stroke="#64748b" stroke-width="1"  />
  <text x="478.57" y="384.67" font-family="Inter, sans-serif" font-size="11" font-weight="normal" fill="#64748b" text-anchor="middle" dominant-baseline="middle">5</text>
  <line x1="550.00" y1="361.67" x2="550.00" y2="371.67" stroke="#64748b" stroke-width="1"  />
  <text x="550.00" y="384.67" font-family="Inter, sans-serif" font-size="11" font-weight="normal" fill="#64748b" text-anchor="middle" dominant-baseline="middle">6</text>
  <line x1="116.43" y1="430.00" x2="126.43" y2="430.00" stroke="#64748b" stroke-width="1"  />
  <text x="106.43" y="430.00" font-family="Inter, sans-serif" font-size="11" font-weight="normal" fill="#64748b" text-anchor="end" dominant-baseline="middle">-1</text>
  <line x1="116.43" y1="303.33" x2="126.43" y2="303.33" stroke="#64748b" stroke-width="1"  />
  <text x="106.43" y="303.33" font-family="Inter, sans-serif" font-size="11" font-weight="normal" fill="#64748b" text-anchor="end" dominant-baseline="middle">1</text>
  <line x1="116.43" y1="240.00" x2="126.43" y2="240.00" stroke="#64748b" stroke-width="1"  />
  <text x="106.43" y="240.00" font-family="Inter, sans-serif" font-size="11" font-weight="normal" fill="#64748b" text-anchor="end" dominant-baseline="middle">2</text>
  <line x1="116.43" y1="176.67" x2="126.43" y2="176.67" stroke="#64748b" stroke-width="1"  />
  <text x="106.43" y="176.67" font-family="Inter, sans-serif" font-size="11" font-weight="normal" fill="#64748b" text-anchor="end" dominant-baseline="middle">3</text>
  <line x1="116.43" y1="113.33" x2="126.43" y2="113.33" stroke="#64748b" stroke-width="1"  />
  <text x="106.43" y="113.33" font-family="Inter, sans-serif" font-size="11" font-weight="normal" fill="#64748b" text-anchor="end" dominant-baseline="middle">4</text>
  <line x1="116.43" y1="50.00" x2="126.43" y2="50.00" stroke="#64748b" stroke-width="1"  />
  <text x="106.43" y="50.00" font-family="Inter, sans-serif" font-size="11" font-weight="normal" fill="#64748b" text-anchor="end" dominant-baseline="middle">5</text>
  <text x="109.43" y="381.67" font-family="Inter, sans-serif" font-size="11" font-weight="normal" fill="#64748b" text-anchor="middle" dominant-baseline="middle">O</text>
  <line x1="121.43" y1="176.67" x2="407.14" y2="366.67" stroke="#3b82f6" stroke-width="2.5"  />
  <circle cx="407.14" cy="366.67" r="6" fill="#ef4444" />
  <circle cx="121.43" cy="176.67" r="6" fill="#22c55e" />
  <text x="407.14" y="386.67" font-family="Inter, sans-serif" font-size="12" font-weight="bold" fill="#ef4444" text-anchor="middle" dominant-baseline="middle">a = 4</text>
  <text x="136.43" y="176.67" font-family="Inter, sans-serif" font-size="12" font-weight="bold" fill="#22c55e" text-anchor="start" dominant-baseline="middle">b = 3</text>
  <rect x="189.70" y="433.60" width="220.60" height="32.80" fill="#fef3c7" stroke="#f97316" stroke-width="1" rx="6"/>
  <text x="300.00" y="450.00" font-family="Inter, sans-serif" font-size="12" font-weight="bold" fill="#1e293b" text-anchor="middle" dominant-baseline="middle">x/a + y/b = 1  →  x/4 + y/3 = 1</text>
</svg>