<svg xmlns="http://www.w3.org/2000/svg" viewBox="0 0 600 600">
  <defs>
        <marker id="arrow-64748b" markerWidth="10" markerHeight="10" 
                refX="8" refY="5.0" orient="auto">
            <polygon points="0,0 10,5.0 0,10" fill="#64748b"/>
        </marker></defs>
  <rect x="0.00" y="0.00" width="600.00" height="600.00" fill="#ffffff" stroke="none" stroke-width="0" rx="0"/>
  <text x="300.00" y="25.00" font-family="Inter, sans-serif" font-size="15" font-weight="bold" fill="#1e293b" text-anchor="middle" dominant-baseline="middle">Mediatrices y Circuncentro</text>
  <line x1="50.00" y1="550.00" x2="50.00" y2="50.00" stroke="#e2e8f0" stroke-width="0.5"  />
  <line x1="175.00" y1="550.00" x2="175.00" y2="50.00" stroke="#e2e8f0" stroke-width="0.5"  />
  <line x1="237.50" y1="550.00" x2="237.50" y2="50.00" stroke="#e2e8f0" stroke-width="0.5"  />
  <line x1="300.00" y1="550.00" x2="300.00" y2="50.00" stroke="#e2e8f0" stroke-width="0.5"  />
  <line x1="362.50" y1="550.00" x2="362.50" y2="50.00" stroke="#e2e8f0" stroke-width="0.5"  />
  <line x1="425.00" y1="550.00" x2="425.00" y2="50.00" stroke="#e2e8f0" stroke-width="0.5"  />
  <line x1="487.50" y1="550.00" x2="487.50" y2="50.00" stroke="#e2e8f0" stroke-width="0.5"  />
  <line x1="550.00" y1="550.00" x2="550.00" y2="50.00" stroke="#e2e8f0" stroke-width="0.5"  />
  <line x1="50.00" y1="518.75" x2="550.00" y2="518.75" stroke="#e2e8f0" stroke-width="0.5"  />
  <line x1="50.00" y1="393.75" x2="550.00" y2="393.75" stroke="#e2e8f0" stroke-width="0.5"  />
  <line x1="50.00" y1="331.25" x2="550.00" y2="331.25" stroke="#e2e8f0" stroke-width="0.5"  />
  <line x1="50.00" y1="268.75" x2="550.00" y2="268.75" stroke="#e2e8f0" stroke-width="0.5"  />
  <line x1="50.00" y1="206.25" x2="550.00" y2="206.25" stroke="#e2e8f0" stroke-width="0.5"  />
  <line x1="50.00" y1="143.75" x2="550.00" y2="143.75" stroke="#e2e8f0" stroke-width="0.5"  />
  <line x1="50.00" y1="81.25" x2="550.00" y2="81.25" stroke="#e2e8f0" stroke-width="0.5"  />
  <line x1="50.00" y1="456.25" x2="550.00" y2="456.25" stroke="#64748b" stroke-width="2"  marker-end="url(#arrow-64748b)"/>
  <line x1="112.50" y1="550.00" x2="112.50" y2="50.00" stroke="#64748b" stroke-width="2"  marker-end="url(#arrow-64748b)"/>
  <text x="545.00" y="476.25" font-family="Inter, sans-serif" font-size="14" font-weight="bold" fill="#64748b" text-anchor="middle" dominant-baseline="middle">x</text>
  <text x="92.50" y="60.00" font-family="Inter, sans-serif" font-size="14" font-weight="bold" fill="#64748b" text-anchor="middle" dominant-baseline="middle">y</text>
  <line x1="50.00" y1="451.25" x2="50.00" y2="461.25" stroke="#64748b" stroke-width="1"  />
  <text x="50.00" y="474.25" font-family="Inter, sans-serif" font-size="11" font-weight="normal" fill="#64748b" text-anchor="middle" dominant-baseline="middle">-1</text>
  <line x1="175.00" y1="451.25" x2="175.00" y2="461.25" stroke="#64748b" stroke-width="1"  />
  <text x="175.00" y="474.25" font-family="Inter, sans-serif" font-size="11" font-weight="normal" fill="#64748b" text-anchor="middle" dominant-baseline="middle">1</text>
  <line x1="237.50" y1="451.25" x2="237.50" y2="461.25" stroke="#64748b" stroke-width="1"  />
  <text x="237.50" y="474.25" font-family="Inter, sans-serif" font-size="11" font-weight="normal" fill="#64748b" text-anchor="middle" dominant-baseline="middle">2</text>
  <line x1="300.00" y1="451.25" x2="300.00" y2="461.25" stroke="#64748b" stroke-width="1"  />
  <text x="300.00" y="474.25" font-family="Inter, sans-serif" font-size="11" font-weight="normal" fill="#64748b" text-anchor="middle" dominant-baseline="middle">3</text>
  <line x1="362.50" y1="451.25" x2="362.50" y2="461.25" stroke="#64748b" stroke-width="1"  />
  <text x="362.50" y="474.25" font-family="Inter, sans-serif" font-size="11" font-weight="normal" fill="#64748b" text-anchor="middle" dominant-baseline="middle">4</text>
  <line x1="425.00" y1="451.25" x2="425.00" y2="461.25" stroke="#64748b" stroke-width="1"  />
  <text x="425.00" y="474.25" font-family="Inter, sans-serif" font-size="11" font-weight="normal" fill="#64748b" text-anchor="middle" dominant-baseline="middle">5</text>
  <line x1="487.50" y1="451.25" x2="487.50" y2="461.25" stroke="#64748b" stroke-width="1"  />
  <text x="487.50" y="474.25" font-family="Inter, sans-serif" font-size="11" font-weight="normal" fill="#64748b" text-anchor="middle" dominant-baseline="middle">6</text>
  <line x1="550.00" y1="451.25" x2="550.00" y2="461.25" stroke="#64748b" stroke-width="1"  />
  <text x="550.00" y="474.25" font-family="Inter, sans-serif" font-size="11" font-weight="normal" fill="#64748b" text-anchor="middle" dominant-baseline="middle">7</text>
  <line x1="107.50" y1="518.75" x2="117.50" y2="518.75" stroke="#64748b" stroke-width="1"  />
  <text x="97.50" y="518.75" font-family="Inter, sans-serif" font-size="11" font-weight="normal" fill="#64748b" text-anchor="end" dominant-baseline="middle">-1</text>
  <line x1="107.50" y1="393.75" x2="117.50" y2="393.75" stroke="#64748b" stroke-width="1"  />
  <text x="97.50" y="393.75" font-family="Inter, sans-serif" font-size="11" font-weight="normal" fill="#64748b" text-anchor="end" dominant-baseline="middle">1</text>
  <line x1="107.50" y1="331.25" x2="117.50" y2="331.25" stroke="#64748b" stroke-width="1"  />
  <text x="97.50" y="331.25" font-family="Inter, sans-serif" font-size="11" font-weight="normal" fill="#64748b" text-anchor="end" dominant-baseline="middle">2</text>
  <line x1="107.50" y1="268.75" x2="117.50" y2="268.75" stroke="#64748b" stroke-width="1"  />
  <text x="97.50" y="268.75" font-family="Inter, sans-serif" font-size="11" font-weight="normal" fill="#64748b" text-anchor="end" dominant-baseline="middle">3</text>
  <line x1="107.50" y1="206.25" x2="117.50" y2="206.25" stroke="#64748b" stroke-width="1"  />
  <text x="97.50" y="206.25" font-family="Inter, sans-serif" font-size="11" font-weight="normal" fill="#64748b" text-anchor="end" dominant-baseline="middle">4</text>
  <line x1="107.50" y1="143.75" x2="117.50" y2="143.75" stroke="#64748b" stroke-width="1"  />
  <text x="97.50" y="143.75" font-family="Inter, sans-serif" font-size="11" font-weight="normal" fill="#64748b" text-anchor="end" dominant-baseline="middle">5</text>
  <line x1="107.50" y1="81.25" x2="117.50" y2="81.25" stroke="#64748b" stroke-width="1"  />
  <text x="97.50" y="81.25" font-family="Inter, sans-serif" font-size="11" font-weight="normal" fill="#64748b" text-anchor="end" dominant-baseline="middle">6</text>
  <text x="100.50" y="471.25" font-family="Inter, sans-serif" font-size="11" font-weight="normal" fill="#64748b" text-anchor="middle" dominant-baseline="middle">O</text>
  <polygon points="175.00,393.75 487.50,393.75 300.00,143.75" fill="#dbeafe" stroke="#3b82f6" stroke-width="2"/>
  <circle cx="331.25" cy="315.62" r="174.69" fill="none" stroke="#a855f7" stroke-width="1.5"/>
  <line x1="331.25" y1="518.75" x2="331.25" y2="81.25" stroke="#ef4444" stroke-width="1.5"  />
  <line x1="143.75" y1="456.25" x2="550.00" y2="151.56" stroke="#22c55e" stroke-width="1.5"  />
  <line x1="50.00" y1="175.00" x2="550.00" y2="425.00" stroke="#3b82f6" stroke-width="1.5"  />
  <circle cx="331.25" cy="393.75" r="4" fill="#64748b" />
  <circle cx="393.75" cy="268.75" r="4" fill="#64748b" />
  <circle cx="237.50" cy="268.75" r="4" fill="#64748b" />
  <circle cx="331.25" cy="315.62" r="5" fill="#ef4444" />
  <text x="341.25" y="305.62" font-family="Inter, sans-serif" font-size="12" font-weight="bold" fill="#ef4444" text-anchor="start" dominant-baseline="middle">O(3.5, 2.2)</text>
  <circle cx="175.00" cy="393.75" r="5" fill="#3b82f6" />
  <text x="185.00" y="383.75" font-family="Inter, sans-serif" font-size="12" font-weight="bold" fill="#3b82f6" text-anchor="start" dominant-baseline="middle">A(1, 1)</text>
  <circle cx="487.50" cy="393.75" r="5" fill="#3b82f6" />
  <text x="497.50" y="383.75" font-family="Inter, sans-serif" font-size="12" font-weight="bold" fill="#3b82f6" text-anchor="start" dominant-baseline="middle">B(6, 1)</text>
  <circle cx="300.00" cy="143.75" r="5" fill="#3b82f6" />
  <text x="300.00" y="128.75" font-family="Inter, sans-serif" font-size="12" font-weight="bold" fill="#3b82f6" text-anchor="start" dominant-baseline="middle">C(3, 5)</text>
  <rect x="118.75" y="555.00" width="362.50" height="30.00" fill="#fef3c7" stroke="#f97316" stroke-width="1" rx="6"/>
  <text x="300.00" y="570.00" font-family="Inter, sans-serif" font-size="10" font-weight="bold" fill="#1e293b" text-anchor="middle" dominant-baseline="middle">Circunferencia circunscrita pasa por A, B, C | O = circuncentro</text>
</svg>