<svg xmlns="http://www.w3.org/2000/svg" viewBox="0 0 600 500">
  <defs>
        <marker id="arrow-64748b" markerWidth="10" markerHeight="10" 
                refX="8" refY="5.0" orient="auto">
            <polygon points="0,0 10,5.0 0,10" fill="#64748b"/>
        </marker></defs>
  <rect x="0.00" y="0.00" width="600.00" height="500.00" fill="#ffffff" stroke="none" stroke-width="0" rx="0"/>
  <text x="300.00" y="25.00" font-family="Inter, sans-serif" font-size="15" font-weight="bold" fill="#1e293b" text-anchor="middle" dominant-baseline="middle">Lugar Geométrico: Mediatriz</text>
  <line x1="50.00" y1="450.00" x2="50.00" y2="50.00" stroke="#e2e8f0" stroke-width="0.5"  />
  <line x1="175.00" y1="450.00" x2="175.00" y2="50.00" stroke="#e2e8f0" stroke-width="0.5"  />
  <line x1="237.50" y1="450.00" x2="237.50" y2="50.00" stroke="#e2e8f0" stroke-width="0.5"  />
  <line x1="300.00" y1="450.00" x2="300.00" y2="50.00" stroke="#e2e8f0" stroke-width="0.5"  />
  <line x1="362.50" y1="450.00" x2="362.50" y2="50.00" stroke="#e2e8f0" stroke-width="0.5"  />
  <line x1="425.00" y1="450.00" x2="425.00" y2="50.00" stroke="#e2e8f0" stroke-width="0.5"  />
  <line x1="487.50" y1="450.00" x2="487.50" y2="50.00" stroke="#e2e8f0" stroke-width="0.5"  />
  <line x1="550.00" y1="450.00" x2="550.00" y2="50.00" stroke="#e2e8f0" stroke-width="0.5"  />
  <line x1="50.00" y1="450.00" x2="550.00" y2="450.00" stroke="#e2e8f0" stroke-width="0.5"  />
  <line x1="50.00" y1="350.00" x2="550.00" y2="350.00" stroke="#e2e8f0" stroke-width="0.5"  />
  <line x1="50.00" y1="300.00" x2="550.00" y2="300.00" stroke="#e2e8f0" stroke-width="0.5"  />
  <line x1="50.00" y1="250.00" x2="550.00" y2="250.00" stroke="#e2e8f0" stroke-width="0.5"  />
  <line x1="50.00" y1="200.00" x2="550.00" y2="200.00" stroke="#e2e8f0" stroke-width="0.5"  />
  <line x1="50.00" y1="150.00" x2="550.00" y2="150.00" stroke="#e2e8f0" stroke-width="0.5"  />
  <line x1="50.00" y1="100.00" x2="550.00" y2="100.00" stroke="#e2e8f0" stroke-width="0.5"  />
  <line x1="50.00" y1="50.00" x2="550.00" y2="50.00" stroke="#e2e8f0" stroke-width="0.5"  />
  <line x1="50.00" y1="400.00" x2="550.00" y2="400.00" stroke="#64748b" stroke-width="2"  marker-end="url(#arrow-64748b)"/>
  <line x1="112.50" y1="450.00" x2="112.50" y2="50.00" stroke="#64748b" stroke-width="2"  marker-end="url(#arrow-64748b)"/>
  <text x="545.00" y="420.00" font-family="Inter, sans-serif" font-size="14" font-weight="bold" fill="#64748b" text-anchor="middle" dominant-baseline="middle">x</text>
  <text x="92.50" y="60.00" font-family="Inter, sans-serif" font-size="14" font-weight="bold" fill="#64748b" text-anchor="middle" dominant-baseline="middle">y</text>
  <line x1="50.00" y1="395.00" x2="50.00" y2="405.00" stroke="#64748b" stroke-width="1"  />
  <text x="50.00" y="418.00" font-family="Inter, sans-serif" font-size="11" font-weight="normal" fill="#64748b" text-anchor="middle" dominant-baseline="middle">-1</text>
  <line x1="175.00" y1="395.00" x2="175.00" y2="405.00" stroke="#64748b" stroke-width="1"  />
  <text x="175.00" y="418.00" font-family="Inter, sans-serif" font-size="11" font-weight="normal" fill="#64748b" text-anchor="middle" dominant-baseline="middle">1</text>
  <line x1="237.50" y1="395.00" x2="237.50" y2="405.00" stroke="#64748b" stroke-width="1"  />
  <text x="237.50" y="418.00" font-family="Inter, sans-serif" font-size="11" font-weight="normal" fill="#64748b" text-anchor="middle" dominant-baseline="middle">2</text>
  <line x1="300.00" y1="395.00" x2="300.00" y2="405.00" stroke="#64748b" stroke-width="1"  />
  <text x="300.00" y="418.00" font-family="Inter, sans-serif" font-size="11" font-weight="normal" fill="#64748b" text-anchor="middle" dominant-baseline="middle">3</text>
  <line x1="362.50" y1="395.00" x2="362.50" y2="405.00" stroke="#64748b" stroke-width="1"  />
  <text x="362.50" y="418.00" font-family="Inter, sans-serif" font-size="11" font-weight="normal" fill="#64748b" text-anchor="middle" dominant-baseline="middle">4</text>
  <line x1="425.00" y1="395.00" x2="425.00" y2="405.00" stroke="#64748b" stroke-width="1"  />
  <text x="425.00" y="418.00" font-family="Inter, sans-serif" font-size="11" font-weight="normal" fill="#64748b" text-anchor="middle" dominant-baseline="middle">5</text>
  <line x1="487.50" y1="395.00" x2="487.50" y2="405.00" stroke="#64748b" stroke-width="1"  />
  <text x="487.50" y="418.00" font-family="Inter, sans-serif" font-size="11" font-weight="normal" fill="#64748b" text-anchor="middle" dominant-baseline="middle">6</text>
  <line x1="550.00" y1="395.00" x2="550.00" y2="405.00" stroke="#64748b" stroke-width="1"  />
  <text x="550.00" y="418.00" font-family="Inter, sans-serif" font-size="11" font-weight="normal" fill="#64748b" text-anchor="middle" dominant-baseline="middle">7</text>
  <line x1="107.50" y1="450.00" x2="117.50" y2="450.00" stroke="#64748b" stroke-width="1"  />
  <text x="97.50" y="450.00" font-family="Inter, sans-serif" font-size="11" font-weight="normal" fill="#64748b" text-anchor="end" dominant-baseline="middle">-1</text>
  <line x1="107.50" y1="350.00" x2="117.50" y2="350.00" stroke="#64748b" stroke-width="1"  />
  <text x="97.50" y="350.00" font-family="Inter, sans-serif" font-size="11" font-weight="normal" fill="#64748b" text-anchor="end" dominant-baseline="middle">1</text>
  <line x1="107.50" y1="300.00" x2="117.50" y2="300.00" stroke="#64748b" stroke-width="1"  />
  <text x="97.50" y="300.00" font-family="Inter, sans-serif" font-size="11" font-weight="normal" fill="#64748b" text-anchor="end" dominant-baseline="middle">2</text>
  <line x1="107.50" y1="250.00" x2="117.50" y2="250.00" stroke="#64748b" stroke-width="1"  />
  <text x="97.50" y="250.00" font-family="Inter, sans-serif" font-size="11" font-weight="normal" fill="#64748b" text-anchor="end" dominant-baseline="middle">3</text>
  <line x1="107.50" y1="200.00" x2="117.50" y2="200.00" stroke="#64748b" stroke-width="1"  />
  <text x="97.50" y="200.00" font-family="Inter, sans-serif" font-size="11" font-weight="normal" fill="#64748b" text-anchor="end" dominant-baseline="middle">4</text>
  <line x1="107.50" y1="150.00" x2="117.50" y2="150.00" stroke="#64748b" stroke-width="1"  />
  <text x="97.50" y="150.00" font-family="Inter, sans-serif" font-size="11" font-weight="normal" fill="#64748b" text-anchor="end" dominant-baseline="middle">5</text>
  <line x1="107.50" y1="100.00" x2="117.50" y2="100.00" stroke="#64748b" stroke-width="1"  />
  <text x="97.50" y="100.00" font-family="Inter, sans-serif" font-size="11" font-weight="normal" fill="#64748b" text-anchor="end" dominant-baseline="middle">6</text>
  <line x1="107.50" y1="50.00" x2="117.50" y2="50.00" stroke="#64748b" stroke-width="1"  />
  <text x="97.50" y="50.00" font-family="Inter, sans-serif" font-size="11" font-weight="normal" fill="#64748b" text-anchor="end" dominant-baseline="middle">7</text>
  <text x="100.50" y="415.00" font-family="Inter, sans-serif" font-size="11" font-weight="normal" fill="#64748b" text-anchor="middle" dominant-baseline="middle">O</text>
  <line x1="175.00" y1="350.00" x2="425.00" y2="150.00" stroke="#94a3b8" stroke-width="2"  />
  <line x1="50.00" y1="50.00" x2="550.00" y2="450.00" stroke="#3b82f6" stroke-width="2.5"  />
  <circle cx="175.00" cy="350.00" r="5" fill="#ef4444" />
  <text x="185.00" y="340.00" font-family="Inter, sans-serif" font-size="12" font-weight="bold" fill="#ef4444" text-anchor="start" dominant-baseline="middle">A(1, 1)</text>
  <circle cx="425.00" cy="150.00" r="5" fill="#ef4444" />
  <text x="375.00" y="140.00" font-family="Inter, sans-serif" font-size="12" font-weight="bold" fill="#ef4444" text-anchor="start" dominant-baseline="middle">B(5, 5)</text>
  <circle cx="300.00" cy="250.00" r="5" fill="#ef4444" />
  <text x="310.00" y="240.00" font-family="Inter, sans-serif" font-size="12" font-weight="bold" fill="#ef4444" text-anchor="start" dominant-baseline="middle">M(3, 3)</text>
  <circle cx="175.00" cy="150.00" r="5" fill="#22c55e" />
  <text x="185.00" y="140.00" font-family="Inter, sans-serif" font-size="12" font-weight="bold" fill="#22c55e" text-anchor="start" dominant-baseline="middle">P(1, 5)</text>
  <line x1="175.00" y1="150.00" x2="175.00" y2="350.00" stroke="#22c55e" stroke-width="1.5" stroke-dasharray="5,5" />
  <line x1="175.00" y1="150.00" x2="425.00" y2="150.00" stroke="#22c55e" stroke-width="1.5" stroke-dasharray="5,5" />
  <rect x="183.10" y="453.60" width="233.80" height="32.80" fill="#fef3c7" stroke="#f97316" stroke-width="1" rx="6"/>
  <text x="300.00" y="470.00" font-family="Inter, sans-serif" font-size="12" font-weight="bold" fill="#1e293b" text-anchor="middle" dominant-baseline="middle">d(P,A) = d(P,B) → Mediatriz de AB</text>
</svg>