<svg xmlns="http://www.w3.org/2000/svg" viewBox="0 0 600 500">
  <defs>
        <marker id="arrow-64748b-10" markerWidth="10" markerHeight="10" 
                refX="9.0" refY="5.0" orient="auto"
                markerUnits="userSpaceOnUse">
            <polygon points="0,0 10,5.0 0,10" fill="#64748b"/>
        </marker>

        <marker id="arrow-64748b-10" markerWidth="10" markerHeight="10" 
                refX="9.0" refY="5.0" orient="auto"
                markerUnits="userSpaceOnUse">
            <polygon points="0,0 10,5.0 0,10" fill="#64748b"/>
        </marker>

        <marker id="arrow-3b82f6-12" markerWidth="12" markerHeight="12" 
                refX="10.8" refY="6.0" orient="auto"
                markerUnits="userSpaceOnUse">
            <polygon points="0,0 12,6.0 0,12" fill="#3b82f6"/>
        </marker></defs>
  <rect x="0.00" y="0.00" width="600.00" height="500.00" fill="#ffffff" stroke="none" stroke-width="0" rx="0"  />
  <text x="300.00" y="30.00" font-family="Inter, sans-serif" font-size="18" font-weight="bold" fill="#1e293b" text-anchor="middle" dominant-baseline="middle">Módulo de un Imaginario Puro</text>
  <line x1="70.00" y1="430.00" x2="70.00" y2="70.00" stroke="#e2e8f0" stroke-width="0.5"  />
  <line x1="185.00" y1="430.00" x2="185.00" y2="70.00" stroke="#e2e8f0" stroke-width="0.5"  />
  <line x1="415.00" y1="430.00" x2="415.00" y2="70.00" stroke="#e2e8f0" stroke-width="0.5"  />
  <line x1="530.00" y1="430.00" x2="530.00" y2="70.00" stroke="#e2e8f0" stroke-width="0.5"  />
  <line x1="70.00" y1="430.00" x2="530.00" y2="430.00" stroke="#e2e8f0" stroke-width="0.5"  />
  <line x1="70.00" y1="378.57" x2="530.00" y2="378.57" stroke="#e2e8f0" stroke-width="0.5"  />
  <line x1="70.00" y1="327.14" x2="530.00" y2="327.14" stroke="#e2e8f0" stroke-width="0.5"  />
  <line x1="70.00" y1="275.71" x2="530.00" y2="275.71" stroke="#e2e8f0" stroke-width="0.5"  />
  <line x1="70.00" y1="224.29" x2="530.00" y2="224.29" stroke="#e2e8f0" stroke-width="0.5"  />
  <line x1="70.00" y1="121.43" x2="530.00" y2="121.43" stroke="#e2e8f0" stroke-width="0.5"  />
  <line x1="70.00" y1="70.00" x2="530.00" y2="70.00" stroke="#e2e8f0" stroke-width="0.5"  />
  <line x1="70.00" y1="172.86" x2="530.00" y2="172.86" stroke="#64748b" stroke-width="2"  marker-end="url(#arrow-64748b-10)"/>
  <line x1="300.00" y1="430.00" x2="300.00" y2="70.00" stroke="#64748b" stroke-width="2"  marker-end="url(#arrow-64748b-10)"/>
  <text x="525.00" y="192.86" font-family="Inter, sans-serif" font-size="14" font-weight="bold" fill="#64748b" text-anchor="middle" dominant-baseline="middle">Re</text>
  <text x="280.00" y="80.00" font-family="Inter, sans-serif" font-size="14" font-weight="bold" fill="#64748b" text-anchor="middle" dominant-baseline="middle">Im</text>
  <line x1="70.00" y1="167.86" x2="70.00" y2="177.86" stroke="#64748b" stroke-width="1"  />
  <text x="70.00" y="190.86" font-family="Inter, sans-serif" font-size="11" font-weight="normal" fill="#64748b" text-anchor="middle" dominant-baseline="middle">-2</text>
  <line x1="185.00" y1="167.86" x2="185.00" y2="177.86" stroke="#64748b" stroke-width="1"  />
  <text x="185.00" y="190.86" font-family="Inter, sans-serif" font-size="11" font-weight="normal" fill="#64748b" text-anchor="middle" dominant-baseline="middle">-1</text>
  <line x1="415.00" y1="167.86" x2="415.00" y2="177.86" stroke="#64748b" stroke-width="1"  />
  <text x="415.00" y="190.86" font-family="Inter, sans-serif" font-size="11" font-weight="normal" fill="#64748b" text-anchor="middle" dominant-baseline="middle">1</text>
  <line x1="530.00" y1="167.86" x2="530.00" y2="177.86" stroke="#64748b" stroke-width="1"  />
  <text x="530.00" y="190.86" font-family="Inter, sans-serif" font-size="11" font-weight="normal" fill="#64748b" text-anchor="middle" dominant-baseline="middle">2</text>
  <line x1="295.00" y1="430.00" x2="305.00" y2="430.00" stroke="#64748b" stroke-width="1"  />
  <text x="285.00" y="430.00" font-family="Inter, sans-serif" font-size="11" font-weight="normal" fill="#64748b" text-anchor="end" dominant-baseline="middle">-5</text>
  <line x1="295.00" y1="378.57" x2="305.00" y2="378.57" stroke="#64748b" stroke-width="1"  />
  <text x="285.00" y="378.57" font-family="Inter, sans-serif" font-size="11" font-weight="normal" fill="#64748b" text-anchor="end" dominant-baseline="middle">-4</text>
  <line x1="295.00" y1="327.14" x2="305.00" y2="327.14" stroke="#64748b" stroke-width="1"  />
  <text x="285.00" y="327.14" font-family="Inter, sans-serif" font-size="11" font-weight="normal" fill="#64748b" text-anchor="end" dominant-baseline="middle">-3</text>
  <line x1="295.00" y1="275.71" x2="305.00" y2="275.71" stroke="#64748b" stroke-width="1"  />
  <text x="285.00" y="275.71" font-family="Inter, sans-serif" font-size="11" font-weight="normal" fill="#64748b" text-anchor="end" dominant-baseline="middle">-2</text>
  <line x1="295.00" y1="224.29" x2="305.00" y2="224.29" stroke="#64748b" stroke-width="1"  />
  <text x="285.00" y="224.29" font-family="Inter, sans-serif" font-size="11" font-weight="normal" fill="#64748b" text-anchor="end" dominant-baseline="middle">-1</text>
  <line x1="295.00" y1="121.43" x2="305.00" y2="121.43" stroke="#64748b" stroke-width="1"  />
  <text x="285.00" y="121.43" font-family="Inter, sans-serif" font-size="11" font-weight="normal" fill="#64748b" text-anchor="end" dominant-baseline="middle">1</text>
  <line x1="295.00" y1="70.00" x2="305.00" y2="70.00" stroke="#64748b" stroke-width="1"  />
  <text x="285.00" y="70.00" font-family="Inter, sans-serif" font-size="11" font-weight="normal" fill="#64748b" text-anchor="end" dominant-baseline="middle">2</text>
  <text x="288.00" y="187.86" font-family="Inter, sans-serif" font-size="11" font-weight="normal" fill="#64748b" text-anchor="middle" dominant-baseline="middle">O</text>
  <polygon points="300.00,172.86 300.00,172.86 300.00,327.14" fill="#dbeafe" stroke="none" stroke-width="2"/>
  <line x1="300.00" y1="172.86" x2="300.00" y2="172.86" stroke="#94a3b8" stroke-width="1.5" stroke-dasharray="5,5" />
  <line x1="300.00" y1="172.86" x2="300.00" y2="327.14" stroke="#94a3b8" stroke-width="1.5" stroke-dasharray="5,5" />
  <polyline points="300.00,172.86 300.00,184.86 300.00,184.86" fill="none" stroke="#94a3b8" stroke-width="1.5"/>
  <line x1="300.00" y1="172.86" x2="300.00" y2="327.14" stroke="#3b82f6" stroke-width="4"  marker-end="url(#arrow-3b82f6-12)"/>
  <text x="300.00" y="162.86" font-family="Inter, sans-serif" font-size="14" font-weight="bold" fill="#1e293b" text-anchor="middle" dominant-baseline="middle">a = 0</text>
  <text x="315.00" y="250.00" font-family="Inter, sans-serif" font-size="14" font-weight="bold" fill="#1e293b" text-anchor="start" dominant-baseline="middle">b = -3</text>
  <text x="280.00" y="230.00" font-family="Inter, sans-serif" font-size="16" font-weight="bold" fill="#3b82f6" text-anchor="middle" dominant-baseline="middle">|z|</text>
  <circle cx="300.00" cy="327.14" r="6" fill="#3b82f6" />
  <text x="310.00" y="317.14" font-family="Inter, sans-serif" font-size="12" font-weight="bold" fill="#3b82f6" text-anchor="start" dominant-baseline="middle">z = 0 - 3i(0, -3)</text>
  <rect x="203.45" y="442.20" width="193.10" height="35.60" fill="#fef3c7" stroke="#f97316" stroke-width="1" rx="6"  />
  <text x="300.00" y="460.00" font-family="Inter, sans-serif" font-size="14" font-weight="bold" fill="#1e293b" text-anchor="middle" dominant-baseline="middle">|z| = √(0² + (-3)²) = 3</text>
</svg>