<svg xmlns="http://www.w3.org/2000/svg" viewBox="0 0 600 500">
  <defs>
        <marker id="arrow-64748b-10" markerWidth="10" markerHeight="10" 
                refX="9.0" refY="5.0" orient="auto"
                markerUnits="userSpaceOnUse">
            <polygon points="0,0 10,5.0 0,10" fill="#64748b"/>
        </marker>

        <marker id="arrow-64748b-10" markerWidth="10" markerHeight="10" 
                refX="9.0" refY="5.0" orient="auto"
                markerUnits="userSpaceOnUse">
            <polygon points="0,0 10,5.0 0,10" fill="#64748b"/>
        </marker>

        <marker id="arrow-3b82f6-12" markerWidth="12" markerHeight="12" 
                refX="10.8" refY="6.0" orient="auto"
                markerUnits="userSpaceOnUse">
            <polygon points="0,0 12,6.0 0,12" fill="#3b82f6"/>
        </marker></defs>
  <rect x="0.00" y="0.00" width="600.00" height="500.00" fill="#ffffff" stroke="none" stroke-width="0" rx="0"  />
  <text x="300.00" y="30.00" font-family="Inter, sans-serif" font-size="18" font-weight="bold" fill="#1e293b" text-anchor="middle" dominant-baseline="middle">Módulo con Coordenadas Negativas</text>
  <line x1="70.00" y1="430.00" x2="70.00" y2="70.00" stroke="#e2e8f0" stroke-width="0.5"  />
  <line x1="121.11" y1="430.00" x2="121.11" y2="70.00" stroke="#e2e8f0" stroke-width="0.5"  />
  <line x1="223.33" y1="430.00" x2="223.33" y2="70.00" stroke="#e2e8f0" stroke-width="0.5"  />
  <line x1="274.44" y1="430.00" x2="274.44" y2="70.00" stroke="#e2e8f0" stroke-width="0.5"  />
  <line x1="325.56" y1="430.00" x2="325.56" y2="70.00" stroke="#e2e8f0" stroke-width="0.5"  />
  <line x1="376.67" y1="430.00" x2="376.67" y2="70.00" stroke="#e2e8f0" stroke-width="0.5"  />
  <line x1="427.78" y1="430.00" x2="427.78" y2="70.00" stroke="#e2e8f0" stroke-width="0.5"  />
  <line x1="478.89" y1="430.00" x2="478.89" y2="70.00" stroke="#e2e8f0" stroke-width="0.5"  />
  <line x1="530.00" y1="430.00" x2="530.00" y2="70.00" stroke="#e2e8f0" stroke-width="0.5"  />
  <line x1="70.00" y1="430.00" x2="530.00" y2="430.00" stroke="#e2e8f0" stroke-width="0.5"  />
  <line x1="70.00" y1="407.50" x2="530.00" y2="407.50" stroke="#e2e8f0" stroke-width="0.5"  />
  <line x1="70.00" y1="385.00" x2="530.00" y2="385.00" stroke="#e2e8f0" stroke-width="0.5"  />
  <line x1="70.00" y1="362.50" x2="530.00" y2="362.50" stroke="#e2e8f0" stroke-width="0.5"  />
  <line x1="70.00" y1="340.00" x2="530.00" y2="340.00" stroke="#e2e8f0" stroke-width="0.5"  />
  <line x1="70.00" y1="317.50" x2="530.00" y2="317.50" stroke="#e2e8f0" stroke-width="0.5"  />
  <line x1="70.00" y1="295.00" x2="530.00" y2="295.00" stroke="#e2e8f0" stroke-width="0.5"  />
  <line x1="70.00" y1="272.50" x2="530.00" y2="272.50" stroke="#e2e8f0" stroke-width="0.5"  />
  <line x1="70.00" y1="250.00" x2="530.00" y2="250.00" stroke="#e2e8f0" stroke-width="0.5"  />
  <line x1="70.00" y1="227.50" x2="530.00" y2="227.50" stroke="#e2e8f0" stroke-width="0.5"  />
  <line x1="70.00" y1="205.00" x2="530.00" y2="205.00" stroke="#e2e8f0" stroke-width="0.5"  />
  <line x1="70.00" y1="182.50" x2="530.00" y2="182.50" stroke="#e2e8f0" stroke-width="0.5"  />
  <line x1="70.00" y1="160.00" x2="530.00" y2="160.00" stroke="#e2e8f0" stroke-width="0.5"  />
  <line x1="70.00" y1="137.50" x2="530.00" y2="137.50" stroke="#e2e8f0" stroke-width="0.5"  />
  <line x1="70.00" y1="92.50" x2="530.00" y2="92.50" stroke="#e2e8f0" stroke-width="0.5"  />
  <line x1="70.00" y1="70.00" x2="530.00" y2="70.00" stroke="#e2e8f0" stroke-width="0.5"  />
  <line x1="70.00" y1="115.00" x2="530.00" y2="115.00" stroke="#64748b" stroke-width="2"  marker-end="url(#arrow-64748b-10)"/>
  <line x1="172.22" y1="430.00" x2="172.22" y2="70.00" stroke="#64748b" stroke-width="2"  marker-end="url(#arrow-64748b-10)"/>
  <text x="525.00" y="135.00" font-family="Inter, sans-serif" font-size="14" font-weight="bold" fill="#64748b" text-anchor="middle" dominant-baseline="middle">Re</text>
  <text x="152.22" y="80.00" font-family="Inter, sans-serif" font-size="14" font-weight="bold" fill="#64748b" text-anchor="middle" dominant-baseline="middle">Im</text>
  <line x1="70.00" y1="110.00" x2="70.00" y2="120.00" stroke="#64748b" stroke-width="1"  />
  <text x="70.00" y="133.00" font-family="Inter, sans-serif" font-size="11" font-weight="normal" fill="#64748b" text-anchor="middle" dominant-baseline="middle">-2</text>
  <line x1="121.11" y1="110.00" x2="121.11" y2="120.00" stroke="#64748b" stroke-width="1"  />
  <text x="121.11" y="133.00" font-family="Inter, sans-serif" font-size="11" font-weight="normal" fill="#64748b" text-anchor="middle" dominant-baseline="middle">-1</text>
  <line x1="223.33" y1="110.00" x2="223.33" y2="120.00" stroke="#64748b" stroke-width="1"  />
  <text x="223.33" y="133.00" font-family="Inter, sans-serif" font-size="11" font-weight="normal" fill="#64748b" text-anchor="middle" dominant-baseline="middle">1</text>
  <line x1="274.44" y1="110.00" x2="274.44" y2="120.00" stroke="#64748b" stroke-width="1"  />
  <text x="274.44" y="133.00" font-family="Inter, sans-serif" font-size="11" font-weight="normal" fill="#64748b" text-anchor="middle" dominant-baseline="middle">2</text>
  <line x1="325.56" y1="110.00" x2="325.56" y2="120.00" stroke="#64748b" stroke-width="1"  />
  <text x="325.56" y="133.00" font-family="Inter, sans-serif" font-size="11" font-weight="normal" fill="#64748b" text-anchor="middle" dominant-baseline="middle">3</text>
  <line x1="376.67" y1="110.00" x2="376.67" y2="120.00" stroke="#64748b" stroke-width="1"  />
  <text x="376.67" y="133.00" font-family="Inter, sans-serif" font-size="11" font-weight="normal" fill="#64748b" text-anchor="middle" dominant-baseline="middle">4</text>
  <line x1="427.78" y1="110.00" x2="427.78" y2="120.00" stroke="#64748b" stroke-width="1"  />
  <text x="427.78" y="133.00" font-family="Inter, sans-serif" font-size="11" font-weight="normal" fill="#64748b" text-anchor="middle" dominant-baseline="middle">5</text>
  <line x1="478.89" y1="110.00" x2="478.89" y2="120.00" stroke="#64748b" stroke-width="1"  />
  <text x="478.89" y="133.00" font-family="Inter, sans-serif" font-size="11" font-weight="normal" fill="#64748b" text-anchor="middle" dominant-baseline="middle">6</text>
  <line x1="530.00" y1="110.00" x2="530.00" y2="120.00" stroke="#64748b" stroke-width="1"  />
  <text x="530.00" y="133.00" font-family="Inter, sans-serif" font-size="11" font-weight="normal" fill="#64748b" text-anchor="middle" dominant-baseline="middle">7</text>
  <line x1="167.22" y1="430.00" x2="177.22" y2="430.00" stroke="#64748b" stroke-width="1"  />
  <text x="157.22" y="430.00" font-family="Inter, sans-serif" font-size="11" font-weight="normal" fill="#64748b" text-anchor="end" dominant-baseline="middle">-14</text>
  <line x1="167.22" y1="407.50" x2="177.22" y2="407.50" stroke="#64748b" stroke-width="1"  />
  <text x="157.22" y="407.50" font-family="Inter, sans-serif" font-size="11" font-weight="normal" fill="#64748b" text-anchor="end" dominant-baseline="middle">-13</text>
  <line x1="167.22" y1="385.00" x2="177.22" y2="385.00" stroke="#64748b" stroke-width="1"  />
  <text x="157.22" y="385.00" font-family="Inter, sans-serif" font-size="11" font-weight="normal" fill="#64748b" text-anchor="end" dominant-baseline="middle">-12</text>
  <line x1="167.22" y1="362.50" x2="177.22" y2="362.50" stroke="#64748b" stroke-width="1"  />
  <text x="157.22" y="362.50" font-family="Inter, sans-serif" font-size="11" font-weight="normal" fill="#64748b" text-anchor="end" dominant-baseline="middle">-11</text>
  <line x1="167.22" y1="340.00" x2="177.22" y2="340.00" stroke="#64748b" stroke-width="1"  />
  <text x="157.22" y="340.00" font-family="Inter, sans-serif" font-size="11" font-weight="normal" fill="#64748b" text-anchor="end" dominant-baseline="middle">-10</text>
  <line x1="167.22" y1="317.50" x2="177.22" y2="317.50" stroke="#64748b" stroke-width="1"  />
  <text x="157.22" y="317.50" font-family="Inter, sans-serif" font-size="11" font-weight="normal" fill="#64748b" text-anchor="end" dominant-baseline="middle">-9</text>
  <line x1="167.22" y1="295.00" x2="177.22" y2="295.00" stroke="#64748b" stroke-width="1"  />
  <text x="157.22" y="295.00" font-family="Inter, sans-serif" font-size="11" font-weight="normal" fill="#64748b" text-anchor="end" dominant-baseline="middle">-8</text>
  <line x1="167.22" y1="272.50" x2="177.22" y2="272.50" stroke="#64748b" stroke-width="1"  />
  <text x="157.22" y="272.50" font-family="Inter, sans-serif" font-size="11" font-weight="normal" fill="#64748b" text-anchor="end" dominant-baseline="middle">-7</text>
  <line x1="167.22" y1="250.00" x2="177.22" y2="250.00" stroke="#64748b" stroke-width="1"  />
  <text x="157.22" y="250.00" font-family="Inter, sans-serif" font-size="11" font-weight="normal" fill="#64748b" text-anchor="end" dominant-baseline="middle">-6</text>
  <line x1="167.22" y1="227.50" x2="177.22" y2="227.50" stroke="#64748b" stroke-width="1"  />
  <text x="157.22" y="227.50" font-family="Inter, sans-serif" font-size="11" font-weight="normal" fill="#64748b" text-anchor="end" dominant-baseline="middle">-5</text>
  <line x1="167.22" y1="205.00" x2="177.22" y2="205.00" stroke="#64748b" stroke-width="1"  />
  <text x="157.22" y="205.00" font-family="Inter, sans-serif" font-size="11" font-weight="normal" fill="#64748b" text-anchor="end" dominant-baseline="middle">-4</text>
  <line x1="167.22" y1="182.50" x2="177.22" y2="182.50" stroke="#64748b" stroke-width="1"  />
  <text x="157.22" y="182.50" font-family="Inter, sans-serif" font-size="11" font-weight="normal" fill="#64748b" text-anchor="end" dominant-baseline="middle">-3</text>
  <line x1="167.22" y1="160.00" x2="177.22" y2="160.00" stroke="#64748b" stroke-width="1"  />
  <text x="157.22" y="160.00" font-family="Inter, sans-serif" font-size="11" font-weight="normal" fill="#64748b" text-anchor="end" dominant-baseline="middle">-2</text>
  <line x1="167.22" y1="137.50" x2="177.22" y2="137.50" stroke="#64748b" stroke-width="1"  />
  <text x="157.22" y="137.50" font-family="Inter, sans-serif" font-size="11" font-weight="normal" fill="#64748b" text-anchor="end" dominant-baseline="middle">-1</text>
  <line x1="167.22" y1="92.50" x2="177.22" y2="92.50" stroke="#64748b" stroke-width="1"  />
  <text x="157.22" y="92.50" font-family="Inter, sans-serif" font-size="11" font-weight="normal" fill="#64748b" text-anchor="end" dominant-baseline="middle">1</text>
  <line x1="167.22" y1="70.00" x2="177.22" y2="70.00" stroke="#64748b" stroke-width="1"  />
  <text x="157.22" y="70.00" font-family="Inter, sans-serif" font-size="11" font-weight="normal" fill="#64748b" text-anchor="end" dominant-baseline="middle">2</text>
  <text x="160.22" y="130.00" font-family="Inter, sans-serif" font-size="11" font-weight="normal" fill="#64748b" text-anchor="middle" dominant-baseline="middle">O</text>
  <polygon points="172.22,115.00 427.78,115.00 427.78,385.00" fill="#dbeafe" stroke="none" stroke-width="2"/>
  <line x1="172.22" y1="115.00" x2="427.78" y2="115.00" stroke="#94a3b8" stroke-width="1.5" stroke-dasharray="5,5" />
  <line x1="427.78" y1="115.00" x2="427.78" y2="385.00" stroke="#94a3b8" stroke-width="1.5" stroke-dasharray="5,5" />
  <polyline points="415.78,115.00 415.78,127.00 427.78,127.00" fill="none" stroke="#94a3b8" stroke-width="1.5"/>
  <line x1="172.22" y1="115.00" x2="427.78" y2="385.00" stroke="#3b82f6" stroke-width="4"  marker-end="url(#arrow-3b82f6-12)"/>
  <text x="300.00" y="105.00" font-family="Inter, sans-serif" font-size="14" font-weight="bold" fill="#1e293b" text-anchor="middle" dominant-baseline="middle">a = 5</text>
  <text x="442.78" y="250.00" font-family="Inter, sans-serif" font-size="14" font-weight="bold" fill="#1e293b" text-anchor="start" dominant-baseline="middle">b = -12</text>
  <text x="280.00" y="230.00" font-family="Inter, sans-serif" font-size="16" font-weight="bold" fill="#3b82f6" text-anchor="middle" dominant-baseline="middle">|z|</text>
  <circle cx="427.78" cy="385.00" r="6" fill="#3b82f6" />
  <text x="437.78" y="375.00" font-family="Inter, sans-serif" font-size="12" font-weight="bold" fill="#3b82f6" text-anchor="start" dominant-baseline="middle">z = 5 - 12i(5, -12)</text>
  <rect x="195.75" y="442.20" width="208.50" height="35.60" fill="#fef3c7" stroke="#f97316" stroke-width="1" rx="6"  />
  <text x="300.00" y="460.00" font-family="Inter, sans-serif" font-size="14" font-weight="bold" fill="#1e293b" text-anchor="middle" dominant-baseline="middle">|z| = √(5² + (-12)²) = 13</text>
</svg>