<svg xmlns="http://www.w3.org/2000/svg" viewBox="0 0 600 500">
  <defs>
        <marker id="arrow-64748b-10" markerWidth="10" markerHeight="10" 
                refX="9.0" refY="5.0" orient="auto"
                markerUnits="userSpaceOnUse">
            <polygon points="0,0 10,5.0 0,10" fill="#64748b"/>
        </marker>

        <marker id="arrow-64748b-10" markerWidth="10" markerHeight="10" 
                refX="9.0" refY="5.0" orient="auto"
                markerUnits="userSpaceOnUse">
            <polygon points="0,0 10,5.0 0,10" fill="#64748b"/>
        </marker>

        <marker id="arrow-3b82f6-12" markerWidth="12" markerHeight="12" 
                refX="10.8" refY="6.0" orient="auto"
                markerUnits="userSpaceOnUse">
            <polygon points="0,0 12,6.0 0,12" fill="#3b82f6"/>
        </marker></defs>
  <rect x="0.00" y="0.00" width="600.00" height="500.00" fill="#ffffff" stroke="none" stroke-width="0" rx="0"  />
  <text x="300.00" y="30.00" font-family="Inter, sans-serif" font-size="18" font-weight="bold" fill="#1e293b" text-anchor="middle" dominant-baseline="middle">Módulo con Radicales</text>
  <line x1="70.00" y1="430.00" x2="70.00" y2="70.00" stroke="#e2e8f0" stroke-width="0.5"  />
  <line x1="162.00" y1="430.00" x2="162.00" y2="70.00" stroke="#e2e8f0" stroke-width="0.5"  />
  <line x1="346.00" y1="430.00" x2="346.00" y2="70.00" stroke="#e2e8f0" stroke-width="0.5"  />
  <line x1="438.00" y1="430.00" x2="438.00" y2="70.00" stroke="#e2e8f0" stroke-width="0.5"  />
  <line x1="530.00" y1="430.00" x2="530.00" y2="70.00" stroke="#e2e8f0" stroke-width="0.5"  />
  <line x1="70.00" y1="430.00" x2="530.00" y2="430.00" stroke="#e2e8f0" stroke-width="0.5"  />
  <line x1="70.00" y1="358.00" x2="530.00" y2="358.00" stroke="#e2e8f0" stroke-width="0.5"  />
  <line x1="70.00" y1="214.00" x2="530.00" y2="214.00" stroke="#e2e8f0" stroke-width="0.5"  />
  <line x1="70.00" y1="142.00" x2="530.00" y2="142.00" stroke="#e2e8f0" stroke-width="0.5"  />
  <line x1="70.00" y1="70.00" x2="530.00" y2="70.00" stroke="#e2e8f0" stroke-width="0.5"  />
  <line x1="70.00" y1="286.00" x2="530.00" y2="286.00" stroke="#64748b" stroke-width="2"  marker-end="url(#arrow-64748b-10)"/>
  <line x1="254.00" y1="430.00" x2="254.00" y2="70.00" stroke="#64748b" stroke-width="2"  marker-end="url(#arrow-64748b-10)"/>
  <text x="525.00" y="306.00" font-family="Inter, sans-serif" font-size="14" font-weight="bold" fill="#64748b" text-anchor="middle" dominant-baseline="middle">Re</text>
  <text x="234.00" y="80.00" font-family="Inter, sans-serif" font-size="14" font-weight="bold" fill="#64748b" text-anchor="middle" dominant-baseline="middle">Im</text>
  <line x1="70.00" y1="281.00" x2="70.00" y2="291.00" stroke="#64748b" stroke-width="1"  />
  <text x="70.00" y="304.00" font-family="Inter, sans-serif" font-size="11" font-weight="normal" fill="#64748b" text-anchor="middle" dominant-baseline="middle">-2</text>
  <line x1="162.00" y1="281.00" x2="162.00" y2="291.00" stroke="#64748b" stroke-width="1"  />
  <text x="162.00" y="304.00" font-family="Inter, sans-serif" font-size="11" font-weight="normal" fill="#64748b" text-anchor="middle" dominant-baseline="middle">-1</text>
  <line x1="346.00" y1="281.00" x2="346.00" y2="291.00" stroke="#64748b" stroke-width="1"  />
  <text x="346.00" y="304.00" font-family="Inter, sans-serif" font-size="11" font-weight="normal" fill="#64748b" text-anchor="middle" dominant-baseline="middle">1</text>
  <line x1="438.00" y1="281.00" x2="438.00" y2="291.00" stroke="#64748b" stroke-width="1"  />
  <text x="438.00" y="304.00" font-family="Inter, sans-serif" font-size="11" font-weight="normal" fill="#64748b" text-anchor="middle" dominant-baseline="middle">2</text>
  <line x1="530.00" y1="281.00" x2="530.00" y2="291.00" stroke="#64748b" stroke-width="1"  />
  <text x="530.00" y="304.00" font-family="Inter, sans-serif" font-size="11" font-weight="normal" fill="#64748b" text-anchor="middle" dominant-baseline="middle">3</text>
  <line x1="249.00" y1="430.00" x2="259.00" y2="430.00" stroke="#64748b" stroke-width="1"  />
  <text x="239.00" y="430.00" font-family="Inter, sans-serif" font-size="11" font-weight="normal" fill="#64748b" text-anchor="end" dominant-baseline="middle">-2</text>
  <line x1="249.00" y1="358.00" x2="259.00" y2="358.00" stroke="#64748b" stroke-width="1"  />
  <text x="239.00" y="358.00" font-family="Inter, sans-serif" font-size="11" font-weight="normal" fill="#64748b" text-anchor="end" dominant-baseline="middle">-1</text>
  <line x1="249.00" y1="214.00" x2="259.00" y2="214.00" stroke="#64748b" stroke-width="1"  />
  <text x="239.00" y="214.00" font-family="Inter, sans-serif" font-size="11" font-weight="normal" fill="#64748b" text-anchor="end" dominant-baseline="middle">1</text>
  <line x1="249.00" y1="142.00" x2="259.00" y2="142.00" stroke="#64748b" stroke-width="1"  />
  <text x="239.00" y="142.00" font-family="Inter, sans-serif" font-size="11" font-weight="normal" fill="#64748b" text-anchor="end" dominant-baseline="middle">2</text>
  <line x1="249.00" y1="70.00" x2="259.00" y2="70.00" stroke="#64748b" stroke-width="1"  />
  <text x="239.00" y="70.00" font-family="Inter, sans-serif" font-size="11" font-weight="normal" fill="#64748b" text-anchor="end" dominant-baseline="middle">3</text>
  <text x="242.00" y="301.00" font-family="Inter, sans-serif" font-size="11" font-weight="normal" fill="#64748b" text-anchor="middle" dominant-baseline="middle">O</text>
  <polygon points="254.00,286.00 346.00,286.00 346.00,214.00" fill="#dbeafe" stroke="none" stroke-width="2"/>
  <line x1="254.00" y1="286.00" x2="346.00" y2="286.00" stroke="#94a3b8" stroke-width="1.5" stroke-dasharray="5,5" />
  <line x1="346.00" y1="286.00" x2="346.00" y2="214.00" stroke="#94a3b8" stroke-width="1.5" stroke-dasharray="5,5" />
  <polyline points="334.00,286.00 334.00,274.00 346.00,274.00" fill="none" stroke="#94a3b8" stroke-width="1.5"/>
  <line x1="254.00" y1="286.00" x2="346.00" y2="214.00" stroke="#3b82f6" stroke-width="4"  marker-end="url(#arrow-3b82f6-12)"/>
  <text x="300.00" y="306.00" font-family="Inter, sans-serif" font-size="14" font-weight="bold" fill="#1e293b" text-anchor="middle" dominant-baseline="middle">a = 1</text>
  <text x="361.00" y="250.00" font-family="Inter, sans-serif" font-size="14" font-weight="bold" fill="#1e293b" text-anchor="start" dominant-baseline="middle">b = 1</text>
  <text x="280.00" y="230.00" font-family="Inter, sans-serif" font-size="16" font-weight="bold" fill="#3b82f6" text-anchor="middle" dominant-baseline="middle">|z|</text>
  <circle cx="346.00" cy="214.00" r="6" fill="#3b82f6" />
  <text x="356.00" y="204.00" font-family="Inter, sans-serif" font-size="12" font-weight="bold" fill="#3b82f6" text-anchor="start" dominant-baseline="middle">z = 1 + 1i(1, 1)</text>
  <rect x="203.45" y="442.20" width="193.10" height="35.60" fill="#fef3c7" stroke="#f97316" stroke-width="1" rx="6"  />
  <text x="300.00" y="460.00" font-family="Inter, sans-serif" font-size="14" font-weight="bold" fill="#1e293b" text-anchor="middle" dominant-baseline="middle">|z| = √(1² + (1)²) = √2</text>
</svg>