<svg xmlns="http://www.w3.org/2000/svg" viewBox="0 0 600 600">
  <defs>
        <marker id="arrow-64748b" markerWidth="10" markerHeight="10" 
                refX="8" refY="5.0" orient="auto">
            <polygon points="0,0 10,5.0 0,10" fill="#64748b"/>
        </marker></defs>
  <rect x="0.00" y="0.00" width="600.00" height="600.00" fill="#ffffff" stroke="none" stroke-width="0" rx="0"/>
  <text x="300.00" y="25.00" font-family="Inter, sans-serif" font-size="15" font-weight="bold" fill="#1e293b" text-anchor="middle" dominant-baseline="middle">Parábola Vertical (Abre Arriba)</text>
  <line x1="50.00" y1="550.00" x2="50.00" y2="50.00" stroke="#e2e8f0" stroke-width="0.5"  />
  <line x1="100.00" y1="550.00" x2="100.00" y2="50.00" stroke="#e2e8f0" stroke-width="0.5"  />
  <line x1="150.00" y1="550.00" x2="150.00" y2="50.00" stroke="#e2e8f0" stroke-width="0.5"  />
  <line x1="200.00" y1="550.00" x2="200.00" y2="50.00" stroke="#e2e8f0" stroke-width="0.5"  />
  <line x1="250.00" y1="550.00" x2="250.00" y2="50.00" stroke="#e2e8f0" stroke-width="0.5"  />
  <line x1="350.00" y1="550.00" x2="350.00" y2="50.00" stroke="#e2e8f0" stroke-width="0.5"  />
  <line x1="400.00" y1="550.00" x2="400.00" y2="50.00" stroke="#e2e8f0" stroke-width="0.5"  />
  <line x1="450.00" y1="550.00" x2="450.00" y2="50.00" stroke="#e2e8f0" stroke-width="0.5"  />
  <line x1="500.00" y1="550.00" x2="500.00" y2="50.00" stroke="#e2e8f0" stroke-width="0.5"  />
  <line x1="550.00" y1="550.00" x2="550.00" y2="50.00" stroke="#e2e8f0" stroke-width="0.5"  />
  <line x1="50.00" y1="550.00" x2="550.00" y2="550.00" stroke="#e2e8f0" stroke-width="0.5"  />
  <line x1="50.00" y1="494.44" x2="550.00" y2="494.44" stroke="#e2e8f0" stroke-width="0.5"  />
  <line x1="50.00" y1="383.33" x2="550.00" y2="383.33" stroke="#e2e8f0" stroke-width="0.5"  />
  <line x1="50.00" y1="327.78" x2="550.00" y2="327.78" stroke="#e2e8f0" stroke-width="0.5"  />
  <line x1="50.00" y1="272.22" x2="550.00" y2="272.22" stroke="#e2e8f0" stroke-width="0.5"  />
  <line x1="50.00" y1="216.67" x2="550.00" y2="216.67" stroke="#e2e8f0" stroke-width="0.5"  />
  <line x1="50.00" y1="161.11" x2="550.00" y2="161.11" stroke="#e2e8f0" stroke-width="0.5"  />
  <line x1="50.00" y1="105.56" x2="550.00" y2="105.56" stroke="#e2e8f0" stroke-width="0.5"  />
  <line x1="50.00" y1="50.00" x2="550.00" y2="50.00" stroke="#e2e8f0" stroke-width="0.5"  />
  <line x1="50.00" y1="438.89" x2="550.00" y2="438.89" stroke="#64748b" stroke-width="2"  marker-end="url(#arrow-64748b)"/>
  <line x1="300.00" y1="550.00" x2="300.00" y2="50.00" stroke="#64748b" stroke-width="2"  marker-end="url(#arrow-64748b)"/>
  <text x="545.00" y="458.89" font-family="Inter, sans-serif" font-size="14" font-weight="bold" fill="#64748b" text-anchor="middle" dominant-baseline="middle">x</text>
  <text x="280.00" y="60.00" font-family="Inter, sans-serif" font-size="14" font-weight="bold" fill="#64748b" text-anchor="middle" dominant-baseline="middle">y</text>
  <line x1="50.00" y1="433.89" x2="50.00" y2="443.89" stroke="#64748b" stroke-width="1"  />
  <text x="50.00" y="456.89" font-family="Inter, sans-serif" font-size="11" font-weight="normal" fill="#64748b" text-anchor="middle" dominant-baseline="middle">-10</text>
  <line x1="100.00" y1="433.89" x2="100.00" y2="443.89" stroke="#64748b" stroke-width="1"  />
  <text x="100.00" y="456.89" font-family="Inter, sans-serif" font-size="11" font-weight="normal" fill="#64748b" text-anchor="middle" dominant-baseline="middle">-8</text>
  <line x1="150.00" y1="433.89" x2="150.00" y2="443.89" stroke="#64748b" stroke-width="1"  />
  <text x="150.00" y="456.89" font-family="Inter, sans-serif" font-size="11" font-weight="normal" fill="#64748b" text-anchor="middle" dominant-baseline="middle">-6</text>
  <line x1="200.00" y1="433.89" x2="200.00" y2="443.89" stroke="#64748b" stroke-width="1"  />
  <text x="200.00" y="456.89" font-family="Inter, sans-serif" font-size="11" font-weight="normal" fill="#64748b" text-anchor="middle" dominant-baseline="middle">-4</text>
  <line x1="250.00" y1="433.89" x2="250.00" y2="443.89" stroke="#64748b" stroke-width="1"  />
  <text x="250.00" y="456.89" font-family="Inter, sans-serif" font-size="11" font-weight="normal" fill="#64748b" text-anchor="middle" dominant-baseline="middle">-2</text>
  <line x1="350.00" y1="433.89" x2="350.00" y2="443.89" stroke="#64748b" stroke-width="1"  />
  <text x="350.00" y="456.89" font-family="Inter, sans-serif" font-size="11" font-weight="normal" fill="#64748b" text-anchor="middle" dominant-baseline="middle">2</text>
  <line x1="400.00" y1="433.89" x2="400.00" y2="443.89" stroke="#64748b" stroke-width="1"  />
  <text x="400.00" y="456.89" font-family="Inter, sans-serif" font-size="11" font-weight="normal" fill="#64748b" text-anchor="middle" dominant-baseline="middle">4</text>
  <line x1="450.00" y1="433.89" x2="450.00" y2="443.89" stroke="#64748b" stroke-width="1"  />
  <text x="450.00" y="456.89" font-family="Inter, sans-serif" font-size="11" font-weight="normal" fill="#64748b" text-anchor="middle" dominant-baseline="middle">6</text>
  <line x1="500.00" y1="433.89" x2="500.00" y2="443.89" stroke="#64748b" stroke-width="1"  />
  <text x="500.00" y="456.89" font-family="Inter, sans-serif" font-size="11" font-weight="normal" fill="#64748b" text-anchor="middle" dominant-baseline="middle">8</text>
  <line x1="550.00" y1="433.89" x2="550.00" y2="443.89" stroke="#64748b" stroke-width="1"  />
  <text x="550.00" y="456.89" font-family="Inter, sans-serif" font-size="11" font-weight="normal" fill="#64748b" text-anchor="middle" dominant-baseline="middle">10</text>
  <line x1="295.00" y1="550.00" x2="305.00" y2="550.00" stroke="#64748b" stroke-width="1"  />
  <text x="285.00" y="550.00" font-family="Inter, sans-serif" font-size="11" font-weight="normal" fill="#64748b" text-anchor="end" dominant-baseline="middle">-4</text>
  <line x1="295.00" y1="494.44" x2="305.00" y2="494.44" stroke="#64748b" stroke-width="1"  />
  <text x="285.00" y="494.44" font-family="Inter, sans-serif" font-size="11" font-weight="normal" fill="#64748b" text-anchor="end" dominant-baseline="middle">-2</text>
  <line x1="295.00" y1="383.33" x2="305.00" y2="383.33" stroke="#64748b" stroke-width="1"  />
  <text x="285.00" y="383.33" font-family="Inter, sans-serif" font-size="11" font-weight="normal" fill="#64748b" text-anchor="end" dominant-baseline="middle">2</text>
  <line x1="295.00" y1="327.78" x2="305.00" y2="327.78" stroke="#64748b" stroke-width="1"  />
  <text x="285.00" y="327.78" font-family="Inter, sans-serif" font-size="11" font-weight="normal" fill="#64748b" text-anchor="end" dominant-baseline="middle">4</text>
  <line x1="295.00" y1="272.22" x2="305.00" y2="272.22" stroke="#64748b" stroke-width="1"  />
  <text x="285.00" y="272.22" font-family="Inter, sans-serif" font-size="11" font-weight="normal" fill="#64748b" text-anchor="end" dominant-baseline="middle">6</text>
  <line x1="295.00" y1="216.67" x2="305.00" y2="216.67" stroke="#64748b" stroke-width="1"  />
  <text x="285.00" y="216.67" font-family="Inter, sans-serif" font-size="11" font-weight="normal" fill="#64748b" text-anchor="end" dominant-baseline="middle">8</text>
  <line x1="295.00" y1="161.11" x2="305.00" y2="161.11" stroke="#64748b" stroke-width="1"  />
  <text x="285.00" y="161.11" font-family="Inter, sans-serif" font-size="11" font-weight="normal" fill="#64748b" text-anchor="end" dominant-baseline="middle">10</text>
  <line x1="295.00" y1="105.56" x2="305.00" y2="105.56" stroke="#64748b" stroke-width="1"  />
  <text x="285.00" y="105.56" font-family="Inter, sans-serif" font-size="11" font-weight="normal" fill="#64748b" text-anchor="end" dominant-baseline="middle">12</text>
  <line x1="295.00" y1="50.00" x2="305.00" y2="50.00" stroke="#64748b" stroke-width="1"  />
  <text x="285.00" y="50.00" font-family="Inter, sans-serif" font-size="11" font-weight="normal" fill="#64748b" text-anchor="end" dominant-baseline="middle">14</text>
  <text x="288.00" y="453.89" font-family="Inter, sans-serif" font-size="11" font-weight="normal" fill="#64748b" text-anchor="middle" dominant-baseline="middle">O</text>
  <polyline points="75.00,251.39 77.50,255.53 80.00,259.63 82.50,263.68 85.00,267.69 87.50,271.64 90.00,275.56 92.50,279.42 95.00,283.24 97.50,287.01 100.00,290.74 102.50,294.42 105.00,298.06 107.50,301.64 110.00,305.19 112.50,308.68 115.00,312.13 117.50,315.53 120.00,318.89 122.50,322.20 125.00,325.46 127.50,328.68 130.00,331.85 132.50,334.98 135.00,338.06 137.50,341.09 140.00,344.07 142.50,347.01 145.00,349.91 147.50,352.75 150.00,355.56 152.50,358.31 155.00,361.02 157.50,363.68 160.00,366.30 162.50,368.87 165.00,371.39 167.50,373.87 170.00,376.30 172.50,378.68 175.00,381.02 177.50,383.31 180.00,385.56 182.50,387.75 185.00,389.91 187.50,392.01 190.00,394.07 192.50,396.09 195.00,398.06 197.50,399.98 200.00,401.85 202.50,403.68 205.00,405.46 207.50,407.20 210.00,408.89 212.50,410.53 215.00,412.13 217.50,413.68 220.00,415.19 222.50,416.64 225.00,418.06 227.50,419.42 230.00,420.74 232.50,422.01 235.00,423.24 237.50,424.42 240.00,425.56 242.50,426.64 245.00,427.69 247.50,428.68 250.00,429.63 252.50,430.53 255.00,431.39 257.50,432.20 260.00,432.96 262.50,433.68 265.00,434.35 267.50,434.98 270.00,435.56 272.50,436.09 275.00,436.57 277.50,437.01 280.00,437.41 282.50,437.75 285.00,438.06 287.50,438.31 290.00,438.52 292.50,438.68 295.00,438.80 297.50,438.87 300.00,438.89 302.50,438.87 305.00,438.80 307.50,438.68 310.00,438.52 312.50,438.31 315.00,438.06 317.50,437.75 320.00,437.41 322.50,437.01 325.00,436.57 327.50,436.09 330.00,435.56 332.50,434.98 335.00,434.35 337.50,433.68 340.00,432.96 342.50,432.20 345.00,431.39 347.50,430.53 350.00,429.63 352.50,428.68 355.00,427.69 357.50,426.64 360.00,425.56 362.50,424.42 365.00,423.24 367.50,422.01 370.00,420.74 372.50,419.42 375.00,418.06 377.50,416.64 380.00,415.19 382.50,413.68 385.00,412.13 387.50,410.53 390.00,408.89 392.50,407.20 395.00,405.46 397.50,403.68 400.00,401.85 402.50,399.98 405.00,398.06 407.50,396.09 410.00,394.07 412.50,392.01 415.00,389.91 417.50,387.75 420.00,385.56 422.50,383.31 425.00,381.02 427.50,378.68 430.00,376.30 432.50,373.87 435.00,371.39 437.50,368.87 440.00,366.30 442.50,363.68 445.00,361.02 447.50,358.31 450.00,355.56 452.50,352.75 455.00,349.91 457.50,347.01 460.00,344.07 462.50,341.09 465.00,338.06 467.50,334.98 470.00,331.85 472.50,328.68 475.00,325.46 477.50,322.20 480.00,318.89 482.50,315.53 485.00,312.13 487.50,308.68 490.00,305.19 492.50,301.64 495.00,298.06 497.50,294.42 500.00,290.74 502.50,287.01 505.00,283.24 507.50,279.42 510.00,275.56 512.50,271.64 515.00,267.69 517.50,263.68 520.00,259.63 522.50,255.53 525.00,251.39" fill="none" stroke="#3b82f6" stroke-width="2.5"/>
  <circle cx="300.00" cy="438.89" r="5" fill="#ef4444" />
  <text x="310.00" y="428.89" font-family="Inter, sans-serif" font-size="12" font-weight="bold" fill="#ef4444" text-anchor="start" dominant-baseline="middle">V(0, 0)</text>
  <circle cx="300.00" cy="355.56" r="5" fill="#ef4444" />
  <text x="310.00" y="355.56" font-family="Inter, sans-serif" font-size="12" font-weight="bold" fill="#ef4444" text-anchor="start" dominant-baseline="middle">F(0, 3)</text>
  <line x1="75.00" y1="522.22" x2="525.00" y2="522.22" stroke="#22c55e" stroke-width="2"  />
  <text x="450.00" y="537.22" font-family="Inter, sans-serif" font-size="10" font-weight="normal" fill="#22c55e" text-anchor="middle" dominant-baseline="middle">y = -3</text>
  <line x1="150.00" y1="355.56" x2="450.00" y2="355.56" stroke="#8b5cf6" stroke-width="1.5"  />
  <rect x="183.10" y="554.30" width="233.80" height="31.40" fill="#fef3c7" stroke="#f97316" stroke-width="1" rx="6"/>
  <text x="300.00" y="570.00" font-family="Inter, sans-serif" font-size="11" font-weight="bold" fill="#1e293b" text-anchor="middle" dominant-baseline="middle">x² = 12y | p = 3 | Abre hacia arriba</text>
</svg>