<svg xmlns="http://www.w3.org/2000/svg" viewBox="0 0 600 480">
  <defs>
        <marker id="arrow-64748b" markerWidth="10" markerHeight="10" 
                refX="8" refY="5.0" orient="auto">
            <polygon points="0,0 10,5.0 0,10" fill="#64748b"/>
        </marker></defs>
  <rect x="0.00" y="0.00" width="600.00" height="480.00" fill="#ffffff" stroke="none" stroke-width="0" rx="0"/>
  <text x="300.00" y="25.00" font-family="Inter, sans-serif" font-size="14" font-weight="bold" fill="#1e293b" text-anchor="middle" dominant-baseline="middle">Paralela y Perpendicular por un Punto</text>
  <line x1="50.00" y1="430.00" x2="50.00" y2="50.00" stroke="#e2e8f0" stroke-width="0.5"  />
  <line x1="105.56" y1="430.00" x2="105.56" y2="50.00" stroke="#e2e8f0" stroke-width="0.5"  />
  <line x1="216.67" y1="430.00" x2="216.67" y2="50.00" stroke="#e2e8f0" stroke-width="0.5"  />
  <line x1="272.22" y1="430.00" x2="272.22" y2="50.00" stroke="#e2e8f0" stroke-width="0.5"  />
  <line x1="327.78" y1="430.00" x2="327.78" y2="50.00" stroke="#e2e8f0" stroke-width="0.5"  />
  <line x1="383.33" y1="430.00" x2="383.33" y2="50.00" stroke="#e2e8f0" stroke-width="0.5"  />
  <line x1="438.89" y1="430.00" x2="438.89" y2="50.00" stroke="#e2e8f0" stroke-width="0.5"  />
  <line x1="494.44" y1="430.00" x2="494.44" y2="50.00" stroke="#e2e8f0" stroke-width="0.5"  />
  <line x1="550.00" y1="430.00" x2="550.00" y2="50.00" stroke="#e2e8f0" stroke-width="0.5"  />
  <line x1="50.00" y1="430.00" x2="550.00" y2="430.00" stroke="#e2e8f0" stroke-width="0.5"  />
  <line x1="50.00" y1="382.50" x2="550.00" y2="382.50" stroke="#e2e8f0" stroke-width="0.5"  />
  <line x1="50.00" y1="287.50" x2="550.00" y2="287.50" stroke="#e2e8f0" stroke-width="0.5"  />
  <line x1="50.00" y1="240.00" x2="550.00" y2="240.00" stroke="#e2e8f0" stroke-width="0.5"  />
  <line x1="50.00" y1="192.50" x2="550.00" y2="192.50" stroke="#e2e8f0" stroke-width="0.5"  />
  <line x1="50.00" y1="145.00" x2="550.00" y2="145.00" stroke="#e2e8f0" stroke-width="0.5"  />
  <line x1="50.00" y1="97.50" x2="550.00" y2="97.50" stroke="#e2e8f0" stroke-width="0.5"  />
  <line x1="50.00" y1="50.00" x2="550.00" y2="50.00" stroke="#e2e8f0" stroke-width="0.5"  />
  <line x1="50.00" y1="335.00" x2="550.00" y2="335.00" stroke="#64748b" stroke-width="2"  marker-end="url(#arrow-64748b)"/>
  <line x1="161.11" y1="430.00" x2="161.11" y2="50.00" stroke="#64748b" stroke-width="2"  marker-end="url(#arrow-64748b)"/>
  <text x="545.00" y="355.00" font-family="Inter, sans-serif" font-size="14" font-weight="bold" fill="#64748b" text-anchor="middle" dominant-baseline="middle">x</text>
  <text x="141.11" y="60.00" font-family="Inter, sans-serif" font-size="14" font-weight="bold" fill="#64748b" text-anchor="middle" dominant-baseline="middle">y</text>
  <line x1="50.00" y1="330.00" x2="50.00" y2="340.00" stroke="#64748b" stroke-width="1"  />
  <text x="50.00" y="353.00" font-family="Inter, sans-serif" font-size="11" font-weight="normal" fill="#64748b" text-anchor="middle" dominant-baseline="middle">-2</text>
  <line x1="105.56" y1="330.00" x2="105.56" y2="340.00" stroke="#64748b" stroke-width="1"  />
  <text x="105.56" y="353.00" font-family="Inter, sans-serif" font-size="11" font-weight="normal" fill="#64748b" text-anchor="middle" dominant-baseline="middle">-1</text>
  <line x1="216.67" y1="330.00" x2="216.67" y2="340.00" stroke="#64748b" stroke-width="1"  />
  <text x="216.67" y="353.00" font-family="Inter, sans-serif" font-size="11" font-weight="normal" fill="#64748b" text-anchor="middle" dominant-baseline="middle">1</text>
  <line x1="272.22" y1="330.00" x2="272.22" y2="340.00" stroke="#64748b" stroke-width="1"  />
  <text x="272.22" y="353.00" font-family="Inter, sans-serif" font-size="11" font-weight="normal" fill="#64748b" text-anchor="middle" dominant-baseline="middle">2</text>
  <line x1="327.78" y1="330.00" x2="327.78" y2="340.00" stroke="#64748b" stroke-width="1"  />
  <text x="327.78" y="353.00" font-family="Inter, sans-serif" font-size="11" font-weight="normal" fill="#64748b" text-anchor="middle" dominant-baseline="middle">3</text>
  <line x1="383.33" y1="330.00" x2="383.33" y2="340.00" stroke="#64748b" stroke-width="1"  />
  <text x="383.33" y="353.00" font-family="Inter, sans-serif" font-size="11" font-weight="normal" fill="#64748b" text-anchor="middle" dominant-baseline="middle">4</text>
  <line x1="438.89" y1="330.00" x2="438.89" y2="340.00" stroke="#64748b" stroke-width="1"  />
  <text x="438.89" y="353.00" font-family="Inter, sans-serif" font-size="11" font-weight="normal" fill="#64748b" text-anchor="middle" dominant-baseline="middle">5</text>
  <line x1="494.44" y1="330.00" x2="494.44" y2="340.00" stroke="#64748b" stroke-width="1"  />
  <text x="494.44" y="353.00" font-family="Inter, sans-serif" font-size="11" font-weight="normal" fill="#64748b" text-anchor="middle" dominant-baseline="middle">6</text>
  <line x1="550.00" y1="330.00" x2="550.00" y2="340.00" stroke="#64748b" stroke-width="1"  />
  <text x="550.00" y="353.00" font-family="Inter, sans-serif" font-size="11" font-weight="normal" fill="#64748b" text-anchor="middle" dominant-baseline="middle">7</text>
  <line x1="156.11" y1="430.00" x2="166.11" y2="430.00" stroke="#64748b" stroke-width="1"  />
  <text x="146.11" y="430.00" font-family="Inter, sans-serif" font-size="11" font-weight="normal" fill="#64748b" text-anchor="end" dominant-baseline="middle">-2</text>
  <line x1="156.11" y1="382.50" x2="166.11" y2="382.50" stroke="#64748b" stroke-width="1"  />
  <text x="146.11" y="382.50" font-family="Inter, sans-serif" font-size="11" font-weight="normal" fill="#64748b" text-anchor="end" dominant-baseline="middle">-1</text>
  <line x1="156.11" y1="287.50" x2="166.11" y2="287.50" stroke="#64748b" stroke-width="1"  />
  <text x="146.11" y="287.50" font-family="Inter, sans-serif" font-size="11" font-weight="normal" fill="#64748b" text-anchor="end" dominant-baseline="middle">1</text>
  <line x1="156.11" y1="240.00" x2="166.11" y2="240.00" stroke="#64748b" stroke-width="1"  />
  <text x="146.11" y="240.00" font-family="Inter, sans-serif" font-size="11" font-weight="normal" fill="#64748b" text-anchor="end" dominant-baseline="middle">2</text>
  <line x1="156.11" y1="192.50" x2="166.11" y2="192.50" stroke="#64748b" stroke-width="1"  />
  <text x="146.11" y="192.50" font-family="Inter, sans-serif" font-size="11" font-weight="normal" fill="#64748b" text-anchor="end" dominant-baseline="middle">3</text>
  <line x1="156.11" y1="145.00" x2="166.11" y2="145.00" stroke="#64748b" stroke-width="1"  />
  <text x="146.11" y="145.00" font-family="Inter, sans-serif" font-size="11" font-weight="normal" fill="#64748b" text-anchor="end" dominant-baseline="middle">4</text>
  <line x1="156.11" y1="97.50" x2="166.11" y2="97.50" stroke="#64748b" stroke-width="1"  />
  <text x="146.11" y="97.50" font-family="Inter, sans-serif" font-size="11" font-weight="normal" fill="#64748b" text-anchor="end" dominant-baseline="middle">5</text>
  <line x1="156.11" y1="50.00" x2="166.11" y2="50.00" stroke="#64748b" stroke-width="1"  />
  <text x="146.11" y="50.00" font-family="Inter, sans-serif" font-size="11" font-weight="normal" fill="#64748b" text-anchor="end" dominant-baseline="middle">6</text>
  <text x="149.11" y="350.00" font-family="Inter, sans-serif" font-size="11" font-weight="normal" fill="#64748b" text-anchor="middle" dominant-baseline="middle">O</text>
  <line x1="105.56" y1="382.50" x2="494.44" y2="50.00" stroke="#64748b" stroke-width="2"  />
  <text x="443.89" y="87.50" font-family="Inter, sans-serif" font-size="10" font-weight="normal" fill="#64748b" text-anchor="start" dominant-baseline="middle">L: m = 1</text>
  <circle cx="272.22" cy="145.00" r="6" fill="#ef4444" />
  <text x="282.22" y="135.00" font-family="Inter, sans-serif" font-size="12" font-weight="bold" fill="#ef4444" text-anchor="start" dominant-baseline="middle">P(2, 4)</text>
  <line x1="105.56" y1="287.50" x2="383.33" y2="50.00" stroke="#22c55e" stroke-width="2.5"  />
  <text x="275.56" y="63.75" font-family="Inter, sans-serif" font-size="10" font-weight="bold" fill="#22c55e" text-anchor="middle" dominant-baseline="middle">Paralela: m = 1</text>
  <line x1="161.11" y1="50.00" x2="494.44" y2="335.00" stroke="#ef4444" stroke-width="2.5"  />
  <text x="428.89" y="305.50" font-family="Inter, sans-serif" font-size="10" font-weight="bold" fill="#ef4444" text-anchor="middle" dominant-baseline="middle">Perpendicular: m = -1</text>
  <text x="337.78" y="182.50" font-family="Inter, sans-serif" font-size="14" font-weight="normal" fill="#ef4444" text-anchor="middle" dominant-baseline="middle">⊥</text>
  <rect x="155.88" y="434.30" width="288.25" height="31.40" fill="#fef3c7" stroke="#f97316" stroke-width="1" rx="6"/>
  <text x="300.00" y="450.00" font-family="Inter, sans-serif" font-size="11" font-weight="bold" fill="#1e293b" text-anchor="middle" dominant-baseline="middle">Paralela: m₁ = m  |  Perpendicular: m₂ = -1/m</text>
</svg>