<svg xmlns="http://www.w3.org/2000/svg" viewBox="0 0 600 600">
  <defs>
        <marker id="arrow-64748b" markerWidth="10" markerHeight="10" 
                refX="8" refY="5.0" orient="auto">
            <polygon points="0,0 10,5.0 0,10" fill="#64748b"/>
        </marker></defs>
  <rect x="0.00" y="0.00" width="600.00" height="600.00" fill="#ffffff" stroke="none" stroke-width="0" rx="0"/>
  <text x="300.00" y="25.00" font-family="Inter, sans-serif" font-size="15" font-weight="bold" fill="#1e293b" text-anchor="middle" dominant-baseline="middle">Parábola Vertical (Abre Abajo)</text>
  <line x1="50.00" y1="550.00" x2="50.00" y2="50.00" stroke="#e2e8f0" stroke-width="0.5"  />
  <line x1="100.00" y1="550.00" x2="100.00" y2="50.00" stroke="#e2e8f0" stroke-width="0.5"  />
  <line x1="150.00" y1="550.00" x2="150.00" y2="50.00" stroke="#e2e8f0" stroke-width="0.5"  />
  <line x1="200.00" y1="550.00" x2="200.00" y2="50.00" stroke="#e2e8f0" stroke-width="0.5"  />
  <line x1="250.00" y1="550.00" x2="250.00" y2="50.00" stroke="#e2e8f0" stroke-width="0.5"  />
  <line x1="350.00" y1="550.00" x2="350.00" y2="50.00" stroke="#e2e8f0" stroke-width="0.5"  />
  <line x1="400.00" y1="550.00" x2="400.00" y2="50.00" stroke="#e2e8f0" stroke-width="0.5"  />
  <line x1="450.00" y1="550.00" x2="450.00" y2="50.00" stroke="#e2e8f0" stroke-width="0.5"  />
  <line x1="500.00" y1="550.00" x2="500.00" y2="50.00" stroke="#e2e8f0" stroke-width="0.5"  />
  <line x1="550.00" y1="550.00" x2="550.00" y2="50.00" stroke="#e2e8f0" stroke-width="0.5"  />
  <line x1="50.00" y1="550.00" x2="550.00" y2="550.00" stroke="#e2e8f0" stroke-width="0.5"  />
  <line x1="50.00" y1="494.44" x2="550.00" y2="494.44" stroke="#e2e8f0" stroke-width="0.5"  />
  <line x1="50.00" y1="438.89" x2="550.00" y2="438.89" stroke="#e2e8f0" stroke-width="0.5"  />
  <line x1="50.00" y1="383.33" x2="550.00" y2="383.33" stroke="#e2e8f0" stroke-width="0.5"  />
  <line x1="50.00" y1="327.78" x2="550.00" y2="327.78" stroke="#e2e8f0" stroke-width="0.5"  />
  <line x1="50.00" y1="272.22" x2="550.00" y2="272.22" stroke="#e2e8f0" stroke-width="0.5"  />
  <line x1="50.00" y1="216.67" x2="550.00" y2="216.67" stroke="#e2e8f0" stroke-width="0.5"  />
  <line x1="50.00" y1="105.56" x2="550.00" y2="105.56" stroke="#e2e8f0" stroke-width="0.5"  />
  <line x1="50.00" y1="50.00" x2="550.00" y2="50.00" stroke="#e2e8f0" stroke-width="0.5"  />
  <line x1="50.00" y1="161.11" x2="550.00" y2="161.11" stroke="#64748b" stroke-width="2"  marker-end="url(#arrow-64748b)"/>
  <line x1="300.00" y1="550.00" x2="300.00" y2="50.00" stroke="#64748b" stroke-width="2"  marker-end="url(#arrow-64748b)"/>
  <text x="545.00" y="181.11" font-family="Inter, sans-serif" font-size="14" font-weight="bold" fill="#64748b" text-anchor="middle" dominant-baseline="middle">x</text>
  <text x="280.00" y="60.00" font-family="Inter, sans-serif" font-size="14" font-weight="bold" fill="#64748b" text-anchor="middle" dominant-baseline="middle">y</text>
  <line x1="50.00" y1="156.11" x2="50.00" y2="166.11" stroke="#64748b" stroke-width="1"  />
  <text x="50.00" y="179.11" font-family="Inter, sans-serif" font-size="11" font-weight="normal" fill="#64748b" text-anchor="middle" dominant-baseline="middle">-10</text>
  <line x1="100.00" y1="156.11" x2="100.00" y2="166.11" stroke="#64748b" stroke-width="1"  />
  <text x="100.00" y="179.11" font-family="Inter, sans-serif" font-size="11" font-weight="normal" fill="#64748b" text-anchor="middle" dominant-baseline="middle">-8</text>
  <line x1="150.00" y1="156.11" x2="150.00" y2="166.11" stroke="#64748b" stroke-width="1"  />
  <text x="150.00" y="179.11" font-family="Inter, sans-serif" font-size="11" font-weight="normal" fill="#64748b" text-anchor="middle" dominant-baseline="middle">-6</text>
  <line x1="200.00" y1="156.11" x2="200.00" y2="166.11" stroke="#64748b" stroke-width="1"  />
  <text x="200.00" y="179.11" font-family="Inter, sans-serif" font-size="11" font-weight="normal" fill="#64748b" text-anchor="middle" dominant-baseline="middle">-4</text>
  <line x1="250.00" y1="156.11" x2="250.00" y2="166.11" stroke="#64748b" stroke-width="1"  />
  <text x="250.00" y="179.11" font-family="Inter, sans-serif" font-size="11" font-weight="normal" fill="#64748b" text-anchor="middle" dominant-baseline="middle">-2</text>
  <line x1="350.00" y1="156.11" x2="350.00" y2="166.11" stroke="#64748b" stroke-width="1"  />
  <text x="350.00" y="179.11" font-family="Inter, sans-serif" font-size="11" font-weight="normal" fill="#64748b" text-anchor="middle" dominant-baseline="middle">2</text>
  <line x1="400.00" y1="156.11" x2="400.00" y2="166.11" stroke="#64748b" stroke-width="1"  />
  <text x="400.00" y="179.11" font-family="Inter, sans-serif" font-size="11" font-weight="normal" fill="#64748b" text-anchor="middle" dominant-baseline="middle">4</text>
  <line x1="450.00" y1="156.11" x2="450.00" y2="166.11" stroke="#64748b" stroke-width="1"  />
  <text x="450.00" y="179.11" font-family="Inter, sans-serif" font-size="11" font-weight="normal" fill="#64748b" text-anchor="middle" dominant-baseline="middle">6</text>
  <line x1="500.00" y1="156.11" x2="500.00" y2="166.11" stroke="#64748b" stroke-width="1"  />
  <text x="500.00" y="179.11" font-family="Inter, sans-serif" font-size="11" font-weight="normal" fill="#64748b" text-anchor="middle" dominant-baseline="middle">8</text>
  <line x1="550.00" y1="156.11" x2="550.00" y2="166.11" stroke="#64748b" stroke-width="1"  />
  <text x="550.00" y="179.11" font-family="Inter, sans-serif" font-size="11" font-weight="normal" fill="#64748b" text-anchor="middle" dominant-baseline="middle">10</text>
  <line x1="295.00" y1="550.00" x2="305.00" y2="550.00" stroke="#64748b" stroke-width="1"  />
  <text x="285.00" y="550.00" font-family="Inter, sans-serif" font-size="11" font-weight="normal" fill="#64748b" text-anchor="end" dominant-baseline="middle">-14</text>
  <line x1="295.00" y1="494.44" x2="305.00" y2="494.44" stroke="#64748b" stroke-width="1"  />
  <text x="285.00" y="494.44" font-family="Inter, sans-serif" font-size="11" font-weight="normal" fill="#64748b" text-anchor="end" dominant-baseline="middle">-12</text>
  <line x1="295.00" y1="438.89" x2="305.00" y2="438.89" stroke="#64748b" stroke-width="1"  />
  <text x="285.00" y="438.89" font-family="Inter, sans-serif" font-size="11" font-weight="normal" fill="#64748b" text-anchor="end" dominant-baseline="middle">-10</text>
  <line x1="295.00" y1="383.33" x2="305.00" y2="383.33" stroke="#64748b" stroke-width="1"  />
  <text x="285.00" y="383.33" font-family="Inter, sans-serif" font-size="11" font-weight="normal" fill="#64748b" text-anchor="end" dominant-baseline="middle">-8</text>
  <line x1="295.00" y1="327.78" x2="305.00" y2="327.78" stroke="#64748b" stroke-width="1"  />
  <text x="285.00" y="327.78" font-family="Inter, sans-serif" font-size="11" font-weight="normal" fill="#64748b" text-anchor="end" dominant-baseline="middle">-6</text>
  <line x1="295.00" y1="272.22" x2="305.00" y2="272.22" stroke="#64748b" stroke-width="1"  />
  <text x="285.00" y="272.22" font-family="Inter, sans-serif" font-size="11" font-weight="normal" fill="#64748b" text-anchor="end" dominant-baseline="middle">-4</text>
  <line x1="295.00" y1="216.67" x2="305.00" y2="216.67" stroke="#64748b" stroke-width="1"  />
  <text x="285.00" y="216.67" font-family="Inter, sans-serif" font-size="11" font-weight="normal" fill="#64748b" text-anchor="end" dominant-baseline="middle">-2</text>
  <line x1="295.00" y1="105.56" x2="305.00" y2="105.56" stroke="#64748b" stroke-width="1"  />
  <text x="285.00" y="105.56" font-family="Inter, sans-serif" font-size="11" font-weight="normal" fill="#64748b" text-anchor="end" dominant-baseline="middle">2</text>
  <line x1="295.00" y1="50.00" x2="305.00" y2="50.00" stroke="#64748b" stroke-width="1"  />
  <text x="285.00" y="50.00" font-family="Inter, sans-serif" font-size="11" font-weight="normal" fill="#64748b" text-anchor="end" dominant-baseline="middle">4</text>
  <text x="288.00" y="176.11" font-family="Inter, sans-serif" font-size="11" font-weight="normal" fill="#64748b" text-anchor="middle" dominant-baseline="middle">O</text>
  <polyline points="75.00,348.61 77.50,344.47 80.00,340.37 82.50,336.32 85.00,332.31 87.50,328.36 90.00,324.44 92.50,320.58 95.00,316.76 97.50,312.99 100.00,309.26 102.50,305.58 105.00,301.94 107.50,298.36 110.00,294.81 112.50,291.32 115.00,287.87 117.50,284.47 120.00,281.11 122.50,277.80 125.00,274.54 127.50,271.32 130.00,268.15 132.50,265.02 135.00,261.94 137.50,258.91 140.00,255.93 142.50,252.99 145.00,250.09 147.50,247.25 150.00,244.44 152.50,241.69 155.00,238.98 157.50,236.32 160.00,233.70 162.50,231.13 165.00,228.61 167.50,226.13 170.00,223.70 172.50,221.32 175.00,218.98 177.50,216.69 180.00,214.44 182.50,212.25 185.00,210.09 187.50,207.99 190.00,205.93 192.50,203.91 195.00,201.94 197.50,200.02 200.00,198.15 202.50,196.32 205.00,194.54 207.50,192.80 210.00,191.11 212.50,189.47 215.00,187.87 217.50,186.32 220.00,184.81 222.50,183.36 225.00,181.94 227.50,180.58 230.00,179.26 232.50,177.99 235.00,176.76 237.50,175.58 240.00,174.44 242.50,173.36 245.00,172.31 247.50,171.32 250.00,170.37 252.50,169.47 255.00,168.61 257.50,167.80 260.00,167.04 262.50,166.32 265.00,165.65 267.50,165.02 270.00,164.44 272.50,163.91 275.00,163.43 277.50,162.99 280.00,162.59 282.50,162.25 285.00,161.94 287.50,161.69 290.00,161.48 292.50,161.32 295.00,161.20 297.50,161.13 300.00,161.11 302.50,161.13 305.00,161.20 307.50,161.32 310.00,161.48 312.50,161.69 315.00,161.94 317.50,162.25 320.00,162.59 322.50,162.99 325.00,163.43 327.50,163.91 330.00,164.44 332.50,165.02 335.00,165.65 337.50,166.32 340.00,167.04 342.50,167.80 345.00,168.61 347.50,169.47 350.00,170.37 352.50,171.32 355.00,172.31 357.50,173.36 360.00,174.44 362.50,175.58 365.00,176.76 367.50,177.99 370.00,179.26 372.50,180.58 375.00,181.94 377.50,183.36 380.00,184.81 382.50,186.32 385.00,187.87 387.50,189.47 390.00,191.11 392.50,192.80 395.00,194.54 397.50,196.32 400.00,198.15 402.50,200.02 405.00,201.94 407.50,203.91 410.00,205.93 412.50,207.99 415.00,210.09 417.50,212.25 420.00,214.44 422.50,216.69 425.00,218.98 427.50,221.32 430.00,223.70 432.50,226.13 435.00,228.61 437.50,231.13 440.00,233.70 442.50,236.32 445.00,238.98 447.50,241.69 450.00,244.44 452.50,247.25 455.00,250.09 457.50,252.99 460.00,255.93 462.50,258.91 465.00,261.94 467.50,265.02 470.00,268.15 472.50,271.32 475.00,274.54 477.50,277.80 480.00,281.11 482.50,284.47 485.00,287.87 487.50,291.32 490.00,294.81 492.50,298.36 495.00,301.94 497.50,305.58 500.00,309.26 502.50,312.99 505.00,316.76 507.50,320.58 510.00,324.44 512.50,328.36 515.00,332.31 517.50,336.32 520.00,340.37 522.50,344.47 525.00,348.61" fill="none" stroke="#3b82f6" stroke-width="2.5"/>
  <circle cx="300.00" cy="161.11" r="5" fill="#ef4444" />
  <text x="310.00" y="151.11" font-family="Inter, sans-serif" font-size="12" font-weight="bold" fill="#ef4444" text-anchor="start" dominant-baseline="middle">V(0, 0)</text>
  <circle cx="300.00" cy="244.44" r="5" fill="#ef4444" />
  <text x="310.00" y="244.44" font-family="Inter, sans-serif" font-size="12" font-weight="bold" fill="#ef4444" text-anchor="start" dominant-baseline="middle">F(0, -3)</text>
  <line x1="75.00" y1="77.78" x2="525.00" y2="77.78" stroke="#22c55e" stroke-width="2"  />
  <text x="450.00" y="67.78" font-family="Inter, sans-serif" font-size="10" font-weight="normal" fill="#22c55e" text-anchor="middle" dominant-baseline="middle">y = 3</text>
  <line x1="150.00" y1="244.44" x2="450.00" y2="244.44" stroke="#8b5cf6" stroke-width="1.5"  />
  <rect x="183.10" y="554.30" width="233.80" height="31.40" fill="#fef3c7" stroke="#f97316" stroke-width="1" rx="6"/>
  <text x="300.00" y="570.00" font-family="Inter, sans-serif" font-size="11" font-weight="bold" fill="#1e293b" text-anchor="middle" dominant-baseline="middle">x² = -12y | p = 3 | Abre hacia abajo</text>
</svg>