<svg xmlns="http://www.w3.org/2000/svg" viewBox="0 0 600 500">
  <defs>
        <marker id="arrow-64748b" markerWidth="10" markerHeight="10" 
                refX="8" refY="5.0" orient="auto">
            <polygon points="0,0 10,5.0 0,10" fill="#64748b"/>
        </marker></defs>
  <rect x="0.00" y="0.00" width="600.00" height="500.00" fill="#ffffff" stroke="none" stroke-width="0" rx="0"/>
  <text x="300.00" y="25.00" font-family="Inter, sans-serif" font-size="15" font-weight="bold" fill="#1e293b" text-anchor="middle" dominant-baseline="middle">Gráfica por Tabulación: y = x² - 4</text>
  <line x1="50.00" y1="450.00" x2="50.00" y2="50.00" stroke="#e2e8f0" stroke-width="0.5"  />
  <line x1="112.50" y1="450.00" x2="112.50" y2="50.00" stroke="#e2e8f0" stroke-width="0.5"  />
  <line x1="175.00" y1="450.00" x2="175.00" y2="50.00" stroke="#e2e8f0" stroke-width="0.5"  />
  <line x1="237.50" y1="450.00" x2="237.50" y2="50.00" stroke="#e2e8f0" stroke-width="0.5"  />
  <line x1="362.50" y1="450.00" x2="362.50" y2="50.00" stroke="#e2e8f0" stroke-width="0.5"  />
  <line x1="425.00" y1="450.00" x2="425.00" y2="50.00" stroke="#e2e8f0" stroke-width="0.5"  />
  <line x1="487.50" y1="450.00" x2="487.50" y2="50.00" stroke="#e2e8f0" stroke-width="0.5"  />
  <line x1="550.00" y1="450.00" x2="550.00" y2="50.00" stroke="#e2e8f0" stroke-width="0.5"  />
  <line x1="50.00" y1="450.00" x2="550.00" y2="450.00" stroke="#e2e8f0" stroke-width="0.5"  />
  <line x1="50.00" y1="413.64" x2="550.00" y2="413.64" stroke="#e2e8f0" stroke-width="0.5"  />
  <line x1="50.00" y1="377.27" x2="550.00" y2="377.27" stroke="#e2e8f0" stroke-width="0.5"  />
  <line x1="50.00" y1="340.91" x2="550.00" y2="340.91" stroke="#e2e8f0" stroke-width="0.5"  />
  <line x1="50.00" y1="304.55" x2="550.00" y2="304.55" stroke="#e2e8f0" stroke-width="0.5"  />
  <line x1="50.00" y1="231.82" x2="550.00" y2="231.82" stroke="#e2e8f0" stroke-width="0.5"  />
  <line x1="50.00" y1="195.45" x2="550.00" y2="195.45" stroke="#e2e8f0" stroke-width="0.5"  />
  <line x1="50.00" y1="159.09" x2="550.00" y2="159.09" stroke="#e2e8f0" stroke-width="0.5"  />
  <line x1="50.00" y1="122.73" x2="550.00" y2="122.73" stroke="#e2e8f0" stroke-width="0.5"  />
  <line x1="50.00" y1="86.36" x2="550.00" y2="86.36" stroke="#e2e8f0" stroke-width="0.5"  />
  <line x1="50.00" y1="50.00" x2="550.00" y2="50.00" stroke="#e2e8f0" stroke-width="0.5"  />
  <line x1="50.00" y1="268.18" x2="550.00" y2="268.18" stroke="#64748b" stroke-width="2"  marker-end="url(#arrow-64748b)"/>
  <line x1="300.00" y1="450.00" x2="300.00" y2="50.00" stroke="#64748b" stroke-width="2"  marker-end="url(#arrow-64748b)"/>
  <text x="545.00" y="288.18" font-family="Inter, sans-serif" font-size="14" font-weight="bold" fill="#64748b" text-anchor="middle" dominant-baseline="middle">x</text>
  <text x="280.00" y="60.00" font-family="Inter, sans-serif" font-size="14" font-weight="bold" fill="#64748b" text-anchor="middle" dominant-baseline="middle">y</text>
  <line x1="50.00" y1="263.18" x2="50.00" y2="273.18" stroke="#64748b" stroke-width="1"  />
  <text x="50.00" y="286.18" font-family="Inter, sans-serif" font-size="11" font-weight="normal" fill="#64748b" text-anchor="middle" dominant-baseline="middle">-4</text>
  <line x1="112.50" y1="263.18" x2="112.50" y2="273.18" stroke="#64748b" stroke-width="1"  />
  <text x="112.50" y="286.18" font-family="Inter, sans-serif" font-size="11" font-weight="normal" fill="#64748b" text-anchor="middle" dominant-baseline="middle">-3</text>
  <line x1="175.00" y1="263.18" x2="175.00" y2="273.18" stroke="#64748b" stroke-width="1"  />
  <text x="175.00" y="286.18" font-family="Inter, sans-serif" font-size="11" font-weight="normal" fill="#64748b" text-anchor="middle" dominant-baseline="middle">-2</text>
  <line x1="237.50" y1="263.18" x2="237.50" y2="273.18" stroke="#64748b" stroke-width="1"  />
  <text x="237.50" y="286.18" font-family="Inter, sans-serif" font-size="11" font-weight="normal" fill="#64748b" text-anchor="middle" dominant-baseline="middle">-1</text>
  <line x1="362.50" y1="263.18" x2="362.50" y2="273.18" stroke="#64748b" stroke-width="1"  />
  <text x="362.50" y="286.18" font-family="Inter, sans-serif" font-size="11" font-weight="normal" fill="#64748b" text-anchor="middle" dominant-baseline="middle">1</text>
  <line x1="425.00" y1="263.18" x2="425.00" y2="273.18" stroke="#64748b" stroke-width="1"  />
  <text x="425.00" y="286.18" font-family="Inter, sans-serif" font-size="11" font-weight="normal" fill="#64748b" text-anchor="middle" dominant-baseline="middle">2</text>
  <line x1="487.50" y1="263.18" x2="487.50" y2="273.18" stroke="#64748b" stroke-width="1"  />
  <text x="487.50" y="286.18" font-family="Inter, sans-serif" font-size="11" font-weight="normal" fill="#64748b" text-anchor="middle" dominant-baseline="middle">3</text>
  <line x1="550.00" y1="263.18" x2="550.00" y2="273.18" stroke="#64748b" stroke-width="1"  />
  <text x="550.00" y="286.18" font-family="Inter, sans-serif" font-size="11" font-weight="normal" fill="#64748b" text-anchor="middle" dominant-baseline="middle">4</text>
  <line x1="295.00" y1="450.00" x2="305.00" y2="450.00" stroke="#64748b" stroke-width="1"  />
  <text x="285.00" y="450.00" font-family="Inter, sans-serif" font-size="11" font-weight="normal" fill="#64748b" text-anchor="end" dominant-baseline="middle">-5</text>
  <line x1="295.00" y1="413.64" x2="305.00" y2="413.64" stroke="#64748b" stroke-width="1"  />
  <text x="285.00" y="413.64" font-family="Inter, sans-serif" font-size="11" font-weight="normal" fill="#64748b" text-anchor="end" dominant-baseline="middle">-4</text>
  <line x1="295.00" y1="377.27" x2="305.00" y2="377.27" stroke="#64748b" stroke-width="1"  />
  <text x="285.00" y="377.27" font-family="Inter, sans-serif" font-size="11" font-weight="normal" fill="#64748b" text-anchor="end" dominant-baseline="middle">-3</text>
  <line x1="295.00" y1="340.91" x2="305.00" y2="340.91" stroke="#64748b" stroke-width="1"  />
  <text x="285.00" y="340.91" font-family="Inter, sans-serif" font-size="11" font-weight="normal" fill="#64748b" text-anchor="end" dominant-baseline="middle">-2</text>
  <line x1="295.00" y1="304.55" x2="305.00" y2="304.55" stroke="#64748b" stroke-width="1"  />
  <text x="285.00" y="304.55" font-family="Inter, sans-serif" font-size="11" font-weight="normal" fill="#64748b" text-anchor="end" dominant-baseline="middle">-1</text>
  <line x1="295.00" y1="231.82" x2="305.00" y2="231.82" stroke="#64748b" stroke-width="1"  />
  <text x="285.00" y="231.82" font-family="Inter, sans-serif" font-size="11" font-weight="normal" fill="#64748b" text-anchor="end" dominant-baseline="middle">1</text>
  <line x1="295.00" y1="195.45" x2="305.00" y2="195.45" stroke="#64748b" stroke-width="1"  />
  <text x="285.00" y="195.45" font-family="Inter, sans-serif" font-size="11" font-weight="normal" fill="#64748b" text-anchor="end" dominant-baseline="middle">2</text>
  <line x1="295.00" y1="159.09" x2="305.00" y2="159.09" stroke="#64748b" stroke-width="1"  />
  <text x="285.00" y="159.09" font-family="Inter, sans-serif" font-size="11" font-weight="normal" fill="#64748b" text-anchor="end" dominant-baseline="middle">3</text>
  <line x1="295.00" y1="122.73" x2="305.00" y2="122.73" stroke="#64748b" stroke-width="1"  />
  <text x="285.00" y="122.73" font-family="Inter, sans-serif" font-size="11" font-weight="normal" fill="#64748b" text-anchor="end" dominant-baseline="middle">4</text>
  <line x1="295.00" y1="86.36" x2="305.00" y2="86.36" stroke="#64748b" stroke-width="1"  />
  <text x="285.00" y="86.36" font-family="Inter, sans-serif" font-size="11" font-weight="normal" fill="#64748b" text-anchor="end" dominant-baseline="middle">5</text>
  <line x1="295.00" y1="50.00" x2="305.00" y2="50.00" stroke="#64748b" stroke-width="1"  />
  <text x="285.00" y="50.00" font-family="Inter, sans-serif" font-size="11" font-weight="normal" fill="#64748b" text-anchor="end" dominant-baseline="middle">6</text>
  <text x="288.00" y="283.18" font-family="Inter, sans-serif" font-size="11" font-weight="normal" fill="#64748b" text-anchor="middle" dominant-baseline="middle">O</text>
  <line x1="112.50" y1="86.36" x2="125.00" y2="128.55" stroke="#3b82f6" stroke-width="2.5"  />
  <line x1="125.00" y1="128.55" x2="137.50" y2="167.82" stroke="#3b82f6" stroke-width="2.5"  />
  <line x1="137.50" y1="167.82" x2="150.00" y2="204.18" stroke="#3b82f6" stroke-width="2.5"  />
  <line x1="150.00" y1="204.18" x2="162.50" y2="237.64" stroke="#3b82f6" stroke-width="2.5"  />
  <line x1="162.50" y1="237.64" x2="175.00" y2="268.18" stroke="#3b82f6" stroke-width="2.5"  />
  <line x1="175.00" y1="268.18" x2="187.50" y2="295.82" stroke="#3b82f6" stroke-width="2.5"  />
  <line x1="187.50" y1="295.82" x2="200.00" y2="320.55" stroke="#3b82f6" stroke-width="2.5"  />
  <line x1="200.00" y1="320.55" x2="212.50" y2="342.36" stroke="#3b82f6" stroke-width="2.5"  />
  <line x1="212.50" y1="342.36" x2="225.00" y2="361.27" stroke="#3b82f6" stroke-width="2.5"  />
  <line x1="225.00" y1="361.27" x2="237.50" y2="377.27" stroke="#3b82f6" stroke-width="2.5"  />
  <line x1="237.50" y1="377.27" x2="250.00" y2="390.36" stroke="#3b82f6" stroke-width="2.5"  />
  <line x1="250.00" y1="390.36" x2="262.50" y2="400.55" stroke="#3b82f6" stroke-width="2.5"  />
  <line x1="262.50" y1="400.55" x2="275.00" y2="407.82" stroke="#3b82f6" stroke-width="2.5"  />
  <line x1="275.00" y1="407.82" x2="287.50" y2="412.18" stroke="#3b82f6" stroke-width="2.5"  />
  <line x1="287.50" y1="412.18" x2="300.00" y2="413.64" stroke="#3b82f6" stroke-width="2.5"  />
  <line x1="300.00" y1="413.64" x2="312.50" y2="412.18" stroke="#3b82f6" stroke-width="2.5"  />
  <line x1="312.50" y1="412.18" x2="325.00" y2="407.82" stroke="#3b82f6" stroke-width="2.5"  />
  <line x1="325.00" y1="407.82" x2="337.50" y2="400.55" stroke="#3b82f6" stroke-width="2.5"  />
  <line x1="337.50" y1="400.55" x2="350.00" y2="390.36" stroke="#3b82f6" stroke-width="2.5"  />
  <line x1="350.00" y1="390.36" x2="362.50" y2="377.27" stroke="#3b82f6" stroke-width="2.5"  />
  <line x1="362.50" y1="377.27" x2="375.00" y2="361.27" stroke="#3b82f6" stroke-width="2.5"  />
  <line x1="375.00" y1="361.27" x2="387.50" y2="342.36" stroke="#3b82f6" stroke-width="2.5"  />
  <line x1="387.50" y1="342.36" x2="400.00" y2="320.55" stroke="#3b82f6" stroke-width="2.5"  />
  <line x1="400.00" y1="320.55" x2="412.50" y2="295.82" stroke="#3b82f6" stroke-width="2.5"  />
  <line x1="412.50" y1="295.82" x2="425.00" y2="268.18" stroke="#3b82f6" stroke-width="2.5"  />
  <line x1="425.00" y1="268.18" x2="437.50" y2="237.64" stroke="#3b82f6" stroke-width="2.5"  />
  <line x1="437.50" y1="237.64" x2="450.00" y2="204.18" stroke="#3b82f6" stroke-width="2.5"  />
  <line x1="450.00" y1="204.18" x2="462.50" y2="167.82" stroke="#3b82f6" stroke-width="2.5"  />
  <line x1="462.50" y1="167.82" x2="475.00" y2="128.55" stroke="#3b82f6" stroke-width="2.5"  />
  <line x1="475.00" y1="128.55" x2="487.50" y2="86.36" stroke="#3b82f6" stroke-width="2.5"  />
  <circle cx="112.50" cy="86.36" r="5" fill="#ef4444" />
  <text x="120.50" y="78.36" font-family="Inter, sans-serif" font-size="9" font-weight="normal" fill="#1e293b" text-anchor="middle" dominant-baseline="middle">(-3,5)</text>
  <circle cx="175.00" cy="268.18" r="5" fill="#ef4444" />
  <text x="183.00" y="260.18" font-family="Inter, sans-serif" font-size="9" font-weight="normal" fill="#1e293b" text-anchor="middle" dominant-baseline="middle">(-2,0)</text>
  <circle cx="237.50" cy="377.27" r="5" fill="#ef4444" />
  <text x="245.50" y="369.27" font-family="Inter, sans-serif" font-size="9" font-weight="normal" fill="#1e293b" text-anchor="middle" dominant-baseline="middle">(-1,-3)</text>
  <circle cx="300.00" cy="413.64" r="5" fill="#ef4444" />
  <text x="308.00" y="405.64" font-family="Inter, sans-serif" font-size="9" font-weight="normal" fill="#1e293b" text-anchor="middle" dominant-baseline="middle">(0,-4)</text>
  <circle cx="362.50" cy="377.27" r="5" fill="#ef4444" />
  <text x="370.50" y="369.27" font-family="Inter, sans-serif" font-size="9" font-weight="normal" fill="#1e293b" text-anchor="middle" dominant-baseline="middle">(1,-3)</text>
  <circle cx="425.00" cy="268.18" r="5" fill="#ef4444" />
  <text x="433.00" y="260.18" font-family="Inter, sans-serif" font-size="9" font-weight="normal" fill="#1e293b" text-anchor="middle" dominant-baseline="middle">(2,0)</text>
  <circle cx="487.50" cy="86.36" r="5" fill="#ef4444" />
  <text x="495.50" y="78.36" font-family="Inter, sans-serif" font-size="9" font-weight="normal" fill="#1e293b" text-anchor="middle" dominant-baseline="middle">(3,5)</text>
  <circle cx="300.00" cy="413.64" r="6" fill="#ef4444" />
  <text x="310.00" y="403.64" font-family="Inter, sans-serif" font-size="12" font-weight="bold" fill="#ef4444" text-anchor="start" dominant-baseline="middle">V(0, -4)</text>
  <text x="125.00" y="253.18" font-family="Inter, sans-serif" font-size="10" font-weight="normal" fill="#22c55e" text-anchor="middle" dominant-baseline="middle">Interceptos X</text>
  <text x="435.00" y="253.18" font-family="Inter, sans-serif" font-size="10" font-weight="normal" fill="#22c55e" text-anchor="middle" dominant-baseline="middle">Interceptos X</text>
  <rect x="189.70" y="453.60" width="220.60" height="32.80" fill="#fef3c7" stroke="#f97316" stroke-width="1" rx="6"/>
  <text x="300.00" y="470.00" font-family="Inter, sans-serif" font-size="12" font-weight="bold" fill="#1e293b" text-anchor="middle" dominant-baseline="middle">y = x² - 4  |  Vértice: (0, -4)</text>
</svg>