<svg xmlns="http://www.w3.org/2000/svg" viewBox="0 0 600 480">
  <defs>
        <marker id="arrow-64748b" markerWidth="10" markerHeight="10" 
                refX="8" refY="5.0" orient="auto">
            <polygon points="0,0 10,5.0 0,10" fill="#64748b"/>
        </marker></defs>
  <rect x="0.00" y="0.00" width="600.00" height="480.00" fill="#ffffff" stroke="none" stroke-width="0" rx="0"/>
  <text x="300.00" y="25.00" font-family="Inter, sans-serif" font-size="15" font-weight="bold" fill="#1e293b" text-anchor="middle" dominant-baseline="middle">Forma Pendiente-Ordenada: y = mx + b</text>
  <line x1="50.00" y1="430.00" x2="50.00" y2="50.00" stroke="#e2e8f0" stroke-width="0.5"  />
  <line x1="121.43" y1="430.00" x2="121.43" y2="50.00" stroke="#e2e8f0" stroke-width="0.5"  />
  <line x1="264.29" y1="430.00" x2="264.29" y2="50.00" stroke="#e2e8f0" stroke-width="0.5"  />
  <line x1="335.71" y1="430.00" x2="335.71" y2="50.00" stroke="#e2e8f0" stroke-width="0.5"  />
  <line x1="407.14" y1="430.00" x2="407.14" y2="50.00" stroke="#e2e8f0" stroke-width="0.5"  />
  <line x1="478.57" y1="430.00" x2="478.57" y2="50.00" stroke="#e2e8f0" stroke-width="0.5"  />
  <line x1="550.00" y1="430.00" x2="550.00" y2="50.00" stroke="#e2e8f0" stroke-width="0.5"  />
  <line x1="50.00" y1="430.00" x2="550.00" y2="430.00" stroke="#e2e8f0" stroke-width="0.5"  />
  <line x1="50.00" y1="303.33" x2="550.00" y2="303.33" stroke="#e2e8f0" stroke-width="0.5"  />
  <line x1="50.00" y1="240.00" x2="550.00" y2="240.00" stroke="#e2e8f0" stroke-width="0.5"  />
  <line x1="50.00" y1="176.67" x2="550.00" y2="176.67" stroke="#e2e8f0" stroke-width="0.5"  />
  <line x1="50.00" y1="113.33" x2="550.00" y2="113.33" stroke="#e2e8f0" stroke-width="0.5"  />
  <line x1="50.00" y1="50.00" x2="550.00" y2="50.00" stroke="#e2e8f0" stroke-width="0.5"  />
  <line x1="50.00" y1="366.67" x2="550.00" y2="366.67" stroke="#64748b" stroke-width="2"  marker-end="url(#arrow-64748b)"/>
  <line x1="192.86" y1="430.00" x2="192.86" y2="50.00" stroke="#64748b" stroke-width="2"  marker-end="url(#arrow-64748b)"/>
  <text x="545.00" y="386.67" font-family="Inter, sans-serif" font-size="14" font-weight="bold" fill="#64748b" text-anchor="middle" dominant-baseline="middle">x</text>
  <text x="172.86" y="60.00" font-family="Inter, sans-serif" font-size="14" font-weight="bold" fill="#64748b" text-anchor="middle" dominant-baseline="middle">y</text>
  <line x1="50.00" y1="361.67" x2="50.00" y2="371.67" stroke="#64748b" stroke-width="1"  />
  <text x="50.00" y="384.67" font-family="Inter, sans-serif" font-size="11" font-weight="normal" fill="#64748b" text-anchor="middle" dominant-baseline="middle">-2</text>
  <line x1="121.43" y1="361.67" x2="121.43" y2="371.67" stroke="#64748b" stroke-width="1"  />
  <text x="121.43" y="384.67" font-family="Inter, sans-serif" font-size="11" font-weight="normal" fill="#64748b" text-anchor="middle" dominant-baseline="middle">-1</text>
  <line x1="264.29" y1="361.67" x2="264.29" y2="371.67" stroke="#64748b" stroke-width="1"  />
  <text x="264.29" y="384.67" font-family="Inter, sans-serif" font-size="11" font-weight="normal" fill="#64748b" text-anchor="middle" dominant-baseline="middle">1</text>
  <line x1="335.71" y1="361.67" x2="335.71" y2="371.67" stroke="#64748b" stroke-width="1"  />
  <text x="335.71" y="384.67" font-family="Inter, sans-serif" font-size="11" font-weight="normal" fill="#64748b" text-anchor="middle" dominant-baseline="middle">2</text>
  <line x1="407.14" y1="361.67" x2="407.14" y2="371.67" stroke="#64748b" stroke-width="1"  />
  <text x="407.14" y="384.67" font-family="Inter, sans-serif" font-size="11" font-weight="normal" fill="#64748b" text-anchor="middle" dominant-baseline="middle">3</text>
  <line x1="478.57" y1="361.67" x2="478.57" y2="371.67" stroke="#64748b" stroke-width="1"  />
  <text x="478.57" y="384.67" font-family="Inter, sans-serif" font-size="11" font-weight="normal" fill="#64748b" text-anchor="middle" dominant-baseline="middle">4</text>
  <line x1="550.00" y1="361.67" x2="550.00" y2="371.67" stroke="#64748b" stroke-width="1"  />
  <text x="550.00" y="384.67" font-family="Inter, sans-serif" font-size="11" font-weight="normal" fill="#64748b" text-anchor="middle" dominant-baseline="middle">5</text>
  <line x1="187.86" y1="430.00" x2="197.86" y2="430.00" stroke="#64748b" stroke-width="1"  />
  <text x="177.86" y="430.00" font-family="Inter, sans-serif" font-size="11" font-weight="normal" fill="#64748b" text-anchor="end" dominant-baseline="middle">-1</text>
  <line x1="187.86" y1="303.33" x2="197.86" y2="303.33" stroke="#64748b" stroke-width="1"  />
  <text x="177.86" y="303.33" font-family="Inter, sans-serif" font-size="11" font-weight="normal" fill="#64748b" text-anchor="end" dominant-baseline="middle">1</text>
  <line x1="187.86" y1="240.00" x2="197.86" y2="240.00" stroke="#64748b" stroke-width="1"  />
  <text x="177.86" y="240.00" font-family="Inter, sans-serif" font-size="11" font-weight="normal" fill="#64748b" text-anchor="end" dominant-baseline="middle">2</text>
  <line x1="187.86" y1="176.67" x2="197.86" y2="176.67" stroke="#64748b" stroke-width="1"  />
  <text x="177.86" y="176.67" font-family="Inter, sans-serif" font-size="11" font-weight="normal" fill="#64748b" text-anchor="end" dominant-baseline="middle">3</text>
  <line x1="187.86" y1="113.33" x2="197.86" y2="113.33" stroke="#64748b" stroke-width="1"  />
  <text x="177.86" y="113.33" font-family="Inter, sans-serif" font-size="11" font-weight="normal" fill="#64748b" text-anchor="end" dominant-baseline="middle">4</text>
  <line x1="187.86" y1="50.00" x2="197.86" y2="50.00" stroke="#64748b" stroke-width="1"  />
  <text x="177.86" y="50.00" font-family="Inter, sans-serif" font-size="11" font-weight="normal" fill="#64748b" text-anchor="end" dominant-baseline="middle">5</text>
  <text x="180.86" y="381.67" font-family="Inter, sans-serif" font-size="11" font-weight="normal" fill="#64748b" text-anchor="middle" dominant-baseline="middle">O</text>
  <line x1="85.71" y1="398.33" x2="478.57" y2="50.00" stroke="#3b82f6" stroke-width="2.5"  />
  <circle cx="192.86" cy="303.33" r="6" fill="#22c55e" />
  <text x="202.86" y="293.33" font-family="Inter, sans-serif" font-size="12" font-weight="bold" fill="#22c55e" text-anchor="start" dominant-baseline="middle">b(0, 1)</text>
  <text x="207.86" y="303.33" font-family="Inter, sans-serif" font-size="11" font-weight="bold" fill="#22c55e" text-anchor="start" dominant-baseline="middle">b = 1</text>
  <polygon points="264.29,240.00 335.71,240.00 335.71,176.67" fill="#fef3c7" stroke="none" stroke-width="2"/>
  <line x1="264.29" y1="240.00" x2="335.71" y2="240.00" stroke="#94a3b8" stroke-width="1.5" stroke-dasharray="5,5" />
  <line x1="335.71" y1="240.00" x2="335.71" y2="176.67" stroke="#94a3b8" stroke-width="1.5" stroke-dasharray="5,5" />
  <polyline points="323.71,240.00 323.71,228.00 335.71,228.00" fill="none" stroke="#94a3b8" stroke-width="1.5"/>
  <text x="345.71" y="208.33" font-family="Inter, sans-serif" font-size="11" font-weight="bold" fill="#f97316" text-anchor="start" dominant-baseline="middle">m = 1</text>
  <rect x="171.00" y="434.30" width="258.00" height="31.40" fill="#fef3c7" stroke="#f97316" stroke-width="1" rx="6"/>
  <text x="300.00" y="450.00" font-family="Inter, sans-serif" font-size="11" font-weight="bold" fill="#1e293b" text-anchor="middle" dominant-baseline="middle">y = mx + b  →  y = 1·x + 1  →  y = x + 1</text>
</svg>