<svg xmlns="http://www.w3.org/2000/svg" viewBox="0 0 600 480">
  <defs>
        <marker id="arrow-64748b" markerWidth="10" markerHeight="10" 
                refX="8" refY="5.0" orient="auto">
            <polygon points="0,0 10,5.0 0,10" fill="#64748b"/>
        </marker></defs>
  <rect x="0.00" y="0.00" width="600.00" height="480.00" fill="#ffffff" stroke="none" stroke-width="0" rx="0"/>
  <text x="300.00" y="25.00" font-family="Inter, sans-serif" font-size="16" font-weight="bold" fill="#1e293b" text-anchor="middle" dominant-baseline="middle">Punto Medio</text>
  <line x1="50.00" y1="430.00" x2="50.00" y2="50.00" stroke="#e2e8f0" stroke-width="0.5"  />
  <line x1="161.11" y1="430.00" x2="161.11" y2="50.00" stroke="#e2e8f0" stroke-width="0.5"  />
  <line x1="216.67" y1="430.00" x2="216.67" y2="50.00" stroke="#e2e8f0" stroke-width="0.5"  />
  <line x1="272.22" y1="430.00" x2="272.22" y2="50.00" stroke="#e2e8f0" stroke-width="0.5"  />
  <line x1="327.78" y1="430.00" x2="327.78" y2="50.00" stroke="#e2e8f0" stroke-width="0.5"  />
  <line x1="383.33" y1="430.00" x2="383.33" y2="50.00" stroke="#e2e8f0" stroke-width="0.5"  />
  <line x1="438.89" y1="430.00" x2="438.89" y2="50.00" stroke="#e2e8f0" stroke-width="0.5"  />
  <line x1="494.44" y1="430.00" x2="494.44" y2="50.00" stroke="#e2e8f0" stroke-width="0.5"  />
  <line x1="550.00" y1="430.00" x2="550.00" y2="50.00" stroke="#e2e8f0" stroke-width="0.5"  />
  <line x1="50.00" y1="430.00" x2="550.00" y2="430.00" stroke="#e2e8f0" stroke-width="0.5"  />
  <line x1="50.00" y1="335.00" x2="550.00" y2="335.00" stroke="#e2e8f0" stroke-width="0.5"  />
  <line x1="50.00" y1="287.50" x2="550.00" y2="287.50" stroke="#e2e8f0" stroke-width="0.5"  />
  <line x1="50.00" y1="240.00" x2="550.00" y2="240.00" stroke="#e2e8f0" stroke-width="0.5"  />
  <line x1="50.00" y1="192.50" x2="550.00" y2="192.50" stroke="#e2e8f0" stroke-width="0.5"  />
  <line x1="50.00" y1="145.00" x2="550.00" y2="145.00" stroke="#e2e8f0" stroke-width="0.5"  />
  <line x1="50.00" y1="97.50" x2="550.00" y2="97.50" stroke="#e2e8f0" stroke-width="0.5"  />
  <line x1="50.00" y1="50.00" x2="550.00" y2="50.00" stroke="#e2e8f0" stroke-width="0.5"  />
  <line x1="50.00" y1="382.50" x2="550.00" y2="382.50" stroke="#64748b" stroke-width="2"  marker-end="url(#arrow-64748b)"/>
  <line x1="105.56" y1="430.00" x2="105.56" y2="50.00" stroke="#64748b" stroke-width="2"  marker-end="url(#arrow-64748b)"/>
  <text x="545.00" y="402.50" font-family="Inter, sans-serif" font-size="14" font-weight="bold" fill="#64748b" text-anchor="middle" dominant-baseline="middle">x</text>
  <text x="85.56" y="60.00" font-family="Inter, sans-serif" font-size="14" font-weight="bold" fill="#64748b" text-anchor="middle" dominant-baseline="middle">y</text>
  <line x1="50.00" y1="377.50" x2="50.00" y2="387.50" stroke="#64748b" stroke-width="1"  />
  <text x="50.00" y="400.50" font-family="Inter, sans-serif" font-size="11" font-weight="normal" fill="#64748b" text-anchor="middle" dominant-baseline="middle">-1</text>
  <line x1="161.11" y1="377.50" x2="161.11" y2="387.50" stroke="#64748b" stroke-width="1"  />
  <text x="161.11" y="400.50" font-family="Inter, sans-serif" font-size="11" font-weight="normal" fill="#64748b" text-anchor="middle" dominant-baseline="middle">1</text>
  <line x1="216.67" y1="377.50" x2="216.67" y2="387.50" stroke="#64748b" stroke-width="1"  />
  <text x="216.67" y="400.50" font-family="Inter, sans-serif" font-size="11" font-weight="normal" fill="#64748b" text-anchor="middle" dominant-baseline="middle">2</text>
  <line x1="272.22" y1="377.50" x2="272.22" y2="387.50" stroke="#64748b" stroke-width="1"  />
  <text x="272.22" y="400.50" font-family="Inter, sans-serif" font-size="11" font-weight="normal" fill="#64748b" text-anchor="middle" dominant-baseline="middle">3</text>
  <line x1="327.78" y1="377.50" x2="327.78" y2="387.50" stroke="#64748b" stroke-width="1"  />
  <text x="327.78" y="400.50" font-family="Inter, sans-serif" font-size="11" font-weight="normal" fill="#64748b" text-anchor="middle" dominant-baseline="middle">4</text>
  <line x1="383.33" y1="377.50" x2="383.33" y2="387.50" stroke="#64748b" stroke-width="1"  />
  <text x="383.33" y="400.50" font-family="Inter, sans-serif" font-size="11" font-weight="normal" fill="#64748b" text-anchor="middle" dominant-baseline="middle">5</text>
  <line x1="438.89" y1="377.50" x2="438.89" y2="387.50" stroke="#64748b" stroke-width="1"  />
  <text x="438.89" y="400.50" font-family="Inter, sans-serif" font-size="11" font-weight="normal" fill="#64748b" text-anchor="middle" dominant-baseline="middle">6</text>
  <line x1="494.44" y1="377.50" x2="494.44" y2="387.50" stroke="#64748b" stroke-width="1"  />
  <text x="494.44" y="400.50" font-family="Inter, sans-serif" font-size="11" font-weight="normal" fill="#64748b" text-anchor="middle" dominant-baseline="middle">7</text>
  <line x1="550.00" y1="377.50" x2="550.00" y2="387.50" stroke="#64748b" stroke-width="1"  />
  <text x="550.00" y="400.50" font-family="Inter, sans-serif" font-size="11" font-weight="normal" fill="#64748b" text-anchor="middle" dominant-baseline="middle">8</text>
  <line x1="100.56" y1="430.00" x2="110.56" y2="430.00" stroke="#64748b" stroke-width="1"  />
  <text x="90.56" y="430.00" font-family="Inter, sans-serif" font-size="11" font-weight="normal" fill="#64748b" text-anchor="end" dominant-baseline="middle">-1</text>
  <line x1="100.56" y1="335.00" x2="110.56" y2="335.00" stroke="#64748b" stroke-width="1"  />
  <text x="90.56" y="335.00" font-family="Inter, sans-serif" font-size="11" font-weight="normal" fill="#64748b" text-anchor="end" dominant-baseline="middle">1</text>
  <line x1="100.56" y1="287.50" x2="110.56" y2="287.50" stroke="#64748b" stroke-width="1"  />
  <text x="90.56" y="287.50" font-family="Inter, sans-serif" font-size="11" font-weight="normal" fill="#64748b" text-anchor="end" dominant-baseline="middle">2</text>
  <line x1="100.56" y1="240.00" x2="110.56" y2="240.00" stroke="#64748b" stroke-width="1"  />
  <text x="90.56" y="240.00" font-family="Inter, sans-serif" font-size="11" font-weight="normal" fill="#64748b" text-anchor="end" dominant-baseline="middle">3</text>
  <line x1="100.56" y1="192.50" x2="110.56" y2="192.50" stroke="#64748b" stroke-width="1"  />
  <text x="90.56" y="192.50" font-family="Inter, sans-serif" font-size="11" font-weight="normal" fill="#64748b" text-anchor="end" dominant-baseline="middle">4</text>
  <line x1="100.56" y1="145.00" x2="110.56" y2="145.00" stroke="#64748b" stroke-width="1"  />
  <text x="90.56" y="145.00" font-family="Inter, sans-serif" font-size="11" font-weight="normal" fill="#64748b" text-anchor="end" dominant-baseline="middle">5</text>
  <line x1="100.56" y1="97.50" x2="110.56" y2="97.50" stroke="#64748b" stroke-width="1"  />
  <text x="90.56" y="97.50" font-family="Inter, sans-serif" font-size="11" font-weight="normal" fill="#64748b" text-anchor="end" dominant-baseline="middle">6</text>
  <line x1="100.56" y1="50.00" x2="110.56" y2="50.00" stroke="#64748b" stroke-width="1"  />
  <text x="90.56" y="50.00" font-family="Inter, sans-serif" font-size="11" font-weight="normal" fill="#64748b" text-anchor="end" dominant-baseline="middle">7</text>
  <text x="93.56" y="397.50" font-family="Inter, sans-serif" font-size="11" font-weight="normal" fill="#64748b" text-anchor="middle" dominant-baseline="middle">O</text>
  <line x1="216.67" y1="335.00" x2="438.89" y2="145.00" stroke="#3b82f6" stroke-width="2"  />
  <circle cx="216.67" cy="335.00" r="5" fill="#3b82f6" />
  <text x="226.67" y="325.00" font-family="Inter, sans-serif" font-size="12" font-weight="bold" fill="#3b82f6" text-anchor="start" dominant-baseline="middle">A(2, 1)</text>
  <circle cx="438.89" cy="145.00" r="5" fill="#3b82f6" />
  <text x="388.89" y="135.00" font-family="Inter, sans-serif" font-size="12" font-weight="bold" fill="#3b82f6" text-anchor="start" dominant-baseline="middle">B(6, 5)</text>
  <circle cx="327.78" cy="240.00" r="6" fill="#ef4444" />
  <text x="337.78" y="225.00" font-family="Inter, sans-serif" font-size="12" font-weight="bold" fill="#ef4444" text-anchor="start" dominant-baseline="middle">M(4, 3)</text>
  <line x1="267.02" y1="281.42" x2="277.42" y2="293.58" stroke="#22c55e" stroke-width="2"  />
  <line x1="378.13" y1="186.42" x2="388.53" y2="198.58" stroke="#22c55e" stroke-width="2"  />
  <rect x="189.70" y="433.60" width="220.60" height="32.80" fill="#fef3c7" stroke="#f97316" stroke-width="1" rx="6"/>
  <text x="300.00" y="450.00" font-family="Inter, sans-serif" font-size="12" font-weight="bold" fill="#1e293b" text-anchor="middle" dominant-baseline="middle">M = ((2+6)/2, (1+5)/2) = (4, 3)</text>
</svg>