<svg xmlns="http://www.w3.org/2000/svg" viewBox="0 0 600 480">
  <defs>
        <marker id="arrow-64748b" markerWidth="10" markerHeight="10" 
                refX="8" refY="5.0" orient="auto">
            <polygon points="0,0 10,5.0 0,10" fill="#64748b"/>
        </marker></defs>
  <rect x="0.00" y="0.00" width="600.00" height="480.00" fill="#ffffff" stroke="none" stroke-width="0" rx="0"/>
  <text x="300.00" y="25.00" font-family="Inter, sans-serif" font-size="15" font-weight="bold" fill="#1e293b" text-anchor="middle" dominant-baseline="middle">Recta por Dos Puntos</text>
  <line x1="50.00" y1="430.00" x2="50.00" y2="50.00" stroke="#e2e8f0" stroke-width="0.5"  />
  <line x1="175.00" y1="430.00" x2="175.00" y2="50.00" stroke="#e2e8f0" stroke-width="0.5"  />
  <line x1="237.50" y1="430.00" x2="237.50" y2="50.00" stroke="#e2e8f0" stroke-width="0.5"  />
  <line x1="300.00" y1="430.00" x2="300.00" y2="50.00" stroke="#e2e8f0" stroke-width="0.5"  />
  <line x1="362.50" y1="430.00" x2="362.50" y2="50.00" stroke="#e2e8f0" stroke-width="0.5"  />
  <line x1="425.00" y1="430.00" x2="425.00" y2="50.00" stroke="#e2e8f0" stroke-width="0.5"  />
  <line x1="487.50" y1="430.00" x2="487.50" y2="50.00" stroke="#e2e8f0" stroke-width="0.5"  />
  <line x1="550.00" y1="430.00" x2="550.00" y2="50.00" stroke="#e2e8f0" stroke-width="0.5"  />
  <line x1="50.00" y1="430.00" x2="550.00" y2="430.00" stroke="#e2e8f0" stroke-width="0.5"  />
  <line x1="50.00" y1="321.43" x2="550.00" y2="321.43" stroke="#e2e8f0" stroke-width="0.5"  />
  <line x1="50.00" y1="267.14" x2="550.00" y2="267.14" stroke="#e2e8f0" stroke-width="0.5"  />
  <line x1="50.00" y1="212.86" x2="550.00" y2="212.86" stroke="#e2e8f0" stroke-width="0.5"  />
  <line x1="50.00" y1="158.57" x2="550.00" y2="158.57" stroke="#e2e8f0" stroke-width="0.5"  />
  <line x1="50.00" y1="104.29" x2="550.00" y2="104.29" stroke="#e2e8f0" stroke-width="0.5"  />
  <line x1="50.00" y1="50.00" x2="550.00" y2="50.00" stroke="#e2e8f0" stroke-width="0.5"  />
  <line x1="50.00" y1="375.71" x2="550.00" y2="375.71" stroke="#64748b" stroke-width="2"  marker-end="url(#arrow-64748b)"/>
  <line x1="112.50" y1="430.00" x2="112.50" y2="50.00" stroke="#64748b" stroke-width="2"  marker-end="url(#arrow-64748b)"/>
  <text x="545.00" y="395.71" font-family="Inter, sans-serif" font-size="14" font-weight="bold" fill="#64748b" text-anchor="middle" dominant-baseline="middle">x</text>
  <text x="92.50" y="60.00" font-family="Inter, sans-serif" font-size="14" font-weight="bold" fill="#64748b" text-anchor="middle" dominant-baseline="middle">y</text>
  <line x1="50.00" y1="370.71" x2="50.00" y2="380.71" stroke="#64748b" stroke-width="1"  />
  <text x="50.00" y="393.71" font-family="Inter, sans-serif" font-size="11" font-weight="normal" fill="#64748b" text-anchor="middle" dominant-baseline="middle">-1</text>
  <line x1="175.00" y1="370.71" x2="175.00" y2="380.71" stroke="#64748b" stroke-width="1"  />
  <text x="175.00" y="393.71" font-family="Inter, sans-serif" font-size="11" font-weight="normal" fill="#64748b" text-anchor="middle" dominant-baseline="middle">1</text>
  <line x1="237.50" y1="370.71" x2="237.50" y2="380.71" stroke="#64748b" stroke-width="1"  />
  <text x="237.50" y="393.71" font-family="Inter, sans-serif" font-size="11" font-weight="normal" fill="#64748b" text-anchor="middle" dominant-baseline="middle">2</text>
  <line x1="300.00" y1="370.71" x2="300.00" y2="380.71" stroke="#64748b" stroke-width="1"  />
  <text x="300.00" y="393.71" font-family="Inter, sans-serif" font-size="11" font-weight="normal" fill="#64748b" text-anchor="middle" dominant-baseline="middle">3</text>
  <line x1="362.50" y1="370.71" x2="362.50" y2="380.71" stroke="#64748b" stroke-width="1"  />
  <text x="362.50" y="393.71" font-family="Inter, sans-serif" font-size="11" font-weight="normal" fill="#64748b" text-anchor="middle" dominant-baseline="middle">4</text>
  <line x1="425.00" y1="370.71" x2="425.00" y2="380.71" stroke="#64748b" stroke-width="1"  />
  <text x="425.00" y="393.71" font-family="Inter, sans-serif" font-size="11" font-weight="normal" fill="#64748b" text-anchor="middle" dominant-baseline="middle">5</text>
  <line x1="487.50" y1="370.71" x2="487.50" y2="380.71" stroke="#64748b" stroke-width="1"  />
  <text x="487.50" y="393.71" font-family="Inter, sans-serif" font-size="11" font-weight="normal" fill="#64748b" text-anchor="middle" dominant-baseline="middle">6</text>
  <line x1="550.00" y1="370.71" x2="550.00" y2="380.71" stroke="#64748b" stroke-width="1"  />
  <text x="550.00" y="393.71" font-family="Inter, sans-serif" font-size="11" font-weight="normal" fill="#64748b" text-anchor="middle" dominant-baseline="middle">7</text>
  <line x1="107.50" y1="430.00" x2="117.50" y2="430.00" stroke="#64748b" stroke-width="1"  />
  <text x="97.50" y="430.00" font-family="Inter, sans-serif" font-size="11" font-weight="normal" fill="#64748b" text-anchor="end" dominant-baseline="middle">-1</text>
  <line x1="107.50" y1="321.43" x2="117.50" y2="321.43" stroke="#64748b" stroke-width="1"  />
  <text x="97.50" y="321.43" font-family="Inter, sans-serif" font-size="11" font-weight="normal" fill="#64748b" text-anchor="end" dominant-baseline="middle">1</text>
  <line x1="107.50" y1="267.14" x2="117.50" y2="267.14" stroke="#64748b" stroke-width="1"  />
  <text x="97.50" y="267.14" font-family="Inter, sans-serif" font-size="11" font-weight="normal" fill="#64748b" text-anchor="end" dominant-baseline="middle">2</text>
  <line x1="107.50" y1="212.86" x2="117.50" y2="212.86" stroke="#64748b" stroke-width="1"  />
  <text x="97.50" y="212.86" font-family="Inter, sans-serif" font-size="11" font-weight="normal" fill="#64748b" text-anchor="end" dominant-baseline="middle">3</text>
  <line x1="107.50" y1="158.57" x2="117.50" y2="158.57" stroke="#64748b" stroke-width="1"  />
  <text x="97.50" y="158.57" font-family="Inter, sans-serif" font-size="11" font-weight="normal" fill="#64748b" text-anchor="end" dominant-baseline="middle">4</text>
  <line x1="107.50" y1="104.29" x2="117.50" y2="104.29" stroke="#64748b" stroke-width="1"  />
  <text x="97.50" y="104.29" font-family="Inter, sans-serif" font-size="11" font-weight="normal" fill="#64748b" text-anchor="end" dominant-baseline="middle">5</text>
  <line x1="107.50" y1="50.00" x2="117.50" y2="50.00" stroke="#64748b" stroke-width="1"  />
  <text x="97.50" y="50.00" font-family="Inter, sans-serif" font-size="11" font-weight="normal" fill="#64748b" text-anchor="end" dominant-baseline="middle">6</text>
  <text x="100.50" y="390.71" font-family="Inter, sans-serif" font-size="11" font-weight="normal" fill="#64748b" text-anchor="middle" dominant-baseline="middle">O</text>
  <line x1="81.25" y1="382.50" x2="518.75" y2="97.50" stroke="#3b82f6" stroke-width="2.5"  />
  <circle cx="175.00" cy="321.43" r="6" fill="#ef4444" />
  <text x="185.00" y="311.43" font-family="Inter, sans-serif" font-size="12" font-weight="bold" fill="#ef4444" text-anchor="start" dominant-baseline="middle">P₁(1, 1)</text>
  <circle cx="425.00" cy="158.57" r="6" fill="#22c55e" />
  <text x="365.00" y="148.57" font-family="Inter, sans-serif" font-size="12" font-weight="bold" fill="#22c55e" text-anchor="start" dominant-baseline="middle">P₂(5, 4)</text>
  <rect x="174.02" y="434.30" width="251.95" height="31.40" fill="#fef3c7" stroke="#f97316" stroke-width="1" rx="6"/>
  <text x="300.00" y="450.00" font-family="Inter, sans-serif" font-size="11" font-weight="bold" fill="#1e293b" text-anchor="middle" dominant-baseline="middle">(y - y₁)/(y₂ - y₁) = (x - x₁)/(x₂ - x₁)</text>
</svg>