<svg xmlns="http://www.w3.org/2000/svg" viewBox="0 0 600 480">
  <defs>
        <marker id="arrow-64748b" markerWidth="10" markerHeight="10" 
                refX="8" refY="5.0" orient="auto">
            <polygon points="0,0 10,5.0 0,10" fill="#64748b"/>
        </marker></defs>
  <rect x="0.00" y="0.00" width="600.00" height="480.00" fill="#ffffff" stroke="none" stroke-width="0" rx="0"/>
  <text x="300.00" y="25.00" font-family="Inter, sans-serif" font-size="15" font-weight="bold" fill="#1e293b" text-anchor="middle" dominant-baseline="middle">Rectas Horizontales y Verticales</text>
  <line x1="50.00" y1="430.00" x2="50.00" y2="50.00" stroke="#e2e8f0" stroke-width="0.5"  />
  <line x1="100.00" y1="430.00" x2="100.00" y2="50.00" stroke="#e2e8f0" stroke-width="0.5"  />
  <line x1="150.00" y1="430.00" x2="150.00" y2="50.00" stroke="#e2e8f0" stroke-width="0.5"  />
  <line x1="200.00" y1="430.00" x2="200.00" y2="50.00" stroke="#e2e8f0" stroke-width="0.5"  />
  <line x1="250.00" y1="430.00" x2="250.00" y2="50.00" stroke="#e2e8f0" stroke-width="0.5"  />
  <line x1="350.00" y1="430.00" x2="350.00" y2="50.00" stroke="#e2e8f0" stroke-width="0.5"  />
  <line x1="400.00" y1="430.00" x2="400.00" y2="50.00" stroke="#e2e8f0" stroke-width="0.5"  />
  <line x1="450.00" y1="430.00" x2="450.00" y2="50.00" stroke="#e2e8f0" stroke-width="0.5"  />
  <line x1="500.00" y1="430.00" x2="500.00" y2="50.00" stroke="#e2e8f0" stroke-width="0.5"  />
  <line x1="550.00" y1="430.00" x2="550.00" y2="50.00" stroke="#e2e8f0" stroke-width="0.5"  />
  <line x1="50.00" y1="430.00" x2="550.00" y2="430.00" stroke="#e2e8f0" stroke-width="0.5"  />
  <line x1="50.00" y1="387.78" x2="550.00" y2="387.78" stroke="#e2e8f0" stroke-width="0.5"  />
  <line x1="50.00" y1="345.56" x2="550.00" y2="345.56" stroke="#e2e8f0" stroke-width="0.5"  />
  <line x1="50.00" y1="303.33" x2="550.00" y2="303.33" stroke="#e2e8f0" stroke-width="0.5"  />
  <line x1="50.00" y1="218.89" x2="550.00" y2="218.89" stroke="#e2e8f0" stroke-width="0.5"  />
  <line x1="50.00" y1="176.67" x2="550.00" y2="176.67" stroke="#e2e8f0" stroke-width="0.5"  />
  <line x1="50.00" y1="134.44" x2="550.00" y2="134.44" stroke="#e2e8f0" stroke-width="0.5"  />
  <line x1="50.00" y1="92.22" x2="550.00" y2="92.22" stroke="#e2e8f0" stroke-width="0.5"  />
  <line x1="50.00" y1="50.00" x2="550.00" y2="50.00" stroke="#e2e8f0" stroke-width="0.5"  />
  <line x1="50.00" y1="261.11" x2="550.00" y2="261.11" stroke="#64748b" stroke-width="2"  marker-end="url(#arrow-64748b)"/>
  <line x1="300.00" y1="430.00" x2="300.00" y2="50.00" stroke="#64748b" stroke-width="2"  marker-end="url(#arrow-64748b)"/>
  <text x="545.00" y="281.11" font-family="Inter, sans-serif" font-size="14" font-weight="bold" fill="#64748b" text-anchor="middle" dominant-baseline="middle">x</text>
  <text x="280.00" y="60.00" font-family="Inter, sans-serif" font-size="14" font-weight="bold" fill="#64748b" text-anchor="middle" dominant-baseline="middle">y</text>
  <line x1="50.00" y1="256.11" x2="50.00" y2="266.11" stroke="#64748b" stroke-width="1"  />
  <text x="50.00" y="279.11" font-family="Inter, sans-serif" font-size="11" font-weight="normal" fill="#64748b" text-anchor="middle" dominant-baseline="middle">-5</text>
  <line x1="100.00" y1="256.11" x2="100.00" y2="266.11" stroke="#64748b" stroke-width="1"  />
  <text x="100.00" y="279.11" font-family="Inter, sans-serif" font-size="11" font-weight="normal" fill="#64748b" text-anchor="middle" dominant-baseline="middle">-4</text>
  <line x1="150.00" y1="256.11" x2="150.00" y2="266.11" stroke="#64748b" stroke-width="1"  />
  <text x="150.00" y="279.11" font-family="Inter, sans-serif" font-size="11" font-weight="normal" fill="#64748b" text-anchor="middle" dominant-baseline="middle">-3</text>
  <line x1="200.00" y1="256.11" x2="200.00" y2="266.11" stroke="#64748b" stroke-width="1"  />
  <text x="200.00" y="279.11" font-family="Inter, sans-serif" font-size="11" font-weight="normal" fill="#64748b" text-anchor="middle" dominant-baseline="middle">-2</text>
  <line x1="250.00" y1="256.11" x2="250.00" y2="266.11" stroke="#64748b" stroke-width="1"  />
  <text x="250.00" y="279.11" font-family="Inter, sans-serif" font-size="11" font-weight="normal" fill="#64748b" text-anchor="middle" dominant-baseline="middle">-1</text>
  <line x1="350.00" y1="256.11" x2="350.00" y2="266.11" stroke="#64748b" stroke-width="1"  />
  <text x="350.00" y="279.11" font-family="Inter, sans-serif" font-size="11" font-weight="normal" fill="#64748b" text-anchor="middle" dominant-baseline="middle">1</text>
  <line x1="400.00" y1="256.11" x2="400.00" y2="266.11" stroke="#64748b" stroke-width="1"  />
  <text x="400.00" y="279.11" font-family="Inter, sans-serif" font-size="11" font-weight="normal" fill="#64748b" text-anchor="middle" dominant-baseline="middle">2</text>
  <line x1="450.00" y1="256.11" x2="450.00" y2="266.11" stroke="#64748b" stroke-width="1"  />
  <text x="450.00" y="279.11" font-family="Inter, sans-serif" font-size="11" font-weight="normal" fill="#64748b" text-anchor="middle" dominant-baseline="middle">3</text>
  <line x1="500.00" y1="256.11" x2="500.00" y2="266.11" stroke="#64748b" stroke-width="1"  />
  <text x="500.00" y="279.11" font-family="Inter, sans-serif" font-size="11" font-weight="normal" fill="#64748b" text-anchor="middle" dominant-baseline="middle">4</text>
  <line x1="550.00" y1="256.11" x2="550.00" y2="266.11" stroke="#64748b" stroke-width="1"  />
  <text x="550.00" y="279.11" font-family="Inter, sans-serif" font-size="11" font-weight="normal" fill="#64748b" text-anchor="middle" dominant-baseline="middle">5</text>
  <line x1="295.00" y1="430.00" x2="305.00" y2="430.00" stroke="#64748b" stroke-width="1"  />
  <text x="285.00" y="430.00" font-family="Inter, sans-serif" font-size="11" font-weight="normal" fill="#64748b" text-anchor="end" dominant-baseline="middle">-4</text>
  <line x1="295.00" y1="387.78" x2="305.00" y2="387.78" stroke="#64748b" stroke-width="1"  />
  <text x="285.00" y="387.78" font-family="Inter, sans-serif" font-size="11" font-weight="normal" fill="#64748b" text-anchor="end" dominant-baseline="middle">-3</text>
  <line x1="295.00" y1="345.56" x2="305.00" y2="345.56" stroke="#64748b" stroke-width="1"  />
  <text x="285.00" y="345.56" font-family="Inter, sans-serif" font-size="11" font-weight="normal" fill="#64748b" text-anchor="end" dominant-baseline="middle">-2</text>
  <line x1="295.00" y1="303.33" x2="305.00" y2="303.33" stroke="#64748b" stroke-width="1"  />
  <text x="285.00" y="303.33" font-family="Inter, sans-serif" font-size="11" font-weight="normal" fill="#64748b" text-anchor="end" dominant-baseline="middle">-1</text>
  <line x1="295.00" y1="218.89" x2="305.00" y2="218.89" stroke="#64748b" stroke-width="1"  />
  <text x="285.00" y="218.89" font-family="Inter, sans-serif" font-size="11" font-weight="normal" fill="#64748b" text-anchor="end" dominant-baseline="middle">1</text>
  <line x1="295.00" y1="176.67" x2="305.00" y2="176.67" stroke="#64748b" stroke-width="1"  />
  <text x="285.00" y="176.67" font-family="Inter, sans-serif" font-size="11" font-weight="normal" fill="#64748b" text-anchor="end" dominant-baseline="middle">2</text>
  <line x1="295.00" y1="134.44" x2="305.00" y2="134.44" stroke="#64748b" stroke-width="1"  />
  <text x="285.00" y="134.44" font-family="Inter, sans-serif" font-size="11" font-weight="normal" fill="#64748b" text-anchor="end" dominant-baseline="middle">3</text>
  <line x1="295.00" y1="92.22" x2="305.00" y2="92.22" stroke="#64748b" stroke-width="1"  />
  <text x="285.00" y="92.22" font-family="Inter, sans-serif" font-size="11" font-weight="normal" fill="#64748b" text-anchor="end" dominant-baseline="middle">4</text>
  <line x1="295.00" y1="50.00" x2="305.00" y2="50.00" stroke="#64748b" stroke-width="1"  />
  <text x="285.00" y="50.00" font-family="Inter, sans-serif" font-size="11" font-weight="normal" fill="#64748b" text-anchor="end" dominant-baseline="middle">5</text>
  <text x="288.00" y="276.11" font-family="Inter, sans-serif" font-size="11" font-weight="normal" fill="#64748b" text-anchor="middle" dominant-baseline="middle">O</text>
  <line x1="50.00" y1="134.44" x2="550.00" y2="134.44" stroke="#3b82f6" stroke-width="2.5"  />
  <text x="500.00" y="122.44" font-family="Inter, sans-serif" font-size="10" font-weight="bold" fill="#3b82f6" text-anchor="middle" dominant-baseline="middle">y = 3 (m = 0)</text>
  <line x1="50.00" y1="345.56" x2="550.00" y2="345.56" stroke="#f59e0b" stroke-width="2.5"  />
  <text x="500.00" y="363.56" font-family="Inter, sans-serif" font-size="10" font-weight="bold" fill="#f59e0b" text-anchor="middle" dominant-baseline="middle">y = -2 (m = 0)</text>
  <line x1="400.00" y1="430.00" x2="400.00" y2="50.00" stroke="#ef4444" stroke-width="2.5"  />
  <text x="410.00" y="71.11" font-family="Inter, sans-serif" font-size="10" font-weight="bold" fill="#ef4444" text-anchor="middle" dominant-baseline="middle">x = 2</text>
  <line x1="150.00" y1="430.00" x2="150.00" y2="50.00" stroke="#a855f7" stroke-width="2.5"  />
  <text x="110.00" y="71.11" font-family="Inter, sans-serif" font-size="10" font-weight="bold" fill="#a855f7" text-anchor="middle" dominant-baseline="middle">x = -3</text>
  <rect x="400.00" y="390.00" width="180.00" height="75.00" fill="#f8fafc" stroke="#e2e8f0" stroke-width="0" rx="8"/>
  <text x="490.00" y="405.00" font-family="Inter, sans-serif" font-size="11" font-weight="bold" fill="#1e293b" text-anchor="middle" dominant-baseline="middle">Casos especiales:</text>
  <text x="415.00" y="425.00" font-family="Inter, sans-serif" font-size="10" font-weight="normal" fill="#3b82f6" text-anchor="start" dominant-baseline="middle">Horizontales: m = 0</text>
  <text x="415.00" y="445.00" font-family="Inter, sans-serif" font-size="10" font-weight="normal" fill="#ef4444" text-anchor="start" dominant-baseline="middle">Verticales: m indefinida</text>
  <text x="415.00" y="460.00" font-family="Inter, sans-serif" font-size="9" font-weight="normal" fill="#64748b" text-anchor="start" dominant-baseline="middle">(no se puede dividir รท 0)</text>
</svg>