<svg xmlns="http://www.w3.org/2000/svg" viewBox="0 0 600 480">
  <defs>
        <marker id="arrow-64748b" markerWidth="10" markerHeight="10" 
                refX="8" refY="5.0" orient="auto">
            <polygon points="0,0 10,5.0 0,10" fill="#64748b"/>
        </marker></defs>
  <rect x="0.00" y="0.00" width="600.00" height="480.00" fill="#ffffff" stroke="none" stroke-width="0" rx="0"/>
  <text x="300.00" y="25.00" font-family="Inter, sans-serif" font-size="15" font-weight="bold" fill="#1e293b" text-anchor="middle" dominant-baseline="middle">Rectas Horizontales y Verticales</text>
  <line x1="50.00" y1="430.00" x2="50.00" y2="50.00" stroke="#e2e8f0" stroke-width="0.5"  />
  <line x1="100.00" y1="430.00" x2="100.00" y2="50.00" stroke="#e2e8f0" stroke-width="0.5"  />
  <line x1="150.00" y1="430.00" x2="150.00" y2="50.00" stroke="#e2e8f0" stroke-width="0.5"  />
  <line x1="200.00" y1="430.00" x2="200.00" y2="50.00" stroke="#e2e8f0" stroke-width="0.5"  />
  <line x1="250.00" y1="430.00" x2="250.00" y2="50.00" stroke="#e2e8f0" stroke-width="0.5"  />
  <line x1="350.00" y1="430.00" x2="350.00" y2="50.00" stroke="#e2e8f0" stroke-width="0.5"  />
  <line x1="400.00" y1="430.00" x2="400.00" y2="50.00" stroke="#e2e8f0" stroke-width="0.5"  />
  <line x1="450.00" y1="430.00" x2="450.00" y2="50.00" stroke="#e2e8f0" stroke-width="0.5"  />
  <line x1="500.00" y1="430.00" x2="500.00" y2="50.00" stroke="#e2e8f0" stroke-width="0.5"  />
  <line x1="550.00" y1="430.00" x2="550.00" y2="50.00" stroke="#e2e8f0" stroke-width="0.5"  />
  <line x1="50.00" y1="430.00" x2="550.00" y2="430.00" stroke="#e2e8f0" stroke-width="0.5"  />
  <line x1="50.00" y1="382.50" x2="550.00" y2="382.50" stroke="#e2e8f0" stroke-width="0.5"  />
  <line x1="50.00" y1="335.00" x2="550.00" y2="335.00" stroke="#e2e8f0" stroke-width="0.5"  />
  <line x1="50.00" y1="287.50" x2="550.00" y2="287.50" stroke="#e2e8f0" stroke-width="0.5"  />
  <line x1="50.00" y1="192.50" x2="550.00" y2="192.50" stroke="#e2e8f0" stroke-width="0.5"  />
  <line x1="50.00" y1="145.00" x2="550.00" y2="145.00" stroke="#e2e8f0" stroke-width="0.5"  />
  <line x1="50.00" y1="97.50" x2="550.00" y2="97.50" stroke="#e2e8f0" stroke-width="0.5"  />
  <line x1="50.00" y1="50.00" x2="550.00" y2="50.00" stroke="#e2e8f0" stroke-width="0.5"  />
  <line x1="50.00" y1="240.00" x2="550.00" y2="240.00" stroke="#64748b" stroke-width="2"  marker-end="url(#arrow-64748b)"/>
  <line x1="300.00" y1="430.00" x2="300.00" y2="50.00" stroke="#64748b" stroke-width="2"  marker-end="url(#arrow-64748b)"/>
  <text x="545.00" y="260.00" font-family="Inter, sans-serif" font-size="14" font-weight="bold" fill="#64748b" text-anchor="middle" dominant-baseline="middle">x</text>
  <text x="280.00" y="60.00" font-family="Inter, sans-serif" font-size="14" font-weight="bold" fill="#64748b" text-anchor="middle" dominant-baseline="middle">y</text>
  <line x1="50.00" y1="235.00" x2="50.00" y2="245.00" stroke="#64748b" stroke-width="1"  />
  <text x="50.00" y="258.00" font-family="Inter, sans-serif" font-size="11" font-weight="normal" fill="#64748b" text-anchor="middle" dominant-baseline="middle">-5</text>
  <line x1="100.00" y1="235.00" x2="100.00" y2="245.00" stroke="#64748b" stroke-width="1"  />
  <text x="100.00" y="258.00" font-family="Inter, sans-serif" font-size="11" font-weight="normal" fill="#64748b" text-anchor="middle" dominant-baseline="middle">-4</text>
  <line x1="150.00" y1="235.00" x2="150.00" y2="245.00" stroke="#64748b" stroke-width="1"  />
  <text x="150.00" y="258.00" font-family="Inter, sans-serif" font-size="11" font-weight="normal" fill="#64748b" text-anchor="middle" dominant-baseline="middle">-3</text>
  <line x1="200.00" y1="235.00" x2="200.00" y2="245.00" stroke="#64748b" stroke-width="1"  />
  <text x="200.00" y="258.00" font-family="Inter, sans-serif" font-size="11" font-weight="normal" fill="#64748b" text-anchor="middle" dominant-baseline="middle">-2</text>
  <line x1="250.00" y1="235.00" x2="250.00" y2="245.00" stroke="#64748b" stroke-width="1"  />
  <text x="250.00" y="258.00" font-family="Inter, sans-serif" font-size="11" font-weight="normal" fill="#64748b" text-anchor="middle" dominant-baseline="middle">-1</text>
  <line x1="350.00" y1="235.00" x2="350.00" y2="245.00" stroke="#64748b" stroke-width="1"  />
  <text x="350.00" y="258.00" font-family="Inter, sans-serif" font-size="11" font-weight="normal" fill="#64748b" text-anchor="middle" dominant-baseline="middle">1</text>
  <line x1="400.00" y1="235.00" x2="400.00" y2="245.00" stroke="#64748b" stroke-width="1"  />
  <text x="400.00" y="258.00" font-family="Inter, sans-serif" font-size="11" font-weight="normal" fill="#64748b" text-anchor="middle" dominant-baseline="middle">2</text>
  <line x1="450.00" y1="235.00" x2="450.00" y2="245.00" stroke="#64748b" stroke-width="1"  />
  <text x="450.00" y="258.00" font-family="Inter, sans-serif" font-size="11" font-weight="normal" fill="#64748b" text-anchor="middle" dominant-baseline="middle">3</text>
  <line x1="500.00" y1="235.00" x2="500.00" y2="245.00" stroke="#64748b" stroke-width="1"  />
  <text x="500.00" y="258.00" font-family="Inter, sans-serif" font-size="11" font-weight="normal" fill="#64748b" text-anchor="middle" dominant-baseline="middle">4</text>
  <line x1="550.00" y1="235.00" x2="550.00" y2="245.00" stroke="#64748b" stroke-width="1"  />
  <text x="550.00" y="258.00" font-family="Inter, sans-serif" font-size="11" font-weight="normal" fill="#64748b" text-anchor="middle" dominant-baseline="middle">5</text>
  <line x1="295.00" y1="430.00" x2="305.00" y2="430.00" stroke="#64748b" stroke-width="1"  />
  <text x="285.00" y="430.00" font-family="Inter, sans-serif" font-size="11" font-weight="normal" fill="#64748b" text-anchor="end" dominant-baseline="middle">-4</text>
  <line x1="295.00" y1="382.50" x2="305.00" y2="382.50" stroke="#64748b" stroke-width="1"  />
  <text x="285.00" y="382.50" font-family="Inter, sans-serif" font-size="11" font-weight="normal" fill="#64748b" text-anchor="end" dominant-baseline="middle">-3</text>
  <line x1="295.00" y1="335.00" x2="305.00" y2="335.00" stroke="#64748b" stroke-width="1"  />
  <text x="285.00" y="335.00" font-family="Inter, sans-serif" font-size="11" font-weight="normal" fill="#64748b" text-anchor="end" dominant-baseline="middle">-2</text>
  <line x1="295.00" y1="287.50" x2="305.00" y2="287.50" stroke="#64748b" stroke-width="1"  />
  <text x="285.00" y="287.50" font-family="Inter, sans-serif" font-size="11" font-weight="normal" fill="#64748b" text-anchor="end" dominant-baseline="middle">-1</text>
  <line x1="295.00" y1="192.50" x2="305.00" y2="192.50" stroke="#64748b" stroke-width="1"  />
  <text x="285.00" y="192.50" font-family="Inter, sans-serif" font-size="11" font-weight="normal" fill="#64748b" text-anchor="end" dominant-baseline="middle">1</text>
  <line x1="295.00" y1="145.00" x2="305.00" y2="145.00" stroke="#64748b" stroke-width="1"  />
  <text x="285.00" y="145.00" font-family="Inter, sans-serif" font-size="11" font-weight="normal" fill="#64748b" text-anchor="end" dominant-baseline="middle">2</text>
  <line x1="295.00" y1="97.50" x2="305.00" y2="97.50" stroke="#64748b" stroke-width="1"  />
  <text x="285.00" y="97.50" font-family="Inter, sans-serif" font-size="11" font-weight="normal" fill="#64748b" text-anchor="end" dominant-baseline="middle">3</text>
  <line x1="295.00" y1="50.00" x2="305.00" y2="50.00" stroke="#64748b" stroke-width="1"  />
  <text x="285.00" y="50.00" font-family="Inter, sans-serif" font-size="11" font-weight="normal" fill="#64748b" text-anchor="end" dominant-baseline="middle">4</text>
  <text x="288.00" y="255.00" font-family="Inter, sans-serif" font-size="11" font-weight="normal" fill="#64748b" text-anchor="middle" dominant-baseline="middle">O</text>
  <line x1="50.00" y1="145.00" x2="550.00" y2="145.00" stroke="#3b82f6" stroke-width="2.5"  />
  <line x1="50.00" y1="287.50" x2="550.00" y2="287.50" stroke="#22c55e" stroke-width="2.5"  />
  <text x="500.00" y="133.00" font-family="Inter, sans-serif" font-size="10" font-weight="bold" fill="#3b82f6" text-anchor="middle" dominant-baseline="middle">y = 2 (A=0)</text>
  <text x="500.00" y="302.50" font-family="Inter, sans-serif" font-size="10" font-weight="bold" fill="#22c55e" text-anchor="middle" dominant-baseline="middle">y = -1 (A=0)</text>
  <line x1="450.00" y1="430.00" x2="450.00" y2="50.00" stroke="#ef4444" stroke-width="2.5"  />
  <line x1="200.00" y1="430.00" x2="200.00" y2="50.00" stroke="#f97316" stroke-width="2.5"  />
  <text x="458.00" y="73.75" font-family="Inter, sans-serif" font-size="10" font-weight="bold" fill="#ef4444" text-anchor="start" dominant-baseline="middle">x = 3 (B=0)</text>
  <text x="140.00" y="73.75" font-family="Inter, sans-serif" font-size="10" font-weight="bold" fill="#f97316" text-anchor="middle" dominant-baseline="middle">x = -2 (B=0)</text>
  <rect x="420.00" y="390.00" width="160.00" height="75.00" fill="#f8fafc" stroke="#e2e8f0" stroke-width="0" rx="8"/>
  <text x="500.00" y="408.00" font-family="Inter, sans-serif" font-size="10" font-weight="bold" fill="#1e293b" text-anchor="middle" dominant-baseline="middle">En Ax + By + C = 0:</text>
  <text x="435.00" y="428.00" font-family="Inter, sans-serif" font-size="10" font-weight="normal" fill="#3b82f6" text-anchor="start" dominant-baseline="middle">A = 0 → Horizontal</text>
  <text x="435.00" y="448.00" font-family="Inter, sans-serif" font-size="10" font-weight="normal" fill="#ef4444" text-anchor="start" dominant-baseline="middle">B = 0 → Vertical</text>
</svg>