<svg xmlns="http://www.w3.org/2000/svg" viewBox="0 0 600 480">
  <defs>
        <marker id="arrow-64748b" markerWidth="10" markerHeight="10" 
                refX="8" refY="5.0" orient="auto">
            <polygon points="0,0 10,5.0 0,10" fill="#64748b"/>
        </marker></defs>
  <rect x="0.00" y="0.00" width="600.00" height="480.00" fill="#ffffff" stroke="none" stroke-width="0" rx="0"/>
  <text x="300.00" y="25.00" font-family="Inter, sans-serif" font-size="15" font-weight="bold" fill="#1e293b" text-anchor="middle" dominant-baseline="middle">Familia de Rectas Paralelas</text>
  <line x1="50.00" y1="430.00" x2="50.00" y2="50.00" stroke="#e2e8f0" stroke-width="0.5"  />
  <line x1="112.50" y1="430.00" x2="112.50" y2="50.00" stroke="#e2e8f0" stroke-width="0.5"  />
  <line x1="175.00" y1="430.00" x2="175.00" y2="50.00" stroke="#e2e8f0" stroke-width="0.5"  />
  <line x1="237.50" y1="430.00" x2="237.50" y2="50.00" stroke="#e2e8f0" stroke-width="0.5"  />
  <line x1="362.50" y1="430.00" x2="362.50" y2="50.00" stroke="#e2e8f0" stroke-width="0.5"  />
  <line x1="425.00" y1="430.00" x2="425.00" y2="50.00" stroke="#e2e8f0" stroke-width="0.5"  />
  <line x1="487.50" y1="430.00" x2="487.50" y2="50.00" stroke="#e2e8f0" stroke-width="0.5"  />
  <line x1="550.00" y1="430.00" x2="550.00" y2="50.00" stroke="#e2e8f0" stroke-width="0.5"  />
  <line x1="50.00" y1="430.00" x2="550.00" y2="430.00" stroke="#e2e8f0" stroke-width="0.5"  />
  <line x1="50.00" y1="387.78" x2="550.00" y2="387.78" stroke="#e2e8f0" stroke-width="0.5"  />
  <line x1="50.00" y1="345.56" x2="550.00" y2="345.56" stroke="#e2e8f0" stroke-width="0.5"  />
  <line x1="50.00" y1="303.33" x2="550.00" y2="303.33" stroke="#e2e8f0" stroke-width="0.5"  />
  <line x1="50.00" y1="218.89" x2="550.00" y2="218.89" stroke="#e2e8f0" stroke-width="0.5"  />
  <line x1="50.00" y1="176.67" x2="550.00" y2="176.67" stroke="#e2e8f0" stroke-width="0.5"  />
  <line x1="50.00" y1="134.44" x2="550.00" y2="134.44" stroke="#e2e8f0" stroke-width="0.5"  />
  <line x1="50.00" y1="92.22" x2="550.00" y2="92.22" stroke="#e2e8f0" stroke-width="0.5"  />
  <line x1="50.00" y1="50.00" x2="550.00" y2="50.00" stroke="#e2e8f0" stroke-width="0.5"  />
  <line x1="50.00" y1="261.11" x2="550.00" y2="261.11" stroke="#64748b" stroke-width="2"  marker-end="url(#arrow-64748b)"/>
  <line x1="300.00" y1="430.00" x2="300.00" y2="50.00" stroke="#64748b" stroke-width="2"  marker-end="url(#arrow-64748b)"/>
  <text x="545.00" y="281.11" font-family="Inter, sans-serif" font-size="14" font-weight="bold" fill="#64748b" text-anchor="middle" dominant-baseline="middle">x</text>
  <text x="280.00" y="60.00" font-family="Inter, sans-serif" font-size="14" font-weight="bold" fill="#64748b" text-anchor="middle" dominant-baseline="middle">y</text>
  <line x1="50.00" y1="256.11" x2="50.00" y2="266.11" stroke="#64748b" stroke-width="1"  />
  <text x="50.00" y="279.11" font-family="Inter, sans-serif" font-size="11" font-weight="normal" fill="#64748b" text-anchor="middle" dominant-baseline="middle">-4</text>
  <line x1="112.50" y1="256.11" x2="112.50" y2="266.11" stroke="#64748b" stroke-width="1"  />
  <text x="112.50" y="279.11" font-family="Inter, sans-serif" font-size="11" font-weight="normal" fill="#64748b" text-anchor="middle" dominant-baseline="middle">-3</text>
  <line x1="175.00" y1="256.11" x2="175.00" y2="266.11" stroke="#64748b" stroke-width="1"  />
  <text x="175.00" y="279.11" font-family="Inter, sans-serif" font-size="11" font-weight="normal" fill="#64748b" text-anchor="middle" dominant-baseline="middle">-2</text>
  <line x1="237.50" y1="256.11" x2="237.50" y2="266.11" stroke="#64748b" stroke-width="1"  />
  <text x="237.50" y="279.11" font-family="Inter, sans-serif" font-size="11" font-weight="normal" fill="#64748b" text-anchor="middle" dominant-baseline="middle">-1</text>
  <line x1="362.50" y1="256.11" x2="362.50" y2="266.11" stroke="#64748b" stroke-width="1"  />
  <text x="362.50" y="279.11" font-family="Inter, sans-serif" font-size="11" font-weight="normal" fill="#64748b" text-anchor="middle" dominant-baseline="middle">1</text>
  <line x1="425.00" y1="256.11" x2="425.00" y2="266.11" stroke="#64748b" stroke-width="1"  />
  <text x="425.00" y="279.11" font-family="Inter, sans-serif" font-size="11" font-weight="normal" fill="#64748b" text-anchor="middle" dominant-baseline="middle">2</text>
  <line x1="487.50" y1="256.11" x2="487.50" y2="266.11" stroke="#64748b" stroke-width="1"  />
  <text x="487.50" y="279.11" font-family="Inter, sans-serif" font-size="11" font-weight="normal" fill="#64748b" text-anchor="middle" dominant-baseline="middle">3</text>
  <line x1="550.00" y1="256.11" x2="550.00" y2="266.11" stroke="#64748b" stroke-width="1"  />
  <text x="550.00" y="279.11" font-family="Inter, sans-serif" font-size="11" font-weight="normal" fill="#64748b" text-anchor="middle" dominant-baseline="middle">4</text>
  <line x1="295.00" y1="430.00" x2="305.00" y2="430.00" stroke="#64748b" stroke-width="1"  />
  <text x="285.00" y="430.00" font-family="Inter, sans-serif" font-size="11" font-weight="normal" fill="#64748b" text-anchor="end" dominant-baseline="middle">-4</text>
  <line x1="295.00" y1="387.78" x2="305.00" y2="387.78" stroke="#64748b" stroke-width="1"  />
  <text x="285.00" y="387.78" font-family="Inter, sans-serif" font-size="11" font-weight="normal" fill="#64748b" text-anchor="end" dominant-baseline="middle">-3</text>
  <line x1="295.00" y1="345.56" x2="305.00" y2="345.56" stroke="#64748b" stroke-width="1"  />
  <text x="285.00" y="345.56" font-family="Inter, sans-serif" font-size="11" font-weight="normal" fill="#64748b" text-anchor="end" dominant-baseline="middle">-2</text>
  <line x1="295.00" y1="303.33" x2="305.00" y2="303.33" stroke="#64748b" stroke-width="1"  />
  <text x="285.00" y="303.33" font-family="Inter, sans-serif" font-size="11" font-weight="normal" fill="#64748b" text-anchor="end" dominant-baseline="middle">-1</text>
  <line x1="295.00" y1="218.89" x2="305.00" y2="218.89" stroke="#64748b" stroke-width="1"  />
  <text x="285.00" y="218.89" font-family="Inter, sans-serif" font-size="11" font-weight="normal" fill="#64748b" text-anchor="end" dominant-baseline="middle">1</text>
  <line x1="295.00" y1="176.67" x2="305.00" y2="176.67" stroke="#64748b" stroke-width="1"  />
  <text x="285.00" y="176.67" font-family="Inter, sans-serif" font-size="11" font-weight="normal" fill="#64748b" text-anchor="end" dominant-baseline="middle">2</text>
  <line x1="295.00" y1="134.44" x2="305.00" y2="134.44" stroke="#64748b" stroke-width="1"  />
  <text x="285.00" y="134.44" font-family="Inter, sans-serif" font-size="11" font-weight="normal" fill="#64748b" text-anchor="end" dominant-baseline="middle">3</text>
  <line x1="295.00" y1="92.22" x2="305.00" y2="92.22" stroke="#64748b" stroke-width="1"  />
  <text x="285.00" y="92.22" font-family="Inter, sans-serif" font-size="11" font-weight="normal" fill="#64748b" text-anchor="end" dominant-baseline="middle">4</text>
  <line x1="295.00" y1="50.00" x2="305.00" y2="50.00" stroke="#64748b" stroke-width="1"  />
  <text x="285.00" y="50.00" font-family="Inter, sans-serif" font-size="11" font-weight="normal" fill="#64748b" text-anchor="end" dominant-baseline="middle">5</text>
  <text x="288.00" y="276.11" font-family="Inter, sans-serif" font-size="11" font-weight="normal" fill="#64748b" text-anchor="middle" dominant-baseline="middle">O</text>
  <line x1="81.25" y1="535.56" x2="518.75" y2="240.00" stroke="#ef4444" stroke-width="2"  />
  <text x="492.50" y="261.11" font-family="Inter, sans-serif" font-size="9" font-weight="normal" fill="#ef4444" text-anchor="start" dominant-baseline="middle">k=-3</text>
  <line x1="81.25" y1="472.22" x2="518.75" y2="176.67" stroke="#f97316" stroke-width="2"  />
  <text x="492.50" y="197.78" font-family="Inter, sans-serif" font-size="9" font-weight="normal" fill="#f97316" text-anchor="start" dominant-baseline="middle">k=-1.5</text>
  <line x1="81.25" y1="408.89" x2="518.75" y2="113.33" stroke="#22c55e" stroke-width="2"  />
  <text x="492.50" y="134.44" font-family="Inter, sans-serif" font-size="9" font-weight="normal" fill="#22c55e" text-anchor="start" dominant-baseline="middle">k=0</text>
  <line x1="81.25" y1="345.56" x2="518.75" y2="50.00" stroke="#3b82f6" stroke-width="2"  />
  <text x="492.50" y="71.11" font-family="Inter, sans-serif" font-size="9" font-weight="normal" fill="#3b82f6" text-anchor="start" dominant-baseline="middle">k=1.5</text>
  <line x1="81.25" y1="282.22" x2="518.75" y2="-13.33" stroke="#8b5cf6" stroke-width="2"  />
  <rect x="146.80" y="434.30" width="306.40" height="31.40" fill="#fef3c7" stroke="#f97316" stroke-width="1" rx="6"/>
  <text x="300.00" y="450.00" font-family="Inter, sans-serif" font-size="11" font-weight="bold" fill="#1e293b" text-anchor="middle" dominant-baseline="middle">y = x + k  |  Misma pendiente m = 1, diferente k</text>
</svg>