<svg xmlns="http://www.w3.org/2000/svg" viewBox="0 0 600 600">
  <defs>
        <marker id="arrow-64748b" markerWidth="10" markerHeight="10" 
                refX="8" refY="5.0" orient="auto">
            <polygon points="0,0 10,5.0 0,10" fill="#64748b"/>
        </marker></defs>
  <rect x="0.00" y="0.00" width="600.00" height="600.00" fill="#ffffff" stroke="none" stroke-width="0" rx="0"/>
  <text x="300.00" y="25.00" font-family="Inter, sans-serif" font-size="15" font-weight="bold" fill="#1e293b" text-anchor="middle" dominant-baseline="middle">Tangente a la Parábola</text>
  <line x1="50.00" y1="550.00" x2="50.00" y2="50.00" stroke="#e2e8f0" stroke-width="0.5"  />
  <line x1="112.50" y1="550.00" x2="112.50" y2="50.00" stroke="#e2e8f0" stroke-width="0.5"  />
  <line x1="175.00" y1="550.00" x2="175.00" y2="50.00" stroke="#e2e8f0" stroke-width="0.5"  />
  <line x1="300.00" y1="550.00" x2="300.00" y2="50.00" stroke="#e2e8f0" stroke-width="0.5"  />
  <line x1="362.50" y1="550.00" x2="362.50" y2="50.00" stroke="#e2e8f0" stroke-width="0.5"  />
  <line x1="425.00" y1="550.00" x2="425.00" y2="50.00" stroke="#e2e8f0" stroke-width="0.5"  />
  <line x1="487.50" y1="550.00" x2="487.50" y2="50.00" stroke="#e2e8f0" stroke-width="0.5"  />
  <line x1="550.00" y1="550.00" x2="550.00" y2="50.00" stroke="#e2e8f0" stroke-width="0.5"  />
  <line x1="50.00" y1="550.00" x2="550.00" y2="550.00" stroke="#e2e8f0" stroke-width="0.5"  />
  <line x1="50.00" y1="478.57" x2="550.00" y2="478.57" stroke="#e2e8f0" stroke-width="0.5"  />
  <line x1="50.00" y1="335.71" x2="550.00" y2="335.71" stroke="#e2e8f0" stroke-width="0.5"  />
  <line x1="50.00" y1="264.29" x2="550.00" y2="264.29" stroke="#e2e8f0" stroke-width="0.5"  />
  <line x1="50.00" y1="192.86" x2="550.00" y2="192.86" stroke="#e2e8f0" stroke-width="0.5"  />
  <line x1="50.00" y1="121.43" x2="550.00" y2="121.43" stroke="#e2e8f0" stroke-width="0.5"  />
  <line x1="50.00" y1="50.00" x2="550.00" y2="50.00" stroke="#e2e8f0" stroke-width="0.5"  />
  <line x1="50.00" y1="407.14" x2="550.00" y2="407.14" stroke="#64748b" stroke-width="2"  marker-end="url(#arrow-64748b)"/>
  <line x1="237.50" y1="550.00" x2="237.50" y2="50.00" stroke="#64748b" stroke-width="2"  marker-end="url(#arrow-64748b)"/>
  <text x="545.00" y="427.14" font-family="Inter, sans-serif" font-size="14" font-weight="bold" fill="#64748b" text-anchor="middle" dominant-baseline="middle">x</text>
  <text x="217.50" y="60.00" font-family="Inter, sans-serif" font-size="14" font-weight="bold" fill="#64748b" text-anchor="middle" dominant-baseline="middle">y</text>
  <line x1="50.00" y1="402.14" x2="50.00" y2="412.14" stroke="#64748b" stroke-width="1"  />
  <text x="50.00" y="425.14" font-family="Inter, sans-serif" font-size="11" font-weight="normal" fill="#64748b" text-anchor="middle" dominant-baseline="middle">-6</text>
  <line x1="112.50" y1="402.14" x2="112.50" y2="412.14" stroke="#64748b" stroke-width="1"  />
  <text x="112.50" y="425.14" font-family="Inter, sans-serif" font-size="11" font-weight="normal" fill="#64748b" text-anchor="middle" dominant-baseline="middle">-4</text>
  <line x1="175.00" y1="402.14" x2="175.00" y2="412.14" stroke="#64748b" stroke-width="1"  />
  <text x="175.00" y="425.14" font-family="Inter, sans-serif" font-size="11" font-weight="normal" fill="#64748b" text-anchor="middle" dominant-baseline="middle">-2</text>
  <line x1="300.00" y1="402.14" x2="300.00" y2="412.14" stroke="#64748b" stroke-width="1"  />
  <text x="300.00" y="425.14" font-family="Inter, sans-serif" font-size="11" font-weight="normal" fill="#64748b" text-anchor="middle" dominant-baseline="middle">2</text>
  <line x1="362.50" y1="402.14" x2="362.50" y2="412.14" stroke="#64748b" stroke-width="1"  />
  <text x="362.50" y="425.14" font-family="Inter, sans-serif" font-size="11" font-weight="normal" fill="#64748b" text-anchor="middle" dominant-baseline="middle">4</text>
  <line x1="425.00" y1="402.14" x2="425.00" y2="412.14" stroke="#64748b" stroke-width="1"  />
  <text x="425.00" y="425.14" font-family="Inter, sans-serif" font-size="11" font-weight="normal" fill="#64748b" text-anchor="middle" dominant-baseline="middle">6</text>
  <line x1="487.50" y1="402.14" x2="487.50" y2="412.14" stroke="#64748b" stroke-width="1"  />
  <text x="487.50" y="425.14" font-family="Inter, sans-serif" font-size="11" font-weight="normal" fill="#64748b" text-anchor="middle" dominant-baseline="middle">8</text>
  <line x1="550.00" y1="402.14" x2="550.00" y2="412.14" stroke="#64748b" stroke-width="1"  />
  <text x="550.00" y="425.14" font-family="Inter, sans-serif" font-size="11" font-weight="normal" fill="#64748b" text-anchor="middle" dominant-baseline="middle">10</text>
  <line x1="232.50" y1="550.00" x2="242.50" y2="550.00" stroke="#64748b" stroke-width="1"  />
  <text x="222.50" y="550.00" font-family="Inter, sans-serif" font-size="11" font-weight="normal" fill="#64748b" text-anchor="end" dominant-baseline="middle">-4</text>
  <line x1="232.50" y1="478.57" x2="242.50" y2="478.57" stroke="#64748b" stroke-width="1"  />
  <text x="222.50" y="478.57" font-family="Inter, sans-serif" font-size="11" font-weight="normal" fill="#64748b" text-anchor="end" dominant-baseline="middle">-2</text>
  <line x1="232.50" y1="335.71" x2="242.50" y2="335.71" stroke="#64748b" stroke-width="1"  />
  <text x="222.50" y="335.71" font-family="Inter, sans-serif" font-size="11" font-weight="normal" fill="#64748b" text-anchor="end" dominant-baseline="middle">2</text>
  <line x1="232.50" y1="264.29" x2="242.50" y2="264.29" stroke="#64748b" stroke-width="1"  />
  <text x="222.50" y="264.29" font-family="Inter, sans-serif" font-size="11" font-weight="normal" fill="#64748b" text-anchor="end" dominant-baseline="middle">4</text>
  <line x1="232.50" y1="192.86" x2="242.50" y2="192.86" stroke="#64748b" stroke-width="1"  />
  <text x="222.50" y="192.86" font-family="Inter, sans-serif" font-size="11" font-weight="normal" fill="#64748b" text-anchor="end" dominant-baseline="middle">6</text>
  <line x1="232.50" y1="121.43" x2="242.50" y2="121.43" stroke="#64748b" stroke-width="1"  />
  <text x="222.50" y="121.43" font-family="Inter, sans-serif" font-size="11" font-weight="normal" fill="#64748b" text-anchor="end" dominant-baseline="middle">8</text>
  <line x1="232.50" y1="50.00" x2="242.50" y2="50.00" stroke="#64748b" stroke-width="1"  />
  <text x="222.50" y="50.00" font-family="Inter, sans-serif" font-size="11" font-weight="normal" fill="#64748b" text-anchor="end" dominant-baseline="middle">10</text>
  <text x="225.50" y="422.14" font-family="Inter, sans-serif" font-size="11" font-weight="normal" fill="#64748b" text-anchor="middle" dominant-baseline="middle">O</text>
  <polyline points="18.75,188.39 21.87,194.60 25.00,200.71 28.12,206.74 31.25,212.68 34.38,218.53 37.50,224.29 40.63,229.96 43.75,235.54 46.88,241.03 50.00,246.43 53.12,251.74 56.25,256.96 59.37,262.10 62.50,267.14 65.62,272.10 68.75,276.96 71.88,281.74 75.00,286.43 78.13,291.03 81.25,295.54 84.37,299.96 87.50,304.29 90.62,308.53 93.75,312.68 96.88,316.74 100.00,320.71 103.12,324.60 106.25,328.39 109.38,332.10 112.50,335.71 115.62,339.24 118.75,342.68 121.88,346.03 125.00,349.29 128.12,352.46 131.25,355.54 134.38,358.53 137.50,361.43 140.62,364.24 143.75,366.96 146.88,369.60 150.00,372.14 153.12,374.60 156.25,376.96 159.38,379.24 162.50,381.43 165.62,383.53 168.75,385.54 171.88,387.46 175.00,389.29 178.12,391.03 181.25,392.68 184.38,394.24 187.50,395.71 190.62,397.10 193.75,398.39 196.88,399.60 200.00,400.71 203.12,401.74 206.25,402.68 209.38,403.53 212.50,404.29 215.62,404.96 218.75,405.54 221.88,406.03 225.00,406.43 228.12,406.74 231.25,406.96 234.38,407.10 237.50,407.14 240.62,407.10 243.75,406.96 246.88,406.74 250.00,406.43 253.12,406.03 256.25,405.54 259.38,404.96 262.50,404.29 265.62,403.53 268.75,402.68 271.88,401.74 275.00,400.71 278.12,399.60 281.25,398.39 284.38,397.10 287.50,395.71 290.62,394.24 293.75,392.68 296.88,391.03 300.00,389.29 303.12,387.46 306.25,385.54 309.38,383.53 312.50,381.43 315.62,379.24 318.75,376.96 321.88,374.60 325.00,372.14 328.12,369.60 331.25,366.96 334.38,364.24 337.50,361.43 340.62,358.53 343.75,355.54 346.88,352.46 350.00,349.29 353.12,346.03 356.25,342.68 359.38,339.24 362.50,335.71 365.62,332.10 368.75,328.39 371.88,324.60 375.00,320.71 378.12,316.74 381.25,312.68 384.38,308.53 387.50,304.29 390.62,299.96 393.75,295.54 396.88,291.03 400.00,286.43 403.12,281.74 406.25,276.96 409.38,272.10 412.50,267.14 415.62,262.10 418.75,256.96 421.88,251.74 425.00,246.43 428.12,241.03 431.25,235.54 434.38,229.96 437.50,224.29 440.62,218.53 443.75,212.68 446.88,206.74 450.00,200.71 453.12,194.60 456.25,188.39 459.38,182.10 462.50,175.71 465.62,169.24 468.75,162.68 471.88,156.03 475.00,149.29 478.12,142.46 481.25,135.54 484.38,128.53 487.50,121.43 490.62,114.24 493.75,106.96 496.88,99.60 500.00,92.14 503.12,84.60 506.25,76.96 509.38,69.24 512.50,61.43 515.62,53.53" fill="none" stroke="#3b82f6" stroke-width="2.5"/>
  <circle cx="362.50" cy="335.71" r="5" fill="#ef4444" />
  <text x="372.50" y="325.71" font-family="Inter, sans-serif" font-size="12" font-weight="bold" fill="#ef4444" text-anchor="start" dominant-baseline="middle">P(4, 2)</text>
  <line x1="175.00" y1="550.00" x2="487.50" y2="192.86" stroke="#22c55e" stroke-width="2"  />
  <text x="425.00" y="236.43" font-family="Inter, sans-serif" font-size="10" font-weight="bold" fill="#22c55e" text-anchor="middle" dominant-baseline="middle">x = y + 2</text>
  <circle cx="237.50" cy="335.71" r="4" fill="#ef4444" />
  <text x="247.50" y="325.71" font-family="Inter, sans-serif" font-size="12" font-weight="bold" fill="#ef4444" text-anchor="start" dominant-baseline="middle">F(0, 2)</text>
  <circle cx="237.50" cy="407.14" r="4" fill="#64748b" />
  <text x="247.50" y="397.14" font-family="Inter, sans-serif" font-size="12" font-weight="bold" fill="#64748b" text-anchor="start" dominant-baseline="middle">V(0, 0)</text>
  <rect x="165.50" y="555.00" width="269.00" height="30.00" fill="#fef3c7" stroke="#f97316" stroke-width="1" rx="6"/>
  <text x="300.00" y="570.00" font-family="Inter, sans-serif" font-size="10" font-weight="bold" fill="#1e293b" text-anchor="middle" dominant-baseline="middle">x² = 8y | Tangente en P(4,2): x₀x = 2p(y + y₀)</text>
</svg>