<svg xmlns="http://www.w3.org/2000/svg" viewBox="0 0 600 480">
  <defs>
        <marker id="arrow-64748b" markerWidth="10" markerHeight="10" 
                refX="8" refY="5.0" orient="auto">
            <polygon points="0,0 10,5.0 0,10" fill="#64748b"/>
        </marker></defs>
  <rect x="0.00" y="0.00" width="600.00" height="480.00" fill="#ffffff" stroke="none" stroke-width="0" rx="0"/>
  <text x="300.00" y="25.00" font-family="Inter, sans-serif" font-size="16" font-weight="bold" fill="#1e293b" text-anchor="middle" dominant-baseline="middle">Tipos Pendiente</text>
  <line x1="50.00" y1="430.00" x2="50.00" y2="50.00" stroke="#e2e8f0" stroke-width="0.5"  />
  <line x1="100.00" y1="430.00" x2="100.00" y2="50.00" stroke="#e2e8f0" stroke-width="0.5"  />
  <line x1="150.00" y1="430.00" x2="150.00" y2="50.00" stroke="#e2e8f0" stroke-width="0.5"  />
  <line x1="200.00" y1="430.00" x2="200.00" y2="50.00" stroke="#e2e8f0" stroke-width="0.5"  />
  <line x1="250.00" y1="430.00" x2="250.00" y2="50.00" stroke="#e2e8f0" stroke-width="0.5"  />
  <line x1="350.00" y1="430.00" x2="350.00" y2="50.00" stroke="#e2e8f0" stroke-width="0.5"  />
  <line x1="400.00" y1="430.00" x2="400.00" y2="50.00" stroke="#e2e8f0" stroke-width="0.5"  />
  <line x1="450.00" y1="430.00" x2="450.00" y2="50.00" stroke="#e2e8f0" stroke-width="0.5"  />
  <line x1="500.00" y1="430.00" x2="500.00" y2="50.00" stroke="#e2e8f0" stroke-width="0.5"  />
  <line x1="550.00" y1="430.00" x2="550.00" y2="50.00" stroke="#e2e8f0" stroke-width="0.5"  />
  <line x1="50.00" y1="430.00" x2="550.00" y2="430.00" stroke="#e2e8f0" stroke-width="0.5"  />
  <line x1="50.00" y1="402.86" x2="550.00" y2="402.86" stroke="#e2e8f0" stroke-width="0.5"  />
  <line x1="50.00" y1="375.71" x2="550.00" y2="375.71" stroke="#e2e8f0" stroke-width="0.5"  />
  <line x1="50.00" y1="348.57" x2="550.00" y2="348.57" stroke="#e2e8f0" stroke-width="0.5"  />
  <line x1="50.00" y1="321.43" x2="550.00" y2="321.43" stroke="#e2e8f0" stroke-width="0.5"  />
  <line x1="50.00" y1="294.29" x2="550.00" y2="294.29" stroke="#e2e8f0" stroke-width="0.5"  />
  <line x1="50.00" y1="240.00" x2="550.00" y2="240.00" stroke="#e2e8f0" stroke-width="0.5"  />
  <line x1="50.00" y1="212.86" x2="550.00" y2="212.86" stroke="#e2e8f0" stroke-width="0.5"  />
  <line x1="50.00" y1="185.71" x2="550.00" y2="185.71" stroke="#e2e8f0" stroke-width="0.5"  />
  <line x1="50.00" y1="158.57" x2="550.00" y2="158.57" stroke="#e2e8f0" stroke-width="0.5"  />
  <line x1="50.00" y1="131.43" x2="550.00" y2="131.43" stroke="#e2e8f0" stroke-width="0.5"  />
  <line x1="50.00" y1="104.29" x2="550.00" y2="104.29" stroke="#e2e8f0" stroke-width="0.5"  />
  <line x1="50.00" y1="77.14" x2="550.00" y2="77.14" stroke="#e2e8f0" stroke-width="0.5"  />
  <line x1="50.00" y1="50.00" x2="550.00" y2="50.00" stroke="#e2e8f0" stroke-width="0.5"  />
  <line x1="50.00" y1="267.14" x2="550.00" y2="267.14" stroke="#64748b" stroke-width="2"  marker-end="url(#arrow-64748b)"/>
  <line x1="300.00" y1="430.00" x2="300.00" y2="50.00" stroke="#64748b" stroke-width="2"  marker-end="url(#arrow-64748b)"/>
  <text x="545.00" y="287.14" font-family="Inter, sans-serif" font-size="14" font-weight="bold" fill="#64748b" text-anchor="middle" dominant-baseline="middle">x</text>
  <text x="280.00" y="60.00" font-family="Inter, sans-serif" font-size="14" font-weight="bold" fill="#64748b" text-anchor="middle" dominant-baseline="middle">y</text>
  <line x1="50.00" y1="262.14" x2="50.00" y2="272.14" stroke="#64748b" stroke-width="1"  />
  <text x="50.00" y="285.14" font-family="Inter, sans-serif" font-size="11" font-weight="normal" fill="#64748b" text-anchor="middle" dominant-baseline="middle">-5</text>
  <line x1="100.00" y1="262.14" x2="100.00" y2="272.14" stroke="#64748b" stroke-width="1"  />
  <text x="100.00" y="285.14" font-family="Inter, sans-serif" font-size="11" font-weight="normal" fill="#64748b" text-anchor="middle" dominant-baseline="middle">-4</text>
  <line x1="150.00" y1="262.14" x2="150.00" y2="272.14" stroke="#64748b" stroke-width="1"  />
  <text x="150.00" y="285.14" font-family="Inter, sans-serif" font-size="11" font-weight="normal" fill="#64748b" text-anchor="middle" dominant-baseline="middle">-3</text>
  <line x1="200.00" y1="262.14" x2="200.00" y2="272.14" stroke="#64748b" stroke-width="1"  />
  <text x="200.00" y="285.14" font-family="Inter, sans-serif" font-size="11" font-weight="normal" fill="#64748b" text-anchor="middle" dominant-baseline="middle">-2</text>
  <line x1="250.00" y1="262.14" x2="250.00" y2="272.14" stroke="#64748b" stroke-width="1"  />
  <text x="250.00" y="285.14" font-family="Inter, sans-serif" font-size="11" font-weight="normal" fill="#64748b" text-anchor="middle" dominant-baseline="middle">-1</text>
  <line x1="350.00" y1="262.14" x2="350.00" y2="272.14" stroke="#64748b" stroke-width="1"  />
  <text x="350.00" y="285.14" font-family="Inter, sans-serif" font-size="11" font-weight="normal" fill="#64748b" text-anchor="middle" dominant-baseline="middle">1</text>
  <line x1="400.00" y1="262.14" x2="400.00" y2="272.14" stroke="#64748b" stroke-width="1"  />
  <text x="400.00" y="285.14" font-family="Inter, sans-serif" font-size="11" font-weight="normal" fill="#64748b" text-anchor="middle" dominant-baseline="middle">2</text>
  <line x1="450.00" y1="262.14" x2="450.00" y2="272.14" stroke="#64748b" stroke-width="1"  />
  <text x="450.00" y="285.14" font-family="Inter, sans-serif" font-size="11" font-weight="normal" fill="#64748b" text-anchor="middle" dominant-baseline="middle">3</text>
  <line x1="500.00" y1="262.14" x2="500.00" y2="272.14" stroke="#64748b" stroke-width="1"  />
  <text x="500.00" y="285.14" font-family="Inter, sans-serif" font-size="11" font-weight="normal" fill="#64748b" text-anchor="middle" dominant-baseline="middle">4</text>
  <line x1="550.00" y1="262.14" x2="550.00" y2="272.14" stroke="#64748b" stroke-width="1"  />
  <text x="550.00" y="285.14" font-family="Inter, sans-serif" font-size="11" font-weight="normal" fill="#64748b" text-anchor="middle" dominant-baseline="middle">5</text>
  <line x1="295.00" y1="430.00" x2="305.00" y2="430.00" stroke="#64748b" stroke-width="1"  />
  <text x="285.00" y="430.00" font-family="Inter, sans-serif" font-size="11" font-weight="normal" fill="#64748b" text-anchor="end" dominant-baseline="middle">-6</text>
  <line x1="295.00" y1="402.86" x2="305.00" y2="402.86" stroke="#64748b" stroke-width="1"  />
  <text x="285.00" y="402.86" font-family="Inter, sans-serif" font-size="11" font-weight="normal" fill="#64748b" text-anchor="end" dominant-baseline="middle">-5</text>
  <line x1="295.00" y1="375.71" x2="305.00" y2="375.71" stroke="#64748b" stroke-width="1"  />
  <text x="285.00" y="375.71" font-family="Inter, sans-serif" font-size="11" font-weight="normal" fill="#64748b" text-anchor="end" dominant-baseline="middle">-4</text>
  <line x1="295.00" y1="348.57" x2="305.00" y2="348.57" stroke="#64748b" stroke-width="1"  />
  <text x="285.00" y="348.57" font-family="Inter, sans-serif" font-size="11" font-weight="normal" fill="#64748b" text-anchor="end" dominant-baseline="middle">-3</text>
  <line x1="295.00" y1="321.43" x2="305.00" y2="321.43" stroke="#64748b" stroke-width="1"  />
  <text x="285.00" y="321.43" font-family="Inter, sans-serif" font-size="11" font-weight="normal" fill="#64748b" text-anchor="end" dominant-baseline="middle">-2</text>
  <line x1="295.00" y1="294.29" x2="305.00" y2="294.29" stroke="#64748b" stroke-width="1"  />
  <text x="285.00" y="294.29" font-family="Inter, sans-serif" font-size="11" font-weight="normal" fill="#64748b" text-anchor="end" dominant-baseline="middle">-1</text>
  <line x1="295.00" y1="240.00" x2="305.00" y2="240.00" stroke="#64748b" stroke-width="1"  />
  <text x="285.00" y="240.00" font-family="Inter, sans-serif" font-size="11" font-weight="normal" fill="#64748b" text-anchor="end" dominant-baseline="middle">1</text>
  <line x1="295.00" y1="212.86" x2="305.00" y2="212.86" stroke="#64748b" stroke-width="1"  />
  <text x="285.00" y="212.86" font-family="Inter, sans-serif" font-size="11" font-weight="normal" fill="#64748b" text-anchor="end" dominant-baseline="middle">2</text>
  <line x1="295.00" y1="185.71" x2="305.00" y2="185.71" stroke="#64748b" stroke-width="1"  />
  <text x="285.00" y="185.71" font-family="Inter, sans-serif" font-size="11" font-weight="normal" fill="#64748b" text-anchor="end" dominant-baseline="middle">3</text>
  <line x1="295.00" y1="158.57" x2="305.00" y2="158.57" stroke="#64748b" stroke-width="1"  />
  <text x="285.00" y="158.57" font-family="Inter, sans-serif" font-size="11" font-weight="normal" fill="#64748b" text-anchor="end" dominant-baseline="middle">4</text>
  <line x1="295.00" y1="131.43" x2="305.00" y2="131.43" stroke="#64748b" stroke-width="1"  />
  <text x="285.00" y="131.43" font-family="Inter, sans-serif" font-size="11" font-weight="normal" fill="#64748b" text-anchor="end" dominant-baseline="middle">5</text>
  <line x1="295.00" y1="104.29" x2="305.00" y2="104.29" stroke="#64748b" stroke-width="1"  />
  <text x="285.00" y="104.29" font-family="Inter, sans-serif" font-size="11" font-weight="normal" fill="#64748b" text-anchor="end" dominant-baseline="middle">6</text>
  <line x1="295.00" y1="77.14" x2="305.00" y2="77.14" stroke="#64748b" stroke-width="1"  />
  <text x="285.00" y="77.14" font-family="Inter, sans-serif" font-size="11" font-weight="normal" fill="#64748b" text-anchor="end" dominant-baseline="middle">7</text>
  <line x1="295.00" y1="50.00" x2="305.00" y2="50.00" stroke="#64748b" stroke-width="1"  />
  <text x="285.00" y="50.00" font-family="Inter, sans-serif" font-size="11" font-weight="normal" fill="#64748b" text-anchor="end" dominant-baseline="middle">8</text>
  <text x="288.00" y="282.14" font-family="Inter, sans-serif" font-size="11" font-weight="normal" fill="#64748b" text-anchor="middle" dominant-baseline="middle">O</text>
  <line x1="150.00" y1="430.00" x2="450.00" y2="104.29" stroke="#22c55e" stroke-width="2.5"  />
  <text x="435.00" y="131.43" font-family="Inter, sans-serif" font-size="12" font-weight="bold" fill="#22c55e" text-anchor="start" dominant-baseline="middle">m = 2 (↗)</text>
  <line x1="100.00" y1="104.29" x2="500.00" y2="430.00" stroke="#ef4444" stroke-width="2.5"  />
  <text x="460.00" y="389.29" font-family="Inter, sans-serif" font-size="12" font-weight="bold" fill="#ef4444" text-anchor="start" dominant-baseline="middle">m = -1.5 (↘)</text>
  <line x1="100.00" y1="212.86" x2="500.00" y2="212.86" stroke="#3b82f6" stroke-width="2.5"  />
  <text x="485.00" y="197.86" font-family="Inter, sans-serif" font-size="12" font-weight="bold" fill="#3b82f6" text-anchor="start" dominant-baseline="middle">m = 0 (→)</text>
  <rect x="420.00" y="400.00" width="160.00" height="65.00" fill="#f8fafc" stroke="#e2e8f0" stroke-width="0" rx="8"/>
  <text x="500.00" y="415.00" font-family="Inter, sans-serif" font-size="11" font-weight="bold" fill="#1e293b" text-anchor="middle" dominant-baseline="middle">Leyenda:</text>
  <line x1="430.00" y1="430.00" x2="460.00" y2="430.00" stroke="#22c55e" stroke-width="3"  />
  <text x="470.00" y="430.00" font-family="Inter, sans-serif" font-size="10" font-weight="normal" fill="#22c55e" text-anchor="start" dominant-baseline="middle">Positiva (sube)</text>
  <line x1="430.00" y1="445.00" x2="460.00" y2="445.00" stroke="#ef4444" stroke-width="3"  />
  <text x="470.00" y="445.00" font-family="Inter, sans-serif" font-size="10" font-weight="normal" fill="#ef4444" text-anchor="start" dominant-baseline="middle">Negativa (baja)</text>
  <line x1="430.00" y1="460.00" x2="460.00" y2="460.00" stroke="#3b82f6" stroke-width="3"  />
  <text x="470.00" y="460.00" font-family="Inter, sans-serif" font-size="10" font-weight="normal" fill="#3b82f6" text-anchor="start" dominant-baseline="middle">Horizontal</text>
</svg>