<svg xmlns="http://www.w3.org/2000/svg" viewBox="0 0 600 500">
  <defs>
        <marker id="arrow-64748b-10" markerWidth="10" markerHeight="10" 
                refX="9.0" refY="5.0" orient="auto"
                markerUnits="userSpaceOnUse">
            <polygon points="0,0 10,5.0 0,10" fill="#64748b"/>
        </marker>

        <marker id="arrow-64748b-10" markerWidth="10" markerHeight="10" 
                refX="9.0" refY="5.0" orient="auto"
                markerUnits="userSpaceOnUse">
            <polygon points="0,0 10,5.0 0,10" fill="#64748b"/>
        </marker></defs>
  <rect x="0.00" y="0.00" width="600.00" height="500.00" fill="white" stroke="none" stroke-width="0" rx="0"/>
  <text x="300.00" y="30.00" font-family="Inter, sans-serif" font-size="16" font-weight="bold" fill="#1e293b" text-anchor="middle" dominant-baseline="middle">Ejemplo 1: x+y=4, x-y=2</text>
  <line x1="60.00" y1="440.00" x2="60.00" y2="60.00" stroke="#e2e8f0" stroke-width="0.5"  />
  <line x1="197.14" y1="440.00" x2="197.14" y2="60.00" stroke="#e2e8f0" stroke-width="0.5"  />
  <line x1="265.71" y1="440.00" x2="265.71" y2="60.00" stroke="#e2e8f0" stroke-width="0.5"  />
  <line x1="334.29" y1="440.00" x2="334.29" y2="60.00" stroke="#e2e8f0" stroke-width="0.5"  />
  <line x1="402.86" y1="440.00" x2="402.86" y2="60.00" stroke="#e2e8f0" stroke-width="0.5"  />
  <line x1="471.43" y1="440.00" x2="471.43" y2="60.00" stroke="#e2e8f0" stroke-width="0.5"  />
  <line x1="540.00" y1="440.00" x2="540.00" y2="60.00" stroke="#e2e8f0" stroke-width="0.5"  />
  <line x1="60.00" y1="440.00" x2="540.00" y2="440.00" stroke="#e2e8f0" stroke-width="0.5"  />
  <line x1="60.00" y1="397.78" x2="540.00" y2="397.78" stroke="#e2e8f0" stroke-width="0.5"  />
  <line x1="60.00" y1="355.56" x2="540.00" y2="355.56" stroke="#e2e8f0" stroke-width="0.5"  />
  <line x1="60.00" y1="271.11" x2="540.00" y2="271.11" stroke="#e2e8f0" stroke-width="0.5"  />
  <line x1="60.00" y1="228.89" x2="540.00" y2="228.89" stroke="#e2e8f0" stroke-width="0.5"  />
  <line x1="60.00" y1="186.67" x2="540.00" y2="186.67" stroke="#e2e8f0" stroke-width="0.5"  />
  <line x1="60.00" y1="144.44" x2="540.00" y2="144.44" stroke="#e2e8f0" stroke-width="0.5"  />
  <line x1="60.00" y1="102.22" x2="540.00" y2="102.22" stroke="#e2e8f0" stroke-width="0.5"  />
  <line x1="60.00" y1="60.00" x2="540.00" y2="60.00" stroke="#e2e8f0" stroke-width="0.5"  />
  <line x1="60.00" y1="313.33" x2="540.00" y2="313.33" stroke="#64748b" stroke-width="2"  marker-end="url(#arrow-64748b-10)"/>
  <line x1="128.57" y1="440.00" x2="128.57" y2="60.00" stroke="#64748b" stroke-width="2"  marker-end="url(#arrow-64748b-10)"/>
  <text x="535.00" y="333.33" font-family="Inter, sans-serif" font-size="14" font-weight="bold" fill="#64748b" text-anchor="middle" dominant-baseline="middle">x</text>
  <text x="108.57" y="70.00" font-family="Inter, sans-serif" font-size="14" font-weight="bold" fill="#64748b" text-anchor="middle" dominant-baseline="middle">y</text>
  <line x1="60.00" y1="308.33" x2="60.00" y2="318.33" stroke="#64748b" stroke-width="1"  />
  <text x="60.00" y="331.33" font-family="Inter, sans-serif" font-size="11" font-weight="normal" fill="#64748b" text-anchor="middle" dominant-baseline="middle">-1</text>
  <line x1="197.14" y1="308.33" x2="197.14" y2="318.33" stroke="#64748b" stroke-width="1"  />
  <text x="197.14" y="331.33" font-family="Inter, sans-serif" font-size="11" font-weight="normal" fill="#64748b" text-anchor="middle" dominant-baseline="middle">1</text>
  <line x1="265.71" y1="308.33" x2="265.71" y2="318.33" stroke="#64748b" stroke-width="1"  />
  <text x="265.71" y="331.33" font-family="Inter, sans-serif" font-size="11" font-weight="normal" fill="#64748b" text-anchor="middle" dominant-baseline="middle">2</text>
  <line x1="334.29" y1="308.33" x2="334.29" y2="318.33" stroke="#64748b" stroke-width="1"  />
  <text x="334.29" y="331.33" font-family="Inter, sans-serif" font-size="11" font-weight="normal" fill="#64748b" text-anchor="middle" dominant-baseline="middle">3</text>
  <line x1="402.86" y1="308.33" x2="402.86" y2="318.33" stroke="#64748b" stroke-width="1"  />
  <text x="402.86" y="331.33" font-family="Inter, sans-serif" font-size="11" font-weight="normal" fill="#64748b" text-anchor="middle" dominant-baseline="middle">4</text>
  <line x1="471.43" y1="308.33" x2="471.43" y2="318.33" stroke="#64748b" stroke-width="1"  />
  <text x="471.43" y="331.33" font-family="Inter, sans-serif" font-size="11" font-weight="normal" fill="#64748b" text-anchor="middle" dominant-baseline="middle">5</text>
  <line x1="540.00" y1="308.33" x2="540.00" y2="318.33" stroke="#64748b" stroke-width="1"  />
  <text x="540.00" y="331.33" font-family="Inter, sans-serif" font-size="11" font-weight="normal" fill="#64748b" text-anchor="middle" dominant-baseline="middle">6</text>
  <line x1="123.57" y1="440.00" x2="133.57" y2="440.00" stroke="#64748b" stroke-width="1"  />
  <text x="113.57" y="440.00" font-family="Inter, sans-serif" font-size="11" font-weight="normal" fill="#64748b" text-anchor="end" dominant-baseline="middle">-3</text>
  <line x1="123.57" y1="397.78" x2="133.57" y2="397.78" stroke="#64748b" stroke-width="1"  />
  <text x="113.57" y="397.78" font-family="Inter, sans-serif" font-size="11" font-weight="normal" fill="#64748b" text-anchor="end" dominant-baseline="middle">-2</text>
  <line x1="123.57" y1="355.56" x2="133.57" y2="355.56" stroke="#64748b" stroke-width="1"  />
  <text x="113.57" y="355.56" font-family="Inter, sans-serif" font-size="11" font-weight="normal" fill="#64748b" text-anchor="end" dominant-baseline="middle">-1</text>
  <line x1="123.57" y1="271.11" x2="133.57" y2="271.11" stroke="#64748b" stroke-width="1"  />
  <text x="113.57" y="271.11" font-family="Inter, sans-serif" font-size="11" font-weight="normal" fill="#64748b" text-anchor="end" dominant-baseline="middle">1</text>
  <line x1="123.57" y1="228.89" x2="133.57" y2="228.89" stroke="#64748b" stroke-width="1"  />
  <text x="113.57" y="228.89" font-family="Inter, sans-serif" font-size="11" font-weight="normal" fill="#64748b" text-anchor="end" dominant-baseline="middle">2</text>
  <line x1="123.57" y1="186.67" x2="133.57" y2="186.67" stroke="#64748b" stroke-width="1"  />
  <text x="113.57" y="186.67" font-family="Inter, sans-serif" font-size="11" font-weight="normal" fill="#64748b" text-anchor="end" dominant-baseline="middle">3</text>
  <line x1="123.57" y1="144.44" x2="133.57" y2="144.44" stroke="#64748b" stroke-width="1"  />
  <text x="113.57" y="144.44" font-family="Inter, sans-serif" font-size="11" font-weight="normal" fill="#64748b" text-anchor="end" dominant-baseline="middle">4</text>
  <line x1="123.57" y1="102.22" x2="133.57" y2="102.22" stroke="#64748b" stroke-width="1"  />
  <text x="113.57" y="102.22" font-family="Inter, sans-serif" font-size="11" font-weight="normal" fill="#64748b" text-anchor="end" dominant-baseline="middle">5</text>
  <line x1="123.57" y1="60.00" x2="133.57" y2="60.00" stroke="#64748b" stroke-width="1"  />
  <text x="113.57" y="60.00" font-family="Inter, sans-serif" font-size="11" font-weight="normal" fill="#64748b" text-anchor="end" dominant-baseline="middle">6</text>
  <text x="116.57" y="328.33" font-family="Inter, sans-serif" font-size="11" font-weight="normal" fill="#64748b" text-anchor="middle" dominant-baseline="middle">O</text>
  <polyline points="60.00,102.22 64.85,105.21 69.70,108.19 74.55,111.18 79.39,114.16 84.24,117.15 89.09,120.13 93.94,123.12 98.79,126.11 103.64,129.09 108.48,132.08 113.33,135.06 118.18,138.05 123.03,141.03 127.88,144.02 132.73,147.00 137.58,149.99 142.42,152.97 147.27,155.96 152.12,158.95 156.97,161.93 161.82,164.92 166.67,167.90 171.52,170.89 176.36,173.87 181.21,176.86 186.06,179.84 190.91,182.83 195.76,185.81 200.61,188.80 205.45,191.78 210.30,194.77 215.15,197.76 220.00,200.74 224.85,203.73 229.70,206.71 234.55,209.70 239.39,212.68 244.24,215.67 249.09,218.65 253.94,221.64 258.79,224.62 263.64,227.61 268.48,230.59 273.33,233.58 278.18,236.57 283.03,239.55 287.88,242.54 292.73,245.52 297.58,248.51 302.42,251.49 307.27,254.48 312.12,257.46 316.97,260.45 321.82,263.43 326.67,266.42 331.52,269.41 336.36,272.39 341.21,275.38 346.06,278.36 350.91,281.35 355.76,284.33 360.61,287.32 365.45,290.30 370.30,293.29 375.15,296.27 380.00,299.26 384.85,302.24 389.70,305.23 394.55,308.22 399.39,311.20 404.24,314.19 409.09,317.17 413.94,320.16 418.79,323.14 423.64,326.13 428.48,329.11 433.33,332.10 438.18,335.08 443.03,338.07 447.88,341.05 452.73,344.04 457.58,347.03 462.42,350.01 467.27,353.00 472.12,355.98 476.97,358.97 481.82,361.95 486.67,364.94 491.52,367.92 496.36,370.91 501.21,373.89 506.06,376.88 510.91,379.87 515.76,382.85 520.61,385.84 525.45,388.82 530.30,391.81 535.15,394.79 540.00,397.78" fill="none" stroke="#3b82f6" stroke-width="3"  stroke-linecap="round" stroke-linejoin="round"/>
  <polyline points="60.00,440.00 64.85,437.01 69.70,434.03 74.55,431.04 79.39,428.06 84.24,425.07 89.09,422.09 93.94,419.10 98.79,416.12 103.64,413.13 108.48,410.15 113.33,407.16 118.18,404.18 123.03,401.19 127.88,398.20 132.73,395.22 137.58,392.23 142.42,389.25 147.27,386.26 152.12,383.28 156.97,380.29 161.82,377.31 166.67,374.32 171.52,371.34 176.36,368.35 181.21,365.36 186.06,362.38 190.91,359.39 195.76,356.41 200.61,353.42 205.45,350.44 210.30,347.45 215.15,344.47 220.00,341.48 224.85,338.50 229.70,335.51 234.55,332.53 239.39,329.54 244.24,326.55 249.09,323.57 253.94,320.58 258.79,317.60 263.64,314.61 268.48,311.63 273.33,308.64 278.18,305.66 283.03,302.67 287.88,299.69 292.73,296.70 297.58,293.71 302.42,290.73 307.27,287.74 312.12,284.76 316.97,281.77 321.82,278.79 326.67,275.80 331.52,272.82 336.36,269.83 341.21,266.85 346.06,263.86 350.91,260.88 355.76,257.89 360.61,254.90 365.45,251.92 370.30,248.93 375.15,245.95 380.00,242.96 384.85,239.98 389.70,236.99 394.55,234.01 399.39,231.02 404.24,228.04 409.09,225.05 413.94,222.07 418.79,219.08 423.64,216.09 428.48,213.11 433.33,210.12 438.18,207.14 443.03,204.15 447.88,201.17 452.73,198.18 457.58,195.20 462.42,192.21 467.27,189.23 472.12,186.24 476.97,183.25 481.82,180.27 486.67,177.28 491.52,174.30 496.36,171.31 501.21,168.33 506.06,165.34 510.91,162.36 515.76,159.37 520.61,156.39 525.45,153.40 530.30,150.42 535.15,147.43 540.00,144.44" fill="none" stroke="#22c55e" stroke-width="3"  stroke-linecap="round" stroke-linejoin="round"/>
  <circle cx="334.29" cy="271.11" r="9" fill="white" />
  <circle cx="334.29" cy="271.11" r="5" fill="#ef4444" stroke="white" stroke-width="2"/>
  <rect x="305.29" y="233.11" width="58.00" height="26.00" fill="white" stroke="#ef4444" stroke-width="1.5" rx="6"/>
  <text x="334.29" y="250.11" font-family="Inter, sans-serif" font-size="12" font-weight="bold" fill="#ef4444" text-anchor="middle" dominant-baseline="middle">(3, 1)</text>
  <rect x="420.00" y="60.00" width="160.00" height="70.00" fill="white" stroke="#e2e8f0" stroke-width="0" rx="8"/>
  <line x1="435.00" y1="80.00" x2="465.00" y2="80.00" stroke="#3b82f6" stroke-width="3"  />
  <text x="475.00" y="84.00" font-family="Inter, sans-serif" font-size="11" font-weight="normal" fill="#1e293b" text-anchor="start" dominant-baseline="middle">y = -x + 4</text>
  <line x1="435.00" y1="100.00" x2="465.00" y2="100.00" stroke="#22c55e" stroke-width="3"  />
  <text x="475.00" y="104.00" font-family="Inter, sans-serif" font-size="11" font-weight="normal" fill="#1e293b" text-anchor="start" dominant-baseline="middle">y = x - 2</text>
</svg>