<svg xmlns="http://www.w3.org/2000/svg" viewBox="0 0 600 400" style="font-family: Inter, system-ui, sans-serif;">
<rect width="600" height="400" fill="#f8fafc" rx="12"/>
<path d="M 100.0 150.0 L 328.8675134594813 150.0 L 271.1324865405187 250.0 L 500.0 250.0" stroke="#f97316" stroke-width="8" stroke-opacity="0.3" fill="none"/>
<line x1="100.0" y1="150.0" x2="500.0" y2="150.0" stroke="#22c55e" stroke-width="3" stroke-linecap="round"/>
<line x1="100.0" y1="250.0" x2="500.0" y2="250.0" stroke="#22c55e" stroke-width="3" stroke-linecap="round"/>
<path d="M 485.0 144.0 L 500.0 150.0 L 485.0 156.0" fill="none" stroke="#22c55e" stroke-width="3" stroke-linecap="round" stroke-linejoin="round"/>
<path d="M 485.0 244.0 L 500.0 250.0 L 485.0 256.0" fill="none" stroke="#22c55e" stroke-width="3" stroke-linecap="round" stroke-linejoin="round"/>
<line x1="195.00" y1="381.87" x2="405.00" y2="18.13" stroke="#14b8a6" stroke-width="3" stroke-linecap="round"/>
<path d="M 328.8675134594813 150.0 L 288.87 150.00 A 40 40 0 0 0 308.87 184.64 Z" fill="#f97316" fill-opacity="0.4" stroke="none" /><path d="M 288.87 150.00 A 40 40 0 0 0 308.87 184.64" fill="none" stroke="#f97316" stroke-width="2" />
<text x="276.91" y="180.00" text-anchor="end" dominant-baseline="middle" font-weight="bold" fill="#1e293b">α</text>
<path d="M 271.1324865405187 250.0 L 311.13 250.00 A 40 40 0 0 0 291.13 215.36 Z" fill="#f97316" fill-opacity="0.4" stroke="none" /><path d="M 311.13 250.00 A 40 40 0 0 0 291.13 215.36" fill="none" stroke="#f97316" stroke-width="2" />
<text x="323.09" y="220.00" text-anchor="start" dominant-baseline="middle" font-weight="bold" fill="#1e293b">α</text>
</svg>