<svg xmlns="http://www.w3.org/2000/svg" viewBox="0 0 600 400" style="font-family: Inter, system-ui, sans-serif;">
<rect width="600" height="400" fill="#f8fafc" rx="12"/>
<defs><marker id="arrowhead" markerWidth="10" markerHeight="7" refX="9" refY="3.5" orient="auto"><polygon points="0 0, 10 3.5, 0 7" fill="#ef4444"/></marker></defs>
<path d="M 100.0 150.0 L 323.3153829077499 150.0 L 276.68461709225005 250.0 L 500.0 250.0" stroke="#f97316" stroke-width="8" stroke-opacity="0.3" fill="none"/>
<line x1="100.00" y1="150.00" x2="500.00" y2="150.00" stroke="#22c55e" stroke-width="3" stroke-linecap="round"/>
<line x1="100.00" y1="250.00" x2="500.00" y2="250.00" stroke="#22c55e" stroke-width="3" stroke-linecap="round"/>
<path d="M 485.0 144.0 L 500.0 150.0 L 485.0 156.0" fill="none" stroke="#22c55e" stroke-width="3" stroke-linecap="round" stroke-linejoin="round"/>
<path d="M 485.0 244.0 L 500.0 250.0 L 485.0 256.0" fill="none" stroke="#22c55e" stroke-width="3" stroke-linecap="round" stroke-linejoin="round"/>
<line x1="211.25" y1="390.32" x2="388.75" y2="9.68" stroke="#14b8a6" stroke-width="3" stroke-linecap="round"/>
<path d="M 323.3153829077499 150.0 L 283.32 150.00 A 40 40 0 0 0 306.41 186.25 Z" fill="#f97316" fill-opacity="0.4" stroke="none" /><path d="M 283.32 150.00 A 40 40 0 0 0 306.41 186.25" fill="none" stroke="#f97316" stroke-width="2" />
<text x="272.71" y="182.24" text-anchor="end" dominant-baseline="middle" font-weight="bold" fill="#1e293b">1</text>
<path d="M 276.68461709225005 250.0 L 316.68 250.00 A 40 40 0 0 0 293.59 213.75 Z" fill="#f97316" fill-opacity="0.4" stroke="none" /><path d="M 316.68 250.00 A 40 40 0 0 0 293.59 213.75" fill="none" stroke="#f97316" stroke-width="2" />
<text x="327.29" y="217.76" text-anchor="start" dominant-baseline="middle" font-weight="bold" fill="#1e293b">1</text>
<path d="M 272.71189615897674 192.23797650080942 Q 320.0 200.0 327.2881038410232 207.76202349919058" fill="none" stroke="#ef4444" stroke-width="2" marker-end="url(#arrowhead)"/>
</svg>