<svg xmlns="http://www.w3.org/2000/svg" viewBox="0 0 600 400" style="font-family: Inter, system-ui, sans-serif;">
<rect width="600" height="400" fill="#f8fafc" rx="12"/>
<line x1="100.0" y1="150.0" x2="500.0" y2="150.0" stroke="#22c55e" stroke-width="3" stroke-linecap="round"/>
<line x1="100.0" y1="250.0" x2="500.0" y2="250.0" stroke="#22c55e" stroke-width="3" stroke-linecap="round"/>
<path d="M 485.0 144.0 L 500.0 150.0 L 485.0 156.0" fill="none" stroke="#22c55e" stroke-width="3" stroke-linecap="round" stroke-linejoin="round"/>
<path d="M 485.0 244.0 L 500.0 250.0 L 485.0 256.0" fill="none" stroke="#22c55e" stroke-width="3" stroke-linecap="round" stroke-linejoin="round"/>
<line x1="228.18" y1="397.34" x2="371.82" y2="2.66" stroke="#14b8a6" stroke-width="3" stroke-linecap="round"/>
<path d="M 318.19851171331015 150.0 L 331.88 112.41 A 40 40 0 0 0 278.20 150.00 Z" fill="#f97316" fill-opacity="0.4" stroke="none" /><path d="M 331.88 112.41 A 40 40 0 0 0 278.20 150.00" fill="none" stroke="#f97316" stroke-width="2" />
<text x="283.78" y="100.85" text-anchor="middle" dominant-baseline="middle" font-weight="bold" fill="#1e293b">100°</text>
<path d="M 281.80148828668985 250.0 L 295.48 212.41 A 40 40 0 0 0 241.80 250.00 Z" fill="#f97316" fill-opacity="0.4" stroke="none" /><path d="M 295.48 212.41 A 40 40 0 0 0 241.80 250.00" fill="none" stroke="#f97316" stroke-width="2" />
<text x="247.39" y="200.85" text-anchor="middle" dominant-baseline="middle" font-weight="bold" fill="#1e293b">?</text>
</svg>