<svg xmlns="http://www.w3.org/2000/svg" viewBox="0 0 600 400" style="font-family: Inter, system-ui, sans-serif;">
<rect width="600" height="400" fill="#f8fafc" rx="12"/>
<path d="M 500.0 130.0 L 312.34288864959257 130.0 L 287.65711135040743 270.0 L 500.0 270.0" stroke="#f97316" stroke-width="8" stroke-opacity="0.3" fill="none"/>
<line x1="100.0" y1="130.0" x2="500.0" y2="130.0" stroke="#22c55e" stroke-width="3" stroke-linecap="round"/>
<line x1="100.0" y1="270.0" x2="500.0" y2="270.0" stroke="#22c55e" stroke-width="3" stroke-linecap="round"/>
<path d="M 485.0 124.0 L 500.0 130.0 L 485.0 136.0" fill="none" stroke="#22c55e" stroke-width="3" stroke-linecap="round" stroke-linejoin="round"/>
<path d="M 485.0 264.0 L 500.0 270.0 L 485.0 276.0" fill="none" stroke="#22c55e" stroke-width="3" stroke-linecap="round" stroke-linejoin="round"/>
<line x1="263.53" y1="406.81" x2="336.47" y2="-6.81" stroke="#14b8a6" stroke-width="3" stroke-linecap="round"/>
<path d="M 312.34288864959257 130.0 L 305.40 169.39 A 40 40 0 0 0 352.34 130.00 Z" fill="#f97316" fill-opacity="0.4" stroke="none" /><path d="M 305.40 169.39 A 40 40 0 0 0 352.34 130.00" fill="none" stroke="#f97316" stroke-width="2" />
<text x="350.91" y="175.96" text-anchor="middle" dominant-baseline="middle" font-weight="bold" fill="#1e293b">y</text>
<path d="M 287.65711135040743 270.0 L 327.66 270.00 A 40 40 0 0 0 294.60 230.61 Z" fill="#f97316" fill-opacity="0.4" stroke="none" /><path d="M 327.66 270.00 A 40 40 0 0 0 294.60 230.61" fill="none" stroke="#f97316" stroke-width="2" />
<text x="333.62" y="231.43" text-anchor="start" dominant-baseline="middle" font-weight="bold" fill="#1e293b">80°</text>
</svg>