<svg xmlns="http://www.w3.org/2000/svg" viewBox="0 0 600 400" style="font-family: Inter, system-ui, sans-serif;">
<rect width="600" height="400" fill="#f8fafc" rx="12"/>
<line x1="256.70" y1="275.00" x2="343.30" y2="125.00" stroke="#f97316" stroke-width="8" stroke-opacity="0.3" />
<line x1="328.87" y1="150.0" x2="500.0" y2="150.0" stroke="#f97316" stroke-width="8" stroke-opacity="0.3" />
<line x1="271.13" y1="250.0" x2="500.0" y2="250.0" stroke="#f97316" stroke-width="8" stroke-opacity="0.3" />
<line x1="100.0" y1="150.0" x2="500.0" y2="150.0" stroke="#22c55e" stroke-width="3" stroke-linecap="round"/>
<line x1="100.0" y1="250.0" x2="500.0" y2="250.0" stroke="#22c55e" stroke-width="3" stroke-linecap="round"/>
<path d="M 485.0 144.0 L 500.0 150.0 L 485.0 156.0" fill="none" stroke="#22c55e" stroke-width="3" stroke-linecap="round" stroke-linejoin="round"/>
<path d="M 485.0 244.0 L 500.0 250.0 L 485.0 256.0" fill="none" stroke="#22c55e" stroke-width="3" stroke-linecap="round" stroke-linejoin="round"/>
<line x1="195.00" y1="381.87" x2="405.00" y2="18.13" stroke="#14b8a6" stroke-width="3" stroke-linecap="round"/>
<path d="M 328.8675134594813 150.0 L 368.87 150.00 A 40 40 0 0 0 348.87 115.36 Z" fill="#f97316" fill-opacity="0.4" stroke="none" /><path d="M 368.87 150.00 A 40 40 0 0 0 348.87 115.36" fill="none" stroke="#f97316" stroke-width="2" />
<text x="380.83" y="120.00" text-anchor="start" dominant-baseline="middle" font-weight="bold" fill="#1e293b">α</text>
<path d="M 271.1324865405187 250.0 L 311.13 250.00 A 40 40 0 0 0 291.13 215.36 Z" fill="#f97316" fill-opacity="0.4" stroke="none" /><path d="M 311.13 250.00 A 40 40 0 0 0 291.13 215.36" fill="none" stroke="#f97316" stroke-width="2" />
<text x="323.09" y="220.00" text-anchor="start" dominant-baseline="middle" font-weight="bold" fill="#1e293b">β</text>
</svg>