<svg xmlns="http://www.w3.org/2000/svg" viewBox="0 0 600 400" style="font-family: Inter, system-ui, sans-serif;">
<rect width="600" height="400" fill="#f8fafc" rx="12"/>
<line x1="100.0" y1="140.0" x2="500.0" y2="140.0" stroke="#22c55e" stroke-width="3" stroke-linecap="round"/>
<line x1="100.0" y1="260.0" x2="500.0" y2="260.0" stroke="#22c55e" stroke-width="3" stroke-linecap="round"/>
<path d="M 485.0 134.0 L 500.0 140.0 L 485.0 146.0" fill="none" stroke="#22c55e" stroke-width="3" stroke-linecap="round" stroke-linejoin="round"/>
<path d="M 485.0 254.0 L 500.0 260.0 L 485.0 266.0" fill="none" stroke="#22c55e" stroke-width="3" stroke-linecap="round" stroke-linejoin="round"/>
<line x1="195.00" y1="381.87" x2="405.00" y2="18.13" stroke="#14b8a6" stroke-width="3" stroke-linecap="round"/>
<path d="M 334.6410161513776 140.0 L 354.64 105.36 A 40 40 0 0 0 294.64 140.00 Z" fill="#f97316" fill-opacity="0.4" stroke="none" /><path d="M 354.64 105.36 A 40 40 0 0 0 294.64 140.00" fill="none" stroke="#f97316" stroke-width="2" />
<text x="304.64" y="88.04" text-anchor="middle" dominant-baseline="middle" font-weight="bold" fill="#1e293b">1</text>
<path d="M 334.6410161513776 140.0 L 374.64 140.00 A 40 40 0 0 0 354.64 105.36 Z" fill="#f97316" fill-opacity="0.4" stroke="none" /><path d="M 374.64 140.00 A 40 40 0 0 0 354.64 105.36" fill="none" stroke="#f97316" stroke-width="2" />
<text x="386.60" y="110.00" text-anchor="start" dominant-baseline="middle" font-weight="bold" fill="#1e293b">2</text>
<path d="M 334.6410161513776 140.0 L 294.64 140.00 A 40 40 0 0 0 314.64 174.64 Z" fill="#22c55e" fill-opacity="0.4" stroke="none" /><path d="M 294.64 140.00 A 40 40 0 0 0 314.64 174.64" fill="none" stroke="#22c55e" stroke-width="2" />
<text x="282.68" y="170.00" text-anchor="end" dominant-baseline="middle" font-weight="bold" fill="#1e293b">3</text>
<path d="M 334.6410161513776 140.0 L 314.64 174.64 A 40 40 0 0 0 374.64 140.00 Z" fill="#22c55e" fill-opacity="0.4" stroke="none" /><path d="M 314.64 174.64 A 40 40 0 0 0 374.64 140.00" fill="none" stroke="#22c55e" stroke-width="2" />
<text x="364.64" y="191.96" text-anchor="middle" dominant-baseline="middle" font-weight="bold" fill="#1e293b">4</text>
<path d="M 265.3589838486224 260.0 L 285.36 225.36 A 40 40 0 0 0 225.36 260.00 Z" fill="#22c55e" fill-opacity="0.4" stroke="none" /><path d="M 285.36 225.36 A 40 40 0 0 0 225.36 260.00" fill="none" stroke="#22c55e" stroke-width="2" />
<text x="235.36" y="208.04" text-anchor="middle" dominant-baseline="middle" font-weight="bold" fill="#1e293b">5</text>
<path d="M 265.3589838486224 260.0 L 305.36 260.00 A 40 40 0 0 0 285.36 225.36 Z" fill="#22c55e" fill-opacity="0.4" stroke="none" /><path d="M 305.36 260.00 A 40 40 0 0 0 285.36 225.36" fill="none" stroke="#22c55e" stroke-width="2" />
<text x="317.32" y="230.00" text-anchor="start" dominant-baseline="middle" font-weight="bold" fill="#1e293b">6</text>
<path d="M 265.3589838486224 260.0 L 225.36 260.00 A 40 40 0 0 0 245.36 294.64 Z" fill="#f97316" fill-opacity="0.4" stroke="none" /><path d="M 225.36 260.00 A 40 40 0 0 0 245.36 294.64" fill="none" stroke="#f97316" stroke-width="2" />
<text x="213.40" y="290.00" text-anchor="end" dominant-baseline="middle" font-weight="bold" fill="#1e293b">7</text>
<path d="M 265.3589838486224 260.0 L 245.36 294.64 A 40 40 0 0 0 305.36 260.00 Z" fill="#f97316" fill-opacity="0.4" stroke="none" /><path d="M 245.36 294.64 A 40 40 0 0 0 305.36 260.00" fill="none" stroke="#f97316" stroke-width="2" />
<text x="295.36" y="311.96" text-anchor="middle" dominant-baseline="middle" font-weight="bold" fill="#1e293b">8</text>
</svg>