<svg xmlns="http://www.w3.org/2000/svg" viewBox="0 0 600 400" style="font-family: Inter, system-ui, sans-serif;">
<rect width="600" height="400" fill="#f8fafc" rx="12"/>
<defs><marker id="arrowhead" markerWidth="10" markerHeight="7" refX="9" refY="3.5" orient="auto"><polygon points="0 0, 10 3.5, 0 7" fill="#ef4444"/></marker></defs>
<line x1="100.00" y1="150.00" x2="500.00" y2="150.00" stroke="#22c55e" stroke-width="3" stroke-linecap="round"/>
<line x1="100.00" y1="250.00" x2="500.00" y2="250.00" stroke="#22c55e" stroke-width="3" stroke-linecap="round"/>
<path d="M 485.0 144.0 L 500.0 150.0 L 485.0 156.0" fill="none" stroke="#22c55e" stroke-width="3" stroke-linecap="round" stroke-linejoin="round"/>
<path d="M 485.0 244.0 L 500.0 250.0 L 485.0 256.0" fill="none" stroke="#22c55e" stroke-width="3" stroke-linecap="round" stroke-linejoin="round"/>
<line x1="118.13" y1="305.00" x2="481.87" y2="95.00" stroke="#14b8a6" stroke-width="3" stroke-linecap="round"/>
<path d="M 213.39745962155607 250.0 L 178.76 270.00 A 40 40 0 0 0 253.40 250.00 Z" fill="#f97316" fill-opacity="0.4" stroke="none" /><path d="M 178.76 270.00 A 40 40 0 0 0 253.40 250.00" fill="none" stroke="#f97316" stroke-width="2" />
<text x="228.93" y="307.96" text-anchor="middle" dominant-baseline="middle" font-weight="bold" fill="#1e293b">?</text>
<path d="M 386.60254037844385 150.0 L 421.24 130.00 A 40 40 0 0 0 346.60 150.00 Z" fill="#f97316" fill-opacity="0.4" stroke="none" /><path d="M 421.24 130.00 A 40 40 0 0 0 346.60 150.00" fill="none" stroke="#f97316" stroke-width="2" />
<text x="371.07" y="92.04" text-anchor="middle" dominant-baseline="middle" font-weight="bold" fill="#1e293b">150°</text>
</svg>