<svg xmlns="http://www.w3.org/2000/svg" viewBox="0 0 600 400" style="font-family: Inter, system-ui, sans-serif;">
<rect width="600" height="400" fill="#f8fafc" rx="12"/>
<defs><marker id="arrowhead" markerWidth="10" markerHeight="7" refX="9" refY="3.5" orient="auto"><polygon points="0 0, 10 3.5, 0 7" fill="#ef4444"/></marker></defs>
<line x1="100.00" y1="150.00" x2="500.00" y2="150.00" stroke="#22c55e" stroke-width="3" stroke-linecap="round"/>
<line x1="100.00" y1="250.00" x2="500.00" y2="250.00" stroke="#22c55e" stroke-width="3" stroke-linecap="round"/>
<path d="M 485.0 144.0 L 500.0 150.0 L 485.0 156.0" fill="none" stroke="#22c55e" stroke-width="3" stroke-linecap="round" stroke-linejoin="round"/>
<path d="M 485.0 244.0 L 500.0 250.0 L 485.0 256.0" fill="none" stroke="#22c55e" stroke-width="3" stroke-linecap="round" stroke-linejoin="round"/>
<line x1="434.99" y1="360.87" x2="165.01" y2="39.13" stroke="#14b8a6" stroke-width="3" stroke-linecap="round"/>
<path d="M 258.045018441136 150.0 L 298.05 150.00 A 40 40 0 0 0 232.33 119.36 Z" fill="#3b82f6" fill-opacity="0.4" stroke="none" /><path d="M 298.05 150.00 A 40 40 0 0 0 232.33 119.36" fill="none" stroke="#3b82f6" stroke-width="2" />
<text x="283.40" y="95.62" text-anchor="middle" dominant-baseline="middle" font-weight="bold" fill="#1e293b">5x - 20</text>
<path d="M 341.954981558864 250.0 L 381.95 250.00 A 40 40 0 0 0 316.24 219.36 Z" fill="#3b82f6" fill-opacity="0.4" stroke="none" /><path d="M 381.95 250.00 A 40 40 0 0 0 316.24 219.36" fill="none" stroke="#3b82f6" stroke-width="2" />
<text x="367.31" y="195.62" text-anchor="middle" dominant-baseline="middle" font-weight="bold" fill="#1e293b">3x + 40</text>
</svg>