<svg xmlns="http://www.w3.org/2000/svg" viewBox="0 0 600 500" style="font-family: Inter, system-ui, sans-serif;">
<rect width="600" height="500" fill="#f8fafc" rx="12"/>
<text x="60" y="83.33333333333333" font-size="48" font-weight="bold" fill="#f97316" text-anchor="middle" dominant-baseline="middle">Z</text>
<line x1="252.0" y1="68.33333333333333" x2="348.0" y2="68.33333333333333" stroke="#22c55e" stroke-width="2"/><line x1="252.0" y1="98.33333333333333" x2="348.0" y2="98.33333333333333" stroke="#22c55e" stroke-width="2"/><line x1="266.4" y1="141.5302404676476" x2="333.6" y2="25.136426199019063" stroke="#14b8a6" stroke-width="2"/><path d="M 308.66025403784437 68.33333333333333 L 294.26 68.33 A 14.399999999999999 14.399999999999999 0 0 0 301.46 80.80 Z" fill="#f97316" fill-opacity="0.5" stroke="none" /><path d="M 294.26 68.33 A 14.399999999999999 14.399999999999999 0 0 0 301.46 80.80" fill="none" stroke="#f97316" stroke-width="2" /><path d="M 291.33974596215563 98.33333333333333 L 305.74 98.33 A 14.399999999999999 14.399999999999999 0 0 0 298.54 85.86 Z" fill="#f97316" fill-opacity="0.5" stroke="none" /><path d="M 305.74 98.33 A 14.399999999999999 14.399999999999999 0 0 0 298.54 85.86" fill="none" stroke="#f97316" stroke-width="2" />
<text x="520" y="71.33333333333333" font-size="14" font-weight="bold" fill="#1e293b" text-anchor="middle">Alternos Internos</text>
<text x="520" y="95.33333333333333" font-size="12" fill="#64748b" text-anchor="middle">Iguales (a = b)</text>
<line x1="20" y1="166.66666666666666" x2="580" y2="166.66666666666666" stroke="#e2e8f0" stroke-width="1" stroke-dasharray="4"/>
<text x="60" y="250.0" font-size="48" font-weight="bold" fill="#3b82f6" text-anchor="middle" dominant-baseline="middle">F</text>
<line x1="252.0" y1="235.0" x2="348.0" y2="235.0" stroke="#22c55e" stroke-width="2"/><line x1="252.0" y1="265.0" x2="348.0" y2="265.0" stroke="#22c55e" stroke-width="2"/><line x1="266.4" y1="308.19690713431424" x2="333.6" y2="191.80309286568573" stroke="#14b8a6" stroke-width="2"/><path d="M 308.66025403784437 235.0 L 323.06 235.00 A 14.399999999999999 14.399999999999999 0 0 0 315.86 222.53 Z" fill="#3b82f6" fill-opacity="0.5" stroke="none" /><path d="M 323.06 235.00 A 14.399999999999999 14.399999999999999 0 0 0 315.86 222.53" fill="none" stroke="#3b82f6" stroke-width="2" /><path d="M 291.33974596215563 265.0 L 305.74 265.00 A 14.399999999999999 14.399999999999999 0 0 0 298.54 252.53 Z" fill="#3b82f6" fill-opacity="0.5" stroke="none" /><path d="M 305.74 265.00 A 14.399999999999999 14.399999999999999 0 0 0 298.54 252.53" fill="none" stroke="#3b82f6" stroke-width="2" />
<text x="520" y="238.0" font-size="14" font-weight="bold" fill="#1e293b" text-anchor="middle">Correspondientes</text>
<text x="520" y="262.0" font-size="12" fill="#64748b" text-anchor="middle">Iguales (a = b)</text>
<line x1="20" y1="333.3333333333333" x2="580" y2="333.3333333333333" stroke="#e2e8f0" stroke-width="1" stroke-dasharray="4"/>
<text x="60" y="416.66666666666663" font-size="48" font-weight="bold" fill="#22c55e" text-anchor="middle" dominant-baseline="middle">C</text>
<line x1="252.0" y1="401.66666666666663" x2="348.0" y2="401.66666666666663" stroke="#22c55e" stroke-width="2"/><line x1="252.0" y1="431.66666666666663" x2="348.0" y2="431.66666666666663" stroke="#22c55e" stroke-width="2"/><line x1="266.4" y1="474.8635738009809" x2="333.6" y2="358.4697595323524" stroke="#14b8a6" stroke-width="2"/><path d="M 308.66025403784437 401.66666666666663 L 301.46 414.14 A 14.399999999999999 14.399999999999999 0 0 0 323.06 401.67 Z" fill="#22c55e" fill-opacity="0.5" stroke="none" /><path d="M 301.46 414.14 A 14.399999999999999 14.399999999999999 0 0 0 323.06 401.67" fill="none" stroke="#22c55e" stroke-width="2" /><path d="M 291.33974596215563 431.66666666666663 L 305.74 431.67 A 14.399999999999999 14.399999999999999 0 0 0 298.54 419.20 Z" fill="#22c55e" fill-opacity="0.5" stroke="none" /><path d="M 305.74 431.67 A 14.399999999999999 14.399999999999999 0 0 0 298.54 419.20" fill="none" stroke="#22c55e" stroke-width="2" />
<text x="520" y="404.66666666666663" font-size="14" font-weight="bold" fill="#1e293b" text-anchor="middle">Conjugados</text>
<text x="520" y="428.66666666666663" font-size="12" fill="#64748b" text-anchor="middle">Suman 180° (a + b = 180)</text>
</svg>