<svg xmlns="http://www.w3.org/2000/svg" viewBox="0 0 500 120">
  <!-- Fondo -->
  <rect width="500" height="120" fill="#f8fafc"/>
  
  <!-- Título -->
  <text x="250" y="18" font-family="Inter, sans-serif" font-size="11" font-weight="bold" fill="#1e293b" text-anchor="middle">Ley de las Octavas de Newlands</text>
  
  <!-- Fila 1: Li a F -->
  <g id="row1">
    <rect x="30" y="35" width="40" height="30" rx="4" fill="#fef2f2" stroke="#ef4444" stroke-width="1.5"/>
    <text x="50" y="54" font-family="Inter, sans-serif" font-size="12" font-weight="bold" fill="#b91c1c" text-anchor="middle">Li</text>
    
    <rect x="80" y="35" width="40" height="30" rx="4" fill="#fff7ed" stroke="#f97316" stroke-width="1.5"/>
    <text x="100" y="54" font-family="Inter, sans-serif" font-size="12" font-weight="bold" fill="#c2410c" text-anchor="middle">Be</text>
    
    <rect x="130" y="35" width="40" height="30" rx="4" fill="#f5f3ff" stroke="#8b5cf6" stroke-width="1.5"/>
    <text x="150" y="54" font-family="Inter, sans-serif" font-size="12" font-weight="bold" fill="#6d28d9" text-anchor="middle">B</text>
    
    <rect x="180" y="35" width="40" height="30" rx="4" fill="#f0fdf4" stroke="#22c55e" stroke-width="1.5"/>
    <text x="200" y="54" font-family="Inter, sans-serif" font-size="12" font-weight="bold" fill="#15803d" text-anchor="middle">C</text>
    
    <rect x="230" y="35" width="40" height="30" rx="4" fill="#f0fdf4" stroke="#22c55e" stroke-width="1.5"/>
    <text x="250" y="54" font-family="Inter, sans-serif" font-size="12" font-weight="bold" fill="#15803d" text-anchor="middle">N</text>
    
    <rect x="280" y="35" width="40" height="30" rx="4" fill="#f0fdf4" stroke="#22c55e" stroke-width="1.5"/>
    <text x="300" y="54" font-family="Inter, sans-serif" font-size="12" font-weight="bold" fill="#15803d" text-anchor="middle">O</text>
    
    <rect x="330" y="35" width="40" height="30" rx="4" fill="#f0fdfa" stroke="#14b8a6" stroke-width="1.5"/>
    <text x="350" y="54" font-family="Inter, sans-serif" font-size="12" font-weight="bold" fill="#0f766e" text-anchor="middle">F</text>
  </g>
  
  <!-- Flechas verticales -->
  <line x1="50" y1="70" x2="50" y2="80" stroke="#64748b" stroke-width="1.5"/>
  <polygon points="50,85 46,78 54,78" fill="#64748b"/>
  <line x1="100" y1="70" x2="100" y2="80" stroke="#64748b" stroke-width="1.5"/>
  <polygon points="100,85 96,78 104,78" fill="#64748b"/>
  <line x1="150" y1="70" x2="150" y2="80" stroke="#64748b" stroke-width="1.5"/>
  <polygon points="150,85 146,78 154,78" fill="#64748b"/>
  <line x1="200" y1="70" x2="200" y2="80" stroke="#64748b" stroke-width="1.5"/>
  <polygon points="200,85 196,78 204,78" fill="#64748b"/>
  <line x1="250" y1="70" x2="250" y2="80" stroke="#64748b" stroke-width="1.5"/>
  <polygon points="250,85 246,78 254,78" fill="#64748b"/>
  <line x1="300" y1="70" x2="300" y2="80" stroke="#64748b" stroke-width="1.5"/>
  <polygon points="300,85 296,78 304,78" fill="#64748b"/>
  <line x1="350" y1="70" x2="350" y2="80" stroke="#64748b" stroke-width="1.5"/>
  <polygon points="350,85 346,78 354,78" fill="#64748b"/>
  
  <!-- Fila 2: Na a Cl -->
  <g id="row2">
    <rect x="30" y="85" width="40" height="30" rx="4" fill="#fef2f2" stroke="#ef4444" stroke-width="1.5"/>
    <text x="50" y="104" font-family="Inter, sans-serif" font-size="12" font-weight="bold" fill="#b91c1c" text-anchor="middle">Na</text>
    
    <rect x="80" y="85" width="40" height="30" rx="4" fill="#fff7ed" stroke="#f97316" stroke-width="1.5"/>
    <text x="100" y="104" font-family="Inter, sans-serif" font-size="12" font-weight="bold" fill="#c2410c" text-anchor="middle">Mg</text>
    
    <rect x="130" y="85" width="40" height="30" rx="4" fill="#eef2ff" stroke="#6366f1" stroke-width="1.5"/>
    <text x="150" y="104" font-family="Inter, sans-serif" font-size="12" font-weight="bold" fill="#4338ca" text-anchor="middle">Al</text>
    
    <rect x="180" y="85" width="40" height="30" rx="4" fill="#f5f3ff" stroke="#8b5cf6" stroke-width="1.5"/>
    <text x="200" y="104" font-family="Inter, sans-serif" font-size="12" font-weight="bold" fill="#6d28d9" text-anchor="middle">Si</text>
    
    <rect x="230" y="85" width="40" height="30" rx="4" fill="#f0fdf4" stroke="#22c55e" stroke-width="1.5"/>
    <text x="250" y="104" font-family="Inter, sans-serif" font-size="12" font-weight="bold" fill="#15803d" text-anchor="middle">P</text>
    
    <rect x="280" y="85" width="40" height="30" rx="4" fill="#f0fdf4" stroke="#22c55e" stroke-width="1.5"/>
    <text x="300" y="104" font-family="Inter, sans-serif" font-size="12" font-weight="bold" fill="#15803d" text-anchor="middle">S</text>
    
    <rect x="330" y="85" width="40" height="30" rx="4" fill="#f0fdfa" stroke="#14b8a6" stroke-width="1.5"/>
    <text x="350" y="104" font-family="Inter, sans-serif" font-size="12" font-weight="bold" fill="#0f766e" text-anchor="middle">Cl</text>
  </g>
  
  <!-- Etiqueta -->
  <text x="420" y="70" font-family="Inter, sans-serif" font-size="9" fill="#64748b" text-anchor="start">Propiedades</text>
  <text x="420" y="82" font-family="Inter, sans-serif" font-size="9" fill="#64748b" text-anchor="start">similares</text>
  <text x="420" y="94" font-family="Inter, sans-serif" font-size="9" fill="#64748b" text-anchor="start">en columnas</text>
</svg>
