<svg xmlns="http://www.w3.org/2000/svg" viewBox="0 0 758 278">
  <rect width="758" height="278" fill="#f8fafc"/>
  <text x="379.0" y="18" font-family="Inter, sans-serif" font-size="14" font-weight="bold" fill="#1e293b" text-anchor="middle">Tabla Periódica (Períodos 1-4)</text>
  <text x="39.0" y="28" font-family="Inter, sans-serif" font-size="9" fill="#64748b" text-anchor="middle">1</text>
  <text x="79.0" y="28" font-family="Inter, sans-serif" font-size="9" fill="#64748b" text-anchor="middle">2</text>
  <text x="519.0" y="28" font-family="Inter, sans-serif" font-size="9" fill="#64748b" text-anchor="middle">13</text>
  <text x="559.0" y="28" font-family="Inter, sans-serif" font-size="9" fill="#64748b" text-anchor="middle">14</text>
  <text x="599.0" y="28" font-family="Inter, sans-serif" font-size="9" fill="#64748b" text-anchor="middle">15</text>
  <text x="639.0" y="28" font-family="Inter, sans-serif" font-size="9" fill="#64748b" text-anchor="middle">16</text>
  <text x="679.0" y="28" font-family="Inter, sans-serif" font-size="9" fill="#64748b" text-anchor="middle">17</text>
  <text x="719.0" y="28" font-family="Inter, sans-serif" font-size="9" fill="#64748b" text-anchor="middle">18</text>
  <text x="119.0" y="28" font-family="Inter, sans-serif" font-size="9" fill="#64748b" text-anchor="middle">3</text>
  <text x="159.0" y="28" font-family="Inter, sans-serif" font-size="9" fill="#64748b" text-anchor="middle">4</text>
  <text x="199.0" y="28" font-family="Inter, sans-serif" font-size="9" fill="#64748b" text-anchor="middle">5</text>
  <text x="239.0" y="28" font-family="Inter, sans-serif" font-size="9" fill="#64748b" text-anchor="middle">6</text>
  <text x="279.0" y="28" font-family="Inter, sans-serif" font-size="9" fill="#64748b" text-anchor="middle">7</text>
  <text x="319.0" y="28" font-family="Inter, sans-serif" font-size="9" fill="#64748b" text-anchor="middle">8</text>
  <text x="359.0" y="28" font-family="Inter, sans-serif" font-size="9" fill="#64748b" text-anchor="middle">9</text>
  <text x="399.0" y="28" font-family="Inter, sans-serif" font-size="9" fill="#64748b" text-anchor="middle">10</text>
  <text x="439.0" y="28" font-family="Inter, sans-serif" font-size="9" fill="#64748b" text-anchor="middle">11</text>
  <text x="479.0" y="28" font-family="Inter, sans-serif" font-size="9" fill="#64748b" text-anchor="middle">12</text>
  <rect x="20" y="35" width="38" height="38" fill="#f0fdf4" stroke="#22c55e" stroke-width="1.5" rx="4"/>
  <text x="24" y="45" font-family="Inter, sans-serif" font-size="8" fill="#64748b">1</text>
  <text x="39.0" y="58.0" font-family="Inter, sans-serif" font-size="14" font-weight="bold" fill="#1e293b" text-anchor="middle">H</text>
  <rect x="700" y="35" width="38" height="38" fill="#faf5ff" stroke="#a855f7" stroke-width="1.5" rx="4"/>
  <text x="704" y="45" font-family="Inter, sans-serif" font-size="8" fill="#64748b">2</text>
  <text x="719.0" y="58.0" font-family="Inter, sans-serif" font-size="14" font-weight="bold" fill="#1e293b" text-anchor="middle">He</text>
  <rect x="20" y="75" width="38" height="38" fill="#fef2f2" stroke="#ef4444" stroke-width="1.5" rx="4"/>
  <text x="24" y="85" font-family="Inter, sans-serif" font-size="8" fill="#64748b">3</text>
  <text x="39.0" y="98.0" font-family="Inter, sans-serif" font-size="14" font-weight="bold" fill="#1e293b" text-anchor="middle">Li</text>
  <rect x="60" y="75" width="38" height="38" fill="#fff7ed" stroke="#f97316" stroke-width="1.5" rx="4"/>
  <text x="64" y="85" font-family="Inter, sans-serif" font-size="8" fill="#64748b">4</text>
  <text x="79.0" y="98.0" font-family="Inter, sans-serif" font-size="14" font-weight="bold" fill="#1e293b" text-anchor="middle">Be</text>
  <rect x="500" y="75" width="38" height="38" fill="#f5f3ff" stroke="#8b5cf6" stroke-width="1.5" rx="4"/>
  <text x="504" y="85" font-family="Inter, sans-serif" font-size="8" fill="#64748b">5</text>
  <text x="519.0" y="98.0" font-family="Inter, sans-serif" font-size="14" font-weight="bold" fill="#1e293b" text-anchor="middle">B</text>
  <rect x="540" y="75" width="38" height="38" fill="#f0fdf4" stroke="#22c55e" stroke-width="1.5" rx="4"/>
  <text x="544" y="85" font-family="Inter, sans-serif" font-size="8" fill="#64748b">6</text>
  <text x="559.0" y="98.0" font-family="Inter, sans-serif" font-size="14" font-weight="bold" fill="#1e293b" text-anchor="middle">C</text>
  <rect x="580" y="75" width="38" height="38" fill="#f0fdf4" stroke="#22c55e" stroke-width="1.5" rx="4"/>
  <text x="584" y="85" font-family="Inter, sans-serif" font-size="8" fill="#64748b">7</text>
  <text x="599.0" y="98.0" font-family="Inter, sans-serif" font-size="14" font-weight="bold" fill="#1e293b" text-anchor="middle">N</text>
  <rect x="620" y="75" width="38" height="38" fill="#f0fdf4" stroke="#22c55e" stroke-width="1.5" rx="4"/>
  <text x="624" y="85" font-family="Inter, sans-serif" font-size="8" fill="#64748b">8</text>
  <text x="639.0" y="98.0" font-family="Inter, sans-serif" font-size="14" font-weight="bold" fill="#1e293b" text-anchor="middle">O</text>
  <rect x="660" y="75" width="38" height="38" fill="#f0fdfa" stroke="#14b8a6" stroke-width="1.5" rx="4"/>
  <text x="664" y="85" font-family="Inter, sans-serif" font-size="8" fill="#64748b">9</text>
  <text x="679.0" y="98.0" font-family="Inter, sans-serif" font-size="14" font-weight="bold" fill="#1e293b" text-anchor="middle">F</text>
  <rect x="700" y="75" width="38" height="38" fill="#faf5ff" stroke="#a855f7" stroke-width="1.5" rx="4"/>
  <text x="704" y="85" font-family="Inter, sans-serif" font-size="8" fill="#64748b">10</text>
  <text x="719.0" y="98.0" font-family="Inter, sans-serif" font-size="14" font-weight="bold" fill="#1e293b" text-anchor="middle">Ne</text>
  <rect x="20" y="115" width="38" height="38" fill="#fef2f2" stroke="#ef4444" stroke-width="1.5" rx="4"/>
  <text x="24" y="125" font-family="Inter, sans-serif" font-size="8" fill="#64748b">11</text>
  <text x="39.0" y="138.0" font-family="Inter, sans-serif" font-size="14" font-weight="bold" fill="#1e293b" text-anchor="middle">Na</text>
  <rect x="60" y="115" width="38" height="38" fill="#fff7ed" stroke="#f97316" stroke-width="1.5" rx="4"/>
  <text x="64" y="125" font-family="Inter, sans-serif" font-size="8" fill="#64748b">12</text>
  <text x="79.0" y="138.0" font-family="Inter, sans-serif" font-size="14" font-weight="bold" fill="#1e293b" text-anchor="middle">Mg</text>
  <rect x="500" y="115" width="38" height="38" fill="#eef2ff" stroke="#6366f1" stroke-width="1.5" rx="4"/>
  <text x="504" y="125" font-family="Inter, sans-serif" font-size="8" fill="#64748b">13</text>
  <text x="519.0" y="138.0" font-family="Inter, sans-serif" font-size="14" font-weight="bold" fill="#1e293b" text-anchor="middle">Al</text>
  <rect x="540" y="115" width="38" height="38" fill="#f5f3ff" stroke="#8b5cf6" stroke-width="1.5" rx="4"/>
  <text x="544" y="125" font-family="Inter, sans-serif" font-size="8" fill="#64748b">14</text>
  <text x="559.0" y="138.0" font-family="Inter, sans-serif" font-size="14" font-weight="bold" fill="#1e293b" text-anchor="middle">Si</text>
  <rect x="580" y="115" width="38" height="38" fill="#f0fdf4" stroke="#22c55e" stroke-width="1.5" rx="4"/>
  <text x="584" y="125" font-family="Inter, sans-serif" font-size="8" fill="#64748b">15</text>
  <text x="599.0" y="138.0" font-family="Inter, sans-serif" font-size="14" font-weight="bold" fill="#1e293b" text-anchor="middle">P</text>
  <rect x="620" y="115" width="38" height="38" fill="#f0fdf4" stroke="#22c55e" stroke-width="1.5" rx="4"/>
  <text x="624" y="125" font-family="Inter, sans-serif" font-size="8" fill="#64748b">16</text>
  <text x="639.0" y="138.0" font-family="Inter, sans-serif" font-size="14" font-weight="bold" fill="#1e293b" text-anchor="middle">S</text>
  <rect x="660" y="115" width="38" height="38" fill="#f0fdfa" stroke="#14b8a6" stroke-width="1.5" rx="4"/>
  <text x="664" y="125" font-family="Inter, sans-serif" font-size="8" fill="#64748b">17</text>
  <text x="679.0" y="138.0" font-family="Inter, sans-serif" font-size="14" font-weight="bold" fill="#1e293b" text-anchor="middle">Cl</text>
  <rect x="700" y="115" width="38" height="38" fill="#faf5ff" stroke="#a855f7" stroke-width="1.5" rx="4"/>
  <text x="704" y="125" font-family="Inter, sans-serif" font-size="8" fill="#64748b">18</text>
  <text x="719.0" y="138.0" font-family="Inter, sans-serif" font-size="14" font-weight="bold" fill="#1e293b" text-anchor="middle">Ar</text>
  <rect x="20" y="155" width="38" height="38" fill="#fef2f2" stroke="#ef4444" stroke-width="1.5" rx="4"/>
  <text x="24" y="165" font-family="Inter, sans-serif" font-size="8" fill="#64748b">19</text>
  <text x="39.0" y="178.0" font-family="Inter, sans-serif" font-size="14" font-weight="bold" fill="#1e293b" text-anchor="middle">K</text>
  <rect x="60" y="155" width="38" height="38" fill="#fff7ed" stroke="#f97316" stroke-width="1.5" rx="4"/>
  <text x="64" y="165" font-family="Inter, sans-serif" font-size="8" fill="#64748b">20</text>
  <text x="79.0" y="178.0" font-family="Inter, sans-serif" font-size="14" font-weight="bold" fill="#1e293b" text-anchor="middle">Ca</text>
  <rect x="100" y="155" width="38" height="38" fill="#eff6ff" stroke="#3b82f6" stroke-width="1.5" rx="4"/>
  <text x="104" y="165" font-family="Inter, sans-serif" font-size="8" fill="#64748b">21</text>
  <text x="119.0" y="178.0" font-family="Inter, sans-serif" font-size="14" font-weight="bold" fill="#1e293b" text-anchor="middle">Sc</text>
  <rect x="140" y="155" width="38" height="38" fill="#eff6ff" stroke="#3b82f6" stroke-width="1.5" rx="4"/>
  <text x="144" y="165" font-family="Inter, sans-serif" font-size="8" fill="#64748b">22</text>
  <text x="159.0" y="178.0" font-family="Inter, sans-serif" font-size="14" font-weight="bold" fill="#1e293b" text-anchor="middle">Ti</text>
  <rect x="180" y="155" width="38" height="38" fill="#eff6ff" stroke="#3b82f6" stroke-width="1.5" rx="4"/>
  <text x="184" y="165" font-family="Inter, sans-serif" font-size="8" fill="#64748b">23</text>
  <text x="199.0" y="178.0" font-family="Inter, sans-serif" font-size="14" font-weight="bold" fill="#1e293b" text-anchor="middle">V</text>
  <rect x="220" y="155" width="38" height="38" fill="#eff6ff" stroke="#3b82f6" stroke-width="1.5" rx="4"/>
  <text x="224" y="165" font-family="Inter, sans-serif" font-size="8" fill="#64748b">24</text>
  <text x="239.0" y="178.0" font-family="Inter, sans-serif" font-size="14" font-weight="bold" fill="#1e293b" text-anchor="middle">Cr</text>
  <rect x="260" y="155" width="38" height="38" fill="#eff6ff" stroke="#3b82f6" stroke-width="1.5" rx="4"/>
  <text x="264" y="165" font-family="Inter, sans-serif" font-size="8" fill="#64748b">25</text>
  <text x="279.0" y="178.0" font-family="Inter, sans-serif" font-size="14" font-weight="bold" fill="#1e293b" text-anchor="middle">Mn</text>
  <rect x="300" y="155" width="38" height="38" fill="#eff6ff" stroke="#3b82f6" stroke-width="1.5" rx="4"/>
  <text x="304" y="165" font-family="Inter, sans-serif" font-size="8" fill="#64748b">26</text>
  <text x="319.0" y="178.0" font-family="Inter, sans-serif" font-size="14" font-weight="bold" fill="#1e293b" text-anchor="middle">Fe</text>
  <rect x="340" y="155" width="38" height="38" fill="#eff6ff" stroke="#3b82f6" stroke-width="1.5" rx="4"/>
  <text x="344" y="165" font-family="Inter, sans-serif" font-size="8" fill="#64748b">27</text>
  <text x="359.0" y="178.0" font-family="Inter, sans-serif" font-size="14" font-weight="bold" fill="#1e293b" text-anchor="middle">Co</text>
  <rect x="380" y="155" width="38" height="38" fill="#eff6ff" stroke="#3b82f6" stroke-width="1.5" rx="4"/>
  <text x="384" y="165" font-family="Inter, sans-serif" font-size="8" fill="#64748b">28</text>
  <text x="399.0" y="178.0" font-family="Inter, sans-serif" font-size="14" font-weight="bold" fill="#1e293b" text-anchor="middle">Ni</text>
  <rect x="420" y="155" width="38" height="38" fill="#eff6ff" stroke="#3b82f6" stroke-width="1.5" rx="4"/>
  <text x="424" y="165" font-family="Inter, sans-serif" font-size="8" fill="#64748b">29</text>
  <text x="439.0" y="178.0" font-family="Inter, sans-serif" font-size="14" font-weight="bold" fill="#1e293b" text-anchor="middle">Cu</text>
  <rect x="460" y="155" width="38" height="38" fill="#eff6ff" stroke="#3b82f6" stroke-width="1.5" rx="4"/>
  <text x="464" y="165" font-family="Inter, sans-serif" font-size="8" fill="#64748b">30</text>
  <text x="479.0" y="178.0" font-family="Inter, sans-serif" font-size="14" font-weight="bold" fill="#1e293b" text-anchor="middle">Zn</text>
  <rect x="500" y="155" width="38" height="38" fill="#eef2ff" stroke="#6366f1" stroke-width="1.5" rx="4"/>
  <text x="504" y="165" font-family="Inter, sans-serif" font-size="8" fill="#64748b">31</text>
  <text x="519.0" y="178.0" font-family="Inter, sans-serif" font-size="14" font-weight="bold" fill="#1e293b" text-anchor="middle">Ga</text>
  <rect x="540" y="155" width="38" height="38" fill="#f5f3ff" stroke="#8b5cf6" stroke-width="1.5" rx="4"/>
  <text x="544" y="165" font-family="Inter, sans-serif" font-size="8" fill="#64748b">32</text>
  <text x="559.0" y="178.0" font-family="Inter, sans-serif" font-size="14" font-weight="bold" fill="#1e293b" text-anchor="middle">Ge</text>
  <rect x="580" y="155" width="38" height="38" fill="#f5f3ff" stroke="#8b5cf6" stroke-width="1.5" rx="4"/>
  <text x="584" y="165" font-family="Inter, sans-serif" font-size="8" fill="#64748b">33</text>
  <text x="599.0" y="178.0" font-family="Inter, sans-serif" font-size="14" font-weight="bold" fill="#1e293b" text-anchor="middle">As</text>
  <rect x="620" y="155" width="38" height="38" fill="#f0fdf4" stroke="#22c55e" stroke-width="1.5" rx="4"/>
  <text x="624" y="165" font-family="Inter, sans-serif" font-size="8" fill="#64748b">34</text>
  <text x="639.0" y="178.0" font-family="Inter, sans-serif" font-size="14" font-weight="bold" fill="#1e293b" text-anchor="middle">Se</text>
  <rect x="660" y="155" width="38" height="38" fill="#f0fdfa" stroke="#14b8a6" stroke-width="1.5" rx="4"/>
  <text x="664" y="165" font-family="Inter, sans-serif" font-size="8" fill="#64748b">35</text>
  <text x="679.0" y="178.0" font-family="Inter, sans-serif" font-size="14" font-weight="bold" fill="#1e293b" text-anchor="middle">Br</text>
  <rect x="700" y="155" width="38" height="38" fill="#faf5ff" stroke="#a855f7" stroke-width="1.5" rx="4"/>
  <text x="704" y="165" font-family="Inter, sans-serif" font-size="8" fill="#64748b">36</text>
  <text x="719.0" y="178.0" font-family="Inter, sans-serif" font-size="14" font-weight="bold" fill="#1e293b" text-anchor="middle">Kr</text>
  <text x="379.0" y="205" font-family="Inter, sans-serif" font-size="10" font-weight="bold" fill="#1e293b" text-anchor="middle">Categorías</text>
  <rect x="20" y="214" width="12" height="12" fill="#eff6ff" stroke="#3b82f6" stroke-width="1" rx="2"/>
  <text x="36" y="222" font-family="Inter, sans-serif" font-size="8" fill="#1e293b">Metales de Transición</text>
  <rect x="115" y="214" width="12" height="12" fill="#fef2f2" stroke="#ef4444" stroke-width="1" rx="2"/>
  <text x="131" y="222" font-family="Inter, sans-serif" font-size="8" fill="#1e293b">Metales Alcalinos</text>
  <rect x="210" y="214" width="12" height="12" fill="#fff7ed" stroke="#f97316" stroke-width="1" rx="2"/>
  <text x="226" y="222" font-family="Inter, sans-serif" font-size="8" fill="#1e293b">Alcalinotérreos</text>
  <rect x="305" y="214" width="12" height="12" fill="#f0fdfa" stroke="#14b8a6" stroke-width="1" rx="2"/>
  <text x="321" y="222" font-family="Inter, sans-serif" font-size="8" fill="#1e293b">Halógenos</text>
  <rect x="20" y="232" width="12" height="12" fill="#eef2ff" stroke="#6366f1" stroke-width="1" rx="2"/>
  <text x="36" y="240" font-family="Inter, sans-serif" font-size="8" fill="#1e293b">Metales Post-transición</text>
  <rect x="115" y="232" width="12" height="12" fill="#f0fdf4" stroke="#22c55e" stroke-width="1" rx="2"/>
  <text x="131" y="240" font-family="Inter, sans-serif" font-size="8" fill="#1e293b">No Metales</text>
  <rect x="210" y="232" width="12" height="12" fill="#faf5ff" stroke="#a855f7" stroke-width="1" rx="2"/>
  <text x="226" y="240" font-family="Inter, sans-serif" font-size="8" fill="#1e293b">Gases Nobles</text>
  <rect x="305" y="232" width="12" height="12" fill="#f5f3ff" stroke="#8b5cf6" stroke-width="1" rx="2"/>
  <text x="321" y="240" font-family="Inter, sans-serif" font-size="8" fill="#1e293b">Metaloides</text>
</svg>