<svg xmlns="http://www.w3.org/2000/svg" viewBox="0 0 623 426">
  <rect width="623" height="426" fill="#f8fafc"/>
  <text x="311.5" y="14" font-family="Inter, sans-serif" font-size="11" font-weight="bold" fill="#1e293b" text-anchor="middle">Tabla Periódica Completa</text>
  <text x="31.0" y="31" font-family="Inter, sans-serif" font-size="7" fill="#64748b" text-anchor="middle">1</text>
  <text x="64.0" y="31" font-family="Inter, sans-serif" font-size="7" fill="#64748b" text-anchor="middle">2</text>
  <text x="97.0" y="31" font-family="Inter, sans-serif" font-size="7" fill="#64748b" text-anchor="middle">3</text>
  <text x="130.0" y="31" font-family="Inter, sans-serif" font-size="7" fill="#64748b" text-anchor="middle">4</text>
  <text x="163.0" y="31" font-family="Inter, sans-serif" font-size="7" fill="#64748b" text-anchor="middle">5</text>
  <text x="196.0" y="31" font-family="Inter, sans-serif" font-size="7" fill="#64748b" text-anchor="middle">6</text>
  <text x="229.0" y="31" font-family="Inter, sans-serif" font-size="7" fill="#64748b" text-anchor="middle">7</text>
  <text x="262.0" y="31" font-family="Inter, sans-serif" font-size="7" fill="#64748b" text-anchor="middle">8</text>
  <text x="295.0" y="31" font-family="Inter, sans-serif" font-size="7" fill="#64748b" text-anchor="middle">9</text>
  <text x="328.0" y="31" font-family="Inter, sans-serif" font-size="7" fill="#64748b" text-anchor="middle">10</text>
  <text x="361.0" y="31" font-family="Inter, sans-serif" font-size="7" fill="#64748b" text-anchor="middle">11</text>
  <text x="394.0" y="31" font-family="Inter, sans-serif" font-size="7" fill="#64748b" text-anchor="middle">12</text>
  <text x="427.0" y="31" font-family="Inter, sans-serif" font-size="7" fill="#64748b" text-anchor="middle">13</text>
  <text x="460.0" y="31" font-family="Inter, sans-serif" font-size="7" fill="#64748b" text-anchor="middle">14</text>
  <text x="493.0" y="31" font-family="Inter, sans-serif" font-size="7" fill="#64748b" text-anchor="middle">15</text>
  <text x="526.0" y="31" font-family="Inter, sans-serif" font-size="7" fill="#64748b" text-anchor="middle">16</text>
  <text x="559.0" y="31" font-family="Inter, sans-serif" font-size="7" fill="#64748b" text-anchor="middle">17</text>
  <text x="592.0" y="31" font-family="Inter, sans-serif" font-size="7" fill="#64748b" text-anchor="middle">18</text>
  <rect x="15" y="33" width="32" height="32" fill="#f0fdf4" stroke="#16a34a" stroke-width="1" rx="3"/>
  <text x="18" y="41" font-family="Inter, sans-serif" font-size="6" fill="#64748b">1</text>
  <text x="31.0" y="52.0" font-family="Inter, sans-serif" font-size="10" font-weight="bold" fill="#1e293b" text-anchor="middle">H</text>
  <rect x="576" y="33" width="32" height="32" fill="#faf5ff" stroke="#9333ea" stroke-width="1" rx="3"/>
  <text x="579" y="41" font-family="Inter, sans-serif" font-size="6" fill="#64748b">2</text>
  <text x="592.0" y="52.0" font-family="Inter, sans-serif" font-size="10" font-weight="bold" fill="#1e293b" text-anchor="middle">He</text>
  <rect x="15" y="66" width="32" height="32" fill="#fef2f2" stroke="#dc2626" stroke-width="1" rx="3"/>
  <text x="18" y="74" font-family="Inter, sans-serif" font-size="6" fill="#64748b">3</text>
  <text x="31.0" y="85.0" font-family="Inter, sans-serif" font-size="10" font-weight="bold" fill="#1e293b" text-anchor="middle">Li</text>
  <rect x="48" y="66" width="32" height="32" fill="#fff7ed" stroke="#ea580c" stroke-width="1" rx="3"/>
  <text x="51" y="74" font-family="Inter, sans-serif" font-size="6" fill="#64748b">4</text>
  <text x="64.0" y="85.0" font-family="Inter, sans-serif" font-size="10" font-weight="bold" fill="#1e293b" text-anchor="middle">Be</text>
  <rect x="411" y="66" width="32" height="32" fill="#f5f3ff" stroke="#7c3aed" stroke-width="1" rx="3"/>
  <text x="414" y="74" font-family="Inter, sans-serif" font-size="6" fill="#64748b">5</text>
  <text x="427.0" y="85.0" font-family="Inter, sans-serif" font-size="10" font-weight="bold" fill="#1e293b" text-anchor="middle">B</text>
  <rect x="444" y="66" width="32" height="32" fill="#f0fdf4" stroke="#16a34a" stroke-width="1" rx="3"/>
  <text x="447" y="74" font-family="Inter, sans-serif" font-size="6" fill="#64748b">6</text>
  <text x="460.0" y="85.0" font-family="Inter, sans-serif" font-size="10" font-weight="bold" fill="#1e293b" text-anchor="middle">C</text>
  <rect x="477" y="66" width="32" height="32" fill="#f0fdf4" stroke="#16a34a" stroke-width="1" rx="3"/>
  <text x="480" y="74" font-family="Inter, sans-serif" font-size="6" fill="#64748b">7</text>
  <text x="493.0" y="85.0" font-family="Inter, sans-serif" font-size="10" font-weight="bold" fill="#1e293b" text-anchor="middle">N</text>
  <rect x="510" y="66" width="32" height="32" fill="#f0fdf4" stroke="#16a34a" stroke-width="1" rx="3"/>
  <text x="513" y="74" font-family="Inter, sans-serif" font-size="6" fill="#64748b">8</text>
  <text x="526.0" y="85.0" font-family="Inter, sans-serif" font-size="10" font-weight="bold" fill="#1e293b" text-anchor="middle">O</text>
  <rect x="543" y="66" width="32" height="32" fill="#f0fdfa" stroke="#0d9488" stroke-width="1" rx="3"/>
  <text x="546" y="74" font-family="Inter, sans-serif" font-size="6" fill="#64748b">9</text>
  <text x="559.0" y="85.0" font-family="Inter, sans-serif" font-size="10" font-weight="bold" fill="#1e293b" text-anchor="middle">F</text>
  <rect x="576" y="66" width="32" height="32" fill="#faf5ff" stroke="#9333ea" stroke-width="1" rx="3"/>
  <text x="579" y="74" font-family="Inter, sans-serif" font-size="6" fill="#64748b">10</text>
  <text x="592.0" y="85.0" font-family="Inter, sans-serif" font-size="10" font-weight="bold" fill="#1e293b" text-anchor="middle">Ne</text>
  <rect x="15" y="99" width="32" height="32" fill="#fef2f2" stroke="#dc2626" stroke-width="1" rx="3"/>
  <text x="18" y="107" font-family="Inter, sans-serif" font-size="6" fill="#64748b">11</text>
  <text x="31.0" y="118.0" font-family="Inter, sans-serif" font-size="10" font-weight="bold" fill="#1e293b" text-anchor="middle">Na</text>
  <rect x="48" y="99" width="32" height="32" fill="#fff7ed" stroke="#ea580c" stroke-width="1" rx="3"/>
  <text x="51" y="107" font-family="Inter, sans-serif" font-size="6" fill="#64748b">12</text>
  <text x="64.0" y="118.0" font-family="Inter, sans-serif" font-size="10" font-weight="bold" fill="#1e293b" text-anchor="middle">Mg</text>
  <rect x="411" y="99" width="32" height="32" fill="#eef2ff" stroke="#4f46e5" stroke-width="1" rx="3"/>
  <text x="414" y="107" font-family="Inter, sans-serif" font-size="6" fill="#64748b">13</text>
  <text x="427.0" y="118.0" font-family="Inter, sans-serif" font-size="10" font-weight="bold" fill="#1e293b" text-anchor="middle">Al</text>
  <rect x="444" y="99" width="32" height="32" fill="#f5f3ff" stroke="#7c3aed" stroke-width="1" rx="3"/>
  <text x="447" y="107" font-family="Inter, sans-serif" font-size="6" fill="#64748b">14</text>
  <text x="460.0" y="118.0" font-family="Inter, sans-serif" font-size="10" font-weight="bold" fill="#1e293b" text-anchor="middle">Si</text>
  <rect x="477" y="99" width="32" height="32" fill="#f0fdf4" stroke="#16a34a" stroke-width="1" rx="3"/>
  <text x="480" y="107" font-family="Inter, sans-serif" font-size="6" fill="#64748b">15</text>
  <text x="493.0" y="118.0" font-family="Inter, sans-serif" font-size="10" font-weight="bold" fill="#1e293b" text-anchor="middle">P</text>
  <rect x="510" y="99" width="32" height="32" fill="#f0fdf4" stroke="#16a34a" stroke-width="1" rx="3"/>
  <text x="513" y="107" font-family="Inter, sans-serif" font-size="6" fill="#64748b">16</text>
  <text x="526.0" y="118.0" font-family="Inter, sans-serif" font-size="10" font-weight="bold" fill="#1e293b" text-anchor="middle">S</text>
  <rect x="543" y="99" width="32" height="32" fill="#f0fdfa" stroke="#0d9488" stroke-width="1" rx="3"/>
  <text x="546" y="107" font-family="Inter, sans-serif" font-size="6" fill="#64748b">17</text>
  <text x="559.0" y="118.0" font-family="Inter, sans-serif" font-size="10" font-weight="bold" fill="#1e293b" text-anchor="middle">Cl</text>
  <rect x="576" y="99" width="32" height="32" fill="#faf5ff" stroke="#9333ea" stroke-width="1" rx="3"/>
  <text x="579" y="107" font-family="Inter, sans-serif" font-size="6" fill="#64748b">18</text>
  <text x="592.0" y="118.0" font-family="Inter, sans-serif" font-size="10" font-weight="bold" fill="#1e293b" text-anchor="middle">Ar</text>
  <rect x="15" y="132" width="32" height="32" fill="#fef2f2" stroke="#dc2626" stroke-width="1" rx="3"/>
  <text x="18" y="140" font-family="Inter, sans-serif" font-size="6" fill="#64748b">19</text>
  <text x="31.0" y="151.0" font-family="Inter, sans-serif" font-size="10" font-weight="bold" fill="#1e293b" text-anchor="middle">K</text>
  <rect x="48" y="132" width="32" height="32" fill="#fff7ed" stroke="#ea580c" stroke-width="1" rx="3"/>
  <text x="51" y="140" font-family="Inter, sans-serif" font-size="6" fill="#64748b">20</text>
  <text x="64.0" y="151.0" font-family="Inter, sans-serif" font-size="10" font-weight="bold" fill="#1e293b" text-anchor="middle">Ca</text>
  <rect x="81" y="132" width="32" height="32" fill="#eff6ff" stroke="#2563eb" stroke-width="1" rx="3"/>
  <text x="84" y="140" font-family="Inter, sans-serif" font-size="6" fill="#64748b">21</text>
  <text x="97.0" y="151.0" font-family="Inter, sans-serif" font-size="10" font-weight="bold" fill="#1e293b" text-anchor="middle">Sc</text>
  <rect x="114" y="132" width="32" height="32" fill="#eff6ff" stroke="#2563eb" stroke-width="1" rx="3"/>
  <text x="117" y="140" font-family="Inter, sans-serif" font-size="6" fill="#64748b">22</text>
  <text x="130.0" y="151.0" font-family="Inter, sans-serif" font-size="10" font-weight="bold" fill="#1e293b" text-anchor="middle">Ti</text>
  <rect x="147" y="132" width="32" height="32" fill="#eff6ff" stroke="#2563eb" stroke-width="1" rx="3"/>
  <text x="150" y="140" font-family="Inter, sans-serif" font-size="6" fill="#64748b">23</text>
  <text x="163.0" y="151.0" font-family="Inter, sans-serif" font-size="10" font-weight="bold" fill="#1e293b" text-anchor="middle">V</text>
  <rect x="180" y="132" width="32" height="32" fill="#eff6ff" stroke="#2563eb" stroke-width="1" rx="3"/>
  <text x="183" y="140" font-family="Inter, sans-serif" font-size="6" fill="#64748b">24</text>
  <text x="196.0" y="151.0" font-family="Inter, sans-serif" font-size="10" font-weight="bold" fill="#1e293b" text-anchor="middle">Cr</text>
  <rect x="213" y="132" width="32" height="32" fill="#eff6ff" stroke="#2563eb" stroke-width="1" rx="3"/>
  <text x="216" y="140" font-family="Inter, sans-serif" font-size="6" fill="#64748b">25</text>
  <text x="229.0" y="151.0" font-family="Inter, sans-serif" font-size="10" font-weight="bold" fill="#1e293b" text-anchor="middle">Mn</text>
  <rect x="246" y="132" width="32" height="32" fill="#eff6ff" stroke="#2563eb" stroke-width="1" rx="3"/>
  <text x="249" y="140" font-family="Inter, sans-serif" font-size="6" fill="#64748b">26</text>
  <text x="262.0" y="151.0" font-family="Inter, sans-serif" font-size="10" font-weight="bold" fill="#1e293b" text-anchor="middle">Fe</text>
  <rect x="279" y="132" width="32" height="32" fill="#eff6ff" stroke="#2563eb" stroke-width="1" rx="3"/>
  <text x="282" y="140" font-family="Inter, sans-serif" font-size="6" fill="#64748b">27</text>
  <text x="295.0" y="151.0" font-family="Inter, sans-serif" font-size="10" font-weight="bold" fill="#1e293b" text-anchor="middle">Co</text>
  <rect x="312" y="132" width="32" height="32" fill="#eff6ff" stroke="#2563eb" stroke-width="1" rx="3"/>
  <text x="315" y="140" font-family="Inter, sans-serif" font-size="6" fill="#64748b">28</text>
  <text x="328.0" y="151.0" font-family="Inter, sans-serif" font-size="10" font-weight="bold" fill="#1e293b" text-anchor="middle">Ni</text>
  <rect x="345" y="132" width="32" height="32" fill="#eff6ff" stroke="#2563eb" stroke-width="1" rx="3"/>
  <text x="348" y="140" font-family="Inter, sans-serif" font-size="6" fill="#64748b">29</text>
  <text x="361.0" y="151.0" font-family="Inter, sans-serif" font-size="10" font-weight="bold" fill="#1e293b" text-anchor="middle">Cu</text>
  <rect x="378" y="132" width="32" height="32" fill="#eff6ff" stroke="#2563eb" stroke-width="1" rx="3"/>
  <text x="381" y="140" font-family="Inter, sans-serif" font-size="6" fill="#64748b">30</text>
  <text x="394.0" y="151.0" font-family="Inter, sans-serif" font-size="10" font-weight="bold" fill="#1e293b" text-anchor="middle">Zn</text>
  <rect x="411" y="132" width="32" height="32" fill="#eef2ff" stroke="#4f46e5" stroke-width="1" rx="3"/>
  <text x="414" y="140" font-family="Inter, sans-serif" font-size="6" fill="#64748b">31</text>
  <text x="427.0" y="151.0" font-family="Inter, sans-serif" font-size="10" font-weight="bold" fill="#1e293b" text-anchor="middle">Ga</text>
  <rect x="444" y="132" width="32" height="32" fill="#f5f3ff" stroke="#7c3aed" stroke-width="1" rx="3"/>
  <text x="447" y="140" font-family="Inter, sans-serif" font-size="6" fill="#64748b">32</text>
  <text x="460.0" y="151.0" font-family="Inter, sans-serif" font-size="10" font-weight="bold" fill="#1e293b" text-anchor="middle">Ge</text>
  <rect x="477" y="132" width="32" height="32" fill="#f5f3ff" stroke="#7c3aed" stroke-width="1" rx="3"/>
  <text x="480" y="140" font-family="Inter, sans-serif" font-size="6" fill="#64748b">33</text>
  <text x="493.0" y="151.0" font-family="Inter, sans-serif" font-size="10" font-weight="bold" fill="#1e293b" text-anchor="middle">As</text>
  <rect x="510" y="132" width="32" height="32" fill="#f0fdf4" stroke="#16a34a" stroke-width="1" rx="3"/>
  <text x="513" y="140" font-family="Inter, sans-serif" font-size="6" fill="#64748b">34</text>
  <text x="526.0" y="151.0" font-family="Inter, sans-serif" font-size="10" font-weight="bold" fill="#1e293b" text-anchor="middle">Se</text>
  <rect x="543" y="132" width="32" height="32" fill="#f0fdfa" stroke="#0d9488" stroke-width="1" rx="3"/>
  <text x="546" y="140" font-family="Inter, sans-serif" font-size="6" fill="#64748b">35</text>
  <text x="559.0" y="151.0" font-family="Inter, sans-serif" font-size="10" font-weight="bold" fill="#1e293b" text-anchor="middle">Br</text>
  <rect x="576" y="132" width="32" height="32" fill="#faf5ff" stroke="#9333ea" stroke-width="1" rx="3"/>
  <text x="579" y="140" font-family="Inter, sans-serif" font-size="6" fill="#64748b">36</text>
  <text x="592.0" y="151.0" font-family="Inter, sans-serif" font-size="10" font-weight="bold" fill="#1e293b" text-anchor="middle">Kr</text>
  <rect x="15" y="165" width="32" height="32" fill="#fef2f2" stroke="#dc2626" stroke-width="1" rx="3"/>
  <text x="18" y="173" font-family="Inter, sans-serif" font-size="6" fill="#64748b">37</text>
  <text x="31.0" y="184.0" font-family="Inter, sans-serif" font-size="10" font-weight="bold" fill="#1e293b" text-anchor="middle">Rb</text>
  <rect x="48" y="165" width="32" height="32" fill="#fff7ed" stroke="#ea580c" stroke-width="1" rx="3"/>
  <text x="51" y="173" font-family="Inter, sans-serif" font-size="6" fill="#64748b">38</text>
  <text x="64.0" y="184.0" font-family="Inter, sans-serif" font-size="10" font-weight="bold" fill="#1e293b" text-anchor="middle">Sr</text>
  <rect x="81" y="165" width="32" height="32" fill="#eff6ff" stroke="#2563eb" stroke-width="1" rx="3"/>
  <text x="84" y="173" font-family="Inter, sans-serif" font-size="6" fill="#64748b">39</text>
  <text x="97.0" y="184.0" font-family="Inter, sans-serif" font-size="10" font-weight="bold" fill="#1e293b" text-anchor="middle">Y</text>
  <rect x="114" y="165" width="32" height="32" fill="#eff6ff" stroke="#2563eb" stroke-width="1" rx="3"/>
  <text x="117" y="173" font-family="Inter, sans-serif" font-size="6" fill="#64748b">40</text>
  <text x="130.0" y="184.0" font-family="Inter, sans-serif" font-size="10" font-weight="bold" fill="#1e293b" text-anchor="middle">Zr</text>
  <rect x="147" y="165" width="32" height="32" fill="#eff6ff" stroke="#2563eb" stroke-width="1" rx="3"/>
  <text x="150" y="173" font-family="Inter, sans-serif" font-size="6" fill="#64748b">41</text>
  <text x="163.0" y="184.0" font-family="Inter, sans-serif" font-size="10" font-weight="bold" fill="#1e293b" text-anchor="middle">Nb</text>
  <rect x="180" y="165" width="32" height="32" fill="#eff6ff" stroke="#2563eb" stroke-width="1" rx="3"/>
  <text x="183" y="173" font-family="Inter, sans-serif" font-size="6" fill="#64748b">42</text>
  <text x="196.0" y="184.0" font-family="Inter, sans-serif" font-size="10" font-weight="bold" fill="#1e293b" text-anchor="middle">Mo</text>
  <rect x="213" y="165" width="32" height="32" fill="#eff6ff" stroke="#2563eb" stroke-width="1" rx="3"/>
  <text x="216" y="173" font-family="Inter, sans-serif" font-size="6" fill="#64748b">43</text>
  <text x="229.0" y="184.0" font-family="Inter, sans-serif" font-size="10" font-weight="bold" fill="#1e293b" text-anchor="middle">Tc</text>
  <rect x="246" y="165" width="32" height="32" fill="#eff6ff" stroke="#2563eb" stroke-width="1" rx="3"/>
  <text x="249" y="173" font-family="Inter, sans-serif" font-size="6" fill="#64748b">44</text>
  <text x="262.0" y="184.0" font-family="Inter, sans-serif" font-size="10" font-weight="bold" fill="#1e293b" text-anchor="middle">Ru</text>
  <rect x="279" y="165" width="32" height="32" fill="#eff6ff" stroke="#2563eb" stroke-width="1" rx="3"/>
  <text x="282" y="173" font-family="Inter, sans-serif" font-size="6" fill="#64748b">45</text>
  <text x="295.0" y="184.0" font-family="Inter, sans-serif" font-size="10" font-weight="bold" fill="#1e293b" text-anchor="middle">Rh</text>
  <rect x="312" y="165" width="32" height="32" fill="#eff6ff" stroke="#2563eb" stroke-width="1" rx="3"/>
  <text x="315" y="173" font-family="Inter, sans-serif" font-size="6" fill="#64748b">46</text>
  <text x="328.0" y="184.0" font-family="Inter, sans-serif" font-size="10" font-weight="bold" fill="#1e293b" text-anchor="middle">Pd</text>
  <rect x="345" y="165" width="32" height="32" fill="#eff6ff" stroke="#2563eb" stroke-width="1" rx="3"/>
  <text x="348" y="173" font-family="Inter, sans-serif" font-size="6" fill="#64748b">47</text>
  <text x="361.0" y="184.0" font-family="Inter, sans-serif" font-size="10" font-weight="bold" fill="#1e293b" text-anchor="middle">Ag</text>
  <rect x="378" y="165" width="32" height="32" fill="#eff6ff" stroke="#2563eb" stroke-width="1" rx="3"/>
  <text x="381" y="173" font-family="Inter, sans-serif" font-size="6" fill="#64748b">48</text>
  <text x="394.0" y="184.0" font-family="Inter, sans-serif" font-size="10" font-weight="bold" fill="#1e293b" text-anchor="middle">Cd</text>
  <rect x="411" y="165" width="32" height="32" fill="#eef2ff" stroke="#4f46e5" stroke-width="1" rx="3"/>
  <text x="414" y="173" font-family="Inter, sans-serif" font-size="6" fill="#64748b">49</text>
  <text x="427.0" y="184.0" font-family="Inter, sans-serif" font-size="10" font-weight="bold" fill="#1e293b" text-anchor="middle">In</text>
  <rect x="444" y="165" width="32" height="32" fill="#eef2ff" stroke="#4f46e5" stroke-width="1" rx="3"/>
  <text x="447" y="173" font-family="Inter, sans-serif" font-size="6" fill="#64748b">50</text>
  <text x="460.0" y="184.0" font-family="Inter, sans-serif" font-size="10" font-weight="bold" fill="#1e293b" text-anchor="middle">Sn</text>
  <rect x="477" y="165" width="32" height="32" fill="#f5f3ff" stroke="#7c3aed" stroke-width="1" rx="3"/>
  <text x="480" y="173" font-family="Inter, sans-serif" font-size="6" fill="#64748b">51</text>
  <text x="493.0" y="184.0" font-family="Inter, sans-serif" font-size="10" font-weight="bold" fill="#1e293b" text-anchor="middle">Sb</text>
  <rect x="510" y="165" width="32" height="32" fill="#f5f3ff" stroke="#7c3aed" stroke-width="1" rx="3"/>
  <text x="513" y="173" font-family="Inter, sans-serif" font-size="6" fill="#64748b">52</text>
  <text x="526.0" y="184.0" font-family="Inter, sans-serif" font-size="10" font-weight="bold" fill="#1e293b" text-anchor="middle">Te</text>
  <rect x="543" y="165" width="32" height="32" fill="#f0fdfa" stroke="#0d9488" stroke-width="1" rx="3"/>
  <text x="546" y="173" font-family="Inter, sans-serif" font-size="6" fill="#64748b">53</text>
  <text x="559.0" y="184.0" font-family="Inter, sans-serif" font-size="10" font-weight="bold" fill="#1e293b" text-anchor="middle">I</text>
  <rect x="576" y="165" width="32" height="32" fill="#faf5ff" stroke="#9333ea" stroke-width="1" rx="3"/>
  <text x="579" y="173" font-family="Inter, sans-serif" font-size="6" fill="#64748b">54</text>
  <text x="592.0" y="184.0" font-family="Inter, sans-serif" font-size="10" font-weight="bold" fill="#1e293b" text-anchor="middle">Xe</text>
  <rect x="15" y="198" width="32" height="32" fill="#fef2f2" stroke="#dc2626" stroke-width="1" rx="3"/>
  <text x="18" y="206" font-family="Inter, sans-serif" font-size="6" fill="#64748b">55</text>
  <text x="31.0" y="217.0" font-family="Inter, sans-serif" font-size="10" font-weight="bold" fill="#1e293b" text-anchor="middle">Cs</text>
  <rect x="48" y="198" width="32" height="32" fill="#fff7ed" stroke="#ea580c" stroke-width="1" rx="3"/>
  <text x="51" y="206" font-family="Inter, sans-serif" font-size="6" fill="#64748b">56</text>
  <text x="64.0" y="217.0" font-family="Inter, sans-serif" font-size="10" font-weight="bold" fill="#1e293b" text-anchor="middle">Ba</text>
  <rect x="114" y="198" width="32" height="32" fill="#eff6ff" stroke="#2563eb" stroke-width="1" rx="3"/>
  <text x="117" y="206" font-family="Inter, sans-serif" font-size="6" fill="#64748b">72</text>
  <text x="130.0" y="217.0" font-family="Inter, sans-serif" font-size="10" font-weight="bold" fill="#1e293b" text-anchor="middle">Hf</text>
  <rect x="147" y="198" width="32" height="32" fill="#eff6ff" stroke="#2563eb" stroke-width="1" rx="3"/>
  <text x="150" y="206" font-family="Inter, sans-serif" font-size="6" fill="#64748b">73</text>
  <text x="163.0" y="217.0" font-family="Inter, sans-serif" font-size="10" font-weight="bold" fill="#1e293b" text-anchor="middle">Ta</text>
  <rect x="180" y="198" width="32" height="32" fill="#eff6ff" stroke="#2563eb" stroke-width="1" rx="3"/>
  <text x="183" y="206" font-family="Inter, sans-serif" font-size="6" fill="#64748b">74</text>
  <text x="196.0" y="217.0" font-family="Inter, sans-serif" font-size="10" font-weight="bold" fill="#1e293b" text-anchor="middle">W</text>
  <rect x="213" y="198" width="32" height="32" fill="#eff6ff" stroke="#2563eb" stroke-width="1" rx="3"/>
  <text x="216" y="206" font-family="Inter, sans-serif" font-size="6" fill="#64748b">75</text>
  <text x="229.0" y="217.0" font-family="Inter, sans-serif" font-size="10" font-weight="bold" fill="#1e293b" text-anchor="middle">Re</text>
  <rect x="246" y="198" width="32" height="32" fill="#eff6ff" stroke="#2563eb" stroke-width="1" rx="3"/>
  <text x="249" y="206" font-family="Inter, sans-serif" font-size="6" fill="#64748b">76</text>
  <text x="262.0" y="217.0" font-family="Inter, sans-serif" font-size="10" font-weight="bold" fill="#1e293b" text-anchor="middle">Os</text>
  <rect x="279" y="198" width="32" height="32" fill="#eff6ff" stroke="#2563eb" stroke-width="1" rx="3"/>
  <text x="282" y="206" font-family="Inter, sans-serif" font-size="6" fill="#64748b">77</text>
  <text x="295.0" y="217.0" font-family="Inter, sans-serif" font-size="10" font-weight="bold" fill="#1e293b" text-anchor="middle">Ir</text>
  <rect x="312" y="198" width="32" height="32" fill="#eff6ff" stroke="#2563eb" stroke-width="1" rx="3"/>
  <text x="315" y="206" font-family="Inter, sans-serif" font-size="6" fill="#64748b">78</text>
  <text x="328.0" y="217.0" font-family="Inter, sans-serif" font-size="10" font-weight="bold" fill="#1e293b" text-anchor="middle">Pt</text>
  <rect x="345" y="198" width="32" height="32" fill="#eff6ff" stroke="#2563eb" stroke-width="1" rx="3"/>
  <text x="348" y="206" font-family="Inter, sans-serif" font-size="6" fill="#64748b">79</text>
  <text x="361.0" y="217.0" font-family="Inter, sans-serif" font-size="10" font-weight="bold" fill="#1e293b" text-anchor="middle">Au</text>
  <rect x="378" y="198" width="32" height="32" fill="#eff6ff" stroke="#2563eb" stroke-width="1" rx="3"/>
  <text x="381" y="206" font-family="Inter, sans-serif" font-size="6" fill="#64748b">80</text>
  <text x="394.0" y="217.0" font-family="Inter, sans-serif" font-size="10" font-weight="bold" fill="#1e293b" text-anchor="middle">Hg</text>
  <rect x="411" y="198" width="32" height="32" fill="#eef2ff" stroke="#4f46e5" stroke-width="1" rx="3"/>
  <text x="414" y="206" font-family="Inter, sans-serif" font-size="6" fill="#64748b">81</text>
  <text x="427.0" y="217.0" font-family="Inter, sans-serif" font-size="10" font-weight="bold" fill="#1e293b" text-anchor="middle">Tl</text>
  <rect x="444" y="198" width="32" height="32" fill="#eef2ff" stroke="#4f46e5" stroke-width="1" rx="3"/>
  <text x="447" y="206" font-family="Inter, sans-serif" font-size="6" fill="#64748b">82</text>
  <text x="460.0" y="217.0" font-family="Inter, sans-serif" font-size="10" font-weight="bold" fill="#1e293b" text-anchor="middle">Pb</text>
  <rect x="477" y="198" width="32" height="32" fill="#eef2ff" stroke="#4f46e5" stroke-width="1" rx="3"/>
  <text x="480" y="206" font-family="Inter, sans-serif" font-size="6" fill="#64748b">83</text>
  <text x="493.0" y="217.0" font-family="Inter, sans-serif" font-size="10" font-weight="bold" fill="#1e293b" text-anchor="middle">Bi</text>
  <rect x="510" y="198" width="32" height="32" fill="#f5f3ff" stroke="#7c3aed" stroke-width="1" rx="3"/>
  <text x="513" y="206" font-family="Inter, sans-serif" font-size="6" fill="#64748b">84</text>
  <text x="526.0" y="217.0" font-family="Inter, sans-serif" font-size="10" font-weight="bold" fill="#1e293b" text-anchor="middle">Po</text>
  <rect x="543" y="198" width="32" height="32" fill="#f0fdfa" stroke="#0d9488" stroke-width="1" rx="3"/>
  <text x="546" y="206" font-family="Inter, sans-serif" font-size="6" fill="#64748b">85</text>
  <text x="559.0" y="217.0" font-family="Inter, sans-serif" font-size="10" font-weight="bold" fill="#1e293b" text-anchor="middle">At</text>
  <rect x="576" y="198" width="32" height="32" fill="#faf5ff" stroke="#9333ea" stroke-width="1" rx="3"/>
  <text x="579" y="206" font-family="Inter, sans-serif" font-size="6" fill="#64748b">86</text>
  <text x="592.0" y="217.0" font-family="Inter, sans-serif" font-size="10" font-weight="bold" fill="#1e293b" text-anchor="middle">Rn</text>
  <rect x="15" y="231" width="32" height="32" fill="#fef2f2" stroke="#dc2626" stroke-width="1" rx="3"/>
  <text x="18" y="239" font-family="Inter, sans-serif" font-size="6" fill="#64748b">87</text>
  <text x="31.0" y="250.0" font-family="Inter, sans-serif" font-size="10" font-weight="bold" fill="#1e293b" text-anchor="middle">Fr</text>
  <rect x="48" y="231" width="32" height="32" fill="#fff7ed" stroke="#ea580c" stroke-width="1" rx="3"/>
  <text x="51" y="239" font-family="Inter, sans-serif" font-size="6" fill="#64748b">88</text>
  <text x="64.0" y="250.0" font-family="Inter, sans-serif" font-size="10" font-weight="bold" fill="#1e293b" text-anchor="middle">Ra</text>
  <rect x="114" y="231" width="32" height="32" fill="#eff6ff" stroke="#2563eb" stroke-width="1" rx="3"/>
  <text x="117" y="239" font-family="Inter, sans-serif" font-size="6" fill="#64748b">104</text>
  <text x="130.0" y="250.0" font-family="Inter, sans-serif" font-size="10" font-weight="bold" fill="#1e293b" text-anchor="middle">Rf</text>
  <rect x="147" y="231" width="32" height="32" fill="#eff6ff" stroke="#2563eb" stroke-width="1" rx="3"/>
  <text x="150" y="239" font-family="Inter, sans-serif" font-size="6" fill="#64748b">105</text>
  <text x="163.0" y="250.0" font-family="Inter, sans-serif" font-size="10" font-weight="bold" fill="#1e293b" text-anchor="middle">Db</text>
  <rect x="180" y="231" width="32" height="32" fill="#eff6ff" stroke="#2563eb" stroke-width="1" rx="3"/>
  <text x="183" y="239" font-family="Inter, sans-serif" font-size="6" fill="#64748b">106</text>
  <text x="196.0" y="250.0" font-family="Inter, sans-serif" font-size="10" font-weight="bold" fill="#1e293b" text-anchor="middle">Sg</text>
  <rect x="213" y="231" width="32" height="32" fill="#eff6ff" stroke="#2563eb" stroke-width="1" rx="3"/>
  <text x="216" y="239" font-family="Inter, sans-serif" font-size="6" fill="#64748b">107</text>
  <text x="229.0" y="250.0" font-family="Inter, sans-serif" font-size="10" font-weight="bold" fill="#1e293b" text-anchor="middle">Bh</text>
  <rect x="246" y="231" width="32" height="32" fill="#eff6ff" stroke="#2563eb" stroke-width="1" rx="3"/>
  <text x="249" y="239" font-family="Inter, sans-serif" font-size="6" fill="#64748b">108</text>
  <text x="262.0" y="250.0" font-family="Inter, sans-serif" font-size="10" font-weight="bold" fill="#1e293b" text-anchor="middle">Hs</text>
  <rect x="279" y="231" width="32" height="32" fill="#eff6ff" stroke="#2563eb" stroke-width="1" rx="3"/>
  <text x="282" y="239" font-family="Inter, sans-serif" font-size="6" fill="#64748b">109</text>
  <text x="295.0" y="250.0" font-family="Inter, sans-serif" font-size="10" font-weight="bold" fill="#1e293b" text-anchor="middle">Mt</text>
  <rect x="312" y="231" width="32" height="32" fill="#eff6ff" stroke="#2563eb" stroke-width="1" rx="3"/>
  <text x="315" y="239" font-family="Inter, sans-serif" font-size="6" fill="#64748b">110</text>
  <text x="328.0" y="250.0" font-family="Inter, sans-serif" font-size="10" font-weight="bold" fill="#1e293b" text-anchor="middle">Ds</text>
  <rect x="345" y="231" width="32" height="32" fill="#eff6ff" stroke="#2563eb" stroke-width="1" rx="3"/>
  <text x="348" y="239" font-family="Inter, sans-serif" font-size="6" fill="#64748b">111</text>
  <text x="361.0" y="250.0" font-family="Inter, sans-serif" font-size="10" font-weight="bold" fill="#1e293b" text-anchor="middle">Rg</text>
  <rect x="378" y="231" width="32" height="32" fill="#eff6ff" stroke="#2563eb" stroke-width="1" rx="3"/>
  <text x="381" y="239" font-family="Inter, sans-serif" font-size="6" fill="#64748b">112</text>
  <text x="394.0" y="250.0" font-family="Inter, sans-serif" font-size="10" font-weight="bold" fill="#1e293b" text-anchor="middle">Cn</text>
  <rect x="411" y="231" width="32" height="32" fill="#eef2ff" stroke="#4f46e5" stroke-width="1" rx="3"/>
  <text x="414" y="239" font-family="Inter, sans-serif" font-size="6" fill="#64748b">113</text>
  <text x="427.0" y="250.0" font-family="Inter, sans-serif" font-size="10" font-weight="bold" fill="#1e293b" text-anchor="middle">Nh</text>
  <rect x="444" y="231" width="32" height="32" fill="#eef2ff" stroke="#4f46e5" stroke-width="1" rx="3"/>
  <text x="447" y="239" font-family="Inter, sans-serif" font-size="6" fill="#64748b">114</text>
  <text x="460.0" y="250.0" font-family="Inter, sans-serif" font-size="10" font-weight="bold" fill="#1e293b" text-anchor="middle">Fl</text>
  <rect x="477" y="231" width="32" height="32" fill="#eef2ff" stroke="#4f46e5" stroke-width="1" rx="3"/>
  <text x="480" y="239" font-family="Inter, sans-serif" font-size="6" fill="#64748b">115</text>
  <text x="493.0" y="250.0" font-family="Inter, sans-serif" font-size="10" font-weight="bold" fill="#1e293b" text-anchor="middle">Mc</text>
  <rect x="510" y="231" width="32" height="32" fill="#eef2ff" stroke="#4f46e5" stroke-width="1" rx="3"/>
  <text x="513" y="239" font-family="Inter, sans-serif" font-size="6" fill="#64748b">116</text>
  <text x="526.0" y="250.0" font-family="Inter, sans-serif" font-size="10" font-weight="bold" fill="#1e293b" text-anchor="middle">Lv</text>
  <rect x="543" y="231" width="32" height="32" fill="#f0fdfa" stroke="#0d9488" stroke-width="1" rx="3"/>
  <text x="546" y="239" font-family="Inter, sans-serif" font-size="6" fill="#64748b">117</text>
  <text x="559.0" y="250.0" font-family="Inter, sans-serif" font-size="10" font-weight="bold" fill="#1e293b" text-anchor="middle">Ts</text>
  <rect x="576" y="231" width="32" height="32" fill="#faf5ff" stroke="#9333ea" stroke-width="1" rx="3"/>
  <text x="579" y="239" font-family="Inter, sans-serif" font-size="6" fill="#64748b">118</text>
  <text x="592.0" y="250.0" font-family="Inter, sans-serif" font-size="10" font-weight="bold" fill="#1e293b" text-anchor="middle">Og</text>
  <rect x="81" y="198" width="32" height="32" fill="#f1f5f9" stroke="#94a3b8" stroke-width="1" stroke-dasharray="2,2" rx="3"/>
  <text x="97.0" y="216.0" font-family="Inter, sans-serif" font-size="6" fill="#64748b" text-anchor="middle">57-71</text>
  <rect x="81" y="231" width="32" height="32" fill="#f1f5f9" stroke="#94a3b8" stroke-width="1" stroke-dasharray="2,2" rx="3"/>
  <text x="97.0" y="249.0" font-family="Inter, sans-serif" font-size="6" fill="#64748b" text-anchor="middle">89-103</text>
  <rect x="81" y="284" width="32" height="32" fill="#fdf2f8" stroke="#db2777" stroke-width="1" rx="3"/>
  <text x="84" y="292" font-family="Inter, sans-serif" font-size="6" fill="#64748b">57</text>
  <text x="97.0" y="303.0" font-family="Inter, sans-serif" font-size="10" font-weight="bold" fill="#1e293b" text-anchor="middle">La</text>
  <rect x="114" y="284" width="32" height="32" fill="#fdf2f8" stroke="#db2777" stroke-width="1" rx="3"/>
  <text x="117" y="292" font-family="Inter, sans-serif" font-size="6" fill="#64748b">58</text>
  <text x="130.0" y="303.0" font-family="Inter, sans-serif" font-size="10" font-weight="bold" fill="#1e293b" text-anchor="middle">Ce</text>
  <rect x="147" y="284" width="32" height="32" fill="#fdf2f8" stroke="#db2777" stroke-width="1" rx="3"/>
  <text x="150" y="292" font-family="Inter, sans-serif" font-size="6" fill="#64748b">59</text>
  <text x="163.0" y="303.0" font-family="Inter, sans-serif" font-size="10" font-weight="bold" fill="#1e293b" text-anchor="middle">Pr</text>
  <rect x="180" y="284" width="32" height="32" fill="#fdf2f8" stroke="#db2777" stroke-width="1" rx="3"/>
  <text x="183" y="292" font-family="Inter, sans-serif" font-size="6" fill="#64748b">60</text>
  <text x="196.0" y="303.0" font-family="Inter, sans-serif" font-size="10" font-weight="bold" fill="#1e293b" text-anchor="middle">Nd</text>
  <rect x="213" y="284" width="32" height="32" fill="#fdf2f8" stroke="#db2777" stroke-width="1" rx="3"/>
  <text x="216" y="292" font-family="Inter, sans-serif" font-size="6" fill="#64748b">61</text>
  <text x="229.0" y="303.0" font-family="Inter, sans-serif" font-size="10" font-weight="bold" fill="#1e293b" text-anchor="middle">Pm</text>
  <rect x="246" y="284" width="32" height="32" fill="#fdf2f8" stroke="#db2777" stroke-width="1" rx="3"/>
  <text x="249" y="292" font-family="Inter, sans-serif" font-size="6" fill="#64748b">62</text>
  <text x="262.0" y="303.0" font-family="Inter, sans-serif" font-size="10" font-weight="bold" fill="#1e293b" text-anchor="middle">Sm</text>
  <rect x="279" y="284" width="32" height="32" fill="#fdf2f8" stroke="#db2777" stroke-width="1" rx="3"/>
  <text x="282" y="292" font-family="Inter, sans-serif" font-size="6" fill="#64748b">63</text>
  <text x="295.0" y="303.0" font-family="Inter, sans-serif" font-size="10" font-weight="bold" fill="#1e293b" text-anchor="middle">Eu</text>
  <rect x="312" y="284" width="32" height="32" fill="#fdf2f8" stroke="#db2777" stroke-width="1" rx="3"/>
  <text x="315" y="292" font-family="Inter, sans-serif" font-size="6" fill="#64748b">64</text>
  <text x="328.0" y="303.0" font-family="Inter, sans-serif" font-size="10" font-weight="bold" fill="#1e293b" text-anchor="middle">Gd</text>
  <rect x="345" y="284" width="32" height="32" fill="#fdf2f8" stroke="#db2777" stroke-width="1" rx="3"/>
  <text x="348" y="292" font-family="Inter, sans-serif" font-size="6" fill="#64748b">65</text>
  <text x="361.0" y="303.0" font-family="Inter, sans-serif" font-size="10" font-weight="bold" fill="#1e293b" text-anchor="middle">Tb</text>
  <rect x="378" y="284" width="32" height="32" fill="#fdf2f8" stroke="#db2777" stroke-width="1" rx="3"/>
  <text x="381" y="292" font-family="Inter, sans-serif" font-size="6" fill="#64748b">66</text>
  <text x="394.0" y="303.0" font-family="Inter, sans-serif" font-size="10" font-weight="bold" fill="#1e293b" text-anchor="middle">Dy</text>
  <rect x="411" y="284" width="32" height="32" fill="#fdf2f8" stroke="#db2777" stroke-width="1" rx="3"/>
  <text x="414" y="292" font-family="Inter, sans-serif" font-size="6" fill="#64748b">67</text>
  <text x="427.0" y="303.0" font-family="Inter, sans-serif" font-size="10" font-weight="bold" fill="#1e293b" text-anchor="middle">Ho</text>
  <rect x="444" y="284" width="32" height="32" fill="#fdf2f8" stroke="#db2777" stroke-width="1" rx="3"/>
  <text x="447" y="292" font-family="Inter, sans-serif" font-size="6" fill="#64748b">68</text>
  <text x="460.0" y="303.0" font-family="Inter, sans-serif" font-size="10" font-weight="bold" fill="#1e293b" text-anchor="middle">Er</text>
  <rect x="477" y="284" width="32" height="32" fill="#fdf2f8" stroke="#db2777" stroke-width="1" rx="3"/>
  <text x="480" y="292" font-family="Inter, sans-serif" font-size="6" fill="#64748b">69</text>
  <text x="493.0" y="303.0" font-family="Inter, sans-serif" font-size="10" font-weight="bold" fill="#1e293b" text-anchor="middle">Tm</text>
  <rect x="510" y="284" width="32" height="32" fill="#fdf2f8" stroke="#db2777" stroke-width="1" rx="3"/>
  <text x="513" y="292" font-family="Inter, sans-serif" font-size="6" fill="#64748b">70</text>
  <text x="526.0" y="303.0" font-family="Inter, sans-serif" font-size="10" font-weight="bold" fill="#1e293b" text-anchor="middle">Yb</text>
  <rect x="543" y="284" width="32" height="32" fill="#fdf2f8" stroke="#db2777" stroke-width="1" rx="3"/>
  <text x="546" y="292" font-family="Inter, sans-serif" font-size="6" fill="#64748b">71</text>
  <text x="559.0" y="303.0" font-family="Inter, sans-serif" font-size="10" font-weight="bold" fill="#1e293b" text-anchor="middle">Lu</text>
  <rect x="81" y="317" width="32" height="32" fill="#fdf2f8" stroke="#be185d" stroke-width="1" rx="3"/>
  <text x="84" y="325" font-family="Inter, sans-serif" font-size="6" fill="#64748b">89</text>
  <text x="97.0" y="336.0" font-family="Inter, sans-serif" font-size="10" font-weight="bold" fill="#1e293b" text-anchor="middle">Ac</text>
  <rect x="114" y="317" width="32" height="32" fill="#fdf2f8" stroke="#be185d" stroke-width="1" rx="3"/>
  <text x="117" y="325" font-family="Inter, sans-serif" font-size="6" fill="#64748b">90</text>
  <text x="130.0" y="336.0" font-family="Inter, sans-serif" font-size="10" font-weight="bold" fill="#1e293b" text-anchor="middle">Th</text>
  <rect x="147" y="317" width="32" height="32" fill="#fdf2f8" stroke="#be185d" stroke-width="1" rx="3"/>
  <text x="150" y="325" font-family="Inter, sans-serif" font-size="6" fill="#64748b">91</text>
  <text x="163.0" y="336.0" font-family="Inter, sans-serif" font-size="10" font-weight="bold" fill="#1e293b" text-anchor="middle">Pa</text>
  <rect x="180" y="317" width="32" height="32" fill="#fdf2f8" stroke="#be185d" stroke-width="1" rx="3"/>
  <text x="183" y="325" font-family="Inter, sans-serif" font-size="6" fill="#64748b">92</text>
  <text x="196.0" y="336.0" font-family="Inter, sans-serif" font-size="10" font-weight="bold" fill="#1e293b" text-anchor="middle">U</text>
  <rect x="213" y="317" width="32" height="32" fill="#fdf2f8" stroke="#be185d" stroke-width="1" rx="3"/>
  <text x="216" y="325" font-family="Inter, sans-serif" font-size="6" fill="#64748b">93</text>
  <text x="229.0" y="336.0" font-family="Inter, sans-serif" font-size="10" font-weight="bold" fill="#1e293b" text-anchor="middle">Np</text>
  <rect x="246" y="317" width="32" height="32" fill="#fdf2f8" stroke="#be185d" stroke-width="1" rx="3"/>
  <text x="249" y="325" font-family="Inter, sans-serif" font-size="6" fill="#64748b">94</text>
  <text x="262.0" y="336.0" font-family="Inter, sans-serif" font-size="10" font-weight="bold" fill="#1e293b" text-anchor="middle">Pu</text>
  <rect x="279" y="317" width="32" height="32" fill="#fdf2f8" stroke="#be185d" stroke-width="1" rx="3"/>
  <text x="282" y="325" font-family="Inter, sans-serif" font-size="6" fill="#64748b">95</text>
  <text x="295.0" y="336.0" font-family="Inter, sans-serif" font-size="10" font-weight="bold" fill="#1e293b" text-anchor="middle">Am</text>
  <rect x="312" y="317" width="32" height="32" fill="#fdf2f8" stroke="#be185d" stroke-width="1" rx="3"/>
  <text x="315" y="325" font-family="Inter, sans-serif" font-size="6" fill="#64748b">96</text>
  <text x="328.0" y="336.0" font-family="Inter, sans-serif" font-size="10" font-weight="bold" fill="#1e293b" text-anchor="middle">Cm</text>
  <rect x="345" y="317" width="32" height="32" fill="#fdf2f8" stroke="#be185d" stroke-width="1" rx="3"/>
  <text x="348" y="325" font-family="Inter, sans-serif" font-size="6" fill="#64748b">97</text>
  <text x="361.0" y="336.0" font-family="Inter, sans-serif" font-size="10" font-weight="bold" fill="#1e293b" text-anchor="middle">Bk</text>
  <rect x="378" y="317" width="32" height="32" fill="#fdf2f8" stroke="#be185d" stroke-width="1" rx="3"/>
  <text x="381" y="325" font-family="Inter, sans-serif" font-size="6" fill="#64748b">98</text>
  <text x="394.0" y="336.0" font-family="Inter, sans-serif" font-size="10" font-weight="bold" fill="#1e293b" text-anchor="middle">Cf</text>
  <rect x="411" y="317" width="32" height="32" fill="#fdf2f8" stroke="#be185d" stroke-width="1" rx="3"/>
  <text x="414" y="325" font-family="Inter, sans-serif" font-size="6" fill="#64748b">99</text>
  <text x="427.0" y="336.0" font-family="Inter, sans-serif" font-size="10" font-weight="bold" fill="#1e293b" text-anchor="middle">Es</text>
  <rect x="444" y="317" width="32" height="32" fill="#fdf2f8" stroke="#be185d" stroke-width="1" rx="3"/>
  <text x="447" y="325" font-family="Inter, sans-serif" font-size="6" fill="#64748b">100</text>
  <text x="460.0" y="336.0" font-family="Inter, sans-serif" font-size="10" font-weight="bold" fill="#1e293b" text-anchor="middle">Fm</text>
  <rect x="477" y="317" width="32" height="32" fill="#fdf2f8" stroke="#be185d" stroke-width="1" rx="3"/>
  <text x="480" y="325" font-family="Inter, sans-serif" font-size="6" fill="#64748b">101</text>
  <text x="493.0" y="336.0" font-family="Inter, sans-serif" font-size="10" font-weight="bold" fill="#1e293b" text-anchor="middle">Md</text>
  <rect x="510" y="317" width="32" height="32" fill="#fdf2f8" stroke="#be185d" stroke-width="1" rx="3"/>
  <text x="513" y="325" font-family="Inter, sans-serif" font-size="6" fill="#64748b">102</text>
  <text x="526.0" y="336.0" font-family="Inter, sans-serif" font-size="10" font-weight="bold" fill="#1e293b" text-anchor="middle">No</text>
  <rect x="543" y="317" width="32" height="32" fill="#fdf2f8" stroke="#be185d" stroke-width="1" rx="3"/>
  <text x="546" y="325" font-family="Inter, sans-serif" font-size="6" fill="#64748b">103</text>
  <text x="559.0" y="336.0" font-family="Inter, sans-serif" font-size="10" font-weight="bold" fill="#1e293b" text-anchor="middle">Lr</text>
  <text x="47" y="302.0" font-family="Inter, sans-serif" font-size="7" fill="#64748b" text-anchor="end">Lantánidos</text>
  <text x="47" y="335.0" font-family="Inter, sans-serif" font-size="7" fill="#64748b" text-anchor="end">Actínidos</text>
  <text x="311.5" y="360" font-family="Inter, sans-serif" font-size="8" font-weight="bold" fill="#1e293b" text-anchor="middle">Categorías</text>
  <rect x="15.0" y="366" width="8" height="8" fill="#f0fdf4" stroke="#16a34a" stroke-width="0.5" rx="1"/>
  <text x="26.0" y="373" font-family="Inter, sans-serif" font-size="6" fill="#1e293b">No Metales</text>
  <rect x="133.6" y="366" width="8" height="8" fill="#faf5ff" stroke="#9333ea" stroke-width="0.5" rx="1"/>
  <text x="144.6" y="373" font-family="Inter, sans-serif" font-size="6" fill="#1e293b">Gases Nobles</text>
  <rect x="252.2" y="366" width="8" height="8" fill="#fef2f2" stroke="#dc2626" stroke-width="0.5" rx="1"/>
  <text x="263.2" y="373" font-family="Inter, sans-serif" font-size="6" fill="#1e293b">Alcalinos</text>
  <rect x="370.79999999999995" y="366" width="8" height="8" fill="#fff7ed" stroke="#ea580c" stroke-width="0.5" rx="1"/>
  <text x="381.79999999999995" y="373" font-family="Inter, sans-serif" font-size="6" fill="#1e293b">Alcalinotérreos</text>
  <rect x="489.4" y="366" width="8" height="8" fill="#f5f3ff" stroke="#7c3aed" stroke-width="0.5" rx="1"/>
  <text x="500.4" y="373" font-family="Inter, sans-serif" font-size="6" fill="#1e293b">Metaloides</text>
  <rect x="15.0" y="380" width="8" height="8" fill="#f0fdfa" stroke="#0d9488" stroke-width="0.5" rx="1"/>
  <text x="26.0" y="387" font-family="Inter, sans-serif" font-size="6" fill="#1e293b">Halógenos</text>
  <rect x="133.6" y="380" width="8" height="8" fill="#eef2ff" stroke="#4f46e5" stroke-width="0.5" rx="1"/>
  <text x="144.6" y="387" font-family="Inter, sans-serif" font-size="6" fill="#1e293b">Post-transición</text>
  <rect x="252.2" y="380" width="8" height="8" fill="#eff6ff" stroke="#2563eb" stroke-width="0.5" rx="1"/>
  <text x="263.2" y="387" font-family="Inter, sans-serif" font-size="6" fill="#1e293b">Transición</text>
  <rect x="370.79999999999995" y="380" width="8" height="8" fill="#fdf2f8" stroke="#db2777" stroke-width="0.5" rx="1"/>
  <text x="381.79999999999995" y="387" font-family="Inter, sans-serif" font-size="6" fill="#1e293b">Lantánidos</text>
  <rect x="489.4" y="380" width="8" height="8" fill="#fdf2f8" stroke="#be185d" stroke-width="0.5" rx="1"/>
  <text x="500.4" y="387" font-family="Inter, sans-serif" font-size="6" fill="#1e293b">Actínidos</text>
</svg>