<svg xmlns="http://www.w3.org/2000/svg" viewBox="0 0 700 350">
  <defs></defs>
  <rect x="0.00" y="0.00" width="700.00" height="350.00" fill="#f8fafc" stroke="none" stroke-width="0" rx="12"  />
  <text x="350.00" y="40.00" font-family="Inter, sans-serif" font-size="24" font-weight="900" fill="#1e293b" text-anchor="middle" dominant-baseline="middle">Grupo 18 (VIIIA): Los Gases Nobles</text>
  <rect x="60.00" y="80.00" width="27.00" height="27.00" fill="#f8fafc" stroke="#cbd5e1" stroke-width="0.5" rx="4" fill-opacity="0.2" />
  <rect x="570.00" y="80.00" width="27.00" height="27.00" fill="#3b82f6" stroke="#2563eb" stroke-width="2" rx="4"  />
  <rect x="60.00" y="110.00" width="27.00" height="27.00" fill="#f8fafc" stroke="#cbd5e1" stroke-width="0.5" rx="4" fill-opacity="0.2" />
  <rect x="90.00" y="110.00" width="27.00" height="27.00" fill="#f8fafc" stroke="#cbd5e1" stroke-width="0.5" rx="4" fill-opacity="0.2" />
  <rect x="420.00" y="110.00" width="27.00" height="27.00" fill="#f8fafc" stroke="#cbd5e1" stroke-width="0.5" rx="4" fill-opacity="0.2" />
  <rect x="450.00" y="110.00" width="27.00" height="27.00" fill="#f8fafc" stroke="#cbd5e1" stroke-width="0.5" rx="4" fill-opacity="0.2" />
  <rect x="480.00" y="110.00" width="27.00" height="27.00" fill="#f8fafc" stroke="#cbd5e1" stroke-width="0.5" rx="4" fill-opacity="0.2" />
  <rect x="510.00" y="110.00" width="27.00" height="27.00" fill="#f8fafc" stroke="#cbd5e1" stroke-width="0.5" rx="4" fill-opacity="0.2" />
  <rect x="540.00" y="110.00" width="27.00" height="27.00" fill="#f8fafc" stroke="#cbd5e1" stroke-width="0.5" rx="4" fill-opacity="0.2" />
  <rect x="570.00" y="110.00" width="27.00" height="27.00" fill="#3b82f6" stroke="#2563eb" stroke-width="2" rx="4"  />
  <rect x="60.00" y="140.00" width="27.00" height="27.00" fill="#f8fafc" stroke="#cbd5e1" stroke-width="0.5" rx="4" fill-opacity="0.2" />
  <rect x="90.00" y="140.00" width="27.00" height="27.00" fill="#f8fafc" stroke="#cbd5e1" stroke-width="0.5" rx="4" fill-opacity="0.2" />
  <rect x="420.00" y="140.00" width="27.00" height="27.00" fill="#f8fafc" stroke="#cbd5e1" stroke-width="0.5" rx="4" fill-opacity="0.2" />
  <rect x="450.00" y="140.00" width="27.00" height="27.00" fill="#f8fafc" stroke="#cbd5e1" stroke-width="0.5" rx="4" fill-opacity="0.2" />
  <rect x="480.00" y="140.00" width="27.00" height="27.00" fill="#f8fafc" stroke="#cbd5e1" stroke-width="0.5" rx="4" fill-opacity="0.2" />
  <rect x="510.00" y="140.00" width="27.00" height="27.00" fill="#f8fafc" stroke="#cbd5e1" stroke-width="0.5" rx="4" fill-opacity="0.2" />
  <rect x="540.00" y="140.00" width="27.00" height="27.00" fill="#f8fafc" stroke="#cbd5e1" stroke-width="0.5" rx="4" fill-opacity="0.2" />
  <rect x="570.00" y="140.00" width="27.00" height="27.00" fill="#3b82f6" stroke="#2563eb" stroke-width="2" rx="4"  />
  <rect x="60.00" y="170.00" width="27.00" height="27.00" fill="#f8fafc" stroke="#cbd5e1" stroke-width="0.5" rx="4" fill-opacity="0.2" />
  <rect x="90.00" y="170.00" width="27.00" height="27.00" fill="#f8fafc" stroke="#cbd5e1" stroke-width="0.5" rx="4" fill-opacity="0.2" />
  <rect x="120.00" y="170.00" width="27.00" height="27.00" fill="#f8fafc" stroke="#cbd5e1" stroke-width="0.5" rx="4" fill-opacity="0.2" />
  <rect x="150.00" y="170.00" width="27.00" height="27.00" fill="#f8fafc" stroke="#cbd5e1" stroke-width="0.5" rx="4" fill-opacity="0.2" />
  <rect x="180.00" y="170.00" width="27.00" height="27.00" fill="#f8fafc" stroke="#cbd5e1" stroke-width="0.5" rx="4" fill-opacity="0.2" />
  <rect x="210.00" y="170.00" width="27.00" height="27.00" fill="#f8fafc" stroke="#cbd5e1" stroke-width="0.5" rx="4" fill-opacity="0.2" />
  <rect x="240.00" y="170.00" width="27.00" height="27.00" fill="#f8fafc" stroke="#cbd5e1" stroke-width="0.5" rx="4" fill-opacity="0.2" />
  <rect x="270.00" y="170.00" width="27.00" height="27.00" fill="#f8fafc" stroke="#cbd5e1" stroke-width="0.5" rx="4" fill-opacity="0.2" />
  <rect x="300.00" y="170.00" width="27.00" height="27.00" fill="#f8fafc" stroke="#cbd5e1" stroke-width="0.5" rx="4" fill-opacity="0.2" />
  <rect x="330.00" y="170.00" width="27.00" height="27.00" fill="#f8fafc" stroke="#cbd5e1" stroke-width="0.5" rx="4" fill-opacity="0.2" />
  <rect x="360.00" y="170.00" width="27.00" height="27.00" fill="#f8fafc" stroke="#cbd5e1" stroke-width="0.5" rx="4" fill-opacity="0.2" />
  <rect x="390.00" y="170.00" width="27.00" height="27.00" fill="#f8fafc" stroke="#cbd5e1" stroke-width="0.5" rx="4" fill-opacity="0.2" />
  <rect x="420.00" y="170.00" width="27.00" height="27.00" fill="#f8fafc" stroke="#cbd5e1" stroke-width="0.5" rx="4" fill-opacity="0.2" />
  <rect x="450.00" y="170.00" width="27.00" height="27.00" fill="#f8fafc" stroke="#cbd5e1" stroke-width="0.5" rx="4" fill-opacity="0.2" />
  <rect x="480.00" y="170.00" width="27.00" height="27.00" fill="#f8fafc" stroke="#cbd5e1" stroke-width="0.5" rx="4" fill-opacity="0.2" />
  <rect x="510.00" y="170.00" width="27.00" height="27.00" fill="#f8fafc" stroke="#cbd5e1" stroke-width="0.5" rx="4" fill-opacity="0.2" />
  <rect x="540.00" y="170.00" width="27.00" height="27.00" fill="#f8fafc" stroke="#cbd5e1" stroke-width="0.5" rx="4" fill-opacity="0.2" />
  <rect x="570.00" y="170.00" width="27.00" height="27.00" fill="#3b82f6" stroke="#2563eb" stroke-width="2" rx="4"  />
  <rect x="60.00" y="200.00" width="27.00" height="27.00" fill="#f8fafc" stroke="#cbd5e1" stroke-width="0.5" rx="4" fill-opacity="0.2" />
  <rect x="90.00" y="200.00" width="27.00" height="27.00" fill="#f8fafc" stroke="#cbd5e1" stroke-width="0.5" rx="4" fill-opacity="0.2" />
  <rect x="120.00" y="200.00" width="27.00" height="27.00" fill="#f8fafc" stroke="#cbd5e1" stroke-width="0.5" rx="4" fill-opacity="0.2" />
  <rect x="150.00" y="200.00" width="27.00" height="27.00" fill="#f8fafc" stroke="#cbd5e1" stroke-width="0.5" rx="4" fill-opacity="0.2" />
  <rect x="180.00" y="200.00" width="27.00" height="27.00" fill="#f8fafc" stroke="#cbd5e1" stroke-width="0.5" rx="4" fill-opacity="0.2" />
  <rect x="210.00" y="200.00" width="27.00" height="27.00" fill="#f8fafc" stroke="#cbd5e1" stroke-width="0.5" rx="4" fill-opacity="0.2" />
  <rect x="240.00" y="200.00" width="27.00" height="27.00" fill="#f8fafc" stroke="#cbd5e1" stroke-width="0.5" rx="4" fill-opacity="0.2" />
  <rect x="270.00" y="200.00" width="27.00" height="27.00" fill="#f8fafc" stroke="#cbd5e1" stroke-width="0.5" rx="4" fill-opacity="0.2" />
  <rect x="300.00" y="200.00" width="27.00" height="27.00" fill="#f8fafc" stroke="#cbd5e1" stroke-width="0.5" rx="4" fill-opacity="0.2" />
  <rect x="330.00" y="200.00" width="27.00" height="27.00" fill="#f8fafc" stroke="#cbd5e1" stroke-width="0.5" rx="4" fill-opacity="0.2" />
  <rect x="360.00" y="200.00" width="27.00" height="27.00" fill="#f8fafc" stroke="#cbd5e1" stroke-width="0.5" rx="4" fill-opacity="0.2" />
  <rect x="390.00" y="200.00" width="27.00" height="27.00" fill="#f8fafc" stroke="#cbd5e1" stroke-width="0.5" rx="4" fill-opacity="0.2" />
  <rect x="420.00" y="200.00" width="27.00" height="27.00" fill="#f8fafc" stroke="#cbd5e1" stroke-width="0.5" rx="4" fill-opacity="0.2" />
  <rect x="450.00" y="200.00" width="27.00" height="27.00" fill="#f8fafc" stroke="#cbd5e1" stroke-width="0.5" rx="4" fill-opacity="0.2" />
  <rect x="480.00" y="200.00" width="27.00" height="27.00" fill="#f8fafc" stroke="#cbd5e1" stroke-width="0.5" rx="4" fill-opacity="0.2" />
  <rect x="510.00" y="200.00" width="27.00" height="27.00" fill="#f8fafc" stroke="#cbd5e1" stroke-width="0.5" rx="4" fill-opacity="0.2" />
  <rect x="540.00" y="200.00" width="27.00" height="27.00" fill="#f8fafc" stroke="#cbd5e1" stroke-width="0.5" rx="4" fill-opacity="0.2" />
  <rect x="570.00" y="200.00" width="27.00" height="27.00" fill="#3b82f6" stroke="#2563eb" stroke-width="2" rx="4"  />
  <rect x="60.00" y="230.00" width="27.00" height="27.00" fill="#f8fafc" stroke="#cbd5e1" stroke-width="0.5" rx="4" fill-opacity="0.2" />
  <rect x="90.00" y="230.00" width="27.00" height="27.00" fill="#f8fafc" stroke="#cbd5e1" stroke-width="0.5" rx="4" fill-opacity="0.2" />
  <rect x="120.00" y="230.00" width="27.00" height="27.00" fill="#f8fafc" stroke="#cbd5e1" stroke-width="0.5" rx="4" fill-opacity="0.2" />
  <rect x="150.00" y="230.00" width="27.00" height="27.00" fill="#f8fafc" stroke="#cbd5e1" stroke-width="0.5" rx="4" fill-opacity="0.2" />
  <rect x="180.00" y="230.00" width="27.00" height="27.00" fill="#f8fafc" stroke="#cbd5e1" stroke-width="0.5" rx="4" fill-opacity="0.2" />
  <rect x="210.00" y="230.00" width="27.00" height="27.00" fill="#f8fafc" stroke="#cbd5e1" stroke-width="0.5" rx="4" fill-opacity="0.2" />
  <rect x="240.00" y="230.00" width="27.00" height="27.00" fill="#f8fafc" stroke="#cbd5e1" stroke-width="0.5" rx="4" fill-opacity="0.2" />
  <rect x="270.00" y="230.00" width="27.00" height="27.00" fill="#f8fafc" stroke="#cbd5e1" stroke-width="0.5" rx="4" fill-opacity="0.2" />
  <rect x="300.00" y="230.00" width="27.00" height="27.00" fill="#f8fafc" stroke="#cbd5e1" stroke-width="0.5" rx="4" fill-opacity="0.2" />
  <rect x="330.00" y="230.00" width="27.00" height="27.00" fill="#f8fafc" stroke="#cbd5e1" stroke-width="0.5" rx="4" fill-opacity="0.2" />
  <rect x="360.00" y="230.00" width="27.00" height="27.00" fill="#f8fafc" stroke="#cbd5e1" stroke-width="0.5" rx="4" fill-opacity="0.2" />
  <rect x="390.00" y="230.00" width="27.00" height="27.00" fill="#f8fafc" stroke="#cbd5e1" stroke-width="0.5" rx="4" fill-opacity="0.2" />
  <rect x="420.00" y="230.00" width="27.00" height="27.00" fill="#f8fafc" stroke="#cbd5e1" stroke-width="0.5" rx="4" fill-opacity="0.2" />
  <rect x="450.00" y="230.00" width="27.00" height="27.00" fill="#f8fafc" stroke="#cbd5e1" stroke-width="0.5" rx="4" fill-opacity="0.2" />
  <rect x="480.00" y="230.00" width="27.00" height="27.00" fill="#f8fafc" stroke="#cbd5e1" stroke-width="0.5" rx="4" fill-opacity="0.2" />
  <rect x="510.00" y="230.00" width="27.00" height="27.00" fill="#f8fafc" stroke="#cbd5e1" stroke-width="0.5" rx="4" fill-opacity="0.2" />
  <rect x="540.00" y="230.00" width="27.00" height="27.00" fill="#f8fafc" stroke="#cbd5e1" stroke-width="0.5" rx="4" fill-opacity="0.2" />
  <rect x="570.00" y="230.00" width="27.00" height="27.00" fill="#3b82f6" stroke="#2563eb" stroke-width="2" rx="4"  />
  <rect x="60.00" y="260.00" width="27.00" height="27.00" fill="#f8fafc" stroke="#cbd5e1" stroke-width="0.5" rx="4" fill-opacity="0.2" />
  <rect x="90.00" y="260.00" width="27.00" height="27.00" fill="#f8fafc" stroke="#cbd5e1" stroke-width="0.5" rx="4" fill-opacity="0.2" />
  <rect x="120.00" y="260.00" width="27.00" height="27.00" fill="#f8fafc" stroke="#cbd5e1" stroke-width="0.5" rx="4" fill-opacity="0.2" />
  <rect x="150.00" y="260.00" width="27.00" height="27.00" fill="#f8fafc" stroke="#cbd5e1" stroke-width="0.5" rx="4" fill-opacity="0.2" />
  <rect x="180.00" y="260.00" width="27.00" height="27.00" fill="#f8fafc" stroke="#cbd5e1" stroke-width="0.5" rx="4" fill-opacity="0.2" />
  <rect x="210.00" y="260.00" width="27.00" height="27.00" fill="#f8fafc" stroke="#cbd5e1" stroke-width="0.5" rx="4" fill-opacity="0.2" />
  <rect x="240.00" y="260.00" width="27.00" height="27.00" fill="#f8fafc" stroke="#cbd5e1" stroke-width="0.5" rx="4" fill-opacity="0.2" />
  <rect x="270.00" y="260.00" width="27.00" height="27.00" fill="#f8fafc" stroke="#cbd5e1" stroke-width="0.5" rx="4" fill-opacity="0.2" />
  <rect x="300.00" y="260.00" width="27.00" height="27.00" fill="#f8fafc" stroke="#cbd5e1" stroke-width="0.5" rx="4" fill-opacity="0.2" />
  <rect x="330.00" y="260.00" width="27.00" height="27.00" fill="#f8fafc" stroke="#cbd5e1" stroke-width="0.5" rx="4" fill-opacity="0.2" />
  <rect x="360.00" y="260.00" width="27.00" height="27.00" fill="#f8fafc" stroke="#cbd5e1" stroke-width="0.5" rx="4" fill-opacity="0.2" />
  <rect x="390.00" y="260.00" width="27.00" height="27.00" fill="#f8fafc" stroke="#cbd5e1" stroke-width="0.5" rx="4" fill-opacity="0.2" />
  <rect x="420.00" y="260.00" width="27.00" height="27.00" fill="#f8fafc" stroke="#cbd5e1" stroke-width="0.5" rx="4" fill-opacity="0.2" />
  <rect x="450.00" y="260.00" width="27.00" height="27.00" fill="#f8fafc" stroke="#cbd5e1" stroke-width="0.5" rx="4" fill-opacity="0.2" />
  <rect x="480.00" y="260.00" width="27.00" height="27.00" fill="#f8fafc" stroke="#cbd5e1" stroke-width="0.5" rx="4" fill-opacity="0.2" />
  <rect x="510.00" y="260.00" width="27.00" height="27.00" fill="#f8fafc" stroke="#cbd5e1" stroke-width="0.5" rx="4" fill-opacity="0.2" />
  <rect x="540.00" y="260.00" width="27.00" height="27.00" fill="#f8fafc" stroke="#cbd5e1" stroke-width="0.5" rx="4" fill-opacity="0.2" />
  <rect x="570.00" y="260.00" width="27.00" height="27.00" fill="#3b82f6" stroke="#2563eb" stroke-width="2" rx="4"  />
  <text x="550.00" y="320.00" font-family="Inter, sans-serif" font-size="14" font-weight="bold" fill="#2563eb" text-anchor="middle" dominant-baseline="middle">ESTABILIDAD TOTAL (8 e- de valencia)</text>
</svg>