<svg xmlns="http://www.w3.org/2000/svg" viewBox="0 0 1050 850">
  <defs></defs>
  <rect x="0.00" y="0.00" width="1050.00" height="850.00" fill="#f8fafc" stroke="none" stroke-width="0" rx="12"  />
  <text x="525.00" y="45.00" font-family="Inter, sans-serif" font-size="32" font-weight="bold" fill="#1e293b" text-anchor="middle" dominant-baseline="middle">Bloques d y f (Transición)</text>
  <text x="259.00" y="246.00" font-family="Inter, sans-serif" font-size="18" font-weight="bold" fill="#ef4444" text-anchor="end" dominant-baseline="middle">d</text>
  <text x="261.00" y="239.00" font-family="Inter, sans-serif" font-size="14" font-weight="900" fill="#ef4444" text-anchor="start" dominant-baseline="middle">¹</text>
  <text x="301.00" y="246.00" font-family="Inter, sans-serif" font-size="18" font-weight="bold" fill="#ef4444" text-anchor="end" dominant-baseline="middle">d</text>
  <text x="303.00" y="239.00" font-family="Inter, sans-serif" font-size="14" font-weight="900" fill="#ef4444" text-anchor="start" dominant-baseline="middle">²</text>
  <text x="343.00" y="246.00" font-family="Inter, sans-serif" font-size="18" font-weight="bold" fill="#ef4444" text-anchor="end" dominant-baseline="middle">d</text>
  <text x="345.00" y="239.00" font-family="Inter, sans-serif" font-size="14" font-weight="900" fill="#ef4444" text-anchor="start" dominant-baseline="middle">³</text>
  <text x="385.00" y="246.00" font-family="Inter, sans-serif" font-size="18" font-weight="bold" fill="#ef4444" text-anchor="end" dominant-baseline="middle">d</text>
  <text x="387.00" y="239.00" font-family="Inter, sans-serif" font-size="14" font-weight="900" fill="#ef4444" text-anchor="start" dominant-baseline="middle">⁴</text>
  <text x="427.00" y="246.00" font-family="Inter, sans-serif" font-size="18" font-weight="bold" fill="#ef4444" text-anchor="end" dominant-baseline="middle">d</text>
  <text x="429.00" y="239.00" font-family="Inter, sans-serif" font-size="14" font-weight="900" fill="#ef4444" text-anchor="start" dominant-baseline="middle">⁵</text>
  <text x="469.00" y="246.00" font-family="Inter, sans-serif" font-size="18" font-weight="bold" fill="#ef4444" text-anchor="end" dominant-baseline="middle">d</text>
  <text x="471.00" y="239.00" font-family="Inter, sans-serif" font-size="14" font-weight="900" fill="#ef4444" text-anchor="start" dominant-baseline="middle">⁶</text>
  <text x="511.00" y="246.00" font-family="Inter, sans-serif" font-size="18" font-weight="bold" fill="#ef4444" text-anchor="end" dominant-baseline="middle">d</text>
  <text x="513.00" y="239.00" font-family="Inter, sans-serif" font-size="14" font-weight="900" fill="#ef4444" text-anchor="start" dominant-baseline="middle">⁷</text>
  <text x="553.00" y="246.00" font-family="Inter, sans-serif" font-size="18" font-weight="bold" fill="#ef4444" text-anchor="end" dominant-baseline="middle">d</text>
  <text x="555.00" y="239.00" font-family="Inter, sans-serif" font-size="14" font-weight="900" fill="#ef4444" text-anchor="start" dominant-baseline="middle">⁸</text>
  <text x="595.00" y="246.00" font-family="Inter, sans-serif" font-size="18" font-weight="bold" fill="#ef4444" text-anchor="end" dominant-baseline="middle">d</text>
  <text x="597.00" y="239.00" font-family="Inter, sans-serif" font-size="14" font-weight="900" fill="#ef4444" text-anchor="start" dominant-baseline="middle">⁹</text>
  <text x="637.00" y="246.00" font-family="Inter, sans-serif" font-size="18" font-weight="bold" fill="#ef4444" text-anchor="end" dominant-baseline="middle">d</text>
  <text x="639.00" y="239.00" font-family="Inter, sans-serif" font-size="14" font-weight="900" fill="#ef4444" text-anchor="start" dominant-baseline="middle">¹⁰</text>
  <rect x="159.00" y="140.00" width="38.00" height="38.00" fill="#f1f5f9" stroke="#cbd5e1" stroke-width="1.2" rx="4"  />
  <rect x="873.00" y="140.00" width="38.00" height="38.00" fill="#f1f5f9" stroke="#cbd5e1" stroke-width="1.2" rx="4"  />
  <rect x="159.00" y="182.00" width="38.00" height="38.00" fill="#f1f5f9" stroke="#cbd5e1" stroke-width="1.2" rx="4"  />
  <rect x="201.00" y="182.00" width="38.00" height="38.00" fill="#f1f5f9" stroke="#cbd5e1" stroke-width="1.2" rx="4"  />
  <rect x="663.00" y="182.00" width="38.00" height="38.00" fill="#f1f5f9" stroke="#cbd5e1" stroke-width="1.2" rx="4"  />
  <rect x="705.00" y="182.00" width="38.00" height="38.00" fill="#f1f5f9" stroke="#cbd5e1" stroke-width="1.2" rx="4"  />
  <rect x="747.00" y="182.00" width="38.00" height="38.00" fill="#f1f5f9" stroke="#cbd5e1" stroke-width="1.2" rx="4"  />
  <rect x="789.00" y="182.00" width="38.00" height="38.00" fill="#f1f5f9" stroke="#cbd5e1" stroke-width="1.2" rx="4"  />
  <rect x="831.00" y="182.00" width="38.00" height="38.00" fill="#f1f5f9" stroke="#cbd5e1" stroke-width="1.2" rx="4"  />
  <rect x="873.00" y="182.00" width="38.00" height="38.00" fill="#f1f5f9" stroke="#cbd5e1" stroke-width="1.2" rx="4"  />
  <rect x="159.00" y="224.00" width="38.00" height="38.00" fill="#f1f5f9" stroke="#cbd5e1" stroke-width="1.2" rx="4"  />
  <rect x="201.00" y="224.00" width="38.00" height="38.00" fill="#f1f5f9" stroke="#cbd5e1" stroke-width="1.2" rx="4"  />
  <rect x="663.00" y="224.00" width="38.00" height="38.00" fill="#f1f5f9" stroke="#cbd5e1" stroke-width="1.2" rx="4"  />
  <rect x="705.00" y="224.00" width="38.00" height="38.00" fill="#f1f5f9" stroke="#cbd5e1" stroke-width="1.2" rx="4"  />
  <rect x="747.00" y="224.00" width="38.00" height="38.00" fill="#f1f5f9" stroke="#cbd5e1" stroke-width="1.2" rx="4"  />
  <rect x="789.00" y="224.00" width="38.00" height="38.00" fill="#f1f5f9" stroke="#cbd5e1" stroke-width="1.2" rx="4"  />
  <rect x="831.00" y="224.00" width="38.00" height="38.00" fill="#f1f5f9" stroke="#cbd5e1" stroke-width="1.2" rx="4"  />
  <rect x="873.00" y="224.00" width="38.00" height="38.00" fill="#f1f5f9" stroke="#cbd5e1" stroke-width="1.2" rx="4"  />
  <text x="144.00" y="289.00" font-family="Inter, sans-serif" font-size="18" font-weight="900" fill="#ef4444" text-anchor="end" dominant-baseline="middle">3d</text>
  <rect x="159.00" y="266.00" width="38.00" height="38.00" fill="#f1f5f9" stroke="#cbd5e1" stroke-width="1.2" rx="4"  />
  <rect x="201.00" y="266.00" width="38.00" height="38.00" fill="#f1f5f9" stroke="#cbd5e1" stroke-width="1.2" rx="4"  />
  <rect x="243.00" y="266.00" width="38.00" height="38.00" fill="#ef4444" stroke="black" stroke-width="1.2" rx="4"  />
  <rect x="285.00" y="266.00" width="38.00" height="38.00" fill="#ef4444" stroke="black" stroke-width="1.2" rx="4"  />
  <rect x="327.00" y="266.00" width="38.00" height="38.00" fill="#ef4444" stroke="black" stroke-width="1.2" rx="4"  />
  <rect x="369.00" y="266.00" width="38.00" height="38.00" fill="#ef4444" stroke="black" stroke-width="1.2" rx="4"  />
  <rect x="411.00" y="266.00" width="38.00" height="38.00" fill="#ef4444" stroke="black" stroke-width="1.2" rx="4"  />
  <rect x="453.00" y="266.00" width="38.00" height="38.00" fill="#ef4444" stroke="black" stroke-width="1.2" rx="4"  />
  <rect x="495.00" y="266.00" width="38.00" height="38.00" fill="#ef4444" stroke="black" stroke-width="1.2" rx="4"  />
  <rect x="537.00" y="266.00" width="38.00" height="38.00" fill="#ef4444" stroke="black" stroke-width="1.2" rx="4"  />
  <rect x="579.00" y="266.00" width="38.00" height="38.00" fill="#ef4444" stroke="black" stroke-width="1.2" rx="4"  />
  <rect x="621.00" y="266.00" width="38.00" height="38.00" fill="#ef4444" stroke="black" stroke-width="1.2" rx="4"  />
  <rect x="663.00" y="266.00" width="38.00" height="38.00" fill="#f1f5f9" stroke="#cbd5e1" stroke-width="1.2" rx="4"  />
  <rect x="705.00" y="266.00" width="38.00" height="38.00" fill="#f1f5f9" stroke="#cbd5e1" stroke-width="1.2" rx="4"  />
  <rect x="747.00" y="266.00" width="38.00" height="38.00" fill="#f1f5f9" stroke="#cbd5e1" stroke-width="1.2" rx="4"  />
  <rect x="789.00" y="266.00" width="38.00" height="38.00" fill="#f1f5f9" stroke="#cbd5e1" stroke-width="1.2" rx="4"  />
  <rect x="831.00" y="266.00" width="38.00" height="38.00" fill="#f1f5f9" stroke="#cbd5e1" stroke-width="1.2" rx="4"  />
  <rect x="873.00" y="266.00" width="38.00" height="38.00" fill="#f1f5f9" stroke="#cbd5e1" stroke-width="1.2" rx="4"  />
  <text x="144.00" y="331.00" font-family="Inter, sans-serif" font-size="18" font-weight="900" fill="#ef4444" text-anchor="end" dominant-baseline="middle">4d</text>
  <rect x="159.00" y="308.00" width="38.00" height="38.00" fill="#f1f5f9" stroke="#cbd5e1" stroke-width="1.2" rx="4"  />
  <rect x="201.00" y="308.00" width="38.00" height="38.00" fill="#f1f5f9" stroke="#cbd5e1" stroke-width="1.2" rx="4"  />
  <rect x="243.00" y="308.00" width="38.00" height="38.00" fill="#ef4444" stroke="black" stroke-width="1.2" rx="4"  />
  <rect x="285.00" y="308.00" width="38.00" height="38.00" fill="#ef4444" stroke="black" stroke-width="1.2" rx="4"  />
  <rect x="327.00" y="308.00" width="38.00" height="38.00" fill="#ef4444" stroke="black" stroke-width="1.2" rx="4"  />
  <rect x="369.00" y="308.00" width="38.00" height="38.00" fill="#ef4444" stroke="black" stroke-width="1.2" rx="4"  />
  <rect x="411.00" y="308.00" width="38.00" height="38.00" fill="#ef4444" stroke="black" stroke-width="1.2" rx="4"  />
  <rect x="453.00" y="308.00" width="38.00" height="38.00" fill="#ef4444" stroke="black" stroke-width="1.2" rx="4"  />
  <rect x="495.00" y="308.00" width="38.00" height="38.00" fill="#ef4444" stroke="black" stroke-width="1.2" rx="4"  />
  <rect x="537.00" y="308.00" width="38.00" height="38.00" fill="#ef4444" stroke="black" stroke-width="1.2" rx="4"  />
  <rect x="579.00" y="308.00" width="38.00" height="38.00" fill="#ef4444" stroke="black" stroke-width="1.2" rx="4"  />
  <rect x="621.00" y="308.00" width="38.00" height="38.00" fill="#ef4444" stroke="black" stroke-width="1.2" rx="4"  />
  <rect x="663.00" y="308.00" width="38.00" height="38.00" fill="#f1f5f9" stroke="#cbd5e1" stroke-width="1.2" rx="4"  />
  <rect x="705.00" y="308.00" width="38.00" height="38.00" fill="#f1f5f9" stroke="#cbd5e1" stroke-width="1.2" rx="4"  />
  <rect x="747.00" y="308.00" width="38.00" height="38.00" fill="#f1f5f9" stroke="#cbd5e1" stroke-width="1.2" rx="4"  />
  <rect x="789.00" y="308.00" width="38.00" height="38.00" fill="#f1f5f9" stroke="#cbd5e1" stroke-width="1.2" rx="4"  />
  <rect x="831.00" y="308.00" width="38.00" height="38.00" fill="#f1f5f9" stroke="#cbd5e1" stroke-width="1.2" rx="4"  />
  <rect x="873.00" y="308.00" width="38.00" height="38.00" fill="#f1f5f9" stroke="#cbd5e1" stroke-width="1.2" rx="4"  />
  <text x="144.00" y="373.00" font-family="Inter, sans-serif" font-size="18" font-weight="900" fill="#ef4444" text-anchor="end" dominant-baseline="middle">5d</text>
  <rect x="159.00" y="350.00" width="38.00" height="38.00" fill="#f1f5f9" stroke="#cbd5e1" stroke-width="1.2" rx="4"  />
  <rect x="201.00" y="350.00" width="38.00" height="38.00" fill="#f1f5f9" stroke="#cbd5e1" stroke-width="1.2" rx="4"  />
  <rect x="243.00" y="350.00" width="38.00" height="38.00" fill="#ef4444" stroke="black" stroke-width="1.2" rx="4"  />
  <rect x="285.00" y="350.00" width="38.00" height="38.00" fill="#ef4444" stroke="black" stroke-width="1.2" rx="4"  />
  <rect x="327.00" y="350.00" width="38.00" height="38.00" fill="#ef4444" stroke="black" stroke-width="1.2" rx="4"  />
  <rect x="369.00" y="350.00" width="38.00" height="38.00" fill="#ef4444" stroke="black" stroke-width="1.2" rx="4"  />
  <rect x="411.00" y="350.00" width="38.00" height="38.00" fill="#ef4444" stroke="black" stroke-width="1.2" rx="4"  />
  <rect x="453.00" y="350.00" width="38.00" height="38.00" fill="#ef4444" stroke="black" stroke-width="1.2" rx="4"  />
  <rect x="495.00" y="350.00" width="38.00" height="38.00" fill="#ef4444" stroke="black" stroke-width="1.2" rx="4"  />
  <rect x="537.00" y="350.00" width="38.00" height="38.00" fill="#ef4444" stroke="black" stroke-width="1.2" rx="4"  />
  <rect x="579.00" y="350.00" width="38.00" height="38.00" fill="#ef4444" stroke="black" stroke-width="1.2" rx="4"  />
  <rect x="621.00" y="350.00" width="38.00" height="38.00" fill="#ef4444" stroke="black" stroke-width="1.2" rx="4"  />
  <rect x="663.00" y="350.00" width="38.00" height="38.00" fill="#f1f5f9" stroke="#cbd5e1" stroke-width="1.2" rx="4"  />
  <rect x="705.00" y="350.00" width="38.00" height="38.00" fill="#f1f5f9" stroke="#cbd5e1" stroke-width="1.2" rx="4"  />
  <rect x="747.00" y="350.00" width="38.00" height="38.00" fill="#f1f5f9" stroke="#cbd5e1" stroke-width="1.2" rx="4"  />
  <rect x="789.00" y="350.00" width="38.00" height="38.00" fill="#f1f5f9" stroke="#cbd5e1" stroke-width="1.2" rx="4"  />
  <rect x="831.00" y="350.00" width="38.00" height="38.00" fill="#f1f5f9" stroke="#cbd5e1" stroke-width="1.2" rx="4"  />
  <rect x="873.00" y="350.00" width="38.00" height="38.00" fill="#f1f5f9" stroke="#cbd5e1" stroke-width="1.2" rx="4"  />
  <text x="144.00" y="415.00" font-family="Inter, sans-serif" font-size="18" font-weight="900" fill="#ef4444" text-anchor="end" dominant-baseline="middle">6d</text>
  <rect x="159.00" y="392.00" width="38.00" height="38.00" fill="#f1f5f9" stroke="#cbd5e1" stroke-width="1.2" rx="4"  />
  <rect x="201.00" y="392.00" width="38.00" height="38.00" fill="#f1f5f9" stroke="#cbd5e1" stroke-width="1.2" rx="4"  />
  <rect x="243.00" y="392.00" width="38.00" height="38.00" fill="#ef4444" stroke="black" stroke-width="1.2" rx="4"  />
  <rect x="285.00" y="392.00" width="38.00" height="38.00" fill="#ef4444" stroke="black" stroke-width="1.2" rx="4"  />
  <rect x="327.00" y="392.00" width="38.00" height="38.00" fill="#ef4444" stroke="black" stroke-width="1.2" rx="4"  />
  <rect x="369.00" y="392.00" width="38.00" height="38.00" fill="#ef4444" stroke="black" stroke-width="1.2" rx="4"  />
  <rect x="411.00" y="392.00" width="38.00" height="38.00" fill="#ef4444" stroke="black" stroke-width="1.2" rx="4"  />
  <rect x="453.00" y="392.00" width="38.00" height="38.00" fill="#ef4444" stroke="black" stroke-width="1.2" rx="4"  />
  <rect x="495.00" y="392.00" width="38.00" height="38.00" fill="#ef4444" stroke="black" stroke-width="1.2" rx="4"  />
  <rect x="537.00" y="392.00" width="38.00" height="38.00" fill="#ef4444" stroke="black" stroke-width="1.2" rx="4"  />
  <rect x="579.00" y="392.00" width="38.00" height="38.00" fill="#ef4444" stroke="black" stroke-width="1.2" rx="4"  />
  <rect x="621.00" y="392.00" width="38.00" height="38.00" fill="#ef4444" stroke="black" stroke-width="1.2" rx="4"  />
  <rect x="663.00" y="392.00" width="38.00" height="38.00" fill="#f1f5f9" stroke="#cbd5e1" stroke-width="1.2" rx="4"  />
  <rect x="705.00" y="392.00" width="38.00" height="38.00" fill="#f1f5f9" stroke="#cbd5e1" stroke-width="1.2" rx="4"  />
  <rect x="747.00" y="392.00" width="38.00" height="38.00" fill="#f1f5f9" stroke="#cbd5e1" stroke-width="1.2" rx="4"  />
  <rect x="789.00" y="392.00" width="38.00" height="38.00" fill="#f1f5f9" stroke="#cbd5e1" stroke-width="1.2" rx="4"  />
  <rect x="831.00" y="392.00" width="38.00" height="38.00" fill="#f1f5f9" stroke="#cbd5e1" stroke-width="1.2" rx="4"  />
  <rect x="873.00" y="392.00" width="38.00" height="38.00" fill="#f1f5f9" stroke="#cbd5e1" stroke-width="1.2" rx="4"  />
  <text x="228.00" y="527.00" font-family="Inter, sans-serif" font-size="18" font-weight="900" fill="#84cc16" text-anchor="end" dominant-baseline="middle">4f</text>
  <rect x="243.00" y="504.00" width="38.00" height="38.00" fill="#84cc16" stroke="black" stroke-width="1.2" rx="4"  />
  <text x="259.00" y="489.00" font-family="Inter, sans-serif" font-size="14" font-weight="bold" fill="#84cc16" text-anchor="end" dominant-baseline="middle">f</text>
  <text x="261.00" y="482.00" font-family="Inter, sans-serif" font-size="11" font-weight="900" fill="#84cc16" text-anchor="start" dominant-baseline="middle">¹</text>
  <rect x="285.00" y="504.00" width="38.00" height="38.00" fill="#84cc16" stroke="black" stroke-width="1.2" rx="4"  />
  <text x="301.00" y="489.00" font-family="Inter, sans-serif" font-size="14" font-weight="bold" fill="#84cc16" text-anchor="end" dominant-baseline="middle">f</text>
  <text x="303.00" y="482.00" font-family="Inter, sans-serif" font-size="11" font-weight="900" fill="#84cc16" text-anchor="start" dominant-baseline="middle">²</text>
  <rect x="327.00" y="504.00" width="38.00" height="38.00" fill="#84cc16" stroke="black" stroke-width="1.2" rx="4"  />
  <text x="343.00" y="489.00" font-family="Inter, sans-serif" font-size="14" font-weight="bold" fill="#84cc16" text-anchor="end" dominant-baseline="middle">f</text>
  <text x="345.00" y="482.00" font-family="Inter, sans-serif" font-size="11" font-weight="900" fill="#84cc16" text-anchor="start" dominant-baseline="middle">³</text>
  <rect x="369.00" y="504.00" width="38.00" height="38.00" fill="#84cc16" stroke="black" stroke-width="1.2" rx="4"  />
  <text x="385.00" y="489.00" font-family="Inter, sans-serif" font-size="14" font-weight="bold" fill="#84cc16" text-anchor="end" dominant-baseline="middle">f</text>
  <text x="387.00" y="482.00" font-family="Inter, sans-serif" font-size="11" font-weight="900" fill="#84cc16" text-anchor="start" dominant-baseline="middle">⁴</text>
  <rect x="411.00" y="504.00" width="38.00" height="38.00" fill="#84cc16" stroke="black" stroke-width="1.2" rx="4"  />
  <text x="427.00" y="489.00" font-family="Inter, sans-serif" font-size="14" font-weight="bold" fill="#84cc16" text-anchor="end" dominant-baseline="middle">f</text>
  <text x="429.00" y="482.00" font-family="Inter, sans-serif" font-size="11" font-weight="900" fill="#84cc16" text-anchor="start" dominant-baseline="middle">⁵</text>
  <rect x="453.00" y="504.00" width="38.00" height="38.00" fill="#84cc16" stroke="black" stroke-width="1.2" rx="4"  />
  <text x="469.00" y="489.00" font-family="Inter, sans-serif" font-size="14" font-weight="bold" fill="#84cc16" text-anchor="end" dominant-baseline="middle">f</text>
  <text x="471.00" y="482.00" font-family="Inter, sans-serif" font-size="11" font-weight="900" fill="#84cc16" text-anchor="start" dominant-baseline="middle">⁶</text>
  <rect x="495.00" y="504.00" width="38.00" height="38.00" fill="#84cc16" stroke="black" stroke-width="1.2" rx="4"  />
  <text x="511.00" y="489.00" font-family="Inter, sans-serif" font-size="14" font-weight="bold" fill="#84cc16" text-anchor="end" dominant-baseline="middle">f</text>
  <text x="513.00" y="482.00" font-family="Inter, sans-serif" font-size="11" font-weight="900" fill="#84cc16" text-anchor="start" dominant-baseline="middle">⁷</text>
  <rect x="537.00" y="504.00" width="38.00" height="38.00" fill="#84cc16" stroke="black" stroke-width="1.2" rx="4"  />
  <text x="553.00" y="489.00" font-family="Inter, sans-serif" font-size="14" font-weight="bold" fill="#84cc16" text-anchor="end" dominant-baseline="middle">f</text>
  <text x="555.00" y="482.00" font-family="Inter, sans-serif" font-size="11" font-weight="900" fill="#84cc16" text-anchor="start" dominant-baseline="middle">⁸</text>
  <rect x="579.00" y="504.00" width="38.00" height="38.00" fill="#84cc16" stroke="black" stroke-width="1.2" rx="4"  />
  <text x="595.00" y="489.00" font-family="Inter, sans-serif" font-size="14" font-weight="bold" fill="#84cc16" text-anchor="end" dominant-baseline="middle">f</text>
  <text x="597.00" y="482.00" font-family="Inter, sans-serif" font-size="11" font-weight="900" fill="#84cc16" text-anchor="start" dominant-baseline="middle">⁹</text>
  <rect x="621.00" y="504.00" width="38.00" height="38.00" fill="#84cc16" stroke="black" stroke-width="1.2" rx="4"  />
  <text x="637.00" y="489.00" font-family="Inter, sans-serif" font-size="14" font-weight="bold" fill="#84cc16" text-anchor="end" dominant-baseline="middle">f</text>
  <text x="639.00" y="482.00" font-family="Inter, sans-serif" font-size="11" font-weight="900" fill="#84cc16" text-anchor="start" dominant-baseline="middle">¹⁰</text>
  <rect x="663.00" y="504.00" width="38.00" height="38.00" fill="#84cc16" stroke="black" stroke-width="1.2" rx="4"  />
  <text x="679.00" y="489.00" font-family="Inter, sans-serif" font-size="14" font-weight="bold" fill="#84cc16" text-anchor="end" dominant-baseline="middle">f</text>
  <text x="681.00" y="482.00" font-family="Inter, sans-serif" font-size="11" font-weight="900" fill="#84cc16" text-anchor="start" dominant-baseline="middle">¹¹</text>
  <rect x="705.00" y="504.00" width="38.00" height="38.00" fill="#84cc16" stroke="black" stroke-width="1.2" rx="4"  />
  <text x="721.00" y="489.00" font-family="Inter, sans-serif" font-size="14" font-weight="bold" fill="#84cc16" text-anchor="end" dominant-baseline="middle">f</text>
  <text x="723.00" y="482.00" font-family="Inter, sans-serif" font-size="11" font-weight="900" fill="#84cc16" text-anchor="start" dominant-baseline="middle">¹²</text>
  <rect x="747.00" y="504.00" width="38.00" height="38.00" fill="#84cc16" stroke="black" stroke-width="1.2" rx="4"  />
  <text x="763.00" y="489.00" font-family="Inter, sans-serif" font-size="14" font-weight="bold" fill="#84cc16" text-anchor="end" dominant-baseline="middle">f</text>
  <text x="765.00" y="482.00" font-family="Inter, sans-serif" font-size="11" font-weight="900" fill="#84cc16" text-anchor="start" dominant-baseline="middle">¹³</text>
  <rect x="789.00" y="504.00" width="38.00" height="38.00" fill="#84cc16" stroke="black" stroke-width="1.2" rx="4"  />
  <text x="805.00" y="489.00" font-family="Inter, sans-serif" font-size="14" font-weight="bold" fill="#84cc16" text-anchor="end" dominant-baseline="middle">f</text>
  <text x="807.00" y="482.00" font-family="Inter, sans-serif" font-size="11" font-weight="900" fill="#84cc16" text-anchor="start" dominant-baseline="middle">¹⁴</text>
  <text x="228.00" y="569.00" font-family="Inter, sans-serif" font-size="18" font-weight="900" fill="#84cc16" text-anchor="end" dominant-baseline="middle">5f</text>
  <rect x="243.00" y="546.00" width="38.00" height="38.00" fill="#84cc16" stroke="black" stroke-width="1.2" rx="4"  />
  <rect x="285.00" y="546.00" width="38.00" height="38.00" fill="#84cc16" stroke="black" stroke-width="1.2" rx="4"  />
  <rect x="327.00" y="546.00" width="38.00" height="38.00" fill="#84cc16" stroke="black" stroke-width="1.2" rx="4"  />
  <rect x="369.00" y="546.00" width="38.00" height="38.00" fill="#84cc16" stroke="black" stroke-width="1.2" rx="4"  />
  <rect x="411.00" y="546.00" width="38.00" height="38.00" fill="#84cc16" stroke="black" stroke-width="1.2" rx="4"  />
  <rect x="453.00" y="546.00" width="38.00" height="38.00" fill="#84cc16" stroke="black" stroke-width="1.2" rx="4"  />
  <rect x="495.00" y="546.00" width="38.00" height="38.00" fill="#84cc16" stroke="black" stroke-width="1.2" rx="4"  />
  <rect x="537.00" y="546.00" width="38.00" height="38.00" fill="#84cc16" stroke="black" stroke-width="1.2" rx="4"  />
  <rect x="579.00" y="546.00" width="38.00" height="38.00" fill="#84cc16" stroke="black" stroke-width="1.2" rx="4"  />
  <rect x="621.00" y="546.00" width="38.00" height="38.00" fill="#84cc16" stroke="black" stroke-width="1.2" rx="4"  />
  <rect x="663.00" y="546.00" width="38.00" height="38.00" fill="#84cc16" stroke="black" stroke-width="1.2" rx="4"  />
  <rect x="705.00" y="546.00" width="38.00" height="38.00" fill="#84cc16" stroke="black" stroke-width="1.2" rx="4"  />
  <rect x="747.00" y="546.00" width="38.00" height="38.00" fill="#84cc16" stroke="black" stroke-width="1.2" rx="4"  />
  <rect x="789.00" y="546.00" width="38.00" height="38.00" fill="#84cc16" stroke="black" stroke-width="1.2" rx="4"  />
</svg>