<svg xmlns="http://www.w3.org/2000/svg" viewBox="0 0 638 258">
  <rect width="638" height="258" fill="#f8fafc"/>
  <text x="319.0" y="18" font-family="Inter, sans-serif" font-size="12" font-weight="bold" fill="#1e293b" text-anchor="middle">Tendencia de la Afinidad Electrónica</text>
  <text x="319.0" y="45" font-family="Inter, sans-serif" font-size="9" fill="#ef4444" text-anchor="middle">AE AUMENTA →</text>
  <line x1="100" y1="35" x2="538" y2="35" stroke="#ef4444" stroke-width="2"/>
  <polygon points="538,35 528,30 528,40" fill="#ef4444"/>
  <text x="25" y="110.0" font-family="Inter, sans-serif" font-size="9" fill="#22c55e" text-anchor="middle" transform="rotate(-90, 25, 110.0)">↑ AE AUMENTA</text>
  <line x1="40" y1="70" x2="40" y2="140" stroke="#22c55e" stroke-width="2"/>
  <polygon points="40,70 35,80 45,80" fill="#22c55e"/>
  <rect x="50" y="50" width="28" height="28" fill="#7ec8be" stroke="#94a3b8" stroke-width="0.5" rx="3"/>
  <rect x="560" y="50" width="28" height="28" fill="#0d9488" stroke="#94a3b8" stroke-width="0.5" rx="3"/>
  <rect x="50" y="80" width="28" height="28" fill="#a4dad0" stroke="#94a3b8" stroke-width="0.5" rx="3"/>
  <rect x="80" y="80" width="28" height="28" fill="#9dd6cc" stroke="#94a3b8" stroke-width="0.5" rx="3"/>
  <rect x="410" y="80" width="28" height="28" fill="#54b4a9" stroke="#94a3b8" stroke-width="0.5" rx="3"/>
  <rect x="440" y="80" width="28" height="28" fill="#4db1a6" stroke="#94a3b8" stroke-width="0.5" rx="3"/>
  <rect x="470" y="80" width="28" height="28" fill="#46aea3" stroke="#94a3b8" stroke-width="0.5" rx="3"/>
  <rect x="500" y="80" width="28" height="28" fill="#40aba0" stroke="#94a3b8" stroke-width="0.5" rx="3"/>
  <rect x="530" y="80" width="28" height="28" fill="#39a89d" stroke="#94a3b8" stroke-width="0.5" rx="3"/>
  <rect x="560" y="80" width="28" height="28" fill="#32a59a" stroke="#94a3b8" stroke-width="0.5" rx="3"/>
  <rect x="50" y="110" width="28" height="28" fill="#caebe2" stroke="#94a3b8" stroke-width="0.5" rx="3"/>
  <rect x="80" y="110" width="28" height="28" fill="#c3e8de" stroke="#94a3b8" stroke-width="0.5" rx="3"/>
  <rect x="410" y="110" width="28" height="28" fill="#7ac6bb" stroke="#94a3b8" stroke-width="0.5" rx="3"/>
  <rect x="440" y="110" width="28" height="28" fill="#73c3b8" stroke="#94a3b8" stroke-width="0.5" rx="3"/>
  <rect x="470" y="110" width="28" height="28" fill="#6cc0b5" stroke="#94a3b8" stroke-width="0.5" rx="3"/>
  <rect x="500" y="110" width="28" height="28" fill="#66bdb2" stroke="#94a3b8" stroke-width="0.5" rx="3"/>
  <rect x="530" y="110" width="28" height="28" fill="#5fbaaf" stroke="#94a3b8" stroke-width="0.5" rx="3"/>
  <rect x="560" y="110" width="28" height="28" fill="#58b7ac" stroke="#94a3b8" stroke-width="0.5" rx="3"/>
  <rect x="50" y="140" width="28" height="28" fill="#f0fdf4" stroke="#94a3b8" stroke-width="0.5" rx="3"/>
  <rect x="80" y="140" width="28" height="28" fill="#e9f9f0" stroke="#94a3b8" stroke-width="0.5" rx="3"/>
  <rect x="110" y="140" width="28" height="28" fill="#e2f6ed" stroke="#94a3b8" stroke-width="0.5" rx="3"/>
  <rect x="140" y="140" width="28" height="28" fill="#dbf3ea" stroke="#94a3b8" stroke-width="0.5" rx="3"/>
  <rect x="170" y="140" width="28" height="28" fill="#d5f0e7" stroke="#94a3b8" stroke-width="0.5" rx="3"/>
  <rect x="200" y="140" width="28" height="28" fill="#ceede4" stroke="#94a3b8" stroke-width="0.5" rx="3"/>
  <rect x="230" y="140" width="28" height="28" fill="#c7eae0" stroke="#94a3b8" stroke-width="0.5" rx="3"/>
  <rect x="260" y="140" width="28" height="28" fill="#c1e7dd" stroke="#94a3b8" stroke-width="0.5" rx="3"/>
  <rect x="290" y="140" width="28" height="28" fill="#bae4da" stroke="#94a3b8" stroke-width="0.5" rx="3"/>
  <rect x="320" y="140" width="28" height="28" fill="#b3e1d7" stroke="#94a3b8" stroke-width="0.5" rx="3"/>
  <rect x="350" y="140" width="28" height="28" fill="#added4" stroke="#94a3b8" stroke-width="0.5" rx="3"/>
  <rect x="380" y="140" width="28" height="28" fill="#a6dbd1" stroke="#94a3b8" stroke-width="0.5" rx="3"/>
  <rect x="410" y="140" width="28" height="28" fill="#9fd7cd" stroke="#94a3b8" stroke-width="0.5" rx="3"/>
  <rect x="440" y="140" width="28" height="28" fill="#99d4ca" stroke="#94a3b8" stroke-width="0.5" rx="3"/>
  <rect x="470" y="140" width="28" height="28" fill="#92d1c7" stroke="#94a3b8" stroke-width="0.5" rx="3"/>
  <rect x="500" y="140" width="28" height="28" fill="#8bcec4" stroke="#94a3b8" stroke-width="0.5" rx="3"/>
  <rect x="530" y="140" width="28" height="28" fill="#85cbc1" stroke="#94a3b8" stroke-width="0.5" rx="3"/>
  <rect x="560" y="140" width="28" height="28" fill="#7ec8be" stroke="#94a3b8" stroke-width="0.5" rx="3"/>
  <text x="319.0" y="248" font-family="Inter, sans-serif" font-size="9" font-weight="bold" fill="#3b82f6" text-anchor="middle">Cl (AE más alta)</text>
</svg>