<svg xmlns="http://www.w3.org/2000/svg" viewBox="0 0 638 258">
  <rect width="638" height="258" fill="#f8fafc"/>
  <text x="319.0" y="18" font-family="Inter, sans-serif" font-size="12" font-weight="bold" fill="#1e293b" text-anchor="middle">Tendencia de la Energía de Ionización</text>
  <text x="319.0" y="45" font-family="Inter, sans-serif" font-size="9" fill="#ef4444" text-anchor="middle">EI AUMENTA →</text>
  <line x1="100" y1="35" x2="538" y2="35" stroke="#ef4444" stroke-width="2"/>
  <polygon points="538,35 528,30 528,40" fill="#ef4444"/>
  <text x="25" y="110.0" font-family="Inter, sans-serif" font-size="9" fill="#22c55e" text-anchor="middle" transform="rotate(-90, 25, 110.0)">↓ EI DISMINUYE</text>
  <line x1="40" y1="70" x2="40" y2="140" stroke="#22c55e" stroke-width="2"/>
  <polygon points="40,140 35,130 45,130" fill="#22c55e"/>
  <rect x="50" y="50" width="28" height="28" fill="#cb8686" stroke="#94a3b8" stroke-width="0.5" rx="3"/>
  <rect x="560" y="50" width="28" height="28" fill="#fef2f2" stroke="#94a3b8" stroke-width="0.5" rx="3"/>
  <rect x="50" y="80" width="28" height="28" fill="#ba6262" stroke="#94a3b8" stroke-width="0.5" rx="3"/>
  <rect x="80" y="80" width="28" height="28" fill="#bd6868" stroke="#94a3b8" stroke-width="0.5" rx="3"/>
  <rect x="410" y="80" width="28" height="28" fill="#deaeae" stroke="#94a3b8" stroke-width="0.5" rx="3"/>
  <rect x="440" y="80" width="28" height="28" fill="#e1b4b4" stroke="#94a3b8" stroke-width="0.5" rx="3"/>
  <rect x="470" y="80" width="28" height="28" fill="#e4bbbb" stroke="#94a3b8" stroke-width="0.5" rx="3"/>
  <rect x="500" y="80" width="28" height="28" fill="#e7c1c1" stroke="#94a3b8" stroke-width="0.5" rx="3"/>
  <rect x="530" y="80" width="28" height="28" fill="#eac7c7" stroke="#94a3b8" stroke-width="0.5" rx="3"/>
  <rect x="560" y="80" width="28" height="28" fill="#edcece" stroke="#94a3b8" stroke-width="0.5" rx="3"/>
  <rect x="50" y="110" width="28" height="28" fill="#a93e3e" stroke="#94a3b8" stroke-width="0.5" rx="3"/>
  <rect x="80" y="110" width="28" height="28" fill="#ac4545" stroke="#94a3b8" stroke-width="0.5" rx="3"/>
  <rect x="410" y="110" width="28" height="28" fill="#cd8a8a" stroke="#94a3b8" stroke-width="0.5" rx="3"/>
  <rect x="440" y="110" width="28" height="28" fill="#d09191" stroke="#94a3b8" stroke-width="0.5" rx="3"/>
  <rect x="470" y="110" width="28" height="28" fill="#d39797" stroke="#94a3b8" stroke-width="0.5" rx="3"/>
  <rect x="500" y="110" width="28" height="28" fill="#d69d9d" stroke="#94a3b8" stroke-width="0.5" rx="3"/>
  <rect x="530" y="110" width="28" height="28" fill="#d9a4a4" stroke="#94a3b8" stroke-width="0.5" rx="3"/>
  <rect x="560" y="110" width="28" height="28" fill="#dcaaaa" stroke="#94a3b8" stroke-width="0.5" rx="3"/>
  <rect x="50" y="140" width="28" height="28" fill="#991b1b" stroke="#94a3b8" stroke-width="0.5" rx="3"/>
  <rect x="80" y="140" width="28" height="28" fill="#9b2121" stroke="#94a3b8" stroke-width="0.5" rx="3"/>
  <rect x="110" y="140" width="28" height="28" fill="#9e2727" stroke="#94a3b8" stroke-width="0.5" rx="3"/>
  <rect x="140" y="140" width="28" height="28" fill="#a12d2d" stroke="#94a3b8" stroke-width="0.5" rx="3"/>
  <rect x="170" y="140" width="28" height="28" fill="#a43434" stroke="#94a3b8" stroke-width="0.5" rx="3"/>
  <rect x="200" y="140" width="28" height="28" fill="#a73a3a" stroke="#94a3b8" stroke-width="0.5" rx="3"/>
  <rect x="230" y="140" width="28" height="28" fill="#aa4040" stroke="#94a3b8" stroke-width="0.5" rx="3"/>
  <rect x="260" y="140" width="28" height="28" fill="#ad4747" stroke="#94a3b8" stroke-width="0.5" rx="3"/>
  <rect x="290" y="140" width="28" height="28" fill="#b04d4d" stroke="#94a3b8" stroke-width="0.5" rx="3"/>
  <rect x="320" y="140" width="28" height="28" fill="#b35353" stroke="#94a3b8" stroke-width="0.5" rx="3"/>
  <rect x="350" y="140" width="28" height="28" fill="#b65a5a" stroke="#94a3b8" stroke-width="0.5" rx="3"/>
  <rect x="380" y="140" width="28" height="28" fill="#b96060" stroke="#94a3b8" stroke-width="0.5" rx="3"/>
  <rect x="410" y="140" width="28" height="28" fill="#bc6666" stroke="#94a3b8" stroke-width="0.5" rx="3"/>
  <rect x="440" y="140" width="28" height="28" fill="#bf6d6d" stroke="#94a3b8" stroke-width="0.5" rx="3"/>
  <rect x="470" y="140" width="28" height="28" fill="#c27373" stroke="#94a3b8" stroke-width="0.5" rx="3"/>
  <rect x="500" y="140" width="28" height="28" fill="#c57979" stroke="#94a3b8" stroke-width="0.5" rx="3"/>
  <rect x="530" y="140" width="28" height="28" fill="#c88080" stroke="#94a3b8" stroke-width="0.5" rx="3"/>
  <rect x="560" y="140" width="28" height="28" fill="#cb8686" stroke="#94a3b8" stroke-width="0.5" rx="3"/>
  <text x="60" y="248" font-family="Inter, sans-serif" font-size="8" fill="#22c55e">Alta EI (He)</text>
  <text x="578" y="248" font-family="Inter, sans-serif" font-size="8" fill="#ef4444" text-anchor="end">Baja EI (Cs)</text>
</svg>