<svg xmlns="http://www.w3.org/2000/svg" viewBox="0 0 600 400">
  <defs>
        <marker id="arrow-64748b-10" markerWidth="10" markerHeight="10" 
                refX="9.0" refY="5.0" orient="auto"
                markerUnits="userSpaceOnUse">
            <polygon points="0,0 10,5.0 0,10" fill="#64748b"/>
        </marker>

        <marker id="arrow-64748b-10" markerWidth="10" markerHeight="10" 
                refX="9.0" refY="5.0" orient="auto"
                markerUnits="userSpaceOnUse">
            <polygon points="0,0 10,5.0 0,10" fill="#64748b"/>
        </marker></defs>
  <rect x="0.00" y="0.00" width="600.00" height="400.00" fill="white" stroke="none" stroke-width="0" rx="0"  />
  <text x="300.00" y="30.00" font-family="Inter, sans-serif" font-size="16" font-weight="bold" fill="#1e293b" text-anchor="middle" dominant-baseline="middle">Ejemplo 4: Indeterminado (Det = 0)</text>
  <line x1="60.00" y1="340.00" x2="60.00" y2="60.00" stroke="#e2e8f0" stroke-width="0.5"  />
  <line x1="220.00" y1="340.00" x2="220.00" y2="60.00" stroke="#e2e8f0" stroke-width="0.5"  />
  <line x1="300.00" y1="340.00" x2="300.00" y2="60.00" stroke="#e2e8f0" stroke-width="0.5"  />
  <line x1="380.00" y1="340.00" x2="380.00" y2="60.00" stroke="#e2e8f0" stroke-width="0.5"  />
  <line x1="460.00" y1="340.00" x2="460.00" y2="60.00" stroke="#e2e8f0" stroke-width="0.5"  />
  <line x1="540.00" y1="340.00" x2="540.00" y2="60.00" stroke="#e2e8f0" stroke-width="0.5"  />
  <line x1="60.00" y1="340.00" x2="540.00" y2="340.00" stroke="#e2e8f0" stroke-width="0.5"  />
  <line x1="60.00" y1="293.33" x2="540.00" y2="293.33" stroke="#e2e8f0" stroke-width="0.5"  />
  <line x1="60.00" y1="200.00" x2="540.00" y2="200.00" stroke="#e2e8f0" stroke-width="0.5"  />
  <line x1="60.00" y1="153.33" x2="540.00" y2="153.33" stroke="#e2e8f0" stroke-width="0.5"  />
  <line x1="60.00" y1="106.67" x2="540.00" y2="106.67" stroke="#e2e8f0" stroke-width="0.5"  />
  <line x1="60.00" y1="60.00" x2="540.00" y2="60.00" stroke="#e2e8f0" stroke-width="0.5"  />
  <line x1="60.00" y1="246.67" x2="540.00" y2="246.67" stroke="#64748b" stroke-width="2"  marker-end="url(#arrow-64748b-10)"/>
  <line x1="140.00" y1="340.00" x2="140.00" y2="60.00" stroke="#64748b" stroke-width="2"  marker-end="url(#arrow-64748b-10)"/>
  <text x="535.00" y="266.67" font-family="Inter, sans-serif" font-size="14" font-weight="bold" fill="#64748b" text-anchor="middle" dominant-baseline="middle">x</text>
  <text x="120.00" y="70.00" font-family="Inter, sans-serif" font-size="14" font-weight="bold" fill="#64748b" text-anchor="middle" dominant-baseline="middle">y</text>
  <line x1="60.00" y1="241.67" x2="60.00" y2="251.67" stroke="#64748b" stroke-width="1"  />
  <text x="60.00" y="264.67" font-family="Inter, sans-serif" font-size="11" font-weight="normal" fill="#64748b" text-anchor="middle" dominant-baseline="middle">-1</text>
  <line x1="220.00" y1="241.67" x2="220.00" y2="251.67" stroke="#64748b" stroke-width="1"  />
  <text x="220.00" y="264.67" font-family="Inter, sans-serif" font-size="11" font-weight="normal" fill="#64748b" text-anchor="middle" dominant-baseline="middle">1</text>
  <line x1="300.00" y1="241.67" x2="300.00" y2="251.67" stroke="#64748b" stroke-width="1"  />
  <text x="300.00" y="264.67" font-family="Inter, sans-serif" font-size="11" font-weight="normal" fill="#64748b" text-anchor="middle" dominant-baseline="middle">2</text>
  <line x1="380.00" y1="241.67" x2="380.00" y2="251.67" stroke="#64748b" stroke-width="1"  />
  <text x="380.00" y="264.67" font-family="Inter, sans-serif" font-size="11" font-weight="normal" fill="#64748b" text-anchor="middle" dominant-baseline="middle">3</text>
  <line x1="460.00" y1="241.67" x2="460.00" y2="251.67" stroke="#64748b" stroke-width="1"  />
  <text x="460.00" y="264.67" font-family="Inter, sans-serif" font-size="11" font-weight="normal" fill="#64748b" text-anchor="middle" dominant-baseline="middle">4</text>
  <line x1="540.00" y1="241.67" x2="540.00" y2="251.67" stroke="#64748b" stroke-width="1"  />
  <text x="540.00" y="264.67" font-family="Inter, sans-serif" font-size="11" font-weight="normal" fill="#64748b" text-anchor="middle" dominant-baseline="middle">5</text>
  <line x1="135.00" y1="340.00" x2="145.00" y2="340.00" stroke="#64748b" stroke-width="1"  />
  <text x="125.00" y="340.00" font-family="Inter, sans-serif" font-size="11" font-weight="normal" fill="#64748b" text-anchor="end" dominant-baseline="middle">-2</text>
  <line x1="135.00" y1="293.33" x2="145.00" y2="293.33" stroke="#64748b" stroke-width="1"  />
  <text x="125.00" y="293.33" font-family="Inter, sans-serif" font-size="11" font-weight="normal" fill="#64748b" text-anchor="end" dominant-baseline="middle">-1</text>
  <line x1="135.00" y1="200.00" x2="145.00" y2="200.00" stroke="#64748b" stroke-width="1"  />
  <text x="125.00" y="200.00" font-family="Inter, sans-serif" font-size="11" font-weight="normal" fill="#64748b" text-anchor="end" dominant-baseline="middle">1</text>
  <line x1="135.00" y1="153.33" x2="145.00" y2="153.33" stroke="#64748b" stroke-width="1"  />
  <text x="125.00" y="153.33" font-family="Inter, sans-serif" font-size="11" font-weight="normal" fill="#64748b" text-anchor="end" dominant-baseline="middle">2</text>
  <line x1="135.00" y1="106.67" x2="145.00" y2="106.67" stroke="#64748b" stroke-width="1"  />
  <text x="125.00" y="106.67" font-family="Inter, sans-serif" font-size="11" font-weight="normal" fill="#64748b" text-anchor="end" dominant-baseline="middle">3</text>
  <line x1="135.00" y1="60.00" x2="145.00" y2="60.00" stroke="#64748b" stroke-width="1"  />
  <text x="125.00" y="60.00" font-family="Inter, sans-serif" font-size="11" font-weight="normal" fill="#64748b" text-anchor="end" dominant-baseline="middle">4</text>
  <text x="128.00" y="261.67" font-family="Inter, sans-serif" font-size="11" font-weight="normal" fill="#64748b" text-anchor="middle" dominant-baseline="middle">O</text>
  <polyline points="60.00,106.67 64.85,109.49 69.70,112.32 74.55,115.15 79.39,117.98 84.24,120.81 89.09,123.64 93.94,126.46 98.79,129.29 103.64,132.12 108.48,134.95 113.33,137.78 118.18,140.61 123.03,143.43 127.88,146.26 132.73,149.09 137.58,151.92 142.42,154.75 147.27,157.58 152.12,160.40 156.97,163.23 161.82,166.06 166.67,168.89 171.52,171.72 176.36,174.55 181.21,177.37 186.06,180.20 190.91,183.03 195.76,185.86 200.61,188.69 205.45,191.52 210.30,194.34 215.15,197.17 220.00,200.00 224.85,202.83 229.70,205.66 234.55,208.48 239.39,211.31 244.24,214.14 249.09,216.97 253.94,219.80 258.79,222.63 263.64,225.45 268.48,228.28 273.33,231.11 278.18,233.94 283.03,236.77 287.88,239.60 292.73,242.42 297.58,245.25 302.42,248.08 307.27,250.91 312.12,253.74 316.97,256.57 321.82,259.39 326.67,262.22 331.52,265.05 336.36,267.88 341.21,270.71 346.06,273.54 350.91,276.36 355.76,279.19 360.61,282.02 365.45,284.85 370.30,287.68 375.15,290.51 380.00,293.33 384.85,296.16 389.70,298.99 394.55,301.82 399.39,304.65 404.24,307.47 409.09,310.30 413.94,313.13 418.79,315.96 423.64,318.79 428.48,321.62 433.33,324.44 438.18,327.27 443.03,330.10 447.88,332.93 452.73,335.76 457.58,338.59 462.42,341.41 467.27,344.24 472.12,347.07 476.97,349.90 481.82,352.73 486.67,355.56 491.52,358.38 496.36,361.21 501.21,364.04 506.06,366.87 510.91,369.70 515.76,372.53 520.61,375.35 525.45,378.18 530.30,381.01 535.15,383.84 540.00,386.67" fill="none" stroke="#3b82f6" stroke-width="4"  stroke-linecap="round" stroke-linejoin="round"/>
  <polyline points="60.00,106.67 64.85,109.49 69.70,112.32 74.55,115.15 79.39,117.98 84.24,120.81 89.09,123.64 93.94,126.46 98.79,129.29 103.64,132.12 108.48,134.95 113.33,137.78 118.18,140.61 123.03,143.43 127.88,146.26 132.73,149.09 137.58,151.92 142.42,154.75 147.27,157.58 152.12,160.40 156.97,163.23 161.82,166.06 166.67,168.89 171.52,171.72 176.36,174.55 181.21,177.37 186.06,180.20 190.91,183.03 195.76,185.86 200.61,188.69 205.45,191.52 210.30,194.34 215.15,197.17 220.00,200.00 224.85,202.83 229.70,205.66 234.55,208.48 239.39,211.31 244.24,214.14 249.09,216.97 253.94,219.80 258.79,222.63 263.64,225.45 268.48,228.28 273.33,231.11 278.18,233.94 283.03,236.77 287.88,239.60 292.73,242.42 297.58,245.25 302.42,248.08 307.27,250.91 312.12,253.74 316.97,256.57 321.82,259.39 326.67,262.22 331.52,265.05 336.36,267.88 341.21,270.71 346.06,273.54 350.91,276.36 355.76,279.19 360.61,282.02 365.45,284.85 370.30,287.68 375.15,290.51 380.00,293.33 384.85,296.16 389.70,298.99 394.55,301.82 399.39,304.65 404.24,307.47 409.09,310.30 413.94,313.13 418.79,315.96 423.64,318.79 428.48,321.62 433.33,324.44 438.18,327.27 443.03,330.10 447.88,332.93 452.73,335.76 457.58,338.59 462.42,341.41 467.27,344.24 472.12,347.07 476.97,349.90 481.82,352.73 486.67,355.56 491.52,358.38 496.36,361.21 501.21,364.04 506.06,366.87 510.91,369.70 515.76,372.53 520.61,375.35 525.45,378.18 530.30,381.01 535.15,383.84 540.00,386.67" fill="none" stroke="#22c55e" stroke-width="2" stroke-dasharray="6,4" stroke-linecap="round" stroke-linejoin="round"/>
  <rect x="420.00" y="60.00" width="160.00" height="70.00" fill="white" stroke="#e2e8f0" stroke-width="0" rx="8"  />
  <line x1="435.00" y1="80.00" x2="465.00" y2="80.00" stroke="#3b82f6" stroke-width="3"  />
  <text x="475.00" y="84.00" font-family="Inter, sans-serif" font-size="11" font-weight="normal" fill="#1e293b" text-anchor="start" dominant-baseline="middle">x + y = 2</text>
  <line x1="435.00" y1="100.00" x2="465.00" y2="100.00" stroke="#22c55e" stroke-width="3" stroke-dasharray="5,5" />
  <text x="475.00" y="104.00" font-family="Inter, sans-serif" font-size="11" font-weight="normal" fill="#1e293b" text-anchor="start" dominant-baseline="middle">2x + 2y = 4</text>
</svg>