<svg xmlns="http://www.w3.org/2000/svg" viewBox="0 0 600 400">
  <defs>
        <marker id="arrow-64748b-10" markerWidth="10" markerHeight="10" 
                refX="9.0" refY="5.0" orient="auto"
                markerUnits="userSpaceOnUse">
            <polygon points="0,0 10,5.0 0,10" fill="#64748b"/>
        </marker>

        <marker id="arrow-64748b-10" markerWidth="10" markerHeight="10" 
                refX="9.0" refY="5.0" orient="auto"
                markerUnits="userSpaceOnUse">
            <polygon points="0,0 10,5.0 0,10" fill="#64748b"/>
        </marker></defs>
  <rect x="0.00" y="0.00" width="600.00" height="400.00" fill="white" stroke="none" stroke-width="0" rx="0"  />
  <text x="300.00" y="30.00" font-family="Inter, sans-serif" font-size="16" font-weight="bold" fill="#1e293b" text-anchor="middle" dominant-baseline="middle">Ejemplo 4: Solución (3, 2.67)</text>
  <line x1="140.00" y1="340.00" x2="140.00" y2="60.00" stroke="#e2e8f0" stroke-width="0.5"  />
  <line x1="220.00" y1="340.00" x2="220.00" y2="60.00" stroke="#e2e8f0" stroke-width="0.5"  />
  <line x1="300.00" y1="340.00" x2="300.00" y2="60.00" stroke="#e2e8f0" stroke-width="0.5"  />
  <line x1="380.00" y1="340.00" x2="380.00" y2="60.00" stroke="#e2e8f0" stroke-width="0.5"  />
  <line x1="460.00" y1="340.00" x2="460.00" y2="60.00" stroke="#e2e8f0" stroke-width="0.5"  />
  <line x1="540.00" y1="340.00" x2="540.00" y2="60.00" stroke="#e2e8f0" stroke-width="0.5"  />
  <line x1="60.00" y1="293.33" x2="540.00" y2="293.33" stroke="#e2e8f0" stroke-width="0.5"  />
  <line x1="60.00" y1="246.67" x2="540.00" y2="246.67" stroke="#e2e8f0" stroke-width="0.5"  />
  <line x1="60.00" y1="200.00" x2="540.00" y2="200.00" stroke="#e2e8f0" stroke-width="0.5"  />
  <line x1="60.00" y1="153.33" x2="540.00" y2="153.33" stroke="#e2e8f0" stroke-width="0.5"  />
  <line x1="60.00" y1="106.67" x2="540.00" y2="106.67" stroke="#e2e8f0" stroke-width="0.5"  />
  <line x1="60.00" y1="60.00" x2="540.00" y2="60.00" stroke="#e2e8f0" stroke-width="0.5"  />
  <line x1="60.00" y1="340.00" x2="540.00" y2="340.00" stroke="#64748b" stroke-width="2"  marker-end="url(#arrow-64748b-10)"/>
  <line x1="60.00" y1="340.00" x2="60.00" y2="60.00" stroke="#64748b" stroke-width="2"  marker-end="url(#arrow-64748b-10)"/>
  <text x="535.00" y="360.00" font-family="Inter, sans-serif" font-size="14" font-weight="bold" fill="#64748b" text-anchor="middle" dominant-baseline="middle">x</text>
  <text x="40.00" y="70.00" font-family="Inter, sans-serif" font-size="14" font-weight="bold" fill="#64748b" text-anchor="middle" dominant-baseline="middle">y</text>
  <line x1="140.00" y1="335.00" x2="140.00" y2="345.00" stroke="#64748b" stroke-width="1"  />
  <text x="140.00" y="358.00" font-family="Inter, sans-serif" font-size="11" font-weight="normal" fill="#64748b" text-anchor="middle" dominant-baseline="middle">1</text>
  <line x1="220.00" y1="335.00" x2="220.00" y2="345.00" stroke="#64748b" stroke-width="1"  />
  <text x="220.00" y="358.00" font-family="Inter, sans-serif" font-size="11" font-weight="normal" fill="#64748b" text-anchor="middle" dominant-baseline="middle">2</text>
  <line x1="300.00" y1="335.00" x2="300.00" y2="345.00" stroke="#64748b" stroke-width="1"  />
  <text x="300.00" y="358.00" font-family="Inter, sans-serif" font-size="11" font-weight="normal" fill="#64748b" text-anchor="middle" dominant-baseline="middle">3</text>
  <line x1="380.00" y1="335.00" x2="380.00" y2="345.00" stroke="#64748b" stroke-width="1"  />
  <text x="380.00" y="358.00" font-family="Inter, sans-serif" font-size="11" font-weight="normal" fill="#64748b" text-anchor="middle" dominant-baseline="middle">4</text>
  <line x1="460.00" y1="335.00" x2="460.00" y2="345.00" stroke="#64748b" stroke-width="1"  />
  <text x="460.00" y="358.00" font-family="Inter, sans-serif" font-size="11" font-weight="normal" fill="#64748b" text-anchor="middle" dominant-baseline="middle">5</text>
  <line x1="540.00" y1="335.00" x2="540.00" y2="345.00" stroke="#64748b" stroke-width="1"  />
  <text x="540.00" y="358.00" font-family="Inter, sans-serif" font-size="11" font-weight="normal" fill="#64748b" text-anchor="middle" dominant-baseline="middle">6</text>
  <line x1="55.00" y1="293.33" x2="65.00" y2="293.33" stroke="#64748b" stroke-width="1"  />
  <text x="45.00" y="293.33" font-family="Inter, sans-serif" font-size="11" font-weight="normal" fill="#64748b" text-anchor="end" dominant-baseline="middle">1</text>
  <line x1="55.00" y1="246.67" x2="65.00" y2="246.67" stroke="#64748b" stroke-width="1"  />
  <text x="45.00" y="246.67" font-family="Inter, sans-serif" font-size="11" font-weight="normal" fill="#64748b" text-anchor="end" dominant-baseline="middle">2</text>
  <line x1="55.00" y1="200.00" x2="65.00" y2="200.00" stroke="#64748b" stroke-width="1"  />
  <text x="45.00" y="200.00" font-family="Inter, sans-serif" font-size="11" font-weight="normal" fill="#64748b" text-anchor="end" dominant-baseline="middle">3</text>
  <line x1="55.00" y1="153.33" x2="65.00" y2="153.33" stroke="#64748b" stroke-width="1"  />
  <text x="45.00" y="153.33" font-family="Inter, sans-serif" font-size="11" font-weight="normal" fill="#64748b" text-anchor="end" dominant-baseline="middle">4</text>
  <line x1="55.00" y1="106.67" x2="65.00" y2="106.67" stroke="#64748b" stroke-width="1"  />
  <text x="45.00" y="106.67" font-family="Inter, sans-serif" font-size="11" font-weight="normal" fill="#64748b" text-anchor="end" dominant-baseline="middle">5</text>
  <line x1="55.00" y1="60.00" x2="65.00" y2="60.00" stroke="#64748b" stroke-width="1"  />
  <text x="45.00" y="60.00" font-family="Inter, sans-serif" font-size="11" font-weight="normal" fill="#64748b" text-anchor="end" dominant-baseline="middle">6</text>
  <text x="48.00" y="355.00" font-family="Inter, sans-serif" font-size="11" font-weight="normal" fill="#64748b" text-anchor="middle" dominant-baseline="middle">O</text>
  <polyline points="60.00,448.89 64.85,444.18 69.70,439.46 74.55,434.75 79.39,430.03 84.24,425.32 89.09,420.61 93.94,415.89 98.79,411.18 103.64,406.46 108.48,401.75 113.33,397.04 118.18,392.32 123.03,387.61 127.88,382.90 132.73,378.18 137.58,373.47 142.42,368.75 147.27,364.04 152.12,359.33 156.97,354.61 161.82,349.90 166.67,345.19 171.52,340.47 176.36,335.76 181.21,331.04 186.06,326.33 190.91,321.62 195.76,316.90 200.61,312.19 205.45,307.47 210.30,302.76 215.15,298.05 220.00,293.33 224.85,288.62 229.70,283.91 234.55,279.19 239.39,274.48 244.24,269.76 249.09,265.05 253.94,260.34 258.79,255.62 263.64,250.91 268.48,246.20 273.33,241.48 278.18,236.77 283.03,232.05 287.88,227.34 292.73,222.63 297.58,217.91 302.42,213.20 307.27,208.48 312.12,203.77 316.97,199.06 321.82,194.34 326.67,189.63 331.52,184.92 336.36,180.20 341.21,175.49 346.06,170.77 350.91,166.06 355.76,161.35 360.61,156.63 365.45,151.92 370.30,147.21 375.15,142.49 380.00,137.78 384.85,133.06 389.70,128.35 394.55,123.64 399.39,118.92 404.24,114.21 409.09,109.49 413.94,104.78 418.79,100.07 423.64,95.35 428.48,90.64 433.33,85.93 438.18,81.21 443.03,76.50 447.88,71.78 452.73,67.07 457.58,62.36 462.42,57.64 467.27,52.93 472.12,48.22 476.97,43.50 481.82,38.79 486.67,34.07 491.52,29.36 496.36,24.65 501.21,19.93 506.06,15.22 510.91,10.51 515.76,5.79 520.61,1.08 525.45,-3.64 530.30,-8.35 535.15,-13.06 540.00,-17.78" fill="none" stroke="#3b82f6" stroke-width="3"  stroke-linecap="round" stroke-linejoin="round"/>
  <polyline points="60.00,122.22 64.85,124.11 69.70,125.99 74.55,127.88 79.39,129.76 84.24,131.65 89.09,133.54 93.94,135.42 98.79,137.31 103.64,139.19 108.48,141.08 113.33,142.96 118.18,144.85 123.03,146.73 127.88,148.62 132.73,150.51 137.58,152.39 142.42,154.28 147.27,156.16 152.12,158.05 156.97,159.93 161.82,161.82 166.67,163.70 171.52,165.59 176.36,167.47 181.21,169.36 186.06,171.25 190.91,173.13 195.76,175.02 200.61,176.90 205.45,178.79 210.30,180.67 215.15,182.56 220.00,184.44 224.85,186.33 229.70,188.22 234.55,190.10 239.39,191.99 244.24,193.87 249.09,195.76 253.94,197.64 258.79,199.53 263.64,201.41 268.48,203.30 273.33,205.19 278.18,207.07 283.03,208.96 287.88,210.84 292.73,212.73 297.58,214.61 302.42,216.50 307.27,218.38 312.12,220.27 316.97,222.15 321.82,224.04 326.67,225.93 331.52,227.81 336.36,229.70 341.21,231.58 346.06,233.47 350.91,235.35 355.76,237.24 360.61,239.12 365.45,241.01 370.30,242.90 375.15,244.78 380.00,246.67 384.85,248.55 389.70,250.44 394.55,252.32 399.39,254.21 404.24,256.09 409.09,257.98 413.94,259.87 418.79,261.75 423.64,263.64 428.48,265.52 433.33,267.41 438.18,269.29 443.03,271.18 447.88,273.06 452.73,274.95 457.58,276.84 462.42,278.72 467.27,280.61 472.12,282.49 476.97,284.38 481.82,286.26 486.67,288.15 491.52,290.03 496.36,291.92 501.21,293.80 506.06,295.69 510.91,297.58 515.76,299.46 520.61,301.35 525.45,303.23 530.30,305.12 535.15,307.00 540.00,308.89" fill="none" stroke="#22c55e" stroke-width="3"  stroke-linecap="round" stroke-linejoin="round"/>
  <circle cx="300.00" cy="215.56" r="9" fill="white" />
  <circle cx="300.00" cy="215.56" r="5" fill="#ef4444" stroke="white" stroke-width="2"/>
  <rect x="264.00" y="177.56" width="72.00" height="26.00" fill="white" stroke="#ef4444" stroke-width="1.5" rx="6"  />
  <text x="300.00" y="194.56" font-family="Inter, sans-serif" font-size="12" font-weight="bold" fill="#ef4444" text-anchor="middle" dominant-baseline="middle">(3, 8/3)</text>
  <rect x="420.00" y="60.00" width="160.00" height="70.00" fill="white" stroke="#e2e8f0" stroke-width="0" rx="8"  />
  <line x1="435.00" y1="80.00" x2="465.00" y2="80.00" stroke="#3b82f6" stroke-width="3"  />
  <text x="475.00" y="84.00" font-family="Inter, sans-serif" font-size="11" font-weight="normal" fill="#1e293b" text-anchor="start" dominant-baseline="middle">5x - 3y = 7</text>
  <line x1="435.00" y1="100.00" x2="465.00" y2="100.00" stroke="#22c55e" stroke-width="3"  />
  <text x="475.00" y="104.00" font-family="Inter, sans-serif" font-size="11" font-weight="normal" fill="#1e293b" text-anchor="start" dominant-baseline="middle">2x + 3y = 14</text>
</svg>