<svg xmlns="http://www.w3.org/2000/svg" viewBox="0 0 600 400">
  <defs>
        <marker id="arrow-64748b-10" markerWidth="10" markerHeight="10" 
                refX="9.0" refY="5.0" orient="auto"
                markerUnits="userSpaceOnUse">
            <polygon points="0,0 10,5.0 0,10" fill="#64748b"/>
        </marker>

        <marker id="arrow-64748b-10" markerWidth="10" markerHeight="10" 
                refX="9.0" refY="5.0" orient="auto"
                markerUnits="userSpaceOnUse">
            <polygon points="0,0 10,5.0 0,10" fill="#64748b"/>
        </marker></defs>
  <rect x="0.00" y="0.00" width="600.00" height="400.00" fill="white" stroke="none" stroke-width="0" rx="0"  />
  <text x="300.00" y="30.00" font-family="Inter, sans-serif" font-size="16" font-weight="bold" fill="#1e293b" text-anchor="middle" dominant-baseline="middle">Ejemplo 5: Incompatible (Paralelas)</text>
  <line x1="60.00" y1="340.00" x2="60.00" y2="60.00" stroke="#e2e8f0" stroke-width="0.5"  />
  <line x1="120.00" y1="340.00" x2="120.00" y2="60.00" stroke="#e2e8f0" stroke-width="0.5"  />
  <line x1="240.00" y1="340.00" x2="240.00" y2="60.00" stroke="#e2e8f0" stroke-width="0.5"  />
  <line x1="300.00" y1="340.00" x2="300.00" y2="60.00" stroke="#e2e8f0" stroke-width="0.5"  />
  <line x1="360.00" y1="340.00" x2="360.00" y2="60.00" stroke="#e2e8f0" stroke-width="0.5"  />
  <line x1="420.00" y1="340.00" x2="420.00" y2="60.00" stroke="#e2e8f0" stroke-width="0.5"  />
  <line x1="480.00" y1="340.00" x2="480.00" y2="60.00" stroke="#e2e8f0" stroke-width="0.5"  />
  <line x1="540.00" y1="340.00" x2="540.00" y2="60.00" stroke="#e2e8f0" stroke-width="0.5"  />
  <line x1="60.00" y1="340.00" x2="540.00" y2="340.00" stroke="#e2e8f0" stroke-width="0.5"  />
  <line x1="60.00" y1="312.00" x2="540.00" y2="312.00" stroke="#e2e8f0" stroke-width="0.5"  />
  <line x1="60.00" y1="256.00" x2="540.00" y2="256.00" stroke="#e2e8f0" stroke-width="0.5"  />
  <line x1="60.00" y1="228.00" x2="540.00" y2="228.00" stroke="#e2e8f0" stroke-width="0.5"  />
  <line x1="60.00" y1="200.00" x2="540.00" y2="200.00" stroke="#e2e8f0" stroke-width="0.5"  />
  <line x1="60.00" y1="172.00" x2="540.00" y2="172.00" stroke="#e2e8f0" stroke-width="0.5"  />
  <line x1="60.00" y1="144.00" x2="540.00" y2="144.00" stroke="#e2e8f0" stroke-width="0.5"  />
  <line x1="60.00" y1="116.00" x2="540.00" y2="116.00" stroke="#e2e8f0" stroke-width="0.5"  />
  <line x1="60.00" y1="88.00" x2="540.00" y2="88.00" stroke="#e2e8f0" stroke-width="0.5"  />
  <line x1="60.00" y1="60.00" x2="540.00" y2="60.00" stroke="#e2e8f0" stroke-width="0.5"  />
  <line x1="60.00" y1="284.00" x2="540.00" y2="284.00" stroke="#64748b" stroke-width="2"  marker-end="url(#arrow-64748b-10)"/>
  <line x1="180.00" y1="340.00" x2="180.00" y2="60.00" stroke="#64748b" stroke-width="2"  marker-end="url(#arrow-64748b-10)"/>
  <text x="535.00" y="304.00" font-family="Inter, sans-serif" font-size="14" font-weight="bold" fill="#64748b" text-anchor="middle" dominant-baseline="middle">x</text>
  <text x="160.00" y="70.00" font-family="Inter, sans-serif" font-size="14" font-weight="bold" fill="#64748b" text-anchor="middle" dominant-baseline="middle">y</text>
  <line x1="60.00" y1="279.00" x2="60.00" y2="289.00" stroke="#64748b" stroke-width="1"  />
  <text x="60.00" y="302.00" font-family="Inter, sans-serif" font-size="11" font-weight="normal" fill="#64748b" text-anchor="middle" dominant-baseline="middle">-2</text>
  <line x1="120.00" y1="279.00" x2="120.00" y2="289.00" stroke="#64748b" stroke-width="1"  />
  <text x="120.00" y="302.00" font-family="Inter, sans-serif" font-size="11" font-weight="normal" fill="#64748b" text-anchor="middle" dominant-baseline="middle">-1</text>
  <line x1="240.00" y1="279.00" x2="240.00" y2="289.00" stroke="#64748b" stroke-width="1"  />
  <text x="240.00" y="302.00" font-family="Inter, sans-serif" font-size="11" font-weight="normal" fill="#64748b" text-anchor="middle" dominant-baseline="middle">1</text>
  <line x1="300.00" y1="279.00" x2="300.00" y2="289.00" stroke="#64748b" stroke-width="1"  />
  <text x="300.00" y="302.00" font-family="Inter, sans-serif" font-size="11" font-weight="normal" fill="#64748b" text-anchor="middle" dominant-baseline="middle">2</text>
  <line x1="360.00" y1="279.00" x2="360.00" y2="289.00" stroke="#64748b" stroke-width="1"  />
  <text x="360.00" y="302.00" font-family="Inter, sans-serif" font-size="11" font-weight="normal" fill="#64748b" text-anchor="middle" dominant-baseline="middle">3</text>
  <line x1="420.00" y1="279.00" x2="420.00" y2="289.00" stroke="#64748b" stroke-width="1"  />
  <text x="420.00" y="302.00" font-family="Inter, sans-serif" font-size="11" font-weight="normal" fill="#64748b" text-anchor="middle" dominant-baseline="middle">4</text>
  <line x1="480.00" y1="279.00" x2="480.00" y2="289.00" stroke="#64748b" stroke-width="1"  />
  <text x="480.00" y="302.00" font-family="Inter, sans-serif" font-size="11" font-weight="normal" fill="#64748b" text-anchor="middle" dominant-baseline="middle">5</text>
  <line x1="540.00" y1="279.00" x2="540.00" y2="289.00" stroke="#64748b" stroke-width="1"  />
  <text x="540.00" y="302.00" font-family="Inter, sans-serif" font-size="11" font-weight="normal" fill="#64748b" text-anchor="middle" dominant-baseline="middle">6</text>
  <line x1="175.00" y1="340.00" x2="185.00" y2="340.00" stroke="#64748b" stroke-width="1"  />
  <text x="165.00" y="340.00" font-family="Inter, sans-serif" font-size="11" font-weight="normal" fill="#64748b" text-anchor="end" dominant-baseline="middle">-2</text>
  <line x1="175.00" y1="312.00" x2="185.00" y2="312.00" stroke="#64748b" stroke-width="1"  />
  <text x="165.00" y="312.00" font-family="Inter, sans-serif" font-size="11" font-weight="normal" fill="#64748b" text-anchor="end" dominant-baseline="middle">-1</text>
  <line x1="175.00" y1="256.00" x2="185.00" y2="256.00" stroke="#64748b" stroke-width="1"  />
  <text x="165.00" y="256.00" font-family="Inter, sans-serif" font-size="11" font-weight="normal" fill="#64748b" text-anchor="end" dominant-baseline="middle">1</text>
  <line x1="175.00" y1="228.00" x2="185.00" y2="228.00" stroke="#64748b" stroke-width="1"  />
  <text x="165.00" y="228.00" font-family="Inter, sans-serif" font-size="11" font-weight="normal" fill="#64748b" text-anchor="end" dominant-baseline="middle">2</text>
  <line x1="175.00" y1="200.00" x2="185.00" y2="200.00" stroke="#64748b" stroke-width="1"  />
  <text x="165.00" y="200.00" font-family="Inter, sans-serif" font-size="11" font-weight="normal" fill="#64748b" text-anchor="end" dominant-baseline="middle">3</text>
  <line x1="175.00" y1="172.00" x2="185.00" y2="172.00" stroke="#64748b" stroke-width="1"  />
  <text x="165.00" y="172.00" font-family="Inter, sans-serif" font-size="11" font-weight="normal" fill="#64748b" text-anchor="end" dominant-baseline="middle">4</text>
  <line x1="175.00" y1="144.00" x2="185.00" y2="144.00" stroke="#64748b" stroke-width="1"  />
  <text x="165.00" y="144.00" font-family="Inter, sans-serif" font-size="11" font-weight="normal" fill="#64748b" text-anchor="end" dominant-baseline="middle">5</text>
  <line x1="175.00" y1="116.00" x2="185.00" y2="116.00" stroke="#64748b" stroke-width="1"  />
  <text x="165.00" y="116.00" font-family="Inter, sans-serif" font-size="11" font-weight="normal" fill="#64748b" text-anchor="end" dominant-baseline="middle">6</text>
  <line x1="175.00" y1="88.00" x2="185.00" y2="88.00" stroke="#64748b" stroke-width="1"  />
  <text x="165.00" y="88.00" font-family="Inter, sans-serif" font-size="11" font-weight="normal" fill="#64748b" text-anchor="end" dominant-baseline="middle">7</text>
  <line x1="175.00" y1="60.00" x2="185.00" y2="60.00" stroke="#64748b" stroke-width="1"  />
  <text x="165.00" y="60.00" font-family="Inter, sans-serif" font-size="11" font-weight="normal" fill="#64748b" text-anchor="end" dominant-baseline="middle">8</text>
  <text x="168.00" y="299.00" font-family="Inter, sans-serif" font-size="11" font-weight="normal" fill="#64748b" text-anchor="middle" dominant-baseline="middle">O</text>
  <polyline points="60.00,144.00 64.85,146.26 69.70,148.53 74.55,150.79 79.39,153.05 84.24,155.31 89.09,157.58 93.94,159.84 98.79,162.10 103.64,164.36 108.48,166.63 113.33,168.89 118.18,171.15 123.03,173.41 127.88,175.68 132.73,177.94 137.58,180.20 142.42,182.46 147.27,184.73 152.12,186.99 156.97,189.25 161.82,191.52 166.67,193.78 171.52,196.04 176.36,198.30 181.21,200.57 186.06,202.83 190.91,205.09 195.76,207.35 200.61,209.62 205.45,211.88 210.30,214.14 215.15,216.40 220.00,218.67 224.85,220.93 229.70,223.19 234.55,225.45 239.39,227.72 244.24,229.98 249.09,232.24 253.94,234.51 258.79,236.77 263.64,239.03 268.48,241.29 273.33,243.56 278.18,245.82 283.03,248.08 287.88,250.34 292.73,252.61 297.58,254.87 302.42,257.13 307.27,259.39 312.12,261.66 316.97,263.92 321.82,266.18 326.67,268.44 331.52,270.71 336.36,272.97 341.21,275.23 346.06,277.49 350.91,279.76 355.76,282.02 360.61,284.28 365.45,286.55 370.30,288.81 375.15,291.07 380.00,293.33 384.85,295.60 389.70,297.86 394.55,300.12 399.39,302.38 404.24,304.65 409.09,306.91 413.94,309.17 418.79,311.43 423.64,313.70 428.48,315.96 433.33,318.22 438.18,320.48 443.03,322.75 447.88,325.01 452.73,327.27 457.58,329.54 462.42,331.80 467.27,334.06 472.12,336.32 476.97,338.59 481.82,340.85 486.67,343.11 491.52,345.37 496.36,347.64 501.21,349.90 506.06,352.16 510.91,354.42 515.76,356.69 520.61,358.95 525.45,361.21 530.30,363.47 535.15,365.74 540.00,368.00" fill="none" stroke="#3b82f6" stroke-width="3"  stroke-linecap="round" stroke-linejoin="round"/>
  <polyline points="60.00,32.00 64.85,34.26 69.70,36.53 74.55,38.79 79.39,41.05 84.24,43.31 89.09,45.58 93.94,47.84 98.79,50.10 103.64,52.36 108.48,54.63 113.33,56.89 118.18,59.15 123.03,61.41 127.88,63.68 132.73,65.94 137.58,68.20 142.42,70.46 147.27,72.73 152.12,74.99 156.97,77.25 161.82,79.52 166.67,81.78 171.52,84.04 176.36,86.30 181.21,88.57 186.06,90.83 190.91,93.09 195.76,95.35 200.61,97.62 205.45,99.88 210.30,102.14 215.15,104.40 220.00,106.67 224.85,108.93 229.70,111.19 234.55,113.45 239.39,115.72 244.24,117.98 249.09,120.24 253.94,122.51 258.79,124.77 263.64,127.03 268.48,129.29 273.33,131.56 278.18,133.82 283.03,136.08 287.88,138.34 292.73,140.61 297.58,142.87 302.42,145.13 307.27,147.39 312.12,149.66 316.97,151.92 321.82,154.18 326.67,156.44 331.52,158.71 336.36,160.97 341.21,163.23 346.06,165.49 350.91,167.76 355.76,170.02 360.61,172.28 365.45,174.55 370.30,176.81 375.15,179.07 380.00,181.33 384.85,183.60 389.70,185.86 394.55,188.12 399.39,190.38 404.24,192.65 409.09,194.91 413.94,197.17 418.79,199.43 423.64,201.70 428.48,203.96 433.33,206.22 438.18,208.48 443.03,210.75 447.88,213.01 452.73,215.27 457.58,217.54 462.42,219.80 467.27,222.06 472.12,224.32 476.97,226.59 481.82,228.85 486.67,231.11 491.52,233.37 496.36,235.64 501.21,237.90 506.06,240.16 510.91,242.42 515.76,244.69 520.61,246.95 525.45,249.21 530.30,251.47 535.15,253.74 540.00,256.00" fill="none" stroke="#22c55e" stroke-width="3"  stroke-linecap="round" stroke-linejoin="round"/>
  <rect x="420.00" y="60.00" width="160.00" height="70.00" fill="white" stroke="#e2e8f0" stroke-width="0" rx="8"  />
  <line x1="435.00" y1="80.00" x2="465.00" y2="80.00" stroke="#3b82f6" stroke-width="3"  />
  <text x="475.00" y="84.00" font-family="Inter, sans-serif" font-size="11" font-weight="normal" fill="#1e293b" text-anchor="start" dominant-baseline="middle">x + y = 3</text>
  <line x1="435.00" y1="100.00" x2="465.00" y2="100.00" stroke="#22c55e" stroke-width="3"  />
  <text x="475.00" y="104.00" font-family="Inter, sans-serif" font-size="11" font-weight="normal" fill="#1e293b" text-anchor="start" dominant-baseline="middle">x + y = 7</text>
</svg>