<svg xmlns="http://www.w3.org/2000/svg" viewBox="0 0 600 400">
  <defs>
        <marker id="arrow-64748b-10" markerWidth="10" markerHeight="10" 
                refX="9.0" refY="5.0" orient="auto"
                markerUnits="userSpaceOnUse">
            <polygon points="0,0 10,5.0 0,10" fill="#64748b"/>
        </marker>

        <marker id="arrow-64748b-10" markerWidth="10" markerHeight="10" 
                refX="9.0" refY="5.0" orient="auto"
                markerUnits="userSpaceOnUse">
            <polygon points="0,0 10,5.0 0,10" fill="#64748b"/>
        </marker></defs>
  <rect x="0.00" y="0.00" width="600.00" height="400.00" fill="white" stroke="none" stroke-width="0" rx="0"  />
  <text x="300.00" y="30.00" font-family="Inter, sans-serif" font-size="16" font-weight="bold" fill="#1e293b" text-anchor="middle" dominant-baseline="middle">Ejemplo 1: Solución (6, 4)</text>
  <line x1="108.00" y1="340.00" x2="108.00" y2="60.00" stroke="#e2e8f0" stroke-width="0.5"  />
  <line x1="156.00" y1="340.00" x2="156.00" y2="60.00" stroke="#e2e8f0" stroke-width="0.5"  />
  <line x1="204.00" y1="340.00" x2="204.00" y2="60.00" stroke="#e2e8f0" stroke-width="0.5"  />
  <line x1="252.00" y1="340.00" x2="252.00" y2="60.00" stroke="#e2e8f0" stroke-width="0.5"  />
  <line x1="300.00" y1="340.00" x2="300.00" y2="60.00" stroke="#e2e8f0" stroke-width="0.5"  />
  <line x1="348.00" y1="340.00" x2="348.00" y2="60.00" stroke="#e2e8f0" stroke-width="0.5"  />
  <line x1="396.00" y1="340.00" x2="396.00" y2="60.00" stroke="#e2e8f0" stroke-width="0.5"  />
  <line x1="444.00" y1="340.00" x2="444.00" y2="60.00" stroke="#e2e8f0" stroke-width="0.5"  />
  <line x1="492.00" y1="340.00" x2="492.00" y2="60.00" stroke="#e2e8f0" stroke-width="0.5"  />
  <line x1="540.00" y1="340.00" x2="540.00" y2="60.00" stroke="#e2e8f0" stroke-width="0.5"  />
  <line x1="60.00" y1="312.00" x2="540.00" y2="312.00" stroke="#e2e8f0" stroke-width="0.5"  />
  <line x1="60.00" y1="284.00" x2="540.00" y2="284.00" stroke="#e2e8f0" stroke-width="0.5"  />
  <line x1="60.00" y1="256.00" x2="540.00" y2="256.00" stroke="#e2e8f0" stroke-width="0.5"  />
  <line x1="60.00" y1="228.00" x2="540.00" y2="228.00" stroke="#e2e8f0" stroke-width="0.5"  />
  <line x1="60.00" y1="200.00" x2="540.00" y2="200.00" stroke="#e2e8f0" stroke-width="0.5"  />
  <line x1="60.00" y1="172.00" x2="540.00" y2="172.00" stroke="#e2e8f0" stroke-width="0.5"  />
  <line x1="60.00" y1="144.00" x2="540.00" y2="144.00" stroke="#e2e8f0" stroke-width="0.5"  />
  <line x1="60.00" y1="116.00" x2="540.00" y2="116.00" stroke="#e2e8f0" stroke-width="0.5"  />
  <line x1="60.00" y1="88.00" x2="540.00" y2="88.00" stroke="#e2e8f0" stroke-width="0.5"  />
  <line x1="60.00" y1="60.00" x2="540.00" y2="60.00" stroke="#e2e8f0" stroke-width="0.5"  />
  <line x1="60.00" y1="340.00" x2="540.00" y2="340.00" stroke="#64748b" stroke-width="2"  marker-end="url(#arrow-64748b-10)"/>
  <line x1="60.00" y1="340.00" x2="60.00" y2="60.00" stroke="#64748b" stroke-width="2"  marker-end="url(#arrow-64748b-10)"/>
  <text x="535.00" y="360.00" font-family="Inter, sans-serif" font-size="14" font-weight="bold" fill="#64748b" text-anchor="middle" dominant-baseline="middle">x</text>
  <text x="40.00" y="70.00" font-family="Inter, sans-serif" font-size="14" font-weight="bold" fill="#64748b" text-anchor="middle" dominant-baseline="middle">y</text>
  <line x1="108.00" y1="335.00" x2="108.00" y2="345.00" stroke="#64748b" stroke-width="1"  />
  <text x="108.00" y="358.00" font-family="Inter, sans-serif" font-size="11" font-weight="normal" fill="#64748b" text-anchor="middle" dominant-baseline="middle">1</text>
  <line x1="156.00" y1="335.00" x2="156.00" y2="345.00" stroke="#64748b" stroke-width="1"  />
  <text x="156.00" y="358.00" font-family="Inter, sans-serif" font-size="11" font-weight="normal" fill="#64748b" text-anchor="middle" dominant-baseline="middle">2</text>
  <line x1="204.00" y1="335.00" x2="204.00" y2="345.00" stroke="#64748b" stroke-width="1"  />
  <text x="204.00" y="358.00" font-family="Inter, sans-serif" font-size="11" font-weight="normal" fill="#64748b" text-anchor="middle" dominant-baseline="middle">3</text>
  <line x1="252.00" y1="335.00" x2="252.00" y2="345.00" stroke="#64748b" stroke-width="1"  />
  <text x="252.00" y="358.00" font-family="Inter, sans-serif" font-size="11" font-weight="normal" fill="#64748b" text-anchor="middle" dominant-baseline="middle">4</text>
  <line x1="300.00" y1="335.00" x2="300.00" y2="345.00" stroke="#64748b" stroke-width="1"  />
  <text x="300.00" y="358.00" font-family="Inter, sans-serif" font-size="11" font-weight="normal" fill="#64748b" text-anchor="middle" dominant-baseline="middle">5</text>
  <line x1="348.00" y1="335.00" x2="348.00" y2="345.00" stroke="#64748b" stroke-width="1"  />
  <text x="348.00" y="358.00" font-family="Inter, sans-serif" font-size="11" font-weight="normal" fill="#64748b" text-anchor="middle" dominant-baseline="middle">6</text>
  <line x1="396.00" y1="335.00" x2="396.00" y2="345.00" stroke="#64748b" stroke-width="1"  />
  <text x="396.00" y="358.00" font-family="Inter, sans-serif" font-size="11" font-weight="normal" fill="#64748b" text-anchor="middle" dominant-baseline="middle">7</text>
  <line x1="444.00" y1="335.00" x2="444.00" y2="345.00" stroke="#64748b" stroke-width="1"  />
  <text x="444.00" y="358.00" font-family="Inter, sans-serif" font-size="11" font-weight="normal" fill="#64748b" text-anchor="middle" dominant-baseline="middle">8</text>
  <line x1="492.00" y1="335.00" x2="492.00" y2="345.00" stroke="#64748b" stroke-width="1"  />
  <text x="492.00" y="358.00" font-family="Inter, sans-serif" font-size="11" font-weight="normal" fill="#64748b" text-anchor="middle" dominant-baseline="middle">9</text>
  <line x1="540.00" y1="335.00" x2="540.00" y2="345.00" stroke="#64748b" stroke-width="1"  />
  <text x="540.00" y="358.00" font-family="Inter, sans-serif" font-size="11" font-weight="normal" fill="#64748b" text-anchor="middle" dominant-baseline="middle">10</text>
  <line x1="55.00" y1="312.00" x2="65.00" y2="312.00" stroke="#64748b" stroke-width="1"  />
  <text x="45.00" y="312.00" font-family="Inter, sans-serif" font-size="11" font-weight="normal" fill="#64748b" text-anchor="end" dominant-baseline="middle">1</text>
  <line x1="55.00" y1="284.00" x2="65.00" y2="284.00" stroke="#64748b" stroke-width="1"  />
  <text x="45.00" y="284.00" font-family="Inter, sans-serif" font-size="11" font-weight="normal" fill="#64748b" text-anchor="end" dominant-baseline="middle">2</text>
  <line x1="55.00" y1="256.00" x2="65.00" y2="256.00" stroke="#64748b" stroke-width="1"  />
  <text x="45.00" y="256.00" font-family="Inter, sans-serif" font-size="11" font-weight="normal" fill="#64748b" text-anchor="end" dominant-baseline="middle">3</text>
  <line x1="55.00" y1="228.00" x2="65.00" y2="228.00" stroke="#64748b" stroke-width="1"  />
  <text x="45.00" y="228.00" font-family="Inter, sans-serif" font-size="11" font-weight="normal" fill="#64748b" text-anchor="end" dominant-baseline="middle">4</text>
  <line x1="55.00" y1="200.00" x2="65.00" y2="200.00" stroke="#64748b" stroke-width="1"  />
  <text x="45.00" y="200.00" font-family="Inter, sans-serif" font-size="11" font-weight="normal" fill="#64748b" text-anchor="end" dominant-baseline="middle">5</text>
  <line x1="55.00" y1="172.00" x2="65.00" y2="172.00" stroke="#64748b" stroke-width="1"  />
  <text x="45.00" y="172.00" font-family="Inter, sans-serif" font-size="11" font-weight="normal" fill="#64748b" text-anchor="end" dominant-baseline="middle">6</text>
  <line x1="55.00" y1="144.00" x2="65.00" y2="144.00" stroke="#64748b" stroke-width="1"  />
  <text x="45.00" y="144.00" font-family="Inter, sans-serif" font-size="11" font-weight="normal" fill="#64748b" text-anchor="end" dominant-baseline="middle">7</text>
  <line x1="55.00" y1="116.00" x2="65.00" y2="116.00" stroke="#64748b" stroke-width="1"  />
  <text x="45.00" y="116.00" font-family="Inter, sans-serif" font-size="11" font-weight="normal" fill="#64748b" text-anchor="end" dominant-baseline="middle">8</text>
  <line x1="55.00" y1="88.00" x2="65.00" y2="88.00" stroke="#64748b" stroke-width="1"  />
  <text x="45.00" y="88.00" font-family="Inter, sans-serif" font-size="11" font-weight="normal" fill="#64748b" text-anchor="end" dominant-baseline="middle">9</text>
  <line x1="55.00" y1="60.00" x2="65.00" y2="60.00" stroke="#64748b" stroke-width="1"  />
  <text x="45.00" y="60.00" font-family="Inter, sans-serif" font-size="11" font-weight="normal" fill="#64748b" text-anchor="end" dominant-baseline="middle">10</text>
  <text x="48.00" y="355.00" font-family="Inter, sans-serif" font-size="11" font-weight="normal" fill="#64748b" text-anchor="middle" dominant-baseline="middle">O</text>
  <polyline points="60.00,60.00 64.85,62.83 69.70,65.66 74.55,68.48 79.39,71.31 84.24,74.14 89.09,76.97 93.94,79.80 98.79,82.63 103.64,85.45 108.48,88.28 113.33,91.11 118.18,93.94 123.03,96.77 127.88,99.60 132.73,102.42 137.58,105.25 142.42,108.08 147.27,110.91 152.12,113.74 156.97,116.57 161.82,119.39 166.67,122.22 171.52,125.05 176.36,127.88 181.21,130.71 186.06,133.54 190.91,136.36 195.76,139.19 200.61,142.02 205.45,144.85 210.30,147.68 215.15,150.51 220.00,153.33 224.85,156.16 229.70,158.99 234.55,161.82 239.39,164.65 244.24,167.47 249.09,170.30 253.94,173.13 258.79,175.96 263.64,178.79 268.48,181.62 273.33,184.44 278.18,187.27 283.03,190.10 287.88,192.93 292.73,195.76 297.58,198.59 302.42,201.41 307.27,204.24 312.12,207.07 316.97,209.90 321.82,212.73 326.67,215.56 331.52,218.38 336.36,221.21 341.21,224.04 346.06,226.87 350.91,229.70 355.76,232.53 360.61,235.35 365.45,238.18 370.30,241.01 375.15,243.84 380.00,246.67 384.85,249.49 389.70,252.32 394.55,255.15 399.39,257.98 404.24,260.81 409.09,263.64 413.94,266.46 418.79,269.29 423.64,272.12 428.48,274.95 433.33,277.78 438.18,280.61 443.03,283.43 447.88,286.26 452.73,289.09 457.58,291.92 462.42,294.75 467.27,297.58 472.12,300.40 476.97,303.23 481.82,306.06 486.67,308.89 491.52,311.72 496.36,314.55 501.21,317.37 506.06,320.20 510.91,323.03 515.76,325.86 520.61,328.69 525.45,331.52 530.30,334.34 535.15,337.17 540.00,340.00" fill="none" stroke="#3b82f6" stroke-width="3"  stroke-linecap="round" stroke-linejoin="round"/>
  <polyline points="60.00,396.00 64.85,393.17 69.70,390.34 74.55,387.52 79.39,384.69 84.24,381.86 89.09,379.03 93.94,376.20 98.79,373.37 103.64,370.55 108.48,367.72 113.33,364.89 118.18,362.06 123.03,359.23 127.88,356.40 132.73,353.58 137.58,350.75 142.42,347.92 147.27,345.09 152.12,342.26 156.97,339.43 161.82,336.61 166.67,333.78 171.52,330.95 176.36,328.12 181.21,325.29 186.06,322.46 190.91,319.64 195.76,316.81 200.61,313.98 205.45,311.15 210.30,308.32 215.15,305.49 220.00,302.67 224.85,299.84 229.70,297.01 234.55,294.18 239.39,291.35 244.24,288.53 249.09,285.70 253.94,282.87 258.79,280.04 263.64,277.21 268.48,274.38 273.33,271.56 278.18,268.73 283.03,265.90 287.88,263.07 292.73,260.24 297.58,257.41 302.42,254.59 307.27,251.76 312.12,248.93 316.97,246.10 321.82,243.27 326.67,240.44 331.52,237.62 336.36,234.79 341.21,231.96 346.06,229.13 350.91,226.30 355.76,223.47 360.61,220.65 365.45,217.82 370.30,214.99 375.15,212.16 380.00,209.33 384.85,206.51 389.70,203.68 394.55,200.85 399.39,198.02 404.24,195.19 409.09,192.36 413.94,189.54 418.79,186.71 423.64,183.88 428.48,181.05 433.33,178.22 438.18,175.39 443.03,172.57 447.88,169.74 452.73,166.91 457.58,164.08 462.42,161.25 467.27,158.42 472.12,155.60 476.97,152.77 481.82,149.94 486.67,147.11 491.52,144.28 496.36,141.45 501.21,138.63 506.06,135.80 510.91,132.97 515.76,130.14 520.61,127.31 525.45,124.48 530.30,121.66 535.15,118.83 540.00,116.00" fill="none" stroke="#22c55e" stroke-width="3"  stroke-linecap="round" stroke-linejoin="round"/>
  <circle cx="348.00" cy="228.00" r="9" fill="white" />
  <circle cx="348.00" cy="228.00" r="5" fill="#ef4444" stroke="white" stroke-width="2"/>
  <rect x="319.00" y="190.00" width="58.00" height="26.00" fill="white" stroke="#ef4444" stroke-width="1.5" rx="6"  />
  <text x="348.00" y="207.00" font-family="Inter, sans-serif" font-size="12" font-weight="bold" fill="#ef4444" text-anchor="middle" dominant-baseline="middle">(6, 4)</text>
  <rect x="420.00" y="60.00" width="160.00" height="70.00" fill="white" stroke="#e2e8f0" stroke-width="0" rx="8"  />
  <line x1="435.00" y1="80.00" x2="465.00" y2="80.00" stroke="#3b82f6" stroke-width="3"  />
  <text x="475.00" y="84.00" font-family="Inter, sans-serif" font-size="11" font-weight="normal" fill="#1e293b" text-anchor="start" dominant-baseline="middle">x + y = 10</text>
  <line x1="435.00" y1="100.00" x2="465.00" y2="100.00" stroke="#22c55e" stroke-width="3"  />
  <text x="475.00" y="104.00" font-family="Inter, sans-serif" font-size="11" font-weight="normal" fill="#1e293b" text-anchor="start" dominant-baseline="middle">x - y = 2</text>
</svg>