<svg xmlns="http://www.w3.org/2000/svg" viewBox="0 0 600 400">
  <defs>
        <marker id="arrow-64748b-10" markerWidth="10" markerHeight="10" 
                refX="9.0" refY="5.0" orient="auto"
                markerUnits="userSpaceOnUse">
            <polygon points="0,0 10,5.0 0,10" fill="#64748b"/>
        </marker>

        <marker id="arrow-64748b-10" markerWidth="10" markerHeight="10" 
                refX="9.0" refY="5.0" orient="auto"
                markerUnits="userSpaceOnUse">
            <polygon points="0,0 10,5.0 0,10" fill="#64748b"/>
        </marker></defs>
  <rect x="0.00" y="0.00" width="600.00" height="400.00" fill="white" stroke="none" stroke-width="0" rx="0"  />
  <text x="300.00" y="30.00" font-family="Inter, sans-serif" font-size="16" font-weight="bold" fill="#1e293b" text-anchor="middle" dominant-baseline="middle">Ejemplo 3: Solución (5.82, 1.88)</text>
  <line x1="108.00" y1="340.00" x2="108.00" y2="60.00" stroke="#e2e8f0" stroke-width="0.5"  />
  <line x1="156.00" y1="340.00" x2="156.00" y2="60.00" stroke="#e2e8f0" stroke-width="0.5"  />
  <line x1="204.00" y1="340.00" x2="204.00" y2="60.00" stroke="#e2e8f0" stroke-width="0.5"  />
  <line x1="252.00" y1="340.00" x2="252.00" y2="60.00" stroke="#e2e8f0" stroke-width="0.5"  />
  <line x1="300.00" y1="340.00" x2="300.00" y2="60.00" stroke="#e2e8f0" stroke-width="0.5"  />
  <line x1="348.00" y1="340.00" x2="348.00" y2="60.00" stroke="#e2e8f0" stroke-width="0.5"  />
  <line x1="396.00" y1="340.00" x2="396.00" y2="60.00" stroke="#e2e8f0" stroke-width="0.5"  />
  <line x1="444.00" y1="340.00" x2="444.00" y2="60.00" stroke="#e2e8f0" stroke-width="0.5"  />
  <line x1="492.00" y1="340.00" x2="492.00" y2="60.00" stroke="#e2e8f0" stroke-width="0.5"  />
  <line x1="540.00" y1="340.00" x2="540.00" y2="60.00" stroke="#e2e8f0" stroke-width="0.5"  />
  <line x1="60.00" y1="340.00" x2="540.00" y2="340.00" stroke="#e2e8f0" stroke-width="0.5"  />
  <line x1="60.00" y1="312.00" x2="540.00" y2="312.00" stroke="#e2e8f0" stroke-width="0.5"  />
  <line x1="60.00" y1="256.00" x2="540.00" y2="256.00" stroke="#e2e8f0" stroke-width="0.5"  />
  <line x1="60.00" y1="228.00" x2="540.00" y2="228.00" stroke="#e2e8f0" stroke-width="0.5"  />
  <line x1="60.00" y1="200.00" x2="540.00" y2="200.00" stroke="#e2e8f0" stroke-width="0.5"  />
  <line x1="60.00" y1="172.00" x2="540.00" y2="172.00" stroke="#e2e8f0" stroke-width="0.5"  />
  <line x1="60.00" y1="144.00" x2="540.00" y2="144.00" stroke="#e2e8f0" stroke-width="0.5"  />
  <line x1="60.00" y1="116.00" x2="540.00" y2="116.00" stroke="#e2e8f0" stroke-width="0.5"  />
  <line x1="60.00" y1="88.00" x2="540.00" y2="88.00" stroke="#e2e8f0" stroke-width="0.5"  />
  <line x1="60.00" y1="60.00" x2="540.00" y2="60.00" stroke="#e2e8f0" stroke-width="0.5"  />
  <line x1="60.00" y1="284.00" x2="540.00" y2="284.00" stroke="#64748b" stroke-width="2"  marker-end="url(#arrow-64748b-10)"/>
  <line x1="60.00" y1="340.00" x2="60.00" y2="60.00" stroke="#64748b" stroke-width="2"  marker-end="url(#arrow-64748b-10)"/>
  <text x="535.00" y="304.00" font-family="Inter, sans-serif" font-size="14" font-weight="bold" fill="#64748b" text-anchor="middle" dominant-baseline="middle">x</text>
  <text x="40.00" y="70.00" font-family="Inter, sans-serif" font-size="14" font-weight="bold" fill="#64748b" text-anchor="middle" dominant-baseline="middle">y</text>
  <line x1="108.00" y1="279.00" x2="108.00" y2="289.00" stroke="#64748b" stroke-width="1"  />
  <text x="108.00" y="302.00" font-family="Inter, sans-serif" font-size="11" font-weight="normal" fill="#64748b" text-anchor="middle" dominant-baseline="middle">1</text>
  <line x1="156.00" y1="279.00" x2="156.00" y2="289.00" stroke="#64748b" stroke-width="1"  />
  <text x="156.00" y="302.00" font-family="Inter, sans-serif" font-size="11" font-weight="normal" fill="#64748b" text-anchor="middle" dominant-baseline="middle">2</text>
  <line x1="204.00" y1="279.00" x2="204.00" y2="289.00" stroke="#64748b" stroke-width="1"  />
  <text x="204.00" y="302.00" font-family="Inter, sans-serif" font-size="11" font-weight="normal" fill="#64748b" text-anchor="middle" dominant-baseline="middle">3</text>
  <line x1="252.00" y1="279.00" x2="252.00" y2="289.00" stroke="#64748b" stroke-width="1"  />
  <text x="252.00" y="302.00" font-family="Inter, sans-serif" font-size="11" font-weight="normal" fill="#64748b" text-anchor="middle" dominant-baseline="middle">4</text>
  <line x1="300.00" y1="279.00" x2="300.00" y2="289.00" stroke="#64748b" stroke-width="1"  />
  <text x="300.00" y="302.00" font-family="Inter, sans-serif" font-size="11" font-weight="normal" fill="#64748b" text-anchor="middle" dominant-baseline="middle">5</text>
  <line x1="348.00" y1="279.00" x2="348.00" y2="289.00" stroke="#64748b" stroke-width="1"  />
  <text x="348.00" y="302.00" font-family="Inter, sans-serif" font-size="11" font-weight="normal" fill="#64748b" text-anchor="middle" dominant-baseline="middle">6</text>
  <line x1="396.00" y1="279.00" x2="396.00" y2="289.00" stroke="#64748b" stroke-width="1"  />
  <text x="396.00" y="302.00" font-family="Inter, sans-serif" font-size="11" font-weight="normal" fill="#64748b" text-anchor="middle" dominant-baseline="middle">7</text>
  <line x1="444.00" y1="279.00" x2="444.00" y2="289.00" stroke="#64748b" stroke-width="1"  />
  <text x="444.00" y="302.00" font-family="Inter, sans-serif" font-size="11" font-weight="normal" fill="#64748b" text-anchor="middle" dominant-baseline="middle">8</text>
  <line x1="492.00" y1="279.00" x2="492.00" y2="289.00" stroke="#64748b" stroke-width="1"  />
  <text x="492.00" y="302.00" font-family="Inter, sans-serif" font-size="11" font-weight="normal" fill="#64748b" text-anchor="middle" dominant-baseline="middle">9</text>
  <line x1="540.00" y1="279.00" x2="540.00" y2="289.00" stroke="#64748b" stroke-width="1"  />
  <text x="540.00" y="302.00" font-family="Inter, sans-serif" font-size="11" font-weight="normal" fill="#64748b" text-anchor="middle" dominant-baseline="middle">10</text>
  <line x1="55.00" y1="340.00" x2="65.00" y2="340.00" stroke="#64748b" stroke-width="1"  />
  <text x="45.00" y="340.00" font-family="Inter, sans-serif" font-size="11" font-weight="normal" fill="#64748b" text-anchor="end" dominant-baseline="middle">-2</text>
  <line x1="55.00" y1="312.00" x2="65.00" y2="312.00" stroke="#64748b" stroke-width="1"  />
  <text x="45.00" y="312.00" font-family="Inter, sans-serif" font-size="11" font-weight="normal" fill="#64748b" text-anchor="end" dominant-baseline="middle">-1</text>
  <line x1="55.00" y1="256.00" x2="65.00" y2="256.00" stroke="#64748b" stroke-width="1"  />
  <text x="45.00" y="256.00" font-family="Inter, sans-serif" font-size="11" font-weight="normal" fill="#64748b" text-anchor="end" dominant-baseline="middle">1</text>
  <line x1="55.00" y1="228.00" x2="65.00" y2="228.00" stroke="#64748b" stroke-width="1"  />
  <text x="45.00" y="228.00" font-family="Inter, sans-serif" font-size="11" font-weight="normal" fill="#64748b" text-anchor="end" dominant-baseline="middle">2</text>
  <line x1="55.00" y1="200.00" x2="65.00" y2="200.00" stroke="#64748b" stroke-width="1"  />
  <text x="45.00" y="200.00" font-family="Inter, sans-serif" font-size="11" font-weight="normal" fill="#64748b" text-anchor="end" dominant-baseline="middle">3</text>
  <line x1="55.00" y1="172.00" x2="65.00" y2="172.00" stroke="#64748b" stroke-width="1"  />
  <text x="45.00" y="172.00" font-family="Inter, sans-serif" font-size="11" font-weight="normal" fill="#64748b" text-anchor="end" dominant-baseline="middle">4</text>
  <line x1="55.00" y1="144.00" x2="65.00" y2="144.00" stroke="#64748b" stroke-width="1"  />
  <text x="45.00" y="144.00" font-family="Inter, sans-serif" font-size="11" font-weight="normal" fill="#64748b" text-anchor="end" dominant-baseline="middle">5</text>
  <line x1="55.00" y1="116.00" x2="65.00" y2="116.00" stroke="#64748b" stroke-width="1"  />
  <text x="45.00" y="116.00" font-family="Inter, sans-serif" font-size="11" font-weight="normal" fill="#64748b" text-anchor="end" dominant-baseline="middle">6</text>
  <line x1="55.00" y1="88.00" x2="65.00" y2="88.00" stroke="#64748b" stroke-width="1"  />
  <text x="45.00" y="88.00" font-family="Inter, sans-serif" font-size="11" font-weight="normal" fill="#64748b" text-anchor="end" dominant-baseline="middle">7</text>
  <line x1="55.00" y1="60.00" x2="65.00" y2="60.00" stroke="#64748b" stroke-width="1"  />
  <text x="45.00" y="60.00" font-family="Inter, sans-serif" font-size="11" font-weight="normal" fill="#64748b" text-anchor="end" dominant-baseline="middle">8</text>
  <text x="48.00" y="299.00" font-family="Inter, sans-serif" font-size="11" font-weight="normal" fill="#64748b" text-anchor="middle" dominant-baseline="middle">O</text>
  <polyline points="60.00,109.00 64.85,111.12 69.70,113.24 74.55,115.36 79.39,117.48 84.24,119.61 89.09,121.73 93.94,123.85 98.79,125.97 103.64,128.09 108.48,130.21 113.33,132.33 118.18,134.45 123.03,136.58 127.88,138.70 132.73,140.82 137.58,142.94 142.42,145.06 147.27,147.18 152.12,149.30 156.97,151.42 161.82,153.55 166.67,155.67 171.52,157.79 176.36,159.91 181.21,162.03 186.06,164.15 190.91,166.27 195.76,168.39 200.61,170.52 205.45,172.64 210.30,174.76 215.15,176.88 220.00,179.00 224.85,181.12 229.70,183.24 234.55,185.36 239.39,187.48 244.24,189.61 249.09,191.73 253.94,193.85 258.79,195.97 263.64,198.09 268.48,200.21 273.33,202.33 278.18,204.45 283.03,206.58 287.88,208.70 292.73,210.82 297.58,212.94 302.42,215.06 307.27,217.18 312.12,219.30 316.97,221.42 321.82,223.55 326.67,225.67 331.52,227.79 336.36,229.91 341.21,232.03 346.06,234.15 350.91,236.27 355.76,238.39 360.61,240.52 365.45,242.64 370.30,244.76 375.15,246.88 380.00,249.00 384.85,251.12 389.70,253.24 394.55,255.36 399.39,257.48 404.24,259.61 409.09,261.73 413.94,263.85 418.79,265.97 423.64,268.09 428.48,270.21 433.33,272.33 438.18,274.45 443.03,276.58 447.88,278.70 452.73,280.82 457.58,282.94 462.42,285.06 467.27,287.18 472.12,289.30 476.97,291.42 481.82,293.55 486.67,295.67 491.52,297.79 496.36,299.91 501.21,302.03 506.06,304.15 510.91,306.27 515.76,308.39 520.61,310.52 525.45,312.64 530.30,314.76 535.15,316.88 540.00,319.00" fill="none" stroke="#3b82f6" stroke-width="3"  stroke-linecap="round" stroke-linejoin="round"/>
  <polyline points="60.00,340.00 64.85,338.11 69.70,336.23 74.55,334.34 79.39,332.46 84.24,330.57 89.09,328.69 93.94,326.80 98.79,324.92 103.64,323.03 108.48,321.14 113.33,319.26 118.18,317.37 123.03,315.49 127.88,313.60 132.73,311.72 137.58,309.83 142.42,307.95 147.27,306.06 152.12,304.18 156.97,302.29 161.82,300.40 166.67,298.52 171.52,296.63 176.36,294.75 181.21,292.86 186.06,290.98 190.91,289.09 195.76,287.21 200.61,285.32 205.45,283.43 210.30,281.55 215.15,279.66 220.00,277.78 224.85,275.89 229.70,274.01 234.55,272.12 239.39,270.24 244.24,268.35 249.09,266.46 253.94,264.58 258.79,262.69 263.64,260.81 268.48,258.92 273.33,257.04 278.18,255.15 283.03,253.27 287.88,251.38 292.73,249.49 297.58,247.61 302.42,245.72 307.27,243.84 312.12,241.95 316.97,240.07 321.82,238.18 326.67,236.30 331.52,234.41 336.36,232.53 341.21,230.64 346.06,228.75 350.91,226.87 355.76,224.98 360.61,223.10 365.45,221.21 370.30,219.33 375.15,217.44 380.00,215.56 384.85,213.67 389.70,211.78 394.55,209.90 399.39,208.01 404.24,206.13 409.09,204.24 413.94,202.36 418.79,200.47 423.64,198.59 428.48,196.70 433.33,194.81 438.18,192.93 443.03,191.04 447.88,189.16 452.73,187.27 457.58,185.39 462.42,183.50 467.27,181.62 472.12,179.73 476.97,177.85 481.82,175.96 486.67,174.07 491.52,172.19 496.36,170.30 501.21,168.42 506.06,166.53 510.91,164.65 515.76,162.76 520.61,160.88 525.45,158.99 530.30,157.10 535.15,155.22 540.00,153.33" fill="none" stroke="#22c55e" stroke-width="3"  stroke-linecap="round" stroke-linejoin="round"/>
  <circle cx="339.53" cy="231.29" r="9" fill="white" />
  <circle cx="339.53" cy="231.29" r="5" fill="#ef4444" stroke="white" stroke-width="2"/>
  <rect x="289.53" y="193.29" width="100.00" height="26.00" fill="white" stroke="#ef4444" stroke-width="1.5" rx="6"  />
  <text x="339.53" y="210.29" font-family="Inter, sans-serif" font-size="12" font-weight="bold" fill="#ef4444" text-anchor="middle" dominant-baseline="middle">(5.82, 1.88)</text>
  <rect x="420.00" y="60.00" width="160.00" height="70.00" fill="white" stroke="#e2e8f0" stroke-width="0" rx="8"  />
  <line x1="435.00" y1="80.00" x2="465.00" y2="80.00" stroke="#3b82f6" stroke-width="3"  />
  <text x="475.00" y="84.00" font-family="Inter, sans-serif" font-size="11" font-weight="normal" fill="#1e293b" text-anchor="start" dominant-baseline="middle">3x + 4y = 25</text>
  <line x1="435.00" y1="100.00" x2="465.00" y2="100.00" stroke="#22c55e" stroke-width="3"  />
  <text x="475.00" y="104.00" font-family="Inter, sans-serif" font-size="11" font-weight="normal" fill="#1e293b" text-anchor="start" dominant-baseline="middle">2x - 3y = 6</text>
</svg>