<svg xmlns="http://www.w3.org/2000/svg" viewBox="0 0 600 400">
  <defs>
        <marker id="arrow-64748b-10" markerWidth="10" markerHeight="10" 
                refX="9.0" refY="5.0" orient="auto"
                markerUnits="userSpaceOnUse">
            <polygon points="0,0 10,5.0 0,10" fill="#64748b"/>
        </marker>

        <marker id="arrow-64748b-10" markerWidth="10" markerHeight="10" 
                refX="9.0" refY="5.0" orient="auto"
                markerUnits="userSpaceOnUse">
            <polygon points="0,0 10,5.0 0,10" fill="#64748b"/>
        </marker></defs>
  <rect x="0.00" y="0.00" width="600.00" height="400.00" fill="white" stroke="none" stroke-width="0" rx="0"  />
  <text x="300.00" y="30.00" font-family="Inter, sans-serif" font-size="16" font-weight="bold" fill="#1e293b" text-anchor="middle" dominant-baseline="middle">Ejemplo 1: Solución (5, 2)</text>
  <line x1="120.00" y1="340.00" x2="120.00" y2="60.00" stroke="#e2e8f0" stroke-width="0.5"  />
  <line x1="180.00" y1="340.00" x2="180.00" y2="60.00" stroke="#e2e8f0" stroke-width="0.5"  />
  <line x1="240.00" y1="340.00" x2="240.00" y2="60.00" stroke="#e2e8f0" stroke-width="0.5"  />
  <line x1="300.00" y1="340.00" x2="300.00" y2="60.00" stroke="#e2e8f0" stroke-width="0.5"  />
  <line x1="360.00" y1="340.00" x2="360.00" y2="60.00" stroke="#e2e8f0" stroke-width="0.5"  />
  <line x1="420.00" y1="340.00" x2="420.00" y2="60.00" stroke="#e2e8f0" stroke-width="0.5"  />
  <line x1="480.00" y1="340.00" x2="480.00" y2="60.00" stroke="#e2e8f0" stroke-width="0.5"  />
  <line x1="540.00" y1="340.00" x2="540.00" y2="60.00" stroke="#e2e8f0" stroke-width="0.5"  />
  <line x1="60.00" y1="305.00" x2="540.00" y2="305.00" stroke="#e2e8f0" stroke-width="0.5"  />
  <line x1="60.00" y1="270.00" x2="540.00" y2="270.00" stroke="#e2e8f0" stroke-width="0.5"  />
  <line x1="60.00" y1="235.00" x2="540.00" y2="235.00" stroke="#e2e8f0" stroke-width="0.5"  />
  <line x1="60.00" y1="200.00" x2="540.00" y2="200.00" stroke="#e2e8f0" stroke-width="0.5"  />
  <line x1="60.00" y1="165.00" x2="540.00" y2="165.00" stroke="#e2e8f0" stroke-width="0.5"  />
  <line x1="60.00" y1="130.00" x2="540.00" y2="130.00" stroke="#e2e8f0" stroke-width="0.5"  />
  <line x1="60.00" y1="95.00" x2="540.00" y2="95.00" stroke="#e2e8f0" stroke-width="0.5"  />
  <line x1="60.00" y1="60.00" x2="540.00" y2="60.00" stroke="#e2e8f0" stroke-width="0.5"  />
  <line x1="60.00" y1="340.00" x2="540.00" y2="340.00" stroke="#64748b" stroke-width="2"  marker-end="url(#arrow-64748b-10)"/>
  <line x1="60.00" y1="340.00" x2="60.00" y2="60.00" stroke="#64748b" stroke-width="2"  marker-end="url(#arrow-64748b-10)"/>
  <text x="535.00" y="360.00" font-family="Inter, sans-serif" font-size="14" font-weight="bold" fill="#64748b" text-anchor="middle" dominant-baseline="middle">x</text>
  <text x="40.00" y="70.00" font-family="Inter, sans-serif" font-size="14" font-weight="bold" fill="#64748b" text-anchor="middle" dominant-baseline="middle">y</text>
  <line x1="120.00" y1="335.00" x2="120.00" y2="345.00" stroke="#64748b" stroke-width="1"  />
  <text x="120.00" y="358.00" font-family="Inter, sans-serif" font-size="11" font-weight="normal" fill="#64748b" text-anchor="middle" dominant-baseline="middle">1</text>
  <line x1="180.00" y1="335.00" x2="180.00" y2="345.00" stroke="#64748b" stroke-width="1"  />
  <text x="180.00" y="358.00" font-family="Inter, sans-serif" font-size="11" font-weight="normal" fill="#64748b" text-anchor="middle" dominant-baseline="middle">2</text>
  <line x1="240.00" y1="335.00" x2="240.00" y2="345.00" stroke="#64748b" stroke-width="1"  />
  <text x="240.00" y="358.00" font-family="Inter, sans-serif" font-size="11" font-weight="normal" fill="#64748b" text-anchor="middle" dominant-baseline="middle">3</text>
  <line x1="300.00" y1="335.00" x2="300.00" y2="345.00" stroke="#64748b" stroke-width="1"  />
  <text x="300.00" y="358.00" font-family="Inter, sans-serif" font-size="11" font-weight="normal" fill="#64748b" text-anchor="middle" dominant-baseline="middle">4</text>
  <line x1="360.00" y1="335.00" x2="360.00" y2="345.00" stroke="#64748b" stroke-width="1"  />
  <text x="360.00" y="358.00" font-family="Inter, sans-serif" font-size="11" font-weight="normal" fill="#64748b" text-anchor="middle" dominant-baseline="middle">5</text>
  <line x1="420.00" y1="335.00" x2="420.00" y2="345.00" stroke="#64748b" stroke-width="1"  />
  <text x="420.00" y="358.00" font-family="Inter, sans-serif" font-size="11" font-weight="normal" fill="#64748b" text-anchor="middle" dominant-baseline="middle">6</text>
  <line x1="480.00" y1="335.00" x2="480.00" y2="345.00" stroke="#64748b" stroke-width="1"  />
  <text x="480.00" y="358.00" font-family="Inter, sans-serif" font-size="11" font-weight="normal" fill="#64748b" text-anchor="middle" dominant-baseline="middle">7</text>
  <line x1="540.00" y1="335.00" x2="540.00" y2="345.00" stroke="#64748b" stroke-width="1"  />
  <text x="540.00" y="358.00" font-family="Inter, sans-serif" font-size="11" font-weight="normal" fill="#64748b" text-anchor="middle" dominant-baseline="middle">8</text>
  <line x1="55.00" y1="305.00" x2="65.00" y2="305.00" stroke="#64748b" stroke-width="1"  />
  <text x="45.00" y="305.00" font-family="Inter, sans-serif" font-size="11" font-weight="normal" fill="#64748b" text-anchor="end" dominant-baseline="middle">1</text>
  <line x1="55.00" y1="270.00" x2="65.00" y2="270.00" stroke="#64748b" stroke-width="1"  />
  <text x="45.00" y="270.00" font-family="Inter, sans-serif" font-size="11" font-weight="normal" fill="#64748b" text-anchor="end" dominant-baseline="middle">2</text>
  <line x1="55.00" y1="235.00" x2="65.00" y2="235.00" stroke="#64748b" stroke-width="1"  />
  <text x="45.00" y="235.00" font-family="Inter, sans-serif" font-size="11" font-weight="normal" fill="#64748b" text-anchor="end" dominant-baseline="middle">3</text>
  <line x1="55.00" y1="200.00" x2="65.00" y2="200.00" stroke="#64748b" stroke-width="1"  />
  <text x="45.00" y="200.00" font-family="Inter, sans-serif" font-size="11" font-weight="normal" fill="#64748b" text-anchor="end" dominant-baseline="middle">4</text>
  <line x1="55.00" y1="165.00" x2="65.00" y2="165.00" stroke="#64748b" stroke-width="1"  />
  <text x="45.00" y="165.00" font-family="Inter, sans-serif" font-size="11" font-weight="normal" fill="#64748b" text-anchor="end" dominant-baseline="middle">5</text>
  <line x1="55.00" y1="130.00" x2="65.00" y2="130.00" stroke="#64748b" stroke-width="1"  />
  <text x="45.00" y="130.00" font-family="Inter, sans-serif" font-size="11" font-weight="normal" fill="#64748b" text-anchor="end" dominant-baseline="middle">6</text>
  <line x1="55.00" y1="95.00" x2="65.00" y2="95.00" stroke="#64748b" stroke-width="1"  />
  <text x="45.00" y="95.00" font-family="Inter, sans-serif" font-size="11" font-weight="normal" fill="#64748b" text-anchor="end" dominant-baseline="middle">7</text>
  <line x1="55.00" y1="60.00" x2="65.00" y2="60.00" stroke="#64748b" stroke-width="1"  />
  <text x="45.00" y="60.00" font-family="Inter, sans-serif" font-size="11" font-weight="normal" fill="#64748b" text-anchor="end" dominant-baseline="middle">8</text>
  <text x="48.00" y="355.00" font-family="Inter, sans-serif" font-size="11" font-weight="normal" fill="#64748b" text-anchor="middle" dominant-baseline="middle">O</text>
  <polyline points="60.00,95.00 64.85,97.83 69.70,100.66 74.55,103.48 79.39,106.31 84.24,109.14 89.09,111.97 93.94,114.80 98.79,117.63 103.64,120.45 108.48,123.28 113.33,126.11 118.18,128.94 123.03,131.77 127.88,134.60 132.73,137.42 137.58,140.25 142.42,143.08 147.27,145.91 152.12,148.74 156.97,151.57 161.82,154.39 166.67,157.22 171.52,160.05 176.36,162.88 181.21,165.71 186.06,168.54 190.91,171.36 195.76,174.19 200.61,177.02 205.45,179.85 210.30,182.68 215.15,185.51 220.00,188.33 224.85,191.16 229.70,193.99 234.55,196.82 239.39,199.65 244.24,202.47 249.09,205.30 253.94,208.13 258.79,210.96 263.64,213.79 268.48,216.62 273.33,219.44 278.18,222.27 283.03,225.10 287.88,227.93 292.73,230.76 297.58,233.59 302.42,236.41 307.27,239.24 312.12,242.07 316.97,244.90 321.82,247.73 326.67,250.56 331.52,253.38 336.36,256.21 341.21,259.04 346.06,261.87 350.91,264.70 355.76,267.53 360.61,270.35 365.45,273.18 370.30,276.01 375.15,278.84 380.00,281.67 384.85,284.49 389.70,287.32 394.55,290.15 399.39,292.98 404.24,295.81 409.09,298.64 413.94,301.46 418.79,304.29 423.64,307.12 428.48,309.95 433.33,312.78 438.18,315.61 443.03,318.43 447.88,321.26 452.73,324.09 457.58,326.92 462.42,329.75 467.27,332.58 472.12,335.40 476.97,338.23 481.82,341.06 486.67,343.89 491.52,346.72 496.36,349.55 501.21,352.37 506.06,355.20 510.91,358.03 515.76,360.86 520.61,363.69 525.45,366.52 530.30,369.34 535.15,372.17 540.00,375.00" fill="none" stroke="#3b82f6" stroke-width="3"  stroke-linecap="round" stroke-linejoin="round"/>
  <polyline points="60.00,445.00 64.85,442.17 69.70,439.34 74.55,436.52 79.39,433.69 84.24,430.86 89.09,428.03 93.94,425.20 98.79,422.37 103.64,419.55 108.48,416.72 113.33,413.89 118.18,411.06 123.03,408.23 127.88,405.40 132.73,402.58 137.58,399.75 142.42,396.92 147.27,394.09 152.12,391.26 156.97,388.43 161.82,385.61 166.67,382.78 171.52,379.95 176.36,377.12 181.21,374.29 186.06,371.46 190.91,368.64 195.76,365.81 200.61,362.98 205.45,360.15 210.30,357.32 215.15,354.49 220.00,351.67 224.85,348.84 229.70,346.01 234.55,343.18 239.39,340.35 244.24,337.53 249.09,334.70 253.94,331.87 258.79,329.04 263.64,326.21 268.48,323.38 273.33,320.56 278.18,317.73 283.03,314.90 287.88,312.07 292.73,309.24 297.58,306.41 302.42,303.59 307.27,300.76 312.12,297.93 316.97,295.10 321.82,292.27 326.67,289.44 331.52,286.62 336.36,283.79 341.21,280.96 346.06,278.13 350.91,275.30 355.76,272.47 360.61,269.65 365.45,266.82 370.30,263.99 375.15,261.16 380.00,258.33 384.85,255.51 389.70,252.68 394.55,249.85 399.39,247.02 404.24,244.19 409.09,241.36 413.94,238.54 418.79,235.71 423.64,232.88 428.48,230.05 433.33,227.22 438.18,224.39 443.03,221.57 447.88,218.74 452.73,215.91 457.58,213.08 462.42,210.25 467.27,207.42 472.12,204.60 476.97,201.77 481.82,198.94 486.67,196.11 491.52,193.28 496.36,190.45 501.21,187.63 506.06,184.80 510.91,181.97 515.76,179.14 520.61,176.31 525.45,173.48 530.30,170.66 535.15,167.83 540.00,165.00" fill="none" stroke="#22c55e" stroke-width="3"  stroke-linecap="round" stroke-linejoin="round"/>
  <circle cx="360.00" cy="270.00" r="9" fill="white" />
  <circle cx="360.00" cy="270.00" r="5" fill="#ef4444" stroke="white" stroke-width="2"/>
  <rect x="331.00" y="232.00" width="58.00" height="26.00" fill="white" stroke="#ef4444" stroke-width="1.5" rx="6"  />
  <text x="360.00" y="249.00" font-family="Inter, sans-serif" font-size="12" font-weight="bold" fill="#ef4444" text-anchor="middle" dominant-baseline="middle">(5, 2)</text>
  <rect x="420.00" y="60.00" width="160.00" height="70.00" fill="white" stroke="#e2e8f0" stroke-width="0" rx="8"  />
  <line x1="435.00" y1="80.00" x2="465.00" y2="80.00" stroke="#3b82f6" stroke-width="3"  />
  <text x="475.00" y="84.00" font-family="Inter, sans-serif" font-size="11" font-weight="normal" fill="#1e293b" text-anchor="start" dominant-baseline="middle">x + y = 7</text>
  <line x1="435.00" y1="100.00" x2="465.00" y2="100.00" stroke="#22c55e" stroke-width="3"  />
  <text x="475.00" y="104.00" font-family="Inter, sans-serif" font-size="11" font-weight="normal" fill="#1e293b" text-anchor="start" dominant-baseline="middle">x - y = 3</text>
</svg>