<svg xmlns="http://www.w3.org/2000/svg" viewBox="0 0 600 400">
  <defs>
        <marker id="arrow-64748b-10" markerWidth="10" markerHeight="10" 
                refX="9.0" refY="5.0" orient="auto"
                markerUnits="userSpaceOnUse">
            <polygon points="0,0 10,5.0 0,10" fill="#64748b"/>
        </marker>

        <marker id="arrow-64748b-10" markerWidth="10" markerHeight="10" 
                refX="9.0" refY="5.0" orient="auto"
                markerUnits="userSpaceOnUse">
            <polygon points="0,0 10,5.0 0,10" fill="#64748b"/>
        </marker></defs>
  <rect x="0.00" y="0.00" width="600.00" height="400.00" fill="white" stroke="none" stroke-width="0" rx="0"  />
  <text x="300.00" y="30.00" font-family="Inter, sans-serif" font-size="16" font-weight="bold" fill="#1e293b" text-anchor="middle" dominant-baseline="middle">Ejemplo 5: Incompatible</text>
  <line x1="60.00" y1="340.00" x2="60.00" y2="60.00" stroke="#e2e8f0" stroke-width="0.5"  />
  <line x1="120.00" y1="340.00" x2="120.00" y2="60.00" stroke="#e2e8f0" stroke-width="0.5"  />
  <line x1="240.00" y1="340.00" x2="240.00" y2="60.00" stroke="#e2e8f0" stroke-width="0.5"  />
  <line x1="300.00" y1="340.00" x2="300.00" y2="60.00" stroke="#e2e8f0" stroke-width="0.5"  />
  <line x1="360.00" y1="340.00" x2="360.00" y2="60.00" stroke="#e2e8f0" stroke-width="0.5"  />
  <line x1="420.00" y1="340.00" x2="420.00" y2="60.00" stroke="#e2e8f0" stroke-width="0.5"  />
  <line x1="480.00" y1="340.00" x2="480.00" y2="60.00" stroke="#e2e8f0" stroke-width="0.5"  />
  <line x1="540.00" y1="340.00" x2="540.00" y2="60.00" stroke="#e2e8f0" stroke-width="0.5"  />
  <line x1="60.00" y1="340.00" x2="540.00" y2="340.00" stroke="#e2e8f0" stroke-width="0.5"  />
  <line x1="60.00" y1="316.67" x2="540.00" y2="316.67" stroke="#e2e8f0" stroke-width="0.5"  />
  <line x1="60.00" y1="293.33" x2="540.00" y2="293.33" stroke="#e2e8f0" stroke-width="0.5"  />
  <line x1="60.00" y1="270.00" x2="540.00" y2="270.00" stroke="#e2e8f0" stroke-width="0.5"  />
  <line x1="60.00" y1="223.33" x2="540.00" y2="223.33" stroke="#e2e8f0" stroke-width="0.5"  />
  <line x1="60.00" y1="200.00" x2="540.00" y2="200.00" stroke="#e2e8f0" stroke-width="0.5"  />
  <line x1="60.00" y1="176.67" x2="540.00" y2="176.67" stroke="#e2e8f0" stroke-width="0.5"  />
  <line x1="60.00" y1="153.33" x2="540.00" y2="153.33" stroke="#e2e8f0" stroke-width="0.5"  />
  <line x1="60.00" y1="130.00" x2="540.00" y2="130.00" stroke="#e2e8f0" stroke-width="0.5"  />
  <line x1="60.00" y1="106.67" x2="540.00" y2="106.67" stroke="#e2e8f0" stroke-width="0.5"  />
  <line x1="60.00" y1="83.33" x2="540.00" y2="83.33" stroke="#e2e8f0" stroke-width="0.5"  />
  <line x1="60.00" y1="60.00" x2="540.00" y2="60.00" stroke="#e2e8f0" stroke-width="0.5"  />
  <line x1="60.00" y1="246.67" x2="540.00" y2="246.67" stroke="#64748b" stroke-width="2"  marker-end="url(#arrow-64748b-10)"/>
  <line x1="180.00" y1="340.00" x2="180.00" y2="60.00" stroke="#64748b" stroke-width="2"  marker-end="url(#arrow-64748b-10)"/>
  <text x="535.00" y="266.67" font-family="Inter, sans-serif" font-size="14" font-weight="bold" fill="#64748b" text-anchor="middle" dominant-baseline="middle">x</text>
  <text x="160.00" y="70.00" font-family="Inter, sans-serif" font-size="14" font-weight="bold" fill="#64748b" text-anchor="middle" dominant-baseline="middle">y</text>
  <line x1="60.00" y1="241.67" x2="60.00" y2="251.67" stroke="#64748b" stroke-width="1"  />
  <text x="60.00" y="264.67" font-family="Inter, sans-serif" font-size="11" font-weight="normal" fill="#64748b" text-anchor="middle" dominant-baseline="middle">-2</text>
  <line x1="120.00" y1="241.67" x2="120.00" y2="251.67" stroke="#64748b" stroke-width="1"  />
  <text x="120.00" y="264.67" font-family="Inter, sans-serif" font-size="11" font-weight="normal" fill="#64748b" text-anchor="middle" dominant-baseline="middle">-1</text>
  <line x1="240.00" y1="241.67" x2="240.00" y2="251.67" stroke="#64748b" stroke-width="1"  />
  <text x="240.00" y="264.67" font-family="Inter, sans-serif" font-size="11" font-weight="normal" fill="#64748b" text-anchor="middle" dominant-baseline="middle">1</text>
  <line x1="300.00" y1="241.67" x2="300.00" y2="251.67" stroke="#64748b" stroke-width="1"  />
  <text x="300.00" y="264.67" font-family="Inter, sans-serif" font-size="11" font-weight="normal" fill="#64748b" text-anchor="middle" dominant-baseline="middle">2</text>
  <line x1="360.00" y1="241.67" x2="360.00" y2="251.67" stroke="#64748b" stroke-width="1"  />
  <text x="360.00" y="264.67" font-family="Inter, sans-serif" font-size="11" font-weight="normal" fill="#64748b" text-anchor="middle" dominant-baseline="middle">3</text>
  <line x1="420.00" y1="241.67" x2="420.00" y2="251.67" stroke="#64748b" stroke-width="1"  />
  <text x="420.00" y="264.67" font-family="Inter, sans-serif" font-size="11" font-weight="normal" fill="#64748b" text-anchor="middle" dominant-baseline="middle">4</text>
  <line x1="480.00" y1="241.67" x2="480.00" y2="251.67" stroke="#64748b" stroke-width="1"  />
  <text x="480.00" y="264.67" font-family="Inter, sans-serif" font-size="11" font-weight="normal" fill="#64748b" text-anchor="middle" dominant-baseline="middle">5</text>
  <line x1="540.00" y1="241.67" x2="540.00" y2="251.67" stroke="#64748b" stroke-width="1"  />
  <text x="540.00" y="264.67" font-family="Inter, sans-serif" font-size="11" font-weight="normal" fill="#64748b" text-anchor="middle" dominant-baseline="middle">6</text>
  <line x1="175.00" y1="340.00" x2="185.00" y2="340.00" stroke="#64748b" stroke-width="1"  />
  <text x="165.00" y="340.00" font-family="Inter, sans-serif" font-size="11" font-weight="normal" fill="#64748b" text-anchor="end" dominant-baseline="middle">-4</text>
  <line x1="175.00" y1="316.67" x2="185.00" y2="316.67" stroke="#64748b" stroke-width="1"  />
  <text x="165.00" y="316.67" font-family="Inter, sans-serif" font-size="11" font-weight="normal" fill="#64748b" text-anchor="end" dominant-baseline="middle">-3</text>
  <line x1="175.00" y1="293.33" x2="185.00" y2="293.33" stroke="#64748b" stroke-width="1"  />
  <text x="165.00" y="293.33" font-family="Inter, sans-serif" font-size="11" font-weight="normal" fill="#64748b" text-anchor="end" dominant-baseline="middle">-2</text>
  <line x1="175.00" y1="270.00" x2="185.00" y2="270.00" stroke="#64748b" stroke-width="1"  />
  <text x="165.00" y="270.00" font-family="Inter, sans-serif" font-size="11" font-weight="normal" fill="#64748b" text-anchor="end" dominant-baseline="middle">-1</text>
  <line x1="175.00" y1="223.33" x2="185.00" y2="223.33" stroke="#64748b" stroke-width="1"  />
  <text x="165.00" y="223.33" font-family="Inter, sans-serif" font-size="11" font-weight="normal" fill="#64748b" text-anchor="end" dominant-baseline="middle">1</text>
  <line x1="175.00" y1="200.00" x2="185.00" y2="200.00" stroke="#64748b" stroke-width="1"  />
  <text x="165.00" y="200.00" font-family="Inter, sans-serif" font-size="11" font-weight="normal" fill="#64748b" text-anchor="end" dominant-baseline="middle">2</text>
  <line x1="175.00" y1="176.67" x2="185.00" y2="176.67" stroke="#64748b" stroke-width="1"  />
  <text x="165.00" y="176.67" font-family="Inter, sans-serif" font-size="11" font-weight="normal" fill="#64748b" text-anchor="end" dominant-baseline="middle">3</text>
  <line x1="175.00" y1="153.33" x2="185.00" y2="153.33" stroke="#64748b" stroke-width="1"  />
  <text x="165.00" y="153.33" font-family="Inter, sans-serif" font-size="11" font-weight="normal" fill="#64748b" text-anchor="end" dominant-baseline="middle">4</text>
  <line x1="175.00" y1="130.00" x2="185.00" y2="130.00" stroke="#64748b" stroke-width="1"  />
  <text x="165.00" y="130.00" font-family="Inter, sans-serif" font-size="11" font-weight="normal" fill="#64748b" text-anchor="end" dominant-baseline="middle">5</text>
  <line x1="175.00" y1="106.67" x2="185.00" y2="106.67" stroke="#64748b" stroke-width="1"  />
  <text x="165.00" y="106.67" font-family="Inter, sans-serif" font-size="11" font-weight="normal" fill="#64748b" text-anchor="end" dominant-baseline="middle">6</text>
  <line x1="175.00" y1="83.33" x2="185.00" y2="83.33" stroke="#64748b" stroke-width="1"  />
  <text x="165.00" y="83.33" font-family="Inter, sans-serif" font-size="11" font-weight="normal" fill="#64748b" text-anchor="end" dominant-baseline="middle">7</text>
  <line x1="175.00" y1="60.00" x2="185.00" y2="60.00" stroke="#64748b" stroke-width="1"  />
  <text x="165.00" y="60.00" font-family="Inter, sans-serif" font-size="11" font-weight="normal" fill="#64748b" text-anchor="end" dominant-baseline="middle">8</text>
  <text x="168.00" y="261.67" font-family="Inter, sans-serif" font-size="11" font-weight="normal" fill="#64748b" text-anchor="middle" dominant-baseline="middle">O</text>
  <polyline points="60.00,433.33 64.85,429.56 69.70,425.79 74.55,422.02 79.39,418.25 84.24,414.48 89.09,410.71 93.94,406.94 98.79,403.16 103.64,399.39 108.48,395.62 113.33,391.85 118.18,388.08 123.03,384.31 127.88,380.54 132.73,376.77 137.58,373.00 142.42,369.23 147.27,365.45 152.12,361.68 156.97,357.91 161.82,354.14 166.67,350.37 171.52,346.60 176.36,342.83 181.21,339.06 186.06,335.29 190.91,331.52 195.76,327.74 200.61,323.97 205.45,320.20 210.30,316.43 215.15,312.66 220.00,308.89 224.85,305.12 229.70,301.35 234.55,297.58 239.39,293.80 244.24,290.03 249.09,286.26 253.94,282.49 258.79,278.72 263.64,274.95 268.48,271.18 273.33,267.41 278.18,263.64 283.03,259.87 287.88,256.09 292.73,252.32 297.58,248.55 302.42,244.78 307.27,241.01 312.12,237.24 316.97,233.47 321.82,229.70 326.67,225.93 331.52,222.15 336.36,218.38 341.21,214.61 346.06,210.84 350.91,207.07 355.76,203.30 360.61,199.53 365.45,195.76 370.30,191.99 375.15,188.22 380.00,184.44 384.85,180.67 389.70,176.90 394.55,173.13 399.39,169.36 404.24,165.59 409.09,161.82 413.94,158.05 418.79,154.28 423.64,150.51 428.48,146.73 433.33,142.96 438.18,139.19 443.03,135.42 447.88,131.65 452.73,127.88 457.58,124.11 462.42,120.34 467.27,116.57 472.12,112.79 476.97,109.02 481.82,105.25 486.67,101.48 491.52,97.71 496.36,93.94 501.21,90.17 506.06,86.40 510.91,82.63 515.76,78.86 520.61,75.08 525.45,71.31 530.30,67.54 535.15,63.77 540.00,60.00" fill="none" stroke="#3b82f6" stroke-width="3"  stroke-linecap="round" stroke-linejoin="round"/>
  <polyline points="60.00,246.67 64.85,242.90 69.70,239.12 74.55,235.35 79.39,231.58 84.24,227.81 89.09,224.04 93.94,220.27 98.79,216.50 103.64,212.73 108.48,208.96 113.33,205.19 118.18,201.41 123.03,197.64 127.88,193.87 132.73,190.10 137.58,186.33 142.42,182.56 147.27,178.79 152.12,175.02 156.97,171.25 161.82,167.47 166.67,163.70 171.52,159.93 176.36,156.16 181.21,152.39 186.06,148.62 190.91,144.85 195.76,141.08 200.61,137.31 205.45,133.54 210.30,129.76 215.15,125.99 220.00,122.22 224.85,118.45 229.70,114.68 234.55,110.91 239.39,107.14 244.24,103.37 249.09,99.60 253.94,95.82 258.79,92.05 263.64,88.28 268.48,84.51 273.33,80.74 278.18,76.97 283.03,73.20 287.88,69.43 292.73,65.66 297.58,61.89 302.42,58.11 307.27,54.34 312.12,50.57 316.97,46.80 321.82,43.03 326.67,39.26 331.52,35.49 336.36,31.72 341.21,27.95 346.06,24.18 350.91,20.40 355.76,16.63 360.61,12.86 365.45,9.09 370.30,5.32 375.15,1.55 380.00,-2.22 384.85,-5.99 389.70,-9.76 394.55,-13.54 399.39,-17.31 404.24,-21.08 409.09,-24.85 413.94,-28.62 418.79,-32.39 423.64,-36.16 428.48,-39.93 433.33,-43.70 438.18,-47.47 443.03,-51.25 447.88,-55.02" fill="none" stroke="#22c55e" stroke-width="3"  stroke-linecap="round" stroke-linejoin="round"/>
  <rect x="420.00" y="60.00" width="160.00" height="70.00" fill="white" stroke="#e2e8f0" stroke-width="0" rx="8"  />
  <line x1="435.00" y1="80.00" x2="465.00" y2="80.00" stroke="#3b82f6" stroke-width="3"  />
  <text x="475.00" y="84.00" font-family="Inter, sans-serif" font-size="11" font-weight="normal" fill="#1e293b" text-anchor="start" dominant-baseline="middle">2x - y = 4</text>
  <line x1="435.00" y1="100.00" x2="465.00" y2="100.00" stroke="#22c55e" stroke-width="3"  />
  <text x="475.00" y="104.00" font-family="Inter, sans-serif" font-size="11" font-weight="normal" fill="#1e293b" text-anchor="start" dominant-baseline="middle">-4x + 2y = 8</text>
</svg>