<svg xmlns="http://www.w3.org/2000/svg" viewBox="0 0 600 400">
  <defs>
        <marker id="arrow-64748b-10" markerWidth="10" markerHeight="10" 
                refX="9.0" refY="5.0" orient="auto"
                markerUnits="userSpaceOnUse">
            <polygon points="0,0 10,5.0 0,10" fill="#64748b"/>
        </marker>

        <marker id="arrow-64748b-10" markerWidth="10" markerHeight="10" 
                refX="9.0" refY="5.0" orient="auto"
                markerUnits="userSpaceOnUse">
            <polygon points="0,0 10,5.0 0,10" fill="#64748b"/>
        </marker></defs>
  <rect x="0.00" y="0.00" width="600.00" height="400.00" fill="white" stroke="none" stroke-width="0" rx="0"  />
  <text x="300.00" y="30.00" font-family="Inter, sans-serif" font-size="16" font-weight="bold" fill="#1e293b" text-anchor="middle" dominant-baseline="middle">2. Sistema Incompatible</text>
  <line x1="60.00" y1="340.00" x2="60.00" y2="60.00" stroke="#e2e8f0" stroke-width="0.5"  />
  <line x1="108.00" y1="340.00" x2="108.00" y2="60.00" stroke="#e2e8f0" stroke-width="0.5"  />
  <line x1="156.00" y1="340.00" x2="156.00" y2="60.00" stroke="#e2e8f0" stroke-width="0.5"  />
  <line x1="204.00" y1="340.00" x2="204.00" y2="60.00" stroke="#e2e8f0" stroke-width="0.5"  />
  <line x1="300.00" y1="340.00" x2="300.00" y2="60.00" stroke="#e2e8f0" stroke-width="0.5"  />
  <line x1="348.00" y1="340.00" x2="348.00" y2="60.00" stroke="#e2e8f0" stroke-width="0.5"  />
  <line x1="396.00" y1="340.00" x2="396.00" y2="60.00" stroke="#e2e8f0" stroke-width="0.5"  />
  <line x1="444.00" y1="340.00" x2="444.00" y2="60.00" stroke="#e2e8f0" stroke-width="0.5"  />
  <line x1="492.00" y1="340.00" x2="492.00" y2="60.00" stroke="#e2e8f0" stroke-width="0.5"  />
  <line x1="540.00" y1="340.00" x2="540.00" y2="60.00" stroke="#e2e8f0" stroke-width="0.5"  />
  <line x1="60.00" y1="340.00" x2="540.00" y2="340.00" stroke="#e2e8f0" stroke-width="0.5"  />
  <line x1="60.00" y1="312.00" x2="540.00" y2="312.00" stroke="#e2e8f0" stroke-width="0.5"  />
  <line x1="60.00" y1="284.00" x2="540.00" y2="284.00" stroke="#e2e8f0" stroke-width="0.5"  />
  <line x1="60.00" y1="256.00" x2="540.00" y2="256.00" stroke="#e2e8f0" stroke-width="0.5"  />
  <line x1="60.00" y1="200.00" x2="540.00" y2="200.00" stroke="#e2e8f0" stroke-width="0.5"  />
  <line x1="60.00" y1="172.00" x2="540.00" y2="172.00" stroke="#e2e8f0" stroke-width="0.5"  />
  <line x1="60.00" y1="144.00" x2="540.00" y2="144.00" stroke="#e2e8f0" stroke-width="0.5"  />
  <line x1="60.00" y1="116.00" x2="540.00" y2="116.00" stroke="#e2e8f0" stroke-width="0.5"  />
  <line x1="60.00" y1="88.00" x2="540.00" y2="88.00" stroke="#e2e8f0" stroke-width="0.5"  />
  <line x1="60.00" y1="60.00" x2="540.00" y2="60.00" stroke="#e2e8f0" stroke-width="0.5"  />
  <line x1="60.00" y1="228.00" x2="540.00" y2="228.00" stroke="#64748b" stroke-width="2"  marker-end="url(#arrow-64748b-10)"/>
  <line x1="252.00" y1="340.00" x2="252.00" y2="60.00" stroke="#64748b" stroke-width="2"  marker-end="url(#arrow-64748b-10)"/>
  <text x="535.00" y="248.00" font-family="Inter, sans-serif" font-size="14" font-weight="bold" fill="#64748b" text-anchor="middle" dominant-baseline="middle">x</text>
  <text x="232.00" y="70.00" font-family="Inter, sans-serif" font-size="14" font-weight="bold" fill="#64748b" text-anchor="middle" dominant-baseline="middle">y</text>
  <line x1="60.00" y1="223.00" x2="60.00" y2="233.00" stroke="#64748b" stroke-width="1"  />
  <text x="60.00" y="246.00" font-family="Inter, sans-serif" font-size="11" font-weight="normal" fill="#64748b" text-anchor="middle" dominant-baseline="middle">-4</text>
  <line x1="108.00" y1="223.00" x2="108.00" y2="233.00" stroke="#64748b" stroke-width="1"  />
  <text x="108.00" y="246.00" font-family="Inter, sans-serif" font-size="11" font-weight="normal" fill="#64748b" text-anchor="middle" dominant-baseline="middle">-3</text>
  <line x1="156.00" y1="223.00" x2="156.00" y2="233.00" stroke="#64748b" stroke-width="1"  />
  <text x="156.00" y="246.00" font-family="Inter, sans-serif" font-size="11" font-weight="normal" fill="#64748b" text-anchor="middle" dominant-baseline="middle">-2</text>
  <line x1="204.00" y1="223.00" x2="204.00" y2="233.00" stroke="#64748b" stroke-width="1"  />
  <text x="204.00" y="246.00" font-family="Inter, sans-serif" font-size="11" font-weight="normal" fill="#64748b" text-anchor="middle" dominant-baseline="middle">-1</text>
  <line x1="300.00" y1="223.00" x2="300.00" y2="233.00" stroke="#64748b" stroke-width="1"  />
  <text x="300.00" y="246.00" font-family="Inter, sans-serif" font-size="11" font-weight="normal" fill="#64748b" text-anchor="middle" dominant-baseline="middle">1</text>
  <line x1="348.00" y1="223.00" x2="348.00" y2="233.00" stroke="#64748b" stroke-width="1"  />
  <text x="348.00" y="246.00" font-family="Inter, sans-serif" font-size="11" font-weight="normal" fill="#64748b" text-anchor="middle" dominant-baseline="middle">2</text>
  <line x1="396.00" y1="223.00" x2="396.00" y2="233.00" stroke="#64748b" stroke-width="1"  />
  <text x="396.00" y="246.00" font-family="Inter, sans-serif" font-size="11" font-weight="normal" fill="#64748b" text-anchor="middle" dominant-baseline="middle">3</text>
  <line x1="444.00" y1="223.00" x2="444.00" y2="233.00" stroke="#64748b" stroke-width="1"  />
  <text x="444.00" y="246.00" font-family="Inter, sans-serif" font-size="11" font-weight="normal" fill="#64748b" text-anchor="middle" dominant-baseline="middle">4</text>
  <line x1="492.00" y1="223.00" x2="492.00" y2="233.00" stroke="#64748b" stroke-width="1"  />
  <text x="492.00" y="246.00" font-family="Inter, sans-serif" font-size="11" font-weight="normal" fill="#64748b" text-anchor="middle" dominant-baseline="middle">5</text>
  <line x1="540.00" y1="223.00" x2="540.00" y2="233.00" stroke="#64748b" stroke-width="1"  />
  <text x="540.00" y="246.00" font-family="Inter, sans-serif" font-size="11" font-weight="normal" fill="#64748b" text-anchor="middle" dominant-baseline="middle">6</text>
  <line x1="247.00" y1="340.00" x2="257.00" y2="340.00" stroke="#64748b" stroke-width="1"  />
  <text x="237.00" y="340.00" font-family="Inter, sans-serif" font-size="11" font-weight="normal" fill="#64748b" text-anchor="end" dominant-baseline="middle">-4</text>
  <line x1="247.00" y1="312.00" x2="257.00" y2="312.00" stroke="#64748b" stroke-width="1"  />
  <text x="237.00" y="312.00" font-family="Inter, sans-serif" font-size="11" font-weight="normal" fill="#64748b" text-anchor="end" dominant-baseline="middle">-3</text>
  <line x1="247.00" y1="284.00" x2="257.00" y2="284.00" stroke="#64748b" stroke-width="1"  />
  <text x="237.00" y="284.00" font-family="Inter, sans-serif" font-size="11" font-weight="normal" fill="#64748b" text-anchor="end" dominant-baseline="middle">-2</text>
  <line x1="247.00" y1="256.00" x2="257.00" y2="256.00" stroke="#64748b" stroke-width="1"  />
  <text x="237.00" y="256.00" font-family="Inter, sans-serif" font-size="11" font-weight="normal" fill="#64748b" text-anchor="end" dominant-baseline="middle">-1</text>
  <line x1="247.00" y1="200.00" x2="257.00" y2="200.00" stroke="#64748b" stroke-width="1"  />
  <text x="237.00" y="200.00" font-family="Inter, sans-serif" font-size="11" font-weight="normal" fill="#64748b" text-anchor="end" dominant-baseline="middle">1</text>
  <line x1="247.00" y1="172.00" x2="257.00" y2="172.00" stroke="#64748b" stroke-width="1"  />
  <text x="237.00" y="172.00" font-family="Inter, sans-serif" font-size="11" font-weight="normal" fill="#64748b" text-anchor="end" dominant-baseline="middle">2</text>
  <line x1="247.00" y1="144.00" x2="257.00" y2="144.00" stroke="#64748b" stroke-width="1"  />
  <text x="237.00" y="144.00" font-family="Inter, sans-serif" font-size="11" font-weight="normal" fill="#64748b" text-anchor="end" dominant-baseline="middle">3</text>
  <line x1="247.00" y1="116.00" x2="257.00" y2="116.00" stroke="#64748b" stroke-width="1"  />
  <text x="237.00" y="116.00" font-family="Inter, sans-serif" font-size="11" font-weight="normal" fill="#64748b" text-anchor="end" dominant-baseline="middle">4</text>
  <line x1="247.00" y1="88.00" x2="257.00" y2="88.00" stroke="#64748b" stroke-width="1"  />
  <text x="237.00" y="88.00" font-family="Inter, sans-serif" font-size="11" font-weight="normal" fill="#64748b" text-anchor="end" dominant-baseline="middle">5</text>
  <line x1="247.00" y1="60.00" x2="257.00" y2="60.00" stroke="#64748b" stroke-width="1"  />
  <text x="237.00" y="60.00" font-family="Inter, sans-serif" font-size="11" font-weight="normal" fill="#64748b" text-anchor="end" dominant-baseline="middle">6</text>
  <text x="240.00" y="243.00" font-family="Inter, sans-serif" font-size="11" font-weight="normal" fill="#64748b" text-anchor="middle" dominant-baseline="middle">O</text>
  <polyline points="60.00,228.00 64.85,226.59 69.70,225.17 74.55,223.76 79.39,222.34 84.24,220.93 89.09,219.52 93.94,218.10 98.79,216.69 103.64,215.27 108.48,213.86 113.33,212.44 118.18,211.03 123.03,209.62 127.88,208.20 132.73,206.79 137.58,205.37 142.42,203.96 147.27,202.55 152.12,201.13 156.97,199.72 161.82,198.30 166.67,196.89 171.52,195.47 176.36,194.06 181.21,192.65 186.06,191.23 190.91,189.82 195.76,188.40 200.61,186.99 205.45,185.58 210.30,184.16 215.15,182.75 220.00,181.33 224.85,179.92 229.70,178.51 234.55,177.09 239.39,175.68 244.24,174.26 249.09,172.85 253.94,171.43 258.79,170.02 263.64,168.61 268.48,167.19 273.33,165.78 278.18,164.36 283.03,162.95 287.88,161.54 292.73,160.12 297.58,158.71 302.42,157.29 307.27,155.88 312.12,154.46 316.97,153.05 321.82,151.64 326.67,150.22 331.52,148.81 336.36,147.39 341.21,145.98 346.06,144.57 350.91,143.15 355.76,141.74 360.61,140.32 365.45,138.91 370.30,137.49 375.15,136.08 380.00,134.67 384.85,133.25 389.70,131.84 394.55,130.42 399.39,129.01 404.24,127.60 409.09,126.18 413.94,124.77 418.79,123.35 423.64,121.94 428.48,120.53 433.33,119.11 438.18,117.70 443.03,116.28 447.88,114.87 452.73,113.45 457.58,112.04 462.42,110.63 467.27,109.21 472.12,107.80 476.97,106.38 481.82,104.97 486.67,103.56 491.52,102.14 496.36,100.73 501.21,99.31 506.06,97.90 510.91,96.48 515.76,95.07 520.61,93.66 525.45,92.24 530.30,90.83 535.15,89.41 540.00,88.00" fill="none" stroke="#3b82f6" stroke-width="3"  stroke-linecap="round" stroke-linejoin="round"/>
  <polyline points="60.00,312.00 64.85,310.59 69.70,309.17 74.55,307.76 79.39,306.34 84.24,304.93 89.09,303.52 93.94,302.10 98.79,300.69 103.64,299.27 108.48,297.86 113.33,296.44 118.18,295.03 123.03,293.62 127.88,292.20 132.73,290.79 137.58,289.37 142.42,287.96 147.27,286.55 152.12,285.13 156.97,283.72 161.82,282.30 166.67,280.89 171.52,279.47 176.36,278.06 181.21,276.65 186.06,275.23 190.91,273.82 195.76,272.40 200.61,270.99 205.45,269.58 210.30,268.16 215.15,266.75 220.00,265.33 224.85,263.92 229.70,262.51 234.55,261.09 239.39,259.68 244.24,258.26 249.09,256.85 253.94,255.43 258.79,254.02 263.64,252.61 268.48,251.19 273.33,249.78 278.18,248.36 283.03,246.95 287.88,245.54 292.73,244.12 297.58,242.71 302.42,241.29 307.27,239.88 312.12,238.46 316.97,237.05 321.82,235.64 326.67,234.22 331.52,232.81 336.36,231.39 341.21,229.98 346.06,228.57 350.91,227.15 355.76,225.74 360.61,224.32 365.45,222.91 370.30,221.49 375.15,220.08 380.00,218.67 384.85,217.25 389.70,215.84 394.55,214.42 399.39,213.01 404.24,211.60 409.09,210.18 413.94,208.77 418.79,207.35 423.64,205.94 428.48,204.53 433.33,203.11 438.18,201.70 443.03,200.28 447.88,198.87 452.73,197.45 457.58,196.04 462.42,194.63 467.27,193.21 472.12,191.80 476.97,190.38 481.82,188.97 486.67,187.56 491.52,186.14 496.36,184.73 501.21,183.31 506.06,181.90 510.91,180.48 515.76,179.07 520.61,177.66 525.45,176.24 530.30,174.83 535.15,173.41 540.00,172.00" fill="none" stroke="#22c55e" stroke-width="3"  stroke-linecap="round" stroke-linejoin="round"/>
  <rect x="420.00" y="60.00" width="160.00" height="70.00" fill="white" stroke="#e2e8f0" stroke-width="0" rx="8"  />
  <line x1="435.00" y1="80.00" x2="465.00" y2="80.00" stroke="#3b82f6" stroke-width="3"  />
  <text x="475.00" y="84.00" font-family="Inter, sans-serif" font-size="11" font-weight="normal" fill="#1e293b" text-anchor="start" dominant-baseline="middle">x - 2y = -4</text>
  <line x1="435.00" y1="100.00" x2="465.00" y2="100.00" stroke="#22c55e" stroke-width="3"  />
  <text x="475.00" y="104.00" font-family="Inter, sans-serif" font-size="11" font-weight="normal" fill="#1e293b" text-anchor="start" dominant-baseline="middle">x - 2y = 2</text>
</svg>