<svg xmlns="http://www.w3.org/2000/svg" viewBox="0 0 600 400">
  <defs>
        <marker id="arrow-64748b-10" markerWidth="10" markerHeight="10" 
                refX="9.0" refY="5.0" orient="auto"
                markerUnits="userSpaceOnUse">
            <polygon points="0,0 10,5.0 0,10" fill="#64748b"/>
        </marker>

        <marker id="arrow-64748b-10" markerWidth="10" markerHeight="10" 
                refX="9.0" refY="5.0" orient="auto"
                markerUnits="userSpaceOnUse">
            <polygon points="0,0 10,5.0 0,10" fill="#64748b"/>
        </marker></defs>
  <rect x="0.00" y="0.00" width="600.00" height="400.00" fill="white" stroke="none" stroke-width="0" rx="0"  />
  <text x="300.00" y="30.00" font-family="Inter, sans-serif" font-size="16" font-weight="bold" fill="#1e293b" text-anchor="middle" dominant-baseline="middle">Ejemplo 2: Solución (2.8, 1.8)</text>
  <line x1="60.00" y1="340.00" x2="60.00" y2="60.00" stroke="#e2e8f0" stroke-width="0.5"  />
  <line x1="197.14" y1="340.00" x2="197.14" y2="60.00" stroke="#e2e8f0" stroke-width="0.5"  />
  <line x1="265.71" y1="340.00" x2="265.71" y2="60.00" stroke="#e2e8f0" stroke-width="0.5"  />
  <line x1="334.29" y1="340.00" x2="334.29" y2="60.00" stroke="#e2e8f0" stroke-width="0.5"  />
  <line x1="402.86" y1="340.00" x2="402.86" y2="60.00" stroke="#e2e8f0" stroke-width="0.5"  />
  <line x1="471.43" y1="340.00" x2="471.43" y2="60.00" stroke="#e2e8f0" stroke-width="0.5"  />
  <line x1="540.00" y1="340.00" x2="540.00" y2="60.00" stroke="#e2e8f0" stroke-width="0.5"  />
  <line x1="60.00" y1="340.00" x2="540.00" y2="340.00" stroke="#e2e8f0" stroke-width="0.5"  />
  <line x1="60.00" y1="260.00" x2="540.00" y2="260.00" stroke="#e2e8f0" stroke-width="0.5"  />
  <line x1="60.00" y1="220.00" x2="540.00" y2="220.00" stroke="#e2e8f0" stroke-width="0.5"  />
  <line x1="60.00" y1="180.00" x2="540.00" y2="180.00" stroke="#e2e8f0" stroke-width="0.5"  />
  <line x1="60.00" y1="140.00" x2="540.00" y2="140.00" stroke="#e2e8f0" stroke-width="0.5"  />
  <line x1="60.00" y1="100.00" x2="540.00" y2="100.00" stroke="#e2e8f0" stroke-width="0.5"  />
  <line x1="60.00" y1="60.00" x2="540.00" y2="60.00" stroke="#e2e8f0" stroke-width="0.5"  />
  <line x1="60.00" y1="300.00" x2="540.00" y2="300.00" stroke="#64748b" stroke-width="2"  marker-end="url(#arrow-64748b-10)"/>
  <line x1="128.57" y1="340.00" x2="128.57" y2="60.00" stroke="#64748b" stroke-width="2"  marker-end="url(#arrow-64748b-10)"/>
  <text x="535.00" y="320.00" font-family="Inter, sans-serif" font-size="14" font-weight="bold" fill="#64748b" text-anchor="middle" dominant-baseline="middle">x</text>
  <text x="108.57" y="70.00" font-family="Inter, sans-serif" font-size="14" font-weight="bold" fill="#64748b" text-anchor="middle" dominant-baseline="middle">y</text>
  <line x1="60.00" y1="295.00" x2="60.00" y2="305.00" stroke="#64748b" stroke-width="1"  />
  <text x="60.00" y="318.00" font-family="Inter, sans-serif" font-size="11" font-weight="normal" fill="#64748b" text-anchor="middle" dominant-baseline="middle">-1</text>
  <line x1="197.14" y1="295.00" x2="197.14" y2="305.00" stroke="#64748b" stroke-width="1"  />
  <text x="197.14" y="318.00" font-family="Inter, sans-serif" font-size="11" font-weight="normal" fill="#64748b" text-anchor="middle" dominant-baseline="middle">1</text>
  <line x1="265.71" y1="295.00" x2="265.71" y2="305.00" stroke="#64748b" stroke-width="1"  />
  <text x="265.71" y="318.00" font-family="Inter, sans-serif" font-size="11" font-weight="normal" fill="#64748b" text-anchor="middle" dominant-baseline="middle">2</text>
  <line x1="334.29" y1="295.00" x2="334.29" y2="305.00" stroke="#64748b" stroke-width="1"  />
  <text x="334.29" y="318.00" font-family="Inter, sans-serif" font-size="11" font-weight="normal" fill="#64748b" text-anchor="middle" dominant-baseline="middle">3</text>
  <line x1="402.86" y1="295.00" x2="402.86" y2="305.00" stroke="#64748b" stroke-width="1"  />
  <text x="402.86" y="318.00" font-family="Inter, sans-serif" font-size="11" font-weight="normal" fill="#64748b" text-anchor="middle" dominant-baseline="middle">4</text>
  <line x1="471.43" y1="295.00" x2="471.43" y2="305.00" stroke="#64748b" stroke-width="1"  />
  <text x="471.43" y="318.00" font-family="Inter, sans-serif" font-size="11" font-weight="normal" fill="#64748b" text-anchor="middle" dominant-baseline="middle">5</text>
  <line x1="540.00" y1="295.00" x2="540.00" y2="305.00" stroke="#64748b" stroke-width="1"  />
  <text x="540.00" y="318.00" font-family="Inter, sans-serif" font-size="11" font-weight="normal" fill="#64748b" text-anchor="middle" dominant-baseline="middle">6</text>
  <line x1="123.57" y1="340.00" x2="133.57" y2="340.00" stroke="#64748b" stroke-width="1"  />
  <text x="113.57" y="340.00" font-family="Inter, sans-serif" font-size="11" font-weight="normal" fill="#64748b" text-anchor="end" dominant-baseline="middle">-1</text>
  <line x1="123.57" y1="260.00" x2="133.57" y2="260.00" stroke="#64748b" stroke-width="1"  />
  <text x="113.57" y="260.00" font-family="Inter, sans-serif" font-size="11" font-weight="normal" fill="#64748b" text-anchor="end" dominant-baseline="middle">1</text>
  <line x1="123.57" y1="220.00" x2="133.57" y2="220.00" stroke="#64748b" stroke-width="1"  />
  <text x="113.57" y="220.00" font-family="Inter, sans-serif" font-size="11" font-weight="normal" fill="#64748b" text-anchor="end" dominant-baseline="middle">2</text>
  <line x1="123.57" y1="180.00" x2="133.57" y2="180.00" stroke="#64748b" stroke-width="1"  />
  <text x="113.57" y="180.00" font-family="Inter, sans-serif" font-size="11" font-weight="normal" fill="#64748b" text-anchor="end" dominant-baseline="middle">3</text>
  <line x1="123.57" y1="140.00" x2="133.57" y2="140.00" stroke="#64748b" stroke-width="1"  />
  <text x="113.57" y="140.00" font-family="Inter, sans-serif" font-size="11" font-weight="normal" fill="#64748b" text-anchor="end" dominant-baseline="middle">4</text>
  <line x1="123.57" y1="100.00" x2="133.57" y2="100.00" stroke="#64748b" stroke-width="1"  />
  <text x="113.57" y="100.00" font-family="Inter, sans-serif" font-size="11" font-weight="normal" fill="#64748b" text-anchor="end" dominant-baseline="middle">5</text>
  <line x1="123.57" y1="60.00" x2="133.57" y2="60.00" stroke="#64748b" stroke-width="1"  />
  <text x="113.57" y="60.00" font-family="Inter, sans-serif" font-size="11" font-weight="normal" fill="#64748b" text-anchor="end" dominant-baseline="middle">6</text>
  <text x="116.57" y="315.00" font-family="Inter, sans-serif" font-size="11" font-weight="normal" fill="#64748b" text-anchor="middle" dominant-baseline="middle">O</text>
  <polyline points="60.00,0.00 64.85,4.24 69.70,8.48 74.55,12.73 79.39,16.97 84.24,21.21 89.09,25.45 93.94,29.70 98.79,33.94 103.64,38.18 108.48,42.42 113.33,46.67 118.18,50.91 123.03,55.15 127.88,59.39 132.73,63.64 137.58,67.88 142.42,72.12 147.27,76.36 152.12,80.61 156.97,84.85 161.82,89.09 166.67,93.33 171.52,97.58 176.36,101.82 181.21,106.06 186.06,110.30 190.91,114.55 195.76,118.79 200.61,123.03 205.45,127.27 210.30,131.52 215.15,135.76 220.00,140.00 224.85,144.24 229.70,148.48 234.55,152.73 239.39,156.97 244.24,161.21 249.09,165.45 253.94,169.70 258.79,173.94 263.64,178.18 268.48,182.42 273.33,186.67 278.18,190.91 283.03,195.15 287.88,199.39 292.73,203.64 297.58,207.88 302.42,212.12 307.27,216.36 312.12,220.61 316.97,224.85 321.82,229.09 326.67,233.33 331.52,237.58 336.36,241.82 341.21,246.06 346.06,250.30 350.91,254.55 355.76,258.79 360.61,263.03 365.45,267.27 370.30,271.52 375.15,275.76 380.00,280.00 384.85,284.24 389.70,288.48 394.55,292.73 399.39,296.97 404.24,301.21 409.09,305.45 413.94,309.70 418.79,313.94 423.64,318.18 428.48,322.42 433.33,326.67 438.18,330.91 443.03,335.15 447.88,339.39 452.73,343.64 457.58,347.88 462.42,352.12 467.27,356.36 472.12,360.61 476.97,364.85 481.82,369.09 486.67,373.33 491.52,377.58 496.36,381.82 501.21,386.06 506.06,390.30 510.91,394.55 515.76,398.79 520.61,403.03 525.45,407.27 530.30,411.52 535.15,415.76 540.00,420.00" fill="none" stroke="#3b82f6" stroke-width="3"  stroke-linecap="round" stroke-linejoin="round"/>
  <polyline points="60.00,380.00 64.85,377.17 69.70,374.34 74.55,371.52 79.39,368.69 84.24,365.86 89.09,363.03 93.94,360.20 98.79,357.37 103.64,354.55 108.48,351.72 113.33,348.89 118.18,346.06 123.03,343.23 127.88,340.40 132.73,337.58 137.58,334.75 142.42,331.92 147.27,329.09 152.12,326.26 156.97,323.43 161.82,320.61 166.67,317.78 171.52,314.95 176.36,312.12 181.21,309.29 186.06,306.46 190.91,303.64 195.76,300.81 200.61,297.98 205.45,295.15 210.30,292.32 215.15,289.49 220.00,286.67 224.85,283.84 229.70,281.01 234.55,278.18 239.39,275.35 244.24,272.53 249.09,269.70 253.94,266.87 258.79,264.04 263.64,261.21 268.48,258.38 273.33,255.56 278.18,252.73 283.03,249.90 287.88,247.07 292.73,244.24 297.58,241.41 302.42,238.59 307.27,235.76 312.12,232.93 316.97,230.10 321.82,227.27 326.67,224.44 331.52,221.62 336.36,218.79 341.21,215.96 346.06,213.13 350.91,210.30 355.76,207.47 360.61,204.65 365.45,201.82 370.30,198.99 375.15,196.16 380.00,193.33 384.85,190.51 389.70,187.68 394.55,184.85 399.39,182.02 404.24,179.19 409.09,176.36 413.94,173.54 418.79,170.71 423.64,167.88 428.48,165.05 433.33,162.22 438.18,159.39 443.03,156.57 447.88,153.74 452.73,150.91 457.58,148.08 462.42,145.25 467.27,142.42 472.12,139.60 476.97,136.77 481.82,133.94 486.67,131.11 491.52,128.28 496.36,125.45 501.21,122.63 506.06,119.80 510.91,116.97 515.76,114.14 520.61,111.31 525.45,108.48 530.30,105.66 535.15,102.83 540.00,100.00" fill="none" stroke="#22c55e" stroke-width="3"  stroke-linecap="round" stroke-linejoin="round"/>
  <circle cx="320.57" cy="228.00" r="9" fill="white" />
  <circle cx="320.57" cy="228.00" r="5" fill="#ef4444" stroke="white" stroke-width="2"/>
  <rect x="277.57" y="190.00" width="86.00" height="26.00" fill="white" stroke="#ef4444" stroke-width="1.5" rx="6"  />
  <text x="320.57" y="207.00" font-family="Inter, sans-serif" font-size="12" font-weight="bold" fill="#ef4444" text-anchor="middle" dominant-baseline="middle">(2.8, 1.8)</text>
  <rect x="420.00" y="60.00" width="160.00" height="70.00" fill="white" stroke="#e2e8f0" stroke-width="0" rx="8"  />
  <line x1="435.00" y1="80.00" x2="465.00" y2="80.00" stroke="#3b82f6" stroke-width="3"  />
  <text x="475.00" y="84.00" font-family="Inter, sans-serif" font-size="11" font-weight="normal" fill="#1e293b" text-anchor="start" dominant-baseline="middle">3x + 2y = 12</text>
  <line x1="435.00" y1="100.00" x2="465.00" y2="100.00" stroke="#22c55e" stroke-width="3"  />
  <text x="475.00" y="104.00" font-family="Inter, sans-serif" font-size="11" font-weight="normal" fill="#1e293b" text-anchor="start" dominant-baseline="middle">x - y = 1</text>
</svg>