<svg xmlns="http://www.w3.org/2000/svg" viewBox="0 0 600 450" 
style="max-width: 100%; height: auto; font-family: Inter, system-ui, sans-serif;">

  <style>
    .wave-path {
      stroke-dasharray: 3000;
      stroke-dashoffset: 3000;
      animation: drawWave 2s ease-out forwards;
    }
    .marker-group { opacity: 0; animation: fadeIn 0.5s ease-out 2s forwards; }
    .label-group { opacity: 0; animation: fadeIn 0.5s ease-out 2.3s forwards; }
    .annotation-group { opacity: 0; animation: fadeIn 0.5s ease-out 2.5s forwards; }
    @keyframes drawWave { to { stroke-dashoffset: 0; } }
    @keyframes fadeIn { to { opacity: 1; } }
  </style>

  <rect width="600" height="450" fill="#f8fafc" rx="8"/>
  <text x="300.0" y="25" text-anchor="middle" font-size="16" font-weight="bold" fill="#1e293b">Identificar Partes: y = 3x - 5</text>
  <g class="grid">
    <line x1="50.0" y1="50" x2="50.0" y2="400" stroke="#e2e8f0" stroke-dasharray="4,4"/>
    <line x1="121.4" y1="50" x2="121.4" y2="400" stroke="#e2e8f0" stroke-dasharray="4,4"/>
    <line x1="192.9" y1="50" x2="192.9" y2="400" stroke="#e2e8f0" stroke-dasharray="4,4"/>
    <line x1="264.3" y1="50" x2="264.3" y2="400" stroke="#e2e8f0" stroke-dasharray="4,4"/>
    <line x1="335.7" y1="50" x2="335.7" y2="400" stroke="#e2e8f0" stroke-dasharray="4,4"/>
    <line x1="407.1" y1="50" x2="407.1" y2="400" stroke="#e2e8f0" stroke-dasharray="4,4"/>
    <line x1="478.6" y1="50" x2="478.6" y2="400" stroke="#e2e8f0" stroke-dasharray="4,4"/>
    <line x1="550.0" y1="50" x2="550.0" y2="400" stroke="#e2e8f0" stroke-dasharray="4,4"/>
    <line x1="50" y1="400.0" x2="550" y2="400.0" stroke="#e2e8f0" stroke-dasharray="4,4"/>
    <line x1="50" y1="356.2" x2="550" y2="356.2" stroke="#e2e8f0" stroke-dasharray="4,4"/>
    <line x1="50" y1="312.5" x2="550" y2="312.5" stroke="#e2e8f0" stroke-dasharray="4,4"/>
    <line x1="50" y1="268.8" x2="550" y2="268.8" stroke="#e2e8f0" stroke-dasharray="4,4"/>
    <line x1="50" y1="181.2" x2="550" y2="181.2" stroke="#e2e8f0" stroke-dasharray="4,4"/>
    <line x1="50" y1="137.5" x2="550" y2="137.5" stroke="#e2e8f0" stroke-dasharray="4,4"/>
    <line x1="50" y1="93.8" x2="550" y2="93.8" stroke="#e2e8f0" stroke-dasharray="4,4"/>
    <line x1="50" y1="50.0" x2="550" y2="50.0" stroke="#e2e8f0" stroke-dasharray="4,4"/>
  </g>
  <g class="axes">
    <line x1="50" y1="225.0" x2="550" y2="225.0" stroke="#374151" stroke-width="2"/>
    <polygon points="550,225.0 542,221.0 542,229.0" fill="#374151"/>
    <line x1="192.9" y1="50" x2="192.9" y2="400" stroke="#374151" stroke-width="2"/>
    <polygon points="192.9,50 188.9,58 196.9,58" fill="#374151"/>
    <text x="550" y="215.0" text-anchor="end" font-size="14" font-weight="bold" fill="#374151">x</text>
    <text x="182.9" y="50" text-anchor="end" font-size="14" font-weight="bold" fill="#374151">y</text>
    <line x1="50.0" y1="221.0" x2="50.0" y2="229.0" stroke="#374151" stroke-width="1.5"/>
    <text x="50.0" y="245.0" text-anchor="middle" font-size="12" fill="#374151">-2</text>
    <line x1="121.4" y1="221.0" x2="121.4" y2="229.0" stroke="#374151" stroke-width="1.5"/>
    <text x="121.4" y="245.0" text-anchor="middle" font-size="12" fill="#374151">-1</text>
    <line x1="264.3" y1="221.0" x2="264.3" y2="229.0" stroke="#374151" stroke-width="1.5"/>
    <text x="264.3" y="245.0" text-anchor="middle" font-size="12" fill="#374151">1</text>
    <line x1="335.7" y1="221.0" x2="335.7" y2="229.0" stroke="#374151" stroke-width="1.5"/>
    <text x="335.7" y="245.0" text-anchor="middle" font-size="12" fill="#374151">2</text>
    <line x1="407.1" y1="221.0" x2="407.1" y2="229.0" stroke="#374151" stroke-width="1.5"/>
    <text x="407.1" y="245.0" text-anchor="middle" font-size="12" fill="#374151">3</text>
    <line x1="478.6" y1="221.0" x2="478.6" y2="229.0" stroke="#374151" stroke-width="1.5"/>
    <text x="478.6" y="245.0" text-anchor="middle" font-size="12" fill="#374151">4</text>
    <line x1="550.0" y1="221.0" x2="550.0" y2="229.0" stroke="#374151" stroke-width="1.5"/>
    <text x="550.0" y="245.0" text-anchor="middle" font-size="12" fill="#374151">5</text>
    <line x1="188.9" y1="400.0" x2="196.9" y2="400.0" stroke="#374151" stroke-width="1.5"/>
    <text x="180.9" y="404.0" text-anchor="end" font-size="12" fill="#374151">-8</text>
    <line x1="188.9" y1="356.2" x2="196.9" y2="356.2" stroke="#374151" stroke-width="1.5"/>
    <text x="180.9" y="360.2" text-anchor="end" font-size="12" fill="#374151">-6</text>
    <line x1="188.9" y1="312.5" x2="196.9" y2="312.5" stroke="#374151" stroke-width="1.5"/>
    <text x="180.9" y="316.5" text-anchor="end" font-size="12" fill="#374151">-4</text>
    <line x1="188.9" y1="268.8" x2="196.9" y2="268.8" stroke="#374151" stroke-width="1.5"/>
    <text x="180.9" y="272.8" text-anchor="end" font-size="12" fill="#374151">-2</text>
    <line x1="188.9" y1="181.2" x2="196.9" y2="181.2" stroke="#374151" stroke-width="1.5"/>
    <text x="180.9" y="185.2" text-anchor="end" font-size="12" fill="#374151">2</text>
    <line x1="188.9" y1="137.5" x2="196.9" y2="137.5" stroke="#374151" stroke-width="1.5"/>
    <text x="180.9" y="141.5" text-anchor="end" font-size="12" fill="#374151">4</text>
    <line x1="188.9" y1="93.8" x2="196.9" y2="93.8" stroke="#374151" stroke-width="1.5"/>
    <text x="180.9" y="97.8" text-anchor="end" font-size="12" fill="#374151">6</text>
    <line x1="188.9" y1="50.0" x2="196.9" y2="50.0" stroke="#374151" stroke-width="1.5"/>
    <text x="180.9" y="54.0" text-anchor="end" font-size="12" fill="#374151">8</text>
  </g>
  <path id="func-0" class="wave-path" d="M 122.50 399.02 L 125.00 396.72 L 127.50 394.42 L 130.00 392.12 L 132.50 389.83 L 135.00 387.53 L 137.50 385.23 L 140.00 382.94 L 142.50 380.64 L 145.00 378.34 L 147.50 376.05 L 150.00 373.75 L 152.50 371.45 L 155.00 369.16 L 157.50 366.86 L 160.00 364.56 L 162.50 362.27 L 165.00 359.97 L 167.50 357.67 L 170.00 355.38 L 172.50 353.08 L 175.00 350.78 L 177.50 348.48 L 180.00 346.19 L 182.50 343.89 L 185.00 341.59 L 187.50 339.30 L 190.00 337.00 L 192.50 334.70 L 195.00 332.41 L 197.50 330.11 L 200.00 327.81 L 202.50 325.52 L 205.00 323.22 L 207.50 320.92 L 210.00 318.62 L 212.50 316.33 L 215.00 314.03 L 217.50 311.73 L 220.00 309.44 L 222.50 307.14 L 225.00 304.84 L 227.50 302.55 L 230.00 300.25 L 232.50 297.95 L 235.00 295.66 L 237.50 293.36 L 240.00 291.06 L 242.50 288.77 L 245.00 286.47 L 247.50 284.17 L 250.00 281.88 L 252.50 279.58 L 255.00 277.28 L 257.50 274.98 L 260.00 272.69 L 262.50 270.39 L 265.00 268.09 L 267.50 265.80 L 270.00 263.50 L 272.50 261.20 L 275.00 258.91 L 277.50 256.61 L 280.00 254.31 L 282.50 252.02 L 285.00 249.72 L 287.50 247.42 L 290.00 245.12 L 292.50 242.83 L 295.00 240.53 L 297.50 238.23 L 300.00 235.94 L 302.50 233.64 L 305.00 231.34 L 307.50 229.05 L 310.00 226.75 L 312.50 224.45 L 315.00 222.16 L 317.50 219.86 L 320.00 217.56 L 322.50 215.27 L 325.00 212.97 L 327.50 210.67 L 330.00 208.37 L 332.50 206.08 L 335.00 203.78 L 337.50 201.48 L 340.00 199.19 L 342.50 196.89 L 345.00 194.59 L 347.50 192.30 L 350.00 190.00 L 352.50 187.70 L 355.00 185.41 L 357.50 183.11 L 360.00 180.81 L 362.50 178.52 L 365.00 176.22 L 367.50 173.92 L 370.00 171.62 L 372.50 169.33 L 375.00 167.03 L 377.50 164.73 L 380.00 162.44 L 382.50 160.14 L 385.00 157.84 L 387.50 155.55 L 390.00 153.25 L 392.50 150.95 L 395.00 148.66 L 397.50 146.36 L 400.00 144.06 L 402.50 141.77 L 405.00 139.47 L 407.50 137.17 L 410.00 134.87 L 412.50 132.58 L 415.00 130.28 L 417.50 127.98 L 420.00 125.69 L 422.50 123.39 L 425.00 121.09 L 427.50 118.80 L 430.00 116.50 L 432.50 114.20 L 435.00 111.91 L 437.50 109.61 L 440.00 107.31 L 442.50 105.02 L 445.00 102.72 L 447.50 100.42 L 450.00 98.12 L 452.50 95.83 L 455.00 93.53 L 457.50 91.23 L 460.00 88.94 L 462.50 86.64 L 465.00 84.34 L 467.50 82.05 L 470.00 79.75 L 472.50 77.45 L 475.00 75.16 L 477.50 72.86 L 480.00 70.56 L 482.50 68.27 L 485.00 65.97 L 487.50 63.67 L 490.00 61.37 L 492.50 59.08 L 495.00 56.78 L 497.50 54.48 L 500.00 52.19" fill="none" stroke="#3b82f6" stroke-width="3" stroke-linecap="round" stroke-linejoin="round"/>
  <g class="marker-group">
    <circle cx="192.9" cy="334.4" r="6" fill="#ef4444" stroke="white" stroke-width="2"/>
  </g>
  <g class="label-group">
    <rect x="157.85714285714286" y="326.375" width="100" height="16" fill="white" fill-opacity="0.9" rx="3"/>
    <text x="207.9" y="338.4" text-anchor="start" font-size="11" font-weight="bold" fill="#ef4444">b = -5</text>
  </g>
  <g class="annotation-group">
    <text x="407.1" y="312.5" text-anchor="middle" font-size="16" font-weight="bold" fill="#1e293b">m = 3</text>
    <text x="407.1" y="326.5" text-anchor="middle" font-size="16" font-weight="bold" fill="#1e293b">b = -5</text>
  </g>
</svg>