<svg xmlns="http://www.w3.org/2000/svg" viewBox="0 0 600 450" 
style="max-width: 100%; height: auto; font-family: Inter, system-ui, sans-serif;">

  <style>
    .wave-path {
      stroke-dasharray: 3000;
      stroke-dashoffset: 3000;
      animation: drawWave 2s ease-out forwards;
    }
    .marker-group { opacity: 0; animation: fadeIn 0.5s ease-out 2s forwards; }
    .label-group { opacity: 0; animation: fadeIn 0.5s ease-out 2.3s forwards; }
    .annotation-group { opacity: 0; animation: fadeIn 0.5s ease-out 2.5s forwards; }
    @keyframes drawWave { to { stroke-dashoffset: 0; } }
    @keyframes fadeIn { to { opacity: 1; } }
  </style>

  <rect width="600" height="450" fill="#f8fafc" rx="8"/>
  <text x="300.0" y="25" text-anchor="middle" font-size="16" font-weight="bold" fill="#1e293b">El Significado de la Pendiente (m = 2)</text>
  <g class="grid">
    <line x1="50.0" y1="50" x2="50.0" y2="400" stroke="#e2e8f0" stroke-dasharray="4,4"/>
    <line x1="150.0" y1="50" x2="150.0" y2="400" stroke="#e2e8f0" stroke-dasharray="4,4"/>
    <line x1="250.0" y1="50" x2="250.0" y2="400" stroke="#e2e8f0" stroke-dasharray="4,4"/>
    <line x1="350.0" y1="50" x2="350.0" y2="400" stroke="#e2e8f0" stroke-dasharray="4,4"/>
    <line x1="450.0" y1="50" x2="450.0" y2="400" stroke="#e2e8f0" stroke-dasharray="4,4"/>
    <line x1="550.0" y1="50" x2="550.0" y2="400" stroke="#e2e8f0" stroke-dasharray="4,4"/>
    <line x1="50" y1="400.0" x2="550" y2="400.0" stroke="#e2e8f0" stroke-dasharray="4,4"/>
    <line x1="50" y1="322.2" x2="550" y2="322.2" stroke="#e2e8f0" stroke-dasharray="4,4"/>
    <line x1="50" y1="283.3" x2="550" y2="283.3" stroke="#e2e8f0" stroke-dasharray="4,4"/>
    <line x1="50" y1="244.4" x2="550" y2="244.4" stroke="#e2e8f0" stroke-dasharray="4,4"/>
    <line x1="50" y1="205.6" x2="550" y2="205.6" stroke="#e2e8f0" stroke-dasharray="4,4"/>
    <line x1="50" y1="166.7" x2="550" y2="166.7" stroke="#e2e8f0" stroke-dasharray="4,4"/>
    <line x1="50" y1="127.8" x2="550" y2="127.8" stroke="#e2e8f0" stroke-dasharray="4,4"/>
    <line x1="50" y1="88.9" x2="550" y2="88.9" stroke="#e2e8f0" stroke-dasharray="4,4"/>
    <line x1="50" y1="50.0" x2="550" y2="50.0" stroke="#e2e8f0" stroke-dasharray="4,4"/>
  </g>
  <g class="axes">
    <line x1="50" y1="361.1" x2="550" y2="361.1" stroke="#374151" stroke-width="2"/>
    <polygon points="550,361.1 542,357.1 542,365.1" fill="#374151"/>
    <line x1="150.0" y1="50" x2="150.0" y2="400" stroke="#374151" stroke-width="2"/>
    <polygon points="150.0,50 146.0,58 154.0,58" fill="#374151"/>
    <text x="550" y="351.1" text-anchor="end" font-size="14" font-weight="bold" fill="#374151">x</text>
    <text x="140.0" y="50" text-anchor="end" font-size="14" font-weight="bold" fill="#374151">y</text>
    <line x1="50.0" y1="357.1" x2="50.0" y2="365.1" stroke="#374151" stroke-width="1.5"/>
    <text x="50.0" y="381.1" text-anchor="middle" font-size="12" fill="#374151">-1</text>
    <line x1="250.0" y1="357.1" x2="250.0" y2="365.1" stroke="#374151" stroke-width="1.5"/>
    <text x="250.0" y="381.1" text-anchor="middle" font-size="12" fill="#374151">1</text>
    <line x1="350.0" y1="357.1" x2="350.0" y2="365.1" stroke="#374151" stroke-width="1.5"/>
    <text x="350.0" y="381.1" text-anchor="middle" font-size="12" fill="#374151">2</text>
    <line x1="450.0" y1="357.1" x2="450.0" y2="365.1" stroke="#374151" stroke-width="1.5"/>
    <text x="450.0" y="381.1" text-anchor="middle" font-size="12" fill="#374151">3</text>
    <line x1="550.0" y1="357.1" x2="550.0" y2="365.1" stroke="#374151" stroke-width="1.5"/>
    <text x="550.0" y="381.1" text-anchor="middle" font-size="12" fill="#374151">4</text>
    <line x1="146.0" y1="400.0" x2="154.0" y2="400.0" stroke="#374151" stroke-width="1.5"/>
    <text x="138.0" y="404.0" text-anchor="end" font-size="12" fill="#374151">-1</text>
    <line x1="146.0" y1="322.2" x2="154.0" y2="322.2" stroke="#374151" stroke-width="1.5"/>
    <text x="138.0" y="326.2" text-anchor="end" font-size="12" fill="#374151">1</text>
    <line x1="146.0" y1="283.3" x2="154.0" y2="283.3" stroke="#374151" stroke-width="1.5"/>
    <text x="138.0" y="287.3" text-anchor="end" font-size="12" fill="#374151">2</text>
    <line x1="146.0" y1="244.4" x2="154.0" y2="244.4" stroke="#374151" stroke-width="1.5"/>
    <text x="138.0" y="248.4" text-anchor="end" font-size="12" fill="#374151">3</text>
    <line x1="146.0" y1="205.6" x2="154.0" y2="205.6" stroke="#374151" stroke-width="1.5"/>
    <text x="138.0" y="209.6" text-anchor="end" font-size="12" fill="#374151">4</text>
    <line x1="146.0" y1="166.7" x2="154.0" y2="166.7" stroke="#374151" stroke-width="1.5"/>
    <text x="138.0" y="170.7" text-anchor="end" font-size="12" fill="#374151">5</text>
    <line x1="146.0" y1="127.8" x2="154.0" y2="127.8" stroke="#374151" stroke-width="1.5"/>
    <text x="138.0" y="131.8" text-anchor="end" font-size="12" fill="#374151">6</text>
    <line x1="146.0" y1="88.9" x2="154.0" y2="88.9" stroke="#374151" stroke-width="1.5"/>
    <text x="138.0" y="92.9" text-anchor="end" font-size="12" fill="#374151">7</text>
    <line x1="146.0" y1="50.0" x2="154.0" y2="50.0" stroke="#374151" stroke-width="1.5"/>
    <text x="138.0" y="54.0" text-anchor="end" font-size="12" fill="#374151">8</text>
  </g>
  <path id="func-0" class="wave-path" d="M 100.00 400.00 L 102.50 398.06 L 105.00 396.11 L 107.50 394.17 L 110.00 392.22 L 112.50 390.28 L 115.00 388.33 L 117.50 386.39 L 120.00 384.44 L 122.50 382.50 L 125.00 380.56 L 127.50 378.61 L 130.00 376.67 L 132.50 374.72 L 135.00 372.78 L 137.50 370.83 L 140.00 368.89 L 142.50 366.94 L 145.00 365.00 L 147.50 363.06 L 150.00 361.11 L 152.50 359.17 L 155.00 357.22 L 157.50 355.28 L 160.00 353.33 L 162.50 351.39 L 165.00 349.44 L 167.50 347.50 L 170.00 345.56 L 172.50 343.61 L 175.00 341.67 L 177.50 339.72 L 180.00 337.78 L 182.50 335.83 L 185.00 333.89 L 187.50 331.94 L 190.00 330.00 L 192.50 328.06 L 195.00 326.11 L 197.50 324.17 L 200.00 322.22 L 202.50 320.28 L 205.00 318.33 L 207.50 316.39 L 210.00 314.44 L 212.50 312.50 L 215.00 310.56 L 217.50 308.61 L 220.00 306.67 L 222.50 304.72 L 225.00 302.78 L 227.50 300.83 L 230.00 298.89 L 232.50 296.94 L 235.00 295.00 L 237.50 293.06 L 240.00 291.11 L 242.50 289.17 L 245.00 287.22 L 247.50 285.28 L 250.00 283.33 L 252.50 281.39 L 255.00 279.44 L 257.50 277.50 L 260.00 275.56 L 262.50 273.61 L 265.00 271.67 L 267.50 269.72 L 270.00 267.78 L 272.50 265.83 L 275.00 263.89 L 277.50 261.94 L 280.00 260.00 L 282.50 258.06 L 285.00 256.11 L 287.50 254.17 L 290.00 252.22 L 292.50 250.28 L 295.00 248.33 L 297.50 246.39 L 300.00 244.44 L 302.50 242.50 L 305.00 240.56 L 307.50 238.61 L 310.00 236.67 L 312.50 234.72 L 315.00 232.78 L 317.50 230.83 L 320.00 228.89 L 322.50 226.94 L 325.00 225.00 L 327.50 223.06 L 330.00 221.11 L 332.50 219.17 L 335.00 217.22 L 337.50 215.28 L 340.00 213.33 L 342.50 211.39 L 345.00 209.44 L 347.50 207.50 L 350.00 205.56 L 352.50 203.61 L 355.00 201.67 L 357.50 199.72 L 360.00 197.78 L 362.50 195.83 L 365.00 193.89 L 367.50 191.94 L 370.00 190.00 L 372.50 188.06 L 375.00 186.11 L 377.50 184.17 L 380.00 182.22 L 382.50 180.28 L 385.00 178.33 L 387.50 176.39 L 390.00 174.44 L 392.50 172.50 L 395.00 170.56 L 397.50 168.61 L 400.00 166.67 L 402.50 164.72 L 405.00 162.78 L 407.50 160.83 L 410.00 158.89 L 412.50 156.94 L 415.00 155.00 L 417.50 153.06 L 420.00 151.11 L 422.50 149.17 L 425.00 147.22 L 427.50 145.28 L 430.00 143.33 L 432.50 141.39 L 435.00 139.44 L 437.50 137.50 L 440.00 135.56 L 442.50 133.61 L 445.00 131.67 L 447.50 129.72 L 450.00 127.78 L 452.50 125.83 L 455.00 123.89 L 457.50 121.94 L 460.00 120.00 L 462.50 118.06 L 465.00 116.11 L 467.50 114.17 L 470.00 112.22 L 472.50 110.28 L 475.00 108.33 L 477.50 106.39 L 480.00 104.44 L 482.50 102.50 L 485.00 100.56 L 487.50 98.61 L 490.00 96.67 L 492.50 94.72 L 495.00 92.78 L 497.50 90.83 L 500.00 88.89 L 502.50 86.94 L 505.00 85.00 L 507.50 83.06 L 510.00 81.11 L 512.50 79.17 L 515.00 77.22 L 517.50 75.28 L 520.00 73.33 L 522.50 71.39 L 525.00 69.44 L 527.50 67.50 L 530.00 65.56 L 532.50 63.61 L 535.00 61.67 L 537.50 59.72 L 540.00 57.78 L 542.50 55.83 L 545.00 53.89 L 547.50 51.94 L 550.00 50.00" fill="none" stroke="#3b82f6" stroke-width="3" stroke-linecap="round" stroke-linejoin="round"/>
  <g class="annotation-group">
    <line x1="250.0" y1="283.3" x2="350.0" y2="283.3" stroke="#64748b" stroke-width="2.5"/>
    <polygon points="350.0,283.3 340.8,287.2 340.8,279.4" fill="#64748b"/>
    <rect x="278.0" y="261.3333333333333" width="44" height="14" rx="3" fill="white" fill-opacity="0.9"/>
    <text x="300.0" y="271.3" text-anchor="middle" font-size="11" font-weight="bold" fill="#64748b">+1 en x</text>
    <line x1="350.0" y1="283.3" x2="350.0" y2="205.6" stroke="#22c55e" stroke-width="2.5"/>
    <polygon points="350.0,205.6 353.9,214.8 346.1,214.8" fill="#22c55e"/>
    <rect x="328.0" y="222.44444444444443" width="44" height="14" rx="3" fill="white" fill-opacity="0.9"/>
    <text x="350.0" y="232.4" text-anchor="middle" font-size="11" font-weight="bold" fill="#22c55e">+2 en y</text>
    <line x1="350.0" y1="205.6" x2="450.0" y2="205.6" stroke="#64748b" stroke-width="2.5"/>
    <polygon points="450.0,205.6 440.8,209.4 440.8,201.7" fill="#64748b"/>
    <rect x="378.0" y="183.55555555555554" width="44" height="14" rx="3" fill="white" fill-opacity="0.9"/>
    <text x="400.0" y="193.6" text-anchor="middle" font-size="11" font-weight="bold" fill="#64748b">+1</text>
    <line x1="450.0" y1="205.6" x2="450.0" y2="127.8" stroke="#22c55e" stroke-width="2.5"/>
    <polygon points="450.0,127.8 453.9,137.0 446.1,137.0" fill="#22c55e"/>
    <rect x="428.0" y="144.66666666666666" width="44" height="14" rx="3" fill="white" fill-opacity="0.9"/>
    <text x="450.0" y="154.7" text-anchor="middle" font-size="11" font-weight="bold" fill="#22c55e">+2</text>
  </g>
</svg>