<svg xmlns="http://www.w3.org/2000/svg" viewBox="0 0 600 450" 
style="max-width: 100%; height: auto; font-family: Inter, system-ui, sans-serif;">

  <style>
    .wave-path {
      stroke-dasharray: 3000;
      stroke-dashoffset: 3000;
      animation: drawWave 2s ease-out forwards;
    }
    .marker-group { opacity: 0; animation: fadeIn 0.5s ease-out 2s forwards; }
    .label-group { opacity: 0; animation: fadeIn 0.5s ease-out 2.3s forwards; }
    .annotation-group { opacity: 0; animation: fadeIn 0.5s ease-out 2.5s forwards; }
    @keyframes drawWave { to { stroke-dashoffset: 0; } }
    @keyframes fadeIn { to { opacity: 1; } }
  </style>

  <rect width="600" height="450" fill="#f8fafc" rx="8"/>
  <text x="300.0" y="25" text-anchor="middle" font-size="16" font-weight="bold" fill="#1e293b">Evaluación de Función: f(10) = -5</text>
  <g class="grid">
    <line x1="50.0" y1="50" x2="50.0" y2="400" stroke="#e2e8f0" stroke-dasharray="4,4"/>
    <line x1="116.7" y1="50" x2="116.7" y2="400" stroke="#e2e8f0" stroke-dasharray="4,4"/>
    <line x1="183.3" y1="50" x2="183.3" y2="400" stroke="#e2e8f0" stroke-dasharray="4,4"/>
    <line x1="250.0" y1="50" x2="250.0" y2="400" stroke="#e2e8f0" stroke-dasharray="4,4"/>
    <line x1="316.7" y1="50" x2="316.7" y2="400" stroke="#e2e8f0" stroke-dasharray="4,4"/>
    <line x1="383.3" y1="50" x2="383.3" y2="400" stroke="#e2e8f0" stroke-dasharray="4,4"/>
    <line x1="450.0" y1="50" x2="450.0" y2="400" stroke="#e2e8f0" stroke-dasharray="4,4"/>
    <line x1="516.7" y1="50" x2="516.7" y2="400" stroke="#e2e8f0" stroke-dasharray="4,4"/>
    <line x1="50" y1="400.0" x2="550" y2="400.0" stroke="#e2e8f0" stroke-dasharray="4,4"/>
    <line x1="50" y1="341.7" x2="550" y2="341.7" stroke="#e2e8f0" stroke-dasharray="4,4"/>
    <line x1="50" y1="225.0" x2="550" y2="225.0" stroke="#e2e8f0" stroke-dasharray="4,4"/>
    <line x1="50" y1="166.7" x2="550" y2="166.7" stroke="#e2e8f0" stroke-dasharray="4,4"/>
    <line x1="50" y1="108.3" x2="550" y2="108.3" stroke="#e2e8f0" stroke-dasharray="4,4"/>
    <line x1="50" y1="50.0" x2="550" y2="50.0" stroke="#e2e8f0" stroke-dasharray="4,4"/>
  </g>
  <g class="axes">
    <line x1="50" y1="283.3" x2="550" y2="283.3" stroke="#374151" stroke-width="2"/>
    <polygon points="550,283.3 542,279.3 542,287.3" fill="#374151"/>
    <line x1="50.0" y1="50" x2="50.0" y2="400" stroke="#374151" stroke-width="2"/>
    <polygon points="50.0,50 46.0,58 54.0,58" fill="#374151"/>
    <text x="550" y="273.3" text-anchor="end" font-size="14" font-weight="bold" fill="#374151">x</text>
    <text x="40.0" y="50" text-anchor="end" font-size="14" font-weight="bold" fill="#374151">y</text>
    <line x1="116.7" y1="279.3" x2="116.7" y2="287.3" stroke="#374151" stroke-width="1.5"/>
    <text x="116.7" y="303.3" text-anchor="middle" font-size="12" fill="#374151">2</text>
    <line x1="183.3" y1="279.3" x2="183.3" y2="287.3" stroke="#374151" stroke-width="1.5"/>
    <text x="183.3" y="303.3" text-anchor="middle" font-size="12" fill="#374151">4</text>
    <line x1="250.0" y1="279.3" x2="250.0" y2="287.3" stroke="#374151" stroke-width="1.5"/>
    <text x="250.0" y="303.3" text-anchor="middle" font-size="12" fill="#374151">6</text>
    <line x1="316.7" y1="279.3" x2="316.7" y2="287.3" stroke="#374151" stroke-width="1.5"/>
    <text x="316.7" y="303.3" text-anchor="middle" font-size="12" fill="#374151">8</text>
    <line x1="383.3" y1="279.3" x2="383.3" y2="287.3" stroke="#374151" stroke-width="1.5"/>
    <text x="383.3" y="303.3" text-anchor="middle" font-size="12" fill="#374151">10</text>
    <line x1="450.0" y1="279.3" x2="450.0" y2="287.3" stroke="#374151" stroke-width="1.5"/>
    <text x="450.0" y="303.3" text-anchor="middle" font-size="12" fill="#374151">12</text>
    <line x1="516.7" y1="279.3" x2="516.7" y2="287.3" stroke="#374151" stroke-width="1.5"/>
    <text x="516.7" y="303.3" text-anchor="middle" font-size="12" fill="#374151">14</text>
    <line x1="46.0" y1="400.0" x2="54.0" y2="400.0" stroke="#374151" stroke-width="1.5"/>
    <text x="38.0" y="404.0" text-anchor="end" font-size="12" fill="#374151">-10</text>
    <line x1="46.0" y1="341.7" x2="54.0" y2="341.7" stroke="#374151" stroke-width="1.5"/>
    <text x="38.0" y="345.7" text-anchor="end" font-size="12" fill="#374151">-5</text>
    <line x1="46.0" y1="225.0" x2="54.0" y2="225.0" stroke="#374151" stroke-width="1.5"/>
    <text x="38.0" y="229.0" text-anchor="end" font-size="12" fill="#374151">5</text>
    <line x1="46.0" y1="166.7" x2="54.0" y2="166.7" stroke="#374151" stroke-width="1.5"/>
    <text x="38.0" y="170.7" text-anchor="end" font-size="12" fill="#374151">10</text>
    <line x1="46.0" y1="108.3" x2="54.0" y2="108.3" stroke="#374151" stroke-width="1.5"/>
    <text x="38.0" y="112.3" text-anchor="end" font-size="12" fill="#374151">15</text>
    <line x1="46.0" y1="50.0" x2="54.0" y2="50.0" stroke="#374151" stroke-width="1.5"/>
    <text x="38.0" y="54.0" text-anchor="end" font-size="12" fill="#374151">20</text>
  </g>
  <path id="func-0" class="wave-path" d="M 50.00 108.33 L 52.50 110.08 L 55.00 111.83 L 57.50 113.58 L 60.00 115.33 L 62.50 117.08 L 65.00 118.83 L 67.50 120.58 L 70.00 122.33 L 72.50 124.08 L 75.00 125.83 L 77.50 127.58 L 80.00 129.33 L 82.50 131.08 L 85.00 132.83 L 87.50 134.58 L 90.00 136.33 L 92.50 138.08 L 95.00 139.83 L 97.50 141.58 L 100.00 143.33 L 102.50 145.08 L 105.00 146.83 L 107.50 148.58 L 110.00 150.33 L 112.50 152.08 L 115.00 153.83 L 117.50 155.58 L 120.00 157.33 L 122.50 159.08 L 125.00 160.83 L 127.50 162.58 L 130.00 164.33 L 132.50 166.08 L 135.00 167.83 L 137.50 169.58 L 140.00 171.33 L 142.50 173.08 L 145.00 174.83 L 147.50 176.58 L 150.00 178.33 L 152.50 180.08 L 155.00 181.83 L 157.50 183.58 L 160.00 185.33 L 162.50 187.08 L 165.00 188.83 L 167.50 190.58 L 170.00 192.33 L 172.50 194.08 L 175.00 195.83 L 177.50 197.58 L 180.00 199.33 L 182.50 201.08 L 185.00 202.83 L 187.50 204.58 L 190.00 206.33 L 192.50 208.08 L 195.00 209.83 L 197.50 211.58 L 200.00 213.33 L 202.50 215.08 L 205.00 216.83 L 207.50 218.58 L 210.00 220.33 L 212.50 222.08 L 215.00 223.83 L 217.50 225.58 L 220.00 227.33 L 222.50 229.08 L 225.00 230.83 L 227.50 232.58 L 230.00 234.33 L 232.50 236.08 L 235.00 237.83 L 237.50 239.58 L 240.00 241.33 L 242.50 243.08 L 245.00 244.83 L 247.50 246.58 L 250.00 248.33 L 252.50 250.08 L 255.00 251.83 L 257.50 253.58 L 260.00 255.33 L 262.50 257.08 L 265.00 258.83 L 267.50 260.58 L 270.00 262.33 L 272.50 264.08 L 275.00 265.83 L 277.50 267.58 L 280.00 269.33 L 282.50 271.08 L 285.00 272.83 L 287.50 274.58 L 290.00 276.33 L 292.50 278.08 L 295.00 279.83 L 297.50 281.58 L 300.00 283.33 L 302.50 285.08 L 305.00 286.83 L 307.50 288.58 L 310.00 290.33 L 312.50 292.08 L 315.00 293.83 L 317.50 295.58 L 320.00 297.33 L 322.50 299.08 L 325.00 300.83 L 327.50 302.58 L 330.00 304.33 L 332.50 306.08 L 335.00 307.83 L 337.50 309.58 L 340.00 311.33 L 342.50 313.08 L 345.00 314.83 L 347.50 316.58 L 350.00 318.33 L 352.50 320.08 L 355.00 321.83 L 357.50 323.58 L 360.00 325.33 L 362.50 327.08 L 365.00 328.83 L 367.50 330.58 L 370.00 332.33 L 372.50 334.08 L 375.00 335.83 L 377.50 337.58 L 380.00 339.33 L 382.50 341.08 L 385.00 342.83 L 387.50 344.58 L 390.00 346.33 L 392.50 348.08 L 395.00 349.83 L 397.50 351.58 L 400.00 353.33 L 402.50 355.08 L 405.00 356.83 L 407.50 358.58 L 410.00 360.33 L 412.50 362.08 L 415.00 363.83 L 417.50 365.58 L 420.00 367.33 L 422.50 369.08 L 425.00 370.83 L 427.50 372.58 L 430.00 374.33 L 432.50 376.08 L 435.00 377.83 L 437.50 379.58 L 440.00 381.33 L 442.50 383.08 L 445.00 384.83 L 447.50 386.58 L 450.00 388.33 L 452.50 390.08 L 455.00 391.83 L 457.50 393.58 L 460.00 395.33 L 462.50 397.08 L 465.00 398.83" fill="none" stroke="#3b82f6" stroke-width="3" stroke-linecap="round" stroke-linejoin="round"/>
  <g class="marker-group">
    <circle cx="383.3" cy="341.7" r="6" fill="#ef4444" stroke="white" stroke-width="2"/>
  </g>
  <g class="label-group">
    <rect x="333.3333333333333" y="314.6666666666667" width="100" height="16" fill="white" fill-opacity="0.9" rx="3"/>
    <text x="383.3" y="326.7" text-anchor="middle" font-size="11" font-weight="bold" fill="#ef4444">f(10) = -5</text>
  </g>
  <g class="annotation-group">
    <line x1="383.3" y1="283.3" x2="383.3" y2="341.7" stroke="#64748b" stroke-width="2.5"/>
    <polygon points="383.3,341.7 379.4,332.5 387.2,332.5" fill="#64748b"/>
    <line x1="50.0" y1="341.7" x2="383.3" y2="341.7" stroke="#64748b" stroke-width="2.5"/>
    <polygon points="383.3,341.7 374.1,345.6 374.1,337.8" fill="#64748b"/>
  </g>
</svg>