<svg xmlns="http://www.w3.org/2000/svg" viewBox="0 0 600 450" 
style="max-width: 100%; height: auto; font-family: Inter, system-ui, sans-serif;">

  <style>
    .wave-path {
      stroke-dasharray: 3000;
      stroke-dashoffset: 3000;
      animation: drawWave 2s ease-out forwards;
    }
    .marker-group { opacity: 0; animation: fadeIn 0.5s ease-out 2s forwards; }
    .label-group { opacity: 0; animation: fadeIn 0.5s ease-out 2.3s forwards; }
    .annotation-group { opacity: 0; animation: fadeIn 0.5s ease-out 2.5s forwards; }
    @keyframes drawWave { to { stroke-dashoffset: 0; } }
    @keyframes fadeIn { to { opacity: 1; } }
  </style>

  <rect width="600" height="450" fill="#f8fafc" rx="8"/>
  <text x="300.0" y="25" text-anchor="middle" font-size="16" font-weight="bold" fill="#1e293b">Armar Ecuación: y = 1/2x + 4</text>
  <g class="grid">
    <line x1="50.0" y1="50" x2="50.0" y2="400" stroke="#e2e8f0" stroke-dasharray="4,4"/>
    <line x1="150.0" y1="50" x2="150.0" y2="400" stroke="#e2e8f0" stroke-dasharray="4,4"/>
    <line x1="250.0" y1="50" x2="250.0" y2="400" stroke="#e2e8f0" stroke-dasharray="4,4"/>
    <line x1="350.0" y1="50" x2="350.0" y2="400" stroke="#e2e8f0" stroke-dasharray="4,4"/>
    <line x1="450.0" y1="50" x2="450.0" y2="400" stroke="#e2e8f0" stroke-dasharray="4,4"/>
    <line x1="550.0" y1="50" x2="550.0" y2="400" stroke="#e2e8f0" stroke-dasharray="4,4"/>
    <line x1="50" y1="400.0" x2="550" y2="400.0" stroke="#e2e8f0" stroke-dasharray="4,4"/>
    <line x1="50" y1="283.3" x2="550" y2="283.3" stroke="#e2e8f0" stroke-dasharray="4,4"/>
    <line x1="50" y1="225.0" x2="550" y2="225.0" stroke="#e2e8f0" stroke-dasharray="4,4"/>
    <line x1="50" y1="166.7" x2="550" y2="166.7" stroke="#e2e8f0" stroke-dasharray="4,4"/>
    <line x1="50" y1="108.3" x2="550" y2="108.3" stroke="#e2e8f0" stroke-dasharray="4,4"/>
    <line x1="50" y1="50.0" x2="550" y2="50.0" stroke="#e2e8f0" stroke-dasharray="4,4"/>
  </g>
  <g class="axes">
    <line x1="50" y1="341.7" x2="550" y2="341.7" stroke="#374151" stroke-width="2"/>
    <polygon points="550,341.7 542,337.7 542,345.7" fill="#374151"/>
    <line x1="150.0" y1="50" x2="150.0" y2="400" stroke="#374151" stroke-width="2"/>
    <polygon points="150.0,50 146.0,58 154.0,58" fill="#374151"/>
    <text x="550" y="331.7" text-anchor="end" font-size="14" font-weight="bold" fill="#374151">x</text>
    <text x="140.0" y="50" text-anchor="end" font-size="14" font-weight="bold" fill="#374151">y</text>
    <line x1="50.0" y1="337.7" x2="50.0" y2="345.7" stroke="#374151" stroke-width="1.5"/>
    <text x="50.0" y="361.7" text-anchor="middle" font-size="12" fill="#374151">-2</text>
    <line x1="250.0" y1="337.7" x2="250.0" y2="345.7" stroke="#374151" stroke-width="1.5"/>
    <text x="250.0" y="361.7" text-anchor="middle" font-size="12" fill="#374151">2</text>
    <line x1="350.0" y1="337.7" x2="350.0" y2="345.7" stroke="#374151" stroke-width="1.5"/>
    <text x="350.0" y="361.7" text-anchor="middle" font-size="12" fill="#374151">4</text>
    <line x1="450.0" y1="337.7" x2="450.0" y2="345.7" stroke="#374151" stroke-width="1.5"/>
    <text x="450.0" y="361.7" text-anchor="middle" font-size="12" fill="#374151">6</text>
    <line x1="550.0" y1="337.7" x2="550.0" y2="345.7" stroke="#374151" stroke-width="1.5"/>
    <text x="550.0" y="361.7" text-anchor="middle" font-size="12" fill="#374151">8</text>
    <line x1="146.0" y1="400.0" x2="154.0" y2="400.0" stroke="#374151" stroke-width="1.5"/>
    <text x="138.0" y="404.0" text-anchor="end" font-size="12" fill="#374151">-2</text>
    <line x1="146.0" y1="283.3" x2="154.0" y2="283.3" stroke="#374151" stroke-width="1.5"/>
    <text x="138.0" y="287.3" text-anchor="end" font-size="12" fill="#374151">2</text>
    <line x1="146.0" y1="225.0" x2="154.0" y2="225.0" stroke="#374151" stroke-width="1.5"/>
    <text x="138.0" y="229.0" text-anchor="end" font-size="12" fill="#374151">4</text>
    <line x1="146.0" y1="166.7" x2="154.0" y2="166.7" stroke="#374151" stroke-width="1.5"/>
    <text x="138.0" y="170.7" text-anchor="end" font-size="12" fill="#374151">6</text>
    <line x1="146.0" y1="108.3" x2="154.0" y2="108.3" stroke="#374151" stroke-width="1.5"/>
    <text x="138.0" y="112.3" text-anchor="end" font-size="12" fill="#374151">8</text>
    <line x1="146.0" y1="50.0" x2="154.0" y2="50.0" stroke="#374151" stroke-width="1.5"/>
    <text x="138.0" y="54.0" text-anchor="end" font-size="12" fill="#374151">10</text>
  </g>
  <path id="func-0" class="wave-path" d="M 50.00 254.17 L 52.50 253.44 L 55.00 252.71 L 57.50 251.98 L 60.00 251.25 L 62.50 250.52 L 65.00 249.79 L 67.50 249.06 L 70.00 248.33 L 72.50 247.60 L 75.00 246.88 L 77.50 246.15 L 80.00 245.42 L 82.50 244.69 L 85.00 243.96 L 87.50 243.23 L 90.00 242.50 L 92.50 241.77 L 95.00 241.04 L 97.50 240.31 L 100.00 239.58 L 102.50 238.85 L 105.00 238.12 L 107.50 237.40 L 110.00 236.67 L 112.50 235.94 L 115.00 235.21 L 117.50 234.48 L 120.00 233.75 L 122.50 233.02 L 125.00 232.29 L 127.50 231.56 L 130.00 230.83 L 132.50 230.10 L 135.00 229.38 L 137.50 228.65 L 140.00 227.92 L 142.50 227.19 L 145.00 226.46 L 147.50 225.73 L 150.00 225.00 L 152.50 224.27 L 155.00 223.54 L 157.50 222.81 L 160.00 222.08 L 162.50 221.35 L 165.00 220.62 L 167.50 219.90 L 170.00 219.17 L 172.50 218.44 L 175.00 217.71 L 177.50 216.98 L 180.00 216.25 L 182.50 215.52 L 185.00 214.79 L 187.50 214.06 L 190.00 213.33 L 192.50 212.60 L 195.00 211.88 L 197.50 211.15 L 200.00 210.42 L 202.50 209.69 L 205.00 208.96 L 207.50 208.23 L 210.00 207.50 L 212.50 206.77 L 215.00 206.04 L 217.50 205.31 L 220.00 204.58 L 222.50 203.85 L 225.00 203.12 L 227.50 202.40 L 230.00 201.67 L 232.50 200.94 L 235.00 200.21 L 237.50 199.48 L 240.00 198.75 L 242.50 198.02 L 245.00 197.29 L 247.50 196.56 L 250.00 195.83 L 252.50 195.10 L 255.00 194.37 L 257.50 193.65 L 260.00 192.92 L 262.50 192.19 L 265.00 191.46 L 267.50 190.73 L 270.00 190.00 L 272.50 189.27 L 275.00 188.54 L 277.50 187.81 L 280.00 187.08 L 282.50 186.35 L 285.00 185.62 L 287.50 184.90 L 290.00 184.17 L 292.50 183.44 L 295.00 182.71 L 297.50 181.98 L 300.00 181.25 L 302.50 180.52 L 305.00 179.79 L 307.50 179.06 L 310.00 178.33 L 312.50 177.60 L 315.00 176.88 L 317.50 176.15 L 320.00 175.42 L 322.50 174.69 L 325.00 173.96 L 327.50 173.23 L 330.00 172.50 L 332.50 171.77 L 335.00 171.04 L 337.50 170.31 L 340.00 169.58 L 342.50 168.85 L 345.00 168.12 L 347.50 167.40 L 350.00 166.67 L 352.50 165.94 L 355.00 165.21 L 357.50 164.48 L 360.00 163.75 L 362.50 163.02 L 365.00 162.29 L 367.50 161.56 L 370.00 160.83 L 372.50 160.10 L 375.00 159.38 L 377.50 158.65 L 380.00 157.92 L 382.50 157.19 L 385.00 156.46 L 387.50 155.73 L 390.00 155.00 L 392.50 154.27 L 395.00 153.54 L 397.50 152.81 L 400.00 152.08 L 402.50 151.35 L 405.00 150.62 L 407.50 149.90 L 410.00 149.17 L 412.50 148.44 L 415.00 147.71 L 417.50 146.98 L 420.00 146.25 L 422.50 145.52 L 425.00 144.79 L 427.50 144.06 L 430.00 143.33 L 432.50 142.60 L 435.00 141.88 L 437.50 141.15 L 440.00 140.42 L 442.50 139.69 L 445.00 138.96 L 447.50 138.23 L 450.00 137.50 L 452.50 136.77 L 455.00 136.04 L 457.50 135.31 L 460.00 134.58 L 462.50 133.85 L 465.00 133.12 L 467.50 132.40 L 470.00 131.67 L 472.50 130.94 L 475.00 130.21 L 477.50 129.48 L 480.00 128.75 L 482.50 128.02 L 485.00 127.29 L 487.50 126.56 L 490.00 125.83 L 492.50 125.10 L 495.00 124.38 L 497.50 123.65 L 500.00 122.92 L 502.50 122.19 L 505.00 121.46 L 507.50 120.73 L 510.00 120.00 L 512.50 119.27 L 515.00 118.54 L 517.50 117.81 L 520.00 117.08 L 522.50 116.35 L 525.00 115.62 L 527.50 114.90 L 530.00 114.17 L 532.50 113.44 L 535.00 112.71 L 537.50 111.98 L 540.00 111.25 L 542.50 110.52 L 545.00 109.79 L 547.50 109.06 L 550.00 108.33" fill="none" stroke="#3b82f6" stroke-width="3" stroke-linecap="round" stroke-linejoin="round"/>
  <g class="marker-group">
    <circle cx="150.0" cy="225.0" r="6" fill="#ef4444" stroke="white" stroke-width="2"/>
  </g>
  <g class="label-group">
    <rect x="115.0" y="217.0" width="100" height="16" fill="white" fill-opacity="0.9" rx="3"/>
    <text x="165.0" y="229.0" text-anchor="start" font-size="11" font-weight="bold" fill="#ef4444">b = 4</text>
  </g>
  <g class="annotation-group">
    <line x1="150.0" y1="225.0" x2="250.0" y2="225.0" stroke="#64748b" stroke-width="2.5"/>
    <polygon points="250.0,225.0 240.8,228.9 240.8,221.1" fill="#64748b"/>
    <rect x="178.0" y="203.0" width="44" height="14" rx="3" fill="white" fill-opacity="0.9"/>
    <text x="200.0" y="213.0" text-anchor="middle" font-size="11" font-weight="bold" fill="#64748b">Avanza 2</text>
    <line x1="250.0" y1="225.0" x2="250.0" y2="195.8" stroke="#22c55e" stroke-width="2.5"/>
    <polygon points="250.0,195.8 253.9,205.0 246.1,205.0" fill="#22c55e"/>
    <rect x="228.0" y="188.41666666666669" width="44" height="14" rx="3" fill="white" fill-opacity="0.9"/>
    <text x="250.0" y="198.4" text-anchor="middle" font-size="11" font-weight="bold" fill="#22c55e">Sube 1</text>
  </g>
</svg>