<svg xmlns="http://www.w3.org/2000/svg" viewBox="0 0 600 450" 
style="max-width: 100%; height: auto; font-family: Inter, system-ui, sans-serif;">

  <style>
    .wave-path {
      stroke-dasharray: 3000;
      stroke-dashoffset: 3000;
      animation: drawWave 2s ease-out forwards;
    }
    .marker-group { opacity: 0; animation: fadeIn 0.5s ease-out 2s forwards; }
    .label-group { opacity: 0; animation: fadeIn 0.5s ease-out 2.3s forwards; }
    .annotation-group { opacity: 0; animation: fadeIn 0.5s ease-out 2.5s forwards; }
    @keyframes drawWave { to { stroke-dashoffset: 0; } }
    @keyframes fadeIn { to { opacity: 1; } }
  </style>

  <rect width="600" height="450" fill="#ffffff" rx="8"/>
  <text x="300.0" y="25" text-anchor="middle" font-size="16" font-weight="bold" fill="#1e293b">La Fórmula Maestra: y = mx + b</text>
  <g class="grid">
    <line x1="60.0" y1="60" x2="60.0" y2="390" stroke="#e2e8f0" stroke-dasharray="4,4"/>
    <line x1="120.0" y1="60" x2="120.0" y2="390" stroke="#e2e8f0" stroke-dasharray="4,4"/>
    <line x1="180.0" y1="60" x2="180.0" y2="390" stroke="#e2e8f0" stroke-dasharray="4,4"/>
    <line x1="240.0" y1="60" x2="240.0" y2="390" stroke="#e2e8f0" stroke-dasharray="4,4"/>
    <line x1="300.0" y1="60" x2="300.0" y2="390" stroke="#e2e8f0" stroke-dasharray="4,4"/>
    <line x1="360.0" y1="60" x2="360.0" y2="390" stroke="#e2e8f0" stroke-dasharray="4,4"/>
    <line x1="420.0" y1="60" x2="420.0" y2="390" stroke="#e2e8f0" stroke-dasharray="4,4"/>
    <line x1="480.0" y1="60" x2="480.0" y2="390" stroke="#e2e8f0" stroke-dasharray="4,4"/>
    <line x1="540.0" y1="60" x2="540.0" y2="390" stroke="#e2e8f0" stroke-dasharray="4,4"/>
    <line x1="60" y1="390.0" x2="540" y2="390.0" stroke="#e2e8f0" stroke-dasharray="4,4"/>
    <line x1="60" y1="357.0" x2="540" y2="357.0" stroke="#e2e8f0" stroke-dasharray="4,4"/>
    <line x1="60" y1="291.0" x2="540" y2="291.0" stroke="#e2e8f0" stroke-dasharray="4,4"/>
    <line x1="60" y1="258.0" x2="540" y2="258.0" stroke="#e2e8f0" stroke-dasharray="4,4"/>
    <line x1="60" y1="225.0" x2="540" y2="225.0" stroke="#e2e8f0" stroke-dasharray="4,4"/>
    <line x1="60" y1="192.0" x2="540" y2="192.0" stroke="#e2e8f0" stroke-dasharray="4,4"/>
    <line x1="60" y1="159.0" x2="540" y2="159.0" stroke="#e2e8f0" stroke-dasharray="4,4"/>
    <line x1="60" y1="126.0" x2="540" y2="126.0" stroke="#e2e8f0" stroke-dasharray="4,4"/>
    <line x1="60" y1="93.0" x2="540" y2="93.0" stroke="#e2e8f0" stroke-dasharray="4,4"/>
    <line x1="60" y1="60.0" x2="540" y2="60.0" stroke="#e2e8f0" stroke-dasharray="4,4"/>
  </g>
  <g class="axes">
    <line x1="60" y1="324.0" x2="540" y2="324.0" stroke="#374151" stroke-width="2"/>
    <polygon points="540,324.0 532,320.0 532,328.0" fill="#374151"/>
    <line x1="180.0" y1="60" x2="180.0" y2="390" stroke="#374151" stroke-width="2"/>
    <polygon points="180.0,60 176.0,68 184.0,68" fill="#374151"/>
    <text x="540" y="314.0" text-anchor="end" font-size="14" font-weight="bold" fill="#374151">x</text>
    <text x="170.0" y="60" text-anchor="end" font-size="14" font-weight="bold" fill="#374151">y</text>
    <line x1="60.0" y1="320.0" x2="60.0" y2="328.0" stroke="#374151" stroke-width="1.5"/>
    <text x="60.0" y="344.0" text-anchor="middle" font-size="12" fill="#374151">-2</text>
    <line x1="120.0" y1="320.0" x2="120.0" y2="328.0" stroke="#374151" stroke-width="1.5"/>
    <text x="120.0" y="344.0" text-anchor="middle" font-size="12" fill="#374151">-1</text>
    <line x1="240.0" y1="320.0" x2="240.0" y2="328.0" stroke="#374151" stroke-width="1.5"/>
    <text x="240.0" y="344.0" text-anchor="middle" font-size="12" fill="#374151">1</text>
    <line x1="300.0" y1="320.0" x2="300.0" y2="328.0" stroke="#374151" stroke-width="1.5"/>
    <text x="300.0" y="344.0" text-anchor="middle" font-size="12" fill="#374151">2</text>
    <line x1="360.0" y1="320.0" x2="360.0" y2="328.0" stroke="#374151" stroke-width="1.5"/>
    <text x="360.0" y="344.0" text-anchor="middle" font-size="12" fill="#374151">3</text>
    <line x1="420.0" y1="320.0" x2="420.0" y2="328.0" stroke="#374151" stroke-width="1.5"/>
    <text x="420.0" y="344.0" text-anchor="middle" font-size="12" fill="#374151">4</text>
    <line x1="480.0" y1="320.0" x2="480.0" y2="328.0" stroke="#374151" stroke-width="1.5"/>
    <text x="480.0" y="344.0" text-anchor="middle" font-size="12" fill="#374151">5</text>
    <line x1="540.0" y1="320.0" x2="540.0" y2="328.0" stroke="#374151" stroke-width="1.5"/>
    <text x="540.0" y="344.0" text-anchor="middle" font-size="12" fill="#374151">6</text>
    <line x1="176.0" y1="390.0" x2="184.0" y2="390.0" stroke="#374151" stroke-width="1.5"/>
    <text x="168.0" y="394.0" text-anchor="end" font-size="12" fill="#374151">-2</text>
    <line x1="176.0" y1="357.0" x2="184.0" y2="357.0" stroke="#374151" stroke-width="1.5"/>
    <text x="168.0" y="361.0" text-anchor="end" font-size="12" fill="#374151">-1</text>
    <line x1="176.0" y1="291.0" x2="184.0" y2="291.0" stroke="#374151" stroke-width="1.5"/>
    <text x="168.0" y="295.0" text-anchor="end" font-size="12" fill="#374151">1</text>
    <line x1="176.0" y1="258.0" x2="184.0" y2="258.0" stroke="#374151" stroke-width="1.5"/>
    <text x="168.0" y="262.0" text-anchor="end" font-size="12" fill="#374151">2</text>
    <line x1="176.0" y1="225.0" x2="184.0" y2="225.0" stroke="#374151" stroke-width="1.5"/>
    <text x="168.0" y="229.0" text-anchor="end" font-size="12" fill="#374151">3</text>
    <line x1="176.0" y1="192.0" x2="184.0" y2="192.0" stroke="#374151" stroke-width="1.5"/>
    <text x="168.0" y="196.0" text-anchor="end" font-size="12" fill="#374151">4</text>
    <line x1="176.0" y1="159.0" x2="184.0" y2="159.0" stroke="#374151" stroke-width="1.5"/>
    <text x="168.0" y="163.0" text-anchor="end" font-size="12" fill="#374151">5</text>
    <line x1="176.0" y1="126.0" x2="184.0" y2="126.0" stroke="#374151" stroke-width="1.5"/>
    <text x="168.0" y="130.0" text-anchor="end" font-size="12" fill="#374151">6</text>
    <line x1="176.0" y1="93.0" x2="184.0" y2="93.0" stroke="#374151" stroke-width="1.5"/>
    <text x="168.0" y="97.0" text-anchor="end" font-size="12" fill="#374151">7</text>
    <line x1="176.0" y1="60.0" x2="184.0" y2="60.0" stroke="#374151" stroke-width="1.5"/>
    <text x="168.0" y="64.0" text-anchor="end" font-size="12" fill="#374151">8</text>
  </g>
  <path id="linea-general" class="wave-path" d="M 60.00 324.00 L 62.40 322.68 L 64.80 321.36 L 67.20 320.04 L 69.60 318.72 L 72.00 317.40 L 74.40 316.08 L 76.80 314.76 L 79.20 313.44 L 81.60 312.12 L 84.00 310.80 L 86.40 309.48 L 88.80 308.16 L 91.20 306.84 L 93.60 305.52 L 96.00 304.20 L 98.40 302.88 L 100.80 301.56 L 103.20 300.24 L 105.60 298.92 L 108.00 297.60 L 110.40 296.28 L 112.80 294.96 L 115.20 293.64 L 117.60 292.32 L 120.00 291.00 L 122.40 289.68 L 124.80 288.36 L 127.20 287.04 L 129.60 285.72 L 132.00 284.40 L 134.40 283.08 L 136.80 281.76 L 139.20 280.44 L 141.60 279.12 L 144.00 277.80 L 146.40 276.48 L 148.80 275.16 L 151.20 273.84 L 153.60 272.52 L 156.00 271.20 L 158.40 269.88 L 160.80 268.56 L 163.20 267.24 L 165.60 265.92 L 168.00 264.60 L 170.40 263.28 L 172.80 261.96 L 175.20 260.64 L 177.60 259.32 L 180.00 258.00 L 182.40 256.68 L 184.80 255.36 L 187.20 254.04 L 189.60 252.72 L 192.00 251.40 L 194.40 250.08 L 196.80 248.76 L 199.20 247.44 L 201.60 246.12 L 204.00 244.80 L 206.40 243.48 L 208.80 242.16 L 211.20 240.84 L 213.60 239.52 L 216.00 238.20 L 218.40 236.88 L 220.80 235.56 L 223.20 234.24 L 225.60 232.92 L 228.00 231.60 L 230.40 230.28 L 232.80 228.96 L 235.20 227.64 L 237.60 226.32 L 240.00 225.00 L 242.40 223.68 L 244.80 222.36 L 247.20 221.04 L 249.60 219.72 L 252.00 218.40 L 254.40 217.08 L 256.80 215.76 L 259.20 214.44 L 261.60 213.12 L 264.00 211.80 L 266.40 210.48 L 268.80 209.16 L 271.20 207.84 L 273.60 206.52 L 276.00 205.20 L 278.40 203.88 L 280.80 202.56 L 283.20 201.24 L 285.60 199.92 L 288.00 198.60 L 290.40 197.28 L 292.80 195.96 L 295.20 194.64 L 297.60 193.32 L 300.00 192.00 L 302.40 190.68 L 304.80 189.36 L 307.20 188.04 L 309.60 186.72 L 312.00 185.40 L 314.40 184.08 L 316.80 182.76 L 319.20 181.44 L 321.60 180.12 L 324.00 178.80 L 326.40 177.48 L 328.80 176.16 L 331.20 174.84 L 333.60 173.52 L 336.00 172.20 L 338.40 170.88 L 340.80 169.56 L 343.20 168.24 L 345.60 166.92 L 348.00 165.60 L 350.40 164.28 L 352.80 162.96 L 355.20 161.64 L 357.60 160.32 L 360.00 159.00 L 362.40 157.68 L 364.80 156.36 L 367.20 155.04 L 369.60 153.72 L 372.00 152.40 L 374.40 151.08 L 376.80 149.76 L 379.20 148.44 L 381.60 147.12 L 384.00 145.80 L 386.40 144.48 L 388.80 143.16 L 391.20 141.84 L 393.60 140.52 L 396.00 139.20 L 398.40 137.88 L 400.80 136.56 L 403.20 135.24 L 405.60 133.92 L 408.00 132.60 L 410.40 131.28 L 412.80 129.96 L 415.20 128.64 L 417.60 127.32 L 420.00 126.00 L 422.40 124.68 L 424.80 123.36 L 427.20 122.04 L 429.60 120.72 L 432.00 119.40 L 434.40 118.08 L 436.80 116.76 L 439.20 115.44 L 441.60 114.12 L 444.00 112.80 L 446.40 111.48 L 448.80 110.16 L 451.20 108.84 L 453.60 107.52 L 456.00 106.20 L 458.40 104.88 L 460.80 103.56 L 463.20 102.24 L 465.60 100.92 L 468.00 99.60 L 470.40 98.28 L 472.80 96.96 L 475.20 95.64 L 477.60 94.32 L 480.00 93.00 L 482.40 91.68 L 484.80 90.36 L 487.20 89.04 L 489.60 87.72 L 492.00 86.40 L 494.40 85.08 L 496.80 83.76 L 499.20 82.44 L 501.60 81.12 L 504.00 79.80 L 506.40 78.48 L 508.80 77.16 L 511.20 75.84 L 513.60 74.52 L 516.00 73.20 L 518.40 71.88 L 520.80 70.56 L 523.20 69.24 L 525.60 67.92 L 528.00 66.60 L 530.40 65.28 L 532.80 63.96 L 535.20 62.64 L 537.60 61.32 L 540.00 60.00" fill="none" stroke="#3b82f6" stroke-width="4" stroke-linecap="round" stroke-linejoin="round"/>
  <g class="marker-group">
    <circle cx="180.0" cy="258.0" r="6" fill="#ef4444" stroke="white" stroke-width="2"/>
  </g>
  <g class="label-group">
    <rect x="115.0" y="250.0" width="100" height="16" fill="white" fill-opacity="0.9" rx="3"/>
    <text x="165.0" y="262.0" text-anchor="end" font-size="11" font-weight="bold" fill="#ef4444">Intercepto (b)</text>
  </g>
  <g class="annotation-group">
    <line x1="360.0" y1="159.0" x2="420.0" y2="159.0" stroke="#64748b" stroke-width="2.5"/>
    <polygon points="420.0,159.0 410.8,162.9 410.8,155.1" fill="#64748b"/>
    <line x1="420.0" y1="159.0" x2="420.0" y2="126.0" stroke="#22c55e" stroke-width="2.5"/>
    <polygon points="420.0,126.0 423.9,135.2 416.1,135.2" fill="#22c55e"/>
    <rect x="398.0" y="120.5" width="44" height="14" rx="3" fill="white" fill-opacity="0.9"/>
    <text x="420.0" y="130.5" text-anchor="middle" font-size="11" font-weight="bold" fill="#22c55e">m</text>
    <text x="480.0" y="225.0" text-anchor="middle" font-size="18" font-weight="bold" fill="#3b82f6">y = mx + b</text>
  </g>
</svg>