<svg xmlns="http://www.w3.org/2000/svg" viewBox="0 0 600 400">
  <defs>
        <marker id="arrow-64748b-10" markerWidth="10" markerHeight="10" 
                refX="9.0" refY="5.0" orient="auto"
                markerUnits="userSpaceOnUse">
            <polygon points="0,0 10,5.0 0,10" fill="#64748b"/>
        </marker>

        <marker id="arrow-64748b-10" markerWidth="10" markerHeight="10" 
                refX="9.0" refY="5.0" orient="auto"
                markerUnits="userSpaceOnUse">
            <polygon points="0,0 10,5.0 0,10" fill="#64748b"/>
        </marker></defs>
  <rect x="0.00" y="0.00" width="600.00" height="400.00" fill="white" stroke="none" stroke-width="0" rx="0"  />
  <text x="300.00" y="30.00" font-family="Inter, sans-serif" font-size="16" font-weight="bold" fill="#1e293b" text-anchor="middle" dominant-baseline="middle">Cultivo de Bacterias</text>
  <line x1="100.00" y1="340.00" x2="100.00" y2="60.00" stroke="#e2e8f0" stroke-width="0.5"  />
  <line x1="260.00" y1="340.00" x2="260.00" y2="60.00" stroke="#e2e8f0" stroke-width="0.5"  />
  <line x1="340.00" y1="340.00" x2="340.00" y2="60.00" stroke="#e2e8f0" stroke-width="0.5"  />
  <line x1="420.00" y1="340.00" x2="420.00" y2="60.00" stroke="#e2e8f0" stroke-width="0.5"  />
  <line x1="500.00" y1="340.00" x2="500.00" y2="60.00" stroke="#e2e8f0" stroke-width="0.5"  />
  <line x1="60.00" y1="266.32" x2="540.00" y2="266.32" stroke="#e2e8f0" stroke-width="0.5"  />
  <line x1="60.00" y1="207.37" x2="540.00" y2="207.37" stroke="#e2e8f0" stroke-width="0.5"  />
  <line x1="60.00" y1="148.42" x2="540.00" y2="148.42" stroke="#e2e8f0" stroke-width="0.5"  />
  <line x1="60.00" y1="89.47" x2="540.00" y2="89.47" stroke="#e2e8f0" stroke-width="0.5"  />
  <line x1="60.00" y1="325.26" x2="540.00" y2="325.26" stroke="#64748b" stroke-width="2"  marker-end="url(#arrow-64748b-10)"/>
  <line x1="180.00" y1="340.00" x2="180.00" y2="60.00" stroke="#64748b" stroke-width="2"  marker-end="url(#arrow-64748b-10)"/>
  <text x="535.00" y="345.26" font-family="Inter, sans-serif" font-size="14" font-weight="bold" fill="#64748b" text-anchor="middle" dominant-baseline="middle">Horas (t)</text>
  <text x="160.00" y="70.00" font-family="Inter, sans-serif" font-size="14" font-weight="bold" fill="#64748b" text-anchor="middle" dominant-baseline="middle">Bacterias</text>
  <line x1="100.00" y1="320.26" x2="100.00" y2="330.26" stroke="#64748b" stroke-width="1"  />
  <text x="100.00" y="343.26" font-family="Inter, sans-serif" font-size="11" font-weight="normal" fill="#64748b" text-anchor="middle" dominant-baseline="middle">-1</text>
  <line x1="260.00" y1="320.26" x2="260.00" y2="330.26" stroke="#64748b" stroke-width="1"  />
  <text x="260.00" y="343.26" font-family="Inter, sans-serif" font-size="11" font-weight="normal" fill="#64748b" text-anchor="middle" dominant-baseline="middle">1</text>
  <line x1="340.00" y1="320.26" x2="340.00" y2="330.26" stroke="#64748b" stroke-width="1"  />
  <text x="340.00" y="343.26" font-family="Inter, sans-serif" font-size="11" font-weight="normal" fill="#64748b" text-anchor="middle" dominant-baseline="middle">2</text>
  <line x1="420.00" y1="320.26" x2="420.00" y2="330.26" stroke="#64748b" stroke-width="1"  />
  <text x="420.00" y="343.26" font-family="Inter, sans-serif" font-size="11" font-weight="normal" fill="#64748b" text-anchor="middle" dominant-baseline="middle">3</text>
  <line x1="500.00" y1="320.26" x2="500.00" y2="330.26" stroke="#64748b" stroke-width="1"  />
  <text x="500.00" y="343.26" font-family="Inter, sans-serif" font-size="11" font-weight="normal" fill="#64748b" text-anchor="middle" dominant-baseline="middle">4</text>
  <line x1="175.00" y1="266.32" x2="185.00" y2="266.32" stroke="#64748b" stroke-width="1"  />
  <text x="165.00" y="266.32" font-family="Inter, sans-serif" font-size="11" font-weight="normal" fill="#64748b" text-anchor="end" dominant-baseline="middle">2000</text>
  <line x1="175.00" y1="207.37" x2="185.00" y2="207.37" stroke="#64748b" stroke-width="1"  />
  <text x="165.00" y="207.37" font-family="Inter, sans-serif" font-size="11" font-weight="normal" fill="#64748b" text-anchor="end" dominant-baseline="middle">4000</text>
  <line x1="175.00" y1="148.42" x2="185.00" y2="148.42" stroke="#64748b" stroke-width="1"  />
  <text x="165.00" y="148.42" font-family="Inter, sans-serif" font-size="11" font-weight="normal" fill="#64748b" text-anchor="end" dominant-baseline="middle">6000</text>
  <line x1="175.00" y1="89.47" x2="185.00" y2="89.47" stroke="#64748b" stroke-width="1"  />
  <text x="165.00" y="89.47" font-family="Inter, sans-serif" font-size="11" font-weight="normal" fill="#64748b" text-anchor="end" dominant-baseline="middle">8000</text>
  <polyline points="60.00,324.70 64.85,324.66 69.70,324.62 74.55,324.57 79.39,324.52 84.24,324.47 89.09,324.42 93.94,324.36 98.79,324.30 103.64,324.23 108.48,324.16 113.33,324.08 118.18,324.00 123.03,323.92 127.88,323.82 132.73,323.72 137.58,323.62 142.42,323.50 147.27,323.38 152.12,323.25 156.97,323.11 161.82,322.97 166.67,322.81 171.52,322.64 176.36,322.46 181.21,322.27 186.06,322.06 190.91,321.84 195.76,321.60 200.61,321.35 205.45,321.08 210.30,320.79 215.15,320.49 220.00,320.16 224.85,319.81 229.70,319.43 234.55,319.03 239.39,318.60 244.24,318.14 249.09,317.65 253.94,317.13 258.79,316.57 263.64,315.97 268.48,315.33 273.33,314.64 278.18,313.91 283.03,313.13 287.88,312.30 292.73,311.40 297.58,310.45 302.42,309.43 307.27,308.34 312.12,307.17 316.97,305.93 321.82,304.60 326.67,303.18 331.52,301.65 336.36,300.03 341.21,298.29 346.06,296.43 350.91,294.45 355.76,292.33 360.61,290.06 365.45,287.64 370.30,285.05 375.15,282.28 380.00,279.32 384.85,276.15 389.70,272.77 394.55,269.16 399.39,265.30 404.24,261.17 409.09,256.76 413.94,252.04 418.79,247.00 423.64,241.61 428.48,235.85 433.33,229.69 438.18,223.11 443.03,216.08 447.88,208.56 452.73,200.53 457.58,191.94 462.42,182.76 467.27,172.95 472.12,162.46 476.97,151.26 481.82,139.28 486.67,126.47 491.52,112.78 496.36,98.16 501.21,82.52 506.06,65.81" fill="none" stroke="#3b82f6" stroke-width="3"  stroke-linecap="round" stroke-linejoin="round"/>
  <circle cx="180.00" cy="322.32" r="9" fill="white" />
  <circle cx="180.00" cy="322.32" r="5" fill="#ef4444" stroke="white" stroke-width="2"/>
  <rect x="130.00" y="284.32" width="100.00" height="26.00" fill="white" stroke="#ef4444" stroke-width="1.5" rx="6"  />
  <text x="180.00" y="301.32" font-family="Inter, sans-serif" font-size="12" font-weight="bold" fill="#ef4444" text-anchor="middle" dominant-baseline="middle">Inicio (100)</text>
  <circle cx="500.00" cy="86.53" r="9" fill="white" />
  <circle cx="500.00" cy="86.53" r="5" fill="#f97316" stroke="white" stroke-width="2"/>
  <rect x="460.50" y="48.53" width="79.00" height="26.00" fill="white" stroke="#f97316" stroke-width="1.5" rx="6"  />
  <text x="500.00" y="65.53" font-family="Inter, sans-serif" font-size="12" font-weight="bold" fill="#f97316" text-anchor="middle" dominant-baseline="middle">4h (8100)</text>
  <rect x="80.00" y="80.00" width="160.00" height="50.00" fill="white" stroke="#e2e8f0" stroke-width="0" rx="8"  />
  <line x1="95.00" y1="100.00" x2="125.00" y2="100.00" stroke="#3b82f6" stroke-width="3"  />
  <text x="135.00" y="104.00" font-family="Inter, sans-serif" font-size="11" font-weight="normal" fill="#1e293b" text-anchor="start" dominant-baseline="middle">B(t) = 100 · 3ᵗ</text>
</svg>