<svg xmlns="http://www.w3.org/2000/svg" viewBox="0 0 500 500">
  <defs>
        <marker id="arrow-64748b-10" markerWidth="10" markerHeight="10" 
                refX="9.0" refY="5.0" orient="auto"
                markerUnits="userSpaceOnUse">
            <polygon points="0,0 10,5.0 0,10" fill="#64748b"/>
        </marker>

        <marker id="arrow-64748b-10" markerWidth="10" markerHeight="10" 
                refX="9.0" refY="5.0" orient="auto"
                markerUnits="userSpaceOnUse">
            <polygon points="0,0 10,5.0 0,10" fill="#64748b"/>
        </marker></defs>
  <rect x="0.00" y="0.00" width="500.00" height="500.00" fill="white" stroke="none" stroke-width="0" rx="0"  />
  <text x="250.00" y="30.00" font-family="Inter, sans-serif" font-size="16" font-weight="bold" fill="#1e293b" text-anchor="middle" dominant-baseline="middle">Ejemplo 4: Inversa (Base 10)</text>
  <line x1="60.00" y1="440.00" x2="60.00" y2="60.00" stroke="#e2e8f0" stroke-width="0.5"  />
  <line x1="114.29" y1="440.00" x2="114.29" y2="60.00" stroke="#e2e8f0" stroke-width="0.5"  />
  <line x1="222.86" y1="440.00" x2="222.86" y2="60.00" stroke="#e2e8f0" stroke-width="0.5"  />
  <line x1="277.14" y1="440.00" x2="277.14" y2="60.00" stroke="#e2e8f0" stroke-width="0.5"  />
  <line x1="331.43" y1="440.00" x2="331.43" y2="60.00" stroke="#e2e8f0" stroke-width="0.5"  />
  <line x1="385.71" y1="440.00" x2="385.71" y2="60.00" stroke="#e2e8f0" stroke-width="0.5"  />
  <line x1="440.00" y1="440.00" x2="440.00" y2="60.00" stroke="#e2e8f0" stroke-width="0.5"  />
  <line x1="60.00" y1="440.00" x2="440.00" y2="440.00" stroke="#e2e8f0" stroke-width="0.5"  />
  <line x1="60.00" y1="385.71" x2="440.00" y2="385.71" stroke="#e2e8f0" stroke-width="0.5"  />
  <line x1="60.00" y1="277.14" x2="440.00" y2="277.14" stroke="#e2e8f0" stroke-width="0.5"  />
  <line x1="60.00" y1="222.86" x2="440.00" y2="222.86" stroke="#e2e8f0" stroke-width="0.5"  />
  <line x1="60.00" y1="168.57" x2="440.00" y2="168.57" stroke="#e2e8f0" stroke-width="0.5"  />
  <line x1="60.00" y1="114.29" x2="440.00" y2="114.29" stroke="#e2e8f0" stroke-width="0.5"  />
  <line x1="60.00" y1="60.00" x2="440.00" y2="60.00" stroke="#e2e8f0" stroke-width="0.5"  />
  <line x1="60.00" y1="331.43" x2="440.00" y2="331.43" stroke="#64748b" stroke-width="2"  marker-end="url(#arrow-64748b-10)"/>
  <line x1="168.57" y1="440.00" x2="168.57" y2="60.00" stroke="#64748b" stroke-width="2"  marker-end="url(#arrow-64748b-10)"/>
  <text x="435.00" y="351.43" font-family="Inter, sans-serif" font-size="14" font-weight="bold" fill="#64748b" text-anchor="middle" dominant-baseline="middle">x</text>
  <text x="148.57" y="70.00" font-family="Inter, sans-serif" font-size="14" font-weight="bold" fill="#64748b" text-anchor="middle" dominant-baseline="middle">y</text>
  <line x1="60.00" y1="326.43" x2="60.00" y2="336.43" stroke="#64748b" stroke-width="1"  />
  <text x="60.00" y="349.43" font-family="Inter, sans-serif" font-size="11" font-weight="normal" fill="#64748b" text-anchor="middle" dominant-baseline="middle">-2</text>
  <line x1="114.29" y1="326.43" x2="114.29" y2="336.43" stroke="#64748b" stroke-width="1"  />
  <text x="114.29" y="349.43" font-family="Inter, sans-serif" font-size="11" font-weight="normal" fill="#64748b" text-anchor="middle" dominant-baseline="middle">-1</text>
  <line x1="222.86" y1="326.43" x2="222.86" y2="336.43" stroke="#64748b" stroke-width="1"  />
  <text x="222.86" y="349.43" font-family="Inter, sans-serif" font-size="11" font-weight="normal" fill="#64748b" text-anchor="middle" dominant-baseline="middle">1</text>
  <line x1="277.14" y1="326.43" x2="277.14" y2="336.43" stroke="#64748b" stroke-width="1"  />
  <text x="277.14" y="349.43" font-family="Inter, sans-serif" font-size="11" font-weight="normal" fill="#64748b" text-anchor="middle" dominant-baseline="middle">2</text>
  <line x1="331.43" y1="326.43" x2="331.43" y2="336.43" stroke="#64748b" stroke-width="1"  />
  <text x="331.43" y="349.43" font-family="Inter, sans-serif" font-size="11" font-weight="normal" fill="#64748b" text-anchor="middle" dominant-baseline="middle">3</text>
  <line x1="385.71" y1="326.43" x2="385.71" y2="336.43" stroke="#64748b" stroke-width="1"  />
  <text x="385.71" y="349.43" font-family="Inter, sans-serif" font-size="11" font-weight="normal" fill="#64748b" text-anchor="middle" dominant-baseline="middle">4</text>
  <line x1="440.00" y1="326.43" x2="440.00" y2="336.43" stroke="#64748b" stroke-width="1"  />
  <text x="440.00" y="349.43" font-family="Inter, sans-serif" font-size="11" font-weight="normal" fill="#64748b" text-anchor="middle" dominant-baseline="middle">5</text>
  <line x1="163.57" y1="440.00" x2="173.57" y2="440.00" stroke="#64748b" stroke-width="1"  />
  <text x="153.57" y="440.00" font-family="Inter, sans-serif" font-size="11" font-weight="normal" fill="#64748b" text-anchor="end" dominant-baseline="middle">-2</text>
  <line x1="163.57" y1="385.71" x2="173.57" y2="385.71" stroke="#64748b" stroke-width="1"  />
  <text x="153.57" y="385.71" font-family="Inter, sans-serif" font-size="11" font-weight="normal" fill="#64748b" text-anchor="end" dominant-baseline="middle">-1</text>
  <line x1="163.57" y1="277.14" x2="173.57" y2="277.14" stroke="#64748b" stroke-width="1"  />
  <text x="153.57" y="277.14" font-family="Inter, sans-serif" font-size="11" font-weight="normal" fill="#64748b" text-anchor="end" dominant-baseline="middle">1</text>
  <line x1="163.57" y1="222.86" x2="173.57" y2="222.86" stroke="#64748b" stroke-width="1"  />
  <text x="153.57" y="222.86" font-family="Inter, sans-serif" font-size="11" font-weight="normal" fill="#64748b" text-anchor="end" dominant-baseline="middle">2</text>
  <line x1="163.57" y1="168.57" x2="173.57" y2="168.57" stroke="#64748b" stroke-width="1"  />
  <text x="153.57" y="168.57" font-family="Inter, sans-serif" font-size="11" font-weight="normal" fill="#64748b" text-anchor="end" dominant-baseline="middle">3</text>
  <line x1="163.57" y1="114.29" x2="173.57" y2="114.29" stroke="#64748b" stroke-width="1"  />
  <text x="153.57" y="114.29" font-family="Inter, sans-serif" font-size="11" font-weight="normal" fill="#64748b" text-anchor="end" dominant-baseline="middle">4</text>
  <line x1="163.57" y1="60.00" x2="173.57" y2="60.00" stroke="#64748b" stroke-width="1"  />
  <text x="153.57" y="60.00" font-family="Inter, sans-serif" font-size="11" font-weight="normal" fill="#64748b" text-anchor="end" dominant-baseline="middle">5</text>
  <polyline points="60.00,440.00 63.84,436.16 67.68,432.32 71.52,428.48 75.35,424.65 79.19,420.81 83.03,416.97 86.87,413.13 90.71,409.29 94.55,405.45 98.38,401.62 102.22,397.78 106.06,393.94 109.90,390.10 113.74,386.26 117.58,382.42 121.41,378.59 125.25,374.75 129.09,370.91 132.93,367.07 136.77,363.23 140.61,359.39 144.44,355.56 148.28,351.72 152.12,347.88 155.96,344.04 159.80,340.20 163.64,336.36 167.47,332.53 171.31,328.69 175.15,324.85 178.99,321.01 182.83,317.17 186.67,313.33 190.51,309.49 194.34,305.66 198.18,301.82 202.02,297.98 205.86,294.14 209.70,290.30 213.54,286.46 217.37,282.63 221.21,278.79 225.05,274.95 228.89,271.11 232.73,267.27 236.57,263.43 240.40,259.60 244.24,255.76 248.08,251.92 251.92,248.08 255.76,244.24 259.60,240.40 263.43,236.57 267.27,232.73 271.11,228.89 274.95,225.05 278.79,221.21 282.63,217.37 286.46,213.54 290.30,209.70 294.14,205.86 297.98,202.02 301.82,198.18 305.66,194.34 309.49,190.51 313.33,186.67 317.17,182.83 321.01,178.99 324.85,175.15 328.69,171.31 332.53,167.47 336.36,163.64 340.20,159.80 344.04,155.96 347.88,152.12 351.72,148.28 355.56,144.44 359.39,140.61 363.23,136.77 367.07,132.93 370.91,129.09 374.75,125.25 378.59,121.41 382.42,117.58 386.26,113.74 390.10,109.90 393.94,106.06 397.78,102.22 401.62,98.38 405.45,94.55 409.29,90.71 413.13,86.87 416.97,83.03 420.81,79.19 424.65,75.35 428.48,71.52 432.32,67.68 436.16,63.84 440.00,60.00" fill="none" stroke="#64748b" stroke-width="3" stroke-dasharray="6,4" stroke-linecap="round" stroke-linejoin="round"/>
  <polyline points="60.00,330.89 63.84,330.79 67.68,330.68 71.52,330.54 75.35,330.39 79.19,330.20 83.03,329.99 86.87,329.73 90.71,329.43 94.55,329.08 98.38,328.66 102.22,328.17 106.06,327.60 109.90,326.92 113.74,326.12 117.58,325.19 121.41,324.08 125.25,322.78 129.09,321.26 132.93,319.46 136.77,317.34 140.61,314.85 144.44,311.92 148.28,308.47 152.12,304.41 155.96,299.63 159.80,294.01 163.64,287.40 167.47,279.61 171.31,270.45 175.15,259.67 178.99,246.98 182.83,232.05 186.67,214.47 190.51,193.79 194.34,169.46 198.18,140.82 202.02,107.12 205.86,67.46 209.70,20.79 213.54,-34.14 217.37,-98.78 221.21,-174.84" fill="none" stroke="#f97316" stroke-width="3"  stroke-linecap="round" stroke-linejoin="round"/>
  <polyline points="171.31,401.82 175.15,381.18 178.99,370.35 182.83,362.95 186.67,357.33 190.51,352.79 194.34,348.99 198.18,345.72 202.02,342.85 205.86,340.28 209.70,337.97 213.54,335.87 217.37,333.94 221.21,332.15 225.05,330.49 228.89,328.94 232.73,327.49 236.57,326.12 240.40,324.83 244.24,323.60 248.08,322.43 251.92,321.32 255.76,320.26 259.60,319.24 263.43,318.27 267.27,317.33 271.11,316.43 274.95,315.57 278.79,314.73 282.63,313.93 286.46,313.14 290.30,312.39 294.14,311.66 297.98,310.95 301.82,310.26 305.66,309.59 309.49,308.94 313.33,308.30 317.17,307.69 321.01,307.09 324.85,306.50 328.69,305.93 332.53,305.37 336.36,304.82 340.20,304.29 344.04,303.77 347.88,303.26 351.72,302.76 355.56,302.27 359.39,301.79 363.23,301.32 367.07,300.86 370.91,300.41 374.75,299.97 378.59,299.53 382.42,299.11 386.26,298.69 390.10,298.27 393.94,297.87 397.78,297.47 401.62,297.08 405.45,296.69 409.29,296.31 413.13,295.94 416.97,295.57 420.81,295.21 424.65,294.86 428.48,294.51 432.32,294.16 436.16,293.82 440.00,293.48" fill="none" stroke="#3b82f6" stroke-width="3"  stroke-linecap="round" stroke-linejoin="round"/>
  <circle cx="168.57" cy="277.14" r="9" fill="white" />
  <circle cx="168.57" cy="277.14" r="5" fill="#f97316" stroke="white" stroke-width="2"/>
  <rect x="139.57" y="239.14" width="58.00" height="26.00" fill="white" stroke="#f97316" stroke-width="1.5" rx="6"  />
  <text x="168.57" y="256.14" font-family="Inter, sans-serif" font-size="12" font-weight="bold" fill="#f97316" text-anchor="middle" dominant-baseline="middle">(0, 1)</text>
  <circle cx="222.86" cy="331.43" r="9" fill="white" />
  <circle cx="222.86" cy="331.43" r="5" fill="#3b82f6" stroke="white" stroke-width="2"/>
  <rect x="193.86" y="293.43" width="58.00" height="26.00" fill="white" stroke="#3b82f6" stroke-width="1.5" rx="6"  />
  <text x="222.86" y="310.43" font-family="Inter, sans-serif" font-size="12" font-weight="bold" fill="#3b82f6" text-anchor="middle" dominant-baseline="middle">(1, 0)</text>
  <rect x="60.00" y="70.00" width="160.00" height="90.00" fill="white" stroke="#e2e8f0" stroke-width="0" rx="8"  />
  <line x1="75.00" y1="90.00" x2="105.00" y2="90.00" stroke="#64748b" stroke-width="3" stroke-dasharray="5,5" />
  <text x="115.00" y="94.00" font-family="Inter, sans-serif" font-size="11" font-weight="normal" fill="#1e293b" text-anchor="start" dominant-baseline="middle">y=x</text>
  <line x1="75.00" y1="110.00" x2="105.00" y2="110.00" stroke="#f97316" stroke-width="3"  />
  <text x="115.00" y="114.00" font-family="Inter, sans-serif" font-size="11" font-weight="normal" fill="#1e293b" text-anchor="start" dominant-baseline="middle">y=10ˣ</text>
  <line x1="75.00" y1="130.00" x2="105.00" y2="130.00" stroke="#3b82f6" stroke-width="3"  />
  <text x="115.00" y="134.00" font-family="Inter, sans-serif" font-size="11" font-weight="normal" fill="#1e293b" text-anchor="start" dominant-baseline="middle">y=log(x)</text>
</svg>