<svg xmlns="http://www.w3.org/2000/svg" viewBox="0 0 500 350">
  <defs>
        <marker id="arrow-64748b-10" markerWidth="10" markerHeight="10" 
                refX="9.0" refY="5.0" orient="auto"
                markerUnits="userSpaceOnUse">
            <polygon points="0,0 10,5.0 0,10" fill="#64748b"/>
        </marker>

        <marker id="arrow-64748b-10" markerWidth="10" markerHeight="10" 
                refX="9.0" refY="5.0" orient="auto"
                markerUnits="userSpaceOnUse">
            <polygon points="0,0 10,5.0 0,10" fill="#64748b"/>
        </marker></defs>
  <rect x="0.00" y="0.00" width="500.00" height="350.00" fill="white" stroke="none" stroke-width="0" rx="0"  />
  <text x="250.00" y="30.00" font-family="Inter, sans-serif" font-size="16" font-weight="bold" fill="#1e293b" text-anchor="middle" dominant-baseline="middle">¿Crece o Decrece?</text>
  <line x1="155.00" y1="290.00" x2="155.00" y2="60.00" stroke="#e2e8f0" stroke-width="0.5"  />
  <line x1="250.00" y1="290.00" x2="250.00" y2="60.00" stroke="#e2e8f0" stroke-width="0.5"  />
  <line x1="345.00" y1="290.00" x2="345.00" y2="60.00" stroke="#e2e8f0" stroke-width="0.5"  />
  <line x1="440.00" y1="290.00" x2="440.00" y2="60.00" stroke="#e2e8f0" stroke-width="0.5"  />
  <line x1="60.00" y1="290.00" x2="440.00" y2="290.00" stroke="#e2e8f0" stroke-width="0.5"  />
  <line x1="60.00" y1="248.18" x2="440.00" y2="248.18" stroke="#e2e8f0" stroke-width="0.5"  />
  <line x1="60.00" y1="206.36" x2="440.00" y2="206.36" stroke="#e2e8f0" stroke-width="0.5"  />
  <line x1="60.00" y1="164.55" x2="440.00" y2="164.55" stroke="#e2e8f0" stroke-width="0.5"  />
  <line x1="60.00" y1="122.73" x2="440.00" y2="122.73" stroke="#e2e8f0" stroke-width="0.5"  />
  <line x1="60.00" y1="80.91" x2="440.00" y2="80.91" stroke="#e2e8f0" stroke-width="0.5"  />
  <line x1="60.00" y1="373.64" x2="440.00" y2="373.64" stroke="#64748b" stroke-width="2"  marker-end="url(#arrow-64748b-10)"/>
  <line x1="60.00" y1="290.00" x2="60.00" y2="60.00" stroke="#64748b" stroke-width="2"  marker-end="url(#arrow-64748b-10)"/>
  <text x="435.00" y="393.64" font-family="Inter, sans-serif" font-size="14" font-weight="bold" fill="#64748b" text-anchor="middle" dominant-baseline="middle">Tiempo</text>
  <text x="40.00" y="70.00" font-family="Inter, sans-serif" font-size="14" font-weight="bold" fill="#64748b" text-anchor="middle" dominant-baseline="middle">Valor</text>
  <line x1="155.00" y1="368.64" x2="155.00" y2="378.64" stroke="#64748b" stroke-width="1"  />
  <text x="155.00" y="391.64" font-family="Inter, sans-serif" font-size="11" font-weight="normal" fill="#64748b" text-anchor="middle" dominant-baseline="middle">5</text>
  <line x1="250.00" y1="368.64" x2="250.00" y2="378.64" stroke="#64748b" stroke-width="1"  />
  <text x="250.00" y="391.64" font-family="Inter, sans-serif" font-size="11" font-weight="normal" fill="#64748b" text-anchor="middle" dominant-baseline="middle">10</text>
  <line x1="345.00" y1="368.64" x2="345.00" y2="378.64" stroke="#64748b" stroke-width="1"  />
  <text x="345.00" y="391.64" font-family="Inter, sans-serif" font-size="11" font-weight="normal" fill="#64748b" text-anchor="middle" dominant-baseline="middle">15</text>
  <line x1="440.00" y1="368.64" x2="440.00" y2="378.64" stroke="#64748b" stroke-width="1"  />
  <text x="440.00" y="391.64" font-family="Inter, sans-serif" font-size="11" font-weight="normal" fill="#64748b" text-anchor="middle" dominant-baseline="middle">20</text>
  <line x1="55.00" y1="290.00" x2="65.00" y2="290.00" stroke="#64748b" stroke-width="1"  />
  <text x="45.00" y="290.00" font-family="Inter, sans-serif" font-size="11" font-weight="normal" fill="#64748b" text-anchor="end" dominant-baseline="middle">400</text>
  <line x1="55.00" y1="248.18" x2="65.00" y2="248.18" stroke="#64748b" stroke-width="1"  />
  <text x="45.00" y="248.18" font-family="Inter, sans-serif" font-size="11" font-weight="normal" fill="#64748b" text-anchor="end" dominant-baseline="middle">600</text>
  <line x1="55.00" y1="206.36" x2="65.00" y2="206.36" stroke="#64748b" stroke-width="1"  />
  <text x="45.00" y="206.36" font-family="Inter, sans-serif" font-size="11" font-weight="normal" fill="#64748b" text-anchor="end" dominant-baseline="middle">800</text>
  <line x1="55.00" y1="164.55" x2="65.00" y2="164.55" stroke="#64748b" stroke-width="1"  />
  <text x="45.00" y="164.55" font-family="Inter, sans-serif" font-size="11" font-weight="normal" fill="#64748b" text-anchor="end" dominant-baseline="middle">1000</text>
  <line x1="55.00" y1="122.73" x2="65.00" y2="122.73" stroke="#64748b" stroke-width="1"  />
  <text x="45.00" y="122.73" font-family="Inter, sans-serif" font-size="11" font-weight="normal" fill="#64748b" text-anchor="end" dominant-baseline="middle">1200</text>
  <line x1="55.00" y1="80.91" x2="65.00" y2="80.91" stroke="#64748b" stroke-width="1"  />
  <text x="45.00" y="80.91" font-family="Inter, sans-serif" font-size="11" font-weight="normal" fill="#64748b" text-anchor="end" dominant-baseline="middle">1400</text>
  <polyline points="60.00,269.09 63.84,268.06 67.68,267.01 71.52,265.95 75.35,264.89 79.19,263.81 83.03,262.72 86.87,261.62 90.71,260.51 94.55,259.39 98.38,258.26 102.22,257.12 106.06,255.96 109.90,254.80 113.74,253.62 117.58,252.43 121.41,251.23 125.25,250.02 129.09,248.80 132.93,247.56 136.77,246.31 140.61,245.05 144.44,243.78 148.28,242.49 152.12,241.19 155.96,239.88 159.80,238.55 163.64,237.21 167.47,235.86 171.31,234.50 175.15,233.12 178.99,231.73 182.83,230.32 186.67,228.90 190.51,227.47 194.34,226.02 198.18,224.56 202.02,223.08 205.86,221.59 209.70,220.09 213.54,218.56 217.37,217.03 221.21,215.48 225.05,213.91 228.89,212.33 232.73,210.73 236.57,209.12 240.40,207.49 244.24,205.84 248.08,204.18 251.92,202.50 255.76,200.81 259.60,199.09 263.43,197.37 267.27,195.62 271.11,193.86 274.95,192.08 278.79,190.28 282.63,188.46 286.46,186.63 290.30,184.77 294.14,182.90 297.98,181.01 301.82,179.11 305.66,177.18 309.49,175.23 313.33,173.27 317.17,171.28 321.01,169.28 324.85,167.25 328.69,165.21 332.53,163.15 336.36,161.06 340.20,158.96 344.04,156.83 347.88,154.68 351.72,152.51 355.56,150.32 359.39,148.11 363.23,145.88 367.07,143.62 370.91,141.34 374.75,139.04 378.59,136.72 382.42,134.37 386.26,132.00 390.10,129.61 393.94,127.19 397.78,124.75 401.62,122.28 405.45,119.79 409.29,117.28 413.13,114.74 416.97,112.18 420.81,109.59 424.65,106.97 428.48,104.33 432.32,101.66 436.16,98.97 440.00,96.25" fill="none" stroke="#3b82f6" stroke-width="3"  stroke-linecap="round" stroke-linejoin="round"/>
  <circle cx="60.00" cy="269.09" r="9" fill="white" />
  <circle cx="60.00" cy="269.09" r="5" fill="#f97316" stroke="white" stroke-width="2"/>
  <rect x="41.50" y="231.09" width="37.00" height="26.00" fill="white" stroke="#f97316" stroke-width="1.5" rx="6"  />
  <text x="60.00" y="248.09" font-family="Inter, sans-serif" font-size="12" font-weight="bold" fill="#f97316" text-anchor="middle" dominant-baseline="middle">500</text>
  <rect x="320.00" y="60.00" width="160.00" height="50.00" fill="white" stroke="#e2e8f0" stroke-width="0" rx="8"  />
  <line x1="335.00" y1="80.00" x2="365.00" y2="80.00" stroke="#3b82f6" stroke-width="3"  />
  <text x="375.00" y="84.00" font-family="Inter, sans-serif" font-size="11" font-weight="normal" fill="#1e293b" text-anchor="start" dominant-baseline="middle">f(x) = 500 · 1.05ˣ</text>
</svg>