<svg xmlns="http://www.w3.org/2000/svg" viewBox="0 0 500 500">
  <defs>
        <marker id="arrow-64748b-10" markerWidth="10" markerHeight="10" 
                refX="9.0" refY="5.0" orient="auto"
                markerUnits="userSpaceOnUse">
            <polygon points="0,0 10,5.0 0,10" fill="#64748b"/>
        </marker>

        <marker id="arrow-64748b-10" markerWidth="10" markerHeight="10" 
                refX="9.0" refY="5.0" orient="auto"
                markerUnits="userSpaceOnUse">
            <polygon points="0,0 10,5.0 0,10" fill="#64748b"/>
        </marker></defs>
  <rect x="0.00" y="0.00" width="500.00" height="500.00" fill="white" stroke="none" stroke-width="0" rx="0"  />
  <text x="250.00" y="30.00" font-family="Inter, sans-serif" font-size="16" font-weight="bold" fill="#1e293b" text-anchor="middle" dominant-baseline="middle">Gráfica Básica: y = 2ˣ</text>
  <line x1="60.00" y1="440.00" x2="60.00" y2="60.00" stroke="#e2e8f0" stroke-width="0.5"  />
  <line x1="114.29" y1="440.00" x2="114.29" y2="60.00" stroke="#e2e8f0" stroke-width="0.5"  />
  <line x1="168.57" y1="440.00" x2="168.57" y2="60.00" stroke="#e2e8f0" stroke-width="0.5"  />
  <line x1="277.14" y1="440.00" x2="277.14" y2="60.00" stroke="#e2e8f0" stroke-width="0.5"  />
  <line x1="331.43" y1="440.00" x2="331.43" y2="60.00" stroke="#e2e8f0" stroke-width="0.5"  />
  <line x1="385.71" y1="440.00" x2="385.71" y2="60.00" stroke="#e2e8f0" stroke-width="0.5"  />
  <line x1="440.00" y1="440.00" x2="440.00" y2="60.00" stroke="#e2e8f0" stroke-width="0.5"  />
  <line x1="60.00" y1="440.00" x2="440.00" y2="440.00" stroke="#e2e8f0" stroke-width="0.5"  />
  <line x1="60.00" y1="370.91" x2="440.00" y2="370.91" stroke="#e2e8f0" stroke-width="0.5"  />
  <line x1="60.00" y1="336.36" x2="440.00" y2="336.36" stroke="#e2e8f0" stroke-width="0.5"  />
  <line x1="60.00" y1="301.82" x2="440.00" y2="301.82" stroke="#e2e8f0" stroke-width="0.5"  />
  <line x1="60.00" y1="267.27" x2="440.00" y2="267.27" stroke="#e2e8f0" stroke-width="0.5"  />
  <line x1="60.00" y1="232.73" x2="440.00" y2="232.73" stroke="#e2e8f0" stroke-width="0.5"  />
  <line x1="60.00" y1="198.18" x2="440.00" y2="198.18" stroke="#e2e8f0" stroke-width="0.5"  />
  <line x1="60.00" y1="163.64" x2="440.00" y2="163.64" stroke="#e2e8f0" stroke-width="0.5"  />
  <line x1="60.00" y1="129.09" x2="440.00" y2="129.09" stroke="#e2e8f0" stroke-width="0.5"  />
  <line x1="60.00" y1="94.55" x2="440.00" y2="94.55" stroke="#e2e8f0" stroke-width="0.5"  />
  <line x1="60.00" y1="60.00" x2="440.00" y2="60.00" stroke="#e2e8f0" stroke-width="0.5"  />
  <line x1="60.00" y1="405.45" x2="440.00" y2="405.45" stroke="#64748b" stroke-width="2"  marker-end="url(#arrow-64748b-10)"/>
  <line x1="222.86" y1="440.00" x2="222.86" y2="60.00" stroke="#64748b" stroke-width="2"  marker-end="url(#arrow-64748b-10)"/>
  <text x="435.00" y="425.45" font-family="Inter, sans-serif" font-size="14" font-weight="bold" fill="#64748b" text-anchor="middle" dominant-baseline="middle">x</text>
  <text x="202.86" y="70.00" font-family="Inter, sans-serif" font-size="14" font-weight="bold" fill="#64748b" text-anchor="middle" dominant-baseline="middle">y</text>
  <line x1="60.00" y1="400.45" x2="60.00" y2="410.45" stroke="#64748b" stroke-width="1"  />
  <text x="60.00" y="423.45" font-family="Inter, sans-serif" font-size="11" font-weight="normal" fill="#64748b" text-anchor="middle" dominant-baseline="middle">-3</text>
  <line x1="114.29" y1="400.45" x2="114.29" y2="410.45" stroke="#64748b" stroke-width="1"  />
  <text x="114.29" y="423.45" font-family="Inter, sans-serif" font-size="11" font-weight="normal" fill="#64748b" text-anchor="middle" dominant-baseline="middle">-2</text>
  <line x1="168.57" y1="400.45" x2="168.57" y2="410.45" stroke="#64748b" stroke-width="1"  />
  <text x="168.57" y="423.45" font-family="Inter, sans-serif" font-size="11" font-weight="normal" fill="#64748b" text-anchor="middle" dominant-baseline="middle">-1</text>
  <line x1="277.14" y1="400.45" x2="277.14" y2="410.45" stroke="#64748b" stroke-width="1"  />
  <text x="277.14" y="423.45" font-family="Inter, sans-serif" font-size="11" font-weight="normal" fill="#64748b" text-anchor="middle" dominant-baseline="middle">1</text>
  <line x1="331.43" y1="400.45" x2="331.43" y2="410.45" stroke="#64748b" stroke-width="1"  />
  <text x="331.43" y="423.45" font-family="Inter, sans-serif" font-size="11" font-weight="normal" fill="#64748b" text-anchor="middle" dominant-baseline="middle">2</text>
  <line x1="385.71" y1="400.45" x2="385.71" y2="410.45" stroke="#64748b" stroke-width="1"  />
  <text x="385.71" y="423.45" font-family="Inter, sans-serif" font-size="11" font-weight="normal" fill="#64748b" text-anchor="middle" dominant-baseline="middle">3</text>
  <line x1="440.00" y1="400.45" x2="440.00" y2="410.45" stroke="#64748b" stroke-width="1"  />
  <text x="440.00" y="423.45" font-family="Inter, sans-serif" font-size="11" font-weight="normal" fill="#64748b" text-anchor="middle" dominant-baseline="middle">4</text>
  <line x1="217.86" y1="440.00" x2="227.86" y2="440.00" stroke="#64748b" stroke-width="1"  />
  <text x="207.86" y="440.00" font-family="Inter, sans-serif" font-size="11" font-weight="normal" fill="#64748b" text-anchor="end" dominant-baseline="middle">-1</text>
  <line x1="217.86" y1="370.91" x2="227.86" y2="370.91" stroke="#64748b" stroke-width="1"  />
  <text x="207.86" y="370.91" font-family="Inter, sans-serif" font-size="11" font-weight="normal" fill="#64748b" text-anchor="end" dominant-baseline="middle">1</text>
  <line x1="217.86" y1="336.36" x2="227.86" y2="336.36" stroke="#64748b" stroke-width="1"  />
  <text x="207.86" y="336.36" font-family="Inter, sans-serif" font-size="11" font-weight="normal" fill="#64748b" text-anchor="end" dominant-baseline="middle">2</text>
  <line x1="217.86" y1="301.82" x2="227.86" y2="301.82" stroke="#64748b" stroke-width="1"  />
  <text x="207.86" y="301.82" font-family="Inter, sans-serif" font-size="11" font-weight="normal" fill="#64748b" text-anchor="end" dominant-baseline="middle">3</text>
  <line x1="217.86" y1="267.27" x2="227.86" y2="267.27" stroke="#64748b" stroke-width="1"  />
  <text x="207.86" y="267.27" font-family="Inter, sans-serif" font-size="11" font-weight="normal" fill="#64748b" text-anchor="end" dominant-baseline="middle">4</text>
  <line x1="217.86" y1="232.73" x2="227.86" y2="232.73" stroke="#64748b" stroke-width="1"  />
  <text x="207.86" y="232.73" font-family="Inter, sans-serif" font-size="11" font-weight="normal" fill="#64748b" text-anchor="end" dominant-baseline="middle">5</text>
  <line x1="217.86" y1="198.18" x2="227.86" y2="198.18" stroke="#64748b" stroke-width="1"  />
  <text x="207.86" y="198.18" font-family="Inter, sans-serif" font-size="11" font-weight="normal" fill="#64748b" text-anchor="end" dominant-baseline="middle">6</text>
  <line x1="217.86" y1="163.64" x2="227.86" y2="163.64" stroke="#64748b" stroke-width="1"  />
  <text x="207.86" y="163.64" font-family="Inter, sans-serif" font-size="11" font-weight="normal" fill="#64748b" text-anchor="end" dominant-baseline="middle">7</text>
  <line x1="217.86" y1="129.09" x2="227.86" y2="129.09" stroke="#64748b" stroke-width="1"  />
  <text x="207.86" y="129.09" font-family="Inter, sans-serif" font-size="11" font-weight="normal" fill="#64748b" text-anchor="end" dominant-baseline="middle">8</text>
  <line x1="217.86" y1="94.55" x2="227.86" y2="94.55" stroke="#64748b" stroke-width="1"  />
  <text x="207.86" y="94.55" font-family="Inter, sans-serif" font-size="11" font-weight="normal" fill="#64748b" text-anchor="end" dominant-baseline="middle">9</text>
  <line x1="217.86" y1="60.00" x2="227.86" y2="60.00" stroke="#64748b" stroke-width="1"  />
  <text x="207.86" y="60.00" font-family="Inter, sans-serif" font-size="11" font-weight="normal" fill="#64748b" text-anchor="end" dominant-baseline="middle">10</text>
  <polyline points="60.00,401.14 63.84,400.92 67.68,400.69 71.52,400.45 75.35,400.20 79.19,399.94 83.03,399.66 86.87,399.37 90.71,399.06 94.55,398.74 98.38,398.41 102.22,398.05 106.06,397.68 109.90,397.29 113.74,396.88 117.58,396.45 121.41,396.00 125.25,395.52 129.09,395.02 132.93,394.50 136.77,393.95 140.61,393.37 144.44,392.76 148.28,392.12 152.12,391.45 155.96,390.75 159.80,390.01 163.64,389.24 167.47,388.42 171.31,387.57 175.15,386.67 178.99,385.72 182.83,384.73 186.67,383.69 190.51,382.60 194.34,381.45 198.18,380.25 202.02,378.98 205.86,377.65 209.70,376.25 213.54,374.79 217.37,373.25 221.21,371.63 225.05,369.93 228.89,368.14 232.73,366.27 236.57,364.30 240.40,362.23 244.24,360.06 248.08,357.78 251.92,355.39 255.76,352.87 259.60,350.23 263.43,347.46 267.27,344.54 271.11,341.49 274.95,338.27 278.79,334.90 282.63,331.35 286.46,327.63 290.30,323.72 294.14,319.62 297.98,315.30 301.82,310.78 305.66,306.02 309.49,301.03 313.33,295.78 317.17,290.27 321.01,284.48 324.85,278.41 328.69,272.03 332.53,265.32 336.36,258.29 340.20,250.89 344.04,243.13 347.88,234.98 351.72,226.41 355.56,217.42 359.39,207.97 363.23,198.05 367.07,187.63 370.91,176.69 374.75,165.20 378.59,153.13 382.42,140.46 386.26,127.15 390.10,113.17 393.94,98.49 397.78,83.07 401.62,66.87 405.45,49.87 409.29,32.01 413.13,13.25 416.97,-6.45 420.81,-27.15 424.65,-48.88 428.48,-71.70 432.32,-95.66" fill="none" stroke="#3b82f6" stroke-width="3"  stroke-linecap="round" stroke-linejoin="round"/>
  <circle cx="222.86" cy="370.91" r="9" fill="white" />
  <circle cx="222.86" cy="370.91" r="5" fill="#ef4444" stroke="white" stroke-width="2"/>
  <rect x="193.86" y="332.91" width="58.00" height="26.00" fill="white" stroke="#ef4444" stroke-width="1.5" rx="6"  />
  <text x="222.86" y="349.91" font-family="Inter, sans-serif" font-size="12" font-weight="bold" fill="#ef4444" text-anchor="middle" dominant-baseline="middle">(0, 1)</text>
  <circle cx="277.14" cy="336.36" r="9" fill="white" />
  <circle cx="277.14" cy="336.36" r="5" fill="#22c55e" stroke="white" stroke-width="2"/>
  <rect x="248.14" y="298.36" width="58.00" height="26.00" fill="white" stroke="#22c55e" stroke-width="1.5" rx="6"  />
  <text x="277.14" y="315.36" font-family="Inter, sans-serif" font-size="12" font-weight="bold" fill="#22c55e" text-anchor="middle" dominant-baseline="middle">(1, 2)</text>
  <circle cx="331.43" cy="267.27" r="9" fill="white" />
  <circle cx="331.43" cy="267.27" r="5" fill="#22c55e" stroke="white" stroke-width="2"/>
  <rect x="302.43" y="229.27" width="58.00" height="26.00" fill="white" stroke="#22c55e" stroke-width="1.5" rx="6"  />
  <text x="331.43" y="246.27" font-family="Inter, sans-serif" font-size="12" font-weight="bold" fill="#22c55e" text-anchor="middle" dominant-baseline="middle">(2, 4)</text>
  <circle cx="168.57" cy="388.18" r="9" fill="white" />
  <circle cx="168.57" cy="388.18" r="5" fill="#f97316" stroke="white" stroke-width="2"/>
  <rect x="129.07" y="350.18" width="79.00" height="26.00" fill="white" stroke="#f97316" stroke-width="1.5" rx="6"  />
  <text x="168.57" y="367.18" font-family="Inter, sans-serif" font-size="12" font-weight="bold" fill="#f97316" text-anchor="middle" dominant-baseline="middle">(-1, 0.5)</text>
  <rect x="320.00" y="60.00" width="160.00" height="50.00" fill="white" stroke="#e2e8f0" stroke-width="0" rx="8"  />
  <line x1="335.00" y1="80.00" x2="365.00" y2="80.00" stroke="#3b82f6" stroke-width="3"  />
  <text x="375.00" y="84.00" font-family="Inter, sans-serif" font-size="11" font-weight="normal" fill="#1e293b" text-anchor="start" dominant-baseline="middle">y = 2ˣ</text>
</svg>