<svg xmlns="http://www.w3.org/2000/svg" viewBox="0 0 500 400">
  <defs>
        <marker id="arrow-64748b-10" markerWidth="10" markerHeight="10" 
                refX="9.0" refY="5.0" orient="auto"
                markerUnits="userSpaceOnUse">
            <polygon points="0,0 10,5.0 0,10" fill="#64748b"/>
        </marker>

        <marker id="arrow-64748b-10" markerWidth="10" markerHeight="10" 
                refX="9.0" refY="5.0" orient="auto"
                markerUnits="userSpaceOnUse">
            <polygon points="0,0 10,5.0 0,10" fill="#64748b"/>
        </marker></defs>
  <rect x="0.00" y="0.00" width="500.00" height="400.00" fill="white" stroke="none" stroke-width="0" rx="0"  />
  <text x="250.00" y="30.00" font-family="Inter, sans-serif" font-size="16" font-weight="bold" fill="#1e293b" text-anchor="middle" dominant-baseline="middle">Ejemplo 3: Punto (9, 2)</text>
  <line x1="98.00" y1="340.00" x2="98.00" y2="60.00" stroke="#e2e8f0" stroke-width="0.5"  />
  <line x1="136.00" y1="340.00" x2="136.00" y2="60.00" stroke="#e2e8f0" stroke-width="0.5"  />
  <line x1="174.00" y1="340.00" x2="174.00" y2="60.00" stroke="#e2e8f0" stroke-width="0.5"  />
  <line x1="212.00" y1="340.00" x2="212.00" y2="60.00" stroke="#e2e8f0" stroke-width="0.5"  />
  <line x1="250.00" y1="340.00" x2="250.00" y2="60.00" stroke="#e2e8f0" stroke-width="0.5"  />
  <line x1="288.00" y1="340.00" x2="288.00" y2="60.00" stroke="#e2e8f0" stroke-width="0.5"  />
  <line x1="326.00" y1="340.00" x2="326.00" y2="60.00" stroke="#e2e8f0" stroke-width="0.5"  />
  <line x1="364.00" y1="340.00" x2="364.00" y2="60.00" stroke="#e2e8f0" stroke-width="0.5"  />
  <line x1="402.00" y1="340.00" x2="402.00" y2="60.00" stroke="#e2e8f0" stroke-width="0.5"  />
  <line x1="440.00" y1="340.00" x2="440.00" y2="60.00" stroke="#e2e8f0" stroke-width="0.5"  />
  <line x1="60.00" y1="340.00" x2="440.00" y2="340.00" stroke="#e2e8f0" stroke-width="0.5"  />
  <line x1="60.00" y1="228.00" x2="440.00" y2="228.00" stroke="#e2e8f0" stroke-width="0.5"  />
  <line x1="60.00" y1="172.00" x2="440.00" y2="172.00" stroke="#e2e8f0" stroke-width="0.5"  />
  <line x1="60.00" y1="116.00" x2="440.00" y2="116.00" stroke="#e2e8f0" stroke-width="0.5"  />
  <line x1="60.00" y1="60.00" x2="440.00" y2="60.00" stroke="#e2e8f0" stroke-width="0.5"  />
  <line x1="60.00" y1="284.00" x2="440.00" y2="284.00" stroke="#64748b" stroke-width="2"  marker-end="url(#arrow-64748b-10)"/>
  <line x1="60.00" y1="340.00" x2="60.00" y2="60.00" stroke="#64748b" stroke-width="2"  marker-end="url(#arrow-64748b-10)"/>
  <text x="435.00" y="304.00" font-family="Inter, sans-serif" font-size="14" font-weight="bold" fill="#64748b" text-anchor="middle" dominant-baseline="middle">x</text>
  <text x="40.00" y="70.00" font-family="Inter, sans-serif" font-size="14" font-weight="bold" fill="#64748b" text-anchor="middle" dominant-baseline="middle">y</text>
  <line x1="98.00" y1="279.00" x2="98.00" y2="289.00" stroke="#64748b" stroke-width="1"  />
  <text x="98.00" y="302.00" font-family="Inter, sans-serif" font-size="11" font-weight="normal" fill="#64748b" text-anchor="middle" dominant-baseline="middle">1</text>
  <line x1="136.00" y1="279.00" x2="136.00" y2="289.00" stroke="#64748b" stroke-width="1"  />
  <text x="136.00" y="302.00" font-family="Inter, sans-serif" font-size="11" font-weight="normal" fill="#64748b" text-anchor="middle" dominant-baseline="middle">2</text>
  <line x1="174.00" y1="279.00" x2="174.00" y2="289.00" stroke="#64748b" stroke-width="1"  />
  <text x="174.00" y="302.00" font-family="Inter, sans-serif" font-size="11" font-weight="normal" fill="#64748b" text-anchor="middle" dominant-baseline="middle">3</text>
  <line x1="212.00" y1="279.00" x2="212.00" y2="289.00" stroke="#64748b" stroke-width="1"  />
  <text x="212.00" y="302.00" font-family="Inter, sans-serif" font-size="11" font-weight="normal" fill="#64748b" text-anchor="middle" dominant-baseline="middle">4</text>
  <line x1="250.00" y1="279.00" x2="250.00" y2="289.00" stroke="#64748b" stroke-width="1"  />
  <text x="250.00" y="302.00" font-family="Inter, sans-serif" font-size="11" font-weight="normal" fill="#64748b" text-anchor="middle" dominant-baseline="middle">5</text>
  <line x1="288.00" y1="279.00" x2="288.00" y2="289.00" stroke="#64748b" stroke-width="1"  />
  <text x="288.00" y="302.00" font-family="Inter, sans-serif" font-size="11" font-weight="normal" fill="#64748b" text-anchor="middle" dominant-baseline="middle">6</text>
  <line x1="326.00" y1="279.00" x2="326.00" y2="289.00" stroke="#64748b" stroke-width="1"  />
  <text x="326.00" y="302.00" font-family="Inter, sans-serif" font-size="11" font-weight="normal" fill="#64748b" text-anchor="middle" dominant-baseline="middle">7</text>
  <line x1="364.00" y1="279.00" x2="364.00" y2="289.00" stroke="#64748b" stroke-width="1"  />
  <text x="364.00" y="302.00" font-family="Inter, sans-serif" font-size="11" font-weight="normal" fill="#64748b" text-anchor="middle" dominant-baseline="middle">8</text>
  <line x1="402.00" y1="279.00" x2="402.00" y2="289.00" stroke="#64748b" stroke-width="1"  />
  <text x="402.00" y="302.00" font-family="Inter, sans-serif" font-size="11" font-weight="normal" fill="#64748b" text-anchor="middle" dominant-baseline="middle">9</text>
  <line x1="440.00" y1="279.00" x2="440.00" y2="289.00" stroke="#64748b" stroke-width="1"  />
  <text x="440.00" y="302.00" font-family="Inter, sans-serif" font-size="11" font-weight="normal" fill="#64748b" text-anchor="middle" dominant-baseline="middle">10</text>
  <line x1="55.00" y1="340.00" x2="65.00" y2="340.00" stroke="#64748b" stroke-width="1"  />
  <text x="45.00" y="340.00" font-family="Inter, sans-serif" font-size="11" font-weight="normal" fill="#64748b" text-anchor="end" dominant-baseline="middle">-1</text>
  <line x1="55.00" y1="228.00" x2="65.00" y2="228.00" stroke="#64748b" stroke-width="1"  />
  <text x="45.00" y="228.00" font-family="Inter, sans-serif" font-size="11" font-weight="normal" fill="#64748b" text-anchor="end" dominant-baseline="middle">1</text>
  <line x1="55.00" y1="172.00" x2="65.00" y2="172.00" stroke="#64748b" stroke-width="1"  />
  <text x="45.00" y="172.00" font-family="Inter, sans-serif" font-size="11" font-weight="normal" fill="#64748b" text-anchor="end" dominant-baseline="middle">2</text>
  <line x1="55.00" y1="116.00" x2="65.00" y2="116.00" stroke="#64748b" stroke-width="1"  />
  <text x="45.00" y="116.00" font-family="Inter, sans-serif" font-size="11" font-weight="normal" fill="#64748b" text-anchor="end" dominant-baseline="middle">3</text>
  <line x1="55.00" y1="60.00" x2="65.00" y2="60.00" stroke="#64748b" stroke-width="1"  />
  <text x="45.00" y="60.00" font-family="Inter, sans-serif" font-size="11" font-weight="normal" fill="#64748b" text-anchor="end" dominant-baseline="middle">4</text>
  <polyline points="63.84,400.86 67.68,365.53 71.52,344.86 75.35,330.19 79.19,318.82 83.03,309.53 86.87,301.67 90.71,294.86 94.55,288.86 98.38,283.49 102.22,278.63 106.06,274.19 109.90,270.11 113.74,266.34 117.58,262.82 121.41,259.53 125.25,256.44 129.09,253.53 132.93,250.77 136.77,248.16 140.61,245.67 144.44,243.30 148.28,241.03 152.12,238.86 155.96,236.78 159.80,234.78 163.64,232.86 167.47,231.00 171.31,229.22 175.15,227.49 178.99,225.82 182.83,224.20 186.67,222.63 190.51,221.11 194.34,219.63 198.18,218.19 202.02,216.80 205.86,215.44 209.70,214.11 213.54,212.82 217.37,211.56 221.21,210.34 225.05,209.14 228.89,207.97 232.73,206.82 236.57,205.70 240.40,204.60 244.24,203.53 248.08,202.48 251.92,201.45 255.76,200.44 259.60,199.45 263.43,198.48 267.27,197.53 271.11,196.59 274.95,195.67 278.79,194.77 282.63,193.88 286.46,193.01 290.30,192.16 294.14,191.31 297.98,190.48 301.82,189.67 305.66,188.87 309.49,188.08 313.33,187.30 317.17,186.53 321.01,185.78 324.85,185.03 328.69,184.30 332.53,183.58 336.36,182.86 340.20,182.16 344.04,181.47 347.88,180.78 351.72,180.11 355.56,179.44 359.39,178.78 363.23,178.13 367.07,177.49 370.91,176.86 374.75,176.23 378.59,175.61 382.42,175.00 386.26,174.40 390.10,173.81 393.94,173.22 397.78,172.63 401.62,172.06 405.45,171.49 409.29,170.92 413.13,170.37 416.97,169.82 420.81,169.27 424.65,168.73 428.48,168.20 432.32,167.67 436.16,167.15 440.00,166.63" fill="none" stroke="#3b82f6" stroke-width="3"  stroke-linecap="round" stroke-linejoin="round"/>
  <circle cx="402.00" cy="172.00" r="9" fill="white" />
  <circle cx="402.00" cy="172.00" r="5" fill="#ef4444" stroke="white" stroke-width="2"/>
  <rect x="373.00" y="134.00" width="58.00" height="26.00" fill="white" stroke="#ef4444" stroke-width="1.5" rx="6"  />
  <text x="402.00" y="151.00" font-family="Inter, sans-serif" font-size="12" font-weight="bold" fill="#ef4444" text-anchor="middle" dominant-baseline="middle">(9, 2)</text>
  <rect x="60.00" y="70.00" width="160.00" height="50.00" fill="white" stroke="#e2e8f0" stroke-width="0" rx="8"  />
  <line x1="75.00" y1="90.00" x2="105.00" y2="90.00" stroke="#3b82f6" stroke-width="3"  />
  <text x="115.00" y="94.00" font-family="Inter, sans-serif" font-size="11" font-weight="normal" fill="#1e293b" text-anchor="start" dominant-baseline="middle">y=log₃(x)</text>
</svg>