<svg xmlns="http://www.w3.org/2000/svg" viewBox="0 0 500 350">
  <defs>
        <marker id="arrow-64748b-10" markerWidth="10" markerHeight="10" 
                refX="9.0" refY="5.0" orient="auto"
                markerUnits="userSpaceOnUse">
            <polygon points="0,0 10,5.0 0,10" fill="#64748b"/>
        </marker>

        <marker id="arrow-64748b-10" markerWidth="10" markerHeight="10" 
                refX="9.0" refY="5.0" orient="auto"
                markerUnits="userSpaceOnUse">
            <polygon points="0,0 10,5.0 0,10" fill="#64748b"/>
        </marker></defs>
  <rect x="0.00" y="0.00" width="500.00" height="350.00" fill="white" stroke="none" stroke-width="0" rx="0"  />
  <text x="250.00" y="30.00" font-family="Inter, sans-serif" font-size="16" font-weight="bold" fill="#1e293b" text-anchor="middle" dominant-baseline="middle">Decaimiento Exponencial (0 &lt; b &lt; 1)</text>
  <line x1="60.00" y1="290.00" x2="60.00" y2="60.00" stroke="#e2e8f0" stroke-width="0.5"  />
  <line x1="123.33" y1="290.00" x2="123.33" y2="60.00" stroke="#e2e8f0" stroke-width="0.5"  />
  <line x1="250.00" y1="290.00" x2="250.00" y2="60.00" stroke="#e2e8f0" stroke-width="0.5"  />
  <line x1="313.33" y1="290.00" x2="313.33" y2="60.00" stroke="#e2e8f0" stroke-width="0.5"  />
  <line x1="376.67" y1="290.00" x2="376.67" y2="60.00" stroke="#e2e8f0" stroke-width="0.5"  />
  <line x1="440.00" y1="290.00" x2="440.00" y2="60.00" stroke="#e2e8f0" stroke-width="0.5"  />
  <line x1="60.00" y1="227.27" x2="440.00" y2="227.27" stroke="#e2e8f0" stroke-width="0.5"  />
  <line x1="60.00" y1="185.45" x2="440.00" y2="185.45" stroke="#e2e8f0" stroke-width="0.5"  />
  <line x1="60.00" y1="143.64" x2="440.00" y2="143.64" stroke="#e2e8f0" stroke-width="0.5"  />
  <line x1="60.00" y1="101.82" x2="440.00" y2="101.82" stroke="#e2e8f0" stroke-width="0.5"  />
  <line x1="60.00" y1="60.00" x2="440.00" y2="60.00" stroke="#e2e8f0" stroke-width="0.5"  />
  <line x1="60.00" y1="269.09" x2="440.00" y2="269.09" stroke="#64748b" stroke-width="2"  marker-end="url(#arrow-64748b-10)"/>
  <line x1="186.67" y1="290.00" x2="186.67" y2="60.00" stroke="#64748b" stroke-width="2"  marker-end="url(#arrow-64748b-10)"/>
  <text x="435.00" y="289.09" font-family="Inter, sans-serif" font-size="14" font-weight="bold" fill="#64748b" text-anchor="middle" dominant-baseline="middle">x</text>
  <text x="166.67" y="70.00" font-family="Inter, sans-serif" font-size="14" font-weight="bold" fill="#64748b" text-anchor="middle" dominant-baseline="middle">y</text>
  <line x1="60.00" y1="264.09" x2="60.00" y2="274.09" stroke="#64748b" stroke-width="1"  />
  <text x="60.00" y="287.09" font-family="Inter, sans-serif" font-size="11" font-weight="normal" fill="#64748b" text-anchor="middle" dominant-baseline="middle">-2</text>
  <line x1="123.33" y1="264.09" x2="123.33" y2="274.09" stroke="#64748b" stroke-width="1"  />
  <text x="123.33" y="287.09" font-family="Inter, sans-serif" font-size="11" font-weight="normal" fill="#64748b" text-anchor="middle" dominant-baseline="middle">-1</text>
  <line x1="250.00" y1="264.09" x2="250.00" y2="274.09" stroke="#64748b" stroke-width="1"  />
  <text x="250.00" y="287.09" font-family="Inter, sans-serif" font-size="11" font-weight="normal" fill="#64748b" text-anchor="middle" dominant-baseline="middle">1</text>
  <line x1="313.33" y1="264.09" x2="313.33" y2="274.09" stroke="#64748b" stroke-width="1"  />
  <text x="313.33" y="287.09" font-family="Inter, sans-serif" font-size="11" font-weight="normal" fill="#64748b" text-anchor="middle" dominant-baseline="middle">2</text>
  <line x1="376.67" y1="264.09" x2="376.67" y2="274.09" stroke="#64748b" stroke-width="1"  />
  <text x="376.67" y="287.09" font-family="Inter, sans-serif" font-size="11" font-weight="normal" fill="#64748b" text-anchor="middle" dominant-baseline="middle">3</text>
  <line x1="440.00" y1="264.09" x2="440.00" y2="274.09" stroke="#64748b" stroke-width="1"  />
  <text x="440.00" y="287.09" font-family="Inter, sans-serif" font-size="11" font-weight="normal" fill="#64748b" text-anchor="middle" dominant-baseline="middle">4</text>
  <line x1="181.67" y1="227.27" x2="191.67" y2="227.27" stroke="#64748b" stroke-width="1"  />
  <text x="171.67" y="227.27" font-family="Inter, sans-serif" font-size="11" font-weight="normal" fill="#64748b" text-anchor="end" dominant-baseline="middle">2</text>
  <line x1="181.67" y1="185.45" x2="191.67" y2="185.45" stroke="#64748b" stroke-width="1"  />
  <text x="171.67" y="185.45" font-family="Inter, sans-serif" font-size="11" font-weight="normal" fill="#64748b" text-anchor="end" dominant-baseline="middle">4</text>
  <line x1="181.67" y1="143.64" x2="191.67" y2="143.64" stroke="#64748b" stroke-width="1"  />
  <text x="171.67" y="143.64" font-family="Inter, sans-serif" font-size="11" font-weight="normal" fill="#64748b" text-anchor="end" dominant-baseline="middle">6</text>
  <line x1="181.67" y1="101.82" x2="191.67" y2="101.82" stroke="#64748b" stroke-width="1"  />
  <text x="171.67" y="101.82" font-family="Inter, sans-serif" font-size="11" font-weight="normal" fill="#64748b" text-anchor="end" dominant-baseline="middle">8</text>
  <line x1="181.67" y1="60.00" x2="191.67" y2="60.00" stroke="#64748b" stroke-width="1"  />
  <text x="171.67" y="60.00" font-family="Inter, sans-serif" font-size="11" font-weight="normal" fill="#64748b" text-anchor="end" dominant-baseline="middle">10</text>
  <polyline points="60.00,185.45 63.84,188.90 67.68,192.19 71.52,195.36 75.35,198.39 79.19,201.30 83.03,204.09 86.87,206.76 90.71,209.33 94.55,211.79 98.38,214.14 102.22,216.40 106.06,218.57 109.90,220.65 113.74,222.64 117.58,224.55 121.41,226.39 125.25,228.14 129.09,229.83 132.93,231.44 136.77,232.99 140.61,234.48 144.44,235.90 148.28,237.27 152.12,238.57 155.96,239.83 159.80,241.03 163.64,242.19 167.47,243.29 171.31,244.36 175.15,245.37 178.99,246.35 182.83,247.28 186.67,248.18 190.51,249.04 194.34,249.87 198.18,250.66 202.02,251.42 205.86,252.14 209.70,252.84 213.54,253.51 217.37,254.15 221.21,254.76 225.05,255.35 228.89,255.92 232.73,256.46 236.57,256.98 240.40,257.48 244.24,257.96 248.08,258.41 251.92,258.85 255.76,259.27 259.60,259.68 263.43,260.07 267.27,260.44 271.11,260.79 274.95,261.13 278.79,261.46 282.63,261.78 286.46,262.08 290.30,262.37 294.14,262.64 297.98,262.91 301.82,263.16 305.66,263.41 309.49,263.64 313.33,263.86 317.17,264.08 321.01,264.28 324.85,264.48 328.69,264.67 332.53,264.85 336.36,265.03 340.20,265.20 344.04,265.36 347.88,265.51 351.72,265.66 355.56,265.80 359.39,265.93 363.23,266.06 367.07,266.19 370.91,266.31 374.75,266.42 378.59,266.53 382.42,266.64 386.26,266.74 390.10,266.83 393.94,266.93 397.78,267.02 401.62,267.10 405.45,267.18 409.29,267.26 413.13,267.34 416.97,267.41 420.81,267.48 424.65,267.54 428.48,267.61 432.32,267.67 436.16,267.73 440.00,267.78" fill="none" stroke="#22c55e" stroke-width="3"  stroke-linecap="round" stroke-linejoin="round"/>
  <circle cx="186.67" cy="248.18" r="9" fill="white" />
  <circle cx="186.67" cy="248.18" r="5" fill="#ef4444" stroke="white" stroke-width="2"/>
  <rect x="143.67" y="210.18" width="86.00" height="26.00" fill="white" stroke="#ef4444" stroke-width="1.5" rx="6"  />
  <text x="186.67" y="227.18" font-family="Inter, sans-serif" font-size="12" font-weight="bold" fill="#ef4444" text-anchor="middle" dominant-baseline="middle">Inicio (a)</text>
  <rect x="320.00" y="60.00" width="160.00" height="50.00" fill="white" stroke="#e2e8f0" stroke-width="0" rx="8"  />
  <line x1="335.00" y1="80.00" x2="365.00" y2="80.00" stroke="#22c55e" stroke-width="3"  />
  <text x="375.00" y="84.00" font-family="Inter, sans-serif" font-size="11" font-weight="normal" fill="#1e293b" text-anchor="start" dominant-baseline="middle">f(x) = a · (0.5)ˣ</text>
</svg>