<svg xmlns="http://www.w3.org/2000/svg" viewBox="0 0 600 500">
  <defs>
        <marker id="arrow-64748b-10" markerWidth="10" markerHeight="10" 
                refX="9.0" refY="5.0" orient="auto"
                markerUnits="userSpaceOnUse">
            <polygon points="0,0 10,5.0 0,10" fill="#64748b"/>
        </marker>

        <marker id="arrow-64748b-10" markerWidth="10" markerHeight="10" 
                refX="9.0" refY="5.0" orient="auto"
                markerUnits="userSpaceOnUse">
            <polygon points="0,0 10,5.0 0,10" fill="#64748b"/>
        </marker></defs>
  <rect x="0.00" y="0.00" width="600.00" height="500.00" fill="white" stroke="none" stroke-width="0" rx="0"  />
  <text x="300.00" y="30.00" font-family="Inter, sans-serif" font-size="16" font-weight="bold" fill="#1e293b" text-anchor="middle" dominant-baseline="middle">Función Logarítmica Básica: y = log₂(x)</text>
  <line x1="82.86" y1="440.00" x2="82.86" y2="60.00" stroke="#e2e8f0" stroke-width="0.5"  />
  <line x1="174.29" y1="440.00" x2="174.29" y2="60.00" stroke="#e2e8f0" stroke-width="0.5"  />
  <line x1="220.00" y1="440.00" x2="220.00" y2="60.00" stroke="#e2e8f0" stroke-width="0.5"  />
  <line x1="265.71" y1="440.00" x2="265.71" y2="60.00" stroke="#e2e8f0" stroke-width="0.5"  />
  <line x1="311.43" y1="440.00" x2="311.43" y2="60.00" stroke="#e2e8f0" stroke-width="0.5"  />
  <line x1="357.14" y1="440.00" x2="357.14" y2="60.00" stroke="#e2e8f0" stroke-width="0.5"  />
  <line x1="402.86" y1="440.00" x2="402.86" y2="60.00" stroke="#e2e8f0" stroke-width="0.5"  />
  <line x1="448.57" y1="440.00" x2="448.57" y2="60.00" stroke="#e2e8f0" stroke-width="0.5"  />
  <line x1="494.29" y1="440.00" x2="494.29" y2="60.00" stroke="#e2e8f0" stroke-width="0.5"  />
  <line x1="540.00" y1="440.00" x2="540.00" y2="60.00" stroke="#e2e8f0" stroke-width="0.5"  />
  <line x1="60.00" y1="440.00" x2="540.00" y2="440.00" stroke="#e2e8f0" stroke-width="0.5"  />
  <line x1="60.00" y1="392.50" x2="540.00" y2="392.50" stroke="#e2e8f0" stroke-width="0.5"  />
  <line x1="60.00" y1="345.00" x2="540.00" y2="345.00" stroke="#e2e8f0" stroke-width="0.5"  />
  <line x1="60.00" y1="297.50" x2="540.00" y2="297.50" stroke="#e2e8f0" stroke-width="0.5"  />
  <line x1="60.00" y1="202.50" x2="540.00" y2="202.50" stroke="#e2e8f0" stroke-width="0.5"  />
  <line x1="60.00" y1="155.00" x2="540.00" y2="155.00" stroke="#e2e8f0" stroke-width="0.5"  />
  <line x1="60.00" y1="107.50" x2="540.00" y2="107.50" stroke="#e2e8f0" stroke-width="0.5"  />
  <line x1="60.00" y1="60.00" x2="540.00" y2="60.00" stroke="#e2e8f0" stroke-width="0.5"  />
  <line x1="60.00" y1="250.00" x2="540.00" y2="250.00" stroke="#64748b" stroke-width="2"  marker-end="url(#arrow-64748b-10)"/>
  <line x1="128.57" y1="440.00" x2="128.57" y2="60.00" stroke="#64748b" stroke-width="2"  marker-end="url(#arrow-64748b-10)"/>
  <text x="535.00" y="270.00" font-family="Inter, sans-serif" font-size="14" font-weight="bold" fill="#64748b" text-anchor="middle" dominant-baseline="middle">x</text>
  <text x="108.57" y="70.00" font-family="Inter, sans-serif" font-size="14" font-weight="bold" fill="#64748b" text-anchor="middle" dominant-baseline="middle">y</text>
  <line x1="82.86" y1="245.00" x2="82.86" y2="255.00" stroke="#64748b" stroke-width="1"  />
  <text x="82.86" y="268.00" font-family="Inter, sans-serif" font-size="11" font-weight="normal" fill="#64748b" text-anchor="middle" dominant-baseline="middle">-1</text>
  <line x1="174.29" y1="245.00" x2="174.29" y2="255.00" stroke="#64748b" stroke-width="1"  />
  <text x="174.29" y="268.00" font-family="Inter, sans-serif" font-size="11" font-weight="normal" fill="#64748b" text-anchor="middle" dominant-baseline="middle">1</text>
  <line x1="220.00" y1="245.00" x2="220.00" y2="255.00" stroke="#64748b" stroke-width="1"  />
  <text x="220.00" y="268.00" font-family="Inter, sans-serif" font-size="11" font-weight="normal" fill="#64748b" text-anchor="middle" dominant-baseline="middle">2</text>
  <line x1="265.71" y1="245.00" x2="265.71" y2="255.00" stroke="#64748b" stroke-width="1"  />
  <text x="265.71" y="268.00" font-family="Inter, sans-serif" font-size="11" font-weight="normal" fill="#64748b" text-anchor="middle" dominant-baseline="middle">3</text>
  <line x1="311.43" y1="245.00" x2="311.43" y2="255.00" stroke="#64748b" stroke-width="1"  />
  <text x="311.43" y="268.00" font-family="Inter, sans-serif" font-size="11" font-weight="normal" fill="#64748b" text-anchor="middle" dominant-baseline="middle">4</text>
  <line x1="357.14" y1="245.00" x2="357.14" y2="255.00" stroke="#64748b" stroke-width="1"  />
  <text x="357.14" y="268.00" font-family="Inter, sans-serif" font-size="11" font-weight="normal" fill="#64748b" text-anchor="middle" dominant-baseline="middle">5</text>
  <line x1="402.86" y1="245.00" x2="402.86" y2="255.00" stroke="#64748b" stroke-width="1"  />
  <text x="402.86" y="268.00" font-family="Inter, sans-serif" font-size="11" font-weight="normal" fill="#64748b" text-anchor="middle" dominant-baseline="middle">6</text>
  <line x1="448.57" y1="245.00" x2="448.57" y2="255.00" stroke="#64748b" stroke-width="1"  />
  <text x="448.57" y="268.00" font-family="Inter, sans-serif" font-size="11" font-weight="normal" fill="#64748b" text-anchor="middle" dominant-baseline="middle">7</text>
  <line x1="494.29" y1="245.00" x2="494.29" y2="255.00" stroke="#64748b" stroke-width="1"  />
  <text x="494.29" y="268.00" font-family="Inter, sans-serif" font-size="11" font-weight="normal" fill="#64748b" text-anchor="middle" dominant-baseline="middle">8</text>
  <line x1="540.00" y1="245.00" x2="540.00" y2="255.00" stroke="#64748b" stroke-width="1"  />
  <text x="540.00" y="268.00" font-family="Inter, sans-serif" font-size="11" font-weight="normal" fill="#64748b" text-anchor="middle" dominant-baseline="middle">9</text>
  <line x1="123.57" y1="440.00" x2="133.57" y2="440.00" stroke="#64748b" stroke-width="1"  />
  <text x="113.57" y="440.00" font-family="Inter, sans-serif" font-size="11" font-weight="normal" fill="#64748b" text-anchor="end" dominant-baseline="middle">-4</text>
  <line x1="123.57" y1="392.50" x2="133.57" y2="392.50" stroke="#64748b" stroke-width="1"  />
  <text x="113.57" y="392.50" font-family="Inter, sans-serif" font-size="11" font-weight="normal" fill="#64748b" text-anchor="end" dominant-baseline="middle">-3</text>
  <line x1="123.57" y1="345.00" x2="133.57" y2="345.00" stroke="#64748b" stroke-width="1"  />
  <text x="113.57" y="345.00" font-family="Inter, sans-serif" font-size="11" font-weight="normal" fill="#64748b" text-anchor="end" dominant-baseline="middle">-2</text>
  <line x1="123.57" y1="297.50" x2="133.57" y2="297.50" stroke="#64748b" stroke-width="1"  />
  <text x="113.57" y="297.50" font-family="Inter, sans-serif" font-size="11" font-weight="normal" fill="#64748b" text-anchor="end" dominant-baseline="middle">-1</text>
  <line x1="123.57" y1="202.50" x2="133.57" y2="202.50" stroke="#64748b" stroke-width="1"  />
  <text x="113.57" y="202.50" font-family="Inter, sans-serif" font-size="11" font-weight="normal" fill="#64748b" text-anchor="end" dominant-baseline="middle">1</text>
  <line x1="123.57" y1="155.00" x2="133.57" y2="155.00" stroke="#64748b" stroke-width="1"  />
  <text x="113.57" y="155.00" font-family="Inter, sans-serif" font-size="11" font-weight="normal" fill="#64748b" text-anchor="end" dominant-baseline="middle">2</text>
  <line x1="123.57" y1="107.50" x2="133.57" y2="107.50" stroke="#64748b" stroke-width="1"  />
  <text x="113.57" y="107.50" font-family="Inter, sans-serif" font-size="11" font-weight="normal" fill="#64748b" text-anchor="end" dominant-baseline="middle">3</text>
  <line x1="123.57" y1="60.00" x2="133.57" y2="60.00" stroke="#64748b" stroke-width="1"  />
  <text x="113.57" y="60.00" font-family="Inter, sans-serif" font-size="11" font-weight="normal" fill="#64748b" text-anchor="end" dominant-baseline="middle">4</text>
  <circle cx="128.57" cy="430.50" r="9" fill="white" />
  <circle cx="128.57" cy="430.50" r="5" fill="#ef4444" stroke="white" stroke-width="2"/>
  <circle cx="128.57" cy="411.50" r="9" fill="white" />
  <circle cx="128.57" cy="411.50" r="5" fill="#ef4444" stroke="white" stroke-width="2"/>
  <circle cx="128.57" cy="392.50" r="9" fill="white" />
  <circle cx="128.57" cy="392.50" r="5" fill="#ef4444" stroke="white" stroke-width="2"/>
  <circle cx="128.57" cy="373.50" r="9" fill="white" />
  <circle cx="128.57" cy="373.50" r="5" fill="#ef4444" stroke="white" stroke-width="2"/>
  <circle cx="128.57" cy="354.50" r="9" fill="white" />
  <circle cx="128.57" cy="354.50" r="5" fill="#ef4444" stroke="white" stroke-width="2"/>
  <circle cx="128.57" cy="335.50" r="9" fill="white" />
  <circle cx="128.57" cy="335.50" r="5" fill="#ef4444" stroke="white" stroke-width="2"/>
  <circle cx="128.57" cy="316.50" r="9" fill="white" />
  <circle cx="128.57" cy="316.50" r="5" fill="#ef4444" stroke="white" stroke-width="2"/>
  <circle cx="128.57" cy="297.50" r="9" fill="white" />
  <circle cx="128.57" cy="297.50" r="5" fill="#ef4444" stroke="white" stroke-width="2"/>
  <circle cx="128.57" cy="278.50" r="9" fill="white" />
  <circle cx="128.57" cy="278.50" r="5" fill="#ef4444" stroke="white" stroke-width="2"/>
  <circle cx="128.57" cy="259.50" r="9" fill="white" />
  <circle cx="128.57" cy="259.50" r="5" fill="#ef4444" stroke="white" stroke-width="2"/>
  <circle cx="128.57" cy="240.50" r="9" fill="white" />
  <circle cx="128.57" cy="240.50" r="5" fill="#ef4444" stroke="white" stroke-width="2"/>
  <circle cx="128.57" cy="221.50" r="9" fill="white" />
  <circle cx="128.57" cy="221.50" r="5" fill="#ef4444" stroke="white" stroke-width="2"/>
  <circle cx="128.57" cy="202.50" r="9" fill="white" />
  <circle cx="128.57" cy="202.50" r="5" fill="#ef4444" stroke="white" stroke-width="2"/>
  <circle cx="128.57" cy="183.50" r="9" fill="white" />
  <circle cx="128.57" cy="183.50" r="5" fill="#ef4444" stroke="white" stroke-width="2"/>
  <circle cx="128.57" cy="164.50" r="9" fill="white" />
  <circle cx="128.57" cy="164.50" r="5" fill="#ef4444" stroke="white" stroke-width="2"/>
  <circle cx="128.57" cy="145.50" r="9" fill="white" />
  <circle cx="128.57" cy="145.50" r="5" fill="#ef4444" stroke="white" stroke-width="2"/>
  <circle cx="128.57" cy="126.50" r="9" fill="white" />
  <circle cx="128.57" cy="126.50" r="5" fill="#ef4444" stroke="white" stroke-width="2"/>
  <circle cx="128.57" cy="107.50" r="9" fill="white" />
  <circle cx="128.57" cy="107.50" r="5" fill="#ef4444" stroke="white" stroke-width="2"/>
  <circle cx="128.57" cy="88.50" r="9" fill="white" />
  <circle cx="128.57" cy="88.50" r="5" fill="#ef4444" stroke="white" stroke-width="2"/>
  <circle cx="128.57" cy="69.50" r="9" fill="white" />
  <circle cx="128.57" cy="69.50" r="5" fill="#ef4444" stroke="white" stroke-width="2"/>
  <polyline points="132.73,414.32 137.58,361.34 142.42,331.82 147.27,311.25 152.12,295.45 156.97,282.63 161.82,271.82 166.67,262.49 171.52,254.28 176.36,246.95 181.21,240.33 186.06,234.29 190.91,228.75 195.76,223.61 200.61,218.84 205.45,214.37 210.30,210.18 215.15,206.23 220.00,202.50 224.85,198.96 229.70,195.59 234.55,192.38 239.39,189.32 244.24,186.38 249.09,183.57 253.94,180.87 258.79,178.27 263.64,175.76 268.48,173.34 273.33,171.01 278.18,168.75 283.03,166.57 287.88,164.45 292.73,162.39 297.58,160.40 302.42,158.46 307.27,156.58 312.12,154.74 316.97,152.95 321.82,151.21 326.67,149.51 331.52,147.86 336.36,146.24 341.21,144.66 346.06,143.11 350.91,141.60 355.76,140.13 360.61,138.68 365.45,137.26 370.30,135.87 375.15,134.51 380.00,133.18 384.85,131.87 389.70,130.58 394.55,129.32 399.39,128.09 404.24,126.87 409.09,125.67 413.94,124.50 418.79,123.35 423.64,122.21 428.48,121.09 433.33,119.99 438.18,118.91 443.03,117.85 447.88,116.80 452.73,115.77 457.58,114.75 462.42,113.75 467.27,112.76 472.12,111.78 476.97,110.82 481.82,109.88 486.67,108.94 491.52,108.02 496.36,107.11 501.21,106.21 506.06,105.33 510.91,104.45 515.76,103.59 520.61,102.74 525.45,101.90 530.30,101.06 535.15,100.24 540.00,99.43" fill="none" stroke="#3b82f6" stroke-width="3"  stroke-linecap="round" stroke-linejoin="round"/>
  <circle cx="174.29" cy="250.00" r="9" fill="white" />
  <circle cx="174.29" cy="250.00" r="5" fill="#22c55e" stroke="white" stroke-width="2"/>
  <rect x="145.29" y="212.00" width="58.00" height="26.00" fill="white" stroke="#22c55e" stroke-width="1.5" rx="6"  />
  <text x="174.29" y="229.00" font-family="Inter, sans-serif" font-size="12" font-weight="bold" fill="#22c55e" text-anchor="middle" dominant-baseline="middle">(1, 0)</text>
  <circle cx="220.00" cy="202.50" r="9" fill="white" />
  <circle cx="220.00" cy="202.50" r="5" fill="#22c55e" stroke="white" stroke-width="2"/>
  <rect x="191.00" y="164.50" width="58.00" height="26.00" fill="white" stroke="#22c55e" stroke-width="1.5" rx="6"  />
  <text x="220.00" y="181.50" font-family="Inter, sans-serif" font-size="12" font-weight="bold" fill="#22c55e" text-anchor="middle" dominant-baseline="middle">(2, 1)</text>
  <circle cx="311.43" cy="155.00" r="9" fill="white" />
  <circle cx="311.43" cy="155.00" r="5" fill="#22c55e" stroke="white" stroke-width="2"/>
  <rect x="282.43" y="117.00" width="58.00" height="26.00" fill="white" stroke="#22c55e" stroke-width="1.5" rx="6"  />
  <text x="311.43" y="134.00" font-family="Inter, sans-serif" font-size="12" font-weight="bold" fill="#22c55e" text-anchor="middle" dominant-baseline="middle">(4, 2)</text>
  <circle cx="494.29" cy="107.50" r="9" fill="white" />
  <circle cx="494.29" cy="107.50" r="5" fill="#22c55e" stroke="white" stroke-width="2"/>
  <rect x="465.29" y="69.50" width="58.00" height="26.00" fill="white" stroke="#22c55e" stroke-width="1.5" rx="6"  />
  <text x="494.29" y="86.50" font-family="Inter, sans-serif" font-size="12" font-weight="bold" fill="#22c55e" text-anchor="middle" dominant-baseline="middle">(8, 3)</text>
  <circle cx="151.43" cy="297.50" r="9" fill="white" />
  <circle cx="151.43" cy="297.50" r="5" fill="#22c55e" stroke="white" stroke-width="2"/>
  <rect x="111.93" y="259.50" width="79.00" height="26.00" fill="white" stroke="#22c55e" stroke-width="1.5" rx="6"  />
  <text x="151.43" y="276.50" font-family="Inter, sans-serif" font-size="12" font-weight="bold" fill="#22c55e" text-anchor="middle" dominant-baseline="middle">(0.5, -1)</text>
  <circle cx="140.00" cy="345.00" r="9" fill="white" />
  <circle cx="140.00" cy="345.00" r="5" fill="#22c55e" stroke="white" stroke-width="2"/>
  <rect x="97.00" y="307.00" width="86.00" height="26.00" fill="white" stroke="#22c55e" stroke-width="1.5" rx="6"  />
  <text x="140.00" y="324.00" font-family="Inter, sans-serif" font-size="12" font-weight="bold" fill="#22c55e" text-anchor="middle" dominant-baseline="middle">(0.25, -2)</text>
  <rect x="335.00" y="60.00" width="245.00" height="70.00" fill="white" stroke="#e2e8f0" stroke-width="0" rx="8"  />
  <line x1="350.00" y1="80.00" x2="380.00" y2="80.00" stroke="#ef4444" stroke-width="3" stroke-dasharray="5,5" />
  <text x="390.00" y="84.00" font-family="Inter, sans-serif" font-size="11" font-weight="normal" fill="#1e293b" text-anchor="start" dominant-baseline="middle">Asíntota (Pared Vertical)</text>
  <line x1="350.00" y1="100.00" x2="380.00" y2="100.00" stroke="#3b82f6" stroke-width="3"  />
  <text x="390.00" y="104.00" font-family="Inter, sans-serif" font-size="11" font-weight="normal" fill="#1e293b" text-anchor="start" dominant-baseline="middle">f(x) = log₂(x)</text>
</svg>