<svg xmlns="http://www.w3.org/2000/svg" viewBox="0 0 600 500">
  <defs>
        <marker id="arrow-64748b-10" markerWidth="10" markerHeight="10" 
                refX="9.0" refY="5.0" orient="auto"
                markerUnits="userSpaceOnUse">
            <polygon points="0,0 10,5.0 0,10" fill="#64748b"/>
        </marker>

        <marker id="arrow-64748b-10" markerWidth="10" markerHeight="10" 
                refX="9.0" refY="5.0" orient="auto"
                markerUnits="userSpaceOnUse">
            <polygon points="0,0 10,5.0 0,10" fill="#64748b"/>
        </marker></defs>
  <rect x="0.00" y="0.00" width="600.00" height="500.00" fill="white" stroke="none" stroke-width="0" rx="0"  />
  <text x="300.00" y="30.00" font-family="Inter, sans-serif" font-size="16" font-weight="bold" fill="#1e293b" text-anchor="middle" dominant-baseline="middle">Función Logarítmica Básica: y = log₂(x)</text>
  <line x1="60.00" y1="440.00" x2="60.00" y2="60.00" stroke="#e2e8f0" stroke-width="0.5"  />
  <line x1="156.00" y1="440.00" x2="156.00" y2="60.00" stroke="#e2e8f0" stroke-width="0.5"  />
  <line x1="204.00" y1="440.00" x2="204.00" y2="60.00" stroke="#e2e8f0" stroke-width="0.5"  />
  <line x1="252.00" y1="440.00" x2="252.00" y2="60.00" stroke="#e2e8f0" stroke-width="0.5"  />
  <line x1="300.00" y1="440.00" x2="300.00" y2="60.00" stroke="#e2e8f0" stroke-width="0.5"  />
  <line x1="348.00" y1="440.00" x2="348.00" y2="60.00" stroke="#e2e8f0" stroke-width="0.5"  />
  <line x1="396.00" y1="440.00" x2="396.00" y2="60.00" stroke="#e2e8f0" stroke-width="0.5"  />
  <line x1="444.00" y1="440.00" x2="444.00" y2="60.00" stroke="#e2e8f0" stroke-width="0.5"  />
  <line x1="492.00" y1="440.00" x2="492.00" y2="60.00" stroke="#e2e8f0" stroke-width="0.5"  />
  <line x1="540.00" y1="440.00" x2="540.00" y2="60.00" stroke="#e2e8f0" stroke-width="0.5"  />
  <line x1="60.00" y1="440.00" x2="540.00" y2="440.00" stroke="#e2e8f0" stroke-width="0.5"  />
  <line x1="60.00" y1="392.50" x2="540.00" y2="392.50" stroke="#e2e8f0" stroke-width="0.5"  />
  <line x1="60.00" y1="345.00" x2="540.00" y2="345.00" stroke="#e2e8f0" stroke-width="0.5"  />
  <line x1="60.00" y1="297.50" x2="540.00" y2="297.50" stroke="#e2e8f0" stroke-width="0.5"  />
  <line x1="60.00" y1="202.50" x2="540.00" y2="202.50" stroke="#e2e8f0" stroke-width="0.5"  />
  <line x1="60.00" y1="155.00" x2="540.00" y2="155.00" stroke="#e2e8f0" stroke-width="0.5"  />
  <line x1="60.00" y1="107.50" x2="540.00" y2="107.50" stroke="#e2e8f0" stroke-width="0.5"  />
  <line x1="60.00" y1="60.00" x2="540.00" y2="60.00" stroke="#e2e8f0" stroke-width="0.5"  />
  <line x1="60.00" y1="250.00" x2="540.00" y2="250.00" stroke="#64748b" stroke-width="2"  marker-end="url(#arrow-64748b-10)"/>
  <line x1="108.00" y1="440.00" x2="108.00" y2="60.00" stroke="#64748b" stroke-width="2"  marker-end="url(#arrow-64748b-10)"/>
  <text x="535.00" y="270.00" font-family="Inter, sans-serif" font-size="14" font-weight="bold" fill="#64748b" text-anchor="middle" dominant-baseline="middle">x</text>
  <text x="88.00" y="70.00" font-family="Inter, sans-serif" font-size="14" font-weight="bold" fill="#64748b" text-anchor="middle" dominant-baseline="middle">y</text>
  <line x1="60.00" y1="245.00" x2="60.00" y2="255.00" stroke="#64748b" stroke-width="1"  />
  <text x="60.00" y="268.00" font-family="Inter, sans-serif" font-size="11" font-weight="normal" fill="#64748b" text-anchor="middle" dominant-baseline="middle">-1</text>
  <line x1="156.00" y1="245.00" x2="156.00" y2="255.00" stroke="#64748b" stroke-width="1"  />
  <text x="156.00" y="268.00" font-family="Inter, sans-serif" font-size="11" font-weight="normal" fill="#64748b" text-anchor="middle" dominant-baseline="middle">1</text>
  <line x1="204.00" y1="245.00" x2="204.00" y2="255.00" stroke="#64748b" stroke-width="1"  />
  <text x="204.00" y="268.00" font-family="Inter, sans-serif" font-size="11" font-weight="normal" fill="#64748b" text-anchor="middle" dominant-baseline="middle">2</text>
  <line x1="252.00" y1="245.00" x2="252.00" y2="255.00" stroke="#64748b" stroke-width="1"  />
  <text x="252.00" y="268.00" font-family="Inter, sans-serif" font-size="11" font-weight="normal" fill="#64748b" text-anchor="middle" dominant-baseline="middle">3</text>
  <line x1="300.00" y1="245.00" x2="300.00" y2="255.00" stroke="#64748b" stroke-width="1"  />
  <text x="300.00" y="268.00" font-family="Inter, sans-serif" font-size="11" font-weight="normal" fill="#64748b" text-anchor="middle" dominant-baseline="middle">4</text>
  <line x1="348.00" y1="245.00" x2="348.00" y2="255.00" stroke="#64748b" stroke-width="1"  />
  <text x="348.00" y="268.00" font-family="Inter, sans-serif" font-size="11" font-weight="normal" fill="#64748b" text-anchor="middle" dominant-baseline="middle">5</text>
  <line x1="396.00" y1="245.00" x2="396.00" y2="255.00" stroke="#64748b" stroke-width="1"  />
  <text x="396.00" y="268.00" font-family="Inter, sans-serif" font-size="11" font-weight="normal" fill="#64748b" text-anchor="middle" dominant-baseline="middle">6</text>
  <line x1="444.00" y1="245.00" x2="444.00" y2="255.00" stroke="#64748b" stroke-width="1"  />
  <text x="444.00" y="268.00" font-family="Inter, sans-serif" font-size="11" font-weight="normal" fill="#64748b" text-anchor="middle" dominant-baseline="middle">7</text>
  <line x1="492.00" y1="245.00" x2="492.00" y2="255.00" stroke="#64748b" stroke-width="1"  />
  <text x="492.00" y="268.00" font-family="Inter, sans-serif" font-size="11" font-weight="normal" fill="#64748b" text-anchor="middle" dominant-baseline="middle">8</text>
  <line x1="540.00" y1="245.00" x2="540.00" y2="255.00" stroke="#64748b" stroke-width="1"  />
  <text x="540.00" y="268.00" font-family="Inter, sans-serif" font-size="11" font-weight="normal" fill="#64748b" text-anchor="middle" dominant-baseline="middle">9</text>
  <line x1="103.00" y1="440.00" x2="113.00" y2="440.00" stroke="#64748b" stroke-width="1"  />
  <text x="93.00" y="440.00" font-family="Inter, sans-serif" font-size="11" font-weight="normal" fill="#64748b" text-anchor="end" dominant-baseline="middle">-4</text>
  <line x1="103.00" y1="392.50" x2="113.00" y2="392.50" stroke="#64748b" stroke-width="1"  />
  <text x="93.00" y="392.50" font-family="Inter, sans-serif" font-size="11" font-weight="normal" fill="#64748b" text-anchor="end" dominant-baseline="middle">-3</text>
  <line x1="103.00" y1="345.00" x2="113.00" y2="345.00" stroke="#64748b" stroke-width="1"  />
  <text x="93.00" y="345.00" font-family="Inter, sans-serif" font-size="11" font-weight="normal" fill="#64748b" text-anchor="end" dominant-baseline="middle">-2</text>
  <line x1="103.00" y1="297.50" x2="113.00" y2="297.50" stroke="#64748b" stroke-width="1"  />
  <text x="93.00" y="297.50" font-family="Inter, sans-serif" font-size="11" font-weight="normal" fill="#64748b" text-anchor="end" dominant-baseline="middle">-1</text>
  <line x1="103.00" y1="202.50" x2="113.00" y2="202.50" stroke="#64748b" stroke-width="1"  />
  <text x="93.00" y="202.50" font-family="Inter, sans-serif" font-size="11" font-weight="normal" fill="#64748b" text-anchor="end" dominant-baseline="middle">1</text>
  <line x1="103.00" y1="155.00" x2="113.00" y2="155.00" stroke="#64748b" stroke-width="1"  />
  <text x="93.00" y="155.00" font-family="Inter, sans-serif" font-size="11" font-weight="normal" fill="#64748b" text-anchor="end" dominant-baseline="middle">2</text>
  <line x1="103.00" y1="107.50" x2="113.00" y2="107.50" stroke="#64748b" stroke-width="1"  />
  <text x="93.00" y="107.50" font-family="Inter, sans-serif" font-size="11" font-weight="normal" fill="#64748b" text-anchor="end" dominant-baseline="middle">3</text>
  <line x1="103.00" y1="60.00" x2="113.00" y2="60.00" stroke="#64748b" stroke-width="1"  />
  <text x="93.00" y="60.00" font-family="Inter, sans-serif" font-size="11" font-weight="normal" fill="#64748b" text-anchor="end" dominant-baseline="middle">4</text>
  <polyline points="108.48,564.89 113.33,400.57 118.18,356.26 123.03,329.57 127.88,310.41 132.73,295.45 137.58,283.18 142.42,272.78 147.27,263.75 152.12,255.77 156.97,248.63 161.82,242.16 166.67,236.25 171.52,230.81 176.36,225.77 181.21,221.07 186.06,216.68 190.91,212.55 195.76,208.65 200.61,204.97 205.45,201.47 210.30,198.14 215.15,194.97 220.00,191.94 224.85,189.03 229.70,186.25 234.55,183.57 239.39,180.99 244.24,178.51 249.09,176.11 253.94,173.80 258.79,171.56 263.64,169.39 268.48,167.29 273.33,165.25 278.18,163.27 283.03,161.34 287.88,159.47 292.73,157.65 297.58,155.87 302.42,154.14 307.27,152.45 312.12,150.80 316.97,149.20 321.82,147.62 326.67,146.09 331.52,144.58 336.36,143.11 341.21,141.67 346.06,140.26 350.91,138.88 355.76,137.53 360.61,136.20 365.45,134.90 370.30,133.62 375.15,132.36 380.00,131.13 384.85,129.92 389.70,128.73 394.55,127.56 399.39,126.41 404.24,125.28 409.09,124.17 413.94,123.07 418.79,122.00 423.64,120.94 428.48,119.89 433.33,118.86 438.18,117.85 443.03,116.85 447.88,115.86 452.73,114.89 457.58,113.94 462.42,112.99 467.27,112.06 472.12,111.14 476.97,110.24 481.82,109.34 486.67,108.46 491.52,107.59 496.36,106.73 501.21,105.88 506.06,105.04 510.91,104.21 515.76,103.39 520.61,102.58 525.45,101.78 530.30,100.98 535.15,100.20 540.00,99.43" fill="none" stroke="#3b82f6" stroke-width="3"  stroke-linecap="round" stroke-linejoin="round"/>
  <circle cx="156.00" cy="250.00" r="9" fill="white" />
  <circle cx="156.00" cy="250.00" r="5" fill="#22c55e" stroke="white" stroke-width="2"/>
  <rect x="127.00" y="212.00" width="58.00" height="26.00" fill="white" stroke="#22c55e" stroke-width="1.5" rx="6"  />
  <text x="156.00" y="229.00" font-family="Inter, sans-serif" font-size="12" font-weight="bold" fill="#22c55e" text-anchor="middle" dominant-baseline="middle">(1, 0)</text>
  <circle cx="204.00" cy="202.50" r="9" fill="white" />
  <circle cx="204.00" cy="202.50" r="5" fill="#22c55e" stroke="white" stroke-width="2"/>
  <rect x="175.00" y="164.50" width="58.00" height="26.00" fill="white" stroke="#22c55e" stroke-width="1.5" rx="6"  />
  <text x="204.00" y="181.50" font-family="Inter, sans-serif" font-size="12" font-weight="bold" fill="#22c55e" text-anchor="middle" dominant-baseline="middle">(2, 1)</text>
  <circle cx="300.00" cy="155.00" r="9" fill="white" />
  <circle cx="300.00" cy="155.00" r="5" fill="#22c55e" stroke="white" stroke-width="2"/>
  <rect x="271.00" y="117.00" width="58.00" height="26.00" fill="white" stroke="#22c55e" stroke-width="1.5" rx="6"  />
  <text x="300.00" y="134.00" font-family="Inter, sans-serif" font-size="12" font-weight="bold" fill="#22c55e" text-anchor="middle" dominant-baseline="middle">(4, 2)</text>
  <circle cx="492.00" cy="107.50" r="9" fill="white" />
  <circle cx="492.00" cy="107.50" r="5" fill="#22c55e" stroke="white" stroke-width="2"/>
  <rect x="463.00" y="69.50" width="58.00" height="26.00" fill="white" stroke="#22c55e" stroke-width="1.5" rx="6"  />
  <text x="492.00" y="86.50" font-family="Inter, sans-serif" font-size="12" font-weight="bold" fill="#22c55e" text-anchor="middle" dominant-baseline="middle">(8, 3)</text>
  <circle cx="132.00" cy="297.50" r="9" fill="white" />
  <circle cx="132.00" cy="297.50" r="5" fill="#22c55e" stroke="white" stroke-width="2"/>
  <rect x="92.50" y="259.50" width="79.00" height="26.00" fill="white" stroke="#22c55e" stroke-width="1.5" rx="6"  />
  <text x="132.00" y="276.50" font-family="Inter, sans-serif" font-size="12" font-weight="bold" fill="#22c55e" text-anchor="middle" dominant-baseline="middle">(0.5, -1)</text>
  <circle cx="120.00" cy="345.00" r="9" fill="white" />
  <circle cx="120.00" cy="345.00" r="5" fill="#22c55e" stroke="white" stroke-width="2"/>
  <rect x="77.00" y="307.00" width="86.00" height="26.00" fill="white" stroke="#22c55e" stroke-width="1.5" rx="6"  />
  <text x="120.00" y="324.00" font-family="Inter, sans-serif" font-size="12" font-weight="bold" fill="#22c55e" text-anchor="middle" dominant-baseline="middle">(0.25, -2)</text>
  <rect x="412.00" y="60.00" width="168.00" height="70.00" fill="white" stroke="#e2e8f0" stroke-width="0" rx="8"  />
  <line x1="427.00" y1="80.00" x2="457.00" y2="80.00" stroke="#3b82f6" stroke-width="3"  />
  <text x="467.00" y="84.00" font-family="Inter, sans-serif" font-size="11" font-weight="normal" fill="#1e293b" text-anchor="start" dominant-baseline="middle">f(x) = log₂(x)</text>
  <line x1="427.00" y1="100.00" x2="457.00" y2="100.00" stroke="#ef4444" stroke-width="3" stroke-dasharray="5,5" />
  <text x="467.00" y="104.00" font-family="Inter, sans-serif" font-size="11" font-weight="normal" fill="#1e293b" text-anchor="start" dominant-baseline="middle">Asíntota (x=0)</text>
</svg>