<svg xmlns="http://www.w3.org/2000/svg" viewBox="0 0 1000 850">
  <defs>
        <marker id="arrow-94a3b8-10" markerWidth="10" markerHeight="10" 
                refX="9.0" refY="5.0" orient="auto"
                markerUnits="userSpaceOnUse">
            <polygon points="0,0 10,5.0 0,10" fill="#94a3b8"/>
        </marker>

        <marker id="arrow-94a3b8-10" markerWidth="10" markerHeight="10" 
                refX="9.0" refY="5.0" orient="auto"
                markerUnits="userSpaceOnUse">
            <polygon points="0,0 10,5.0 0,10" fill="#94a3b8"/>
        </marker>

        <marker id="arrow-94a3b8-10" markerWidth="10" markerHeight="10" 
                refX="9.0" refY="5.0" orient="auto"
                markerUnits="userSpaceOnUse">
            <polygon points="0,0 10,5.0 0,10" fill="#94a3b8"/>
        </marker></defs>
  <rect x="0.00" y="0.00" width="1000.00" height="850.00" fill="#f8fafc" stroke="none" stroke-width="0" rx="12"  />
  <text x="500.00" y="50.00" font-family="Inter, sans-serif" font-size="38" font-weight="bold" fill="#1e293b" text-anchor="middle" dominant-baseline="middle">Notación Abreviada: Bromuro (Br-)</text>
  <text x="500.00" y="110.00" font-family="Inter, sans-serif" font-size="22" font-weight="bold" fill="#64748b" text-anchor="middle" dominant-baseline="middle">1. Ubicación en la Tabla Periódica</text>
  <text x="299.00" y="165.00" font-family="Inter, sans-serif" font-size="12" font-weight="900" fill="#64748b" text-anchor="middle" dominant-baseline="middle">s¹</text>
  <text x="341.00" y="165.00" font-family="Inter, sans-serif" font-size="12" font-weight="900" fill="#64748b" text-anchor="middle" dominant-baseline="middle">s²</text>
  <text x="425.00" y="165.00" font-family="Inter, sans-serif" font-size="12" font-weight="900" fill="#64748b" text-anchor="middle" dominant-baseline="middle">p¹</text>
  <text x="467.00" y="165.00" font-family="Inter, sans-serif" font-size="12" font-weight="900" fill="#64748b" text-anchor="middle" dominant-baseline="middle">p²</text>
  <text x="509.00" y="165.00" font-family="Inter, sans-serif" font-size="12" font-weight="900" fill="#64748b" text-anchor="middle" dominant-baseline="middle">p³</text>
  <text x="551.00" y="165.00" font-family="Inter, sans-serif" font-size="12" font-weight="900" fill="#64748b" text-anchor="middle" dominant-baseline="middle">p⁴</text>
  <text x="593.00" y="165.00" font-family="Inter, sans-serif" font-size="12" font-weight="900" fill="#64748b" text-anchor="middle" dominant-baseline="middle">p⁵</text>
  <text x="635.00" y="165.00" font-family="Inter, sans-serif" font-size="12" font-weight="900" fill="#64748b" text-anchor="middle" dominant-baseline="middle">p⁶</text>
  <text x="230.00" y="199.00" font-family="Inter, sans-serif" font-size="11" font-weight="normal" fill="#64748b" text-anchor="end" dominant-baseline="middle">Periodo 1</text>
  <rect x="280.00" y="180.00" width="38.00" height="38.00" fill="#fff" stroke="#e2e8f0" stroke-width="1" rx="4"  />
  <rect x="637.00" y="180.00" width="38.00" height="38.00" fill="#fef3c7" stroke="#f59e0b" stroke-width="2" rx="4"  />
  <text x="656.00" y="204.00" font-family="Inter, sans-serif" font-size="14" font-weight="bold" fill="#f59e0b" text-anchor="middle" dominant-baseline="middle">He</text>
  <text x="230.00" y="241.00" font-family="Inter, sans-serif" font-size="11" font-weight="normal" fill="#64748b" text-anchor="end" dominant-baseline="middle">Periodo 2</text>
  <rect x="280.00" y="222.00" width="38.00" height="38.00" fill="#fff" stroke="#e2e8f0" stroke-width="1" rx="4"  />
  <rect x="322.00" y="222.00" width="38.00" height="38.00" fill="#fff" stroke="#e2e8f0" stroke-width="1" rx="4"  />
  <rect x="427.00" y="222.00" width="38.00" height="38.00" fill="#fff" stroke="#e2e8f0" stroke-width="1" rx="4"  />
  <rect x="469.00" y="222.00" width="38.00" height="38.00" fill="#fff" stroke="#e2e8f0" stroke-width="1" rx="4"  />
  <rect x="511.00" y="222.00" width="38.00" height="38.00" fill="#fff" stroke="#e2e8f0" stroke-width="1" rx="4"  />
  <rect x="553.00" y="222.00" width="38.00" height="38.00" fill="#fff" stroke="#e2e8f0" stroke-width="1" rx="4"  />
  <rect x="595.00" y="222.00" width="38.00" height="38.00" fill="#fff" stroke="#e2e8f0" stroke-width="1" rx="4"  />
  <rect x="637.00" y="222.00" width="38.00" height="38.00" fill="#fef3c7" stroke="#f59e0b" stroke-width="2" rx="4"  />
  <text x="656.00" y="246.00" font-family="Inter, sans-serif" font-size="14" font-weight="bold" fill="#f59e0b" text-anchor="middle" dominant-baseline="middle">Ne</text>
  <text x="230.00" y="283.00" font-family="Inter, sans-serif" font-size="11" font-weight="normal" fill="#64748b" text-anchor="end" dominant-baseline="middle">Periodo 3</text>
  <rect x="280.00" y="264.00" width="38.00" height="38.00" fill="#fff" stroke="#e2e8f0" stroke-width="1" rx="4"  />
  <rect x="322.00" y="264.00" width="38.00" height="38.00" fill="#fff" stroke="#e2e8f0" stroke-width="1" rx="4"  />
  <rect x="427.00" y="264.00" width="38.00" height="38.00" fill="#fff" stroke="#e2e8f0" stroke-width="1" rx="4"  />
  <rect x="469.00" y="264.00" width="38.00" height="38.00" fill="#fff" stroke="#e2e8f0" stroke-width="1" rx="4"  />
  <rect x="511.00" y="264.00" width="38.00" height="38.00" fill="#fff" stroke="#e2e8f0" stroke-width="1" rx="4"  />
  <rect x="553.00" y="264.00" width="38.00" height="38.00" fill="#fff" stroke="#e2e8f0" stroke-width="1" rx="4"  />
  <rect x="595.00" y="264.00" width="38.00" height="38.00" fill="#fff" stroke="#e2e8f0" stroke-width="1" rx="4"  />
  <rect x="637.00" y="264.00" width="38.00" height="38.00" fill="#fef3c7" stroke="#f59e0b" stroke-width="2" rx="4"  />
  <text x="656.00" y="288.00" font-family="Inter, sans-serif" font-size="14" font-weight="bold" fill="#f59e0b" text-anchor="middle" dominant-baseline="middle">Ar</text>
  <text x="230.00" y="325.00" font-family="Inter, sans-serif" font-size="11" font-weight="normal" fill="#64748b" text-anchor="end" dominant-baseline="middle">Periodo 4</text>
  <rect x="280.00" y="306.00" width="38.00" height="38.00" fill="#fff" stroke="#e2e8f0" stroke-width="1" rx="4"  />
  <rect x="322.00" y="306.00" width="38.00" height="38.00" fill="#fff" stroke="#e2e8f0" stroke-width="1" rx="4"  />
  <rect x="427.00" y="306.00" width="38.00" height="38.00" fill="#fff" stroke="#e2e8f0" stroke-width="1" rx="4"  />
  <rect x="469.00" y="306.00" width="38.00" height="38.00" fill="#fff" stroke="#e2e8f0" stroke-width="1" rx="4"  />
  <rect x="511.00" y="306.00" width="38.00" height="38.00" fill="#fff" stroke="#e2e8f0" stroke-width="1" rx="4"  />
  <rect x="553.00" y="306.00" width="38.00" height="38.00" fill="#fff" stroke="#e2e8f0" stroke-width="1" rx="4"  />
  <rect x="595.00" y="306.00" width="38.00" height="38.00" fill="#bfdbfe" stroke="#3b82f6" stroke-width="2" rx="4"  />
  <text x="614.00" y="330.00" font-family="Inter, sans-serif" font-size="16" font-weight="bold" fill="#1e293b" text-anchor="middle" dominant-baseline="middle">Br</text>
  <rect x="637.00" y="306.00" width="38.00" height="38.00" fill="#fef3c7" stroke="#f59e0b" stroke-width="2" rx="4"  />
  <text x="656.00" y="330.00" font-family="Inter, sans-serif" font-size="14" font-weight="bold" fill="#f59e0b" text-anchor="middle" dominant-baseline="middle">Kr</text>
  <rect x="385.00" y="306.00" width="38.00" height="38.00" fill="#fff" stroke="#e2e8f0" stroke-width="1" rx="4"  />
  <text x="404.00" y="328.00" font-family="Inter, sans-serif" font-size="8" font-weight="normal" fill="#e2e8f0" text-anchor="middle" dominant-baseline="middle">Bloque d</text>
  <text x="230.00" y="367.00" font-family="Inter, sans-serif" font-size="11" font-weight="normal" fill="#64748b" text-anchor="end" dominant-baseline="middle">Periodo 5</text>
  <rect x="280.00" y="348.00" width="38.00" height="38.00" fill="#fff" stroke="#e2e8f0" stroke-width="1" rx="4"  />
  <rect x="322.00" y="348.00" width="38.00" height="38.00" fill="#fff" stroke="#e2e8f0" stroke-width="1" rx="4"  />
  <rect x="427.00" y="348.00" width="38.00" height="38.00" fill="#fff" stroke="#e2e8f0" stroke-width="1" rx="4"  />
  <rect x="469.00" y="348.00" width="38.00" height="38.00" fill="#fff" stroke="#e2e8f0" stroke-width="1" rx="4"  />
  <rect x="511.00" y="348.00" width="38.00" height="38.00" fill="#fff" stroke="#e2e8f0" stroke-width="1" rx="4"  />
  <rect x="553.00" y="348.00" width="38.00" height="38.00" fill="#fff" stroke="#e2e8f0" stroke-width="1" rx="4"  />
  <rect x="595.00" y="348.00" width="38.00" height="38.00" fill="#fff" stroke="#e2e8f0" stroke-width="1" rx="4"  />
  <rect x="637.00" y="348.00" width="38.00" height="38.00" fill="#fef3c7" stroke="#f59e0b" stroke-width="2" rx="4"  />
  <text x="656.00" y="372.00" font-family="Inter, sans-serif" font-size="14" font-weight="bold" fill="#f59e0b" text-anchor="middle" dominant-baseline="middle">Xe</text>
  <rect x="385.00" y="348.00" width="38.00" height="38.00" fill="#fff" stroke="#e2e8f0" stroke-width="1" rx="4"  />
  <text x="404.00" y="370.00" font-family="Inter, sans-serif" font-size="8" font-weight="normal" fill="#e2e8f0" text-anchor="middle" dominant-baseline="middle">Bloque d</text>
  <path d="M 614.0 325.0 Q 635.0 255.0 656.0 325.0" fill="none" stroke="#f59e0b" stroke-width="3"/>
  <circle cx="656.00" cy="325.00" r="5.00" fill="#f59e0b" stroke="#3b82f6" stroke-width="2"  />
  <line x1="100.00" y1="420.00" x2="900.00" y2="420.00" stroke="#e2e8f0" stroke-width="2" stroke-dasharray="5,5" />
  <text x="500.00" y="460.00" font-family="Inter, sans-serif" font-size="22" font-weight="bold" fill="#64748b" text-anchor="middle" dominant-baseline="middle">2. Transformación de la Configuración</text>
  <rect x="100.00" y="500.00" width="800.00" height="320.00" fill="#fff" stroke="#e2e8f0" stroke-width="0" rx="15"  />
  <text x="140.00" y="560.00" font-family="Inter, sans-serif" font-size="15" font-weight="bold" fill="#64748b" text-anchor="start" dominant-baseline="middle">A) Átomo Neutro original</text>
  <text x="550.40" y="560.00" font-family="Inter, sans-serif" font-size="28" font-weight="bold" fill="#1e293b" text-anchor="middle" dominant-baseline="middle">1s²...</text>
  <text x="646.00" y="560.00" font-family="Inter, sans-serif" font-size="28" font-weight="bold" fill="#64748b" text-anchor="middle" dominant-baseline="middle">4p⁵</text>
  <line x1="350.00" y1="580.00" x2="350.00" y2="615.00" stroke="#94a3b8" stroke-width="2"  marker-end="url(#arrow-94a3b8-10)"/>
  <text x="140.00" y="640.00" font-family="Inter, sans-serif" font-size="15" font-weight="bold" fill="#64748b" text-anchor="start" dominant-baseline="middle">B) Gana 1e⁻ → Ion formado</text>
  <text x="550.40" y="640.00" font-family="Inter, sans-serif" font-size="28" font-weight="bold" fill="#1e293b" text-anchor="middle" dominant-baseline="middle">1s²...</text>
  <rect x="610.80" y="617.60" width="70.40" height="36.40" fill="#dcfce7" stroke="#22c55e" stroke-width="2" rx="6"  />
  <text x="646.00" y="640.00" font-family="Inter, sans-serif" font-size="28" font-weight="900" fill="#22c55e" text-anchor="middle" dominant-baseline="middle">4p⁶</text>
  <line x1="350.00" y1="660.00" x2="350.00" y2="695.00" stroke="#94a3b8" stroke-width="2"  marker-end="url(#arrow-94a3b8-10)"/>
  <text x="140.00" y="720.00" font-family="Inter, sans-serif" font-size="15" font-weight="bold" fill="#64748b" text-anchor="start" dominant-baseline="middle">C) Identidad con Gas Noble: 1s²... 4p⁶ = [Kr]</text>
  <rect x="490.00" y="697.60" width="87.20" height="36.40" fill="#fef3c7" stroke="#f59e0b" stroke-width="2" rx="6"  />
  <text x="533.60" y="720.00" font-family="Inter, sans-serif" font-size="28" font-weight="900" fill="#f59e0b" text-anchor="middle" dominant-baseline="middle">[Kr]</text>
  <line x1="350.00" y1="740.00" x2="350.00" y2="775.00" stroke="#94a3b8" stroke-width="2"  marker-end="url(#arrow-94a3b8-10)"/>
  <text x="140.00" y="800.00" font-family="Inter, sans-serif" font-size="15" font-weight="bold" fill="#64748b" text-anchor="start" dominant-baseline="middle">D) Resultado final</text>
  <rect x="490.00" y="772.80" width="101.60" height="44.20" fill="#fef3c7" stroke="#f59e0b" stroke-width="2" rx="6"  />
  <text x="540.80" y="800.00" font-family="Inter, sans-serif" font-size="34" font-weight="900" fill="#f59e0b" text-anchor="middle" dominant-baseline="middle">[Kr]</text>
</svg>