<svg xmlns="http://www.w3.org/2000/svg" viewBox="0 0 550 380" style="font-family: Inter, system-ui, sans-serif;">
  <defs>
    <filter id="shadow" x="-20%" y="-20%" width="140%" height="140%">
      <feDropShadow dx="0" dy="1" stdDeviation="2" flood-opacity="0.15"/>
    </filter>
  </defs>
<rect width="550" height="380" fill="#ffffff"/>
  <text x="275.0" y="25" text-anchor="middle" font-size="16" font-weight="bold" fill="#1e293b">Los tres lados: Opuesto, Adyacente e Hipotenusa</text>
  <polygon points="70.0,300.0 310.0,300.0 310.0,110.0" fill="#f8fafc" stroke="#1e293b" stroke-width="3" stroke-linejoin="round"/>
  <circle cx="70.0" cy="300.0" r="5" fill="#1e293b"/>
  <circle cx="310.0" cy="300.0" r="5" fill="#1e293b"/>
  <circle cx="310.0" cy="110.0" r="5" fill="#1e293b"/>
  <path d="M 105.0 300.0 A 35 35 0 0 0 97.4 278.3" fill="none" stroke="#8b5cf6" stroke-width="2"/>
  <text x="117.2" y="283.6" text-anchor="middle" dominant-baseline="middle" font-size="18" font-weight="bold" fill="#8b5cf6">θ</text>
  <path d="M 292.0 300.0 L 292.0 282.0 L 310.0 282.0" fill="none" stroke="#64748b" stroke-width="2"/>
  <rect x="130.0" y="318.0" width="120" height="24" rx="4" ry="4" fill="#ffffff" filter="url(#shadow)"/>
  <text x="190.0" y="330.0" text-anchor="middle" dominant-baseline="middle" font-size="13" font-weight="bold" fill="#22c55e">A (Adyacente)</text>
  <rect x="288.0" y="193.0" width="104" height="24" rx="4" ry="4" fill="#ffffff" filter="url(#shadow)"/>
  <text x="340.0" y="205.0" text-anchor="middle" dominant-baseline="middle" font-size="13" font-weight="bold" fill="#ef4444">O (Opuesto)</text>
  <rect x="107.4" y="169.5" width="128" height="24" rx="4" ry="4" fill="#ffffff" filter="url(#shadow)"/>
  <text x="171.4" y="181.5" text-anchor="middle" dominant-baseline="middle" font-size="13" font-weight="bold" fill="#3b82f6">H (Hipotenusa)</text>
  <rect x="365" y="90" width="170" height="101" rx="8" ry="8" fill="#f1f5f9" stroke="#e2e8f0" stroke-width="1"/>
  <text x="450.0" y="108" text-anchor="middle" font-size="11" font-weight="bold" fill="#475569">NOMENCLATURA</text>
  <text x="375" y="128" font-size="12" fill="#3b82f6">H = Hipotenusa</text>
  <text x="375" y="150" font-size="12" fill="#ef4444">O = Cateto Opuesto</text>
  <text x="375" y="172" font-size="12" fill="#22c55e">A = Cateto Adyacente</text>
</svg>