<svg xmlns="http://www.w3.org/2000/svg" viewBox="0 0 500 380" style="font-family: Inter, system-ui, sans-serif;">
  <defs>
    <filter id="shadow" x="-20%" y="-20%" width="140%" height="140%">
      <feDropShadow dx="0" dy="1" stdDeviation="2" flood-opacity="0.15"/>
    </filter>
  </defs>
<rect width="500" height="380" fill="#ffffff"/>
  <text x="250.0" y="25" text-anchor="middle" font-size="16" font-weight="bold" fill="#1e293b">Triángulo 45°-45°-90° (Isósceles)</text>
  <polygon points="80.0,300.0 280.0,300.0 280.0,100.0" fill="#f8fafc" stroke="#1e293b" stroke-width="3" stroke-linejoin="round"/>
  <circle cx="80.0" cy="300.0" r="5" fill="#1e293b"/>
  <circle cx="280.0" cy="300.0" r="5" fill="#1e293b"/>
  <circle cx="280.0" cy="100.0" r="5" fill="#1e293b"/>
  <path d="M 115.0 300.0 A 35 35 0 0 0 104.7 275.3" fill="none" stroke="#8b5cf6" stroke-width="2"/>
  <text x="130.8" y="279.0" text-anchor="middle" dominant-baseline="middle" font-size="18" font-weight="bold" fill="#8b5cf6">45°</text>
  <path d="M 262.0 300.0 L 262.0 282.0 L 280.0 282.0" fill="none" stroke="#64748b" stroke-width="2"/>
  <path d="M 258.8 121.2 A 30 30 0 0 0 280.0 130.0" fill="none" stroke="#8b5cf6" stroke-width="2"/>
  <text x="262.8" y="141.6" text-anchor="middle" dominant-baseline="middle" font-size="18" font-weight="bold" fill="#8b5cf6">45°</text>
  <rect x="168.0" y="316.0" width="24" height="24" rx="4" ry="4" fill="#ffffff" filter="url(#shadow)"/>
  <text x="180.0" y="328.0" text-anchor="middle" dominant-baseline="middle" font-size="13" font-weight="bold" fill="#22c55e">1</text>
  <rect x="296.0" y="188.0" width="24" height="24" rx="4" ry="4" fill="#ffffff" filter="url(#shadow)"/>
  <text x="308.0" y="200.0" text-anchor="middle" dominant-baseline="middle" font-size="13" font-weight="bold" fill="#22c55e">1</text>
  <rect x="144.2" y="168.2" width="32" height="24" rx="4" ry="4" fill="#ffffff" filter="url(#shadow)"/>
  <text x="160.2" y="180.2" text-anchor="middle" dominant-baseline="middle" font-size="13" font-weight="bold" fill="#3b82f6">√2</text>
  <rect x="320" y="100" width="160" height="101" rx="8" ry="8" fill="#f1f5f9" stroke="#e2e8f0" stroke-width="1"/>
  <text x="400.0" y="118" text-anchor="middle" font-size="11" font-weight="bold" fill="#475569">RAZONES EN 45°</text>
  <text x="330" y="138" font-size="12" fill="#1e293b">sin 45° = 1/√2</text>
  <text x="330" y="160" font-size="12" fill="#1e293b">cos 45° = 1/√2</text>
  <text x="330" y="182" font-size="12" fill="#1e293b">tan 45° = 1</text>
</svg>