<svg xmlns="http://www.w3.org/2000/svg" viewBox="0 0 550 400" style="font-family: Inter, system-ui, sans-serif;">
  <defs>
    <filter id="shadow" x="-20%" y="-20%" width="140%" height="140%">
      <feDropShadow dx="0" dy="1" stdDeviation="2" flood-opacity="0.15"/>
    </filter>
  </defs>
<rect width="550" height="400" fill="#ffffff"/>
  <text x="275.0" y="25" text-anchor="middle" font-size="16" font-weight="bold" fill="#1e293b">Triángulo 30°-60°-90°</text>
  <polygon points="60.0,320.0 320.0,320.0 320.0,170.0" fill="#f8fafc" stroke="#1e293b" stroke-width="3" stroke-linejoin="round"/>
  <circle cx="60.0" cy="320.0" r="5" fill="#1e293b"/>
  <circle cx="320.0" cy="320.0" r="5" fill="#1e293b"/>
  <circle cx="320.0" cy="170.0" r="5" fill="#1e293b"/>
  <path d="M 100.0 320.0 A 40 40 0 0 0 94.6 300.0" fill="none" stroke="#f97316" stroke-width="2"/>
  <text x="113.1" y="305.8" text-anchor="middle" dominant-baseline="middle" font-size="18" font-weight="bold" fill="#f97316">30°</text>
  <path d="M 302.0 320.0 L 302.0 302.0 L 320.0 302.0" fill="none" stroke="#64748b" stroke-width="2"/>
  <path d="M 294.0 185.0 A 30 30 0 0 0 320.0 200.0" fill="none" stroke="#22c55e" stroke-width="2"/>
  <text x="297.5" y="209.0" text-anchor="middle" dominant-baseline="middle" font-size="18" font-weight="bold" fill="#22c55e">60°</text>
  <rect x="174.0" y="336.0" width="32" height="24" rx="4" ry="4" fill="#ffffff" filter="url(#shadow)"/>
  <text x="190.0" y="348.0" text-anchor="middle" dominant-baseline="middle" font-size="13" font-weight="bold" fill="#22c55e">√3</text>
  <rect x="336.0" y="233.0" width="24" height="24" rx="4" ry="4" fill="#ffffff" filter="url(#shadow)"/>
  <text x="348.0" y="245.0" text-anchor="middle" dominant-baseline="middle" font-size="13" font-weight="bold" fill="#f97316">1</text>
  <rect x="164.0" y="208.7" width="24" height="24" rx="4" ry="4" fill="#ffffff" filter="url(#shadow)"/>
  <text x="176.0" y="220.7" text-anchor="middle" dominant-baseline="middle" font-size="13" font-weight="bold" fill="#3b82f6">2</text>
  <rect x="370" y="80" width="165" height="123" rx="8" ry="8" fill="#f1f5f9" stroke="#e2e8f0" stroke-width="1"/>
  <text x="452.5" y="98" text-anchor="middle" font-size="11" font-weight="bold" fill="#475569">RAZONES NOTABLES</text>
  <text x="380" y="118" font-size="12" fill="#f97316">En 30°:</text>
  <text x="380" y="140" font-size="12" fill="#1e293b">  sin=1/2, cos=√3/2</text>
  <text x="380" y="162" font-size="12" fill="#22c55e">En 60°:</text>
  <text x="380" y="184" font-size="12" fill="#1e293b">  sin=√3/2, cos=1/2</text>
</svg>