<svg xmlns="http://www.w3.org/2000/svg" viewBox="0 0 580 380" style="font-family: Inter, system-ui, sans-serif;">
  <defs>
    <filter id="shadow" x="-20%" y="-20%" width="140%" height="140%">
      <feDropShadow dx="0" dy="1" stdDeviation="2" flood-opacity="0.15"/>
    </filter>
  </defs>
<rect width="580" height="380" fill="#ffffff"/>
  <text x="290.0" y="25" text-anchor="middle" font-size="16" font-weight="bold" fill="#1e293b">SOH-CAH-TOA: La regla para recordar</text>
  <polygon points="70.0,300.0 310.0,300.0 310.0,110.0" fill="#f8fafc" stroke="#1e293b" stroke-width="3" stroke-linejoin="round"/>
  <circle cx="70.0" cy="300.0" r="5" fill="#1e293b"/>
  <circle cx="310.0" cy="300.0" r="5" fill="#1e293b"/>
  <circle cx="310.0" cy="110.0" r="5" fill="#1e293b"/>
  <path d="M 105.0 300.0 A 35 35 0 0 0 97.4 278.3" fill="none" stroke="#8b5cf6" stroke-width="2"/>
  <text x="117.2" y="283.6" text-anchor="middle" dominant-baseline="middle" font-size="18" font-weight="bold" fill="#8b5cf6">θ</text>
  <path d="M 292.0 300.0 L 292.0 282.0 L 310.0 282.0" fill="none" stroke="#64748b" stroke-width="2"/>
  <rect x="178.0" y="313.0" width="24" height="24" rx="4" ry="4" fill="#ffffff" filter="url(#shadow)"/>
  <text x="190.0" y="325.0" text-anchor="middle" dominant-baseline="middle" font-size="13" font-weight="bold" fill="#22c55e">A</text>
  <rect x="323.0" y="193.0" width="24" height="24" rx="4" ry="4" fill="#ffffff" filter="url(#shadow)"/>
  <text x="335.0" y="205.0" text-anchor="middle" dominant-baseline="middle" font-size="13" font-weight="bold" fill="#ef4444">O</text>
  <rect x="162.5" y="173.4" width="24" height="24" rx="4" ry="4" fill="#ffffff" filter="url(#shadow)"/>
  <text x="174.5" y="185.4" text-anchor="middle" dominant-baseline="middle" font-size="13" font-weight="bold" fill="#3b82f6">H</text>
  <rect x="365" y="70" width="200" height="189" rx="8" ry="8" fill="#f1f5f9" stroke="#e2e8f0" stroke-width="1"/>
  <text x="465.0" y="88" text-anchor="middle" font-size="11" font-weight="bold" fill="#475569">SOH - CAH - TOA</text>
  <text x="375" y="108" font-size="12" fill="#ef4444">SOH → Sin = O / H</text>
  <text x="375" y="130" font-size="12" fill="#22c55e">CAH → Cos = A / H</text>
  <text x="375" y="152" font-size="12" fill="#f97316">TOA → Tan = O / A</text>
  <text x="375" y="174" font-size="12" fill="#cbd5e1">─────────────────</text>
  <text x="375" y="196" font-size="12" fill="#64748b">💡 Memoriza esta regla</text>
  <text x="375" y="218" font-size="12" fill="#64748b">y nunca olvidarás las</text>
  <text x="375" y="240" font-size="12" fill="#64748b">razones trigonométricas</text>
</svg>