<svg xmlns="http://www.w3.org/2000/svg" viewBox="0 0 500 300" style="font-family: Inter, system-ui, sans-serif;">
  <defs>
    <filter id="shadow" x="-20%" y="-20%" width="140%" height="140%">
      <feDropShadow dx="0" dy="1" stdDeviation="2" flood-opacity="0.15"/>
    </filter>
  </defs>
<rect width="500" height="300" fill="#ffffff"/>
  <text x="250.0" y="25" text-anchor="middle" font-size="16" font-weight="bold" fill="#1e293b">Seno: Proporción de Altura</text>
  <polygon points="60.0,240.0 260.0,240.0 260.0,90.0" fill="#f8fafc" stroke="#1e293b" stroke-width="3" stroke-linejoin="round"/>
  <circle cx="60.0" cy="240.0" r="5" fill="#1e293b"/>
  <circle cx="260.0" cy="240.0" r="5" fill="#1e293b"/>
  <circle cx="260.0" cy="90.0" r="5" fill="#1e293b"/>
  <path d="M 95.0 240.0 A 35 35 0 0 0 88.0 219.0" fill="none" stroke="#8b5cf6" stroke-width="2"/>
  <text x="102.7" y="225.8" text-anchor="middle" dominant-baseline="middle" font-size="18" font-weight="bold" fill="#8b5cf6">θ</text>
  <path d="M 242.0 240.0 L 242.0 222.0 L 260.0 222.0" fill="none" stroke="#64748b" stroke-width="2"/>
  <rect x="238.0" y="153.0" width="104" height="24" rx="4" ry="4" fill="#ffffff" filter="url(#shadow)"/>
  <text x="290.0" y="165.0" text-anchor="middle" dominant-baseline="middle" font-size="13" font-weight="bold" fill="#ef4444">sin θ = 0.6</text>
  <rect x="102.0" y="129.0" width="80" height="24" rx="4" ry="4" fill="#ffffff" filter="url(#shadow)"/>
  <text x="142.0" y="141.0" text-anchor="middle" dominant-baseline="middle" font-size="13" font-weight="bold" fill="#3b82f6">1 (100%)</text>
  <rect x="320" y="80" width="160" height="79" rx="8" ry="8" fill="#e2e8f0" stroke="#e2e8f0" stroke-width="1"/>
  <text x="400.0" y="98" text-anchor="middle" font-size="11" font-weight="bold" fill="#475569">ANÁLISIS</text>
  <text x="330" y="118" font-size="12" fill="#ef4444">Seno es la vertical</text>
  <text x="330" y="140" font-size="12" fill="#1e293b">60% de la hipotenusa</text>
</svg>