<svg xmlns="http://www.w3.org/2000/svg" viewBox="0 0 600 400" style="font-family: Inter, system-ui, sans-serif;">
  <defs>
    <filter id="shadow" x="-20%" y="-20%" width="140%" height="140%">
      <feDropShadow dx="0" dy="1" stdDeviation="2" flood-opacity="0.15"/>
    </filter>
  </defs>
<rect width="600" height="400" fill="#ffffff"/>
  <text x="300.0" y="25" text-anchor="middle" font-size="16" font-weight="bold" fill="#1e293b">Ejemplo 4: El Ángulo Superior</text>
  <polygon points="120.0,320.0 300.0,320.0 300.0,100.0" fill="#f8fafc" stroke="#1e293b" stroke-width="3" stroke-linejoin="round"/>
  <circle cx="120.0" cy="320.0" r="5" fill="#1e293b"/>
  <circle cx="300.0" cy="320.0" r="5" fill="#1e293b"/>
  <circle cx="300.0" cy="100.0" r="5" fill="#1e293b"/>
  <path d="M 274.7 131.0 A 40 40 0 0 0 300.0 140.0" fill="none" stroke="#f59e0b" stroke-width="2"/>
  <text x="281.5" y="151.8" text-anchor="middle" dominant-baseline="middle" font-size="18" font-weight="bold" fill="#f59e0b">φ</text>
  <path d="M 282.0 320.0 L 282.0 302.0 L 300.0 302.0" fill="none" stroke="#64748b" stroke-width="2"/>
  <rect x="198.0" y="340.0" width="24" height="24" rx="4" ry="4" fill="#ffffff" filter="url(#shadow)"/>
  <text x="210.0" y="352.0" text-anchor="middle" dominant-baseline="middle" font-size="13" font-weight="bold" fill="#ef4444">8</text>
  <rect x="316.0" y="198.0" width="32" height="24" rx="4" ry="4" fill="#ffffff" filter="url(#shadow)"/>
  <text x="332.0" y="210.0" text-anchor="middle" dominant-baseline="middle" font-size="13" font-weight="bold" fill="#22c55e">15</text>
  <rect x="169.2" y="177.7" width="32" height="24" rx="4" ry="4" fill="#ffffff" filter="url(#shadow)"/>
  <text x="185.2" y="189.7" text-anchor="middle" dominant-baseline="middle" font-size="13" font-weight="bold" fill="#3b82f6">17</text>
  <rect x="80" y="80" width="180" height="101" rx="8" ry="8" fill="#e2e8f0" stroke="#e2e8f0" stroke-width="1"/>
  <text x="170.0" y="98" text-anchor="middle" font-size="11" font-weight="bold" fill="#475569">VISTA DESDE PHI (φ)</text>
  <text x="90" y="118" font-size="12" fill="#3b82f6">Hipotenusa = 17</text>
  <text x="90" y="140" font-size="12" fill="#22c55e">Cat. Adyacente = 15</text>
  <text x="90" y="162" font-size="12" fill="#ef4444">Cat. Opuesto = 8</text>
</svg>