<svg xmlns="http://www.w3.org/2000/svg" viewBox="0 0 500 300" style="font-family: Inter, system-ui, sans-serif;">
  <defs>
    <filter id="shadow" x="-20%" y="-20%" width="140%" height="140%">
      <feDropShadow dx="0" dy="1" stdDeviation="2" flood-opacity="0.15"/>
    </filter>
  </defs>
<rect width="500" height="300" fill="#ffffff"/>
  <text x="250.0" y="25" text-anchor="middle" font-size="16" font-weight="bold" fill="#1e293b">Concepto de Razón: Comparar Lados</text>
  <polygon points="60.0,240.0 260.0,240.0 260.0,80.0" fill="#f8fafc" stroke="#1e293b" stroke-width="3" stroke-linejoin="round"/>
  <circle cx="60.0" cy="240.0" r="5" fill="#1e293b"/>
  <circle cx="260.0" cy="240.0" r="5" fill="#1e293b"/>
  <circle cx="260.0" cy="80.0" r="5" fill="#1e293b"/>
  <path d="M 95.0 240.0 A 35 35 0 0 0 87.3 218.1" fill="none" stroke="#8b5cf6" stroke-width="2"/>
  <text x="102.5" y="225.1" text-anchor="middle" dominant-baseline="middle" font-size="18" font-weight="bold" fill="#8b5cf6">θ</text>
  <path d="M 242.0 240.0 L 242.0 222.0 L 260.0 222.0" fill="none" stroke="#64748b" stroke-width="2"/>
  <rect x="148.0" y="258.0" width="24" height="24" rx="4" ry="4" fill="#ffffff" filter="url(#shadow)"/>
  <text x="160.0" y="270.0" text-anchor="middle" dominant-baseline="middle" font-size="13" font-weight="bold" fill="#22c55e">4</text>
  <rect x="278.0" y="148.0" width="24" height="24" rx="4" ry="4" fill="#ffffff" filter="url(#shadow)"/>
  <text x="290.0" y="160.0" text-anchor="middle" dominant-baseline="middle" font-size="13" font-weight="bold" fill="#ef4444">3</text>
  <rect x="129.3" y="124.6" width="24" height="24" rx="4" ry="4" fill="#ffffff" filter="url(#shadow)"/>
  <text x="141.3" y="136.6" text-anchor="middle" dominant-baseline="middle" font-size="13" font-weight="bold" fill="#3b82f6">5</text>
</svg>