<svg xmlns="http://www.w3.org/2000/svg" viewBox="0 0 300 420" style="font-family: Inter, system-ui, sans-serif;">
  <defs>
    <filter id="shadow" x="-20%" y="-20%" width="140%" height="140%">
      <feDropShadow dx="0" dy="1" stdDeviation="2" flood-opacity="0.15"/>
    </filter>
  </defs>
<rect width="300" height="420" fill="#ffffff"/>
  <text x="150.0" y="25" text-anchor="middle" font-size="16" font-weight="bold" fill="#1e293b">Seno en θ = 75°</text>
  <polygon points="60.0,380.0 127.0,380.0 127.0,130.0" fill="#f8fafc" stroke="#1e293b" stroke-width="3" stroke-linejoin="round"/>
  <circle cx="60.0" cy="380.0" r="5" fill="#1e293b"/>
  <circle cx="127.0" cy="380.0" r="5" fill="#1e293b"/>
  <circle cx="127.0" cy="130.0" r="5" fill="#1e293b"/>
  <path d="M 85.0 380.0 A 25 25 0 0 0 66.5 355.9" fill="none" stroke="#8b5cf6" stroke-width="2"/>
  <text x="95.7" y="352.6" text-anchor="middle" dominant-baseline="middle" font-size="18" font-weight="bold" fill="#8b5cf6">75°</text>
  <path d="M 109.0 380.0 L 109.0 362.0 L 127.0 362.0" fill="none" stroke="#64748b" stroke-width="2"/>
  <rect x="108.0" y="243.0" width="88" height="24" rx="4" ry="4" fill="#ffffff" filter="url(#shadow)"/>
  <text x="152.0" y="255.0" text-anchor="middle" dominant-baseline="middle" font-size="13" font-weight="bold" fill="#ef4444">Op = 0.97</text>
  <rect x="45.5" y="393.0" width="96" height="24" rx="4" ry="4" fill="#ffffff" filter="url(#shadow)"/>
  <text x="93.5" y="405.0" text-anchor="middle" dominant-baseline="middle" font-size="13" font-weight="bold" fill="#22c55e">Ady = 0.26</text>
  <rect x="33.4" y="236.5" width="72" height="24" rx="4" ry="4" fill="#ffffff" filter="url(#shadow)"/>
  <text x="69.4" y="248.5" text-anchor="middle" dominant-baseline="middle" font-size="13" font-weight="bold" fill="#3b82f6">Hip = 1</text>
  <rect x="145" y="150" width="140" height="79" rx="8" ry="8" fill="#e2e8f0" stroke="#e2e8f0" stroke-width="1"/>
  <text x="215.0" y="168" text-anchor="middle" font-size="11" font-weight="bold" fill="#475569">θ = 75°</text>
  <text x="155" y="188" font-size="12" fill="#ef4444">sin = 0.97</text>
  <text x="155" y="210" font-size="12" fill="#22c55e">cos = 0.26</text>
</svg>