<svg xmlns="http://www.w3.org/2000/svg" viewBox="0 0 400 280" style="font-family: Inter, system-ui, sans-serif;">
  <defs>
    <filter id="shadow" x="-20%" y="-20%" width="140%" height="140%">
      <feDropShadow dx="0" dy="1" stdDeviation="2" flood-opacity="0.15"/>
    </filter>
  </defs>
<rect width="400" height="280" fill="#ffffff"/>
  <text x="200.0" y="25" text-anchor="middle" font-size="16" font-weight="bold" fill="#1e293b">Seno en θ = 30°</text>
  <polygon points="60.0,220.0 290.0,220.0 290.0,87.0" fill="#f8fafc" stroke="#1e293b" stroke-width="3" stroke-linejoin="round"/>
  <circle cx="60.0" cy="220.0" r="5" fill="#1e293b"/>
  <circle cx="290.0" cy="220.0" r="5" fill="#1e293b"/>
  <circle cx="290.0" cy="87.0" r="5" fill="#1e293b"/>
  <path d="M 100.0 220.0 A 40 40 0 0 0 94.6 200.0" fill="none" stroke="#8b5cf6" stroke-width="2"/>
  <text x="103.5" y="208.3" text-anchor="middle" dominant-baseline="middle" font-size="18" font-weight="bold" fill="#8b5cf6">30°</text>
  <path d="M 272.0 220.0 L 272.0 202.0 L 290.0 202.0" fill="none" stroke="#64748b" stroke-width="2"/>
  <rect x="271.0" y="141.5" width="88" height="24" rx="4" ry="4" fill="#ffffff" filter="url(#shadow)"/>
  <text x="315.0" y="153.5" text-anchor="middle" dominant-baseline="middle" font-size="13" font-weight="bold" fill="#ef4444">Op = 0.50</text>
  <rect x="127.0" y="233.0" width="96" height="24" rx="4" ry="4" fill="#ffffff" filter="url(#shadow)"/>
  <text x="175.0" y="245.0" text-anchor="middle" dominant-baseline="middle" font-size="13" font-weight="bold" fill="#22c55e">Ady = 0.87</text>
  <rect x="126.5" y="119.9" width="72" height="24" rx="4" ry="4" fill="#ffffff" filter="url(#shadow)"/>
  <text x="162.5" y="131.9" text-anchor="middle" dominant-baseline="middle" font-size="13" font-weight="bold" fill="#3b82f6">Hip = 1</text>
  <rect x="220" y="40" width="160" height="79" rx="8" ry="8" fill="#e2e8f0" stroke="#e2e8f0" stroke-width="1"/>
  <text x="300.0" y="58" text-anchor="middle" font-size="11" font-weight="bold" fill="#475569">θ = 30°</text>
  <text x="230" y="78" font-size="12" fill="#ef4444">sin = 0.50</text>
  <text x="230" y="100" font-size="12" fill="#22c55e">cos = 0.87</text>
</svg>