<svg xmlns="http://www.w3.org/2000/svg" viewBox="0 0 400 250" style="font-family: Inter, system-ui, sans-serif;">
  <defs>
    <filter id="shadow" x="-20%" y="-20%" width="140%" height="140%">
      <feDropShadow dx="0" dy="1" stdDeviation="2" flood-opacity="0.15"/>
    </filter>
  </defs>
<rect width="400" height="250" fill="#ffffff"/>
  <text x="200.0" y="25" text-anchor="middle" font-size="16" font-weight="bold" fill="#1e293b">Seno en θ = 15°</text>
  <polygon points="60.0,200.0 300.0,200.0 300.0,137.0" fill="#f8fafc" stroke="#1e293b" stroke-width="3" stroke-linejoin="round"/>
  <circle cx="60.0" cy="200.0" r="5" fill="#1e293b"/>
  <circle cx="300.0" cy="200.0" r="5" fill="#1e293b"/>
  <circle cx="300.0" cy="137.0" r="5" fill="#1e293b"/>
  <path d="M 100.0 200.0 A 40 40 0 0 0 98.7 189.8" fill="none" stroke="#8b5cf6" stroke-width="2"/>
  <text x="104.6" y="194.2" text-anchor="middle" dominant-baseline="middle" font-size="18" font-weight="bold" fill="#8b5cf6">15°</text>
  <path d="M 282.0 200.0 L 282.0 182.0 L 300.0 182.0" fill="none" stroke="#64748b" stroke-width="2"/>
  <rect x="281.0" y="156.5" width="88" height="24" rx="4" ry="4" fill="#ffffff" filter="url(#shadow)"/>
  <text x="325.0" y="168.5" text-anchor="middle" dominant-baseline="middle" font-size="13" font-weight="bold" fill="#ef4444">Op = 0.26</text>
  <rect x="132.0" y="213.0" width="96" height="24" rx="4" ry="4" fill="#ffffff" filter="url(#shadow)"/>
  <text x="180.0" y="225.0" text-anchor="middle" dominant-baseline="middle" font-size="13" font-weight="bold" fill="#22c55e">Ady = 0.97</text>
  <rect x="137.7" y="132.3" width="72" height="24" rx="4" ry="4" fill="#ffffff" filter="url(#shadow)"/>
  <text x="173.7" y="144.3" text-anchor="middle" dominant-baseline="middle" font-size="13" font-weight="bold" fill="#3b82f6">Hip = 1</text>
  <rect x="220" y="40" width="160" height="79" rx="8" ry="8" fill="#e2e8f0" stroke="#e2e8f0" stroke-width="1"/>
  <text x="300.0" y="58" text-anchor="middle" font-size="11" font-weight="bold" fill="#475569">θ = 15°</text>
  <text x="230" y="78" font-size="12" fill="#ef4444">sin = 0.26</text>
  <text x="230" y="100" font-size="12" fill="#22c55e">cos = 0.97</text>
</svg>