<svg xmlns="http://www.w3.org/2000/svg" viewBox="0 0 350 380" style="font-family: Inter, system-ui, sans-serif;">
  <defs>
    <filter id="shadow" x="-20%" y="-20%" width="140%" height="140%">
      <feDropShadow dx="0" dy="1" stdDeviation="2" flood-opacity="0.15"/>
    </filter>
  </defs>
<rect width="350" height="380" fill="#ffffff"/>
  <text x="175.0" y="25" text-anchor="middle" font-size="16" font-weight="bold" fill="#1e293b">Seno en θ = 60°</text>
  <polygon points="60.0,320.0 175.0,320.0 175.0,120.0" fill="#f8fafc" stroke="#1e293b" stroke-width="3" stroke-linejoin="round"/>
  <circle cx="60.0" cy="320.0" r="5" fill="#1e293b"/>
  <circle cx="175.0" cy="320.0" r="5" fill="#1e293b"/>
  <circle cx="175.0" cy="120.0" r="5" fill="#1e293b"/>
  <path d="M 90.0 320.0 A 30 30 0 0 0 75.0 294.0" fill="none" stroke="#8b5cf6" stroke-width="2"/>
  <text x="99.0" y="297.5" text-anchor="middle" dominant-baseline="middle" font-size="18" font-weight="bold" fill="#8b5cf6">60°</text>
  <path d="M 157.0 320.0 L 157.0 302.0 L 175.0 302.0" fill="none" stroke="#64748b" stroke-width="2"/>
  <rect x="156.0" y="208.0" width="88" height="24" rx="4" ry="4" fill="#ffffff" filter="url(#shadow)"/>
  <text x="200.0" y="220.0" text-anchor="middle" dominant-baseline="middle" font-size="13" font-weight="bold" fill="#ef4444">Op = 0.87</text>
  <rect x="69.5" y="333.0" width="96" height="24" rx="4" ry="4" fill="#ffffff" filter="url(#shadow)"/>
  <text x="117.5" y="345.0" text-anchor="middle" dominant-baseline="middle" font-size="13" font-weight="bold" fill="#22c55e">Ady = 0.50</text>
  <rect x="59.8" y="195.5" width="72" height="24" rx="4" ry="4" fill="#ffffff" filter="url(#shadow)"/>
  <text x="95.8" y="207.5" text-anchor="middle" dominant-baseline="middle" font-size="13" font-weight="bold" fill="#3b82f6">Hip = 1</text>
  <rect x="190" y="100" width="150" height="79" rx="8" ry="8" fill="#e2e8f0" stroke="#e2e8f0" stroke-width="1"/>
  <text x="265.0" y="118" text-anchor="middle" font-size="11" font-weight="bold" fill="#475569">θ = 60°</text>
  <text x="200" y="138" font-size="12" fill="#ef4444">sin = 0.87</text>
  <text x="200" y="160" font-size="12" fill="#22c55e">cos = 0.50</text>
</svg>