<svg xmlns="http://www.w3.org/2000/svg" viewBox="0 0 500 200" style="font-family: Inter, system-ui, sans-serif;">
  <defs>
    <filter id="shadow" x="-20%" y="-20%" width="140%" height="140%">
      <feDropShadow dx="0" dy="1" stdDeviation="2" flood-opacity="0.15"/>
    </filter>
  </defs>
<rect width="500" height="200" fill="#ffffff"/>
  <text x="250.0" y="25" text-anchor="middle" font-size="16" font-weight="bold" fill="#1e293b">Seno cuando θ ≈ 0°</text>
  <polygon points="60.0,150.0 400.0,150.0 400.0,130.0" fill="#f8fafc" stroke="#1e293b" stroke-width="3" stroke-linejoin="round"/>
  <circle cx="60.0" cy="150.0" r="5" fill="#1e293b"/>
  <circle cx="400.0" cy="150.0" r="5" fill="#1e293b"/>
  <circle cx="400.0" cy="130.0" r="5" fill="#1e293b"/>
  <path d="M 100.0 150.0 A 40 40 0 0 0 99.9 147.7" fill="none" stroke="#8b5cf6" stroke-width="2"/>
  <text x="105.0" y="148.7" text-anchor="middle" dominant-baseline="middle" font-size="18" font-weight="bold" fill="#8b5cf6">θ ≈ 0°</text>
  <path d="M 382.0 150.0 L 382.0 132.0 L 400.0 132.0" fill="none" stroke="#64748b" stroke-width="2"/>
  <rect x="373.0" y="128.0" width="104" height="24" rx="4" ry="4" fill="#ffffff" filter="url(#shadow)"/>
  <text x="425.0" y="140.0" text-anchor="middle" dominant-baseline="middle" font-size="13" font-weight="bold" fill="#ef4444">Opuesto ≈ 0</text>
  <rect x="180.5" y="103.0" width="96" height="24" rx="4" ry="4" fill="#ffffff" filter="url(#shadow)"/>
  <text x="228.5" y="115.0" text-anchor="middle" dominant-baseline="middle" font-size="13" font-weight="bold" fill="#3b82f6">Hipotenusa</text>
  <rect x="60" y="40" width="180" height="79" rx="8" ry="8" fill="#e2e8f0" stroke="#e2e8f0" stroke-width="1"/>
  <text x="150.0" y="58" text-anchor="middle" font-size="11" font-weight="bold" fill="#475569">OBSERVA</text>
  <text x="70" y="78" font-size="12" fill="#1e293b">El lado opuesto casi</text>
  <text x="70" y="100" font-size="12" fill="#ef4444">desaparece → sin ≈ 0</text>
</svg>