<svg xmlns="http://www.w3.org/2000/svg" viewBox="0 0 400 320" style="font-family: Inter, system-ui, sans-serif;">
  <defs>
    <filter id="shadow" x="-20%" y="-20%" width="140%" height="140%">
      <feDropShadow dx="0" dy="1" stdDeviation="2" flood-opacity="0.15"/>
    </filter>
  </defs>
<rect width="400" height="320" fill="#ffffff"/>
  <text x="200.0" y="25" text-anchor="middle" font-size="16" font-weight="bold" fill="#1e293b">Tangente cuando θ = 45°</text>
  <polygon points="60.0,260.0 260.0,260.0 260.0,60.0" fill="#f8fafc" stroke="#1e293b" stroke-width="3" stroke-linejoin="round"/>
  <circle cx="60.0" cy="260.0" r="5" fill="#1e293b"/>
  <circle cx="260.0" cy="260.0" r="5" fill="#1e293b"/>
  <circle cx="260.0" cy="60.0" r="5" fill="#1e293b"/>
  <path d="M 100.0 260.0 A 40 40 0 0 0 88.3 231.7" fill="none" stroke="#8b5cf6" stroke-width="2"/>
  <text x="101.6" y="242.8" text-anchor="middle" dominant-baseline="middle" font-size="18" font-weight="bold" fill="#8b5cf6">45°</text>
  <path d="M 242.0 260.0 L 242.0 242.0 L 260.0 242.0" fill="none" stroke="#64748b" stroke-width="2"/>
  <rect x="100.0" y="273.0" width="120" height="24" rx="4" ry="4" fill="#ffffff" filter="url(#shadow)"/>
  <text x="160.0" y="285.0" text-anchor="middle" dominant-baseline="middle" font-size="13" font-weight="bold" fill="#22c55e">Adyacente = 1</text>
  <rect x="233.0" y="148.0" width="104" height="24" rx="4" ry="4" fill="#ffffff" filter="url(#shadow)"/>
  <text x="285.0" y="160.0" text-anchor="middle" dominant-baseline="middle" font-size="13" font-weight="bold" fill="#ef4444">Opuesto = 1</text>
  <rect x="280" y="100" width="100" height="79" rx="8" ry="8" fill="#e2e8f0" stroke="#e2e8f0" stroke-width="1"/>
  <text x="330.0" y="118" text-anchor="middle" font-size="11" font-weight="bold" fill="#475569">RESULTADO</text>
  <text x="290" y="138" font-size="12" fill="#f59e0b">tan 45° = 1/1</text>
  <text x="290" y="160" font-size="12" fill="#1e293b">tan 45° = 1</text>
</svg>