<svg xmlns="http://www.w3.org/2000/svg" viewBox="0 0 650 450" 
style="max-width: 100%; height: auto; font-family: Inter, system-ui, sans-serif;">

  <style>
    .wave-path {
      stroke-dasharray: 3000;
      stroke-dashoffset: 3000;
      animation: drawWave 2s ease-out forwards;
    }
    .marker-group { opacity: 0; animation: fadeIn 0.5s ease-out 2s forwards; }
    .label-group { opacity: 0; animation: fadeIn 0.5s ease-out 2.3s forwards; }
    .annotation-group { opacity: 0; animation: fadeIn 0.5s ease-out 2.5s forwards; }
    @keyframes drawWave { to { stroke-dashoffset: 0; } }
    @keyframes fadeIn { to { opacity: 1; } }
  </style>

  <rect width="650" height="450" fill="#f8fafc" rx="8"/>
  <text x="325.0" y="25" text-anchor="middle" font-size="16" font-weight="bold" fill="#1e293b">Ahorro en Alcancía: y = 100x + 500</text>
  <g class="grid">
    <line x1="75.0" y1="75" x2="75.0" y2="375" stroke="#e2e8f0" stroke-dasharray="4,4"/>
    <line x1="158.3" y1="75" x2="158.3" y2="375" stroke="#e2e8f0" stroke-dasharray="4,4"/>
    <line x1="241.7" y1="75" x2="241.7" y2="375" stroke="#e2e8f0" stroke-dasharray="4,4"/>
    <line x1="325.0" y1="75" x2="325.0" y2="375" stroke="#e2e8f0" stroke-dasharray="4,4"/>
    <line x1="408.3" y1="75" x2="408.3" y2="375" stroke="#e2e8f0" stroke-dasharray="4,4"/>
    <line x1="491.7" y1="75" x2="491.7" y2="375" stroke="#e2e8f0" stroke-dasharray="4,4"/>
    <line x1="575.0" y1="75" x2="575.0" y2="375" stroke="#e2e8f0" stroke-dasharray="4,4"/>
    <line x1="75" y1="325.0" x2="575" y2="325.0" stroke="#e2e8f0" stroke-dasharray="4,4"/>
    <line x1="75" y1="275.0" x2="575" y2="275.0" stroke="#e2e8f0" stroke-dasharray="4,4"/>
    <line x1="75" y1="225.0" x2="575" y2="225.0" stroke="#e2e8f0" stroke-dasharray="4,4"/>
    <line x1="75" y1="175.0" x2="575" y2="175.0" stroke="#e2e8f0" stroke-dasharray="4,4"/>
    <line x1="75" y1="125.0" x2="575" y2="125.0" stroke="#e2e8f0" stroke-dasharray="4,4"/>
    <line x1="75" y1="75.0" x2="575" y2="75.0" stroke="#e2e8f0" stroke-dasharray="4,4"/>
  </g>
  <g class="axes">
    <line x1="75" y1="375.0" x2="575" y2="375.0" stroke="#374151" stroke-width="2"/>
    <polygon points="575,375.0 567,371.0 567,379.0" fill="#374151"/>
    <line x1="75.0" y1="75" x2="75.0" y2="375" stroke="#374151" stroke-width="2"/>
    <polygon points="75.0,75 71.0,83 79.0,83" fill="#374151"/>
    <text x="575" y="363.0" text-anchor="end" font-size="14" font-weight="bold" fill="#374151">Meses (x)</text>
    <text x="85.0" y="75" text-anchor="start" font-size="14" font-weight="bold" fill="#374151">Total Ahorrado ($)</text>
    <line x1="158.3" y1="371.0" x2="158.3" y2="379.0" stroke="#374151" stroke-width="1.5"/>
    <text x="158.3" y="395.0" text-anchor="middle" font-size="12" fill="#374151">1</text>
    <line x1="241.7" y1="371.0" x2="241.7" y2="379.0" stroke="#374151" stroke-width="1.5"/>
    <text x="241.7" y="395.0" text-anchor="middle" font-size="12" fill="#374151">2</text>
    <line x1="325.0" y1="371.0" x2="325.0" y2="379.0" stroke="#374151" stroke-width="1.5"/>
    <text x="325.0" y="395.0" text-anchor="middle" font-size="12" fill="#374151">3</text>
    <line x1="408.3" y1="371.0" x2="408.3" y2="379.0" stroke="#374151" stroke-width="1.5"/>
    <text x="408.3" y="395.0" text-anchor="middle" font-size="12" fill="#374151">4</text>
    <line x1="491.7" y1="371.0" x2="491.7" y2="379.0" stroke="#374151" stroke-width="1.5"/>
    <text x="491.7" y="395.0" text-anchor="middle" font-size="12" fill="#374151">5</text>
    <line x1="575.0" y1="371.0" x2="575.0" y2="379.0" stroke="#374151" stroke-width="1.5"/>
    <text x="575.0" y="395.0" text-anchor="middle" font-size="12" fill="#374151">6</text>
    <line x1="71.0" y1="325.0" x2="79.0" y2="325.0" stroke="#374151" stroke-width="1.5"/>
    <text x="63.0" y="329.0" text-anchor="end" font-size="12" fill="#374151">200</text>
    <line x1="71.0" y1="275.0" x2="79.0" y2="275.0" stroke="#374151" stroke-width="1.5"/>
    <text x="63.0" y="279.0" text-anchor="end" font-size="12" fill="#374151">400</text>
    <line x1="71.0" y1="225.0" x2="79.0" y2="225.0" stroke="#374151" stroke-width="1.5"/>
    <text x="63.0" y="229.0" text-anchor="end" font-size="12" fill="#374151">600</text>
    <line x1="71.0" y1="175.0" x2="79.0" y2="175.0" stroke="#374151" stroke-width="1.5"/>
    <text x="63.0" y="179.0" text-anchor="end" font-size="12" fill="#374151">800</text>
    <line x1="71.0" y1="125.0" x2="79.0" y2="125.0" stroke="#374151" stroke-width="1.5"/>
    <text x="63.0" y="129.0" text-anchor="end" font-size="12" fill="#374151">1000</text>
    <line x1="71.0" y1="75.0" x2="79.0" y2="75.0" stroke="#374151" stroke-width="1.5"/>
    <text x="63.0" y="79.0" text-anchor="end" font-size="12" fill="#374151">1200</text>
  </g>
  <path id="func-ahorro" class="wave-path" d="M 75.00 250.00 L 77.50 249.25 L 80.00 248.50 L 82.50 247.75 L 85.00 247.00 L 87.50 246.25 L 90.00 245.50 L 92.50 244.75 L 95.00 244.00 L 97.50 243.25 L 100.00 242.50 L 102.50 241.75 L 105.00 241.00 L 107.50 240.25 L 110.00 239.50 L 112.50 238.75 L 115.00 238.00 L 117.50 237.25 L 120.00 236.50 L 122.50 235.75 L 125.00 235.00 L 127.50 234.25 L 130.00 233.50 L 132.50 232.75 L 135.00 232.00 L 137.50 231.25 L 140.00 230.50 L 142.50 229.75 L 145.00 229.00 L 147.50 228.25 L 150.00 227.50 L 152.50 226.75 L 155.00 226.00 L 157.50 225.25 L 160.00 224.50 L 162.50 223.75 L 165.00 223.00 L 167.50 222.25 L 170.00 221.50 L 172.50 220.75 L 175.00 220.00 L 177.50 219.25 L 180.00 218.50 L 182.50 217.75 L 185.00 217.00 L 187.50 216.25 L 190.00 215.50 L 192.50 214.75 L 195.00 214.00 L 197.50 213.25 L 200.00 212.50 L 202.50 211.75 L 205.00 211.00 L 207.50 210.25 L 210.00 209.50 L 212.50 208.75 L 215.00 208.00 L 217.50 207.25 L 220.00 206.50 L 222.50 205.75 L 225.00 205.00 L 227.50 204.25 L 230.00 203.50 L 232.50 202.75 L 235.00 202.00 L 237.50 201.25 L 240.00 200.50 L 242.50 199.75 L 245.00 199.00 L 247.50 198.25 L 250.00 197.50 L 252.50 196.75 L 255.00 196.00 L 257.50 195.25 L 260.00 194.50 L 262.50 193.75 L 265.00 193.00 L 267.50 192.25 L 270.00 191.50 L 272.50 190.75 L 275.00 190.00 L 277.50 189.25 L 280.00 188.50 L 282.50 187.75 L 285.00 187.00 L 287.50 186.25 L 290.00 185.50 L 292.50 184.75 L 295.00 184.00 L 297.50 183.25 L 300.00 182.50 L 302.50 181.75 L 305.00 181.00 L 307.50 180.25 L 310.00 179.50 L 312.50 178.75 L 315.00 178.00 L 317.50 177.25 L 320.00 176.50 L 322.50 175.75 L 325.00 175.00 L 327.50 174.25 L 330.00 173.50 L 332.50 172.75 L 335.00 172.00 L 337.50 171.25 L 340.00 170.50 L 342.50 169.75 L 345.00 169.00 L 347.50 168.25 L 350.00 167.50 L 352.50 166.75 L 355.00 166.00 L 357.50 165.25 L 360.00 164.50 L 362.50 163.75 L 365.00 163.00 L 367.50 162.25 L 370.00 161.50 L 372.50 160.75 L 375.00 160.00 L 377.50 159.25 L 380.00 158.50 L 382.50 157.75 L 385.00 157.00 L 387.50 156.25 L 390.00 155.50 L 392.50 154.75 L 395.00 154.00 L 397.50 153.25 L 400.00 152.50 L 402.50 151.75 L 405.00 151.00 L 407.50 150.25 L 410.00 149.50 L 412.50 148.75 L 415.00 148.00 L 417.50 147.25 L 420.00 146.50 L 422.50 145.75 L 425.00 145.00 L 427.50 144.25 L 430.00 143.50 L 432.50 142.75 L 435.00 142.00 L 437.50 141.25 L 440.00 140.50 L 442.50 139.75 L 445.00 139.00 L 447.50 138.25 L 450.00 137.50 L 452.50 136.75 L 455.00 136.00 L 457.50 135.25 L 460.00 134.50 L 462.50 133.75 L 465.00 133.00 L 467.50 132.25 L 470.00 131.50 L 472.50 130.75 L 475.00 130.00 L 477.50 129.25 L 480.00 128.50 L 482.50 127.75 L 485.00 127.00 L 487.50 126.25 L 490.00 125.50 L 492.50 124.75 L 495.00 124.00 L 497.50 123.25 L 500.00 122.50 L 502.50 121.75 L 505.00 121.00 L 507.50 120.25 L 510.00 119.50 L 512.50 118.75 L 515.00 118.00 L 517.50 117.25 L 520.00 116.50 L 522.50 115.75 L 525.00 115.00 L 527.50 114.25 L 530.00 113.50 L 532.50 112.75 L 535.00 112.00 L 537.50 111.25 L 540.00 110.50 L 542.50 109.75 L 545.00 109.00 L 547.50 108.25 L 550.00 107.50 L 552.50 106.75 L 555.00 106.00 L 557.50 105.25 L 560.00 104.50 L 562.50 103.75 L 565.00 103.00 L 567.50 102.25 L 570.00 101.50 L 572.50 100.75 L 575.00 100.00" fill="none" stroke="#22c55e" stroke-width="3" stroke-linecap="round" stroke-linejoin="round"/>
  <g class="marker-group">
    <circle cx="75.0" cy="250.0" r="6" fill="#3b82f6" stroke="white" stroke-width="2"/>
    <circle cx="158.3" cy="225.0" r="6" fill="#22c55e" stroke="white" stroke-width="2"/>
    <circle cx="241.7" cy="200.0" r="6" fill="#22c55e" stroke="white" stroke-width="2"/>
  </g>
  <g class="label-group">
    <rect x="40.0" y="242.0" width="100" height="16" fill="white" fill-opacity="0.9" rx="3"/>
    <text x="90.0" y="254.0" text-anchor="start" font-size="11" font-weight="bold" fill="#3b82f6">$500 Iniciales (b)</text>
  </g>
  <g class="annotation-group">
    <line x1="158.3" y1="225.0" x2="241.7" y2="225.0" stroke="#64748b" stroke-width="2.5"/>
    <polygon points="241.7,225.0 232.5,228.9 232.5,221.1" fill="#64748b"/>
    <rect x="178.0" y="203.0" width="44" height="14" rx="3" fill="white" fill-opacity="0.9"/>
    <text x="200.0" y="213.0" text-anchor="middle" font-size="11" font-weight="bold" fill="#64748b">+1 mes</text>
    <line x1="241.7" y1="225.0" x2="241.7" y2="200.0" stroke="#22c55e" stroke-width="2.5"/>
    <polygon points="241.7,200.0 245.6,209.2 237.8,209.2" fill="#22c55e"/>
    <rect x="219.66666666666666" y="190.5" width="44" height="14" rx="3" fill="white" fill-opacity="0.9"/>
    <text x="241.7" y="200.5" text-anchor="middle" font-size="11" font-weight="bold" fill="#22c55e">+$100</text>
    <text x="408.3" y="175.0" text-anchor="middle" font-size="12" font-weight="bold" fill="#22c55e">Pendiente m = 100</text>
    <text x="408.3" y="189.0" text-anchor="middle" font-size="12" font-weight="bold" fill="#22c55e">(Ahorro mensual)</text>
  </g>
</svg>