<svg xmlns="http://www.w3.org/2000/svg" viewBox="0 0 650 450" 
style="max-width: 100%; height: auto; font-family: Inter, system-ui, sans-serif;">

  <style>
    .wave-path {
      stroke-dasharray: 3000;
      stroke-dashoffset: 3000;
      animation: drawWave 2s ease-out forwards;
    }
    .marker-group { opacity: 0; animation: fadeIn 0.5s ease-out 2s forwards; }
    .label-group { opacity: 0; animation: fadeIn 0.5s ease-out 2.3s forwards; }
    .annotation-group { opacity: 0; animation: fadeIn 0.5s ease-out 2.5s forwards; }
    @keyframes drawWave { to { stroke-dashoffset: 0; } }
    @keyframes fadeIn { to { opacity: 1; } }
  </style>

  <rect width="650" height="450" fill="#f8fafc" rx="8"/>
  <text x="325.0" y="25" text-anchor="middle" font-size="16" font-weight="bold" fill="#1e293b">Salario por Hora: y = 15x</text>
  <g class="grid">
    <line x1="75.0" y1="75" x2="75.0" y2="375" stroke="#e2e8f0" stroke-dasharray="4,4"/>
    <line x1="158.3" y1="75" x2="158.3" y2="375" stroke="#e2e8f0" stroke-dasharray="4,4"/>
    <line x1="241.7" y1="75" x2="241.7" y2="375" stroke="#e2e8f0" stroke-dasharray="4,4"/>
    <line x1="325.0" y1="75" x2="325.0" y2="375" stroke="#e2e8f0" stroke-dasharray="4,4"/>
    <line x1="408.3" y1="75" x2="408.3" y2="375" stroke="#e2e8f0" stroke-dasharray="4,4"/>
    <line x1="491.7" y1="75" x2="491.7" y2="375" stroke="#e2e8f0" stroke-dasharray="4,4"/>
    <line x1="575.0" y1="75" x2="575.0" y2="375" stroke="#e2e8f0" stroke-dasharray="4,4"/>
    <line x1="75" y1="325.0" x2="575" y2="325.0" stroke="#e2e8f0" stroke-dasharray="4,4"/>
    <line x1="75" y1="275.0" x2="575" y2="275.0" stroke="#e2e8f0" stroke-dasharray="4,4"/>
    <line x1="75" y1="225.0" x2="575" y2="225.0" stroke="#e2e8f0" stroke-dasharray="4,4"/>
    <line x1="75" y1="175.0" x2="575" y2="175.0" stroke="#e2e8f0" stroke-dasharray="4,4"/>
    <line x1="75" y1="125.0" x2="575" y2="125.0" stroke="#e2e8f0" stroke-dasharray="4,4"/>
    <line x1="75" y1="75.0" x2="575" y2="75.0" stroke="#e2e8f0" stroke-dasharray="4,4"/>
  </g>
  <g class="axes">
    <line x1="75" y1="375.0" x2="575" y2="375.0" stroke="#374151" stroke-width="2"/>
    <polygon points="575,375.0 567,371.0 567,379.0" fill="#374151"/>
    <line x1="75.0" y1="75" x2="75.0" y2="375" stroke="#374151" stroke-width="2"/>
    <polygon points="75.0,75 71.0,83 79.0,83" fill="#374151"/>
    <text x="575" y="363.0" text-anchor="end" font-size="14" font-weight="bold" fill="#374151">Horas (x)</text>
    <text x="85.0" y="75" text-anchor="start" font-size="14" font-weight="bold" fill="#374151">Ganancia ($)</text>
    <line x1="158.3" y1="371.0" x2="158.3" y2="379.0" stroke="#374151" stroke-width="1.5"/>
    <text x="158.3" y="395.0" text-anchor="middle" font-size="12" fill="#374151">1</text>
    <line x1="241.7" y1="371.0" x2="241.7" y2="379.0" stroke="#374151" stroke-width="1.5"/>
    <text x="241.7" y="395.0" text-anchor="middle" font-size="12" fill="#374151">2</text>
    <line x1="325.0" y1="371.0" x2="325.0" y2="379.0" stroke="#374151" stroke-width="1.5"/>
    <text x="325.0" y="395.0" text-anchor="middle" font-size="12" fill="#374151">3</text>
    <line x1="408.3" y1="371.0" x2="408.3" y2="379.0" stroke="#374151" stroke-width="1.5"/>
    <text x="408.3" y="395.0" text-anchor="middle" font-size="12" fill="#374151">4</text>
    <line x1="491.7" y1="371.0" x2="491.7" y2="379.0" stroke="#374151" stroke-width="1.5"/>
    <text x="491.7" y="395.0" text-anchor="middle" font-size="12" fill="#374151">5</text>
    <line x1="575.0" y1="371.0" x2="575.0" y2="379.0" stroke="#374151" stroke-width="1.5"/>
    <text x="575.0" y="395.0" text-anchor="middle" font-size="12" fill="#374151">6</text>
    <line x1="71.0" y1="325.0" x2="79.0" y2="325.0" stroke="#374151" stroke-width="1.5"/>
    <text x="63.0" y="329.0" text-anchor="end" font-size="12" fill="#374151">15</text>
    <line x1="71.0" y1="275.0" x2="79.0" y2="275.0" stroke="#374151" stroke-width="1.5"/>
    <text x="63.0" y="279.0" text-anchor="end" font-size="12" fill="#374151">30</text>
    <line x1="71.0" y1="225.0" x2="79.0" y2="225.0" stroke="#374151" stroke-width="1.5"/>
    <text x="63.0" y="229.0" text-anchor="end" font-size="12" fill="#374151">45</text>
    <line x1="71.0" y1="175.0" x2="79.0" y2="175.0" stroke="#374151" stroke-width="1.5"/>
    <text x="63.0" y="179.0" text-anchor="end" font-size="12" fill="#374151">60</text>
    <line x1="71.0" y1="125.0" x2="79.0" y2="125.0" stroke="#374151" stroke-width="1.5"/>
    <text x="63.0" y="129.0" text-anchor="end" font-size="12" fill="#374151">75</text>
    <line x1="71.0" y1="75.0" x2="79.0" y2="75.0" stroke="#374151" stroke-width="1.5"/>
    <text x="63.0" y="79.0" text-anchor="end" font-size="12" fill="#374151">90</text>
  </g>
  <path id="func-salario" class="wave-path" d="M 75.00 375.00 L 77.50 373.50 L 80.00 372.00 L 82.50 370.50 L 85.00 369.00 L 87.50 367.50 L 90.00 366.00 L 92.50 364.50 L 95.00 363.00 L 97.50 361.50 L 100.00 360.00 L 102.50 358.50 L 105.00 357.00 L 107.50 355.50 L 110.00 354.00 L 112.50 352.50 L 115.00 351.00 L 117.50 349.50 L 120.00 348.00 L 122.50 346.50 L 125.00 345.00 L 127.50 343.50 L 130.00 342.00 L 132.50 340.50 L 135.00 339.00 L 137.50 337.50 L 140.00 336.00 L 142.50 334.50 L 145.00 333.00 L 147.50 331.50 L 150.00 330.00 L 152.50 328.50 L 155.00 327.00 L 157.50 325.50 L 160.00 324.00 L 162.50 322.50 L 165.00 321.00 L 167.50 319.50 L 170.00 318.00 L 172.50 316.50 L 175.00 315.00 L 177.50 313.50 L 180.00 312.00 L 182.50 310.50 L 185.00 309.00 L 187.50 307.50 L 190.00 306.00 L 192.50 304.50 L 195.00 303.00 L 197.50 301.50 L 200.00 300.00 L 202.50 298.50 L 205.00 297.00 L 207.50 295.50 L 210.00 294.00 L 212.50 292.50 L 215.00 291.00 L 217.50 289.50 L 220.00 288.00 L 222.50 286.50 L 225.00 285.00 L 227.50 283.50 L 230.00 282.00 L 232.50 280.50 L 235.00 279.00 L 237.50 277.50 L 240.00 276.00 L 242.50 274.50 L 245.00 273.00 L 247.50 271.50 L 250.00 270.00 L 252.50 268.50 L 255.00 267.00 L 257.50 265.50 L 260.00 264.00 L 262.50 262.50 L 265.00 261.00 L 267.50 259.50 L 270.00 258.00 L 272.50 256.50 L 275.00 255.00 L 277.50 253.50 L 280.00 252.00 L 282.50 250.50 L 285.00 249.00 L 287.50 247.50 L 290.00 246.00 L 292.50 244.50 L 295.00 243.00 L 297.50 241.50 L 300.00 240.00 L 302.50 238.50 L 305.00 237.00 L 307.50 235.50 L 310.00 234.00 L 312.50 232.50 L 315.00 231.00 L 317.50 229.50 L 320.00 228.00 L 322.50 226.50 L 325.00 225.00 L 327.50 223.50 L 330.00 222.00 L 332.50 220.50 L 335.00 219.00 L 337.50 217.50 L 340.00 216.00 L 342.50 214.50 L 345.00 213.00 L 347.50 211.50 L 350.00 210.00 L 352.50 208.50 L 355.00 207.00 L 357.50 205.50 L 360.00 204.00 L 362.50 202.50 L 365.00 201.00 L 367.50 199.50 L 370.00 198.00 L 372.50 196.50 L 375.00 195.00 L 377.50 193.50 L 380.00 192.00 L 382.50 190.50 L 385.00 189.00 L 387.50 187.50 L 390.00 186.00 L 392.50 184.50 L 395.00 183.00 L 397.50 181.50 L 400.00 180.00 L 402.50 178.50 L 405.00 177.00 L 407.50 175.50 L 410.00 174.00 L 412.50 172.50 L 415.00 171.00 L 417.50 169.50 L 420.00 168.00 L 422.50 166.50 L 425.00 165.00 L 427.50 163.50 L 430.00 162.00 L 432.50 160.50 L 435.00 159.00 L 437.50 157.50 L 440.00 156.00 L 442.50 154.50 L 445.00 153.00 L 447.50 151.50 L 450.00 150.00 L 452.50 148.50 L 455.00 147.00 L 457.50 145.50 L 460.00 144.00 L 462.50 142.50 L 465.00 141.00 L 467.50 139.50 L 470.00 138.00 L 472.50 136.50 L 475.00 135.00 L 477.50 133.50 L 480.00 132.00 L 482.50 130.50 L 485.00 129.00 L 487.50 127.50 L 490.00 126.00 L 492.50 124.50 L 495.00 123.00 L 497.50 121.50 L 500.00 120.00 L 502.50 118.50 L 505.00 117.00 L 507.50 115.50 L 510.00 114.00 L 512.50 112.50 L 515.00 111.00 L 517.50 109.50 L 520.00 108.00 L 522.50 106.50 L 525.00 105.00 L 527.50 103.50 L 530.00 102.00 L 532.50 100.50 L 535.00 99.00 L 537.50 97.50 L 540.00 96.00 L 542.50 94.50 L 545.00 93.00 L 547.50 91.50 L 550.00 90.00 L 552.50 88.50 L 555.00 87.00 L 557.50 85.50 L 560.00 84.00 L 562.50 82.50 L 565.00 81.00 L 567.50 79.50 L 570.00 78.00 L 572.50 76.50 L 575.00 75.00" fill="none" stroke="#3b82f6" stroke-width="3" stroke-linecap="round" stroke-linejoin="round"/>
  <g class="marker-group">
    <circle cx="75.0" cy="375.0" r="6" fill="#ef4444" stroke="white" stroke-width="2"/>
    <circle cx="158.3" cy="325.0" r="6" fill="#3b82f6" stroke="white" stroke-width="2"/>
    <circle cx="241.7" cy="275.0" r="6" fill="#3b82f6" stroke="white" stroke-width="2"/>
  </g>
  <g class="label-group">
    <rect x="40.0" y="367.0" width="100" height="16" fill="white" fill-opacity="0.9" rx="3"/>
    <text x="90.0" y="379.0" text-anchor="start" font-size="11" font-weight="bold" fill="#ef4444">Inicio $0 (b)</text>
  </g>
  <g class="annotation-group">
    <line x1="158.3" y1="325.0" x2="241.7" y2="325.0" stroke="#64748b" stroke-width="2.5"/>
    <polygon points="241.7,325.0 232.5,328.9 232.5,321.1" fill="#64748b"/>
    <rect x="178.0" y="303.0" width="44" height="14" rx="3" fill="white" fill-opacity="0.9"/>
    <text x="200.0" y="313.0" text-anchor="middle" font-size="11" font-weight="bold" fill="#64748b">+1 h</text>
    <line x1="241.7" y1="325.0" x2="241.7" y2="275.0" stroke="#22c55e" stroke-width="2.5"/>
    <polygon points="241.7,275.0 245.6,284.2 237.8,284.2" fill="#22c55e"/>
    <rect x="219.66666666666666" y="278.0" width="44" height="14" rx="3" fill="white" fill-opacity="0.9"/>
    <text x="241.7" y="288.0" text-anchor="middle" font-size="11" font-weight="bold" fill="#22c55e">+$15</text>
    <text x="408.3" y="275.0" text-anchor="middle" font-size="12" font-weight="bold" fill="#22c55e">Pendiente m = 15</text>
    <text x="408.3" y="289.0" text-anchor="middle" font-size="12" font-weight="bold" fill="#22c55e">(Gana por hora)</text>
  </g>
</svg>