<svg xmlns="http://www.w3.org/2000/svg" viewBox="0 0 650 450" 
style="max-width: 100%; height: auto; font-family: Inter, system-ui, sans-serif;">

  <style>
    .wave-path {
      stroke-dasharray: 3000;
      stroke-dashoffset: 3000;
      animation: drawWave 2s ease-out forwards;
    }
    .marker-group { opacity: 0; animation: fadeIn 0.5s ease-out 2s forwards; }
    .label-group { opacity: 0; animation: fadeIn 0.5s ease-out 2.3s forwards; }
    .annotation-group { opacity: 0; animation: fadeIn 0.5s ease-out 2.5s forwards; }
    @keyframes drawWave { to { stroke-dashoffset: 0; } }
    @keyframes fadeIn { to { opacity: 1; } }
  </style>

  <rect width="650" height="450" fill="#f8fafc" rx="8"/>
  <text x="325.0" y="25" text-anchor="middle" font-size="16" font-weight="bold" fill="#1e293b">Tanque Vacíandose: y = -5x + 100</text>
  <g class="grid">
    <line x1="75.0" y1="75" x2="75.0" y2="375" stroke="#e2e8f0" stroke-dasharray="4,4"/>
    <line x1="125.0" y1="75" x2="125.0" y2="375" stroke="#e2e8f0" stroke-dasharray="4,4"/>
    <line x1="175.0" y1="75" x2="175.0" y2="375" stroke="#e2e8f0" stroke-dasharray="4,4"/>
    <line x1="225.0" y1="75" x2="225.0" y2="375" stroke="#e2e8f0" stroke-dasharray="4,4"/>
    <line x1="275.0" y1="75" x2="275.0" y2="375" stroke="#e2e8f0" stroke-dasharray="4,4"/>
    <line x1="325.0" y1="75" x2="325.0" y2="375" stroke="#e2e8f0" stroke-dasharray="4,4"/>
    <line x1="375.0" y1="75" x2="375.0" y2="375" stroke="#e2e8f0" stroke-dasharray="4,4"/>
    <line x1="425.0" y1="75" x2="425.0" y2="375" stroke="#e2e8f0" stroke-dasharray="4,4"/>
    <line x1="475.0" y1="75" x2="475.0" y2="375" stroke="#e2e8f0" stroke-dasharray="4,4"/>
    <line x1="525.0" y1="75" x2="525.0" y2="375" stroke="#e2e8f0" stroke-dasharray="4,4"/>
    <line x1="575.0" y1="75" x2="575.0" y2="375" stroke="#e2e8f0" stroke-dasharray="4,4"/>
    <line x1="75" y1="347.7" x2="575" y2="347.7" stroke="#e2e8f0" stroke-dasharray="4,4"/>
    <line x1="75" y1="320.5" x2="575" y2="320.5" stroke="#e2e8f0" stroke-dasharray="4,4"/>
    <line x1="75" y1="293.2" x2="575" y2="293.2" stroke="#e2e8f0" stroke-dasharray="4,4"/>
    <line x1="75" y1="265.9" x2="575" y2="265.9" stroke="#e2e8f0" stroke-dasharray="4,4"/>
    <line x1="75" y1="238.6" x2="575" y2="238.6" stroke="#e2e8f0" stroke-dasharray="4,4"/>
    <line x1="75" y1="211.4" x2="575" y2="211.4" stroke="#e2e8f0" stroke-dasharray="4,4"/>
    <line x1="75" y1="184.1" x2="575" y2="184.1" stroke="#e2e8f0" stroke-dasharray="4,4"/>
    <line x1="75" y1="156.8" x2="575" y2="156.8" stroke="#e2e8f0" stroke-dasharray="4,4"/>
    <line x1="75" y1="129.5" x2="575" y2="129.5" stroke="#e2e8f0" stroke-dasharray="4,4"/>
    <line x1="75" y1="102.3" x2="575" y2="102.3" stroke="#e2e8f0" stroke-dasharray="4,4"/>
    <line x1="75" y1="75.0" x2="575" y2="75.0" stroke="#e2e8f0" stroke-dasharray="4,4"/>
  </g>
  <g class="axes">
    <line x1="75" y1="375.0" x2="575" y2="375.0" stroke="#374151" stroke-width="2"/>
    <polygon points="575,375.0 567,371.0 567,379.0" fill="#374151"/>
    <line x1="75.0" y1="75" x2="75.0" y2="375" stroke="#374151" stroke-width="2"/>
    <polygon points="75.0,75 71.0,83 79.0,83" fill="#374151"/>
    <text x="575" y="363.0" text-anchor="end" font-size="14" font-weight="bold" fill="#374151">Minutos (x)</text>
    <text x="85.0" y="75" text-anchor="start" font-size="14" font-weight="bold" fill="#374151">Litros (y)</text>
    <line x1="125.0" y1="371.0" x2="125.0" y2="379.0" stroke="#374151" stroke-width="1.5"/>
    <text x="125.0" y="395.0" text-anchor="middle" font-size="12" fill="#374151">2</text>
    <line x1="175.0" y1="371.0" x2="175.0" y2="379.0" stroke="#374151" stroke-width="1.5"/>
    <text x="175.0" y="395.0" text-anchor="middle" font-size="12" fill="#374151">4</text>
    <line x1="225.0" y1="371.0" x2="225.0" y2="379.0" stroke="#374151" stroke-width="1.5"/>
    <text x="225.0" y="395.0" text-anchor="middle" font-size="12" fill="#374151">6</text>
    <line x1="275.0" y1="371.0" x2="275.0" y2="379.0" stroke="#374151" stroke-width="1.5"/>
    <text x="275.0" y="395.0" text-anchor="middle" font-size="12" fill="#374151">8</text>
    <line x1="325.0" y1="371.0" x2="325.0" y2="379.0" stroke="#374151" stroke-width="1.5"/>
    <text x="325.0" y="395.0" text-anchor="middle" font-size="12" fill="#374151">10</text>
    <line x1="375.0" y1="371.0" x2="375.0" y2="379.0" stroke="#374151" stroke-width="1.5"/>
    <text x="375.0" y="395.0" text-anchor="middle" font-size="12" fill="#374151">12</text>
    <line x1="425.0" y1="371.0" x2="425.0" y2="379.0" stroke="#374151" stroke-width="1.5"/>
    <text x="425.0" y="395.0" text-anchor="middle" font-size="12" fill="#374151">14</text>
    <line x1="475.0" y1="371.0" x2="475.0" y2="379.0" stroke="#374151" stroke-width="1.5"/>
    <text x="475.0" y="395.0" text-anchor="middle" font-size="12" fill="#374151">16</text>
    <line x1="525.0" y1="371.0" x2="525.0" y2="379.0" stroke="#374151" stroke-width="1.5"/>
    <text x="525.0" y="395.0" text-anchor="middle" font-size="12" fill="#374151">18</text>
    <line x1="575.0" y1="371.0" x2="575.0" y2="379.0" stroke="#374151" stroke-width="1.5"/>
    <text x="575.0" y="395.0" text-anchor="middle" font-size="12" fill="#374151">20</text>
    <line x1="71.0" y1="347.7" x2="79.0" y2="347.7" stroke="#374151" stroke-width="1.5"/>
    <text x="63.0" y="351.7" text-anchor="end" font-size="12" fill="#374151">10</text>
    <line x1="71.0" y1="320.5" x2="79.0" y2="320.5" stroke="#374151" stroke-width="1.5"/>
    <text x="63.0" y="324.5" text-anchor="end" font-size="12" fill="#374151">20</text>
    <line x1="71.0" y1="293.2" x2="79.0" y2="293.2" stroke="#374151" stroke-width="1.5"/>
    <text x="63.0" y="297.2" text-anchor="end" font-size="12" fill="#374151">30</text>
    <line x1="71.0" y1="265.9" x2="79.0" y2="265.9" stroke="#374151" stroke-width="1.5"/>
    <text x="63.0" y="269.9" text-anchor="end" font-size="12" fill="#374151">40</text>
    <line x1="71.0" y1="238.6" x2="79.0" y2="238.6" stroke="#374151" stroke-width="1.5"/>
    <text x="63.0" y="242.6" text-anchor="end" font-size="12" fill="#374151">50</text>
    <line x1="71.0" y1="211.4" x2="79.0" y2="211.4" stroke="#374151" stroke-width="1.5"/>
    <text x="63.0" y="215.4" text-anchor="end" font-size="12" fill="#374151">60</text>
    <line x1="71.0" y1="184.1" x2="79.0" y2="184.1" stroke="#374151" stroke-width="1.5"/>
    <text x="63.0" y="188.1" text-anchor="end" font-size="12" fill="#374151">70</text>
    <line x1="71.0" y1="156.8" x2="79.0" y2="156.8" stroke="#374151" stroke-width="1.5"/>
    <text x="63.0" y="160.8" text-anchor="end" font-size="12" fill="#374151">80</text>
    <line x1="71.0" y1="129.5" x2="79.0" y2="129.5" stroke="#374151" stroke-width="1.5"/>
    <text x="63.0" y="133.5" text-anchor="end" font-size="12" fill="#374151">90</text>
    <line x1="71.0" y1="102.3" x2="79.0" y2="102.3" stroke="#374151" stroke-width="1.5"/>
    <text x="63.0" y="106.3" text-anchor="end" font-size="12" fill="#374151">100</text>
    <line x1="71.0" y1="75.0" x2="79.0" y2="75.0" stroke="#374151" stroke-width="1.5"/>
    <text x="63.0" y="79.0" text-anchor="end" font-size="12" fill="#374151">110</text>
  </g>
  <path id="func-tanque" class="wave-path" d="M 75.00 102.27 L 77.50 103.64 L 80.00 105.00 L 82.50 106.36 L 85.00 107.73 L 87.50 109.09 L 90.00 110.45 L 92.50 111.82 L 95.00 113.18 L 97.50 114.55 L 100.00 115.91 L 102.50 117.27 L 105.00 118.64 L 107.50 120.00 L 110.00 121.36 L 112.50 122.73 L 115.00 124.09 L 117.50 125.45 L 120.00 126.82 L 122.50 128.18 L 125.00 129.55 L 127.50 130.91 L 130.00 132.27 L 132.50 133.64 L 135.00 135.00 L 137.50 136.36 L 140.00 137.73 L 142.50 139.09 L 145.00 140.45 L 147.50 141.82 L 150.00 143.18 L 152.50 144.55 L 155.00 145.91 L 157.50 147.27 L 160.00 148.64 L 162.50 150.00 L 165.00 151.36 L 167.50 152.73 L 170.00 154.09 L 172.50 155.45 L 175.00 156.82 L 177.50 158.18 L 180.00 159.55 L 182.50 160.91 L 185.00 162.27 L 187.50 163.64 L 190.00 165.00 L 192.50 166.36 L 195.00 167.73 L 197.50 169.09 L 200.00 170.45 L 202.50 171.82 L 205.00 173.18 L 207.50 174.55 L 210.00 175.91 L 212.50 177.27 L 215.00 178.64 L 217.50 180.00 L 220.00 181.36 L 222.50 182.73 L 225.00 184.09 L 227.50 185.45 L 230.00 186.82 L 232.50 188.18 L 235.00 189.55 L 237.50 190.91 L 240.00 192.27 L 242.50 193.64 L 245.00 195.00 L 247.50 196.36 L 250.00 197.73 L 252.50 199.09 L 255.00 200.45 L 257.50 201.82 L 260.00 203.18 L 262.50 204.55 L 265.00 205.91 L 267.50 207.27 L 270.00 208.64 L 272.50 210.00 L 275.00 211.36 L 277.50 212.73 L 280.00 214.09 L 282.50 215.45 L 285.00 216.82 L 287.50 218.18 L 290.00 219.55 L 292.50 220.91 L 295.00 222.27 L 297.50 223.64 L 300.00 225.00 L 302.50 226.36 L 305.00 227.73 L 307.50 229.09 L 310.00 230.45 L 312.50 231.82 L 315.00 233.18 L 317.50 234.55 L 320.00 235.91 L 322.50 237.27 L 325.00 238.64 L 327.50 240.00 L 330.00 241.36 L 332.50 242.73 L 335.00 244.09 L 337.50 245.45 L 340.00 246.82 L 342.50 248.18 L 345.00 249.55 L 347.50 250.91 L 350.00 252.27 L 352.50 253.64 L 355.00 255.00 L 357.50 256.36 L 360.00 257.73 L 362.50 259.09 L 365.00 260.45 L 367.50 261.82 L 370.00 263.18 L 372.50 264.55 L 375.00 265.91 L 377.50 267.27 L 380.00 268.64 L 382.50 270.00 L 385.00 271.36 L 387.50 272.73 L 390.00 274.09 L 392.50 275.45 L 395.00 276.82 L 397.50 278.18 L 400.00 279.55 L 402.50 280.91 L 405.00 282.27 L 407.50 283.64 L 410.00 285.00 L 412.50 286.36 L 415.00 287.73 L 417.50 289.09 L 420.00 290.45 L 422.50 291.82 L 425.00 293.18 L 427.50 294.55 L 430.00 295.91 L 432.50 297.27 L 435.00 298.64 L 437.50 300.00 L 440.00 301.36 L 442.50 302.73 L 445.00 304.09 L 447.50 305.45 L 450.00 306.82 L 452.50 308.18 L 455.00 309.55 L 457.50 310.91 L 460.00 312.27 L 462.50 313.64 L 465.00 315.00 L 467.50 316.36 L 470.00 317.73 L 472.50 319.09 L 475.00 320.45 L 477.50 321.82 L 480.00 323.18 L 482.50 324.55 L 485.00 325.91 L 487.50 327.27 L 490.00 328.64 L 492.50 330.00 L 495.00 331.36 L 497.50 332.73 L 500.00 334.09 L 502.50 335.45 L 505.00 336.82 L 507.50 338.18 L 510.00 339.55 L 512.50 340.91 L 515.00 342.27 L 517.50 343.64 L 520.00 345.00 L 522.50 346.36 L 525.00 347.73 L 527.50 349.09 L 530.00 350.45 L 532.50 351.82 L 535.00 353.18 L 537.50 354.55 L 540.00 355.91 L 542.50 357.27 L 545.00 358.64 L 547.50 360.00 L 550.00 361.36 L 552.50 362.73 L 555.00 364.09 L 557.50 365.45 L 560.00 366.82 L 562.50 368.18 L 565.00 369.55 L 567.50 370.91 L 570.00 372.27 L 572.50 373.64 L 575.00 375.00" fill="none" stroke="#ef4444" stroke-width="3" stroke-linecap="round" stroke-linejoin="round"/>
  <g class="marker-group">
    <circle cx="75.0" cy="102.3" r="6" fill="#3b82f6" stroke="white" stroke-width="2"/>
    <circle cx="200.0" cy="170.5" r="6" fill="#ef4444" stroke="white" stroke-width="2"/>
    <circle cx="325.0" cy="238.6" r="6" fill="#ef4444" stroke="white" stroke-width="2"/>
  </g>
  <g class="label-group">
    <rect x="40.0" y="94.27272727272728" width="100" height="16" fill="white" fill-opacity="0.9" rx="3"/>
    <text x="90.0" y="106.3" text-anchor="start" font-size="11" font-weight="bold" fill="#3b82f6">Inicio 100L (b)</text>
  </g>
  <g class="annotation-group">
    <line x1="200.0" y1="170.5" x2="325.0" y2="170.5" stroke="#64748b" stroke-width="2.5"/>
    <polygon points="325.0,170.5 315.8,174.3 315.8,166.6" fill="#64748b"/>
    <rect x="240.5" y="148.45454545454544" width="44" height="14" rx="3" fill="white" fill-opacity="0.9"/>
    <text x="262.5" y="158.5" text-anchor="middle" font-size="11" font-weight="bold" fill="#64748b">+5 min</text>
    <line x1="325.0" y1="170.5" x2="325.0" y2="238.6" stroke="#ef4444" stroke-width="2.5"/>
    <polygon points="325.0,238.6 321.1,229.4 328.9,229.4" fill="#ef4444"/>
    <rect x="303.0" y="182.54545454545453" width="44" height="14" rx="3" fill="white" fill-opacity="0.9"/>
    <text x="325.0" y="192.5" text-anchor="middle" font-size="11" font-weight="bold" fill="#ef4444">-25 L</text>
    <text x="450.0" y="156.8" text-anchor="middle" font-size="12" font-weight="bold" fill="#ef4444">Pendiente Negativa</text>
    <text x="450.0" y="170.8" text-anchor="middle" font-size="12" font-weight="bold" fill="#ef4444">(Disminuye)</text>
  </g>
</svg>