<svg xmlns="http://www.w3.org/2000/svg" viewBox="0 0 650 450" 
style="max-width: 100%; height: auto; font-family: Inter, system-ui, sans-serif;">

  <style>
    .wave-path {
      stroke-dasharray: 3000;
      stroke-dashoffset: 3000;
      animation: drawWave 2s ease-out forwards;
    }
    .marker-group { opacity: 0; animation: fadeIn 0.5s ease-out 2s forwards; }
    .label-group { opacity: 0; animation: fadeIn 0.5s ease-out 2.3s forwards; }
    .annotation-group { opacity: 0; animation: fadeIn 0.5s ease-out 2.5s forwards; }
    @keyframes drawWave { to { stroke-dashoffset: 0; } }
    @keyframes fadeIn { to { opacity: 1; } }
  </style>

  <rect width="650" height="450" fill="#f8fafc" rx="8"/>
  <text x="325.0" y="25" text-anchor="middle" font-size="16" font-weight="bold" fill="#1e293b">Costo del Taxi: y = 2x + 3</text>
  <g class="grid">
    <line x1="75.0" y1="75" x2="75.0" y2="375" stroke="#e2e8f0" stroke-dasharray="4,4"/>
    <line x1="175.0" y1="75" x2="175.0" y2="375" stroke="#e2e8f0" stroke-dasharray="4,4"/>
    <line x1="275.0" y1="75" x2="275.0" y2="375" stroke="#e2e8f0" stroke-dasharray="4,4"/>
    <line x1="375.0" y1="75" x2="375.0" y2="375" stroke="#e2e8f0" stroke-dasharray="4,4"/>
    <line x1="475.0" y1="75" x2="475.0" y2="375" stroke="#e2e8f0" stroke-dasharray="4,4"/>
    <line x1="575.0" y1="75" x2="575.0" y2="375" stroke="#e2e8f0" stroke-dasharray="4,4"/>
    <line x1="75" y1="332.1" x2="575" y2="332.1" stroke="#e2e8f0" stroke-dasharray="4,4"/>
    <line x1="75" y1="289.3" x2="575" y2="289.3" stroke="#e2e8f0" stroke-dasharray="4,4"/>
    <line x1="75" y1="246.4" x2="575" y2="246.4" stroke="#e2e8f0" stroke-dasharray="4,4"/>
    <line x1="75" y1="203.6" x2="575" y2="203.6" stroke="#e2e8f0" stroke-dasharray="4,4"/>
    <line x1="75" y1="160.7" x2="575" y2="160.7" stroke="#e2e8f0" stroke-dasharray="4,4"/>
    <line x1="75" y1="117.9" x2="575" y2="117.9" stroke="#e2e8f0" stroke-dasharray="4,4"/>
    <line x1="75" y1="75.0" x2="575" y2="75.0" stroke="#e2e8f0" stroke-dasharray="4,4"/>
  </g>
  <g class="axes">
    <line x1="75" y1="375.0" x2="575" y2="375.0" stroke="#374151" stroke-width="2"/>
    <polygon points="575,375.0 567,371.0 567,379.0" fill="#374151"/>
    <line x1="75.0" y1="75" x2="75.0" y2="375" stroke="#374151" stroke-width="2"/>
    <polygon points="75.0,75 71.0,83 79.0,83" fill="#374151"/>
    <text x="575" y="363.0" text-anchor="end" font-size="14" font-weight="bold" fill="#374151">Kilómetros (x)</text>
    <text x="85.0" y="75" text-anchor="start" font-size="14" font-weight="bold" fill="#374151">Costo en Pesos (y)</text>
    <line x1="175.0" y1="371.0" x2="175.0" y2="379.0" stroke="#374151" stroke-width="1.5"/>
    <text x="175.0" y="395.0" text-anchor="middle" font-size="12" fill="#374151">1</text>
    <line x1="275.0" y1="371.0" x2="275.0" y2="379.0" stroke="#374151" stroke-width="1.5"/>
    <text x="275.0" y="395.0" text-anchor="middle" font-size="12" fill="#374151">2</text>
    <line x1="375.0" y1="371.0" x2="375.0" y2="379.0" stroke="#374151" stroke-width="1.5"/>
    <text x="375.0" y="395.0" text-anchor="middle" font-size="12" fill="#374151">3</text>
    <line x1="475.0" y1="371.0" x2="475.0" y2="379.0" stroke="#374151" stroke-width="1.5"/>
    <text x="475.0" y="395.0" text-anchor="middle" font-size="12" fill="#374151">4</text>
    <line x1="575.0" y1="371.0" x2="575.0" y2="379.0" stroke="#374151" stroke-width="1.5"/>
    <text x="575.0" y="395.0" text-anchor="middle" font-size="12" fill="#374151">5</text>
    <line x1="71.0" y1="332.1" x2="79.0" y2="332.1" stroke="#374151" stroke-width="1.5"/>
    <text x="63.0" y="336.1" text-anchor="end" font-size="12" fill="#374151">2</text>
    <line x1="71.0" y1="289.3" x2="79.0" y2="289.3" stroke="#374151" stroke-width="1.5"/>
    <text x="63.0" y="293.3" text-anchor="end" font-size="12" fill="#374151">4</text>
    <line x1="71.0" y1="246.4" x2="79.0" y2="246.4" stroke="#374151" stroke-width="1.5"/>
    <text x="63.0" y="250.4" text-anchor="end" font-size="12" fill="#374151">6</text>
    <line x1="71.0" y1="203.6" x2="79.0" y2="203.6" stroke="#374151" stroke-width="1.5"/>
    <text x="63.0" y="207.6" text-anchor="end" font-size="12" fill="#374151">8</text>
    <line x1="71.0" y1="160.7" x2="79.0" y2="160.7" stroke="#374151" stroke-width="1.5"/>
    <text x="63.0" y="164.7" text-anchor="end" font-size="12" fill="#374151">10</text>
    <line x1="71.0" y1="117.9" x2="79.0" y2="117.9" stroke="#374151" stroke-width="1.5"/>
    <text x="63.0" y="121.9" text-anchor="end" font-size="12" fill="#374151">12</text>
    <line x1="71.0" y1="75.0" x2="79.0" y2="75.0" stroke="#374151" stroke-width="1.5"/>
    <text x="63.0" y="79.0" text-anchor="end" font-size="12" fill="#374151">14</text>
  </g>
  <path id="taxi" class="wave-path" d="M 75.00 310.71 L 77.50 309.64 L 80.00 308.57 L 82.50 307.50 L 85.00 306.43 L 87.50 305.36 L 90.00 304.29 L 92.50 303.21 L 95.00 302.14 L 97.50 301.07 L 100.00 300.00 L 102.50 298.93 L 105.00 297.86 L 107.50 296.79 L 110.00 295.71 L 112.50 294.64 L 115.00 293.57 L 117.50 292.50 L 120.00 291.43 L 122.50 290.36 L 125.00 289.29 L 127.50 288.21 L 130.00 287.14 L 132.50 286.07 L 135.00 285.00 L 137.50 283.93 L 140.00 282.86 L 142.50 281.79 L 145.00 280.71 L 147.50 279.64 L 150.00 278.57 L 152.50 277.50 L 155.00 276.43 L 157.50 275.36 L 160.00 274.29 L 162.50 273.21 L 165.00 272.14 L 167.50 271.07 L 170.00 270.00 L 172.50 268.93 L 175.00 267.86 L 177.50 266.79 L 180.00 265.71 L 182.50 264.64 L 185.00 263.57 L 187.50 262.50 L 190.00 261.43 L 192.50 260.36 L 195.00 259.29 L 197.50 258.21 L 200.00 257.14 L 202.50 256.07 L 205.00 255.00 L 207.50 253.93 L 210.00 252.86 L 212.50 251.79 L 215.00 250.71 L 217.50 249.64 L 220.00 248.57 L 222.50 247.50 L 225.00 246.43 L 227.50 245.36 L 230.00 244.29 L 232.50 243.21 L 235.00 242.14 L 237.50 241.07 L 240.00 240.00 L 242.50 238.93 L 245.00 237.86 L 247.50 236.79 L 250.00 235.71 L 252.50 234.64 L 255.00 233.57 L 257.50 232.50 L 260.00 231.43 L 262.50 230.36 L 265.00 229.29 L 267.50 228.21 L 270.00 227.14 L 272.50 226.07 L 275.00 225.00 L 277.50 223.93 L 280.00 222.86 L 282.50 221.79 L 285.00 220.71 L 287.50 219.64 L 290.00 218.57 L 292.50 217.50 L 295.00 216.43 L 297.50 215.36 L 300.00 214.29 L 302.50 213.21 L 305.00 212.14 L 307.50 211.07 L 310.00 210.00 L 312.50 208.93 L 315.00 207.86 L 317.50 206.79 L 320.00 205.71 L 322.50 204.64 L 325.00 203.57 L 327.50 202.50 L 330.00 201.43 L 332.50 200.36 L 335.00 199.29 L 337.50 198.21 L 340.00 197.14 L 342.50 196.07 L 345.00 195.00 L 347.50 193.93 L 350.00 192.86 L 352.50 191.79 L 355.00 190.71 L 357.50 189.64 L 360.00 188.57 L 362.50 187.50 L 365.00 186.43 L 367.50 185.36 L 370.00 184.29 L 372.50 183.21 L 375.00 182.14 L 377.50 181.07 L 380.00 180.00 L 382.50 178.93 L 385.00 177.86 L 387.50 176.79 L 390.00 175.71 L 392.50 174.64 L 395.00 173.57 L 397.50 172.50 L 400.00 171.43 L 402.50 170.36 L 405.00 169.29 L 407.50 168.21 L 410.00 167.14 L 412.50 166.07 L 415.00 165.00 L 417.50 163.93 L 420.00 162.86 L 422.50 161.79 L 425.00 160.71 L 427.50 159.64 L 430.00 158.57 L 432.50 157.50 L 435.00 156.43 L 437.50 155.36 L 440.00 154.29 L 442.50 153.21 L 445.00 152.14 L 447.50 151.07 L 450.00 150.00 L 452.50 148.93 L 455.00 147.86 L 457.50 146.79 L 460.00 145.71 L 462.50 144.64 L 465.00 143.57 L 467.50 142.50 L 470.00 141.43 L 472.50 140.36 L 475.00 139.29 L 477.50 138.21 L 480.00 137.14 L 482.50 136.07 L 485.00 135.00 L 487.50 133.93 L 490.00 132.86 L 492.50 131.79 L 495.00 130.71 L 497.50 129.64 L 500.00 128.57 L 502.50 127.50 L 505.00 126.43 L 507.50 125.36 L 510.00 124.29 L 512.50 123.21 L 515.00 122.14 L 517.50 121.07 L 520.00 120.00 L 522.50 118.93 L 525.00 117.86 L 527.50 116.79 L 530.00 115.71 L 532.50 114.64 L 535.00 113.57 L 537.50 112.50 L 540.00 111.43 L 542.50 110.36 L 545.00 109.29 L 547.50 108.21 L 550.00 107.14 L 552.50 106.07 L 555.00 105.00 L 557.50 103.93 L 560.00 102.86 L 562.50 101.79 L 565.00 100.71 L 567.50 99.64 L 570.00 98.57 L 572.50 97.50 L 575.00 96.43" fill="none" stroke="#3b82f6" stroke-width="3" stroke-linecap="round" stroke-linejoin="round"/>
  <g class="marker-group">
    <circle cx="75.0" cy="310.7" r="6" fill="#ef4444" stroke="white" stroke-width="2"/>
    <circle cx="175.0" cy="267.9" r="6" fill="#3b82f6" stroke="white" stroke-width="2"/>
    <circle cx="275.0" cy="225.0" r="6" fill="#3b82f6" stroke="white" stroke-width="2"/>
  </g>
  <g class="label-group">
    <rect x="40.0" y="302.7142857142857" width="100" height="16" fill="white" fill-opacity="0.9" rx="3"/>
    <text x="90.0" y="314.7" text-anchor="start" font-size="11" font-weight="bold" fill="#ef4444">Inicio $3 (b)</text>
  </g>
  <g class="annotation-group">
    <line x1="175.0" y1="267.9" x2="275.0" y2="267.9" stroke="#64748b" stroke-width="2.5"/>
    <polygon points="275.0,267.9 265.8,271.8 265.8,264.0" fill="#64748b"/>
    <rect x="203.0" y="245.8571428571429" width="44" height="14" rx="3" fill="white" fill-opacity="0.9"/>
    <text x="225.0" y="255.9" text-anchor="middle" font-size="11" font-weight="bold" fill="#64748b">+1 km</text>
    <line x1="275.0" y1="267.9" x2="275.0" y2="225.0" stroke="#22c55e" stroke-width="2.5"/>
    <polygon points="275.0,225.0 278.9,234.2 271.1,234.2" fill="#22c55e"/>
    <rect x="253.0" y="224.42857142857144" width="44" height="14" rx="3" fill="white" fill-opacity="0.9"/>
    <text x="275.0" y="234.4" text-anchor="middle" font-size="11" font-weight="bold" fill="#22c55e">+$2</text>
    <text x="425.0" y="289.3" text-anchor="middle" font-size="12" font-weight="bold" fill="#22c55e">Pendiente m = 2</text>
    <text x="425.0" y="303.3" text-anchor="middle" font-size="12" font-weight="bold" fill="#22c55e">(Costo por km)</text>
  </g>
</svg>