<svg xmlns="http://www.w3.org/2000/svg" viewBox="0 0 750 600">
<rect width="750" height="600" fill="#f8fafc" rx="12"/>
<text x="375.0" y="50" font-family="Inter, sans-serif" font-size="28" font-weight="900" fill="#1e293b" text-anchor="middle">Peso At贸mico: Los Pesados vs. Los Ligeros</text>
<rect x="15.0" y="100" width="220" height="240" rx="16" fill="white" stroke="#e2e8f0" stroke-width="1"/>
<text x="125.0" y="140" font-family="Inter, sans-serif" font-size="22" font-weight="bold" fill="#ef4444" text-anchor="middle">Prot贸n</text>
<circle cx="125.0" cy="200" r="35" fill="#ef4444" stroke="white" stroke-width="2"/>
<text x="125.0" y="210" font-family="Inter, sans-serif" font-size="30" font-weight="bold" fill="white" text-anchor="middle">+</text>
<rect x="105.0" y="245" width="40" height="15" fill="#94a3b8" rx="2"/>
<rect x="120.0" y="240" width="10" height="5" fill="#94a3b8"/>
<text x="125.0" y="280" font-family="Inter, sans-serif" font-size="28" font-weight="900" fill="#1e293b" text-anchor="middle">1 uma</text>
<text x="125.0" y="310" font-family="Inter, sans-serif" font-size="14" font-weight="bold" fill="#64748b" text-anchor="middle">Fundamental</text>
<rect x="265.0" y="100" width="220" height="240" rx="16" fill="white" stroke="#e2e8f0" stroke-width="1"/>
<text x="375.0" y="140" font-family="Inter, sans-serif" font-size="22" font-weight="bold" fill="#64748b" text-anchor="middle">Neutr贸n</text>
<circle cx="375.0" cy="200" r="35" fill="#64748b" stroke="white" stroke-width="2"/>
<rect x="355.0" y="245" width="40" height="15" fill="#94a3b8" rx="2"/>
<rect x="370.0" y="240" width="10" height="5" fill="#94a3b8"/>
<text x="375.0" y="280" font-family="Inter, sans-serif" font-size="28" font-weight="900" fill="#1e293b" text-anchor="middle">1 uma</text>
<text x="375.0" y="310" font-family="Inter, sans-serif" font-size="14" font-weight="bold" fill="#64748b" text-anchor="middle">Fundamental</text>
<rect x="515.0" y="100" width="220" height="240" rx="16" fill="white" stroke="#e2e8f0" stroke-width="1"/>
<text x="625.0" y="140" font-family="Inter, sans-serif" font-size="22" font-weight="bold" fill="#3b82f6" text-anchor="middle">Electr贸n</text>
<circle cx="625.0" cy="200" r="6" fill="#3b82f6" stroke="white" stroke-width="1.5"/>
<path d="M 623.0 200 L 627.0 200" stroke="white" stroke-width="1.5" stroke-linecap="round"/>
<path d="M 610.0 210 Q 625.0 220 640.0 205" fill="none" stroke="#64748b" stroke-width="1" stroke-dasharray="2,2"/>
<text x="625.0" y="280" font-family="Inter, sans-serif" font-size="28" font-weight="900" fill="#1e293b" text-anchor="middle">~0 uma</text>
<text x="625.0" y="310" font-family="Inter, sans-serif" font-size="14" font-weight="bold" fill="#64748b" text-anchor="middle">Despreciable</text>
<path d="M 375.0 420 L 360.0 450 L 390.0 450 Z" fill="#1e293b"/>
<line x1="375.0" y1="450" x2="375.0" y2="470" stroke="#1e293b" stroke-width="2"/>
<line x1="335.0" y1="470" x2="415.0" y2="470" stroke="#1e293b" stroke-width="2"/>
<line x1="181.81483474218635" y1="471.76380902050414" x2="568.1851652578137" y2="368.23619097949586" stroke="#1e293b" stroke-width="4" stroke-linecap="round"/>
<line x1="181.81483474218635" y1="471.76380902050414" x2="181.81483474218635" y2="511.76380902050414" stroke="#64748b" stroke-width="1.5"/>
<path d="M 156.81483474218635 511.76380902050414 Q 181.81483474218635 526.7638090205041 206.81483474218635 511.76380902050414" fill="none" stroke="#1e293b" stroke-width="2"/>
<circle cx="181.81483474218635" cy="496.76380902050414" r="12" fill="#ef4444" stroke="white" stroke-width="1"/>
<text x="181.81483474218635" y="500.76380902050414" font-family="Inter, sans-serif" font-size="10" font-weight="bold" fill="white" text-anchor="middle">+</text>
<text x="146.81483474218635" y="516.7638090205041" font-family="Inter, sans-serif" font-size="12" font-weight="bold" fill="#ef4444" text-anchor="end">1 uma</text>
<line x1="568.1851652578137" y1="368.23619097949586" x2="568.1851652578137" y2="408.23619097949586" stroke="#64748b" stroke-width="1.5"/>
<path d="M 543.1851652578137 408.23619097949586 Q 568.1851652578137 423.23619097949586 593.1851652578137 408.23619097949586" fill="none" stroke="#1e293b" stroke-width="2"/>
<circle cx="568.1851652578137" cy="398.23619097949586" r="3" fill="#3b82f6" stroke="white" stroke-width="1"/>
<text x="603.1851652578137" y="413.23619097949586" font-family="Inter, sans-serif" font-size="12" font-weight="bold" fill="#3b82f6" text-anchor="start">~0 uma</text>
</svg>