<svg xmlns="http://www.w3.org/2000/svg" viewBox="0 0 600 500">
<rect width="600" height="500" fill="#f8fafc" rx="12"/>
<defs>
<marker id="arrow" markerWidth="10" markerHeight="10" refX="9" refY="3" orient="auto" markerUnits="strokeWidth"><path d="M0,0 L0,6 L9,3 z" fill="#64748b" /></marker>
</defs>
<text x="300.0" y="40" font-family="Inter, sans-serif" font-size="24" font-weight="bold" fill="#1e293b" text-anchor="middle">Ejemplo: Helio (He)</text>
<text x="300.0" y="65" font-family="Inter, sans-serif" font-size="14" fill="#64748b" text-anchor="middle">Cálculo del Número Másico (A=4)</text>
<circle cx="390.0" cy="275.0" r="100" fill="none" stroke="#e2e8f0" stroke-width="2" stroke-dasharray="0"/>
<circle cx="390.0" cy="175.0" r="5" fill="#3b82f6" stroke="white" stroke-width="1.5"/>
<path d="M 388.0 175.0 L 392.0 175.0" stroke="white" stroke-width="1.5" stroke-linecap="round"/>
<path d="M 370.0 160.0 Q 380.0 165.0 386.0 171.0" fill="none" stroke="#64748b" stroke-width="1.5" stroke-dasharray="3,3" opacity="0.8"/>
<text x="330.0" y="155.0" font-family="Inter, sans-serif" font-size="11" fill="#64748b">Electrones</text>
<text x="330.0" y="167.0" font-family="Inter, sans-serif" font-size="10" font-weight="bold" fill="#64748b">(Masa ≈ 0)</text>
<circle cx="390.0" cy="375.0" r="5" fill="#3b82f6" stroke="white" stroke-width="1.5"/>
<path d="M 388.0 375.0 L 392.0 375.0" stroke="white" stroke-width="1.5" stroke-linecap="round"/>
<g transform="translate(390.0,275.0)">
<circle cx="0" cy="0" r="79.922293742525" fill="#fff7ed" stroke="#f97316" stroke-width="2" stroke-dasharray="6,4"/>
<circle cx="0.0" cy="0.0" r="14" fill="#ef4444" stroke="white" stroke-width="1.5"/>
<text x="0.0" y="4.0" font-family="Inter, sans-serif" font-size="16.8" font-weight="bold" fill="white" text-anchor="middle">+</text>
<circle cx="-21.678726798447926" cy="19.85932537621195" r="14" fill="#64748b" stroke="white" stroke-width="1.5"/>
<circle cx="3.635317313199427" cy="-41.41864879534764" r="14" fill="#ef4444" stroke="white" stroke-width="1.5"/>
<text x="3.635317313199427" y="-37.41864879534764" font-family="Inter, sans-serif" font-size="16.8" font-weight="bold" fill="white" text-anchor="middle">+</text>
<circle cx="30.98260313871072" cy="40.41235334336708" r="14" fill="#64748b" stroke="white" stroke-width="1.5"/>
</g>
<rect x="20" y="195.0" width="200" height="160" rx="12" fill="white" stroke="#e2e8f0" stroke-width="1"/>
<text x="120" y="235.0" font-family="Inter, sans-serif" font-size="48" font-weight="900" fill="#1e293b" text-anchor="middle">A</text>
<text x="120" y="260.0" font-family="Inter, sans-serif" font-size="14" font-weight="bold" fill="#f97316" text-anchor="middle">Número Másico</text>
<text x="120" y="295.0" font-family="Inter, sans-serif" font-size="24" font-weight="bold" fill="#1e293b" text-anchor="middle">=</text>
<text x="80" y="325.0" font-family="Inter, sans-serif" font-size="20" font-weight="bold" fill="#ef4444" text-anchor="middle">Z</text>
<text x="80" y="340.0" font-family="Inter, sans-serif" font-size="10" fill="#64748b" text-anchor="middle">(Protones)</text>
<text x="120" y="325.0" font-family="Inter, sans-serif" font-size="20" font-weight="bold" fill="#1e293b" text-anchor="middle">+</text>
<text x="160" y="325.0" font-family="Inter, sans-serif" font-size="20" font-weight="bold" fill="#64748b" text-anchor="middle">n</text>
<text x="160" y="340.0" font-family="Inter, sans-serif" font-size="10" fill="#64748b" text-anchor="middle">(Neutrones)</text>
<path d="M 180 245.0 C 230 245.0, 260.07770625747503 255.0, 310.07770625747503 255.0" fill="none" stroke="#f97316" stroke-width="2.5" marker-end="url(#arrow)" stroke-dasharray="5,5"/>
<path d="M 100 345.0 Q 100 275.0, 376.0 275.0" fill="none" stroke="#ef4444" stroke-width="1.5" marker-end="url(#arrow)" opacity="0.6"/>
<path d="M 180 345.0 Q 200 294.8593253762119, 382.32127320155206 294.8593253762119" fill="none" stroke="#64748b" stroke-width="1.5" marker-end="url(#arrow)" opacity="0.6"/>
</svg>