<svg xmlns="http://www.w3.org/2000/svg" viewBox="0 0 600 400" style="font-family: Inter, system-ui, sans-serif;">
<rect width="600" height="400" fill="#f8fafc" rx="12"/>
<path d="M 300 100 L 150 350 L 450 350 Z" fill="#f8fafc" stroke="#22c55e" stroke-width="4" stroke-linejoin="round"/>
<path d="M 300 100 L 279.42 134.30 A 40 40 0 0 0 320.58 134.30 Z" fill="#22c55e" fill-opacity="0.2" stroke="none"/><path d="M 279.42 134.30 A 40 40 0 0 0 320.58 134.30" fill="none" stroke="#22c55e" stroke-width="2"/><text x="300.00" y="160.00" text-anchor="middle" dominant-baseline="middle" font-weight="bold" fill="#22c55e">&lt; 90°</text>
<path d="M 150 350 L 190.00 350.00 A 40 40 0 0 0 170.58 315.70 Z" fill="#22c55e" fill-opacity="0.2" stroke="none"/><path d="M 190.00 350.00 A 40 40 0 0 0 170.58 315.70" fill="none" stroke="#22c55e" stroke-width="2"/><text x="202.21" y="320.44" text-anchor="middle" dominant-baseline="middle" font-weight="bold" fill="#22c55e">&lt; 90°</text>
<path d="M 450 350 L 429.42 315.70 A 40 40 0 0 0 410.00 350.00 Z" fill="#22c55e" fill-opacity="0.2" stroke="none"/><path d="M 429.42 315.70 A 40 40 0 0 0 410.00 350.00" fill="none" stroke="#22c55e" stroke-width="2"/><text x="397.79" y="320.44" text-anchor="middle" dominant-baseline="middle" font-weight="bold" fill="#22c55e">&lt; 90°</text>
<text x="300" y="380" text-anchor="middle" font-weight="bold" fill="#22c55e">Todos Agudos</text>
</svg>