<?xml version="1.0" encoding="utf-8" ?>
<svg baseProfile="full" height="400" version="1.1" width="500" xmlns="http://www.w3.org/2000/svg" xmlns:ev="http://www.w3.org/2001/xml-events" xmlns:xlink="http://www.w3.org/1999/xlink"><defs /><rect fill="#f8fafc" height="100%" width="100%" x="0" y="0" /><polygon fill="white" points="50.0,300.0 450.0,300.0 200.0,50.0" stroke="#334155" stroke-linecap="round" stroke-linejoin="round" stroke-width="3" /><line stroke="#10b981" stroke-dasharray="5,4" stroke-width="2.5" x1="50.0" x2="250.0" y1="300.0" y2="300.0" /><line stroke="#10b981" stroke-dasharray="5,4" stroke-width="2.5" x1="450.0" x2="325.0" y1="300.0" y2="175.0" /><line stroke="#10b981" stroke-dasharray="5,4" stroke-width="2.5" x1="200.0" x2="125.0" y1="50.0" y2="175.0" /><line stroke="#334155" stroke-width="1.5" x1="350.0" x2="350.0" y1="295.0" y2="305.0" /><line stroke="#334155" stroke-width="1.5" x1="229.9029033784546" x2="220.0970966215454" y1="174.01941932430907" y2="175.98058067569093" /><line stroke="#334155" stroke-width="1.5" x1="257.90380592228746" x2="264.9748737341529" y1="114.97487373415292" y2="107.90380592228745" /><line stroke="#334155" stroke-width="1.5" x1="260.0251262658471" x2="267.09619407771254" y1="117.09619407771255" y2="110.02512626584708" /><line stroke="#334155" stroke-width="1.5" x1="186.796534994688" x2="190.9345644376998" y1="232.3274631962352" y2="241.43112797086124" /><line stroke="#334155" stroke-width="1.5" x1="184.0654355623002" x2="188.203465005312" y1="233.56887202913876" y2="242.6725368037648" /><circle cx="250.0" cy="300.0" fill="white" r="3.5" stroke="#94a3b8" stroke-width="2" /><text fill="white" font-family="Arial, Helvetica, sans-serif" font-size="16" font-weight="bold" x="255.0" y="315.0">Ma</text><circle cx="325.0" cy="175.0" fill="white" r="3.5" stroke="#94a3b8" stroke-width="2" /><text fill="white" font-family="Arial, Helvetica, sans-serif" font-size="16" font-weight="bold" x="300.0" y="175.0">Mb</text><circle cx="125.0" cy="175.0" fill="white" r="3.5" stroke="#94a3b8" stroke-width="2" /><text fill="white" font-family="Arial, Helvetica, sans-serif" font-size="16" font-weight="bold" x="130.0" y="190.0">Mc</text><circle cx="50.0" cy="300.0" fill="#1e293b" r="4.5" stroke="white" stroke-width="2" /><text fill="#1e293b" font-family="Arial, Helvetica, sans-serif" font-size="16" font-weight="bold" x="35.0" y="300.0">A</text><circle cx="450.0" cy="300.0" fill="#1e293b" r="4.5" stroke="white" stroke-width="2" /><text fill="#1e293b" font-family="Arial, Helvetica, sans-serif" font-size="16" font-weight="bold" x="460.0" y="300.0">B</text><circle cx="200.0" cy="50.0" fill="#1e293b" r="4.5" stroke="white" stroke-width="2" /><text fill="#1e293b" font-family="Arial, Helvetica, sans-serif" font-size="16" font-weight="bold" x="195.0" y="35.0">C</text><circle cx="233.33333333333334" cy="216.66666666666666" fill="#ef4444" r="7" stroke="white" stroke-width="2.5" /><text fill="#ef4444" font-family="Arial, Helvetica, sans-serif" font-size="16" font-weight="bold" x="243.33333333333334" y="221.66666666666666">G (Baricentro)</text><text fill="#64748b" font-family="Arial, Helvetica, sans-serif" font-size="13" font-weight="normal" text-anchor="middle" x="250" y="380">Medianas: Unen vértice con punto medio opuesto</text></svg>