<svg xmlns="http://www.w3.org/2000/svg" viewBox="0 0 600 400" style="font-family: Inter, system-ui, sans-serif;">
<rect width="600" height="400" fill="#f8fafc" rx="12"/>
<path d="M 300.0 50.0 L 100.0 350.0 L 500.0 350.0 Z" fill="#f8fafc" stroke="#22c55e" stroke-width="3" stroke-linejoin="round"/>
<line x1="300.0" y1="50.0" x2="300.0" y2="350.0" stroke="#22c55e" stroke-width="2" stroke-opacity="0.3"/>
<line x1="300.0" y1="50.0" x2="300.00" y2="250.00" stroke="#3b82f6" stroke-width="4"/>
<line x1="300.00" y1="250.00" x2="300.0" y2="350.0" stroke="#ef4444" stroke-width="4"/>
<circle cx="315.00" cy="150.00" r="8" fill="#f8fafc" fill-opacity="0.8"/>
<text x="315.00" y="155.00" font-size="16" font-weight="bold" fill="#3b82f6" text-anchor="middle">2</text>
<circle cx="315.00" cy="300.00" r="8" fill="#f8fafc" fill-opacity="0.8"/>
<text x="315.00" y="305.00" font-size="16" font-weight="bold" fill="#ef4444" text-anchor="middle">1</text>
<line x1="100.0" y1="350.0" x2="400.0" y2="200.0" stroke="#22c55e" stroke-width="2" stroke-opacity="0.3"/>
<line x1="100.0" y1="350.0" x2="300.00" y2="250.00" stroke="#3b82f6" stroke-width="4"/>
<line x1="300.00" y1="250.00" x2="400.0" y2="200.0" stroke="#ef4444" stroke-width="4"/>
<circle cx="190.00" cy="285.00" r="8" fill="#f8fafc" fill-opacity="0.8"/>
<text x="190.00" y="290.00" font-size="16" font-weight="bold" fill="#3b82f6" text-anchor="middle">2</text>
<circle cx="350.00" cy="240.00" r="8" fill="#f8fafc" fill-opacity="0.8"/>
<text x="350.00" y="245.00" font-size="16" font-weight="bold" fill="#ef4444" text-anchor="middle">1</text>
<line x1="500.0" y1="350.0" x2="200.0" y2="200.0" stroke="#22c55e" stroke-width="2" stroke-opacity="0.3"/>
<line x1="500.0" y1="350.0" x2="300.00" y2="250.00" stroke="#3b82f6" stroke-width="4"/>
<line x1="300.00" y1="250.00" x2="200.0" y2="200.0" stroke="#ef4444" stroke-width="4"/>
<circle cx="410.00" cy="285.00" r="8" fill="#f8fafc" fill-opacity="0.8"/>
<text x="410.00" y="290.00" font-size="16" font-weight="bold" fill="#3b82f6" text-anchor="middle">2</text>
<circle cx="240.00" cy="240.00" r="8" fill="#f8fafc" fill-opacity="0.8"/>
<text x="240.00" y="245.00" font-size="16" font-weight="bold" fill="#ef4444" text-anchor="middle">1</text>
<circle cx="300.00" cy="250.00" r="8" fill="#ef4444"/>
<text x="312.00" y="240.00" font-weight="bold" font-size="16" fill="#ef4444">G</text>
<circle cx="300.00" cy="50.00" r="4" fill="#1e293b"/><text x="300.00" y="35.00" text-anchor="middle" font-weight="bold" fill="#1e293b">A</text>
<circle cx="100.00" cy="350.00" r="4" fill="#1e293b"/><text x="85.00" y="365.00" text-anchor="middle" font-weight="bold" fill="#1e293b">B</text>
<circle cx="500.00" cy="350.00" r="4" fill="#1e293b"/><text x="515.00" y="365.00" text-anchor="middle" font-weight="bold" fill="#1e293b">C</text>
<text x="300" y="390" text-anchor="middle" font-size="16" font-weight="bold" fill="#1e293b">Proporción 2:1 en todas las medianas</text>
</svg>