<svg xmlns="http://www.w3.org/2000/svg" viewBox="0 0 600 400" style="font-family: Inter, system-ui, sans-serif;">
<rect width="600" height="400" fill="#f8fafc" rx="12"/>
<line x1="80" y1="40" x2="80" y2="340" stroke="#e2e8f0" stroke-width="2" stroke-opacity="1"/>
<line x1="130" y1="40" x2="130" y2="340" stroke="#e2e8f0" stroke-width="1" stroke-opacity="0.3"/>
<text x="130" y="355" text-anchor="middle" font-size="12" fill="#1e293b">1</text>
<line x1="180" y1="40" x2="180" y2="340" stroke="#e2e8f0" stroke-width="1" stroke-opacity="0.3"/>
<text x="180" y="355" text-anchor="middle" font-size="12" fill="#1e293b">2</text>
<line x1="230" y1="40" x2="230" y2="340" stroke="#e2e8f0" stroke-width="1" stroke-opacity="0.3"/>
<text x="230" y="355" text-anchor="middle" font-size="12" fill="#1e293b">3</text>
<line x1="280" y1="40" x2="280" y2="340" stroke="#e2e8f0" stroke-width="1" stroke-opacity="0.3"/>
<text x="280" y="355" text-anchor="middle" font-size="12" fill="#1e293b">4</text>
<line x1="330" y1="40" x2="330" y2="340" stroke="#e2e8f0" stroke-width="1" stroke-opacity="0.3"/>
<text x="330" y="355" text-anchor="middle" font-size="12" fill="#1e293b">5</text>
<line x1="380" y1="40" x2="380" y2="340" stroke="#e2e8f0" stroke-width="1" stroke-opacity="0.3"/>
<text x="380" y="355" text-anchor="middle" font-size="12" fill="#1e293b">6</text>
<line x1="430" y1="40" x2="430" y2="340" stroke="#e2e8f0" stroke-width="1" stroke-opacity="0.3"/>
<text x="430" y="355" text-anchor="middle" font-size="12" fill="#1e293b">7</text>
<line x1="480" y1="40" x2="480" y2="340" stroke="#e2e8f0" stroke-width="1" stroke-opacity="0.3"/>
<text x="480" y="355" text-anchor="middle" font-size="12" fill="#1e293b">8</text>
<line x1="530" y1="40" x2="530" y2="340" stroke="#e2e8f0" stroke-width="1" stroke-opacity="0.3"/>
<text x="530" y="355" text-anchor="middle" font-size="12" fill="#1e293b">9</text>
<line x1="60" y1="320" x2="580" y2="320" stroke="#e2e8f0" stroke-width="2" stroke-opacity="1"/>
<line x1="60" y1="270" x2="580" y2="270" stroke="#e2e8f0" stroke-width="1" stroke-opacity="0.3"/>
<text x="50" y="274" text-anchor="middle" font-size="12" fill="#1e293b">1</text>
<line x1="60" y1="220" x2="580" y2="220" stroke="#e2e8f0" stroke-width="1" stroke-opacity="0.3"/>
<text x="50" y="224" text-anchor="middle" font-size="12" fill="#1e293b">2</text>
<line x1="60" y1="170" x2="580" y2="170" stroke="#e2e8f0" stroke-width="1" stroke-opacity="0.3"/>
<text x="50" y="174" text-anchor="middle" font-size="12" fill="#1e293b">3</text>
<line x1="60" y1="120" x2="580" y2="120" stroke="#e2e8f0" stroke-width="1" stroke-opacity="0.3"/>
<text x="50" y="124" text-anchor="middle" font-size="12" fill="#1e293b">4</text>
<line x1="60" y1="70" x2="580" y2="70" stroke="#e2e8f0" stroke-width="1" stroke-opacity="0.3"/>
<text x="50" y="74" text-anchor="middle" font-size="12" fill="#1e293b">5</text>
<line x1="60" y1="20" x2="580" y2="20" stroke="#e2e8f0" stroke-width="1" stroke-opacity="0.3"/>
<text x="50" y="24" text-anchor="middle" font-size="12" fill="#1e293b">6</text>
<text x="570" y="355" font-size="14" font-weight="bold" fill="#1e293b">x</text>
<text x="50" y="50" font-size="14" font-weight="bold" fill="#1e293b">y</text>
<text x="60" y="355" font-size="12" fill="#1e293b">0</text>
<path d="M 130 70 L 180 270 L 430 170 Z" fill="#22c55e" fill-opacity="0.1" stroke="#22c55e" stroke-width="2.5" stroke-linejoin="round"/>
<line x1="130" y1="70" x2="305.0" y2="220.0" stroke="#22c55e" stroke-width="1.5" stroke-dasharray="5"/>
<line x1="180" y1="270" x2="280.0" y2="120.0" stroke="#22c55e" stroke-width="1.5" stroke-dasharray="5"/>
<line x1="430" y1="170" x2="155.0" y2="170.0" stroke="#22c55e" stroke-width="1.5" stroke-dasharray="5"/>
<circle cx="130" cy="70" r="6" fill="#3b82f6"/>
<text x="125" y="55" font-weight="bold" font-size="14" fill="#3b82f6">A(1, 5)</text>
<circle cx="180" cy="270" r="6" fill="#3b82f6"/>
<text x="135" y="290" font-weight="bold" font-size="14" fill="#3b82f6">B(2, 1)</text>
<circle cx="430" cy="170" r="6" fill="#3b82f6"/>
<text x="440" y="190" font-weight="bold" font-size="14" fill="#3b82f6">C(7, 3)</text>
<circle cx="246.67" cy="170.00" r="10" fill="#ef4444"/>
<text x="261.67" y="160.00" font-weight="bold" font-size="16" fill="#ef4444">G</text>
<rect x="350" y="40" width="230" height="90" rx="8" fill="#f8fafc" stroke="#22c55e" stroke-width="2"/>
<text x="465" y="65" text-anchor="middle" font-size="13" font-weight="bold" fill="#22c55e">Cálculo del Baricentro</text>
<text x="360" y="90" font-size="12" fill="#1e293b">x = (1 + 2 + 7) / 3 = 10/3 ≈ 3.33</text>
<text x="360" y="115" font-size="12" fill="#1e293b">y = (5 + 1 + 3) / 3 = 9/3 = 3</text>
<text x="261.67" y="190.00" font-size="12" fill="#ef4444">(3.33, 3)</text>
</svg>