<?xml version="1.0" encoding="utf-8" ?>
<svg baseProfile="full" height="400" version="1.1" width="500" xmlns="http://www.w3.org/2000/svg" xmlns:ev="http://www.w3.org/2001/xml-events" xmlns:xlink="http://www.w3.org/1999/xlink"><defs /><rect fill="#f8fafc" height="100%" width="100%" x="0" y="0" /><polygon fill="white" points="100.0,280.0 400.0,280.0 300.0,80.0" stroke="#334155" stroke-linecap="round" stroke-linejoin="round" stroke-width="3" /><circle cx="250.0" cy="230.0" fill="none" r="158.11388300841895" stroke="#3b82f6" stroke-width="2.5" /><circle cx="250.0" cy="230.0" fill="#3b82f6" fill-opacity="0.08" r="158.11388300841895" /><line stroke="#ec4899" stroke-width="2.5" x1="200.0" x2="200.0" y1="130.0" y2="330.0" /><path d="M 200.0,195.0 L 213.41640786499875,201.70820393249937 L 213.41640786499875,186.70820393249937" fill="none" stroke="#94a3b8" stroke-width="1.5" /><circle cx="200.0" cy="180.0" fill="#ec4899" r="2" /><line stroke="#ec4899" stroke-width="2.5" x1="115.83592135001261" x2="294.7213595499958" y1="347.0820393249937" y2="257.6393202250021" /><path d="M 263.41640786499846,273.2917960675 L 267.05444224054344,258.73965856532004 L 253.638034375545,265.44786249782004" fill="none" stroke="#94a3b8" stroke-width="1.5" /><circle cx="250.0" cy="280.0" fill="#ec4899" r="2" /><circle cx="250.0" cy="230.0" fill="#ef4444" r="7" stroke="white" stroke-width="2.5" /><text fill="#ef4444" font-family="Arial, Helvetica, sans-serif" font-size="16" font-weight="bold" x="260.0" y="240.0">O (Circuncentro)</text><line stroke="#94a3b8" stroke-dasharray="2,2" x1="250.0" x2="100.0" y1="230.0" y2="280.0" /><line stroke="#94a3b8" stroke-dasharray="2,2" x1="250.0" x2="400.0" y1="230.0" y2="280.0" /><line stroke="#94a3b8" stroke-dasharray="2,2" x1="250.0" x2="300.0" y1="230.0" y2="80.0" /><circle cx="100.0" cy="280.0" fill="#1e293b" r="4.5" stroke="white" stroke-width="2" /><text fill="#1e293b" font-family="Arial, Helvetica, sans-serif" font-size="16" font-weight="bold" x="85.0" y="290.0">A</text><circle cx="400.0" cy="280.0" fill="#1e293b" r="4.5" stroke="white" stroke-width="2" /><text fill="#1e293b" font-family="Arial, Helvetica, sans-serif" font-size="16" font-weight="bold" x="410.0" y="290.0">B</text><circle cx="300.0" cy="80.0" fill="#1e293b" r="4.5" stroke="white" stroke-width="2" /><text fill="#1e293b" font-family="Arial, Helvetica, sans-serif" font-size="16" font-weight="bold" x="295.0" y="65.0">C</text><text fill="#64748b" font-family="Arial, Helvetica, sans-serif" font-size="13" font-weight="normal" text-anchor="middle" x="250" y="380">Mediatrices: Perpendiculares por el punto medio</text></svg>