<svg xmlns="http://www.w3.org/2000/svg" viewBox="0 0 600 400" style="font-family: Inter, system-ui, sans-serif;">
<rect width="600" height="400" fill="#f8fafc" rx="12"/>
<circle cx="300.00" cy="200.00" r="149.00" fill="#ec4899" fill-opacity="0.08" stroke="#ec4899" stroke-width="2.5"/>
<path d="M 300.0 51.0 L 160.0 251.0 L 440.0 251.0 Z" fill="#f8fafc" stroke="#22c55e" stroke-width="3" stroke-linejoin="round"/>
<line x1="300.00" y1="200.00" x2="300.00" y2="251.00" stroke="#ec4899" stroke-width="2" stroke-linecap="round"/>
<line x1="300.00" y1="200.00" x2="370.00" y2="151.00" stroke="#ec4899" stroke-width="2" stroke-linecap="round"/>
<line x1="300.00" y1="200.00" x2="230.00" y2="151.00" stroke="#ec4899" stroke-width="2" stroke-linecap="round"/>
<path d="M 310.00 251.00 L 310.00 261.00 L 300.00 261.00" fill="none" stroke="#ec4899" stroke-width="1.5"/>
<path d="M 375.73 159.19 L 367.54 164.93 L 361.81 156.73" fill="none" stroke="#ec4899" stroke-width="1.5"/>
<path d="M 224.27 159.19 L 216.07 153.46 L 221.81 145.27" fill="none" stroke="#ec4899" stroke-width="1.5"/>
<circle cx="300.0" cy="251.0" r="4" fill="#ec4899"/>
<circle cx="370.0" cy="151.0" r="4" fill="#ec4899"/>
<circle cx="230.0" cy="151.0" r="4" fill="#ec4899"/>
<circle cx="300.00" cy="200.00" r="10" fill="#ef4444"/>
<text x="315.00" y="205.00" font-weight="bold" font-size="18" fill="#ef4444">O</text>
<circle cx="300.00" cy="51.00" r="4" fill="#1e293b"/><text x="300.00" y="36.00" text-anchor="middle" font-weight="bold" fill="#1e293b">A</text>
<circle cx="160.00" cy="251.00" r="4" fill="#1e293b"/><text x="145.00" y="266.00" text-anchor="middle" font-weight="bold" fill="#1e293b">B</text>
<circle cx="440.00" cy="251.00" r="4" fill="#1e293b"/><text x="455.00" y="266.00" text-anchor="middle" font-weight="bold" fill="#1e293b">C</text>
<text x="300" y="390" text-anchor="middle" font-size="16" font-weight="bold" fill="#1e293b">Circuncentro (Mediatrices) + Círculo Circunscrito</text>
</svg>