<svg xmlns="http://www.w3.org/2000/svg" viewBox="0 0 600 300">
<rect width="600" height="300" fill="#f8fafc"/>
<line x1="60" y1="230" x2="220" y2="230" stroke="#3b82f6" stroke-width="3" stroke-linecap="round"/><line x1="220" y1="230" x2="110" y2="100" stroke="#22c55e" stroke-width="3" stroke-linecap="round"/><line x1="110" y1="100" x2="60" y2="230" stroke="#ef4444" stroke-width="3" stroke-linecap="round"/>
<line x1="360" y1="230" x2="520" y2="230" stroke="#3b82f6" stroke-width="3" stroke-linecap="round"/><line x1="520" y1="230" x2="410" y2="100" stroke="#22c55e" stroke-width="3" stroke-linecap="round"/><line x1="410" y1="100" x2="360" y2="230" stroke="#ef4444" stroke-width="3" stroke-linecap="round"/>
<line x1="137.00" y1="225.20" x2="143.00" y2="234.80" stroke="#3b82f6" stroke-width="2"/>
<line x1="164.89" y1="172.30" x2="168.34" y2="161.52" stroke="#22c55e" stroke-width="2"/><line x1="161.66" y1="168.48" x2="165.11" y2="157.70" stroke="#22c55e" stroke-width="2"/>
<line x1="92.35" y1="159.26" x2="81.24" y2="161.41" stroke="#ef4444" stroke-width="2"/><line x1="90.56" y1="163.92" x2="79.44" y2="166.08" stroke="#ef4444" stroke-width="2"/><line x1="88.76" y1="168.59" x2="77.65" y2="170.74" stroke="#ef4444" stroke-width="2"/>
<line x1="437.00" y1="225.20" x2="443.00" y2="234.80" stroke="#3b82f6" stroke-width="2"/>
<line x1="464.89" y1="172.30" x2="468.34" y2="161.52" stroke="#22c55e" stroke-width="2"/><line x1="461.66" y1="168.48" x2="465.11" y2="157.70" stroke="#22c55e" stroke-width="2"/>
<line x1="392.35" y1="159.26" x2="381.24" y2="161.41" stroke="#ef4444" stroke-width="2"/><line x1="390.56" y1="163.92" x2="379.44" y2="166.08" stroke="#ef4444" stroke-width="2"/><line x1="388.76" y1="168.59" x2="377.65" y2="170.74" stroke="#ef4444" stroke-width="2"/>
<path d="M 60 230 L 68.97 206.67 A 25 25 0 0 1 85.00 230.00 Z" fill="#ef4444" fill-opacity="0.2" stroke="none"/><path d="M 68.97 206.67 A 25 25 0 0 1 85.00 230.00" fill="none" stroke="#ef4444" stroke-width="2"/>
<path d="M 220 230 L 195.00 230.00 A 25 25 0 0 1 203.85 210.92 Z" fill="#3b82f6" fill-opacity="0.2" stroke="none"/><path d="M 195.00 230.00 A 25 25 0 0 1 203.85 210.92" fill="none" stroke="#3b82f6" stroke-width="2"/><path d="M 200.00 230.00 A 20 20 0 0 1 207.08 214.73" fill="none" stroke="#3b82f6" stroke-width="2"/>
<path d="M 110 100 L 126.15 119.08 A 25 25 0 0 1 101.03 123.33 Z" fill="#22c55e" fill-opacity="0.2" stroke="none"/><path d="M 126.15 119.08 A 25 25 0 0 1 101.03 123.33" fill="none" stroke="#22c55e" stroke-width="2"/><path d="M 122.92 115.27 A 20 20 0 0 1 102.82 118.67" fill="none" stroke="#22c55e" stroke-width="2"/><path d="M 119.69 111.45 A 15 15 0 0 1 104.62 114.00" fill="none" stroke="#22c55e" stroke-width="2"/>
<path d="M 360 230 L 368.97 206.67 A 25 25 0 0 1 385.00 230.00 Z" fill="#ef4444" fill-opacity="0.2" stroke="none"/><path d="M 368.97 206.67 A 25 25 0 0 1 385.00 230.00" fill="none" stroke="#ef4444" stroke-width="2"/>
<path d="M 520 230 L 495.00 230.00 A 25 25 0 0 1 503.85 210.92 Z" fill="#3b82f6" fill-opacity="0.2" stroke="none"/><path d="M 495.00 230.00 A 25 25 0 0 1 503.85 210.92" fill="none" stroke="#3b82f6" stroke-width="2"/><path d="M 500.00 230.00 A 20 20 0 0 1 507.08 214.73" fill="none" stroke="#3b82f6" stroke-width="2"/>
<path d="M 410 100 L 426.15 119.08 A 25 25 0 0 1 401.03 123.33 Z" fill="#22c55e" fill-opacity="0.2" stroke="none"/><path d="M 426.15 119.08 A 25 25 0 0 1 401.03 123.33" fill="none" stroke="#22c55e" stroke-width="2"/><path d="M 422.92 115.27 A 20 20 0 0 1 402.82 118.67" fill="none" stroke="#22c55e" stroke-width="2"/><path d="M 419.69 111.45 A 15 15 0 0 1 404.62 114.00" fill="none" stroke="#22c55e" stroke-width="2"/>
<text x="300" y="280" font-family="sans-serif" font-size="16" font-weight="bold" fill="#1e293b" text-anchor="middle">Partes Correspondientes (Color)</text>
</svg>