<svg xmlns="http://www.w3.org/2000/svg" viewBox="0 0 600 350">
<rect width="600" height="350" fill="#f8fafc"/>
<line x1="106.00" y1="237.00" x2="250.00" y2="237.00" stroke="#3b82f6" stroke-width="3.5" stroke-linecap="round"/><line x1="250.00" y1="237.00" x2="154.00" y2="123.00" stroke="#22c55e" stroke-width="3.5" stroke-linecap="round"/><line x1="154.00" y1="123.00" x2="106.00" y2="237.00" stroke="#ef4444" stroke-width="3.5" stroke-linecap="round"/>
<line x1="350.00" y1="237.00" x2="494.00" y2="237.00" stroke="#3b82f6" stroke-width="3.5" stroke-linecap="round"/><line x1="494.00" y1="237.00" x2="398.00" y2="123.00" stroke="#22c55e" stroke-width="3.5" stroke-linecap="round"/><line x1="398.00" y1="123.00" x2="350.00" y2="237.00" stroke="#ef4444" stroke-width="3.5" stroke-linecap="round"/>
<line x1="174.00" y1="230.60" x2="182.00" y2="243.40" stroke="#3b82f6" stroke-width="2"/>
<line x1="201.61" y1="189.48" x2="206.25" y2="175.11" stroke="#22c55e" stroke-width="2"/><line x1="197.75" y1="184.89" x2="202.39" y2="170.52" stroke="#22c55e" stroke-width="2"/>
<line x1="139.78" y1="173.27" x2="124.88" y2="175.67" stroke="#ef4444" stroke-width="2"/><line x1="137.45" y1="178.80" x2="122.55" y2="181.20" stroke="#ef4444" stroke-width="2"/><line x1="135.12" y1="184.33" x2="120.22" y2="186.73" stroke="#ef4444" stroke-width="2"/>
<line x1="418.00" y1="230.60" x2="426.00" y2="243.40" stroke="#3b82f6" stroke-width="2"/>
<line x1="445.61" y1="189.48" x2="450.25" y2="175.11" stroke="#22c55e" stroke-width="2"/><line x1="441.75" y1="184.89" x2="446.39" y2="170.52" stroke="#22c55e" stroke-width="2"/>
<line x1="383.78" y1="173.27" x2="368.88" y2="175.67" stroke="#ef4444" stroke-width="2"/><line x1="381.45" y1="178.80" x2="366.55" y2="181.20" stroke="#ef4444" stroke-width="2"/><line x1="379.12" y1="184.33" x2="364.22" y2="186.73" stroke="#ef4444" stroke-width="2"/>
<path d="M 106.00 237.00 L 116.87 211.19 A 28 28 0 0 1 134.00 237.00 Z" fill="#ef4444" fill-opacity="0.2" stroke="none"/><path d="M 116.87 211.19 A 28 28 0 0 1 134.00 237.00" fill="none" stroke="#ef4444" stroke-width="2"/>
<path d="M 250.00 237.00 L 222.00 237.00 A 28 28 0 0 1 231.96 215.58 Z" fill="#3b82f6" fill-opacity="0.2" stroke="none"/><path d="M 222.00 237.00 A 28 28 0 0 1 231.96 215.58" fill="none" stroke="#3b82f6" stroke-width="2"/><path d="M 227.00 237.00 A 23 23 0 0 1 235.18 219.41" fill="none" stroke="#3b82f6" stroke-width="2"/>
<path d="M 154.00 123.00 L 172.04 144.42 A 28 28 0 0 1 143.13 148.81 Z" fill="#22c55e" fill-opacity="0.2" stroke="none"/><path d="M 172.04 144.42 A 28 28 0 0 1 143.13 148.81" fill="none" stroke="#22c55e" stroke-width="2"/><path d="M 168.82 140.59 A 23 23 0 0 1 145.07 144.20" fill="none" stroke="#22c55e" stroke-width="2"/><path d="M 165.59 136.77 A 18 18 0 0 1 147.01 139.59" fill="none" stroke="#22c55e" stroke-width="2"/>
<path d="M 350.00 237.00 L 360.87 211.19 A 28 28 0 0 1 378.00 237.00 Z" fill="#ef4444" fill-opacity="0.2" stroke="none"/><path d="M 360.87 211.19 A 28 28 0 0 1 378.00 237.00" fill="none" stroke="#ef4444" stroke-width="2"/>
<path d="M 494.00 237.00 L 466.00 237.00 A 28 28 0 0 1 475.96 215.58 Z" fill="#3b82f6" fill-opacity="0.2" stroke="none"/><path d="M 466.00 237.00 A 28 28 0 0 1 475.96 215.58" fill="none" stroke="#3b82f6" stroke-width="2"/><path d="M 471.00 237.00 A 23 23 0 0 1 479.18 219.41" fill="none" stroke="#3b82f6" stroke-width="2"/>
<path d="M 398.00 123.00 L 416.04 144.42 A 28 28 0 0 1 387.13 148.81 Z" fill="#22c55e" fill-opacity="0.2" stroke="none"/><path d="M 416.04 144.42 A 28 28 0 0 1 387.13 148.81" fill="none" stroke="#22c55e" stroke-width="2"/><path d="M 412.82 140.59 A 23 23 0 0 1 389.07 144.20" fill="none" stroke="#22c55e" stroke-width="2"/><path d="M 409.59 136.77 A 18 18 0 0 1 391.01 139.59" fill="none" stroke="#22c55e" stroke-width="2"/>
<text x="94.00" y="259.00" font-family="sans-serif" font-size="18" font-weight="bold" fill="#1e293b" text-anchor="middle" dominant-baseline="middle">A</text>
<text x="262.00" y="259.00" font-family="sans-serif" font-size="18" font-weight="bold" fill="#1e293b" text-anchor="middle" dominant-baseline="middle">B</text>
<text x="154.00" y="101.00" font-family="sans-serif" font-size="18" font-weight="bold" fill="#1e293b" text-anchor="middle" dominant-baseline="middle">C</text>
<text x="338.00" y="259.00" font-family="sans-serif" font-size="18" font-weight="bold" fill="#1e293b" text-anchor="middle" dominant-baseline="middle">D</text>
<text x="506.00" y="259.00" font-family="sans-serif" font-size="18" font-weight="bold" fill="#1e293b" text-anchor="middle" dominant-baseline="middle">E</text>
<text x="398.00" y="101.00" font-family="sans-serif" font-size="18" font-weight="bold" fill="#1e293b" text-anchor="middle" dominant-baseline="middle">F</text>
<text x="310.00" y="180.00" font-family="sans-serif" font-size="45" font-weight="bold" fill="#1e293b" text-anchor="middle" dominant-baseline="middle">≅</text>
<text x="300.00" y="325.00" font-family="sans-serif" font-size="18" font-weight="bold" fill="#1e293b" text-anchor="middle" dominant-baseline="middle">Partes Correspondientes</text>
</svg>