<svg xmlns="http://www.w3.org/2000/svg" viewBox="0 0 600 350">
<rect width="600" height="350" fill="#f8fafc"/>
<path d="M 106.00 237.00 L 250.00 237.00 L 154.00 123.00 Z" fill="none" stroke="#94a3b8" stroke-width="2.5" stroke-linejoin="round"/>
<path d="M 350.00 237.00 L 494.00 237.00 L 398.00 123.00 Z" fill="none" stroke="#94a3b8" stroke-width="2.5" stroke-linejoin="round"/>
<line x1="106.00" y1="237.00" x2="250.00" y2="237.00" stroke="#3b82f6" stroke-width="5"/>
<line x1="350.00" y1="237.00" x2="494.00" y2="237.00" stroke="#3b82f6" stroke-width="5"/>
<line x1="174.00" y1="230.60" x2="182.00" y2="243.40" stroke="#3b82f6" stroke-width="2"/>
<line x1="418.00" y1="230.60" x2="426.00" y2="243.40" stroke="#3b82f6" stroke-width="2"/>
<line x1="154.00" y1="123.00" x2="106.00" y2="237.00" stroke="#ef4444" stroke-width="5"/>
<line x1="398.00" y1="123.00" x2="350.00" y2="237.00" stroke="#ef4444" stroke-width="5"/>
<line x1="138.61" y1="176.03" x2="123.71" y2="178.44" stroke="#ef4444" stroke-width="2"/><line x1="136.29" y1="181.56" x2="121.39" y2="183.97" stroke="#ef4444" stroke-width="2"/>
<line x1="382.61" y1="176.03" x2="367.71" y2="178.44" stroke="#ef4444" stroke-width="2"/><line x1="380.29" y1="181.56" x2="365.39" y2="183.97" stroke="#ef4444" stroke-width="2"/>
<path d="M 106.00 237.00 L 115.70 213.96 A 25 25 0 0 1 131.00 237.00 Z" fill="#22c55e" fill-opacity="0.4" stroke="none"/><path d="M 115.70 213.96 A 25 25 0 0 1 131.00 237.00" fill="none" stroke="#22c55e" stroke-width="2"/>
<path d="M 350.00 237.00 L 359.70 213.96 A 25 25 0 0 1 375.00 237.00 Z" fill="#22c55e" fill-opacity="0.4" stroke="none"/><path d="M 359.70 213.96 A 25 25 0 0 1 375.00 237.00" fill="none" stroke="#22c55e" stroke-width="2"/>
<text x="330.00" y="180.00" font-family="sans-serif" font-size="45" font-weight="bold" fill="#1e293b" text-anchor="middle" dominant-baseline="middle">≅</text>
<text x="300.00" y="325.00" font-family="sans-serif" font-size="18" font-weight="bold" fill="#1e293b" text-anchor="middle" dominant-baseline="middle">Criterio LAL: Lado-Ángulo-Lado</text>
</svg>