<svg xmlns="http://www.w3.org/2000/svg" viewBox="0 0 600 300">
<rect width="600" height="300" fill="#f8fafc"/>
<path d="M 60 230 L 220 230 L 110 100 Z" fill="none" stroke="#94a3b8" stroke-width="2" stroke-linejoin="round"/>
<path d="M 360 230 L 520 230 L 410 100 Z" fill="none" stroke="#94a3b8" stroke-width="2" stroke-linejoin="round"/>
<line x1="60" y1="230" x2="220" y2="230" stroke="#3b82f6" stroke-width="4"/>
<line x1="360" y1="230" x2="520" y2="230" stroke="#3b82f6" stroke-width="4"/>
<line x1="137.00" y1="225.20" x2="143.00" y2="234.80" stroke="#3b82f6" stroke-width="2"/>
<line x1="437.00" y1="225.20" x2="443.00" y2="234.80" stroke="#3b82f6" stroke-width="2"/>
<line x1="110" y1="100" x2="60" y2="230" stroke="#22c55e" stroke-width="4"/>
<line x1="410" y1="100" x2="360" y2="230" stroke="#22c55e" stroke-width="4"/>
<line x1="91.45" y1="161.59" x2="80.34" y2="163.74" stroke="#22c55e" stroke-width="2"/><line x1="89.66" y1="166.26" x2="78.55" y2="168.41" stroke="#22c55e" stroke-width="2"/>
<line x1="391.45" y1="161.59" x2="380.34" y2="163.74" stroke="#22c55e" stroke-width="2"/><line x1="389.66" y1="166.26" x2="378.55" y2="168.41" stroke="#22c55e" stroke-width="2"/>
<path d="M 60 230 L 68.97 206.67 A 25 25 0 0 1 85.00 230.00 Z" fill="#ef4444" fill-opacity="0.4" stroke="none"/><path d="M 68.97 206.67 A 25 25 0 0 1 85.00 230.00" fill="none" stroke="#ef4444" stroke-width="2"/>
<path d="M 360 230 L 368.97 206.67 A 25 25 0 0 1 385.00 230.00 Z" fill="#ef4444" fill-opacity="0.4" stroke="none"/><path d="M 368.97 206.67 A 25 25 0 0 1 385.00 230.00" fill="none" stroke="#ef4444" stroke-width="2"/>
<text x="300" y="280" font-family="sans-serif" font-size="16" font-weight="bold" fill="#1e293b" text-anchor="middle">Lado-Ángulo(Color)-Lado</text>
</svg>