<svg xmlns="http://www.w3.org/2000/svg" viewBox="0 0 600 350">
<rect width="600" height="350" fill="#f8fafc"/>
<line x1="106.00" y1="237.00" x2="250.00" y2="237.00" stroke="#3b82f6" stroke-width="3.5" stroke-linecap="round"/><line x1="250.00" y1="237.00" x2="154.00" y2="123.00" stroke="#22c55e" stroke-width="3.5" stroke-linecap="round"/><line x1="154.00" y1="123.00" x2="106.00" y2="237.00" stroke="#ef4444" stroke-width="3.5" stroke-linecap="round"/>
<line x1="350.00" y1="237.00" x2="494.00" y2="237.00" stroke="#3b82f6" stroke-width="3.5" stroke-linecap="round"/><line x1="494.00" y1="237.00" x2="398.00" y2="123.00" stroke="#22c55e" stroke-width="3.5" stroke-linecap="round"/><line x1="398.00" y1="123.00" x2="350.00" y2="237.00" stroke="#ef4444" stroke-width="3.5" stroke-linecap="round"/>
<line x1="174.00" y1="230.60" x2="182.00" y2="243.40" stroke="#3b82f6" stroke-width="2"/>
<line x1="201.61" y1="189.48" x2="206.25" y2="175.11" stroke="#22c55e" stroke-width="2"/><line x1="197.75" y1="184.89" x2="202.39" y2="170.52" stroke="#22c55e" stroke-width="2"/>
<line x1="139.78" y1="173.27" x2="124.88" y2="175.67" stroke="#ef4444" stroke-width="2"/><line x1="137.45" y1="178.80" x2="122.55" y2="181.20" stroke="#ef4444" stroke-width="2"/><line x1="135.12" y1="184.33" x2="120.22" y2="186.73" stroke="#ef4444" stroke-width="2"/>
<line x1="418.00" y1="230.60" x2="426.00" y2="243.40" stroke="#3b82f6" stroke-width="2"/>
<line x1="445.61" y1="189.48" x2="450.25" y2="175.11" stroke="#22c55e" stroke-width="2"/><line x1="441.75" y1="184.89" x2="446.39" y2="170.52" stroke="#22c55e" stroke-width="2"/>
<line x1="383.78" y1="173.27" x2="368.88" y2="175.67" stroke="#ef4444" stroke-width="2"/><line x1="381.45" y1="178.80" x2="366.55" y2="181.20" stroke="#ef4444" stroke-width="2"/><line x1="379.12" y1="184.33" x2="364.22" y2="186.73" stroke="#ef4444" stroke-width="2"/>
<text x="330.00" y="180.00" font-family="sans-serif" font-size="45" font-weight="bold" fill="#1e293b" text-anchor="middle" dominant-baseline="middle">≅</text>
<text x="300.00" y="325.00" font-family="sans-serif" font-size="18" font-weight="bold" fill="#1e293b" text-anchor="middle" dominant-baseline="middle">Criterio LLL: Lados Iguales</text>
</svg>