<svg xmlns="http://www.w3.org/2000/svg" viewBox="0 0 600 300">
<rect width="600" height="300" fill="#f8fafc"/>
<line x1="60" y1="230" x2="220" y2="230" stroke="#3b82f6" stroke-width="3" stroke-linecap="round"/><line x1="220" y1="230" x2="110" y2="100" stroke="#22c55e" stroke-width="3" stroke-linecap="round"/><line x1="110" y1="100" x2="60" y2="230" stroke="#ef4444" stroke-width="3" stroke-linecap="round"/>
<line x1="360" y1="230" x2="520" y2="230" stroke="#3b82f6" stroke-width="3" stroke-linecap="round"/><line x1="520" y1="230" x2="410" y2="100" stroke="#22c55e" stroke-width="3" stroke-linecap="round"/><line x1="410" y1="100" x2="360" y2="230" stroke="#ef4444" stroke-width="3" stroke-linecap="round"/>
<line x1="137.00" y1="225.20" x2="143.00" y2="234.80" stroke="#3b82f6" stroke-width="2"/>
<line x1="164.89" y1="172.30" x2="168.34" y2="161.52" stroke="#22c55e" stroke-width="2"/><line x1="161.66" y1="168.48" x2="165.11" y2="157.70" stroke="#22c55e" stroke-width="2"/>
<line x1="92.35" y1="159.26" x2="81.24" y2="161.41" stroke="#ef4444" stroke-width="2"/><line x1="90.56" y1="163.92" x2="79.44" y2="166.08" stroke="#ef4444" stroke-width="2"/><line x1="88.76" y1="168.59" x2="77.65" y2="170.74" stroke="#ef4444" stroke-width="2"/>
<line x1="437.00" y1="225.20" x2="443.00" y2="234.80" stroke="#3b82f6" stroke-width="2"/>
<line x1="464.89" y1="172.30" x2="468.34" y2="161.52" stroke="#22c55e" stroke-width="2"/><line x1="461.66" y1="168.48" x2="465.11" y2="157.70" stroke="#22c55e" stroke-width="2"/>
<line x1="392.35" y1="159.26" x2="381.24" y2="161.41" stroke="#ef4444" stroke-width="2"/><line x1="390.56" y1="163.92" x2="379.44" y2="166.08" stroke="#ef4444" stroke-width="2"/><line x1="388.76" y1="168.59" x2="377.65" y2="170.74" stroke="#ef4444" stroke-width="2"/>
<text x="300" y="280" font-family="sans-serif" font-size="16" font-weight="bold" fill="#1e293b" text-anchor="middle">Lado-Lado-Lado (Colores)</text>
</svg>