<svg xmlns="http://www.w3.org/2000/svg" viewBox="0 0 600 400" style="font-family: Inter, system-ui, sans-serif;">
<rect width="600" height="400" fill="#f8fafc" rx="12"/>
<path d="M 300 100 L 284.57 125.72 A 30 30 0 0 0 315.43 125.72 Z" fill="#f97316" fill-opacity="0.2" stroke="none"/><path d="M 284.57 125.72 A 30 30 0 0 0 315.43 125.72" fill="none" stroke="#f97316" stroke-width="2"/><text x="300.00" y="150.00" text-anchor="middle" dominant-baseline="middle" font-weight="bold" fill="#f97316">α</text>
<path d="M 150 350 L 180.00 350.00 A 30 30 0 0 0 165.43 324.28 Z" fill="#f97316" fill-opacity="0.2" stroke="none"/><path d="M 180.00 350.00 A 30 30 0 0 0 165.43 324.28" fill="none" stroke="#f97316" stroke-width="2"/><text x="193.51" y="325.37" text-anchor="middle" dominant-baseline="middle" font-weight="bold" fill="#f97316">β</text>
<path d="M 450 350 L 434.57 324.28 A 30 30 0 0 0 420.00 350.00 Z" fill="#f97316" fill-opacity="0.2" stroke="none"/><path d="M 434.57 324.28 A 30 30 0 0 0 420.00 350.00" fill="none" stroke="#f97316" stroke-width="2"/><text x="406.49" y="325.37" text-anchor="middle" dominant-baseline="middle" font-weight="bold" fill="#f97316">γ</text>
<line x1="150.00" y1="350.00" x2="450.00" y2="350.00" stroke="#22c55e" stroke-width="2" stroke-linecap="round"/><text x="300.00" y="370.00" text-anchor="middle" dominant-baseline="middle" font-weight="bold" font-style="italic" fill="#22c55e">a</text>
<line x1="450.00" y1="350.00" x2="300.00" y2="100.00" stroke="#22c55e" stroke-width="2" stroke-linecap="round"/><text x="395.00" y="225.00" text-anchor="middle" dominant-baseline="middle" font-weight="bold" font-style="italic" fill="#22c55e">b</text>
<line x1="300.00" y1="100.00" x2="150.00" y2="350.00" stroke="#22c55e" stroke-width="2" stroke-linecap="round"/><text x="205.00" y="225.00" text-anchor="middle" dominant-baseline="middle" font-weight="bold" font-style="italic" fill="#22c55e">c</text>
<circle cx="300.00" cy="100.00" r="4" fill="#1e293b"/><text x="300.00" y="80.00" text-anchor="middle" font-weight="bold" fill="#1e293b">A</text>
<circle cx="150.00" cy="350.00" r="4" fill="#1e293b"/><text x="135.00" y="360.00" text-anchor="middle" font-weight="bold" fill="#1e293b">B</text>
<circle cx="450.00" cy="350.00" r="4" fill="#1e293b"/><text x="465.00" y="360.00" text-anchor="middle" font-weight="bold" fill="#1e293b">C</text>
</svg>