<svg xmlns="http://www.w3.org/2000/svg" viewBox="0 0 600 400" style="font-family: Inter, system-ui, sans-serif;">
<rect width="600" height="400" fill="#f8fafc" rx="12"/>
<path d="M 300.0 133.49364905389035 L 175.0 350 L 425.0 350 Z" fill="#f8fafc" stroke="#22c55e" stroke-width="4" stroke-linejoin="round"/>
<line x1="233.17" y1="239.25" x2="241.83" y2="244.25" stroke="#3b82f6" stroke-width="2" stroke-linecap="round"/>
<line x1="300.00" y1="355.00" x2="300.00" y2="345.00" stroke="#3b82f6" stroke-width="2" stroke-linecap="round"/>
<line x1="366.83" y1="239.25" x2="358.17" y2="244.25" stroke="#3b82f6" stroke-width="2" stroke-linecap="round"/>
<path d="M 300.0 133.49364905389035 L 280.00 168.13 A 40 40 0 0 0 320.00 168.13 Z" fill="#f97316" fill-opacity="0.2" stroke="none"/><path d="M 280.00 168.13 A 40 40 0 0 0 320.00 168.13" fill="none" stroke="#f97316" stroke-width="2"/><text x="300.00" y="193.49" text-anchor="middle" dominant-baseline="middle" font-weight="bold" fill="#f97316">60°</text>
<path d="M 175.0 350 L 215.00 350.00 A 40 40 0 0 0 195.00 315.36 Z" fill="#f97316" fill-opacity="0.2" stroke="none"/><path d="M 215.00 350.00 A 40 40 0 0 0 195.00 315.36" fill="none" stroke="#f97316" stroke-width="2"/><text x="226.96" y="320.00" text-anchor="middle" dominant-baseline="middle" font-weight="bold" fill="#f97316">60°</text>
<path d="M 425.0 350 L 405.00 315.36 A 40 40 0 0 0 385.00 350.00 Z" fill="#f97316" fill-opacity="0.2" stroke="none"/><path d="M 405.00 315.36 A 40 40 0 0 0 385.00 350.00" fill="none" stroke="#f97316" stroke-width="2"/><text x="373.04" y="320.00" text-anchor="middle" dominant-baseline="middle" font-weight="bold" fill="#f97316">60°</text>
</svg>