<svg xmlns="http://www.w3.org/2000/svg" viewBox="0 0 600 400" style="font-family: Inter, system-ui, sans-serif;">
<rect width="600" height="400" fill="#f8fafc" rx="12"/>
<path d="M 300 80 L 150 350 L 450 350 Z" fill="#f8fafc" stroke="#22c55e" stroke-width="4" stroke-linejoin="round"/>
<path d="M 300 80 L 285.43 106.22 A 30 30 0 0 0 314.57 106.22 Z" fill="#1e293b" fill-opacity="0.2" stroke="none"/><path d="M 285.43 106.22 A 30 30 0 0 0 314.57 106.22" fill="none" stroke="#1e293b" stroke-width="2"/><text x="300.00" y="130.00" text-anchor="middle" dominant-baseline="middle" font-weight="bold" fill="#1e293b">80°</text>
<path d="M 150 350 L 180.00 350.00 A 30 30 0 0 0 164.57 323.78 Z" fill="#1e293b" fill-opacity="0.2" stroke="none"/><path d="M 180.00 350.00 A 30 30 0 0 0 164.57 323.78" fill="none" stroke="#1e293b" stroke-width="2"/><text x="193.09" y="324.64" text-anchor="middle" dominant-baseline="middle" font-weight="bold" fill="#1e293b">60°</text>
<path d="M 450 350 L 435.43 323.78 A 30 30 0 0 0 420.00 350.00 Z" fill="#1e293b" fill-opacity="0.2" stroke="none"/><path d="M 435.43 323.78 A 30 30 0 0 0 420.00 350.00" fill="none" stroke="#1e293b" stroke-width="2"/><text x="406.91" y="324.64" text-anchor="middle" dominant-baseline="middle" font-weight="bold" fill="#1e293b">40°</text>
<text x="300" y="390" text-anchor="middle" font-size="16" fill="#22c55e" font-weight="bold">Todos &lt; 90° → Acutángulo</text>
</svg>