<svg xmlns="http://www.w3.org/2000/svg" viewBox="0 0 600 400" style="font-family: Inter, system-ui, sans-serif;">
<rect width="600" height="400" fill="#f8fafc" rx="12"/>
<line x1="100.00" y1="320.00" x2="500.00" y2="320.00" stroke="#3b82f6" stroke-width="4" stroke-linecap="round"/><text x="300.00" y="345.00" text-anchor="middle" dominant-baseline="middle" font-weight="bold" font-style="italic" fill="#3b82f6">p (opuesto a P)</text>
<line x1="300.00" y1="80.00" x2="500.00" y2="320.00" stroke="#22c55e" stroke-width="4" stroke-linecap="round"/><text x="430.00" y="200.00" text-anchor="middle" dominant-baseline="middle" font-weight="bold" font-style="italic" fill="#22c55e">q</text>
<line x1="300.00" y1="80.00" x2="100.00" y2="320.00" stroke="#f97316" stroke-width="4" stroke-linecap="round"/><text x="170.00" y="200.00" text-anchor="middle" dominant-baseline="middle" font-weight="bold" font-style="italic" fill="#f97316">r</text>
<path d="M 300 80 L 274.39 110.73 A 40 40 0 0 0 325.61 110.73 Z" fill="#3b82f6" fill-opacity="0.2" stroke="none"/><path d="M 274.39 110.73 A 40 40 0 0 0 325.61 110.73" fill="none" stroke="#3b82f6" stroke-width="2"/><text x="300.00" y="140.00" text-anchor="middle" dominant-baseline="middle" font-weight="bold" fill="#3b82f6">P</text>
<path d="M 100 320 L 140.00 320.00 A 40 40 0 0 0 125.61 289.27 Z" fill="#22c55e" fill-opacity="0.2" stroke="none"/><path d="M 140.00 320.00 A 40 40 0 0 0 125.61 289.27" fill="none" stroke="#22c55e" stroke-width="2"/><text x="154.34" y="294.55" text-anchor="middle" dominant-baseline="middle" font-weight="bold" fill="#22c55e">Q</text>
<path d="M 500 320 L 474.39 289.27 A 40 40 0 0 0 460.00 320.00 Z" fill="#f97316" fill-opacity="0.2" stroke="none"/><path d="M 474.39 289.27 A 40 40 0 0 0 460.00 320.00" fill="none" stroke="#f97316" stroke-width="2"/><text x="445.66" y="294.55" text-anchor="middle" dominant-baseline="middle" font-weight="bold" fill="#f97316">R</text>
</svg>