<svg xmlns="http://www.w3.org/2000/svg" viewBox="0 0 600 400" style="font-family: Inter, system-ui, sans-serif;">
<rect width="600" height="400" fill="#f8fafc" rx="12"/>
<path d="M 250 50 L 100 350 L 500 350 Z" fill="#f8fafc" stroke="#22c55e" stroke-width="4" stroke-linejoin="round"/>
<path d="M 250 50 L 236.58 76.83 A 30 30 0 0 0 269.21 73.05 Z" fill="#1e293b" fill-opacity="0.2" stroke="none"/><path d="M 236.58 76.83 A 30 30 0 0 0 269.21 73.05" fill="none" stroke="#1e293b" stroke-width="2"/><text x="255.76" y="99.67" text-anchor="middle" dominant-baseline="middle" font-weight="bold" fill="#1e293b">40°</text>
<path d="M 100 350 L 130.00 350.00 A 30 30 0 0 0 113.42 323.17 Z" fill="#1e293b" fill-opacity="0.2" stroke="none"/><path d="M 130.00 350.00 A 30 30 0 0 0 113.42 323.17" fill="none" stroke="#1e293b" stroke-width="2"/><text x="142.53" y="323.71" text-anchor="middle" dominant-baseline="middle" font-weight="bold" fill="#1e293b">80°</text>
<path d="M 500 350 L 480.79 326.95 A 30 30 0 0 0 470.00 350.00 Z" fill="#3b82f6" fill-opacity="0.2" stroke="none"/><path d="M 480.79 326.95 A 30 30 0 0 0 470.00 350.00" fill="none" stroke="#3b82f6" stroke-width="2"/><text x="454.72" y="328.79" text-anchor="middle" dominant-baseline="middle" font-weight="bold" fill="#3b82f6">x = ?</text>
<text x="300.0" y="380" text-anchor="middle" font-size="16" fill="#3b82f6">180 - (40+80) = 60°</text>
</svg>