<svg xmlns="http://www.w3.org/2000/svg" viewBox="0 0 600 400" style="font-family: Inter, system-ui, sans-serif;">
<rect width="600" height="400" fill="#f8fafc" rx="12"/>
<line x1="150.00" y1="300.00" x2="550.00" y2="300.00" stroke="#e2e8f0" stroke-width="2" stroke-linecap="round"/>
<path d="M 300 100 L 150 300 L 400 300 Z" fill="#f8fafc" stroke="#22c55e" stroke-width="4" stroke-linejoin="round"/>
<path d="M 400 300 L 440.00 300.00 A 40 40 0 0 0 382.11 264.22 Z" fill="#f97316" fill-opacity="0.2" stroke="none"/><path d="M 440.00 300.00 A 40 40 0 0 0 382.11 264.22" fill="none" stroke="#f97316" stroke-width="2"/><text x="431.54" y="248.96" text-anchor="middle" dominant-baseline="middle" font-weight="bold" fill="#f97316">120°</text>
<path d="M 300 100 L 276.00 132.00 A 40 40 0 0 0 317.89 135.78 Z" fill="#1e293b" fill-opacity="0.2" stroke="none"/><path d="M 276.00 132.00 A 40 40 0 0 0 317.89 135.78" fill="none" stroke="#1e293b" stroke-width="2"/><text x="294.61" y="159.76" text-anchor="middle" dominant-baseline="middle" font-weight="bold" fill="#1e293b">70°</text>
<path d="M 150 300 L 190.00 300.00 A 40 40 0 0 0 174.00 268.00 Z" fill="#3b82f6" fill-opacity="0.2" stroke="none"/><path d="M 190.00 300.00 A 40 40 0 0 0 174.00 268.00" fill="none" stroke="#3b82f6" stroke-width="2"/><text x="203.67" y="273.17" text-anchor="middle" dominant-baseline="middle" font-weight="bold" fill="#3b82f6">x</text>
<text x="300.0" y="380" text-anchor="middle" font-size="16" fill="#3b82f6">120 = 70 + x  →  x = 50°</text>
</svg>