<svg xmlns="http://www.w3.org/2000/svg" viewBox="0 0 600 300">
<rect width="600" height="300" fill="#f8fafc"/>
<path d="M 60 200 L 200 200 L 136.6044443118978 135.72123903134607 Z" fill="none" stroke="#22c55e" stroke-width="2" stroke-linejoin="round"/>
<path d="M 360 200 L 500 200 L 436.6044443118978 135.72123903134607 Z" fill="none" stroke="#22c55e" stroke-width="2" stroke-linejoin="round"/>
<text x="130.0" y="220" font-family="sans-serif" font-size="16" font-weight="normal" fill="#3b82f6" text-anchor="middle">7</text>
<text x="83.3022221559489" y="167.86061951567302" font-family="sans-serif" font-size="16" font-weight="normal" fill="#3b82f6" text-anchor="middle">5</text>
<path d="M 60 200 L 79.15 183.93 A 25 25 0 0 1 85.00 200.00 Z" fill="#22c55e" fill-opacity="0.2" stroke="none"/><path d="M 79.15 183.93 A 25 25 0 0 1 85.00 200.00" fill="none" stroke="#22c55e" stroke-width="2"/>
<text x="100" y="190" font-family="sans-serif" font-size="12" font-weight="normal" fill="#ef4444" text-anchor="middle">40°</text>
<text x="430.0" y="220" font-family="sans-serif" font-size="16" font-weight="normal" fill="#3b82f6" text-anchor="middle">7</text>
<text x="383.3022221559489" y="167.86061951567302" font-family="sans-serif" font-size="16" font-weight="normal" fill="#3b82f6" text-anchor="middle">5</text>
<path d="M 360 200 L 379.15 183.93 A 25 25 0 0 1 385.00 200.00 Z" fill="#22c55e" fill-opacity="0.2" stroke="none"/><path d="M 379.15 183.93 A 25 25 0 0 1 385.00 200.00" fill="none" stroke="#22c55e" stroke-width="2"/>
<text x="400" y="190" font-family="sans-serif" font-size="12" font-weight="normal" fill="#ef4444" text-anchor="middle">40°</text>
<text x="300" y="280" font-family="sans-serif" font-size="16" font-weight="bold" fill="#1e293b" text-anchor="middle">Lado-Ángulo-Lado coincide</text>
</svg>