<svg xmlns="http://www.w3.org/2000/svg" viewBox="0 0 600 350">
<rect width="600" height="350" fill="#f8fafc"/>
<path d="M 85.00 220.17 L 260.00 220.17 L 180.76 139.83 Z" fill="none" stroke="#22c55e" stroke-width="2.5" stroke-linejoin="round"/>
<path d="M 340.00 220.17 L 515.00 220.17 L 435.76 139.83 Z" fill="none" stroke="#22c55e" stroke-width="2.5" stroke-linejoin="round"/>
<text x="172.50" y="242.17" font-family="sans-serif" font-size="18" font-weight="bold" fill="#3b82f6" text-anchor="middle" dominant-baseline="middle">7</text>
<text x="112.88" y="172.00" font-family="sans-serif" font-size="18" font-weight="bold" fill="#3b82f6" text-anchor="middle" dominant-baseline="middle">5</text>
<path d="M 85.00 220.17 L 107.98 200.89 A 30 30 0 0 1 115.00 220.17 Z" fill="#ef4444" fill-opacity="0.2" stroke="none"/><path d="M 107.98 200.89 A 30 30 0 0 1 115.00 220.17" fill="none" stroke="#ef4444" stroke-width="2"/>
<text x="135.00" y="205.17" font-family="sans-serif" font-size="16" font-weight="bold" fill="#ef4444" text-anchor="middle" dominant-baseline="middle">40°</text>
<text x="427.50" y="242.17" font-family="sans-serif" font-size="18" font-weight="bold" fill="#3b82f6" text-anchor="middle" dominant-baseline="middle">7</text>
<text x="367.88" y="172.00" font-family="sans-serif" font-size="18" font-weight="bold" fill="#3b82f6" text-anchor="middle" dominant-baseline="middle">5</text>
<path d="M 340.00 220.17 L 362.98 200.89 A 30 30 0 0 1 370.00 220.17 Z" fill="#ef4444" fill-opacity="0.2" stroke="none"/><path d="M 362.98 200.89 A 30 30 0 0 1 370.00 220.17" fill="none" stroke="#ef4444" stroke-width="2"/>
<text x="390.00" y="205.17" font-family="sans-serif" font-size="16" font-weight="bold" fill="#ef4444" text-anchor="middle" dominant-baseline="middle">40°</text>
<text x="310.00" y="165.00" font-family="sans-serif" font-size="45" font-weight="bold" fill="#1e293b" text-anchor="middle" dominant-baseline="middle">≅</text>
<text x="300.00" y="325.00" font-family="sans-serif" font-size="18" font-weight="bold" fill="#1e293b" text-anchor="middle" dominant-baseline="middle">LAL → Congruentes</text>
</svg>