<svg xmlns="http://www.w3.org/2000/svg" viewBox="0 0 600 350">
<rect width="600" height="350" fill="#f8fafc"/>
<path d="M 118.37 212.00 L 300.78 212.00 L 229.22 148.00 Z" fill="none" stroke="#3b82f6" stroke-width="2.5" stroke-linejoin="round"/>
<path d="M 370.78 212.00 L 410.07 212.00 L 481.63 148.00 Z" fill="none" stroke="#22c55e" stroke-width="2.5" stroke-linejoin="round"/>
<text x="158.80" y="175.00" font-family="sans-serif" font-size="18" font-weight="bold" fill="#3b82f6" text-anchor="middle" dominant-baseline="middle">8</text>
<text x="280.00" y="175.00" font-family="sans-serif" font-size="18" font-weight="bold" fill="#3b82f6" text-anchor="middle" dominant-baseline="middle">6</text>
<path d="M 118.37 212.00 L 144.35 197.00 A 30 30 0 0 1 148.37 212.00 Z" fill="#ef4444" fill-opacity="0.2" stroke="none"/><path d="M 144.35 197.00 A 30 30 0 0 1 148.37 212.00" fill="none" stroke="#ef4444" stroke-width="2"/>
<text x="163.37" y="200.00" font-family="sans-serif" font-size="14" font-weight="bold" fill="#ef4444" text-anchor="middle" dominant-baseline="middle">30°</text>
<text x="411.20" y="175.00" font-family="sans-serif" font-size="18" font-weight="bold" fill="#22c55e" text-anchor="middle" dominant-baseline="middle">8</text>
<text x="460.85" y="175.00" font-family="sans-serif" font-size="18" font-weight="bold" fill="#22c55e" text-anchor="middle" dominant-baseline="middle">6</text>
<path d="M 370.78 212.00 L 396.76 197.00 A 30 30 0 0 1 400.78 212.00 Z" fill="#ef4444" fill-opacity="0.2" stroke="none"/><path d="M 396.76 197.00 A 30 30 0 0 1 400.78 212.00" fill="none" stroke="#ef4444" stroke-width="2"/>
<text x="415.78" y="200.00" font-family="sans-serif" font-size="14" font-weight="bold" fill="#ef4444" text-anchor="middle" dominant-baseline="middle">30°</text>
<text x="345.78" y="180.00" font-family="sans-serif" font-size="50" font-weight="bold" fill="red" text-anchor="middle" dominant-baseline="middle">≠</text>
<text x="300.00" y="325.00" font-family="sans-serif" font-size="16" font-weight="bold" fill="red" text-anchor="middle" dominant-baseline="middle">Mismos datos (6, 8, 30°), triángulos distintos</text>
</svg>