<svg xmlns="http://www.w3.org/2000/svg" viewBox="0 0 600 400" style="font-family: Inter, system-ui, sans-serif;">
<rect width="600" height="400" fill="#f8fafc" rx="12"/>
<path d="M 300 150 L 200 300 L 400 300 Z" fill="#f8fafc" stroke="#22c55e" stroke-width="4" stroke-linejoin="round"/>
<line x1="300.00" y1="150.00" x2="240.00" y2="60.00" stroke="#e2e8f0" stroke-width="2" stroke-linecap="round"/>
<line x1="200.00" y1="300.00" x2="140.00" y2="390.00" stroke="#e2e8f0" stroke-width="2" stroke-linecap="round"/>
<line x1="400.00" y1="300.00" x2="520.00" y2="300.00" stroke="#e2e8f0" stroke-width="2" stroke-linecap="round"/>
<path d="M 300 150 L 283.36 125.04 A 30 30 0 0 0 316.64 174.96 Z" fill="#3b82f6" fill-opacity="0.2" stroke="none"/><path d="M 283.36 125.04 A 30 30 0 0 0 316.64 174.96" fill="none" stroke="#3b82f6" stroke-width="2"/><text x="258.40" y="177.74" text-anchor="middle" dominant-baseline="middle" font-weight="bold" fill="#3b82f6">Ext A</text>
<path d="M 200 300 L 183.36 324.96 A 30 30 0 0 0 216.64 275.04 Z" fill="#22c55e" fill-opacity="0.2" stroke="none"/><path d="M 183.36 324.96 A 30 30 0 0 0 216.64 275.04" fill="none" stroke="#22c55e" stroke-width="2"/><text x="241.60" y="327.74" text-anchor="middle" dominant-baseline="middle" font-weight="bold" fill="#22c55e">Ext B</text>
<path d="M 400 300 L 430.00 300.00 A 30 30 0 0 0 370.00 300.00 Z" fill="#f97316" fill-opacity="0.2" stroke="none"/><path d="M 430.00 300.00 A 30 30 0 0 0 370.00 300.00" fill="none" stroke="#f97316" stroke-width="2"/><text x="400.00" y="250.00" text-anchor="middle" dominant-baseline="middle" font-weight="bold" fill="#f97316">Ext C</text>
<text x="300.0" y="50" text-anchor="middle" font-size="20" font-weight="bold" fill="#1e293b">Suman 360° (Una vuelta)</text>
</svg>