<svg xmlns="http://www.w3.org/2000/svg" viewBox="0 0 600 400" style="font-family: Inter, system-ui, sans-serif;">
<rect width="600" height="400" fill="#f8fafc" rx="12"/>
<path d="M 200 100 L 150 350 L 450 350 Z" fill="#f8fafc" stroke="#22c55e" stroke-width="4" stroke-linejoin="round"/>
<line x1="450.00" y1="350.00" x2="550.00" y2="350.00" stroke="#e2e8f0" stroke-width="3" stroke-linecap="round"/>
<path d="M 200 100 L 192.16 139.22 A 40 40 0 0 0 228.28 128.28 Z" fill="#3b82f6" fill-opacity="0.2" stroke="none"/><path d="M 192.16 139.22 A 40 40 0 0 0 228.28 128.28" fill="none" stroke="#3b82f6" stroke-width="2"/><text x="217.39" y="157.43" text-anchor="middle" dominant-baseline="middle" font-weight="bold" fill="#3b82f6">α</text>
<path d="M 150 350 L 190.00 350.00 A 40 40 0 0 0 157.84 310.78 Z" fill="#22c55e" fill-opacity="0.2" stroke="none"/><path d="M 190.00 350.00 A 40 40 0 0 0 157.84 310.78" fill="none" stroke="#22c55e" stroke-width="2"/><text x="196.40" y="311.96" text-anchor="middle" dominant-baseline="middle" font-weight="bold" fill="#22c55e">β</text>
<path d="M 450 350 L 500.00 350.00 A 50 50 0 0 0 414.64 314.64 Z" fill="#f97316" fill-opacity="0.2" stroke="none"/><path d="M 500.00 350.00 A 50 50 0 0 0 414.64 314.64" fill="none" stroke="#f97316" stroke-width="2"/><text x="476.79" y="285.33" text-anchor="middle" dominant-baseline="middle" font-weight="bold" fill="#f97316">α + β</text>
<text x="300" y="380" text-anchor="middle" font-weight="bold" fill="#f97316">Exterior = α + β</text>
</svg>