<?xml version="1.0" encoding="utf-8" ?>
<svg baseProfile="full" height="400" version="1.1" width="500" xmlns="http://www.w3.org/2000/svg" xmlns:ev="http://www.w3.org/2001/xml-events" xmlns:xlink="http://www.w3.org/1999/xlink"><defs /><rect fill="#f8fafc" height="100%" width="100%" x="0" y="0" /><polygon fill="white" points="50.0,320.0 450.0,320.0 150.0,50.0" stroke="#334155" stroke-linecap="round" stroke-linejoin="round" stroke-width="3" /><line stroke="#8b5cf6" stroke-dasharray="5,4" stroke-width="2.5" x1="50.0" x2="275.562024868108" y1="320.0" y2="163.00582238129718" /><line stroke="#8b5cf6" stroke-dasharray="5,4" stroke-width="2.5" x1="450.0" x2="99.77546775463875" y1="320.0" y2="185.60623706247537" /><line stroke="#8b5cf6" stroke-dasharray="5,4" stroke-width="2.5" x1="150.0" x2="216.5423822751659" y1="50.0" y2="320.0" /><circle cx="192.15743978277402" cy="221.05652596385968" fill="none" r="-98.94347403614032" stroke="#3b82f6" stroke-width="2.5" /><circle cx="192.15743978277402" cy="221.05652596385968" fill="#3b82f6" fill-opacity="0.08" r="-98.94347403614032" /><line stroke="#94a3b8" stroke-dasharray="2,2" x1="192.15743978277402" x2="192.15743978277402" y1="221.05652596385968" y2="320.0" /><line stroke="#94a3b8" stroke-dasharray="2,2" x1="192.15743978277402" x2="258.3471343371535" y1="221.05652596385968" y2="147.5124209034381" /><line stroke="#94a3b8" stroke-dasharray="2,2" x1="192.15743978277402" x2="99.3733196236855" y1="221.05652596385968" y2="186.6920370160491" /><circle cx="192.15743978277402" cy="320.0" fill="#94a3b8" r="2" /><circle cx="258.3471343371535" cy="147.5124209034381" fill="#94a3b8" r="2" /><circle cx="99.3733196236855" cy="186.6920370160491" fill="#94a3b8" r="2" /><circle cx="50.0" cy="320.0" fill="#1e293b" r="4.5" stroke="white" stroke-width="2" /><text fill="#1e293b" font-family="Arial, Helvetica, sans-serif" font-size="16" font-weight="bold" x="35.0" y="325.0">A</text><circle cx="450.0" cy="320.0" fill="#1e293b" r="4.5" stroke="white" stroke-width="2" /><text fill="#1e293b" font-family="Arial, Helvetica, sans-serif" font-size="16" font-weight="bold" x="460.0" y="325.0">B</text><circle cx="150.0" cy="50.0" fill="#1e293b" r="4.5" stroke="white" stroke-width="2" /><text fill="#1e293b" font-family="Arial, Helvetica, sans-serif" font-size="16" font-weight="bold" x="145.0" y="35.0">C</text><circle cx="192.15743978277402" cy="221.05652596385968" fill="#ef4444" r="7" stroke="white" stroke-width="2.5" /><text fill="#ef4444" font-family="Arial, Helvetica, sans-serif" font-size="16" font-weight="bold" x="192.15743978277402" y="226.05652596385968">I (Incentro)</text><text fill="#64748b" font-family="Arial, Helvetica, sans-serif" font-size="13" font-weight="normal" text-anchor="middle" x="250" y="380">Bisectrices: Dividen el ángulo en dos iguales</text></svg>