<svg xmlns="http://www.w3.org/2000/svg" viewBox="0 0 600 400" style="font-family: Inter, system-ui, sans-serif;">
<rect width="600" height="400" fill="#f8fafc" rx="12"/>
<path d="M 300 50 L 100 350 L 500 350 Z" fill="#f8fafc" stroke="#22c55e" stroke-width="4" stroke-linejoin="round"/>
<path d="M 300 50 L 277.81 83.28 A 40 40 0 0 0 322.19 83.28 Z" fill="#3b82f6" fill-opacity="0.2" stroke="none"/><path d="M 277.81 83.28 A 40 40 0 0 0 322.19 83.28" fill="none" stroke="#3b82f6" stroke-width="2"/><text x="300.00" y="110.00" text-anchor="middle" dominant-baseline="middle" font-weight="bold" fill="#3b82f6">A</text>
<path d="M 100 350 L 140.00 350.00 A 40 40 0 0 0 122.19 316.72 Z" fill="#22c55e" fill-opacity="0.2" stroke="none"/><path d="M 140.00 350.00 A 40 40 0 0 0 122.19 316.72" fill="none" stroke="#22c55e" stroke-width="2"/><text x="152.90" y="321.69" text-anchor="middle" dominant-baseline="middle" font-weight="bold" fill="#22c55e">B</text>
<path d="M 500 350 L 477.81 316.72 A 40 40 0 0 0 460.00 350.00 Z" fill="#f97316" fill-opacity="0.2" stroke="none"/><path d="M 477.81 316.72 A 40 40 0 0 0 460.00 350.00" fill="none" stroke="#f97316" stroke-width="2"/><text x="447.10" y="321.69" text-anchor="middle" dominant-baseline="middle" font-weight="bold" fill="#f97316">C</text>
<text x="300.0" y="390" text-anchor="middle" font-size="20" font-weight="bold" fill="#1e293b">A + B + C = 180°</text>
</svg>