<svg xmlns="http://www.w3.org/2000/svg" viewBox="0 0 600 400" style="font-family: Inter, system-ui, sans-serif;">
<rect width="600" height="400" fill="#f8fafc" rx="12"/>
<path d="M 300.0 80 L 220.0 380 L 380.0 380 Z" fill="#f8fafc" stroke="#22c55e" stroke-width="4" stroke-linejoin="round"/>
<line x1="254.65" y1="230.64" x2="264.32" y2="233.22" stroke="#3b82f6" stroke-width="2" stroke-linecap="round"/><line x1="255.68" y1="226.78" x2="265.35" y2="229.36" stroke="#3b82f6" stroke-width="2" stroke-linecap="round"/>
<line x1="344.32" y1="226.78" x2="334.65" y2="229.36" stroke="#3b82f6" stroke-width="2" stroke-linecap="round"/><line x1="345.35" y1="230.64" x2="335.68" y2="233.22" stroke="#3b82f6" stroke-width="2" stroke-linecap="round"/>
<path d="M 220.0 380 L 260.00 380.00 A 40 40 0 0 0 230.31 341.35 Z" fill="#f97316" fill-opacity="0.2" stroke="none"/><path d="M 260.00 380.00 A 40 40 0 0 0 230.31 341.35" fill="none" stroke="#f97316" stroke-width="2"/><text x="267.58" y="343.45" text-anchor="middle" dominant-baseline="middle" font-weight="bold" fill="#f97316">α</text>
<path d="M 380.0 380 L 369.69 341.35 A 40 40 0 0 0 340.00 380.00 Z" fill="#f97316" fill-opacity="0.2" stroke="none"/><path d="M 369.69 341.35 A 40 40 0 0 0 340.00 380.00" fill="none" stroke="#f97316" stroke-width="2"/><text x="332.42" y="343.45" text-anchor="middle" dominant-baseline="middle" font-weight="bold" fill="#f97316">α</text>
<path d="M 300.0 80 L 289.69 118.65 A 40 40 0 0 0 310.31 118.65 Z" fill="#64748b" fill-opacity="0.2" stroke="none"/><path d="M 289.69 118.65 A 40 40 0 0 0 310.31 118.65" fill="none" stroke="#64748b" stroke-width="2"/><text x="300.00" y="140.00" text-anchor="middle" dominant-baseline="middle" font-weight="bold" fill="#64748b">β</text>
</svg>