<svg xmlns="http://www.w3.org/2000/svg" viewBox="0 0 600 400" style="font-family: Inter, system-ui, sans-serif;">
<rect width="600" height="400" fill="#f8fafc" rx="12"/>
<line x1="40.0" y1="350.0" x2="550.0" y2="350.0" stroke="#e2e8f0" stroke-width="1.5" stroke-dasharray="6"/>
<line x1="103.64" y1="226.14" x2="500.0" y2="350.0" stroke="#e2e8f0" stroke-width="1.5" stroke-dasharray="6"/>
<line x1="229.98" y1="187.53" x2="100.0" y2="350.0" stroke="#e2e8f0" stroke-width="1.5" stroke-dasharray="6"/>
<path d="M 180.0 250.0 L 100.0 350.0 L 500.0 350.0 Z" fill="#f8fafc" stroke="#22c55e" stroke-width="3" stroke-linejoin="round"/>
<line x1="180.0" y1="250.0" x2="180.00" y2="350.00" stroke="#f97316" stroke-width="2.5"/>
<line x1="180.0" y1="250.0" x2="180.00" y2="94.00" stroke="#f97316" stroke-width="2" stroke-dasharray="8"/>
<line x1="100.0" y1="350.0" x2="135.59" y2="236.12" stroke="#f97316" stroke-width="2.5"/>
<line x1="135.59" y1="236.12" x2="180.00" y2="94.00" stroke="#f97316" stroke-width="2" stroke-dasharray="8"/>
<line x1="500.0" y1="350.0" x2="256.10" y2="154.88" stroke="#f97316" stroke-width="2.5"/>
<line x1="256.10" y1="154.88" x2="180.00" y2="94.00" stroke="#f97316" stroke-width="2" stroke-dasharray="8"/>
<path d="M 192.00 350.00 L 192.00 362.00 L 180.00 362.00" fill="none" stroke="#f97316" stroke-width="1.5"/>
<path d="M 145.13 239.10 L 142.15 248.65 L 132.60 245.67" fill="none" stroke="#f97316" stroke-width="1.5"/>
<path d="M 249.85 162.69 L 242.04 156.44 L 248.29 148.63" fill="none" stroke="#f97316" stroke-width="1.5"/>
<circle cx="180.00" cy="94.00" r="16" fill="#ef4444" fill-opacity="0.15" stroke="#ef4444" stroke-width="2"/>
<circle cx="180.00" cy="94.00" r="8" fill="#ef4444"/>
<text x="205.00" y="99.00" font-weight="bold" font-size="18" fill="#ef4444">H</text>
<text x="205.00" y="116.00" font-size="12" font-style="italic" fill="#ef4444">(fuera)</text>
<circle cx="180.00" cy="250.00" r="4" fill="#1e293b"/><text x="185.00" y="230.00" text-anchor="middle" font-weight="bold" fill="#1e293b">A</text>
<circle cx="100.00" cy="350.00" r="4" fill="#1e293b"/><text x="80.00" y="365.00" text-anchor="middle" font-weight="bold" fill="#1e293b">B</text>
<circle cx="500.00" cy="350.00" r="4" fill="#1e293b"/><text x="515.00" y="365.00" text-anchor="middle" font-weight="bold" fill="#1e293b">C</text>
<text x="300" y="390" text-anchor="middle" font-size="16" font-weight="bold" fill="#1e293b">Ortocentro FUERA (Triángulo Obtusángulo)</text>
</svg>