<?xml version="1.0" encoding="utf-8" ?>
<svg baseProfile="full" height="400" version="1.1" width="400" xmlns="http://www.w3.org/2000/svg" xmlns:ev="http://www.w3.org/2001/xml-events" xmlns:xlink="http://www.w3.org/1999/xlink"><defs /><line stroke="#94a3b8" stroke-dasharray="4,4" stroke-width="1" x1="120.0" x2="20.0" y1="200.0" y2="200.0" /><line stroke="#94a3b8" stroke-dasharray="4,4" stroke-width="1" x1="80.0" x2="80.0" y1="80.0" y2="290.0" /><polygon fill="#fef3c7" fill-opacity="0.3" points="120.0,200.0 350.0,200.0 80.0,80.0" stroke="#f59e0b" stroke-width="2" /><line stroke="#3b82f6" stroke-dasharray="6,4" stroke-width="1.5" x1="80.0" x2="80.0" y1="80.0" y2="200.0" /><line stroke="#3b82f6" stroke-dasharray="6,4" stroke-width="1.5" x1="350.0" x2="143.0" y1="200.0" y2="269.0" /><line stroke="#3b82f6" stroke-dasharray="6,4" stroke-width="1.5" x1="120.0" x2="157.93814432989691" y1="200.0" y2="114.63917525773196" /><line stroke="#ef4444" stroke-dasharray="6,4" stroke-width="1.5" x1="80.0" x2="120.0" y1="290.0" y2="200.0" /><line stroke="#ef4444" stroke-dasharray="6,4" stroke-width="1.5" x1="80.0" x2="143.0" y1="290.0" y2="269.0" /><line stroke="#ef4444" stroke-dasharray="6,4" stroke-width="1.5" x1="80.0" x2="80.0" y1="290.0" y2="200.0" /><circle cx="120.0" cy="200.0" fill="#1e293b" r="4" stroke="none" /><text fill="#1e293b" font-family="Inter, sans-serif" font-size="14" font-weight="bold" x="130.0" y="190.0">A</text><circle cx="350.0" cy="200.0" fill="#1e293b" r="4" stroke="none" /><text fill="#1e293b" font-family="Inter, sans-serif" font-size="14" font-weight="bold" x="360.0" y="190.0">B</text><circle cx="80.0" cy="80.0" fill="#1e293b" r="4" stroke="none" /><text fill="#1e293b" font-family="Inter, sans-serif" font-size="14" font-weight="bold" x="90.0" y="70.0">C</text><circle cx="80.0" cy="290.0" fill="#ef4444" r="6" stroke="none" /><text fill="#1e293b" font-family="Inter, sans-serif" font-size="14" font-weight="bold" x="90.0" y="280.0">H</text></svg>