<svg xmlns="http://www.w3.org/2000/svg" viewBox="0 0 600 400" style="font-family: Inter, system-ui, sans-serif;">
<rect width="600" height="400" fill="#f8fafc" rx="12"/>
<line x1="150.00" y1="350.00" x2="450.00" y2="350.00" stroke="#1e293b" stroke-width="4" stroke-linecap="round"/>
<circle cx="150.00" cy="350.00" r="4" fill="#1e293b"/><text x="130.00" y="370.00" text-anchor="middle" font-weight="bold" fill="#1e293b">B</text>
<circle cx="450.00" cy="350.00" r="4" fill="#1e293b"/><text x="470.00" y="370.00" text-anchor="middle" font-weight="bold" fill="#1e293b">C</text>
<line x1="300" y1="70" x2="300" y2="380" stroke="#22c55e" stroke-width="3" stroke-dasharray="8"/>
<text x="300" y="390" text-anchor="middle" font-weight="bold" fill="#22c55e">Mediatriz</text>
<circle cx="300" cy="140" r="16" fill="#22c55e" fill-opacity="0.2" stroke="#22c55e" stroke-width="2"/>
<circle cx="300" cy="140" r="8" fill="#22c55e"/>
<text x="330" y="145" font-weight="bold" font-size="16" fill="#22c55e">P</text>
<line x1="300.00" y1="140.00" x2="150.00" y2="350.00" stroke="#3b82f6" stroke-width="3" stroke-linecap="round"/>
<line x1="300.00" y1="140.00" x2="450.00" y2="350.00" stroke="#3b82f6" stroke-width="3" stroke-linecap="round"/>
<rect x="300.0" y="330.0" width="20" height="20" fill="none" stroke="#1e293b" stroke-width="2"/>
<circle cx="310.0" cy="340.0" r="2" fill="#1e293b"/>
<line x1="219.77" y1="243.72" x2="227.91" y2="249.53" stroke="#3b82f6" stroke-width="2" stroke-linecap="round"/><line x1="222.09" y1="240.47" x2="230.23" y2="246.28" stroke="#3b82f6" stroke-width="2" stroke-linecap="round"/>
<line x1="372.09" y1="249.53" x2="380.23" y2="243.72" stroke="#3b82f6" stroke-width="2" stroke-linecap="round"/><line x1="369.77" y1="246.28" x2="377.91" y2="240.47" stroke="#3b82f6" stroke-width="2" stroke-linecap="round"/>
<text x="300" y="35" text-anchor="middle" font-size="18" font-weight="bold" fill="#1e293b">Propiedad de la Mediatriz</text>
<text x="300" y="55" text-anchor="middle" font-size="14" fill="#64748b">Cualquier punto P sobre ella está a igual distancia de B y C</text>
</svg>