<svg xmlns="http://www.w3.org/2000/svg" viewBox="0 0 600 400" style="font-family: Inter, system-ui, sans-serif;">
<rect width="600" height="400" fill="#f8fafc" rx="12"/>
<line x1="120.00" y1="180.72" x2="80.00" y2="250.00" stroke="#22c55e" stroke-width="2" stroke-linecap="round"/>
<line x1="80.00" y1="250.00" x2="160.00" y2="250.00" stroke="#22c55e" stroke-width="2" stroke-linecap="round"/>
<line x1="160.00" y1="250.00" x2="120.00" y2="180.72" stroke="#22c55e" stroke-width="2" stroke-linecap="round"/>
<line x1="97.40" y1="213.86" x2="102.60" y2="216.86" stroke="#22c55e" stroke-width="2" stroke-linecap="round"/>
<line x1="120.00" y1="253.00" x2="120.00" y2="247.00" stroke="#22c55e" stroke-width="2" stroke-linecap="round"/>
<line x1="142.60" y1="213.86" x2="137.40" y2="216.86" stroke="#22c55e" stroke-width="2" stroke-linecap="round"/>
<text x="120.0" y="280" text-anchor="middle" font-size="12" font-weight="bold">3 Lados = 3 Ángulos</text>
<line x1="300.00" y1="150.00" x2="270.00" y2="250.00" stroke="#22c55e" stroke-width="2" stroke-linecap="round"/>
<line x1="270.00" y1="250.00" x2="330.00" y2="250.00" stroke="#22c55e" stroke-width="2" stroke-linecap="round"/>
<line x1="330.00" y1="250.00" x2="300.00" y2="150.00" stroke="#22c55e" stroke-width="2" stroke-linecap="round"/>
<line x1="281.84" y1="200.10" x2="287.59" y2="201.82" stroke="#22c55e" stroke-width="2" stroke-linecap="round"/><line x1="282.41" y1="198.18" x2="288.16" y2="199.90" stroke="#22c55e" stroke-width="2" stroke-linecap="round"/>
<line x1="317.59" y1="198.18" x2="311.84" y2="199.90" stroke="#22c55e" stroke-width="2" stroke-linecap="round"/><line x1="318.16" y1="200.10" x2="312.41" y2="201.82" stroke="#22c55e" stroke-width="2" stroke-linecap="round"/>
<text x="300.0" y="280" text-anchor="middle" font-size="12" font-weight="bold">2 Lados = 2 Ángulos</text>
<line x1="460.00" y1="160.00" x2="430.00" y2="250.00" stroke="#22c55e" stroke-width="2" stroke-linecap="round"/>
<line x1="430.00" y1="250.00" x2="530.00" y2="250.00" stroke="#22c55e" stroke-width="2" stroke-linecap="round"/>
<line x1="530.00" y1="250.00" x2="460.00" y2="160.00" stroke="#22c55e" stroke-width="2" stroke-linecap="round"/>
<line x1="442.15" y1="204.05" x2="447.85" y2="205.95" stroke="#22c55e" stroke-width="2" stroke-linecap="round"/>
<line x1="481.00" y1="253.00" x2="481.00" y2="247.00" stroke="#22c55e" stroke-width="2" stroke-linecap="round"/><line x1="479.00" y1="253.00" x2="479.00" y2="247.00" stroke="#22c55e" stroke-width="2" stroke-linecap="round"/>
<line x1="497.37" y1="203.16" x2="492.63" y2="206.84" stroke="#22c55e" stroke-width="2" stroke-linecap="round"/><line x1="496.14" y1="201.58" x2="491.40" y2="205.26" stroke="#22c55e" stroke-width="2" stroke-linecap="round"/><line x1="498.60" y1="204.74" x2="493.86" y2="208.42" stroke="#22c55e" stroke-width="2" stroke-linecap="round"/>
<text x="480.0" y="280" text-anchor="middle" font-size="12" font-weight="bold">0 Lados = 0 Ángulos</text>
</svg>