<svg xmlns="http://www.w3.org/2000/svg" viewBox="0 0 600 460">
<rect width="600" height="460" fill="#f8fafc"/>
<line x1="120.00" y1="290.00" x2="224.00" y2="290.00" stroke="#3b82f6" stroke-width="3.5" stroke-linecap="round"/><line x1="224.00" y1="290.00" x2="159.00" y2="186.00" stroke="#22c55e" stroke-width="3.5" stroke-linecap="round"/><line x1="159.00" y1="186.00" x2="120.00" y2="290.00" stroke="#ef4444" stroke-width="3.5" stroke-linecap="round"/>
<line x1="304.00" y1="290.00" x2="480.00" y2="290.00" stroke="#3b82f6" stroke-width="3.5" stroke-linecap="round"/><line x1="480.00" y1="290.00" x2="370.00" y2="114.00" stroke="#22c55e" stroke-width="3.5" stroke-linecap="round"/><line x1="370.00" y1="114.00" x2="304.00" y2="290.00" stroke="#ef4444" stroke-width="3.5" stroke-linecap="round"/>
<path d="M 120.00 290.00 L 130.53 261.91 A 30 30 0 0 1 150.00 290.00 Z" fill="#8b5cf6" fill-opacity="0.2" stroke="none"/>
<path d="M 224.00 290.00 L 194.00 290.00 A 30 30 0 0 1 208.10 264.56 Z" fill="#f97316" fill-opacity="0.2" stroke="none"/>
<path d="M 159.00 186.00 L 174.90 211.44 A 30 30 0 0 1 148.47 214.09 Z" fill="#06b6d4" fill-opacity="0.2" stroke="none"/>
<path d="M 304.00 290.00 L 319.80 247.87 A 45 45 0 0 1 349.00 290.00 Z" fill="#8b5cf6" fill-opacity="0.2" stroke="none"/>
<path d="M 480.00 290.00 L 435.00 290.00 A 45 45 0 0 1 456.15 251.84 Z" fill="#f97316" fill-opacity="0.2" stroke="none"/>
<path d="M 370.00 114.00 L 393.85 152.16 A 45 45 0 0 1 354.20 156.13 Z" fill="#06b6d4" fill-opacity="0.2" stroke="none"/>
<text x="300.00" y="430.00" font-family="sans-serif" font-size="22" font-weight="bold" fill="#1e293b" text-anchor="middle" dominant-baseline="middle">Misma forma, distinto tamaño</text>
</svg>