<svg xmlns="http://www.w3.org/2000/svg" viewBox="0 0 600 400" style="font-family: Inter, system-ui, sans-serif;">
<rect width="600" height="400" fill="#f8fafc" rx="12"/>
<text x="150" y="30" text-anchor="middle" font-size="14" font-weight="bold" fill="#22c55e">Baricentro (Medianas)</text><text x="150" y="50" text-anchor="middle" font-size="12" font-style="italic" fill="#1e293b">Vértice → Punto Medio</text><path d="M 150.0 50.0 L 100.0 130.0 L 200.0 130.0 Z" fill="#f8fafc" stroke="#22c55e" stroke-width="2" stroke-linejoin="round"/><line x1="150.0" y1="50.0" x2="150.0" y2="130.0" stroke="#22c55e" stroke-width="1.5"/><line x1="100.0" y1="130.0" x2="175.0" y2="90.0" stroke="#22c55e" stroke-width="1.5"/><line x1="200.0" y1="130.0" x2="125.0" y2="90.0" stroke="#22c55e" stroke-width="1.5"/><circle cx="150.00" cy="103.33" r="5" fill="#ef4444"/><text x="162.00" y="108.33" font-weight="bold" font-size="14" fill="#ef4444">G</text>
<text x="450" y="30" text-anchor="middle" font-size="14" font-weight="bold" fill="#f97316">Ortocentro (Alturas)</text><text x="450" y="50" text-anchor="middle" font-size="12" font-style="italic" fill="#1e293b">90° desde el Vértice</text><path d="M 450.0 50.0 L 400.0 130.0 L 500.0 130.0 Z" fill="#f8fafc" stroke="#22c55e" stroke-width="2" stroke-linejoin="round"/><line x1="450.0" y1="50.0" x2="450.00" y2="130.00" stroke="#f97316" stroke-width="1.5"/><line x1="400.0" y1="130.0" x2="471.91" y2="85.06" stroke="#f97316" stroke-width="1.5"/><line x1="500.0" y1="130.0" x2="428.09" y2="85.06" stroke="#f97316" stroke-width="1.5"/><circle cx="450.00" cy="98.75" r="5" fill="#ef4444"/><text x="462.00" y="103.75" font-weight="bold" font-size="14" fill="#ef4444">H</text>
<text x="150" y="230" text-anchor="middle" font-size="14" font-weight="bold" fill="#8b5cf6">Incentro (Bisectrices)</text><text x="150" y="250" text-anchor="middle" font-size="12" font-style="italic" fill="#1e293b">Divide ángulo en dos partes iguales</text><path d="M 150.0 250.0 L 100.0 330.0 L 200.0 330.0 Z" fill="#f8fafc" stroke="#22c55e" stroke-width="2" stroke-linejoin="round"/><line x1="150.00" y1="250.00" x2="150.00" y2="302.29" stroke="#8b5cf6" stroke-width="1.5" stroke-linecap="round"/><line x1="100.00" y1="330.00" x2="150.00" y2="302.29" stroke="#8b5cf6" stroke-width="1.5" stroke-linecap="round"/><line x1="200.00" y1="330.00" x2="150.00" y2="302.29" stroke="#8b5cf6" stroke-width="1.5" stroke-linecap="round"/><circle cx="150.00" cy="302.29" r="-27.71" fill="#8b5cf6" fill-opacity="0.1" stroke="#8b5cf6" stroke-width="1"/><circle cx="150.00" cy="302.29" r="5" fill="#ef4444"/><text x="162.00" y="307.29" font-weight="bold" font-size="14" fill="#ef4444">I</text>
<text x="450" y="230" text-anchor="middle" font-size="14" font-weight="bold" fill="#ec4899">Circuncentro (Mediatrices)</text><text x="450" y="250" text-anchor="middle" font-size="12" font-style="italic" fill="#1e293b">Perpendicular en punto medio</text><path d="M 450.0 250.0 L 400.0 330.0 L 500.0 330.0 Z" fill="#f8fafc" stroke="#22c55e" stroke-width="2" stroke-linejoin="round"/><line x1="450.00" y1="305.62" x2="450.00" y2="330.00" stroke="#ec4899" stroke-width="1.5" stroke-linecap="round"/><line x1="450.00" y1="305.62" x2="475.00" y2="290.00" stroke="#ec4899" stroke-width="1.5" stroke-linecap="round"/><line x1="450.00" y1="305.62" x2="425.00" y2="290.00" stroke="#ec4899" stroke-width="1.5" stroke-linecap="round"/><circle cx="450.00" cy="305.62" r="55.62" fill="#ec4899" fill-opacity="0.1" stroke="#ec4899" stroke-width="1"/><circle cx="450.00" cy="305.62" r="5" fill="#ef4444"/><text x="462.00" y="315.62" font-weight="bold" font-size="14" fill="#ef4444">O</text>
<line x1="300" y1="20" x2="300" y2="380" stroke="#e2e8f0" stroke-width="1" stroke-dasharray="4"/>
<line x1="20" y1="200" x2="580" y2="200" stroke="#e2e8f0" stroke-width="1" stroke-dasharray="4"/>
</svg>