<svg xmlns="http://www.w3.org/2000/svg" viewBox="0 0 600 400" style="font-family: Inter, system-ui, sans-serif;">
<rect width="600" height="400" fill="#f8fafc" rx="12"/>
<path d="M 150.0 50.0 L 90.0 150.0 L 210.0 150.0 Z" fill="#f8fafc" stroke="#22c55e" stroke-width="2" stroke-linejoin="round"/><line x1="150.0" y1="50.0" x2="150.0" y2="150.0" stroke="#3b82f6" stroke-width="3"/><line x1="120.00" y1="153.00" x2="120.00" y2="147.00" stroke="#3b82f6" stroke-width="2" stroke-linecap="round"/><line x1="180.00" y1="153.00" x2="180.00" y2="147.00" stroke="#3b82f6" stroke-width="2" stroke-linecap="round"/><text x="150.0" y="170.0" text-anchor="middle" font-weight="bold" font-size="14" fill="#3b82f6">Mediana</text><text x="150.0" y="185.0" text-anchor="middle" font-size="10" fill="#64748b">Parte el Lado</text>
<path d="M 430.0 50.0 L 390.0 150.0 L 510.0 150.0 Z" fill="#f8fafc" stroke="#22c55e" stroke-width="2" stroke-linejoin="round"/><line x1="430.0" y1="50.0" x2="430.0" y2="150.0" stroke="#f97316" stroke-width="3"/><rect x="430.0" y="140.0" width="10" height="10" fill="none" stroke="#f97316" stroke-width="1.5"/><text x="450.0" y="170.0" text-anchor="middle" font-weight="bold" font-size="14" fill="#f97316">Altura</text><text x="450.0" y="185.0" text-anchor="middle" font-size="10" fill="#64748b">Cae a 90°</text>
<path d="M 150.0 250.0 L 90.0 350.0 L 210.0 350.0 Z" fill="#f8fafc" stroke="#22c55e" stroke-width="2" stroke-linejoin="round"/><line x1="150.0" y1="250.0" x2="150.0" y2="350.0" stroke="#22c55e" stroke-width="3"/><path d="M 144.0 270.0 A 20 20 0 0 1 156.0 270.0" fill="none" stroke="#22c55e" stroke-width="1.5"/><text x="150.0" y="370.0" text-anchor="middle" font-weight="bold" font-size="14" fill="#22c55e">Bisectriz</text><text x="150.0" y="385.0" text-anchor="middle" font-size="10" fill="#64748b">Parte el Ángulo</text>
<path d="M 420.0 250.0 L 390.0 350.0 L 510.0 350.0 Z" fill="#f8fafc" stroke="#22c55e" stroke-width="2" stroke-linejoin="round"/><line x1="450.0" y1="240.0" x2="450.0" y2="360.0" stroke="#22c55e" stroke-width="3"/><rect x="450.0" y="340.0" width="10" height="10" fill="none" stroke="#22c55e" stroke-width="1.5"/><line x1="421.00" y1="353.00" x2="421.00" y2="347.00" stroke="#22c55e" stroke-width="2" stroke-linecap="round"/><line x1="419.00" y1="353.00" x2="419.00" y2="347.00" stroke="#22c55e" stroke-width="2" stroke-linecap="round"/><line x1="481.00" y1="353.00" x2="481.00" y2="347.00" stroke="#22c55e" stroke-width="2" stroke-linecap="round"/><line x1="479.00" y1="353.00" x2="479.00" y2="347.00" stroke="#22c55e" stroke-width="2" stroke-linecap="round"/><text x="450.0" y="370.0" text-anchor="middle" font-weight="bold" font-size="14" fill="#22c55e">Mediatriz</text><text x="450.0" y="385.0" text-anchor="middle" font-size="10" fill="#64748b">90° en medio</text>
<line x1="300.0" y1="20" x2="300.0" y2="380" stroke="#e2e8f0" stroke-width="1" stroke-dasharray="4"/>
<line x1="20" y1="200.0" x2="580" y2="200.0" stroke="#e2e8f0" stroke-width="1" stroke-dasharray="4"/>
</svg>