<svg xmlns="http://www.w3.org/2000/svg" viewBox="0 0 900 400">
<rect width="900" height="400" fill="#f8fafc" rx="12"/>
<text x="450" y="28" font-family="Inter, sans-serif" font-size="16" font-weight="900" fill="#1e293b" text-anchor="middle">Período = Número de Capas de Electrones</text>
<text x="25" y="64.0" font-family="Inter, sans-serif" font-size="14" font-weight="bold" fill="#3b82f6" text-anchor="middle">1</text>
<rect x="45" y="45" width="45" height="28" fill="#3b82f6" rx="4"/>
<text x="67.5" y="64.0" font-family="Inter, sans-serif" font-size="12" font-weight="bold" fill="white" text-anchor="middle">H</text>
<rect x="454" y="45" width="45" height="28" fill="white" stroke="#3b82f6" stroke-width="1" rx="4"/>
<text x="476.5" y="63.0" font-family="Inter, sans-serif" font-size="11" fill="#64748b" text-anchor="middle">He</text>
<text x="25" y="98.0" font-family="Inter, sans-serif" font-size="14" font-weight="bold" fill="#22c55e" text-anchor="middle">2</text>
<rect x="45" y="79" width="45" height="28" fill="#22c55e" rx="4"/>
<text x="67.5" y="98.0" font-family="Inter, sans-serif" font-size="12" font-weight="bold" fill="white" text-anchor="middle">Li</text>
<rect x="92" y="79" width="45" height="28" fill="white" stroke="#22c55e" stroke-width="1" rx="4"/>
<text x="114.5" y="97.0" font-family="Inter, sans-serif" font-size="11" fill="#64748b" text-anchor="middle">Be</text>
<rect x="219" y="79" width="45" height="28" fill="white" stroke="#22c55e" stroke-width="1" rx="4"/>
<text x="241.5" y="97.0" font-family="Inter, sans-serif" font-size="11" fill="#64748b" text-anchor="middle">B</text>
<rect x="266" y="79" width="45" height="28" fill="white" stroke="#22c55e" stroke-width="1" rx="4"/>
<text x="288.5" y="97.0" font-family="Inter, sans-serif" font-size="11" fill="#64748b" text-anchor="middle">C</text>
<rect x="313" y="79" width="45" height="28" fill="white" stroke="#22c55e" stroke-width="1" rx="4"/>
<text x="335.5" y="97.0" font-family="Inter, sans-serif" font-size="11" fill="#64748b" text-anchor="middle">N</text>
<rect x="360" y="79" width="45" height="28" fill="white" stroke="#22c55e" stroke-width="1" rx="4"/>
<text x="382.5" y="97.0" font-family="Inter, sans-serif" font-size="11" fill="#64748b" text-anchor="middle">O</text>
<rect x="407" y="79" width="45" height="28" fill="white" stroke="#22c55e" stroke-width="1" rx="4"/>
<text x="429.5" y="97.0" font-family="Inter, sans-serif" font-size="11" fill="#64748b" text-anchor="middle">F</text>
<rect x="454" y="79" width="45" height="28" fill="white" stroke="#22c55e" stroke-width="1" rx="4"/>
<text x="476.5" y="97.0" font-family="Inter, sans-serif" font-size="11" fill="#64748b" text-anchor="middle">Ne</text>
<text x="25" y="132.0" font-family="Inter, sans-serif" font-size="14" font-weight="bold" fill="#f97316" text-anchor="middle">3</text>
<rect x="45" y="113" width="45" height="28" fill="#f97316" rx="4"/>
<text x="67.5" y="132.0" font-family="Inter, sans-serif" font-size="12" font-weight="bold" fill="white" text-anchor="middle">Na</text>
<rect x="92" y="113" width="45" height="28" fill="white" stroke="#f97316" stroke-width="1" rx="4"/>
<text x="114.5" y="131.0" font-family="Inter, sans-serif" font-size="11" fill="#64748b" text-anchor="middle">Mg</text>
<rect x="219" y="113" width="45" height="28" fill="white" stroke="#f97316" stroke-width="1" rx="4"/>
<text x="241.5" y="131.0" font-family="Inter, sans-serif" font-size="11" fill="#64748b" text-anchor="middle">Al</text>
<rect x="266" y="113" width="45" height="28" fill="white" stroke="#f97316" stroke-width="1" rx="4"/>
<text x="288.5" y="131.0" font-family="Inter, sans-serif" font-size="11" fill="#64748b" text-anchor="middle">Si</text>
<rect x="313" y="113" width="45" height="28" fill="white" stroke="#f97316" stroke-width="1" rx="4"/>
<text x="335.5" y="131.0" font-family="Inter, sans-serif" font-size="11" fill="#64748b" text-anchor="middle">P</text>
<rect x="360" y="113" width="45" height="28" fill="white" stroke="#f97316" stroke-width="1" rx="4"/>
<text x="382.5" y="131.0" font-family="Inter, sans-serif" font-size="11" fill="#64748b" text-anchor="middle">S</text>
<rect x="407" y="113" width="45" height="28" fill="white" stroke="#f97316" stroke-width="1" rx="4"/>
<text x="429.5" y="131.0" font-family="Inter, sans-serif" font-size="11" fill="#64748b" text-anchor="middle">Cl</text>
<rect x="454" y="113" width="45" height="28" fill="white" stroke="#f97316" stroke-width="1" rx="4"/>
<text x="476.5" y="131.0" font-family="Inter, sans-serif" font-size="11" fill="#64748b" text-anchor="middle">Ar</text>
<text x="25" y="166.0" font-family="Inter, sans-serif" font-size="14" font-weight="bold" fill="#8b5cf6" text-anchor="middle">4</text>
<rect x="45" y="147" width="45" height="28" fill="#8b5cf6" rx="4"/>
<text x="67.5" y="166.0" font-family="Inter, sans-serif" font-size="12" font-weight="bold" fill="white" text-anchor="middle">K</text>
<rect x="92" y="147" width="45" height="28" fill="white" stroke="#8b5cf6" stroke-width="1" rx="4"/>
<text x="114.5" y="165.0" font-family="Inter, sans-serif" font-size="11" fill="#64748b" text-anchor="middle">Ca</text>
<rect x="219" y="147" width="45" height="28" fill="white" stroke="#8b5cf6" stroke-width="1" rx="4"/>
<text x="241.5" y="165.0" font-family="Inter, sans-serif" font-size="11" fill="#64748b" text-anchor="middle">Ga</text>
<rect x="266" y="147" width="45" height="28" fill="white" stroke="#8b5cf6" stroke-width="1" rx="4"/>
<text x="288.5" y="165.0" font-family="Inter, sans-serif" font-size="11" fill="#64748b" text-anchor="middle">Ge</text>
<rect x="313" y="147" width="45" height="28" fill="white" stroke="#8b5cf6" stroke-width="1" rx="4"/>
<text x="335.5" y="165.0" font-family="Inter, sans-serif" font-size="11" fill="#64748b" text-anchor="middle">As</text>
<rect x="360" y="147" width="45" height="28" fill="white" stroke="#8b5cf6" stroke-width="1" rx="4"/>
<text x="382.5" y="165.0" font-family="Inter, sans-serif" font-size="11" fill="#64748b" text-anchor="middle">Se</text>
<rect x="407" y="147" width="45" height="28" fill="white" stroke="#8b5cf6" stroke-width="1" rx="4"/>
<text x="429.5" y="165.0" font-family="Inter, sans-serif" font-size="11" fill="#64748b" text-anchor="middle">Br</text>
<rect x="454" y="147" width="45" height="28" fill="white" stroke="#8b5cf6" stroke-width="1" rx="4"/>
<text x="476.5" y="165.0" font-family="Inter, sans-serif" font-size="11" fill="#64748b" text-anchor="middle">Kr</text>
<circle cx="112" cy="250" r="14" fill="#3b82f6"/>
<text x="112" y="255" font-family="Inter, sans-serif" font-size="12" font-weight="bold" fill="white" text-anchor="middle">H</text>
<circle cx="112" cy="250" r="26" fill="none" stroke="#3b82f6" stroke-width="1.5" opacity="0.5"/>
<circle cx="112.0" cy="224.0" r="3.5" fill="#3b82f6"/>
<text x="112" y="320" font-family="Inter, sans-serif" font-size="11" font-weight="bold" fill="#3b82f6" text-anchor="middle">1 capa</text>
<text x="112" y="335" font-family="Inter, sans-serif" font-size="9" fill="#64748b" text-anchor="middle">1e</text>
<circle cx="337" cy="250" r="14" fill="#22c55e"/>
<text x="337" y="255" font-family="Inter, sans-serif" font-size="12" font-weight="bold" fill="white" text-anchor="middle">Li</text>
<circle cx="337" cy="250" r="26" fill="none" stroke="#22c55e" stroke-width="1.5" opacity="0.5"/>
<circle cx="337.0" cy="224.0" r="3.5" fill="#3b82f6"/>
<circle cx="337.0" cy="276.0" r="3.5" fill="#3b82f6"/>
<circle cx="337" cy="250" r="40" fill="none" stroke="#22c55e" stroke-width="1.5" opacity="0.5"/>
<circle cx="337.0" cy="210.0" r="3.5" fill="#3b82f6"/>
<text x="337" y="320" font-family="Inter, sans-serif" font-size="11" font-weight="bold" fill="#22c55e" text-anchor="middle">2 capas</text>
<text x="337" y="335" font-family="Inter, sans-serif" font-size="9" fill="#64748b" text-anchor="middle">2e · 1e</text>
<circle cx="562" cy="250" r="14" fill="#f97316"/>
<text x="562" y="255" font-family="Inter, sans-serif" font-size="12" font-weight="bold" fill="white" text-anchor="middle">Na</text>
<circle cx="562" cy="250" r="26" fill="none" stroke="#f97316" stroke-width="1.5" opacity="0.5"/>
<circle cx="562.0" cy="224.0" r="3.5" fill="#3b82f6"/>
<circle cx="562.0" cy="276.0" r="3.5" fill="#3b82f6"/>
<circle cx="562" cy="250" r="40" fill="none" stroke="#f97316" stroke-width="1.5" opacity="0.5"/>
<circle cx="562.0" cy="210.0" r="3.5" fill="#3b82f6"/>
<circle cx="590.3" cy="221.7" r="3.5" fill="#3b82f6"/>
<circle cx="602.0" cy="250.0" r="3.5" fill="#3b82f6"/>
<circle cx="590.3" cy="278.3" r="3.5" fill="#3b82f6"/>
<circle cx="562.0" cy="290.0" r="3.5" fill="#3b82f6"/>
<circle cx="533.7" cy="278.3" r="3.5" fill="#3b82f6"/>
<circle cx="522.0" cy="250.0" r="3.5" fill="#3b82f6"/>
<circle cx="533.7" cy="221.7" r="3.5" fill="#3b82f6"/>
<circle cx="562" cy="250" r="54" fill="none" stroke="#f97316" stroke-width="1.5" opacity="0.5"/>
<circle cx="562.0" cy="196.0" r="3.5" fill="#3b82f6"/>
<text x="562" y="320" font-family="Inter, sans-serif" font-size="11" font-weight="bold" fill="#f97316" text-anchor="middle">3 capas</text>
<text x="562" y="335" font-family="Inter, sans-serif" font-size="9" fill="#64748b" text-anchor="middle">2e · 8e · 1e</text>
<circle cx="787" cy="250" r="14" fill="#8b5cf6"/>
<text x="787" y="255" font-family="Inter, sans-serif" font-size="12" font-weight="bold" fill="white" text-anchor="middle">K</text>
<circle cx="787" cy="250" r="26" fill="none" stroke="#8b5cf6" stroke-width="1.5" opacity="0.5"/>
<circle cx="787.0" cy="224.0" r="3.5" fill="#3b82f6"/>
<circle cx="787.0" cy="276.0" r="3.5" fill="#3b82f6"/>
<circle cx="787" cy="250" r="40" fill="none" stroke="#8b5cf6" stroke-width="1.5" opacity="0.5"/>
<circle cx="787.0" cy="210.0" r="3.5" fill="#3b82f6"/>
<circle cx="815.3" cy="221.7" r="3.5" fill="#3b82f6"/>
<circle cx="827.0" cy="250.0" r="3.5" fill="#3b82f6"/>
<circle cx="815.3" cy="278.3" r="3.5" fill="#3b82f6"/>
<circle cx="787.0" cy="290.0" r="3.5" fill="#3b82f6"/>
<circle cx="758.7" cy="278.3" r="3.5" fill="#3b82f6"/>
<circle cx="747.0" cy="250.0" r="3.5" fill="#3b82f6"/>
<circle cx="758.7" cy="221.7" r="3.5" fill="#3b82f6"/>
<circle cx="787" cy="250" r="54" fill="none" stroke="#8b5cf6" stroke-width="1.5" opacity="0.5"/>
<circle cx="787.0" cy="196.0" r="3.5" fill="#3b82f6"/>
<circle cx="825.2" cy="211.8" r="3.5" fill="#3b82f6"/>
<circle cx="841.0" cy="250.0" r="3.5" fill="#3b82f6"/>
<circle cx="825.2" cy="288.2" r="3.5" fill="#3b82f6"/>
<circle cx="787.0" cy="304.0" r="3.5" fill="#3b82f6"/>
<circle cx="748.8" cy="288.2" r="3.5" fill="#3b82f6"/>
<circle cx="733.0" cy="250.0" r="3.5" fill="#3b82f6"/>
<circle cx="748.8" cy="211.8" r="3.5" fill="#3b82f6"/>
<circle cx="787" cy="250" r="68" fill="none" stroke="#8b5cf6" stroke-width="1.5" opacity="0.5"/>
<circle cx="787.0" cy="182.0" r="3.5" fill="#3b82f6"/>
<text x="787" y="320" font-family="Inter, sans-serif" font-size="11" font-weight="bold" fill="#8b5cf6" text-anchor="middle">4 capas</text>
<text x="787" y="335" font-family="Inter, sans-serif" font-size="9" fill="#64748b" text-anchor="middle">2e · 8e · 8e · 1e</text>
<text x="450" y="385" font-family="Inter, sans-serif" font-size="10" fill="#94a3b8" text-anchor="middle">El número de período indica cuántas capas de electrones tiene el átomo</text>
</svg>