<svg xmlns="http://www.w3.org/2000/svg" viewBox="0 0 600 400">
  <defs>
        <marker id="arrow-64748b-10" markerWidth="10" markerHeight="10" 
                refX="9.0" refY="5.0" orient="auto"
                markerUnits="userSpaceOnUse">
            <polygon points="0,0 10,5.0 0,10" fill="#64748b"/>
        </marker>

        <marker id="arrow-64748b-10" markerWidth="10" markerHeight="10" 
                refX="9.0" refY="5.0" orient="auto"
                markerUnits="userSpaceOnUse">
            <polygon points="0,0 10,5.0 0,10" fill="#64748b"/>
        </marker></defs>
  <rect x="0.00" y="0.00" width="600.00" height="400.00" fill="white" stroke="none" stroke-width="0" rx="0"  />
  <text x="300.00" y="30.00" font-family="Inter, sans-serif" font-size="16" font-weight="bold" fill="#1e293b" text-anchor="middle" dominant-baseline="middle">Ejemplo 2: -x² + 2x + 3</text>
  <line x1="60.00" y1="340.00" x2="60.00" y2="60.00" stroke="#e2e8f0" stroke-width="0.5"  />
  <line x1="120.00" y1="340.00" x2="120.00" y2="60.00" stroke="#e2e8f0" stroke-width="0.5"  />
  <line x1="180.00" y1="340.00" x2="180.00" y2="60.00" stroke="#e2e8f0" stroke-width="0.5"  />
  <line x1="300.00" y1="340.00" x2="300.00" y2="60.00" stroke="#e2e8f0" stroke-width="0.5"  />
  <line x1="360.00" y1="340.00" x2="360.00" y2="60.00" stroke="#e2e8f0" stroke-width="0.5"  />
  <line x1="420.00" y1="340.00" x2="420.00" y2="60.00" stroke="#e2e8f0" stroke-width="0.5"  />
  <line x1="480.00" y1="340.00" x2="480.00" y2="60.00" stroke="#e2e8f0" stroke-width="0.5"  />
  <line x1="540.00" y1="340.00" x2="540.00" y2="60.00" stroke="#e2e8f0" stroke-width="0.5"  />
  <line x1="60.00" y1="340.00" x2="540.00" y2="340.00" stroke="#e2e8f0" stroke-width="0.5"  />
  <line x1="60.00" y1="314.55" x2="540.00" y2="314.55" stroke="#e2e8f0" stroke-width="0.5"  />
  <line x1="60.00" y1="289.09" x2="540.00" y2="289.09" stroke="#e2e8f0" stroke-width="0.5"  />
  <line x1="60.00" y1="263.64" x2="540.00" y2="263.64" stroke="#e2e8f0" stroke-width="0.5"  />
  <line x1="60.00" y1="238.18" x2="540.00" y2="238.18" stroke="#e2e8f0" stroke-width="0.5"  />
  <line x1="60.00" y1="187.27" x2="540.00" y2="187.27" stroke="#e2e8f0" stroke-width="0.5"  />
  <line x1="60.00" y1="161.82" x2="540.00" y2="161.82" stroke="#e2e8f0" stroke-width="0.5"  />
  <line x1="60.00" y1="136.36" x2="540.00" y2="136.36" stroke="#e2e8f0" stroke-width="0.5"  />
  <line x1="60.00" y1="110.91" x2="540.00" y2="110.91" stroke="#e2e8f0" stroke-width="0.5"  />
  <line x1="60.00" y1="85.45" x2="540.00" y2="85.45" stroke="#e2e8f0" stroke-width="0.5"  />
  <line x1="60.00" y1="60.00" x2="540.00" y2="60.00" stroke="#e2e8f0" stroke-width="0.5"  />
  <line x1="60.00" y1="212.73" x2="540.00" y2="212.73" stroke="#64748b" stroke-width="2"  marker-end="url(#arrow-64748b-10)"/>
  <line x1="240.00" y1="340.00" x2="240.00" y2="60.00" stroke="#64748b" stroke-width="2"  marker-end="url(#arrow-64748b-10)"/>
  <text x="535.00" y="232.73" font-family="Inter, sans-serif" font-size="14" font-weight="bold" fill="#64748b" text-anchor="middle" dominant-baseline="middle">x</text>
  <text x="220.00" y="70.00" font-family="Inter, sans-serif" font-size="14" font-weight="bold" fill="#64748b" text-anchor="middle" dominant-baseline="middle">y</text>
  <line x1="60.00" y1="207.73" x2="60.00" y2="217.73" stroke="#64748b" stroke-width="1"  />
  <text x="60.00" y="230.73" font-family="Inter, sans-serif" font-size="11" font-weight="normal" fill="#64748b" text-anchor="middle" dominant-baseline="middle">-3</text>
  <line x1="120.00" y1="207.73" x2="120.00" y2="217.73" stroke="#64748b" stroke-width="1"  />
  <text x="120.00" y="230.73" font-family="Inter, sans-serif" font-size="11" font-weight="normal" fill="#64748b" text-anchor="middle" dominant-baseline="middle">-2</text>
  <line x1="180.00" y1="207.73" x2="180.00" y2="217.73" stroke="#64748b" stroke-width="1"  />
  <text x="180.00" y="230.73" font-family="Inter, sans-serif" font-size="11" font-weight="normal" fill="#64748b" text-anchor="middle" dominant-baseline="middle">-1</text>
  <line x1="300.00" y1="207.73" x2="300.00" y2="217.73" stroke="#64748b" stroke-width="1"  />
  <text x="300.00" y="230.73" font-family="Inter, sans-serif" font-size="11" font-weight="normal" fill="#64748b" text-anchor="middle" dominant-baseline="middle">1</text>
  <line x1="360.00" y1="207.73" x2="360.00" y2="217.73" stroke="#64748b" stroke-width="1"  />
  <text x="360.00" y="230.73" font-family="Inter, sans-serif" font-size="11" font-weight="normal" fill="#64748b" text-anchor="middle" dominant-baseline="middle">2</text>
  <line x1="420.00" y1="207.73" x2="420.00" y2="217.73" stroke="#64748b" stroke-width="1"  />
  <text x="420.00" y="230.73" font-family="Inter, sans-serif" font-size="11" font-weight="normal" fill="#64748b" text-anchor="middle" dominant-baseline="middle">3</text>
  <line x1="480.00" y1="207.73" x2="480.00" y2="217.73" stroke="#64748b" stroke-width="1"  />
  <text x="480.00" y="230.73" font-family="Inter, sans-serif" font-size="11" font-weight="normal" fill="#64748b" text-anchor="middle" dominant-baseline="middle">4</text>
  <line x1="540.00" y1="207.73" x2="540.00" y2="217.73" stroke="#64748b" stroke-width="1"  />
  <text x="540.00" y="230.73" font-family="Inter, sans-serif" font-size="11" font-weight="normal" fill="#64748b" text-anchor="middle" dominant-baseline="middle">5</text>
  <line x1="235.00" y1="340.00" x2="245.00" y2="340.00" stroke="#64748b" stroke-width="1"  />
  <text x="225.00" y="340.00" font-family="Inter, sans-serif" font-size="11" font-weight="normal" fill="#64748b" text-anchor="end" dominant-baseline="middle">-5</text>
  <line x1="235.00" y1="314.55" x2="245.00" y2="314.55" stroke="#64748b" stroke-width="1"  />
  <text x="225.00" y="314.55" font-family="Inter, sans-serif" font-size="11" font-weight="normal" fill="#64748b" text-anchor="end" dominant-baseline="middle">-4</text>
  <line x1="235.00" y1="289.09" x2="245.00" y2="289.09" stroke="#64748b" stroke-width="1"  />
  <text x="225.00" y="289.09" font-family="Inter, sans-serif" font-size="11" font-weight="normal" fill="#64748b" text-anchor="end" dominant-baseline="middle">-3</text>
  <line x1="235.00" y1="263.64" x2="245.00" y2="263.64" stroke="#64748b" stroke-width="1"  />
  <text x="225.00" y="263.64" font-family="Inter, sans-serif" font-size="11" font-weight="normal" fill="#64748b" text-anchor="end" dominant-baseline="middle">-2</text>
  <line x1="235.00" y1="238.18" x2="245.00" y2="238.18" stroke="#64748b" stroke-width="1"  />
  <text x="225.00" y="238.18" font-family="Inter, sans-serif" font-size="11" font-weight="normal" fill="#64748b" text-anchor="end" dominant-baseline="middle">-1</text>
  <line x1="235.00" y1="187.27" x2="245.00" y2="187.27" stroke="#64748b" stroke-width="1"  />
  <text x="225.00" y="187.27" font-family="Inter, sans-serif" font-size="11" font-weight="normal" fill="#64748b" text-anchor="end" dominant-baseline="middle">1</text>
  <line x1="235.00" y1="161.82" x2="245.00" y2="161.82" stroke="#64748b" stroke-width="1"  />
  <text x="225.00" y="161.82" font-family="Inter, sans-serif" font-size="11" font-weight="normal" fill="#64748b" text-anchor="end" dominant-baseline="middle">2</text>
  <line x1="235.00" y1="136.36" x2="245.00" y2="136.36" stroke="#64748b" stroke-width="1"  />
  <text x="225.00" y="136.36" font-family="Inter, sans-serif" font-size="11" font-weight="normal" fill="#64748b" text-anchor="end" dominant-baseline="middle">3</text>
  <line x1="235.00" y1="110.91" x2="245.00" y2="110.91" stroke="#64748b" stroke-width="1"  />
  <text x="225.00" y="110.91" font-family="Inter, sans-serif" font-size="11" font-weight="normal" fill="#64748b" text-anchor="end" dominant-baseline="middle">4</text>
  <line x1="235.00" y1="85.45" x2="245.00" y2="85.45" stroke="#64748b" stroke-width="1"  />
  <text x="225.00" y="85.45" font-family="Inter, sans-serif" font-size="11" font-weight="normal" fill="#64748b" text-anchor="end" dominant-baseline="middle">5</text>
  <line x1="235.00" y1="60.00" x2="245.00" y2="60.00" stroke="#64748b" stroke-width="1"  />
  <text x="225.00" y="60.00" font-family="Inter, sans-serif" font-size="11" font-weight="normal" fill="#64748b" text-anchor="end" dominant-baseline="middle">6</text>
  <text x="228.00" y="227.73" font-family="Inter, sans-serif" font-size="11" font-weight="normal" fill="#64748b" text-anchor="middle" dominant-baseline="middle">O</text>
  <polyline points="79.39,455.02 84.24,440.06 89.09,425.43 93.94,411.14 98.79,397.18 103.64,383.55 108.48,370.25 113.33,357.28 118.18,344.65 123.03,332.35 127.88,320.38 132.73,308.75 137.58,297.45 142.42,286.48 147.27,275.84 152.12,265.53 156.97,255.56 161.82,245.92 166.67,236.61 171.52,227.63 176.36,218.99 181.21,210.68 186.06,202.70 190.91,195.06 195.76,187.74 200.61,180.76 205.45,174.11 210.30,167.80 215.15,161.81 220.00,156.16 224.85,150.84 229.70,145.86 234.55,141.20 239.39,136.88 244.24,132.89 249.09,129.23 253.94,125.91 258.79,122.92 263.64,120.26 268.48,117.93 273.33,115.94 278.18,114.27 283.03,112.95 287.88,111.95 292.73,111.28 297.58,110.95 302.42,110.95 307.27,111.28 312.12,111.95 316.97,112.95 321.82,114.27 326.67,115.94 331.52,117.93 336.36,120.26 341.21,122.92 346.06,125.91 350.91,129.23 355.76,132.89 360.61,136.88 365.45,141.20 370.30,145.86 375.15,150.84 380.00,156.16 384.85,161.81 389.70,167.80 394.55,174.11 399.39,180.76 404.24,187.74 409.09,195.06 413.94,202.70 418.79,210.68 423.64,218.99 428.48,227.63 433.33,236.61 438.18,245.92 443.03,255.56 447.88,265.53 452.73,275.84 457.58,286.48 462.42,297.45 467.27,308.75 472.12,320.38 476.97,332.35 481.82,344.65 486.67,357.28 491.52,370.25 496.36,383.55 501.21,397.18 506.06,411.14 510.91,425.43 515.76,440.06 520.61,455.02" fill="none" stroke="#22c55e" stroke-width="3"  stroke-linecap="round" stroke-linejoin="round"/>
  <circle cx="300.00" cy="110.91" r="9" fill="white" />
  <circle cx="300.00" cy="110.91" r="5" fill="#ef4444" stroke="white" stroke-width="2"/>
  <rect x="243.00" y="72.91" width="114.00" height="26.00" fill="white" stroke="#ef4444" stroke-width="1.5" rx="6"  />
  <text x="300.00" y="89.91" font-family="Inter, sans-serif" font-size="12" font-weight="bold" fill="#ef4444" text-anchor="middle" dominant-baseline="middle">Vértice (1, 4)</text>
  <circle cx="180.00" cy="212.73" r="9" fill="white" />
  <circle cx="180.00" cy="212.73" r="5" fill="#3b82f6" stroke="white" stroke-width="2"/>
  <rect x="147.50" y="174.73" width="65.00" height="26.00" fill="white" stroke="#3b82f6" stroke-width="1.5" rx="6"  />
  <text x="180.00" y="191.73" font-family="Inter, sans-serif" font-size="12" font-weight="bold" fill="#3b82f6" text-anchor="middle" dominant-baseline="middle">(-1, 0)</text>
  <circle cx="420.00" cy="212.73" r="9" fill="white" />
  <circle cx="420.00" cy="212.73" r="5" fill="#3b82f6" stroke="white" stroke-width="2"/>
  <rect x="391.00" y="174.73" width="58.00" height="26.00" fill="white" stroke="#3b82f6" stroke-width="1.5" rx="6"  />
  <text x="420.00" y="191.73" font-family="Inter, sans-serif" font-size="12" font-weight="bold" fill="#3b82f6" text-anchor="middle" dominant-baseline="middle">(3, 0)</text>
  <circle cx="240.00" cy="136.36" r="9" fill="white" />
  <circle cx="240.00" cy="136.36" r="5" fill="#f97316" stroke="white" stroke-width="2"/>
  <rect x="211.00" y="98.36" width="58.00" height="26.00" fill="white" stroke="#f97316" stroke-width="1.5" rx="6"  />
  <text x="240.00" y="115.36" font-family="Inter, sans-serif" font-size="12" font-weight="bold" fill="#f97316" text-anchor="middle" dominant-baseline="middle">(0, 3)</text>
  <rect x="420.00" y="60.00" width="160.00" height="50.00" fill="white" stroke="#e2e8f0" stroke-width="0" rx="8"  />
  <line x1="435.00" y1="80.00" x2="465.00" y2="80.00" stroke="#22c55e" stroke-width="3"  />
  <text x="475.00" y="84.00" font-family="Inter, sans-serif" font-size="11" font-weight="normal" fill="#1e293b" text-anchor="start" dominant-baseline="middle">g(x)</text>
</svg>