<svg xmlns="http://www.w3.org/2000/svg" viewBox="0 0 600 400">
  <defs>
        <marker id="arrow-64748b-10" markerWidth="10" markerHeight="10" 
                refX="9.0" refY="5.0" orient="auto"
                markerUnits="userSpaceOnUse">
            <polygon points="0,0 10,5.0 0,10" fill="#64748b"/>
        </marker>

        <marker id="arrow-64748b-10" markerWidth="10" markerHeight="10" 
                refX="9.0" refY="5.0" orient="auto"
                markerUnits="userSpaceOnUse">
            <polygon points="0,0 10,5.0 0,10" fill="#64748b"/>
        </marker></defs>
  <rect x="0.00" y="0.00" width="600.00" height="400.00" fill="white" stroke="none" stroke-width="0" rx="0"  />
  <text x="300.00" y="30.00" font-family="Inter, sans-serif" font-size="16" font-weight="bold" fill="#1e293b" text-anchor="middle" dominant-baseline="middle">Ejemplo 1: x² - 4x + 3</text>
  <line x1="60.00" y1="340.00" x2="60.00" y2="60.00" stroke="#e2e8f0" stroke-width="0.5"  />
  <line x1="220.00" y1="340.00" x2="220.00" y2="60.00" stroke="#e2e8f0" stroke-width="0.5"  />
  <line x1="300.00" y1="340.00" x2="300.00" y2="60.00" stroke="#e2e8f0" stroke-width="0.5"  />
  <line x1="380.00" y1="340.00" x2="380.00" y2="60.00" stroke="#e2e8f0" stroke-width="0.5"  />
  <line x1="460.00" y1="340.00" x2="460.00" y2="60.00" stroke="#e2e8f0" stroke-width="0.5"  />
  <line x1="540.00" y1="340.00" x2="540.00" y2="60.00" stroke="#e2e8f0" stroke-width="0.5"  />
  <line x1="60.00" y1="340.00" x2="540.00" y2="340.00" stroke="#e2e8f0" stroke-width="0.5"  />
  <line x1="60.00" y1="300.00" x2="540.00" y2="300.00" stroke="#e2e8f0" stroke-width="0.5"  />
  <line x1="60.00" y1="220.00" x2="540.00" y2="220.00" stroke="#e2e8f0" stroke-width="0.5"  />
  <line x1="60.00" y1="180.00" x2="540.00" y2="180.00" stroke="#e2e8f0" stroke-width="0.5"  />
  <line x1="60.00" y1="140.00" x2="540.00" y2="140.00" stroke="#e2e8f0" stroke-width="0.5"  />
  <line x1="60.00" y1="100.00" x2="540.00" y2="100.00" stroke="#e2e8f0" stroke-width="0.5"  />
  <line x1="60.00" y1="60.00" x2="540.00" y2="60.00" stroke="#e2e8f0" stroke-width="0.5"  />
  <line x1="60.00" y1="260.00" x2="540.00" y2="260.00" stroke="#64748b" stroke-width="2"  marker-end="url(#arrow-64748b-10)"/>
  <line x1="140.00" y1="340.00" x2="140.00" y2="60.00" stroke="#64748b" stroke-width="2"  marker-end="url(#arrow-64748b-10)"/>
  <text x="535.00" y="280.00" font-family="Inter, sans-serif" font-size="14" font-weight="bold" fill="#64748b" text-anchor="middle" dominant-baseline="middle">x</text>
  <text x="120.00" y="70.00" font-family="Inter, sans-serif" font-size="14" font-weight="bold" fill="#64748b" text-anchor="middle" dominant-baseline="middle">y</text>
  <line x1="60.00" y1="255.00" x2="60.00" y2="265.00" stroke="#64748b" stroke-width="1"  />
  <text x="60.00" y="278.00" font-family="Inter, sans-serif" font-size="11" font-weight="normal" fill="#64748b" text-anchor="middle" dominant-baseline="middle">-1</text>
  <line x1="220.00" y1="255.00" x2="220.00" y2="265.00" stroke="#64748b" stroke-width="1"  />
  <text x="220.00" y="278.00" font-family="Inter, sans-serif" font-size="11" font-weight="normal" fill="#64748b" text-anchor="middle" dominant-baseline="middle">1</text>
  <line x1="300.00" y1="255.00" x2="300.00" y2="265.00" stroke="#64748b" stroke-width="1"  />
  <text x="300.00" y="278.00" font-family="Inter, sans-serif" font-size="11" font-weight="normal" fill="#64748b" text-anchor="middle" dominant-baseline="middle">2</text>
  <line x1="380.00" y1="255.00" x2="380.00" y2="265.00" stroke="#64748b" stroke-width="1"  />
  <text x="380.00" y="278.00" font-family="Inter, sans-serif" font-size="11" font-weight="normal" fill="#64748b" text-anchor="middle" dominant-baseline="middle">3</text>
  <line x1="460.00" y1="255.00" x2="460.00" y2="265.00" stroke="#64748b" stroke-width="1"  />
  <text x="460.00" y="278.00" font-family="Inter, sans-serif" font-size="11" font-weight="normal" fill="#64748b" text-anchor="middle" dominant-baseline="middle">4</text>
  <line x1="540.00" y1="255.00" x2="540.00" y2="265.00" stroke="#64748b" stroke-width="1"  />
  <text x="540.00" y="278.00" font-family="Inter, sans-serif" font-size="11" font-weight="normal" fill="#64748b" text-anchor="middle" dominant-baseline="middle">5</text>
  <line x1="135.00" y1="340.00" x2="145.00" y2="340.00" stroke="#64748b" stroke-width="1"  />
  <text x="125.00" y="340.00" font-family="Inter, sans-serif" font-size="11" font-weight="normal" fill="#64748b" text-anchor="end" dominant-baseline="middle">-2</text>
  <line x1="135.00" y1="300.00" x2="145.00" y2="300.00" stroke="#64748b" stroke-width="1"  />
  <text x="125.00" y="300.00" font-family="Inter, sans-serif" font-size="11" font-weight="normal" fill="#64748b" text-anchor="end" dominant-baseline="middle">-1</text>
  <line x1="135.00" y1="220.00" x2="145.00" y2="220.00" stroke="#64748b" stroke-width="1"  />
  <text x="125.00" y="220.00" font-family="Inter, sans-serif" font-size="11" font-weight="normal" fill="#64748b" text-anchor="end" dominant-baseline="middle">1</text>
  <line x1="135.00" y1="180.00" x2="145.00" y2="180.00" stroke="#64748b" stroke-width="1"  />
  <text x="125.00" y="180.00" font-family="Inter, sans-serif" font-size="11" font-weight="normal" fill="#64748b" text-anchor="end" dominant-baseline="middle">2</text>
  <line x1="135.00" y1="140.00" x2="145.00" y2="140.00" stroke="#64748b" stroke-width="1"  />
  <text x="125.00" y="140.00" font-family="Inter, sans-serif" font-size="11" font-weight="normal" fill="#64748b" text-anchor="end" dominant-baseline="middle">3</text>
  <line x1="135.00" y1="100.00" x2="145.00" y2="100.00" stroke="#64748b" stroke-width="1"  />
  <text x="125.00" y="100.00" font-family="Inter, sans-serif" font-size="11" font-weight="normal" fill="#64748b" text-anchor="end" dominant-baseline="middle">4</text>
  <line x1="135.00" y1="60.00" x2="145.00" y2="60.00" stroke="#64748b" stroke-width="1"  />
  <text x="125.00" y="60.00" font-family="Inter, sans-serif" font-size="11" font-weight="normal" fill="#64748b" text-anchor="end" dominant-baseline="middle">5</text>
  <text x="128.00" y="275.00" font-family="Inter, sans-serif" font-size="11" font-weight="normal" fill="#64748b" text-anchor="middle" dominant-baseline="middle">O</text>
  <polyline points="60.00,-60.00 64.85,-45.60 69.70,-31.50 74.55,-17.69 79.39,-4.17 84.24,9.05 89.09,21.98 93.94,34.62 98.79,46.96 103.64,59.01 108.48,70.76 113.33,82.22 118.18,93.39 123.03,104.26 127.88,114.84 132.73,125.12 137.58,135.11 142.42,144.81 147.27,154.21 152.12,163.32 156.97,172.14 161.82,180.66 166.67,188.89 171.52,196.82 176.36,204.46 181.21,211.81 186.06,218.86 190.91,225.62 195.76,232.08 200.61,238.26 205.45,244.13 210.30,249.72 215.15,255.00 220.00,260.00 224.85,264.70 229.70,269.11 234.55,273.22 239.39,277.04 244.24,280.57 249.09,283.80 253.94,286.74 258.79,289.38 263.64,291.74 268.48,293.79 273.33,295.56 278.18,297.02 283.03,298.20 287.88,299.08 292.73,299.67 297.58,299.96 302.42,299.96 307.27,299.67 312.12,299.08 316.97,298.20 321.82,297.02 326.67,295.56 331.52,293.79 336.36,291.74 341.21,289.38 346.06,286.74 350.91,283.80 355.76,280.57 360.61,277.04 365.45,273.22 370.30,269.11 375.15,264.70 380.00,260.00 384.85,255.00 389.70,249.72 394.55,244.13 399.39,238.26 404.24,232.08 409.09,225.62 413.94,218.86 418.79,211.81 423.64,204.46 428.48,196.82 433.33,188.89 438.18,180.66 443.03,172.14 447.88,163.32 452.73,154.21 457.58,144.81 462.42,135.11 467.27,125.12 472.12,114.84 476.97,104.26 481.82,93.39 486.67,82.22 491.52,70.76 496.36,59.01 501.21,46.96 506.06,34.62 510.91,21.98 515.76,9.05 520.61,-4.17 525.45,-17.69 530.30,-31.50 535.15,-45.60 540.00,-60.00" fill="none" stroke="#3b82f6" stroke-width="3"  stroke-linecap="round" stroke-linejoin="round"/>
  <circle cx="300.00" cy="300.00" r="9" fill="white" />
  <circle cx="300.00" cy="300.00" r="5" fill="#ef4444" stroke="white" stroke-width="2"/>
  <rect x="239.50" y="262.00" width="121.00" height="26.00" fill="white" stroke="#ef4444" stroke-width="1.5" rx="6"  />
  <text x="300.00" y="279.00" font-family="Inter, sans-serif" font-size="12" font-weight="bold" fill="#ef4444" text-anchor="middle" dominant-baseline="middle">Vértice (2, -1)</text>
  <circle cx="220.00" cy="260.00" r="9" fill="white" />
  <circle cx="220.00" cy="260.00" r="5" fill="#22c55e" stroke="white" stroke-width="2"/>
  <rect x="191.00" y="222.00" width="58.00" height="26.00" fill="white" stroke="#22c55e" stroke-width="1.5" rx="6"  />
  <text x="220.00" y="239.00" font-family="Inter, sans-serif" font-size="12" font-weight="bold" fill="#22c55e" text-anchor="middle" dominant-baseline="middle">(1, 0)</text>
  <circle cx="380.00" cy="260.00" r="9" fill="white" />
  <circle cx="380.00" cy="260.00" r="5" fill="#22c55e" stroke="white" stroke-width="2"/>
  <rect x="351.00" y="222.00" width="58.00" height="26.00" fill="white" stroke="#22c55e" stroke-width="1.5" rx="6"  />
  <text x="380.00" y="239.00" font-family="Inter, sans-serif" font-size="12" font-weight="bold" fill="#22c55e" text-anchor="middle" dominant-baseline="middle">(3, 0)</text>
  <circle cx="140.00" cy="140.00" r="9" fill="white" />
  <circle cx="140.00" cy="140.00" r="5" fill="#f97316" stroke="white" stroke-width="2"/>
  <rect x="111.00" y="102.00" width="58.00" height="26.00" fill="white" stroke="#f97316" stroke-width="1.5" rx="6"  />
  <text x="140.00" y="119.00" font-family="Inter, sans-serif" font-size="12" font-weight="bold" fill="#f97316" text-anchor="middle" dominant-baseline="middle">(0, 3)</text>
  <rect x="420.00" y="60.00" width="160.00" height="50.00" fill="white" stroke="#e2e8f0" stroke-width="0" rx="8"  />
  <line x1="435.00" y1="80.00" x2="465.00" y2="80.00" stroke="#3b82f6" stroke-width="3"  />
  <text x="475.00" y="84.00" font-family="Inter, sans-serif" font-size="11" font-weight="normal" fill="#1e293b" text-anchor="start" dominant-baseline="middle">f(x)</text>
</svg>