<svg xmlns="http://www.w3.org/2000/svg" viewBox="0 0 600 400">
  <defs>
        <marker id="arrow-64748b-10" markerWidth="10" markerHeight="10" 
                refX="9.0" refY="5.0" orient="auto"
                markerUnits="userSpaceOnUse">
            <polygon points="0,0 10,5.0 0,10" fill="#64748b"/>
        </marker>

        <marker id="arrow-64748b-10" markerWidth="10" markerHeight="10" 
                refX="9.0" refY="5.0" orient="auto"
                markerUnits="userSpaceOnUse">
            <polygon points="0,0 10,5.0 0,10" fill="#64748b"/>
        </marker></defs>
  <rect x="0.00" y="0.00" width="600.00" height="400.00" fill="white" stroke="none" stroke-width="0" rx="0"  />
  <text x="300.00" y="30.00" font-family="Inter, sans-serif" font-size="16" font-weight="bold" fill="#1e293b" text-anchor="middle" dominant-baseline="middle">El Mapa del Tesoro</text>
  <line x1="60.00" y1="340.00" x2="60.00" y2="60.00" stroke="#e2e8f0" stroke-width="0.5"  />
  <line x1="120.00" y1="340.00" x2="120.00" y2="60.00" stroke="#e2e8f0" stroke-width="0.5"  />
  <line x1="240.00" y1="340.00" x2="240.00" y2="60.00" stroke="#e2e8f0" stroke-width="0.5"  />
  <line x1="300.00" y1="340.00" x2="300.00" y2="60.00" stroke="#e2e8f0" stroke-width="0.5"  />
  <line x1="360.00" y1="340.00" x2="360.00" y2="60.00" stroke="#e2e8f0" stroke-width="0.5"  />
  <line x1="420.00" y1="340.00" x2="420.00" y2="60.00" stroke="#e2e8f0" stroke-width="0.5"  />
  <line x1="480.00" y1="340.00" x2="480.00" y2="60.00" stroke="#e2e8f0" stroke-width="0.5"  />
  <line x1="540.00" y1="340.00" x2="540.00" y2="60.00" stroke="#e2e8f0" stroke-width="0.5"  />
  <line x1="60.00" y1="340.00" x2="540.00" y2="340.00" stroke="#e2e8f0" stroke-width="0.5"  />
  <line x1="60.00" y1="308.89" x2="540.00" y2="308.89" stroke="#e2e8f0" stroke-width="0.5"  />
  <line x1="60.00" y1="277.78" x2="540.00" y2="277.78" stroke="#e2e8f0" stroke-width="0.5"  />
  <line x1="60.00" y1="215.56" x2="540.00" y2="215.56" stroke="#e2e8f0" stroke-width="0.5"  />
  <line x1="60.00" y1="184.44" x2="540.00" y2="184.44" stroke="#e2e8f0" stroke-width="0.5"  />
  <line x1="60.00" y1="153.33" x2="540.00" y2="153.33" stroke="#e2e8f0" stroke-width="0.5"  />
  <line x1="60.00" y1="122.22" x2="540.00" y2="122.22" stroke="#e2e8f0" stroke-width="0.5"  />
  <line x1="60.00" y1="91.11" x2="540.00" y2="91.11" stroke="#e2e8f0" stroke-width="0.5"  />
  <line x1="60.00" y1="60.00" x2="540.00" y2="60.00" stroke="#e2e8f0" stroke-width="0.5"  />
  <line x1="60.00" y1="246.67" x2="540.00" y2="246.67" stroke="#64748b" stroke-width="2"  marker-end="url(#arrow-64748b-10)"/>
  <line x1="180.00" y1="340.00" x2="180.00" y2="60.00" stroke="#64748b" stroke-width="2"  marker-end="url(#arrow-64748b-10)"/>
  <text x="535.00" y="266.67" font-family="Inter, sans-serif" font-size="14" font-weight="bold" fill="#64748b" text-anchor="middle" dominant-baseline="middle">x</text>
  <text x="160.00" y="70.00" font-family="Inter, sans-serif" font-size="14" font-weight="bold" fill="#64748b" text-anchor="middle" dominant-baseline="middle">y</text>
  <line x1="60.00" y1="241.67" x2="60.00" y2="251.67" stroke="#64748b" stroke-width="1"  />
  <text x="60.00" y="264.67" font-family="Inter, sans-serif" font-size="11" font-weight="normal" fill="#64748b" text-anchor="middle" dominant-baseline="middle">-2</text>
  <line x1="120.00" y1="241.67" x2="120.00" y2="251.67" stroke="#64748b" stroke-width="1"  />
  <text x="120.00" y="264.67" font-family="Inter, sans-serif" font-size="11" font-weight="normal" fill="#64748b" text-anchor="middle" dominant-baseline="middle">-1</text>
  <line x1="240.00" y1="241.67" x2="240.00" y2="251.67" stroke="#64748b" stroke-width="1"  />
  <text x="240.00" y="264.67" font-family="Inter, sans-serif" font-size="11" font-weight="normal" fill="#64748b" text-anchor="middle" dominant-baseline="middle">1</text>
  <line x1="300.00" y1="241.67" x2="300.00" y2="251.67" stroke="#64748b" stroke-width="1"  />
  <text x="300.00" y="264.67" font-family="Inter, sans-serif" font-size="11" font-weight="normal" fill="#64748b" text-anchor="middle" dominant-baseline="middle">2</text>
  <line x1="360.00" y1="241.67" x2="360.00" y2="251.67" stroke="#64748b" stroke-width="1"  />
  <text x="360.00" y="264.67" font-family="Inter, sans-serif" font-size="11" font-weight="normal" fill="#64748b" text-anchor="middle" dominant-baseline="middle">3</text>
  <line x1="420.00" y1="241.67" x2="420.00" y2="251.67" stroke="#64748b" stroke-width="1"  />
  <text x="420.00" y="264.67" font-family="Inter, sans-serif" font-size="11" font-weight="normal" fill="#64748b" text-anchor="middle" dominant-baseline="middle">4</text>
  <line x1="480.00" y1="241.67" x2="480.00" y2="251.67" stroke="#64748b" stroke-width="1"  />
  <text x="480.00" y="264.67" font-family="Inter, sans-serif" font-size="11" font-weight="normal" fill="#64748b" text-anchor="middle" dominant-baseline="middle">5</text>
  <line x1="540.00" y1="241.67" x2="540.00" y2="251.67" stroke="#64748b" stroke-width="1"  />
  <text x="540.00" y="264.67" font-family="Inter, sans-serif" font-size="11" font-weight="normal" fill="#64748b" text-anchor="middle" dominant-baseline="middle">6</text>
  <line x1="175.00" y1="340.00" x2="185.00" y2="340.00" stroke="#64748b" stroke-width="1"  />
  <text x="165.00" y="340.00" font-family="Inter, sans-serif" font-size="11" font-weight="normal" fill="#64748b" text-anchor="end" dominant-baseline="middle">-3</text>
  <line x1="175.00" y1="308.89" x2="185.00" y2="308.89" stroke="#64748b" stroke-width="1"  />
  <text x="165.00" y="308.89" font-family="Inter, sans-serif" font-size="11" font-weight="normal" fill="#64748b" text-anchor="end" dominant-baseline="middle">-2</text>
  <line x1="175.00" y1="277.78" x2="185.00" y2="277.78" stroke="#64748b" stroke-width="1"  />
  <text x="165.00" y="277.78" font-family="Inter, sans-serif" font-size="11" font-weight="normal" fill="#64748b" text-anchor="end" dominant-baseline="middle">-1</text>
  <line x1="175.00" y1="215.56" x2="185.00" y2="215.56" stroke="#64748b" stroke-width="1"  />
  <text x="165.00" y="215.56" font-family="Inter, sans-serif" font-size="11" font-weight="normal" fill="#64748b" text-anchor="end" dominant-baseline="middle">1</text>
  <line x1="175.00" y1="184.44" x2="185.00" y2="184.44" stroke="#64748b" stroke-width="1"  />
  <text x="165.00" y="184.44" font-family="Inter, sans-serif" font-size="11" font-weight="normal" fill="#64748b" text-anchor="end" dominant-baseline="middle">2</text>
  <line x1="175.00" y1="153.33" x2="185.00" y2="153.33" stroke="#64748b" stroke-width="1"  />
  <text x="165.00" y="153.33" font-family="Inter, sans-serif" font-size="11" font-weight="normal" fill="#64748b" text-anchor="end" dominant-baseline="middle">3</text>
  <line x1="175.00" y1="122.22" x2="185.00" y2="122.22" stroke="#64748b" stroke-width="1"  />
  <text x="165.00" y="122.22" font-family="Inter, sans-serif" font-size="11" font-weight="normal" fill="#64748b" text-anchor="end" dominant-baseline="middle">4</text>
  <line x1="175.00" y1="91.11" x2="185.00" y2="91.11" stroke="#64748b" stroke-width="1"  />
  <text x="165.00" y="91.11" font-family="Inter, sans-serif" font-size="11" font-weight="normal" fill="#64748b" text-anchor="end" dominant-baseline="middle">5</text>
  <line x1="175.00" y1="60.00" x2="185.00" y2="60.00" stroke="#64748b" stroke-width="1"  />
  <text x="165.00" y="60.00" font-family="Inter, sans-serif" font-size="11" font-weight="normal" fill="#64748b" text-anchor="end" dominant-baseline="middle">6</text>
  <text x="168.00" y="261.67" font-family="Inter, sans-serif" font-size="11" font-weight="normal" fill="#64748b" text-anchor="middle" dominant-baseline="middle">O</text>
  <polyline points="84.24,-93.41 89.09,-75.53 93.94,-58.06 98.79,-40.99 103.64,-24.33 108.48,-8.08 113.33,7.76 118.18,23.20 123.03,38.24 127.88,52.86 132.73,67.08 137.58,80.90 142.42,94.31 147.27,107.31 152.12,119.90 156.97,132.09 161.82,143.88 166.67,155.25 171.52,166.22 176.36,176.79 181.21,186.95 186.06,196.70 190.91,206.04 195.76,214.98 200.61,223.51 205.45,231.64 210.30,239.36 215.15,246.67 220.00,253.58 224.85,260.08 229.70,266.18 234.55,271.86 239.39,277.15 244.24,282.02 249.09,286.49 253.94,290.55 258.79,294.21 263.64,297.46 268.48,300.31 273.33,302.74 278.18,304.78 283.03,306.40 287.88,307.62 292.73,308.43 297.58,308.84 302.42,308.84 307.27,308.43 312.12,307.62 316.97,306.40 321.82,304.78 326.67,302.74 331.52,300.31 336.36,297.46 341.21,294.21 346.06,290.55 350.91,286.49 355.76,282.02 360.61,277.15 365.45,271.86 370.30,266.18 375.15,260.08 380.00,253.58 384.85,246.67 389.70,239.36 394.55,231.64 399.39,223.51 404.24,214.98 409.09,206.04 413.94,196.70 418.79,186.95 423.64,176.79 428.48,166.22 433.33,155.25 438.18,143.88 443.03,132.09 447.88,119.90 452.73,107.31 457.58,94.31 462.42,80.90 467.27,67.08 472.12,52.86 476.97,38.24 481.82,23.20 486.67,7.76 491.52,-8.08 496.36,-24.33 501.21,-40.99 506.06,-58.06 510.91,-75.53 515.76,-93.41" fill="none" stroke="#3b82f6" stroke-width="3"  stroke-linecap="round" stroke-linejoin="round"/>
  <circle cx="300.00" cy="308.89" r="9" fill="white" />
  <circle cx="300.00" cy="308.89" r="5" fill="#ef4444" stroke="white" stroke-width="2"/>
  <rect x="267.50" y="270.89" width="65.00" height="26.00" fill="white" stroke="#ef4444" stroke-width="1.5" rx="6"  />
  <text x="300.00" y="287.89" font-family="Inter, sans-serif" font-size="12" font-weight="bold" fill="#ef4444" text-anchor="middle" dominant-baseline="middle">Vértice</text>
  <circle cx="215.15" cy="246.67" r="9" fill="white" />
  <circle cx="215.15" cy="246.67" r="5" fill="#22c55e" stroke="white" stroke-width="2"/>
  <rect x="193.15" y="208.67" width="44.00" height="26.00" fill="white" stroke="#22c55e" stroke-width="1.5" rx="6"  />
  <text x="215.15" y="225.67" font-family="Inter, sans-serif" font-size="12" font-weight="bold" fill="#22c55e" text-anchor="middle" dominant-baseline="middle">Raíz</text>
  <circle cx="384.85" cy="246.67" r="9" fill="white" />
  <circle cx="384.85" cy="246.67" r="5" fill="#22c55e" stroke="white" stroke-width="2"/>
  <rect x="362.85" y="208.67" width="44.00" height="26.00" fill="white" stroke="#22c55e" stroke-width="1.5" rx="6"  />
  <text x="384.85" y="225.67" font-family="Inter, sans-serif" font-size="12" font-weight="bold" fill="#22c55e" text-anchor="middle" dominant-baseline="middle">Raíz</text>
  <circle cx="180.00" cy="184.44" r="9" fill="white" />
  <circle cx="180.00" cy="184.44" r="5" fill="#f97316" stroke="white" stroke-width="2"/>
  <rect x="147.50" y="146.44" width="65.00" height="26.00" fill="white" stroke="#f97316" stroke-width="1.5" rx="6"  />
  <text x="180.00" y="163.44" font-family="Inter, sans-serif" font-size="12" font-weight="bold" fill="#f97316" text-anchor="middle" dominant-baseline="middle">Corte Y</text>
  <line x1="300.00" y1="340.00" x2="300.00" y2="60.00" stroke="#64748b" stroke-width="2" stroke-dasharray="5,5" />
  <rect x="420.00" y="60.00" width="160.00" height="70.00" fill="white" stroke="#e2e8f0" stroke-width="0" rx="8"  />
  <line x1="435.00" y1="80.00" x2="465.00" y2="80.00" stroke="#3b82f6" stroke-width="3"  />
  <text x="475.00" y="84.00" font-family="Inter, sans-serif" font-size="11" font-weight="normal" fill="#1e293b" text-anchor="start" dominant-baseline="middle">Parábola</text>
  <line x1="435.00" y1="100.00" x2="465.00" y2="100.00" stroke="#64748b" stroke-width="3" stroke-dasharray="5,5" />
  <text x="475.00" y="104.00" font-family="Inter, sans-serif" font-size="11" font-weight="normal" fill="#1e293b" text-anchor="start" dominant-baseline="middle">Eje de Simetría</text>
</svg>