<svg xmlns="http://www.w3.org/2000/svg" viewBox="0 0 600 400">
  <defs>
        <marker id="arrow-64748b-10" markerWidth="10" markerHeight="10" 
                refX="9.0" refY="5.0" orient="auto"
                markerUnits="userSpaceOnUse">
            <polygon points="0,0 10,5.0 0,10" fill="#64748b"/>
        </marker>

        <marker id="arrow-64748b-10" markerWidth="10" markerHeight="10" 
                refX="9.0" refY="5.0" orient="auto"
                markerUnits="userSpaceOnUse">
            <polygon points="0,0 10,5.0 0,10" fill="#64748b"/>
        </marker></defs>
  <rect x="0.00" y="0.00" width="600.00" height="400.00" fill="white" stroke="none" stroke-width="0" rx="0"  />
  <text x="300.00" y="30.00" font-family="Inter, sans-serif" font-size="16" font-weight="bold" fill="#1e293b" text-anchor="middle" dominant-baseline="middle">Ejemplo 4: 2(x-1)² - 3</text>
  <line x1="60.00" y1="340.00" x2="60.00" y2="60.00" stroke="#e2e8f0" stroke-width="0.5"  />
  <line x1="140.00" y1="340.00" x2="140.00" y2="60.00" stroke="#e2e8f0" stroke-width="0.5"  />
  <line x1="300.00" y1="340.00" x2="300.00" y2="60.00" stroke="#e2e8f0" stroke-width="0.5"  />
  <line x1="380.00" y1="340.00" x2="380.00" y2="60.00" stroke="#e2e8f0" stroke-width="0.5"  />
  <line x1="460.00" y1="340.00" x2="460.00" y2="60.00" stroke="#e2e8f0" stroke-width="0.5"  />
  <line x1="540.00" y1="340.00" x2="540.00" y2="60.00" stroke="#e2e8f0" stroke-width="0.5"  />
  <line x1="60.00" y1="340.00" x2="540.00" y2="340.00" stroke="#e2e8f0" stroke-width="0.5"  />
  <line x1="60.00" y1="312.00" x2="540.00" y2="312.00" stroke="#e2e8f0" stroke-width="0.5"  />
  <line x1="60.00" y1="284.00" x2="540.00" y2="284.00" stroke="#e2e8f0" stroke-width="0.5"  />
  <line x1="60.00" y1="256.00" x2="540.00" y2="256.00" stroke="#e2e8f0" stroke-width="0.5"  />
  <line x1="60.00" y1="200.00" x2="540.00" y2="200.00" stroke="#e2e8f0" stroke-width="0.5"  />
  <line x1="60.00" y1="172.00" x2="540.00" y2="172.00" stroke="#e2e8f0" stroke-width="0.5"  />
  <line x1="60.00" y1="144.00" x2="540.00" y2="144.00" stroke="#e2e8f0" stroke-width="0.5"  />
  <line x1="60.00" y1="116.00" x2="540.00" y2="116.00" stroke="#e2e8f0" stroke-width="0.5"  />
  <line x1="60.00" y1="88.00" x2="540.00" y2="88.00" stroke="#e2e8f0" stroke-width="0.5"  />
  <line x1="60.00" y1="60.00" x2="540.00" y2="60.00" stroke="#e2e8f0" stroke-width="0.5"  />
  <line x1="60.00" y1="228.00" x2="540.00" y2="228.00" stroke="#64748b" stroke-width="2"  marker-end="url(#arrow-64748b-10)"/>
  <line x1="220.00" y1="340.00" x2="220.00" y2="60.00" stroke="#64748b" stroke-width="2"  marker-end="url(#arrow-64748b-10)"/>
  <text x="535.00" y="248.00" font-family="Inter, sans-serif" font-size="14" font-weight="bold" fill="#64748b" text-anchor="middle" dominant-baseline="middle">x</text>
  <text x="200.00" y="70.00" font-family="Inter, sans-serif" font-size="14" font-weight="bold" fill="#64748b" text-anchor="middle" dominant-baseline="middle">y</text>
  <line x1="60.00" y1="223.00" x2="60.00" y2="233.00" stroke="#64748b" stroke-width="1"  />
  <text x="60.00" y="246.00" font-family="Inter, sans-serif" font-size="11" font-weight="normal" fill="#64748b" text-anchor="middle" dominant-baseline="middle">-2</text>
  <line x1="140.00" y1="223.00" x2="140.00" y2="233.00" stroke="#64748b" stroke-width="1"  />
  <text x="140.00" y="246.00" font-family="Inter, sans-serif" font-size="11" font-weight="normal" fill="#64748b" text-anchor="middle" dominant-baseline="middle">-1</text>
  <line x1="300.00" y1="223.00" x2="300.00" y2="233.00" stroke="#64748b" stroke-width="1"  />
  <text x="300.00" y="246.00" font-family="Inter, sans-serif" font-size="11" font-weight="normal" fill="#64748b" text-anchor="middle" dominant-baseline="middle">1</text>
  <line x1="380.00" y1="223.00" x2="380.00" y2="233.00" stroke="#64748b" stroke-width="1"  />
  <text x="380.00" y="246.00" font-family="Inter, sans-serif" font-size="11" font-weight="normal" fill="#64748b" text-anchor="middle" dominant-baseline="middle">2</text>
  <line x1="460.00" y1="223.00" x2="460.00" y2="233.00" stroke="#64748b" stroke-width="1"  />
  <text x="460.00" y="246.00" font-family="Inter, sans-serif" font-size="11" font-weight="normal" fill="#64748b" text-anchor="middle" dominant-baseline="middle">3</text>
  <line x1="540.00" y1="223.00" x2="540.00" y2="233.00" stroke="#64748b" stroke-width="1"  />
  <text x="540.00" y="246.00" font-family="Inter, sans-serif" font-size="11" font-weight="normal" fill="#64748b" text-anchor="middle" dominant-baseline="middle">4</text>
  <line x1="215.00" y1="340.00" x2="225.00" y2="340.00" stroke="#64748b" stroke-width="1"  />
  <text x="205.00" y="340.00" font-family="Inter, sans-serif" font-size="11" font-weight="normal" fill="#64748b" text-anchor="end" dominant-baseline="middle">-4</text>
  <line x1="215.00" y1="312.00" x2="225.00" y2="312.00" stroke="#64748b" stroke-width="1"  />
  <text x="205.00" y="312.00" font-family="Inter, sans-serif" font-size="11" font-weight="normal" fill="#64748b" text-anchor="end" dominant-baseline="middle">-3</text>
  <line x1="215.00" y1="284.00" x2="225.00" y2="284.00" stroke="#64748b" stroke-width="1"  />
  <text x="205.00" y="284.00" font-family="Inter, sans-serif" font-size="11" font-weight="normal" fill="#64748b" text-anchor="end" dominant-baseline="middle">-2</text>
  <line x1="215.00" y1="256.00" x2="225.00" y2="256.00" stroke="#64748b" stroke-width="1"  />
  <text x="205.00" y="256.00" font-family="Inter, sans-serif" font-size="11" font-weight="normal" fill="#64748b" text-anchor="end" dominant-baseline="middle">-1</text>
  <line x1="215.00" y1="200.00" x2="225.00" y2="200.00" stroke="#64748b" stroke-width="1"  />
  <text x="205.00" y="200.00" font-family="Inter, sans-serif" font-size="11" font-weight="normal" fill="#64748b" text-anchor="end" dominant-baseline="middle">1</text>
  <line x1="215.00" y1="172.00" x2="225.00" y2="172.00" stroke="#64748b" stroke-width="1"  />
  <text x="205.00" y="172.00" font-family="Inter, sans-serif" font-size="11" font-weight="normal" fill="#64748b" text-anchor="end" dominant-baseline="middle">2</text>
  <line x1="215.00" y1="144.00" x2="225.00" y2="144.00" stroke="#64748b" stroke-width="1"  />
  <text x="205.00" y="144.00" font-family="Inter, sans-serif" font-size="11" font-weight="normal" fill="#64748b" text-anchor="end" dominant-baseline="middle">3</text>
  <line x1="215.00" y1="116.00" x2="225.00" y2="116.00" stroke="#64748b" stroke-width="1"  />
  <text x="205.00" y="116.00" font-family="Inter, sans-serif" font-size="11" font-weight="normal" fill="#64748b" text-anchor="end" dominant-baseline="middle">4</text>
  <line x1="215.00" y1="88.00" x2="225.00" y2="88.00" stroke="#64748b" stroke-width="1"  />
  <text x="205.00" y="88.00" font-family="Inter, sans-serif" font-size="11" font-weight="normal" fill="#64748b" text-anchor="end" dominant-baseline="middle">5</text>
  <line x1="215.00" y1="60.00" x2="225.00" y2="60.00" stroke="#64748b" stroke-width="1"  />
  <text x="205.00" y="60.00" font-family="Inter, sans-serif" font-size="11" font-weight="normal" fill="#64748b" text-anchor="end" dominant-baseline="middle">6</text>
  <text x="208.00" y="243.00" font-family="Inter, sans-serif" font-size="11" font-weight="normal" fill="#64748b" text-anchor="middle" dominant-baseline="middle">O</text>
  <polyline points="89.09,-77.22 93.94,-59.53 98.79,-42.26 103.64,-25.39 108.48,-8.93 113.33,7.11 118.18,22.74 123.03,37.97 127.88,52.78 132.73,67.17 137.58,81.16 142.42,94.74 147.27,107.90 152.12,120.65 156.97,133.00 161.82,144.93 166.67,156.44 171.52,167.55 176.36,178.25 181.21,188.53 186.06,198.41 190.91,207.87 195.76,216.92 200.61,225.56 205.45,233.79 210.30,241.60 215.15,249.01 220.00,256.00 224.85,262.58 229.70,268.75 234.55,274.51 239.39,279.86 244.24,284.80 249.09,289.32 253.94,293.44 258.79,297.14 263.64,300.43 268.48,303.31 273.33,305.78 278.18,307.83 283.03,309.48 287.88,310.71 292.73,311.54 297.58,311.95 302.42,311.95 307.27,311.54 312.12,310.71 316.97,309.48 321.82,307.83 326.67,305.78 331.52,303.31 336.36,300.43 341.21,297.14 346.06,293.44 350.91,289.32 355.76,284.80 360.61,279.86 365.45,274.51 370.30,268.75 375.15,262.58 380.00,256.00 384.85,249.01 389.70,241.60 394.55,233.79 399.39,225.56 404.24,216.92 409.09,207.87 413.94,198.41 418.79,188.53 423.64,178.25 428.48,167.55 433.33,156.44 438.18,144.93 443.03,133.00 447.88,120.65 452.73,107.90 457.58,94.74 462.42,81.16 467.27,67.17 472.12,52.78 476.97,37.97 481.82,22.74 486.67,7.11 491.52,-8.93 496.36,-25.39 501.21,-42.26 506.06,-59.53 510.91,-77.22" fill="none" stroke="#ef4444" stroke-width="3"  stroke-linecap="round" stroke-linejoin="round"/>
  <circle cx="300.00" cy="312.00" r="9" fill="white" />
  <circle cx="300.00" cy="312.00" r="5" fill="#f97316" stroke="white" stroke-width="2"/>
  <rect x="239.50" y="274.00" width="121.00" height="26.00" fill="white" stroke="#f97316" stroke-width="1.5" rx="6"  />
  <text x="300.00" y="291.00" font-family="Inter, sans-serif" font-size="12" font-weight="bold" fill="#f97316" text-anchor="middle" dominant-baseline="middle">Vértice (1, -3)</text>
  <circle cx="220.00" cy="256.00" r="9" fill="white" />
  <circle cx="220.00" cy="256.00" r="5" fill="#22c55e" stroke="white" stroke-width="2"/>
  <rect x="187.50" y="218.00" width="65.00" height="26.00" fill="white" stroke="#22c55e" stroke-width="1.5" rx="6"  />
  <text x="220.00" y="235.00" font-family="Inter, sans-serif" font-size="12" font-weight="bold" fill="#22c55e" text-anchor="middle" dominant-baseline="middle">(0, -1)</text>
  <circle cx="380.00" cy="256.00" r="9" fill="white" />
  <circle cx="380.00" cy="256.00" r="5" fill="#22c55e" stroke="white" stroke-width="2"/>
  <rect x="347.50" y="218.00" width="65.00" height="26.00" fill="white" stroke="#22c55e" stroke-width="1.5" rx="6"  />
  <text x="380.00" y="235.00" font-family="Inter, sans-serif" font-size="12" font-weight="bold" fill="#22c55e" text-anchor="middle" dominant-baseline="middle">(2, -1)</text>
  <rect x="420.00" y="60.00" width="160.00" height="50.00" fill="white" stroke="#e2e8f0" stroke-width="0" rx="8"  />
  <line x1="435.00" y1="80.00" x2="465.00" y2="80.00" stroke="#ef4444" stroke-width="3"  />
  <text x="475.00" y="84.00" font-family="Inter, sans-serif" font-size="11" font-weight="normal" fill="#1e293b" text-anchor="start" dominant-baseline="middle">k(x)</text>
</svg>