<svg xmlns="http://www.w3.org/2000/svg" viewBox="0 0 400 300">
  <defs>
        <marker id="arrow-64748b-10" markerWidth="10" markerHeight="10" 
                refX="9.0" refY="5.0" orient="auto"
                markerUnits="userSpaceOnUse">
            <polygon points="0,0 10,5.0 0,10" fill="#64748b"/>
        </marker>

        <marker id="arrow-64748b-10" markerWidth="10" markerHeight="10" 
                refX="9.0" refY="5.0" orient="auto"
                markerUnits="userSpaceOnUse">
            <polygon points="0,0 10,5.0 0,10" fill="#64748b"/>
        </marker></defs>
  <rect x="0.00" y="0.00" width="400.00" height="300.00" fill="white" stroke="none" stroke-width="0" rx="0"  />
  <text x="200.00" y="30.00" font-family="Inter, sans-serif" font-size="16" font-weight="bold" fill="#1e293b" text-anchor="middle" dominant-baseline="middle">a &lt; 0 (Abre hacia abajo)</text>
  <line x1="60.00" y1="240.00" x2="60.00" y2="60.00" stroke="#e2e8f0" stroke-width="0.5"  />
  <line x1="130.00" y1="240.00" x2="130.00" y2="60.00" stroke="#e2e8f0" stroke-width="0.5"  />
  <line x1="270.00" y1="240.00" x2="270.00" y2="60.00" stroke="#e2e8f0" stroke-width="0.5"  />
  <line x1="340.00" y1="240.00" x2="340.00" y2="60.00" stroke="#e2e8f0" stroke-width="0.5"  />
  <line x1="60.00" y1="240.00" x2="340.00" y2="240.00" stroke="#e2e8f0" stroke-width="0.5"  />
  <line x1="60.00" y1="210.00" x2="340.00" y2="210.00" stroke="#e2e8f0" stroke-width="0.5"  />
  <line x1="60.00" y1="180.00" x2="340.00" y2="180.00" stroke="#e2e8f0" stroke-width="0.5"  />
  <line x1="60.00" y1="150.00" x2="340.00" y2="150.00" stroke="#e2e8f0" stroke-width="0.5"  />
  <line x1="60.00" y1="120.00" x2="340.00" y2="120.00" stroke="#e2e8f0" stroke-width="0.5"  />
  <line x1="60.00" y1="60.00" x2="340.00" y2="60.00" stroke="#e2e8f0" stroke-width="0.5"  />
  <line x1="60.00" y1="90.00" x2="340.00" y2="90.00" stroke="#64748b" stroke-width="2"  marker-end="url(#arrow-64748b-10)"/>
  <line x1="200.00" y1="240.00" x2="200.00" y2="60.00" stroke="#64748b" stroke-width="2"  marker-end="url(#arrow-64748b-10)"/>
  <text x="335.00" y="110.00" font-family="Inter, sans-serif" font-size="14" font-weight="bold" fill="#64748b" text-anchor="middle" dominant-baseline="middle">x</text>
  <text x="180.00" y="70.00" font-family="Inter, sans-serif" font-size="14" font-weight="bold" fill="#64748b" text-anchor="middle" dominant-baseline="middle">y</text>
  <line x1="60.00" y1="85.00" x2="60.00" y2="95.00" stroke="#64748b" stroke-width="1"  />
  <text x="60.00" y="108.00" font-family="Inter, sans-serif" font-size="11" font-weight="normal" fill="#64748b" text-anchor="middle" dominant-baseline="middle">-2</text>
  <line x1="130.00" y1="85.00" x2="130.00" y2="95.00" stroke="#64748b" stroke-width="1"  />
  <text x="130.00" y="108.00" font-family="Inter, sans-serif" font-size="11" font-weight="normal" fill="#64748b" text-anchor="middle" dominant-baseline="middle">-1</text>
  <line x1="270.00" y1="85.00" x2="270.00" y2="95.00" stroke="#64748b" stroke-width="1"  />
  <text x="270.00" y="108.00" font-family="Inter, sans-serif" font-size="11" font-weight="normal" fill="#64748b" text-anchor="middle" dominant-baseline="middle">1</text>
  <line x1="340.00" y1="85.00" x2="340.00" y2="95.00" stroke="#64748b" stroke-width="1"  />
  <text x="340.00" y="108.00" font-family="Inter, sans-serif" font-size="11" font-weight="normal" fill="#64748b" text-anchor="middle" dominant-baseline="middle">2</text>
  <line x1="195.00" y1="240.00" x2="205.00" y2="240.00" stroke="#64748b" stroke-width="1"  />
  <text x="185.00" y="240.00" font-family="Inter, sans-serif" font-size="11" font-weight="normal" fill="#64748b" text-anchor="end" dominant-baseline="middle">-5</text>
  <line x1="195.00" y1="210.00" x2="205.00" y2="210.00" stroke="#64748b" stroke-width="1"  />
  <text x="185.00" y="210.00" font-family="Inter, sans-serif" font-size="11" font-weight="normal" fill="#64748b" text-anchor="end" dominant-baseline="middle">-4</text>
  <line x1="195.00" y1="180.00" x2="205.00" y2="180.00" stroke="#64748b" stroke-width="1"  />
  <text x="185.00" y="180.00" font-family="Inter, sans-serif" font-size="11" font-weight="normal" fill="#64748b" text-anchor="end" dominant-baseline="middle">-3</text>
  <line x1="195.00" y1="150.00" x2="205.00" y2="150.00" stroke="#64748b" stroke-width="1"  />
  <text x="185.00" y="150.00" font-family="Inter, sans-serif" font-size="11" font-weight="normal" fill="#64748b" text-anchor="end" dominant-baseline="middle">-2</text>
  <line x1="195.00" y1="120.00" x2="205.00" y2="120.00" stroke="#64748b" stroke-width="1"  />
  <text x="185.00" y="120.00" font-family="Inter, sans-serif" font-size="11" font-weight="normal" fill="#64748b" text-anchor="end" dominant-baseline="middle">-1</text>
  <line x1="195.00" y1="60.00" x2="205.00" y2="60.00" stroke="#64748b" stroke-width="1"  />
  <text x="185.00" y="60.00" font-family="Inter, sans-serif" font-size="11" font-weight="normal" fill="#64748b" text-anchor="end" dominant-baseline="middle">1</text>
  <text x="188.00" y="105.00" font-family="Inter, sans-serif" font-size="11" font-weight="normal" fill="#64748b" text-anchor="middle" dominant-baseline="middle">O</text>
  <polyline points="60.00,210.00 62.83,205.20 65.66,200.50 68.48,195.90 71.31,191.39 74.14,186.98 76.97,182.67 79.80,178.46 82.63,174.35 85.45,170.33 88.28,166.41 91.11,162.59 93.94,158.87 96.77,155.25 99.60,151.72 102.42,148.29 105.25,144.96 108.08,141.73 110.91,138.60 113.74,135.56 116.57,132.62 119.39,129.78 122.22,127.04 125.05,124.39 127.88,121.85 130.71,119.40 133.54,117.05 136.36,114.79 139.19,112.64 142.02,110.58 144.85,108.62 147.68,106.76 150.51,105.00 153.33,103.33 156.16,101.77 158.99,100.30 161.82,98.93 164.65,97.65 167.47,96.48 170.30,95.40 173.13,94.42 175.96,93.54 178.79,92.75 181.62,92.07 184.44,91.48 187.27,90.99 190.10,90.60 192.93,90.31 195.76,90.11 198.59,90.01 201.41,90.01 204.24,90.11 207.07,90.31 209.90,90.60 212.73,90.99 215.56,91.48 218.38,92.07 221.21,92.75 224.04,93.54 226.87,94.42 229.70,95.40 232.53,96.48 235.35,97.65 238.18,98.93 241.01,100.30 243.84,101.77 246.67,103.33 249.49,105.00 252.32,106.76 255.15,108.62 257.98,110.58 260.81,112.64 263.64,114.79 266.46,117.05 269.29,119.40 272.12,121.85 274.95,124.39 277.78,127.04 280.61,129.78 283.43,132.62 286.26,135.56 289.09,138.60 291.92,141.73 294.75,144.96 297.58,148.29 300.40,151.72 303.23,155.25 306.06,158.87 308.89,162.59 311.72,166.41 314.55,170.33 317.37,174.35 320.20,178.46 323.03,182.67 325.86,186.98 328.69,191.39 331.52,195.90 334.34,200.50 337.17,205.20 340.00,210.00" fill="none" stroke="#22c55e" stroke-width="3"  stroke-linecap="round" stroke-linejoin="round"/>
</svg>