<svg xmlns="http://www.w3.org/2000/svg" viewBox="0 0 600 400">
  <defs>
        <marker id="arrow-64748b-10" markerWidth="10" markerHeight="10" 
                refX="9.0" refY="5.0" orient="auto"
                markerUnits="userSpaceOnUse">
            <polygon points="0,0 10,5.0 0,10" fill="#64748b"/>
        </marker>

        <marker id="arrow-64748b-10" markerWidth="10" markerHeight="10" 
                refX="9.0" refY="5.0" orient="auto"
                markerUnits="userSpaceOnUse">
            <polygon points="0,0 10,5.0 0,10" fill="#64748b"/>
        </marker></defs>
  <rect x="0.00" y="0.00" width="600.00" height="400.00" fill="white" stroke="none" stroke-width="0" rx="0"  />
  <text x="300.00" y="30.00" font-family="Inter, sans-serif" font-size="16" font-weight="bold" fill="#1e293b" text-anchor="middle" dominant-baseline="middle">Ejemplo 3: 3x² + 6x</text>
  <line x1="60.00" y1="340.00" x2="60.00" y2="60.00" stroke="#e2e8f0" stroke-width="0.5"  />
  <line x1="140.00" y1="340.00" x2="140.00" y2="60.00" stroke="#e2e8f0" stroke-width="0.5"  />
  <line x1="220.00" y1="340.00" x2="220.00" y2="60.00" stroke="#e2e8f0" stroke-width="0.5"  />
  <line x1="300.00" y1="340.00" x2="300.00" y2="60.00" stroke="#e2e8f0" stroke-width="0.5"  />
  <line x1="460.00" y1="340.00" x2="460.00" y2="60.00" stroke="#e2e8f0" stroke-width="0.5"  />
  <line x1="540.00" y1="340.00" x2="540.00" y2="60.00" stroke="#e2e8f0" stroke-width="0.5"  />
  <line x1="60.00" y1="340.00" x2="540.00" y2="340.00" stroke="#e2e8f0" stroke-width="0.5"  />
  <line x1="60.00" y1="308.89" x2="540.00" y2="308.89" stroke="#e2e8f0" stroke-width="0.5"  />
  <line x1="60.00" y1="277.78" x2="540.00" y2="277.78" stroke="#e2e8f0" stroke-width="0.5"  />
  <line x1="60.00" y1="246.67" x2="540.00" y2="246.67" stroke="#e2e8f0" stroke-width="0.5"  />
  <line x1="60.00" y1="184.44" x2="540.00" y2="184.44" stroke="#e2e8f0" stroke-width="0.5"  />
  <line x1="60.00" y1="153.33" x2="540.00" y2="153.33" stroke="#e2e8f0" stroke-width="0.5"  />
  <line x1="60.00" y1="122.22" x2="540.00" y2="122.22" stroke="#e2e8f0" stroke-width="0.5"  />
  <line x1="60.00" y1="91.11" x2="540.00" y2="91.11" stroke="#e2e8f0" stroke-width="0.5"  />
  <line x1="60.00" y1="60.00" x2="540.00" y2="60.00" stroke="#e2e8f0" stroke-width="0.5"  />
  <line x1="60.00" y1="215.56" x2="540.00" y2="215.56" stroke="#64748b" stroke-width="2"  marker-end="url(#arrow-64748b-10)"/>
  <line x1="380.00" y1="340.00" x2="380.00" y2="60.00" stroke="#64748b" stroke-width="2"  marker-end="url(#arrow-64748b-10)"/>
  <text x="535.00" y="235.56" font-family="Inter, sans-serif" font-size="14" font-weight="bold" fill="#64748b" text-anchor="middle" dominant-baseline="middle">x</text>
  <text x="360.00" y="70.00" font-family="Inter, sans-serif" font-size="14" font-weight="bold" fill="#64748b" text-anchor="middle" dominant-baseline="middle">y</text>
  <line x1="60.00" y1="210.56" x2="60.00" y2="220.56" stroke="#64748b" stroke-width="1"  />
  <text x="60.00" y="233.56" font-family="Inter, sans-serif" font-size="11" font-weight="normal" fill="#64748b" text-anchor="middle" dominant-baseline="middle">-4</text>
  <line x1="140.00" y1="210.56" x2="140.00" y2="220.56" stroke="#64748b" stroke-width="1"  />
  <text x="140.00" y="233.56" font-family="Inter, sans-serif" font-size="11" font-weight="normal" fill="#64748b" text-anchor="middle" dominant-baseline="middle">-3</text>
  <line x1="220.00" y1="210.56" x2="220.00" y2="220.56" stroke="#64748b" stroke-width="1"  />
  <text x="220.00" y="233.56" font-family="Inter, sans-serif" font-size="11" font-weight="normal" fill="#64748b" text-anchor="middle" dominant-baseline="middle">-2</text>
  <line x1="300.00" y1="210.56" x2="300.00" y2="220.56" stroke="#64748b" stroke-width="1"  />
  <text x="300.00" y="233.56" font-family="Inter, sans-serif" font-size="11" font-weight="normal" fill="#64748b" text-anchor="middle" dominant-baseline="middle">-1</text>
  <line x1="460.00" y1="210.56" x2="460.00" y2="220.56" stroke="#64748b" stroke-width="1"  />
  <text x="460.00" y="233.56" font-family="Inter, sans-serif" font-size="11" font-weight="normal" fill="#64748b" text-anchor="middle" dominant-baseline="middle">1</text>
  <line x1="540.00" y1="210.56" x2="540.00" y2="220.56" stroke="#64748b" stroke-width="1"  />
  <text x="540.00" y="233.56" font-family="Inter, sans-serif" font-size="11" font-weight="normal" fill="#64748b" text-anchor="middle" dominant-baseline="middle">2</text>
  <line x1="375.00" y1="340.00" x2="385.00" y2="340.00" stroke="#64748b" stroke-width="1"  />
  <text x="365.00" y="340.00" font-family="Inter, sans-serif" font-size="11" font-weight="normal" fill="#64748b" text-anchor="end" dominant-baseline="middle">-4</text>
  <line x1="375.00" y1="308.89" x2="385.00" y2="308.89" stroke="#64748b" stroke-width="1"  />
  <text x="365.00" y="308.89" font-family="Inter, sans-serif" font-size="11" font-weight="normal" fill="#64748b" text-anchor="end" dominant-baseline="middle">-3</text>
  <line x1="375.00" y1="277.78" x2="385.00" y2="277.78" stroke="#64748b" stroke-width="1"  />
  <text x="365.00" y="277.78" font-family="Inter, sans-serif" font-size="11" font-weight="normal" fill="#64748b" text-anchor="end" dominant-baseline="middle">-2</text>
  <line x1="375.00" y1="246.67" x2="385.00" y2="246.67" stroke="#64748b" stroke-width="1"  />
  <text x="365.00" y="246.67" font-family="Inter, sans-serif" font-size="11" font-weight="normal" fill="#64748b" text-anchor="end" dominant-baseline="middle">-1</text>
  <line x1="375.00" y1="184.44" x2="385.00" y2="184.44" stroke="#64748b" stroke-width="1"  />
  <text x="365.00" y="184.44" font-family="Inter, sans-serif" font-size="11" font-weight="normal" fill="#64748b" text-anchor="end" dominant-baseline="middle">1</text>
  <line x1="375.00" y1="153.33" x2="385.00" y2="153.33" stroke="#64748b" stroke-width="1"  />
  <text x="365.00" y="153.33" font-family="Inter, sans-serif" font-size="11" font-weight="normal" fill="#64748b" text-anchor="end" dominant-baseline="middle">2</text>
  <line x1="375.00" y1="122.22" x2="385.00" y2="122.22" stroke="#64748b" stroke-width="1"  />
  <text x="365.00" y="122.22" font-family="Inter, sans-serif" font-size="11" font-weight="normal" fill="#64748b" text-anchor="end" dominant-baseline="middle">3</text>
  <line x1="375.00" y1="91.11" x2="385.00" y2="91.11" stroke="#64748b" stroke-width="1"  />
  <text x="365.00" y="91.11" font-family="Inter, sans-serif" font-size="11" font-weight="normal" fill="#64748b" text-anchor="end" dominant-baseline="middle">4</text>
  <line x1="375.00" y1="60.00" x2="385.00" y2="60.00" stroke="#64748b" stroke-width="1"  />
  <text x="365.00" y="60.00" font-family="Inter, sans-serif" font-size="11" font-weight="normal" fill="#64748b" text-anchor="end" dominant-baseline="middle">5</text>
  <text x="368.00" y="230.56" font-family="Inter, sans-serif" font-size="11" font-weight="normal" fill="#64748b" text-anchor="middle" dominant-baseline="middle">O</text>
  <polyline points="137.58,-75.84 142.42,-53.22 147.27,-31.28 152.12,-10.02 156.97,10.55 161.82,30.43 166.67,49.63 171.52,68.14 176.36,85.97 181.21,103.11 186.06,119.57 190.91,135.34 195.76,150.42 200.61,164.82 205.45,178.53 210.30,191.56 215.15,203.90 220.00,215.56 224.85,226.53 229.70,236.81 234.55,246.41 239.39,255.32 244.24,263.55 249.09,271.09 253.94,277.95 258.79,284.12 263.64,289.61 268.48,294.40 273.33,298.52 278.18,301.95 283.03,304.69 287.88,306.75 292.73,308.12 297.58,308.80 302.42,308.80 307.27,308.12 312.12,306.75 316.97,304.69 321.82,301.95 326.67,298.52 331.52,294.40 336.36,289.61 341.21,284.12 346.06,277.95 350.91,271.09 355.76,263.55 360.61,255.32 365.45,246.41 370.30,236.81 375.15,226.53 380.00,215.56 384.85,203.90 389.70,191.56 394.55,178.53 399.39,164.82 404.24,150.42 409.09,135.34 413.94,119.57 418.79,103.11 423.64,85.97 428.48,68.14 433.33,49.63 438.18,30.43 443.03,10.55 447.88,-10.02 452.73,-31.28 457.58,-53.22 462.42,-75.84" fill="none" stroke="#3b82f6" stroke-width="3"  stroke-linecap="round" stroke-linejoin="round"/>
  <circle cx="300.00" cy="308.89" r="9" fill="white" />
  <circle cx="300.00" cy="308.89" r="5" fill="#ef4444" stroke="white" stroke-width="2"/>
  <rect x="257.00" y="270.89" width="86.00" height="26.00" fill="white" stroke="#ef4444" stroke-width="1.5" rx="6"  />
  <text x="300.00" y="287.89" font-family="Inter, sans-serif" font-size="12" font-weight="bold" fill="#ef4444" text-anchor="middle" dominant-baseline="middle">V (-1, -3)</text>
  <rect x="420.00" y="60.00" width="160.00" height="50.00" fill="white" stroke="#e2e8f0" stroke-width="0" rx="8"  />
  <line x1="435.00" y1="80.00" x2="465.00" y2="80.00" stroke="#3b82f6" stroke-width="3"  />
  <text x="475.00" y="84.00" font-family="Inter, sans-serif" font-size="11" font-weight="normal" fill="#1e293b" text-anchor="start" dominant-baseline="middle">h(x)</text>
</svg>