<svg xmlns="http://www.w3.org/2000/svg" viewBox="0 0 600 400">
  <defs>
        <marker id="arrow-64748b-10" markerWidth="10" markerHeight="10" 
                refX="9.0" refY="5.0" orient="auto"
                markerUnits="userSpaceOnUse">
            <polygon points="0,0 10,5.0 0,10" fill="#64748b"/>
        </marker>

        <marker id="arrow-64748b-10" markerWidth="10" markerHeight="10" 
                refX="9.0" refY="5.0" orient="auto"
                markerUnits="userSpaceOnUse">
            <polygon points="0,0 10,5.0 0,10" fill="#64748b"/>
        </marker></defs>
  <rect x="0.00" y="0.00" width="600.00" height="400.00" fill="white" stroke="none" stroke-width="0" rx="0"  />
  <text x="300.00" y="30.00" font-family="Inter, sans-serif" font-size="16" font-weight="bold" fill="#1e293b" text-anchor="middle" dominant-baseline="middle">Ejemplo 1: x² - 4x + 3</text>
  <line x1="60.00" y1="340.00" x2="60.00" y2="60.00" stroke="#e2e8f0" stroke-width="0.5"  />
  <line x1="220.00" y1="340.00" x2="220.00" y2="60.00" stroke="#e2e8f0" stroke-width="0.5"  />
  <line x1="300.00" y1="340.00" x2="300.00" y2="60.00" stroke="#e2e8f0" stroke-width="0.5"  />
  <line x1="380.00" y1="340.00" x2="380.00" y2="60.00" stroke="#e2e8f0" stroke-width="0.5"  />
  <line x1="460.00" y1="340.00" x2="460.00" y2="60.00" stroke="#e2e8f0" stroke-width="0.5"  />
  <line x1="540.00" y1="340.00" x2="540.00" y2="60.00" stroke="#e2e8f0" stroke-width="0.5"  />
  <line x1="60.00" y1="340.00" x2="540.00" y2="340.00" stroke="#e2e8f0" stroke-width="0.5"  />
  <line x1="60.00" y1="293.33" x2="540.00" y2="293.33" stroke="#e2e8f0" stroke-width="0.5"  />
  <line x1="60.00" y1="200.00" x2="540.00" y2="200.00" stroke="#e2e8f0" stroke-width="0.5"  />
  <line x1="60.00" y1="153.33" x2="540.00" y2="153.33" stroke="#e2e8f0" stroke-width="0.5"  />
  <line x1="60.00" y1="106.67" x2="540.00" y2="106.67" stroke="#e2e8f0" stroke-width="0.5"  />
  <line x1="60.00" y1="60.00" x2="540.00" y2="60.00" stroke="#e2e8f0" stroke-width="0.5"  />
  <line x1="60.00" y1="246.67" x2="540.00" y2="246.67" stroke="#64748b" stroke-width="2"  marker-end="url(#arrow-64748b-10)"/>
  <line x1="140.00" y1="340.00" x2="140.00" y2="60.00" stroke="#64748b" stroke-width="2"  marker-end="url(#arrow-64748b-10)"/>
  <text x="535.00" y="266.67" font-family="Inter, sans-serif" font-size="14" font-weight="bold" fill="#64748b" text-anchor="middle" dominant-baseline="middle">x</text>
  <text x="120.00" y="70.00" font-family="Inter, sans-serif" font-size="14" font-weight="bold" fill="#64748b" text-anchor="middle" dominant-baseline="middle">y</text>
  <line x1="60.00" y1="241.67" x2="60.00" y2="251.67" stroke="#64748b" stroke-width="1"  />
  <text x="60.00" y="264.67" font-family="Inter, sans-serif" font-size="11" font-weight="normal" fill="#64748b" text-anchor="middle" dominant-baseline="middle">-1</text>
  <line x1="220.00" y1="241.67" x2="220.00" y2="251.67" stroke="#64748b" stroke-width="1"  />
  <text x="220.00" y="264.67" font-family="Inter, sans-serif" font-size="11" font-weight="normal" fill="#64748b" text-anchor="middle" dominant-baseline="middle">1</text>
  <line x1="300.00" y1="241.67" x2="300.00" y2="251.67" stroke="#64748b" stroke-width="1"  />
  <text x="300.00" y="264.67" font-family="Inter, sans-serif" font-size="11" font-weight="normal" fill="#64748b" text-anchor="middle" dominant-baseline="middle">2</text>
  <line x1="380.00" y1="241.67" x2="380.00" y2="251.67" stroke="#64748b" stroke-width="1"  />
  <text x="380.00" y="264.67" font-family="Inter, sans-serif" font-size="11" font-weight="normal" fill="#64748b" text-anchor="middle" dominant-baseline="middle">3</text>
  <line x1="460.00" y1="241.67" x2="460.00" y2="251.67" stroke="#64748b" stroke-width="1"  />
  <text x="460.00" y="264.67" font-family="Inter, sans-serif" font-size="11" font-weight="normal" fill="#64748b" text-anchor="middle" dominant-baseline="middle">4</text>
  <line x1="540.00" y1="241.67" x2="540.00" y2="251.67" stroke="#64748b" stroke-width="1"  />
  <text x="540.00" y="264.67" font-family="Inter, sans-serif" font-size="11" font-weight="normal" fill="#64748b" text-anchor="middle" dominant-baseline="middle">5</text>
  <line x1="135.00" y1="340.00" x2="145.00" y2="340.00" stroke="#64748b" stroke-width="1"  />
  <text x="125.00" y="340.00" font-family="Inter, sans-serif" font-size="11" font-weight="normal" fill="#64748b" text-anchor="end" dominant-baseline="middle">-2</text>
  <line x1="135.00" y1="293.33" x2="145.00" y2="293.33" stroke="#64748b" stroke-width="1"  />
  <text x="125.00" y="293.33" font-family="Inter, sans-serif" font-size="11" font-weight="normal" fill="#64748b" text-anchor="end" dominant-baseline="middle">-1</text>
  <line x1="135.00" y1="200.00" x2="145.00" y2="200.00" stroke="#64748b" stroke-width="1"  />
  <text x="125.00" y="200.00" font-family="Inter, sans-serif" font-size="11" font-weight="normal" fill="#64748b" text-anchor="end" dominant-baseline="middle">1</text>
  <line x1="135.00" y1="153.33" x2="145.00" y2="153.33" stroke="#64748b" stroke-width="1"  />
  <text x="125.00" y="153.33" font-family="Inter, sans-serif" font-size="11" font-weight="normal" fill="#64748b" text-anchor="end" dominant-baseline="middle">2</text>
  <line x1="135.00" y1="106.67" x2="145.00" y2="106.67" stroke="#64748b" stroke-width="1"  />
  <text x="125.00" y="106.67" font-family="Inter, sans-serif" font-size="11" font-weight="normal" fill="#64748b" text-anchor="end" dominant-baseline="middle">3</text>
  <line x1="135.00" y1="60.00" x2="145.00" y2="60.00" stroke="#64748b" stroke-width="1"  />
  <text x="125.00" y="60.00" font-family="Inter, sans-serif" font-size="11" font-weight="normal" fill="#64748b" text-anchor="end" dominant-baseline="middle">4</text>
  <text x="128.00" y="261.67" font-family="Inter, sans-serif" font-size="11" font-weight="normal" fill="#64748b" text-anchor="middle" dominant-baseline="middle">O</text>
  <polyline points="60.00,-126.67 64.85,-109.87 69.70,-93.41 74.55,-77.30 79.39,-61.53 84.24,-46.10 89.09,-31.02 93.94,-16.28 98.79,-1.88 103.64,12.18 108.48,25.89 113.33,39.26 118.18,52.29 123.03,64.97 127.88,77.31 132.73,89.31 137.58,100.97 142.42,112.28 147.27,123.25 152.12,133.88 156.97,144.16 161.82,154.10 166.67,163.70 171.52,172.96 176.36,181.87 181.21,190.44 186.06,198.67 190.91,206.56 195.76,214.10 200.61,221.30 205.45,228.15 210.30,234.67 215.15,240.84 220.00,246.67 224.85,252.15 229.70,257.29 234.55,262.09 239.39,266.55 244.24,270.66 249.09,274.44 253.94,277.86 258.79,280.95 263.64,283.69 268.48,286.09 273.33,288.15 278.18,289.86 283.03,291.23 287.88,292.26 292.73,292.95 297.58,293.29 302.42,293.29 307.27,292.95 312.12,292.26 316.97,291.23 321.82,289.86 326.67,288.15 331.52,286.09 336.36,283.69 341.21,280.95 346.06,277.86 350.91,274.44 355.76,270.66 360.61,266.55 365.45,262.09 370.30,257.29 375.15,252.15 380.00,246.67 384.85,240.84 389.70,234.67 394.55,228.15 399.39,221.30 404.24,214.10 409.09,206.56 413.94,198.67 418.79,190.44 423.64,181.87 428.48,172.96 433.33,163.70 438.18,154.10 443.03,144.16 447.88,133.88 452.73,123.25 457.58,112.28 462.42,100.97 467.27,89.31 472.12,77.31 476.97,64.97 481.82,52.29 486.67,39.26 491.52,25.89 496.36,12.18 501.21,-1.88 506.06,-16.28 510.91,-31.02 515.76,-46.10 520.61,-61.53 525.45,-77.30 530.30,-93.41 535.15,-109.87 540.00,-126.67" fill="none" stroke="#3b82f6" stroke-width="3"  stroke-linecap="round" stroke-linejoin="round"/>
  <circle cx="300.00" cy="293.33" r="9" fill="white" />
  <circle cx="300.00" cy="293.33" r="5" fill="#ef4444" stroke="white" stroke-width="2"/>
  <rect x="260.50" y="255.33" width="79.00" height="26.00" fill="white" stroke="#ef4444" stroke-width="1.5" rx="6"  />
  <text x="300.00" y="272.33" font-family="Inter, sans-serif" font-size="12" font-weight="bold" fill="#ef4444" text-anchor="middle" dominant-baseline="middle">V (2, -1)</text>
  <rect x="420.00" y="60.00" width="160.00" height="50.00" fill="white" stroke="#e2e8f0" stroke-width="0" rx="8"  />
  <line x1="435.00" y1="80.00" x2="465.00" y2="80.00" stroke="#3b82f6" stroke-width="3"  />
  <text x="475.00" y="84.00" font-family="Inter, sans-serif" font-size="11" font-weight="normal" fill="#1e293b" text-anchor="start" dominant-baseline="middle">f(x) = x² - 4x + 3</text>
</svg>