<svg xmlns="http://www.w3.org/2000/svg" viewBox="0 0 600 400">
  <defs>
        <marker id="arrow-64748b-10" markerWidth="10" markerHeight="10" 
                refX="9.0" refY="5.0" orient="auto"
                markerUnits="userSpaceOnUse">
            <polygon points="0,0 10,5.0 0,10" fill="#64748b"/>
        </marker>

        <marker id="arrow-64748b-10" markerWidth="10" markerHeight="10" 
                refX="9.0" refY="5.0" orient="auto"
                markerUnits="userSpaceOnUse">
            <polygon points="0,0 10,5.0 0,10" fill="#64748b"/>
        </marker></defs>
  <rect x="0.00" y="0.00" width="600.00" height="400.00" fill="white" stroke="none" stroke-width="0" rx="0"  />
  <text x="300.00" y="30.00" font-family="Inter, sans-serif" font-size="16" font-weight="bold" fill="#1e293b" text-anchor="middle" dominant-baseline="middle">Producto Números Consecutivos</text>
  <line x1="92.00" y1="340.00" x2="92.00" y2="60.00" stroke="#e2e8f0" stroke-width="0.5"  />
  <line x1="124.00" y1="340.00" x2="124.00" y2="60.00" stroke="#e2e8f0" stroke-width="0.5"  />
  <line x1="156.00" y1="340.00" x2="156.00" y2="60.00" stroke="#e2e8f0" stroke-width="0.5"  />
  <line x1="188.00" y1="340.00" x2="188.00" y2="60.00" stroke="#e2e8f0" stroke-width="0.5"  />
  <line x1="220.00" y1="340.00" x2="220.00" y2="60.00" stroke="#e2e8f0" stroke-width="0.5"  />
  <line x1="252.00" y1="340.00" x2="252.00" y2="60.00" stroke="#e2e8f0" stroke-width="0.5"  />
  <line x1="284.00" y1="340.00" x2="284.00" y2="60.00" stroke="#e2e8f0" stroke-width="0.5"  />
  <line x1="316.00" y1="340.00" x2="316.00" y2="60.00" stroke="#e2e8f0" stroke-width="0.5"  />
  <line x1="348.00" y1="340.00" x2="348.00" y2="60.00" stroke="#e2e8f0" stroke-width="0.5"  />
  <line x1="380.00" y1="340.00" x2="380.00" y2="60.00" stroke="#e2e8f0" stroke-width="0.5"  />
  <line x1="412.00" y1="340.00" x2="412.00" y2="60.00" stroke="#e2e8f0" stroke-width="0.5"  />
  <line x1="444.00" y1="340.00" x2="444.00" y2="60.00" stroke="#e2e8f0" stroke-width="0.5"  />
  <line x1="476.00" y1="340.00" x2="476.00" y2="60.00" stroke="#e2e8f0" stroke-width="0.5"  />
  <line x1="508.00" y1="340.00" x2="508.00" y2="60.00" stroke="#e2e8f0" stroke-width="0.5"  />
  <line x1="540.00" y1="340.00" x2="540.00" y2="60.00" stroke="#e2e8f0" stroke-width="0.5"  />
  <line x1="60.00" y1="312.00" x2="540.00" y2="312.00" stroke="#e2e8f0" stroke-width="0.5"  />
  <line x1="60.00" y1="284.00" x2="540.00" y2="284.00" stroke="#e2e8f0" stroke-width="0.5"  />
  <line x1="60.00" y1="256.00" x2="540.00" y2="256.00" stroke="#e2e8f0" stroke-width="0.5"  />
  <line x1="60.00" y1="228.00" x2="540.00" y2="228.00" stroke="#e2e8f0" stroke-width="0.5"  />
  <line x1="60.00" y1="200.00" x2="540.00" y2="200.00" stroke="#e2e8f0" stroke-width="0.5"  />
  <line x1="60.00" y1="172.00" x2="540.00" y2="172.00" stroke="#e2e8f0" stroke-width="0.5"  />
  <line x1="60.00" y1="144.00" x2="540.00" y2="144.00" stroke="#e2e8f0" stroke-width="0.5"  />
  <line x1="60.00" y1="116.00" x2="540.00" y2="116.00" stroke="#e2e8f0" stroke-width="0.5"  />
  <line x1="60.00" y1="88.00" x2="540.00" y2="88.00" stroke="#e2e8f0" stroke-width="0.5"  />
  <line x1="60.00" y1="60.00" x2="540.00" y2="60.00" stroke="#e2e8f0" stroke-width="0.5"  />
  <line x1="60.00" y1="340.00" x2="540.00" y2="340.00" stroke="#64748b" stroke-width="2"  marker-end="url(#arrow-64748b-10)"/>
  <line x1="60.00" y1="340.00" x2="60.00" y2="60.00" stroke="#64748b" stroke-width="2"  marker-end="url(#arrow-64748b-10)"/>
  <text x="535.00" y="360.00" font-family="Inter, sans-serif" font-size="14" font-weight="bold" fill="#64748b" text-anchor="middle" dominant-baseline="middle">Número n</text>
  <text x="40.00" y="70.00" font-family="Inter, sans-serif" font-size="14" font-weight="bold" fill="#64748b" text-anchor="middle" dominant-baseline="middle">Producto</text>
  <line x1="92.00" y1="335.00" x2="92.00" y2="345.00" stroke="#64748b" stroke-width="1"  />
  <text x="92.00" y="358.00" font-family="Inter, sans-serif" font-size="11" font-weight="normal" fill="#64748b" text-anchor="middle" dominant-baseline="middle">1</text>
  <line x1="124.00" y1="335.00" x2="124.00" y2="345.00" stroke="#64748b" stroke-width="1"  />
  <text x="124.00" y="358.00" font-family="Inter, sans-serif" font-size="11" font-weight="normal" fill="#64748b" text-anchor="middle" dominant-baseline="middle">2</text>
  <line x1="156.00" y1="335.00" x2="156.00" y2="345.00" stroke="#64748b" stroke-width="1"  />
  <text x="156.00" y="358.00" font-family="Inter, sans-serif" font-size="11" font-weight="normal" fill="#64748b" text-anchor="middle" dominant-baseline="middle">3</text>
  <line x1="188.00" y1="335.00" x2="188.00" y2="345.00" stroke="#64748b" stroke-width="1"  />
  <text x="188.00" y="358.00" font-family="Inter, sans-serif" font-size="11" font-weight="normal" fill="#64748b" text-anchor="middle" dominant-baseline="middle">4</text>
  <line x1="220.00" y1="335.00" x2="220.00" y2="345.00" stroke="#64748b" stroke-width="1"  />
  <text x="220.00" y="358.00" font-family="Inter, sans-serif" font-size="11" font-weight="normal" fill="#64748b" text-anchor="middle" dominant-baseline="middle">5</text>
  <line x1="252.00" y1="335.00" x2="252.00" y2="345.00" stroke="#64748b" stroke-width="1"  />
  <text x="252.00" y="358.00" font-family="Inter, sans-serif" font-size="11" font-weight="normal" fill="#64748b" text-anchor="middle" dominant-baseline="middle">6</text>
  <line x1="284.00" y1="335.00" x2="284.00" y2="345.00" stroke="#64748b" stroke-width="1"  />
  <text x="284.00" y="358.00" font-family="Inter, sans-serif" font-size="11" font-weight="normal" fill="#64748b" text-anchor="middle" dominant-baseline="middle">7</text>
  <line x1="316.00" y1="335.00" x2="316.00" y2="345.00" stroke="#64748b" stroke-width="1"  />
  <text x="316.00" y="358.00" font-family="Inter, sans-serif" font-size="11" font-weight="normal" fill="#64748b" text-anchor="middle" dominant-baseline="middle">8</text>
  <line x1="348.00" y1="335.00" x2="348.00" y2="345.00" stroke="#64748b" stroke-width="1"  />
  <text x="348.00" y="358.00" font-family="Inter, sans-serif" font-size="11" font-weight="normal" fill="#64748b" text-anchor="middle" dominant-baseline="middle">9</text>
  <line x1="380.00" y1="335.00" x2="380.00" y2="345.00" stroke="#64748b" stroke-width="1"  />
  <text x="380.00" y="358.00" font-family="Inter, sans-serif" font-size="11" font-weight="normal" fill="#64748b" text-anchor="middle" dominant-baseline="middle">10</text>
  <line x1="412.00" y1="335.00" x2="412.00" y2="345.00" stroke="#64748b" stroke-width="1"  />
  <text x="412.00" y="358.00" font-family="Inter, sans-serif" font-size="11" font-weight="normal" fill="#64748b" text-anchor="middle" dominant-baseline="middle">11</text>
  <line x1="444.00" y1="335.00" x2="444.00" y2="345.00" stroke="#64748b" stroke-width="1"  />
  <text x="444.00" y="358.00" font-family="Inter, sans-serif" font-size="11" font-weight="normal" fill="#64748b" text-anchor="middle" dominant-baseline="middle">12</text>
  <line x1="476.00" y1="335.00" x2="476.00" y2="345.00" stroke="#64748b" stroke-width="1"  />
  <text x="476.00" y="358.00" font-family="Inter, sans-serif" font-size="11" font-weight="normal" fill="#64748b" text-anchor="middle" dominant-baseline="middle">13</text>
  <line x1="508.00" y1="335.00" x2="508.00" y2="345.00" stroke="#64748b" stroke-width="1"  />
  <text x="508.00" y="358.00" font-family="Inter, sans-serif" font-size="11" font-weight="normal" fill="#64748b" text-anchor="middle" dominant-baseline="middle">14</text>
  <line x1="540.00" y1="335.00" x2="540.00" y2="345.00" stroke="#64748b" stroke-width="1"  />
  <text x="540.00" y="358.00" font-family="Inter, sans-serif" font-size="11" font-weight="normal" fill="#64748b" text-anchor="middle" dominant-baseline="middle">15</text>
  <line x1="55.00" y1="312.00" x2="65.00" y2="312.00" stroke="#64748b" stroke-width="1"  />
  <text x="45.00" y="312.00" font-family="Inter, sans-serif" font-size="11" font-weight="normal" fill="#64748b" text-anchor="end" dominant-baseline="middle">20</text>
  <line x1="55.00" y1="284.00" x2="65.00" y2="284.00" stroke="#64748b" stroke-width="1"  />
  <text x="45.00" y="284.00" font-family="Inter, sans-serif" font-size="11" font-weight="normal" fill="#64748b" text-anchor="end" dominant-baseline="middle">40</text>
  <line x1="55.00" y1="256.00" x2="65.00" y2="256.00" stroke="#64748b" stroke-width="1"  />
  <text x="45.00" y="256.00" font-family="Inter, sans-serif" font-size="11" font-weight="normal" fill="#64748b" text-anchor="end" dominant-baseline="middle">60</text>
  <line x1="55.00" y1="228.00" x2="65.00" y2="228.00" stroke="#64748b" stroke-width="1"  />
  <text x="45.00" y="228.00" font-family="Inter, sans-serif" font-size="11" font-weight="normal" fill="#64748b" text-anchor="end" dominant-baseline="middle">80</text>
  <line x1="55.00" y1="200.00" x2="65.00" y2="200.00" stroke="#64748b" stroke-width="1"  />
  <text x="45.00" y="200.00" font-family="Inter, sans-serif" font-size="11" font-weight="normal" fill="#64748b" text-anchor="end" dominant-baseline="middle">100</text>
  <line x1="55.00" y1="172.00" x2="65.00" y2="172.00" stroke="#64748b" stroke-width="1"  />
  <text x="45.00" y="172.00" font-family="Inter, sans-serif" font-size="11" font-weight="normal" fill="#64748b" text-anchor="end" dominant-baseline="middle">120</text>
  <line x1="55.00" y1="144.00" x2="65.00" y2="144.00" stroke="#64748b" stroke-width="1"  />
  <text x="45.00" y="144.00" font-family="Inter, sans-serif" font-size="11" font-weight="normal" fill="#64748b" text-anchor="end" dominant-baseline="middle">140</text>
  <line x1="55.00" y1="116.00" x2="65.00" y2="116.00" stroke="#64748b" stroke-width="1"  />
  <text x="45.00" y="116.00" font-family="Inter, sans-serif" font-size="11" font-weight="normal" fill="#64748b" text-anchor="end" dominant-baseline="middle">160</text>
  <line x1="55.00" y1="88.00" x2="65.00" y2="88.00" stroke="#64748b" stroke-width="1"  />
  <text x="45.00" y="88.00" font-family="Inter, sans-serif" font-size="11" font-weight="normal" fill="#64748b" text-anchor="end" dominant-baseline="middle">180</text>
  <line x1="55.00" y1="60.00" x2="65.00" y2="60.00" stroke="#64748b" stroke-width="1"  />
  <text x="45.00" y="60.00" font-family="Inter, sans-serif" font-size="11" font-weight="normal" fill="#64748b" text-anchor="end" dominant-baseline="middle">200</text>
  <polyline points="60.00,340.00 64.85,339.76 69.70,339.45 74.55,339.07 79.39,338.64 84.24,338.14 89.09,337.57 93.94,336.94 98.79,336.25 103.64,335.49 108.48,334.66 113.33,333.78 118.18,332.83 123.03,331.81 127.88,330.73 132.73,329.59 137.58,328.38 142.42,327.11 147.27,325.77 152.12,324.37 156.97,322.90 161.82,321.37 166.67,319.78 171.52,318.12 176.36,316.40 181.21,314.61 186.06,312.76 190.91,310.84 195.76,308.86 200.61,306.82 205.45,304.71 210.30,302.54 215.15,300.30 220.00,298.00 224.85,295.63 229.70,293.20 234.55,290.71 239.39,288.15 244.24,285.53 249.09,282.84 253.94,280.09 258.79,277.28 263.64,274.40 268.48,271.45 273.33,268.44 278.18,265.37 283.03,262.24 287.88,259.03 292.73,255.77 297.58,252.44 302.42,249.04 307.27,245.59 312.12,242.06 316.97,238.48 321.82,234.83 326.67,231.11 331.52,227.33 336.36,223.49 341.21,219.58 346.06,215.61 350.91,211.57 355.76,207.47 360.61,203.30 365.45,199.07 370.30,194.78 375.15,190.42 380.00,186.00 384.85,181.51 389.70,176.96 394.55,172.35 399.39,167.67 404.24,162.92 409.09,158.12 413.94,153.24 418.79,148.31 423.64,143.31 428.48,138.24 433.33,133.11 438.18,127.92 443.03,122.66 447.88,117.34 452.73,111.95 457.58,106.50 462.42,100.98 467.27,95.40 472.12,89.76 476.97,84.05 481.82,78.28 486.67,72.44 491.52,66.54 496.36,60.58 501.21,54.55" fill="none" stroke="#3b82f6" stroke-width="3"  stroke-linecap="round" stroke-linejoin="round"/>
  <polyline points="60.00,121.60 64.85,121.60 69.70,121.60 74.55,121.60 79.39,121.60 84.24,121.60 89.09,121.60 93.94,121.60 98.79,121.60 103.64,121.60 108.48,121.60 113.33,121.60 118.18,121.60 123.03,121.60 127.88,121.60 132.73,121.60 137.58,121.60 142.42,121.60 147.27,121.60 152.12,121.60 156.97,121.60 161.82,121.60 166.67,121.60 171.52,121.60 176.36,121.60 181.21,121.60 186.06,121.60 190.91,121.60 195.76,121.60 200.61,121.60 205.45,121.60 210.30,121.60 215.15,121.60 220.00,121.60 224.85,121.60 229.70,121.60 234.55,121.60 239.39,121.60 244.24,121.60 249.09,121.60 253.94,121.60 258.79,121.60 263.64,121.60 268.48,121.60 273.33,121.60 278.18,121.60 283.03,121.60 287.88,121.60 292.73,121.60 297.58,121.60 302.42,121.60 307.27,121.60 312.12,121.60 316.97,121.60 321.82,121.60 326.67,121.60 331.52,121.60 336.36,121.60 341.21,121.60 346.06,121.60 350.91,121.60 355.76,121.60 360.61,121.60 365.45,121.60 370.30,121.60 375.15,121.60 380.00,121.60 384.85,121.60 389.70,121.60 394.55,121.60 399.39,121.60 404.24,121.60 409.09,121.60 413.94,121.60 418.79,121.60 423.64,121.60 428.48,121.60 433.33,121.60 438.18,121.60 443.03,121.60 447.88,121.60 452.73,121.60 457.58,121.60 462.42,121.60 467.27,121.60 472.12,121.60 476.97,121.60 481.82,121.60 486.67,121.60 491.52,121.60 496.36,121.60 501.21,121.60 506.06,121.60 510.91,121.60 515.76,121.60 520.61,121.60 525.45,121.60 530.30,121.60 535.15,121.60 540.00,121.60" fill="none" stroke="#22c55e" stroke-width="3" stroke-dasharray="6,4" stroke-linecap="round" stroke-linejoin="round"/>
  <circle cx="444.00" cy="121.60" r="9" fill="white" />
  <circle cx="444.00" cy="121.60" r="5" fill="#ef4444" stroke="white" stroke-width="2"/>
  <rect x="390.50" y="83.60" width="107.00" height="26.00" fill="white" stroke="#ef4444" stroke-width="1.5" rx="6"  />
  <text x="444.00" y="100.60" font-family="Inter, sans-serif" font-size="12" font-weight="bold" fill="#ef4444" text-anchor="middle" dominant-baseline="middle">Solución n=12</text>
  <rect x="420.00" y="60.00" width="160.00" height="70.00" fill="white" stroke="#e2e8f0" stroke-width="0" rx="8"  />
  <line x1="435.00" y1="80.00" x2="465.00" y2="80.00" stroke="#3b82f6" stroke-width="3"  />
  <text x="475.00" y="84.00" font-family="Inter, sans-serif" font-size="11" font-weight="normal" fill="#1e293b" text-anchor="start" dominant-baseline="middle">Producto n(n+1)</text>
  <line x1="435.00" y1="100.00" x2="465.00" y2="100.00" stroke="#22c55e" stroke-width="3" stroke-dasharray="5,5" />
  <text x="475.00" y="104.00" font-family="Inter, sans-serif" font-size="11" font-weight="normal" fill="#1e293b" text-anchor="start" dominant-baseline="middle">Objetivo = 156</text>
</svg>