<svg xmlns="http://www.w3.org/2000/svg" viewBox="0 0 600 400">
  <defs>
        <marker id="arrow-64748b-10" markerWidth="10" markerHeight="10" 
                refX="9.0" refY="5.0" orient="auto"
                markerUnits="userSpaceOnUse">
            <polygon points="0,0 10,5.0 0,10" fill="#64748b"/>
        </marker>

        <marker id="arrow-64748b-10" markerWidth="10" markerHeight="10" 
                refX="9.0" refY="5.0" orient="auto"
                markerUnits="userSpaceOnUse">
            <polygon points="0,0 10,5.0 0,10" fill="#64748b"/>
        </marker></defs>
  <rect x="0.00" y="0.00" width="600.00" height="400.00" fill="white" stroke="none" stroke-width="0" rx="0"  />
  <text x="300.00" y="30.00" font-family="Inter, sans-serif" font-size="16" font-weight="bold" fill="#1e293b" text-anchor="middle" dominant-baseline="middle">Ejemplo 7: x² + 6x + 5 = 0</text>
  <line x1="60.00" y1="340.00" x2="60.00" y2="60.00" stroke="#e2e8f0" stroke-width="0.5"  />
  <line x1="120.00" y1="340.00" x2="120.00" y2="60.00" stroke="#e2e8f0" stroke-width="0.5"  />
  <line x1="180.00" y1="340.00" x2="180.00" y2="60.00" stroke="#e2e8f0" stroke-width="0.5"  />
  <line x1="240.00" y1="340.00" x2="240.00" y2="60.00" stroke="#e2e8f0" stroke-width="0.5"  />
  <line x1="300.00" y1="340.00" x2="300.00" y2="60.00" stroke="#e2e8f0" stroke-width="0.5"  />
  <line x1="360.00" y1="340.00" x2="360.00" y2="60.00" stroke="#e2e8f0" stroke-width="0.5"  />
  <line x1="420.00" y1="340.00" x2="420.00" y2="60.00" stroke="#e2e8f0" stroke-width="0.5"  />
  <line x1="540.00" y1="340.00" x2="540.00" y2="60.00" stroke="#e2e8f0" stroke-width="0.5"  />
  <line x1="60.00" y1="340.00" x2="540.00" y2="340.00" stroke="#e2e8f0" stroke-width="0.5"  />
  <line x1="60.00" y1="312.00" x2="540.00" y2="312.00" stroke="#e2e8f0" stroke-width="0.5"  />
  <line x1="60.00" y1="284.00" x2="540.00" y2="284.00" stroke="#e2e8f0" stroke-width="0.5"  />
  <line x1="60.00" y1="256.00" x2="540.00" y2="256.00" stroke="#e2e8f0" stroke-width="0.5"  />
  <line x1="60.00" y1="228.00" x2="540.00" y2="228.00" stroke="#e2e8f0" stroke-width="0.5"  />
  <line x1="60.00" y1="172.00" x2="540.00" y2="172.00" stroke="#e2e8f0" stroke-width="0.5"  />
  <line x1="60.00" y1="144.00" x2="540.00" y2="144.00" stroke="#e2e8f0" stroke-width="0.5"  />
  <line x1="60.00" y1="116.00" x2="540.00" y2="116.00" stroke="#e2e8f0" stroke-width="0.5"  />
  <line x1="60.00" y1="88.00" x2="540.00" y2="88.00" stroke="#e2e8f0" stroke-width="0.5"  />
  <line x1="60.00" y1="60.00" x2="540.00" y2="60.00" stroke="#e2e8f0" stroke-width="0.5"  />
  <line x1="60.00" y1="200.00" x2="540.00" y2="200.00" stroke="#64748b" stroke-width="2"  marker-end="url(#arrow-64748b-10)"/>
  <line x1="480.00" y1="340.00" x2="480.00" y2="60.00" stroke="#64748b" stroke-width="2"  marker-end="url(#arrow-64748b-10)"/>
  <text x="535.00" y="220.00" font-family="Inter, sans-serif" font-size="14" font-weight="bold" fill="#64748b" text-anchor="middle" dominant-baseline="middle">x</text>
  <text x="460.00" y="70.00" font-family="Inter, sans-serif" font-size="14" font-weight="bold" fill="#64748b" text-anchor="middle" dominant-baseline="middle">y</text>
  <line x1="60.00" y1="195.00" x2="60.00" y2="205.00" stroke="#64748b" stroke-width="1"  />
  <text x="60.00" y="218.00" font-family="Inter, sans-serif" font-size="11" font-weight="normal" fill="#64748b" text-anchor="middle" dominant-baseline="middle">-7</text>
  <line x1="120.00" y1="195.00" x2="120.00" y2="205.00" stroke="#64748b" stroke-width="1"  />
  <text x="120.00" y="218.00" font-family="Inter, sans-serif" font-size="11" font-weight="normal" fill="#64748b" text-anchor="middle" dominant-baseline="middle">-6</text>
  <line x1="180.00" y1="195.00" x2="180.00" y2="205.00" stroke="#64748b" stroke-width="1"  />
  <text x="180.00" y="218.00" font-family="Inter, sans-serif" font-size="11" font-weight="normal" fill="#64748b" text-anchor="middle" dominant-baseline="middle">-5</text>
  <line x1="240.00" y1="195.00" x2="240.00" y2="205.00" stroke="#64748b" stroke-width="1"  />
  <text x="240.00" y="218.00" font-family="Inter, sans-serif" font-size="11" font-weight="normal" fill="#64748b" text-anchor="middle" dominant-baseline="middle">-4</text>
  <line x1="300.00" y1="195.00" x2="300.00" y2="205.00" stroke="#64748b" stroke-width="1"  />
  <text x="300.00" y="218.00" font-family="Inter, sans-serif" font-size="11" font-weight="normal" fill="#64748b" text-anchor="middle" dominant-baseline="middle">-3</text>
  <line x1="360.00" y1="195.00" x2="360.00" y2="205.00" stroke="#64748b" stroke-width="1"  />
  <text x="360.00" y="218.00" font-family="Inter, sans-serif" font-size="11" font-weight="normal" fill="#64748b" text-anchor="middle" dominant-baseline="middle">-2</text>
  <line x1="420.00" y1="195.00" x2="420.00" y2="205.00" stroke="#64748b" stroke-width="1"  />
  <text x="420.00" y="218.00" font-family="Inter, sans-serif" font-size="11" font-weight="normal" fill="#64748b" text-anchor="middle" dominant-baseline="middle">-1</text>
  <line x1="540.00" y1="195.00" x2="540.00" y2="205.00" stroke="#64748b" stroke-width="1"  />
  <text x="540.00" y="218.00" font-family="Inter, sans-serif" font-size="11" font-weight="normal" fill="#64748b" text-anchor="middle" dominant-baseline="middle">1</text>
  <line x1="475.00" y1="340.00" x2="485.00" y2="340.00" stroke="#64748b" stroke-width="1"  />
  <text x="465.00" y="340.00" font-family="Inter, sans-serif" font-size="11" font-weight="normal" fill="#64748b" text-anchor="end" dominant-baseline="middle">-5</text>
  <line x1="475.00" y1="312.00" x2="485.00" y2="312.00" stroke="#64748b" stroke-width="1"  />
  <text x="465.00" y="312.00" font-family="Inter, sans-serif" font-size="11" font-weight="normal" fill="#64748b" text-anchor="end" dominant-baseline="middle">-4</text>
  <line x1="475.00" y1="284.00" x2="485.00" y2="284.00" stroke="#64748b" stroke-width="1"  />
  <text x="465.00" y="284.00" font-family="Inter, sans-serif" font-size="11" font-weight="normal" fill="#64748b" text-anchor="end" dominant-baseline="middle">-3</text>
  <line x1="475.00" y1="256.00" x2="485.00" y2="256.00" stroke="#64748b" stroke-width="1"  />
  <text x="465.00" y="256.00" font-family="Inter, sans-serif" font-size="11" font-weight="normal" fill="#64748b" text-anchor="end" dominant-baseline="middle">-2</text>
  <line x1="475.00" y1="228.00" x2="485.00" y2="228.00" stroke="#64748b" stroke-width="1"  />
  <text x="465.00" y="228.00" font-family="Inter, sans-serif" font-size="11" font-weight="normal" fill="#64748b" text-anchor="end" dominant-baseline="middle">-1</text>
  <line x1="475.00" y1="172.00" x2="485.00" y2="172.00" stroke="#64748b" stroke-width="1"  />
  <text x="465.00" y="172.00" font-family="Inter, sans-serif" font-size="11" font-weight="normal" fill="#64748b" text-anchor="end" dominant-baseline="middle">1</text>
  <line x1="475.00" y1="144.00" x2="485.00" y2="144.00" stroke="#64748b" stroke-width="1"  />
  <text x="465.00" y="144.00" font-family="Inter, sans-serif" font-size="11" font-weight="normal" fill="#64748b" text-anchor="end" dominant-baseline="middle">2</text>
  <line x1="475.00" y1="116.00" x2="485.00" y2="116.00" stroke="#64748b" stroke-width="1"  />
  <text x="465.00" y="116.00" font-family="Inter, sans-serif" font-size="11" font-weight="normal" fill="#64748b" text-anchor="end" dominant-baseline="middle">3</text>
  <line x1="475.00" y1="88.00" x2="485.00" y2="88.00" stroke="#64748b" stroke-width="1"  />
  <text x="465.00" y="88.00" font-family="Inter, sans-serif" font-size="11" font-weight="normal" fill="#64748b" text-anchor="end" dominant-baseline="middle">4</text>
  <line x1="475.00" y1="60.00" x2="485.00" y2="60.00" stroke="#64748b" stroke-width="1"  />
  <text x="465.00" y="60.00" font-family="Inter, sans-serif" font-size="11" font-weight="normal" fill="#64748b" text-anchor="end" dominant-baseline="middle">5</text>
  <text x="468.00" y="215.00" font-family="Inter, sans-serif" font-size="11" font-weight="normal" fill="#64748b" text-anchor="middle" dominant-baseline="middle">O</text>
  <polyline points="79.39,-66.52 84.24,-50.07 89.09,-33.98 93.94,-18.25 98.79,-2.89 103.64,12.10 108.48,26.73 113.33,40.99 118.18,54.88 123.03,68.41 127.88,81.58 132.73,94.38 137.58,106.81 142.42,118.88 147.27,130.58 152.12,141.91 156.97,152.88 161.82,163.49 166.67,173.73 171.52,183.60 176.36,193.11 181.21,202.25 186.06,211.03 190.91,219.44 195.76,227.48 200.61,235.16 205.45,242.48 210.30,249.42 215.15,256.01 220.00,262.22 224.85,268.07 229.70,273.56 234.55,278.68 239.39,283.43 244.24,287.82 249.09,291.84 253.94,295.50 258.79,298.79 263.64,301.72 268.48,304.28 273.33,306.47 278.18,308.30 283.03,309.76 287.88,310.86 292.73,311.59 297.58,311.95 302.42,311.95 307.27,311.59 312.12,310.86 316.97,309.76 321.82,308.30 326.67,306.47 331.52,304.28 336.36,301.72 341.21,298.79 346.06,295.50 350.91,291.84 355.76,287.82 360.61,283.43 365.45,278.68 370.30,273.56 375.15,268.07 380.00,262.22 384.85,256.01 389.70,249.42 394.55,242.48 399.39,235.16 404.24,227.48 409.09,219.44 413.94,211.03 418.79,202.25 423.64,193.11 428.48,183.60 433.33,173.73 438.18,163.49 443.03,152.88 447.88,141.91 452.73,130.58 457.58,118.88 462.42,106.81 467.27,94.38 472.12,81.58 476.97,68.41 481.82,54.88 486.67,40.99 491.52,26.73 496.36,12.10 501.21,-2.89 506.06,-18.25 510.91,-33.98 515.76,-50.07 520.61,-66.52" fill="none" stroke="#22c55e" stroke-width="3"  stroke-linecap="round" stroke-linejoin="round"/>
  <circle cx="420.00" cy="200.00" r="9" fill="white" />
  <circle cx="420.00" cy="200.00" r="5" fill="#ef4444" stroke="white" stroke-width="2"/>
  <rect x="398.00" y="162.00" width="44.00" height="26.00" fill="white" stroke="#ef4444" stroke-width="1.5" rx="6"  />
  <text x="420.00" y="179.00" font-family="Inter, sans-serif" font-size="12" font-weight="bold" fill="#ef4444" text-anchor="middle" dominant-baseline="middle">x=-1</text>
  <circle cx="180.00" cy="200.00" r="9" fill="white" />
  <circle cx="180.00" cy="200.00" r="5" fill="#ef4444" stroke="white" stroke-width="2"/>
  <rect x="158.00" y="162.00" width="44.00" height="26.00" fill="white" stroke="#ef4444" stroke-width="1.5" rx="6"  />
  <text x="180.00" y="179.00" font-family="Inter, sans-serif" font-size="12" font-weight="bold" fill="#ef4444" text-anchor="middle" dominant-baseline="middle">x=-5</text>
  <rect x="420.00" y="60.00" width="160.00" height="50.00" fill="white" stroke="#e2e8f0" stroke-width="0" rx="8"  />
  <line x1="435.00" y1="80.00" x2="465.00" y2="80.00" stroke="#22c55e" stroke-width="3"  />
  <text x="475.00" y="84.00" font-family="Inter, sans-serif" font-size="11" font-weight="normal" fill="#1e293b" text-anchor="start" dominant-baseline="middle">f(x)</text>
</svg>