<svg xmlns="http://www.w3.org/2000/svg" viewBox="0 0 400 300">
  <defs>
        <marker id="arrow-64748b-10" markerWidth="10" markerHeight="10" 
                refX="9.0" refY="5.0" orient="auto"
                markerUnits="userSpaceOnUse">
            <polygon points="0,0 10,5.0 0,10" fill="#64748b"/>
        </marker>

        <marker id="arrow-64748b-10" markerWidth="10" markerHeight="10" 
                refX="9.0" refY="5.0" orient="auto"
                markerUnits="userSpaceOnUse">
            <polygon points="0,0 10,5.0 0,10" fill="#64748b"/>
        </marker></defs>
  <rect x="0.00" y="0.00" width="400.00" height="300.00" fill="white" stroke="none" stroke-width="0" rx="0"  />
  <text x="200.00" y="30.00" font-family="Inter, sans-serif" font-size="16" font-weight="bold" fill="#1e293b" text-anchor="middle" dominant-baseline="middle">1 Solución Real</text>
  <line x1="60.00" y1="240.00" x2="60.00" y2="60.00" stroke="#e2e8f0" stroke-width="0.5"  />
  <line x1="200.00" y1="240.00" x2="200.00" y2="60.00" stroke="#e2e8f0" stroke-width="0.5"  />
  <line x1="270.00" y1="240.00" x2="270.00" y2="60.00" stroke="#e2e8f0" stroke-width="0.5"  />
  <line x1="340.00" y1="240.00" x2="340.00" y2="60.00" stroke="#e2e8f0" stroke-width="0.5"  />
  <line x1="60.00" y1="240.00" x2="340.00" y2="240.00" stroke="#e2e8f0" stroke-width="0.5"  />
  <line x1="60.00" y1="168.00" x2="340.00" y2="168.00" stroke="#e2e8f0" stroke-width="0.5"  />
  <line x1="60.00" y1="132.00" x2="340.00" y2="132.00" stroke="#e2e8f0" stroke-width="0.5"  />
  <line x1="60.00" y1="96.00" x2="340.00" y2="96.00" stroke="#e2e8f0" stroke-width="0.5"  />
  <line x1="60.00" y1="60.00" x2="340.00" y2="60.00" stroke="#e2e8f0" stroke-width="0.5"  />
  <line x1="60.00" y1="204.00" x2="340.00" y2="204.00" stroke="#64748b" stroke-width="2"  marker-end="url(#arrow-64748b-10)"/>
  <line x1="130.00" y1="240.00" x2="130.00" y2="60.00" stroke="#64748b" stroke-width="2"  marker-end="url(#arrow-64748b-10)"/>
  <text x="335.00" y="224.00" font-family="Inter, sans-serif" font-size="14" font-weight="bold" fill="#64748b" text-anchor="middle" dominant-baseline="middle">x</text>
  <text x="110.00" y="70.00" font-family="Inter, sans-serif" font-size="14" font-weight="bold" fill="#64748b" text-anchor="middle" dominant-baseline="middle">y</text>
  <line x1="60.00" y1="199.00" x2="60.00" y2="209.00" stroke="#64748b" stroke-width="1"  />
  <text x="60.00" y="222.00" font-family="Inter, sans-serif" font-size="11" font-weight="normal" fill="#64748b" text-anchor="middle" dominant-baseline="middle">-1</text>
  <line x1="200.00" y1="199.00" x2="200.00" y2="209.00" stroke="#64748b" stroke-width="1"  />
  <text x="200.00" y="222.00" font-family="Inter, sans-serif" font-size="11" font-weight="normal" fill="#64748b" text-anchor="middle" dominant-baseline="middle">1</text>
  <line x1="270.00" y1="199.00" x2="270.00" y2="209.00" stroke="#64748b" stroke-width="1"  />
  <text x="270.00" y="222.00" font-family="Inter, sans-serif" font-size="11" font-weight="normal" fill="#64748b" text-anchor="middle" dominant-baseline="middle">2</text>
  <line x1="340.00" y1="199.00" x2="340.00" y2="209.00" stroke="#64748b" stroke-width="1"  />
  <text x="340.00" y="222.00" font-family="Inter, sans-serif" font-size="11" font-weight="normal" fill="#64748b" text-anchor="middle" dominant-baseline="middle">3</text>
  <line x1="125.00" y1="240.00" x2="135.00" y2="240.00" stroke="#64748b" stroke-width="1"  />
  <text x="115.00" y="240.00" font-family="Inter, sans-serif" font-size="11" font-weight="normal" fill="#64748b" text-anchor="end" dominant-baseline="middle">-1</text>
  <line x1="125.00" y1="168.00" x2="135.00" y2="168.00" stroke="#64748b" stroke-width="1"  />
  <text x="115.00" y="168.00" font-family="Inter, sans-serif" font-size="11" font-weight="normal" fill="#64748b" text-anchor="end" dominant-baseline="middle">1</text>
  <line x1="125.00" y1="132.00" x2="135.00" y2="132.00" stroke="#64748b" stroke-width="1"  />
  <text x="115.00" y="132.00" font-family="Inter, sans-serif" font-size="11" font-weight="normal" fill="#64748b" text-anchor="end" dominant-baseline="middle">2</text>
  <line x1="125.00" y1="96.00" x2="135.00" y2="96.00" stroke="#64748b" stroke-width="1"  />
  <text x="115.00" y="96.00" font-family="Inter, sans-serif" font-size="11" font-weight="normal" fill="#64748b" text-anchor="end" dominant-baseline="middle">3</text>
  <line x1="125.00" y1="60.00" x2="135.00" y2="60.00" stroke="#64748b" stroke-width="1"  />
  <text x="115.00" y="60.00" font-family="Inter, sans-serif" font-size="11" font-weight="normal" fill="#64748b" text-anchor="end" dominant-baseline="middle">4</text>
  <text x="118.00" y="219.00" font-family="Inter, sans-serif" font-size="11" font-weight="normal" fill="#64748b" text-anchor="middle" dominant-baseline="middle">O</text>
  <polyline points="60.00,60.00 62.83,65.76 65.66,71.40 68.48,76.93 71.31,82.33 74.14,87.62 76.97,92.79 79.80,97.85 82.63,102.78 85.45,107.60 88.28,112.30 91.11,116.89 93.94,121.36 96.77,125.70 99.60,129.94 102.42,134.05 105.25,138.05 108.08,141.92 110.91,145.69 113.74,149.33 116.57,152.86 119.39,156.26 122.22,159.56 125.05,162.73 127.88,165.79 130.71,168.72 133.54,171.54 136.36,174.25 139.19,176.83 142.02,179.30 144.85,181.65 147.68,183.89 150.51,186.00 153.33,188.00 156.16,189.88 158.99,191.64 161.82,193.29 164.65,194.82 167.47,196.23 170.30,197.52 173.13,198.70 175.96,199.75 178.79,200.69 181.62,201.52 184.44,202.22 187.27,202.81 190.10,203.28 192.93,203.63 195.76,203.87 198.59,203.99 201.41,203.99 204.24,203.87 207.07,203.63 209.90,203.28 212.73,202.81 215.56,202.22 218.38,201.52 221.21,200.69 224.04,199.75 226.87,198.70 229.70,197.52 232.53,196.23 235.35,194.82 238.18,193.29 241.01,191.64 243.84,189.88 246.67,188.00 249.49,186.00 252.32,183.89 255.15,181.65 257.98,179.30 260.81,176.83 263.64,174.25 266.46,171.54 269.29,168.72 272.12,165.79 274.95,162.73 277.78,159.56 280.61,156.26 283.43,152.86 286.26,149.33 289.09,145.69 291.92,141.92 294.75,138.05 297.58,134.05 300.40,129.94 303.23,125.70 306.06,121.36 308.89,116.89 311.72,112.30 314.55,107.60 317.37,102.78 320.20,97.85 323.03,92.79 325.86,87.62 328.69,82.33 331.52,76.93 334.34,71.40 337.17,65.76 340.00,60.00" fill="none" stroke="#22c55e" stroke-width="3"  stroke-linecap="round" stroke-linejoin="round"/>
  <circle cx="200.00" cy="204.00" r="9" fill="white" />
  <circle cx="200.00" cy="204.00" r="5" fill="#ef4444" stroke="white" stroke-width="2"/>
</svg>