<svg xmlns="http://www.w3.org/2000/svg" viewBox="0 0 400 300">
  <defs>
        <marker id="arrow-64748b-10" markerWidth="10" markerHeight="10" 
                refX="9.0" refY="5.0" orient="auto"
                markerUnits="userSpaceOnUse">
            <polygon points="0,0 10,5.0 0,10" fill="#64748b"/>
        </marker>

        <marker id="arrow-64748b-10" markerWidth="10" markerHeight="10" 
                refX="9.0" refY="5.0" orient="auto"
                markerUnits="userSpaceOnUse">
            <polygon points="0,0 10,5.0 0,10" fill="#64748b"/>
        </marker></defs>
  <rect x="0.00" y="0.00" width="400.00" height="300.00" fill="white" stroke="none" stroke-width="0" rx="0"  />
  <text x="200.00" y="30.00" font-family="Inter, sans-serif" font-size="16" font-weight="bold" fill="#1e293b" text-anchor="middle" dominant-baseline="middle">0 Soluciones Reales</text>
  <line x1="60.00" y1="240.00" x2="60.00" y2="60.00" stroke="#e2e8f0" stroke-width="0.5"  />
  <line x1="130.00" y1="240.00" x2="130.00" y2="60.00" stroke="#e2e8f0" stroke-width="0.5"  />
  <line x1="270.00" y1="240.00" x2="270.00" y2="60.00" stroke="#e2e8f0" stroke-width="0.5"  />
  <line x1="340.00" y1="240.00" x2="340.00" y2="60.00" stroke="#e2e8f0" stroke-width="0.5"  />
  <line x1="60.00" y1="240.00" x2="340.00" y2="240.00" stroke="#e2e8f0" stroke-width="0.5"  />
  <line x1="60.00" y1="180.00" x2="340.00" y2="180.00" stroke="#e2e8f0" stroke-width="0.5"  />
  <line x1="60.00" y1="150.00" x2="340.00" y2="150.00" stroke="#e2e8f0" stroke-width="0.5"  />
  <line x1="60.00" y1="120.00" x2="340.00" y2="120.00" stroke="#e2e8f0" stroke-width="0.5"  />
  <line x1="60.00" y1="90.00" x2="340.00" y2="90.00" stroke="#e2e8f0" stroke-width="0.5"  />
  <line x1="60.00" y1="60.00" x2="340.00" y2="60.00" stroke="#e2e8f0" stroke-width="0.5"  />
  <line x1="60.00" y1="210.00" x2="340.00" y2="210.00" stroke="#64748b" stroke-width="2"  marker-end="url(#arrow-64748b-10)"/>
  <line x1="200.00" y1="240.00" x2="200.00" y2="60.00" stroke="#64748b" stroke-width="2"  marker-end="url(#arrow-64748b-10)"/>
  <text x="335.00" y="230.00" font-family="Inter, sans-serif" font-size="14" font-weight="bold" fill="#64748b" text-anchor="middle" dominant-baseline="middle">x</text>
  <text x="180.00" y="70.00" font-family="Inter, sans-serif" font-size="14" font-weight="bold" fill="#64748b" text-anchor="middle" dominant-baseline="middle">y</text>
  <line x1="60.00" y1="205.00" x2="60.00" y2="215.00" stroke="#64748b" stroke-width="1"  />
  <text x="60.00" y="228.00" font-family="Inter, sans-serif" font-size="11" font-weight="normal" fill="#64748b" text-anchor="middle" dominant-baseline="middle">-2</text>
  <line x1="130.00" y1="205.00" x2="130.00" y2="215.00" stroke="#64748b" stroke-width="1"  />
  <text x="130.00" y="228.00" font-family="Inter, sans-serif" font-size="11" font-weight="normal" fill="#64748b" text-anchor="middle" dominant-baseline="middle">-1</text>
  <line x1="270.00" y1="205.00" x2="270.00" y2="215.00" stroke="#64748b" stroke-width="1"  />
  <text x="270.00" y="228.00" font-family="Inter, sans-serif" font-size="11" font-weight="normal" fill="#64748b" text-anchor="middle" dominant-baseline="middle">1</text>
  <line x1="340.00" y1="205.00" x2="340.00" y2="215.00" stroke="#64748b" stroke-width="1"  />
  <text x="340.00" y="228.00" font-family="Inter, sans-serif" font-size="11" font-weight="normal" fill="#64748b" text-anchor="middle" dominant-baseline="middle">2</text>
  <line x1="195.00" y1="240.00" x2="205.00" y2="240.00" stroke="#64748b" stroke-width="1"  />
  <text x="185.00" y="240.00" font-family="Inter, sans-serif" font-size="11" font-weight="normal" fill="#64748b" text-anchor="end" dominant-baseline="middle">-1</text>
  <line x1="195.00" y1="180.00" x2="205.00" y2="180.00" stroke="#64748b" stroke-width="1"  />
  <text x="185.00" y="180.00" font-family="Inter, sans-serif" font-size="11" font-weight="normal" fill="#64748b" text-anchor="end" dominant-baseline="middle">1</text>
  <line x1="195.00" y1="150.00" x2="205.00" y2="150.00" stroke="#64748b" stroke-width="1"  />
  <text x="185.00" y="150.00" font-family="Inter, sans-serif" font-size="11" font-weight="normal" fill="#64748b" text-anchor="end" dominant-baseline="middle">2</text>
  <line x1="195.00" y1="120.00" x2="205.00" y2="120.00" stroke="#64748b" stroke-width="1"  />
  <text x="185.00" y="120.00" font-family="Inter, sans-serif" font-size="11" font-weight="normal" fill="#64748b" text-anchor="end" dominant-baseline="middle">3</text>
  <line x1="195.00" y1="90.00" x2="205.00" y2="90.00" stroke="#64748b" stroke-width="1"  />
  <text x="185.00" y="90.00" font-family="Inter, sans-serif" font-size="11" font-weight="normal" fill="#64748b" text-anchor="end" dominant-baseline="middle">4</text>
  <line x1="195.00" y1="60.00" x2="205.00" y2="60.00" stroke="#64748b" stroke-width="1"  />
  <text x="185.00" y="60.00" font-family="Inter, sans-serif" font-size="11" font-weight="normal" fill="#64748b" text-anchor="end" dominant-baseline="middle">5</text>
  <text x="188.00" y="225.00" font-family="Inter, sans-serif" font-size="11" font-weight="normal" fill="#64748b" text-anchor="middle" dominant-baseline="middle">O</text>
  <polyline points="60.00,60.00 62.83,64.80 65.66,69.50 68.48,74.10 71.31,78.61 74.14,83.02 76.97,87.33 79.80,91.54 82.63,95.65 85.45,99.67 88.28,103.59 91.11,107.41 93.94,111.13 96.77,114.75 99.60,118.28 102.42,121.71 105.25,125.04 108.08,128.27 110.91,131.40 113.74,134.44 116.57,137.38 119.39,140.22 122.22,142.96 125.05,145.61 127.88,148.15 130.71,150.60 133.54,152.95 136.36,155.21 139.19,157.36 142.02,159.42 144.85,161.38 147.68,163.24 150.51,165.00 153.33,166.67 156.16,168.23 158.99,169.70 161.82,171.07 164.65,172.35 167.47,173.52 170.30,174.60 173.13,175.58 175.96,176.46 178.79,177.25 181.62,177.93 184.44,178.52 187.27,179.01 190.10,179.40 192.93,179.69 195.76,179.89 198.59,179.99 201.41,179.99 204.24,179.89 207.07,179.69 209.90,179.40 212.73,179.01 215.56,178.52 218.38,177.93 221.21,177.25 224.04,176.46 226.87,175.58 229.70,174.60 232.53,173.52 235.35,172.35 238.18,171.07 241.01,169.70 243.84,168.23 246.67,166.67 249.49,165.00 252.32,163.24 255.15,161.38 257.98,159.42 260.81,157.36 263.64,155.21 266.46,152.95 269.29,150.60 272.12,148.15 274.95,145.61 277.78,142.96 280.61,140.22 283.43,137.38 286.26,134.44 289.09,131.40 291.92,128.27 294.75,125.04 297.58,121.71 300.40,118.28 303.23,114.75 306.06,111.13 308.89,107.41 311.72,103.59 314.55,99.67 317.37,95.65 320.20,91.54 323.03,87.33 325.86,83.02 328.69,78.61 331.52,74.10 334.34,69.50 337.17,64.80 340.00,60.00" fill="none" stroke="#f97316" stroke-width="3"  stroke-linecap="round" stroke-linejoin="round"/>
</svg>