<svg xmlns="http://www.w3.org/2000/svg" viewBox="0 0 400 300">
  <defs>
        <marker id="arrow-64748b-10" markerWidth="10" markerHeight="10" 
                refX="9.0" refY="5.0" orient="auto"
                markerUnits="userSpaceOnUse">
            <polygon points="0,0 10,5.0 0,10" fill="#64748b"/>
        </marker>

        <marker id="arrow-64748b-10" markerWidth="10" markerHeight="10" 
                refX="9.0" refY="5.0" orient="auto"
                markerUnits="userSpaceOnUse">
            <polygon points="0,0 10,5.0 0,10" fill="#64748b"/>
        </marker></defs>
  <rect x="0.00" y="0.00" width="400.00" height="300.00" fill="white" stroke="none" stroke-width="0" rx="0"  />
  <text x="200.00" y="30.00" font-family="Inter, sans-serif" font-size="16" font-weight="bold" fill="#1e293b" text-anchor="middle" dominant-baseline="middle">2 Soluciones Reales</text>
  <line x1="60.00" y1="240.00" x2="60.00" y2="60.00" stroke="#e2e8f0" stroke-width="0.5"  />
  <line x1="106.67" y1="240.00" x2="106.67" y2="60.00" stroke="#e2e8f0" stroke-width="0.5"  />
  <line x1="200.00" y1="240.00" x2="200.00" y2="60.00" stroke="#e2e8f0" stroke-width="0.5"  />
  <line x1="246.67" y1="240.00" x2="246.67" y2="60.00" stroke="#e2e8f0" stroke-width="0.5"  />
  <line x1="293.33" y1="240.00" x2="293.33" y2="60.00" stroke="#e2e8f0" stroke-width="0.5"  />
  <line x1="340.00" y1="240.00" x2="340.00" y2="60.00" stroke="#e2e8f0" stroke-width="0.5"  />
  <line x1="60.00" y1="240.00" x2="340.00" y2="240.00" stroke="#e2e8f0" stroke-width="0.5"  />
  <line x1="60.00" y1="210.00" x2="340.00" y2="210.00" stroke="#e2e8f0" stroke-width="0.5"  />
  <line x1="60.00" y1="150.00" x2="340.00" y2="150.00" stroke="#e2e8f0" stroke-width="0.5"  />
  <line x1="60.00" y1="120.00" x2="340.00" y2="120.00" stroke="#e2e8f0" stroke-width="0.5"  />
  <line x1="60.00" y1="90.00" x2="340.00" y2="90.00" stroke="#e2e8f0" stroke-width="0.5"  />
  <line x1="60.00" y1="60.00" x2="340.00" y2="60.00" stroke="#e2e8f0" stroke-width="0.5"  />
  <line x1="60.00" y1="180.00" x2="340.00" y2="180.00" stroke="#64748b" stroke-width="2"  marker-end="url(#arrow-64748b-10)"/>
  <line x1="153.33" y1="240.00" x2="153.33" y2="60.00" stroke="#64748b" stroke-width="2"  marker-end="url(#arrow-64748b-10)"/>
  <text x="335.00" y="200.00" font-family="Inter, sans-serif" font-size="14" font-weight="bold" fill="#64748b" text-anchor="middle" dominant-baseline="middle">x</text>
  <text x="133.33" y="70.00" font-family="Inter, sans-serif" font-size="14" font-weight="bold" fill="#64748b" text-anchor="middle" dominant-baseline="middle">y</text>
  <line x1="60.00" y1="175.00" x2="60.00" y2="185.00" stroke="#64748b" stroke-width="1"  />
  <text x="60.00" y="198.00" font-family="Inter, sans-serif" font-size="11" font-weight="normal" fill="#64748b" text-anchor="middle" dominant-baseline="middle">-2</text>
  <line x1="106.67" y1="175.00" x2="106.67" y2="185.00" stroke="#64748b" stroke-width="1"  />
  <text x="106.67" y="198.00" font-family="Inter, sans-serif" font-size="11" font-weight="normal" fill="#64748b" text-anchor="middle" dominant-baseline="middle">-1</text>
  <line x1="200.00" y1="175.00" x2="200.00" y2="185.00" stroke="#64748b" stroke-width="1"  />
  <text x="200.00" y="198.00" font-family="Inter, sans-serif" font-size="11" font-weight="normal" fill="#64748b" text-anchor="middle" dominant-baseline="middle">1</text>
  <line x1="246.67" y1="175.00" x2="246.67" y2="185.00" stroke="#64748b" stroke-width="1"  />
  <text x="246.67" y="198.00" font-family="Inter, sans-serif" font-size="11" font-weight="normal" fill="#64748b" text-anchor="middle" dominant-baseline="middle">2</text>
  <line x1="293.33" y1="175.00" x2="293.33" y2="185.00" stroke="#64748b" stroke-width="1"  />
  <text x="293.33" y="198.00" font-family="Inter, sans-serif" font-size="11" font-weight="normal" fill="#64748b" text-anchor="middle" dominant-baseline="middle">3</text>
  <line x1="340.00" y1="175.00" x2="340.00" y2="185.00" stroke="#64748b" stroke-width="1"  />
  <text x="340.00" y="198.00" font-family="Inter, sans-serif" font-size="11" font-weight="normal" fill="#64748b" text-anchor="middle" dominant-baseline="middle">4</text>
  <line x1="148.33" y1="240.00" x2="158.33" y2="240.00" stroke="#64748b" stroke-width="1"  />
  <text x="138.33" y="240.00" font-family="Inter, sans-serif" font-size="11" font-weight="normal" fill="#64748b" text-anchor="end" dominant-baseline="middle">-2</text>
  <line x1="148.33" y1="210.00" x2="158.33" y2="210.00" stroke="#64748b" stroke-width="1"  />
  <text x="138.33" y="210.00" font-family="Inter, sans-serif" font-size="11" font-weight="normal" fill="#64748b" text-anchor="end" dominant-baseline="middle">-1</text>
  <line x1="148.33" y1="150.00" x2="158.33" y2="150.00" stroke="#64748b" stroke-width="1"  />
  <text x="138.33" y="150.00" font-family="Inter, sans-serif" font-size="11" font-weight="normal" fill="#64748b" text-anchor="end" dominant-baseline="middle">1</text>
  <line x1="148.33" y1="120.00" x2="158.33" y2="120.00" stroke="#64748b" stroke-width="1"  />
  <text x="138.33" y="120.00" font-family="Inter, sans-serif" font-size="11" font-weight="normal" fill="#64748b" text-anchor="end" dominant-baseline="middle">2</text>
  <line x1="148.33" y1="90.00" x2="158.33" y2="90.00" stroke="#64748b" stroke-width="1"  />
  <text x="138.33" y="90.00" font-family="Inter, sans-serif" font-size="11" font-weight="normal" fill="#64748b" text-anchor="end" dominant-baseline="middle">3</text>
  <line x1="148.33" y1="60.00" x2="158.33" y2="60.00" stroke="#64748b" stroke-width="1"  />
  <text x="138.33" y="60.00" font-family="Inter, sans-serif" font-size="11" font-weight="normal" fill="#64748b" text-anchor="end" dominant-baseline="middle">4</text>
  <text x="141.33" y="195.00" font-family="Inter, sans-serif" font-size="11" font-weight="normal" fill="#64748b" text-anchor="middle" dominant-baseline="middle">O</text>
  <polyline points="60.00,-60.00 62.83,-49.20 65.66,-38.62 68.48,-28.26 71.31,-18.13 74.14,-8.21 76.97,1.49 79.80,10.96 82.63,20.22 85.45,29.26 88.28,38.07 91.11,46.67 93.94,55.04 96.77,63.20 99.60,71.13 102.42,78.84 105.25,86.34 108.08,93.61 110.91,100.66 113.74,107.49 116.57,114.10 119.39,120.50 122.22,126.67 125.05,132.62 127.88,138.35 130.71,143.86 133.54,149.15 136.36,154.21 139.19,159.06 142.02,163.69 144.85,168.10 147.68,172.29 150.51,176.25 153.33,180.00 156.16,183.53 158.99,186.83 161.82,189.92 164.65,192.78 167.47,195.43 170.30,197.85 173.13,200.06 175.96,202.04 178.79,203.80 181.62,205.34 184.44,206.67 187.27,207.77 190.10,208.65 192.93,209.31 195.76,209.75 198.59,209.97 201.41,209.97 204.24,209.75 207.07,209.31 209.90,208.65 212.73,207.77 215.56,206.67 218.38,205.34 221.21,203.80 224.04,202.04 226.87,200.06 229.70,197.85 232.53,195.43 235.35,192.78 238.18,189.92 241.01,186.83 243.84,183.53 246.67,180.00 249.49,176.25 252.32,172.29 255.15,168.10 257.98,163.69 260.81,159.06 263.64,154.21 266.46,149.15 269.29,143.86 272.12,138.35 274.95,132.62 277.78,126.67 280.61,120.50 283.43,114.10 286.26,107.49 289.09,100.66 291.92,93.61 294.75,86.34 297.58,78.84 300.40,71.13 303.23,63.20 306.06,55.04 308.89,46.67 311.72,38.07 314.55,29.26 317.37,20.22 320.20,10.96 323.03,1.49 325.86,-8.21 328.69,-18.13 331.52,-28.26 334.34,-38.62 337.17,-49.20 340.00,-60.00" fill="none" stroke="#3b82f6" stroke-width="3"  stroke-linecap="round" stroke-linejoin="round"/>
  <circle cx="153.33" cy="180.00" r="9" fill="white" />
  <circle cx="153.33" cy="180.00" r="5" fill="#ef4444" stroke="white" stroke-width="2"/>
  <circle cx="246.67" cy="180.00" r="9" fill="white" />
  <circle cx="246.67" cy="180.00" r="5" fill="#ef4444" stroke="white" stroke-width="2"/>
</svg>