<svg xmlns="http://www.w3.org/2000/svg" viewBox="0 0 600 400">
  <defs>
        <marker id="arrow-64748b-10" markerWidth="10" markerHeight="10" 
                refX="9.0" refY="5.0" orient="auto"
                markerUnits="userSpaceOnUse">
            <polygon points="0,0 10,5.0 0,10" fill="#64748b"/>
        </marker>

        <marker id="arrow-64748b-10" markerWidth="10" markerHeight="10" 
                refX="9.0" refY="5.0" orient="auto"
                markerUnits="userSpaceOnUse">
            <polygon points="0,0 10,5.0 0,10" fill="#64748b"/>
        </marker></defs>
  <rect x="0.00" y="0.00" width="600.00" height="400.00" fill="white" stroke="none" stroke-width="0" rx="0"  />
  <text x="300.00" y="30.00" font-family="Inter, sans-serif" font-size="16" font-weight="bold" fill="#1e293b" text-anchor="middle" dominant-baseline="middle">Efecto de |a| en la Apertura</text>
  <line x1="60.00" y1="340.00" x2="60.00" y2="60.00" stroke="#e2e8f0" stroke-width="0.5"  />
  <line x1="120.00" y1="340.00" x2="120.00" y2="60.00" stroke="#e2e8f0" stroke-width="0.5"  />
  <line x1="180.00" y1="340.00" x2="180.00" y2="60.00" stroke="#e2e8f0" stroke-width="0.5"  />
  <line x1="240.00" y1="340.00" x2="240.00" y2="60.00" stroke="#e2e8f0" stroke-width="0.5"  />
  <line x1="360.00" y1="340.00" x2="360.00" y2="60.00" stroke="#e2e8f0" stroke-width="0.5"  />
  <line x1="420.00" y1="340.00" x2="420.00" y2="60.00" stroke="#e2e8f0" stroke-width="0.5"  />
  <line x1="480.00" y1="340.00" x2="480.00" y2="60.00" stroke="#e2e8f0" stroke-width="0.5"  />
  <line x1="540.00" y1="340.00" x2="540.00" y2="60.00" stroke="#e2e8f0" stroke-width="0.5"  />
  <line x1="60.00" y1="312.00" x2="540.00" y2="312.00" stroke="#e2e8f0" stroke-width="0.5"  />
  <line x1="60.00" y1="284.00" x2="540.00" y2="284.00" stroke="#e2e8f0" stroke-width="0.5"  />
  <line x1="60.00" y1="256.00" x2="540.00" y2="256.00" stroke="#e2e8f0" stroke-width="0.5"  />
  <line x1="60.00" y1="228.00" x2="540.00" y2="228.00" stroke="#e2e8f0" stroke-width="0.5"  />
  <line x1="60.00" y1="200.00" x2="540.00" y2="200.00" stroke="#e2e8f0" stroke-width="0.5"  />
  <line x1="60.00" y1="172.00" x2="540.00" y2="172.00" stroke="#e2e8f0" stroke-width="0.5"  />
  <line x1="60.00" y1="144.00" x2="540.00" y2="144.00" stroke="#e2e8f0" stroke-width="0.5"  />
  <line x1="60.00" y1="116.00" x2="540.00" y2="116.00" stroke="#e2e8f0" stroke-width="0.5"  />
  <line x1="60.00" y1="88.00" x2="540.00" y2="88.00" stroke="#e2e8f0" stroke-width="0.5"  />
  <line x1="60.00" y1="60.00" x2="540.00" y2="60.00" stroke="#e2e8f0" stroke-width="0.5"  />
  <line x1="60.00" y1="340.00" x2="540.00" y2="340.00" stroke="#64748b" stroke-width="2"  marker-end="url(#arrow-64748b-10)"/>
  <line x1="300.00" y1="340.00" x2="300.00" y2="60.00" stroke="#64748b" stroke-width="2"  marker-end="url(#arrow-64748b-10)"/>
  <text x="535.00" y="360.00" font-family="Inter, sans-serif" font-size="14" font-weight="bold" fill="#64748b" text-anchor="middle" dominant-baseline="middle">x</text>
  <text x="280.00" y="70.00" font-family="Inter, sans-serif" font-size="14" font-weight="bold" fill="#64748b" text-anchor="middle" dominant-baseline="middle">y</text>
  <line x1="60.00" y1="335.00" x2="60.00" y2="345.00" stroke="#64748b" stroke-width="1"  />
  <text x="60.00" y="358.00" font-family="Inter, sans-serif" font-size="11" font-weight="normal" fill="#64748b" text-anchor="middle" dominant-baseline="middle">-4</text>
  <line x1="120.00" y1="335.00" x2="120.00" y2="345.00" stroke="#64748b" stroke-width="1"  />
  <text x="120.00" y="358.00" font-family="Inter, sans-serif" font-size="11" font-weight="normal" fill="#64748b" text-anchor="middle" dominant-baseline="middle">-3</text>
  <line x1="180.00" y1="335.00" x2="180.00" y2="345.00" stroke="#64748b" stroke-width="1"  />
  <text x="180.00" y="358.00" font-family="Inter, sans-serif" font-size="11" font-weight="normal" fill="#64748b" text-anchor="middle" dominant-baseline="middle">-2</text>
  <line x1="240.00" y1="335.00" x2="240.00" y2="345.00" stroke="#64748b" stroke-width="1"  />
  <text x="240.00" y="358.00" font-family="Inter, sans-serif" font-size="11" font-weight="normal" fill="#64748b" text-anchor="middle" dominant-baseline="middle">-1</text>
  <line x1="360.00" y1="335.00" x2="360.00" y2="345.00" stroke="#64748b" stroke-width="1"  />
  <text x="360.00" y="358.00" font-family="Inter, sans-serif" font-size="11" font-weight="normal" fill="#64748b" text-anchor="middle" dominant-baseline="middle">1</text>
  <line x1="420.00" y1="335.00" x2="420.00" y2="345.00" stroke="#64748b" stroke-width="1"  />
  <text x="420.00" y="358.00" font-family="Inter, sans-serif" font-size="11" font-weight="normal" fill="#64748b" text-anchor="middle" dominant-baseline="middle">2</text>
  <line x1="480.00" y1="335.00" x2="480.00" y2="345.00" stroke="#64748b" stroke-width="1"  />
  <text x="480.00" y="358.00" font-family="Inter, sans-serif" font-size="11" font-weight="normal" fill="#64748b" text-anchor="middle" dominant-baseline="middle">3</text>
  <line x1="540.00" y1="335.00" x2="540.00" y2="345.00" stroke="#64748b" stroke-width="1"  />
  <text x="540.00" y="358.00" font-family="Inter, sans-serif" font-size="11" font-weight="normal" fill="#64748b" text-anchor="middle" dominant-baseline="middle">4</text>
  <line x1="295.00" y1="312.00" x2="305.00" y2="312.00" stroke="#64748b" stroke-width="1"  />
  <text x="285.00" y="312.00" font-family="Inter, sans-serif" font-size="11" font-weight="normal" fill="#64748b" text-anchor="end" dominant-baseline="middle">1</text>
  <line x1="295.00" y1="284.00" x2="305.00" y2="284.00" stroke="#64748b" stroke-width="1"  />
  <text x="285.00" y="284.00" font-family="Inter, sans-serif" font-size="11" font-weight="normal" fill="#64748b" text-anchor="end" dominant-baseline="middle">2</text>
  <line x1="295.00" y1="256.00" x2="305.00" y2="256.00" stroke="#64748b" stroke-width="1"  />
  <text x="285.00" y="256.00" font-family="Inter, sans-serif" font-size="11" font-weight="normal" fill="#64748b" text-anchor="end" dominant-baseline="middle">3</text>
  <line x1="295.00" y1="228.00" x2="305.00" y2="228.00" stroke="#64748b" stroke-width="1"  />
  <text x="285.00" y="228.00" font-family="Inter, sans-serif" font-size="11" font-weight="normal" fill="#64748b" text-anchor="end" dominant-baseline="middle">4</text>
  <line x1="295.00" y1="200.00" x2="305.00" y2="200.00" stroke="#64748b" stroke-width="1"  />
  <text x="285.00" y="200.00" font-family="Inter, sans-serif" font-size="11" font-weight="normal" fill="#64748b" text-anchor="end" dominant-baseline="middle">5</text>
  <line x1="295.00" y1="172.00" x2="305.00" y2="172.00" stroke="#64748b" stroke-width="1"  />
  <text x="285.00" y="172.00" font-family="Inter, sans-serif" font-size="11" font-weight="normal" fill="#64748b" text-anchor="end" dominant-baseline="middle">6</text>
  <line x1="295.00" y1="144.00" x2="305.00" y2="144.00" stroke="#64748b" stroke-width="1"  />
  <text x="285.00" y="144.00" font-family="Inter, sans-serif" font-size="11" font-weight="normal" fill="#64748b" text-anchor="end" dominant-baseline="middle">7</text>
  <line x1="295.00" y1="116.00" x2="305.00" y2="116.00" stroke="#64748b" stroke-width="1"  />
  <text x="285.00" y="116.00" font-family="Inter, sans-serif" font-size="11" font-weight="normal" fill="#64748b" text-anchor="end" dominant-baseline="middle">8</text>
  <line x1="295.00" y1="88.00" x2="305.00" y2="88.00" stroke="#64748b" stroke-width="1"  />
  <text x="285.00" y="88.00" font-family="Inter, sans-serif" font-size="11" font-weight="normal" fill="#64748b" text-anchor="end" dominant-baseline="middle">9</text>
  <line x1="295.00" y1="60.00" x2="305.00" y2="60.00" stroke="#64748b" stroke-width="1"  />
  <text x="285.00" y="60.00" font-family="Inter, sans-serif" font-size="11" font-weight="normal" fill="#64748b" text-anchor="end" dominant-baseline="middle">10</text>
  <text x="288.00" y="355.00" font-family="Inter, sans-serif" font-size="11" font-weight="normal" fill="#64748b" text-anchor="middle" dominant-baseline="middle">O</text>
  <polyline points="69.70,-72.53 74.55,-55.34 79.39,-38.52 84.24,-22.07 89.09,-5.98 93.94,9.75 98.79,25.11 103.64,40.10 108.48,54.73 113.33,68.99 118.18,82.88 123.03,96.41 127.88,109.58 132.73,122.38 137.58,134.81 142.42,146.88 147.27,158.58 152.12,169.91 156.97,180.88 161.82,191.49 166.67,201.73 171.52,211.60 176.36,221.11 181.21,230.25 186.06,239.03 190.91,247.44 195.76,255.48 200.61,263.16 205.45,270.48 210.30,277.42 215.15,284.01 220.00,290.22 224.85,296.07 229.70,301.56 234.55,306.68 239.39,311.43 244.24,315.82 249.09,319.84 253.94,323.50 258.79,326.79 263.64,329.72 268.48,332.28 273.33,334.47 278.18,336.30 283.03,337.76 287.88,338.86 292.73,339.59 297.58,339.95 302.42,339.95 307.27,339.59 312.12,338.86 316.97,337.76 321.82,336.30 326.67,334.47 331.52,332.28 336.36,329.72 341.21,326.79 346.06,323.50 350.91,319.84 355.76,315.82 360.61,311.43 365.45,306.68 370.30,301.56 375.15,296.07 380.00,290.22 384.85,284.01 389.70,277.42 394.55,270.48 399.39,263.16 404.24,255.48 409.09,247.44 413.94,239.03 418.79,230.25 423.64,221.11 428.48,211.60 433.33,201.73 438.18,191.49 443.03,180.88 447.88,169.91 452.73,158.58 457.58,146.88 462.42,134.81 467.27,122.38 472.12,109.58 476.97,96.41 481.82,82.88 486.67,68.99 491.52,54.73 496.36,40.10 501.21,25.11 506.06,9.75 510.91,-5.98 515.76,-22.07 520.61,-38.52 525.45,-55.34 530.30,-72.53" fill="none" stroke="#3b82f6" stroke-width="2"  stroke-linecap="round" stroke-linejoin="round"/>
  <polyline points="186.06,-63.89 190.91,-30.25 195.76,1.93 200.61,32.65 205.45,61.90 210.30,89.69 215.15,116.02 220.00,140.89 224.85,164.29 229.70,186.23 234.55,206.71 239.39,225.73 244.24,243.28 249.09,259.37 253.94,274.00 258.79,287.16 263.64,298.86 268.48,309.10 273.33,317.88 278.18,325.19 283.03,331.04 287.88,335.43 292.73,338.35 297.58,339.82 302.42,339.82 307.27,338.35 312.12,335.43 316.97,331.04 321.82,325.19 326.67,317.88 331.52,309.10 336.36,298.86 341.21,287.16 346.06,274.00 350.91,259.37 355.76,243.28 360.61,225.73 365.45,206.71 370.30,186.23 375.15,164.29 380.00,140.89 384.85,116.02 389.70,89.69 394.55,61.90 399.39,32.65 404.24,1.93 409.09,-30.25 413.94,-63.89" fill="none" stroke="#ef4444" stroke-width="2"  stroke-linecap="round" stroke-linejoin="round"/>
  <polyline points="60.00,250.40 64.85,253.98 69.70,257.49 74.55,260.93 79.39,264.30 84.24,267.59 89.09,270.80 93.94,273.95 98.79,277.02 103.64,280.02 108.48,282.95 113.33,285.80 118.18,288.58 123.03,291.28 127.88,293.92 132.73,296.48 137.58,298.96 142.42,301.38 147.27,303.72 152.12,305.98 156.97,308.18 161.82,310.30 166.67,312.35 171.52,314.32 176.36,316.22 181.21,318.05 186.06,319.81 190.91,321.49 195.76,323.10 200.61,324.63 205.45,326.10 210.30,327.48 215.15,328.80 220.00,330.04 224.85,331.21 229.70,332.31 234.55,333.34 239.39,334.29 244.24,335.16 249.09,335.97 253.94,336.70 258.79,337.36 263.64,337.94 268.48,338.46 273.33,338.89 278.18,339.26 283.03,339.55 287.88,339.77 292.73,339.92 297.58,339.99 302.42,339.99 307.27,339.92 312.12,339.77 316.97,339.55 321.82,339.26 326.67,338.89 331.52,338.46 336.36,337.94 341.21,337.36 346.06,336.70 350.91,335.97 355.76,335.16 360.61,334.29 365.45,333.34 370.30,332.31 375.15,331.21 380.00,330.04 384.85,328.80 389.70,327.48 394.55,326.10 399.39,324.63 404.24,323.10 409.09,321.49 413.94,319.81 418.79,318.05 423.64,316.22 428.48,314.32 433.33,312.35 438.18,310.30 443.03,308.18 447.88,305.98 452.73,303.72 457.58,301.38 462.42,298.96 467.27,296.48 472.12,293.92 476.97,291.28 481.82,288.58 486.67,285.80 491.52,282.95 496.36,280.02 501.21,277.02 506.06,273.95 510.91,270.80 515.76,267.59 520.61,264.30 525.45,260.93 530.30,257.49 535.15,253.98 540.00,250.40" fill="none" stroke="#22c55e" stroke-width="2"  stroke-linecap="round" stroke-linejoin="round"/>
  <rect x="420.00" y="60.00" width="160.00" height="90.00" fill="white" stroke="#e2e8f0" stroke-width="0" rx="8"  />
  <line x1="435.00" y1="80.00" x2="465.00" y2="80.00" stroke="#3b82f6" stroke-width="3"  />
  <text x="475.00" y="84.00" font-family="Inter, sans-serif" font-size="11" font-weight="normal" fill="#1e293b" text-anchor="start" dominant-baseline="middle">a = 1 (Normal)</text>
  <line x1="435.00" y1="100.00" x2="465.00" y2="100.00" stroke="#ef4444" stroke-width="3"  />
  <text x="475.00" y="104.00" font-family="Inter, sans-serif" font-size="11" font-weight="normal" fill="#1e293b" text-anchor="start" dominant-baseline="middle">a = 4 (Estrecha)</text>
  <line x1="435.00" y1="120.00" x2="465.00" y2="120.00" stroke="#22c55e" stroke-width="3"  />
  <text x="475.00" y="124.00" font-family="Inter, sans-serif" font-size="11" font-weight="normal" fill="#1e293b" text-anchor="start" dominant-baseline="middle">a = 0.2 (Ancha)</text>
</svg>