<svg xmlns="http://www.w3.org/2000/svg" viewBox="0 0 600 400">
  <defs>
        <marker id="arrow-64748b-10" markerWidth="10" markerHeight="10" 
                refX="9.0" refY="5.0" orient="auto"
                markerUnits="userSpaceOnUse">
            <polygon points="0,0 10,5.0 0,10" fill="#64748b"/>
        </marker>

        <marker id="arrow-64748b-10" markerWidth="10" markerHeight="10" 
                refX="9.0" refY="5.0" orient="auto"
                markerUnits="userSpaceOnUse">
            <polygon points="0,0 10,5.0 0,10" fill="#64748b"/>
        </marker></defs>
  <rect x="0.00" y="0.00" width="600.00" height="400.00" fill="white" stroke="none" stroke-width="0" rx="0"/>
  <text x="300.00" y="30.00" font-family="Inter, sans-serif" font-size="16" font-weight="bold" fill="#1e293b" text-anchor="middle" dominant-baseline="middle">Distribución de Pesos (kg)</text>
  <line x1="80.87" y1="340.00" x2="80.87" y2="60.00" stroke="#e2e8f0" stroke-width="0.5"  />
  <line x1="153.91" y1="340.00" x2="153.91" y2="60.00" stroke="#e2e8f0" stroke-width="0.5"  />
  <line x1="226.96" y1="340.00" x2="226.96" y2="60.00" stroke="#e2e8f0" stroke-width="0.5"  />
  <line x1="300.00" y1="340.00" x2="300.00" y2="60.00" stroke="#e2e8f0" stroke-width="0.5"  />
  <line x1="373.04" y1="340.00" x2="373.04" y2="60.00" stroke="#e2e8f0" stroke-width="0.5"  />
  <line x1="446.09" y1="340.00" x2="446.09" y2="60.00" stroke="#e2e8f0" stroke-width="0.5"  />
  <line x1="519.13" y1="340.00" x2="519.13" y2="60.00" stroke="#e2e8f0" stroke-width="0.5"  />
  <line x1="60.00" y1="316.67" x2="540.00" y2="316.67" stroke="#e2e8f0" stroke-width="0.5"  />
  <line x1="60.00" y1="293.33" x2="540.00" y2="293.33" stroke="#e2e8f0" stroke-width="0.5"  />
  <line x1="60.00" y1="270.00" x2="540.00" y2="270.00" stroke="#e2e8f0" stroke-width="0.5"  />
  <line x1="60.00" y1="246.67" x2="540.00" y2="246.67" stroke="#e2e8f0" stroke-width="0.5"  />
  <line x1="60.00" y1="223.33" x2="540.00" y2="223.33" stroke="#e2e8f0" stroke-width="0.5"  />
  <line x1="60.00" y1="200.00" x2="540.00" y2="200.00" stroke="#e2e8f0" stroke-width="0.5"  />
  <line x1="60.00" y1="176.67" x2="540.00" y2="176.67" stroke="#e2e8f0" stroke-width="0.5"  />
  <line x1="60.00" y1="153.33" x2="540.00" y2="153.33" stroke="#e2e8f0" stroke-width="0.5"  />
  <line x1="60.00" y1="130.00" x2="540.00" y2="130.00" stroke="#e2e8f0" stroke-width="0.5"  />
  <line x1="60.00" y1="106.67" x2="540.00" y2="106.67" stroke="#e2e8f0" stroke-width="0.5"  />
  <line x1="60.00" y1="83.33" x2="540.00" y2="83.33" stroke="#e2e8f0" stroke-width="0.5"  />
  <line x1="60.00" y1="60.00" x2="540.00" y2="60.00" stroke="#e2e8f0" stroke-width="0.5"  />
  <line x1="60.00" y1="340.00" x2="540.00" y2="340.00" stroke="#64748b" stroke-width="2"  marker-end="url(#arrow-64748b-10)"/>
  <line x1="-461.74" y1="340.00" x2="-461.74" y2="60.00" stroke="#64748b" stroke-width="2"  marker-end="url(#arrow-64748b-10)"/>
  <text x="535.00" y="360.00" font-family="Inter, sans-serif" font-size="14" font-weight="bold" fill="#64748b" text-anchor="middle" dominant-baseline="middle">x</text>
  <text x="-481.74" y="70.00" font-family="Inter, sans-serif" font-size="14" font-weight="bold" fill="#64748b" text-anchor="middle" dominant-baseline="middle">y</text>
  <line x1="80.87" y1="335.00" x2="80.87" y2="345.00" stroke="#64748b" stroke-width="1"  />
  <text x="80.87" y="358.00" font-family="Inter, sans-serif" font-size="11" font-weight="normal" fill="#64748b" text-anchor="middle" dominant-baseline="middle">52</text>
  <line x1="153.91" y1="335.00" x2="153.91" y2="345.00" stroke="#64748b" stroke-width="1"  />
  <text x="153.91" y="358.00" font-family="Inter, sans-serif" font-size="11" font-weight="normal" fill="#64748b" text-anchor="middle" dominant-baseline="middle">59</text>
  <line x1="226.96" y1="335.00" x2="226.96" y2="345.00" stroke="#64748b" stroke-width="1"  />
  <text x="226.96" y="358.00" font-family="Inter, sans-serif" font-size="11" font-weight="normal" fill="#64748b" text-anchor="middle" dominant-baseline="middle">66</text>
  <line x1="300.00" y1="335.00" x2="300.00" y2="345.00" stroke="#64748b" stroke-width="1"  />
  <text x="300.00" y="358.00" font-family="Inter, sans-serif" font-size="11" font-weight="normal" fill="#64748b" text-anchor="middle" dominant-baseline="middle">73</text>
  <line x1="373.04" y1="335.00" x2="373.04" y2="345.00" stroke="#64748b" stroke-width="1"  />
  <text x="373.04" y="358.00" font-family="Inter, sans-serif" font-size="11" font-weight="normal" fill="#64748b" text-anchor="middle" dominant-baseline="middle">80</text>
  <line x1="446.09" y1="335.00" x2="446.09" y2="345.00" stroke="#64748b" stroke-width="1"  />
  <text x="446.09" y="358.00" font-family="Inter, sans-serif" font-size="11" font-weight="normal" fill="#64748b" text-anchor="middle" dominant-baseline="middle">87</text>
  <line x1="519.13" y1="335.00" x2="519.13" y2="345.00" stroke="#64748b" stroke-width="1"  />
  <text x="519.13" y="358.00" font-family="Inter, sans-serif" font-size="11" font-weight="normal" fill="#64748b" text-anchor="middle" dominant-baseline="middle">94</text>
  <line x1="-466.74" y1="316.67" x2="-456.74" y2="316.67" stroke="#64748b" stroke-width="1"  />
  <text x="-476.74" y="316.67" font-family="Inter, sans-serif" font-size="11" font-weight="normal" fill="#64748b" text-anchor="end" dominant-baseline="middle">1</text>
  <line x1="-466.74" y1="293.33" x2="-456.74" y2="293.33" stroke="#64748b" stroke-width="1"  />
  <text x="-476.74" y="293.33" font-family="Inter, sans-serif" font-size="11" font-weight="normal" fill="#64748b" text-anchor="end" dominant-baseline="middle">2</text>
  <line x1="-466.74" y1="270.00" x2="-456.74" y2="270.00" stroke="#64748b" stroke-width="1"  />
  <text x="-476.74" y="270.00" font-family="Inter, sans-serif" font-size="11" font-weight="normal" fill="#64748b" text-anchor="end" dominant-baseline="middle">3</text>
  <line x1="-466.74" y1="246.67" x2="-456.74" y2="246.67" stroke="#64748b" stroke-width="1"  />
  <text x="-476.74" y="246.67" font-family="Inter, sans-serif" font-size="11" font-weight="normal" fill="#64748b" text-anchor="end" dominant-baseline="middle">4</text>
  <line x1="-466.74" y1="223.33" x2="-456.74" y2="223.33" stroke="#64748b" stroke-width="1"  />
  <text x="-476.74" y="223.33" font-family="Inter, sans-serif" font-size="11" font-weight="normal" fill="#64748b" text-anchor="end" dominant-baseline="middle">5</text>
  <line x1="-466.74" y1="200.00" x2="-456.74" y2="200.00" stroke="#64748b" stroke-width="1"  />
  <text x="-476.74" y="200.00" font-family="Inter, sans-serif" font-size="11" font-weight="normal" fill="#64748b" text-anchor="end" dominant-baseline="middle">6</text>
  <line x1="-466.74" y1="176.67" x2="-456.74" y2="176.67" stroke="#64748b" stroke-width="1"  />
  <text x="-476.74" y="176.67" font-family="Inter, sans-serif" font-size="11" font-weight="normal" fill="#64748b" text-anchor="end" dominant-baseline="middle">7</text>
  <line x1="-466.74" y1="153.33" x2="-456.74" y2="153.33" stroke="#64748b" stroke-width="1"  />
  <text x="-476.74" y="153.33" font-family="Inter, sans-serif" font-size="11" font-weight="normal" fill="#64748b" text-anchor="end" dominant-baseline="middle">8</text>
  <line x1="-466.74" y1="130.00" x2="-456.74" y2="130.00" stroke="#64748b" stroke-width="1"  />
  <text x="-476.74" y="130.00" font-family="Inter, sans-serif" font-size="11" font-weight="normal" fill="#64748b" text-anchor="end" dominant-baseline="middle">9</text>
  <line x1="-466.74" y1="106.67" x2="-456.74" y2="106.67" stroke="#64748b" stroke-width="1"  />
  <text x="-476.74" y="106.67" font-family="Inter, sans-serif" font-size="11" font-weight="normal" fill="#64748b" text-anchor="end" dominant-baseline="middle">10</text>
  <line x1="-466.74" y1="83.33" x2="-456.74" y2="83.33" stroke="#64748b" stroke-width="1"  />
  <text x="-476.74" y="83.33" font-family="Inter, sans-serif" font-size="11" font-weight="normal" fill="#64748b" text-anchor="end" dominant-baseline="middle">11</text>
  <line x1="-466.74" y1="60.00" x2="-456.74" y2="60.00" stroke="#64748b" stroke-width="1"  />
  <text x="-476.74" y="60.00" font-family="Inter, sans-serif" font-size="11" font-weight="normal" fill="#64748b" text-anchor="end" dominant-baseline="middle">12</text>
  <text x="-473.74" y="355.00" font-family="Inter, sans-serif" font-size="11" font-weight="normal" fill="#64748b" text-anchor="middle" dominant-baseline="middle">O</text>
  <rect x="80.87" y="176.67" width="73.04" height="163.33" fill="#3b82f6" stroke="#ffffff" stroke-width="1" rx="0"/>
  <text x="117.39" y="168.67" font-family="Inter, sans-serif" font-size="12" font-weight="bold" fill="#1e293b" text-anchor="middle" dominant-baseline="middle">7</text>
  <rect x="153.91" y="153.33" width="73.04" height="186.67" fill="#3b82f6" stroke="#ffffff" stroke-width="1" rx="0"/>
  <text x="190.43" y="145.33" font-family="Inter, sans-serif" font-size="12" font-weight="bold" fill="#1e293b" text-anchor="middle" dominant-baseline="middle">8</text>
  <rect x="226.96" y="130.00" width="73.04" height="210.00" fill="#3b82f6" stroke="#ffffff" stroke-width="1" rx="0"/>
  <text x="263.48" y="122.00" font-family="Inter, sans-serif" font-size="12" font-weight="bold" fill="#1e293b" text-anchor="middle" dominant-baseline="middle">9</text>
  <rect x="300.00" y="153.33" width="73.04" height="186.67" fill="#3b82f6" stroke="#ffffff" stroke-width="1" rx="0"/>
  <text x="336.52" y="145.33" font-family="Inter, sans-serif" font-size="12" font-weight="bold" fill="#1e293b" text-anchor="middle" dominant-baseline="middle">8</text>
  <rect x="373.04" y="246.67" width="73.04" height="93.33" fill="#3b82f6" stroke="#ffffff" stroke-width="1" rx="0"/>
  <text x="409.57" y="238.67" font-family="Inter, sans-serif" font-size="12" font-weight="bold" fill="#1e293b" text-anchor="middle" dominant-baseline="middle">4</text>
  <rect x="446.09" y="246.67" width="73.04" height="93.33" fill="#3b82f6" stroke="#ffffff" stroke-width="1" rx="0"/>
  <text x="482.61" y="238.67" font-family="Inter, sans-serif" font-size="12" font-weight="bold" fill="#1e293b" text-anchor="middle" dominant-baseline="middle">4</text>
</svg>