<svg xmlns="http://www.w3.org/2000/svg" viewBox="0 0 600 400" 
style="max-width: 100%; height: auto; font-family: Inter, system-ui, sans-serif;">

  <style>
    .scatter-point { transform: scale(0); animation: popIn 0.3s ease-out forwards; }
    @keyframes popIn { to { transform: scale(1); } }
  </style>

  <rect width="600" height="400" fill="#f8fafc" rx="8"/>
  <text x="300.0" y="30" text-anchor="middle" font-size="16" font-weight="bold" fill="#1e293b">Correlación Altura vs Peso</text>
  <g class="grid">
    <line x1="60.0" y1="50" x2="60.0" y2="350" stroke="#e2e8f0" stroke-dasharray="4,4"/>
    <line x1="156.0" y1="50" x2="156.0" y2="350" stroke="#e2e8f0" stroke-dasharray="4,4"/>
    <line x1="252.0" y1="50" x2="252.0" y2="350" stroke="#e2e8f0" stroke-dasharray="4,4"/>
    <line x1="348.0" y1="50" x2="348.0" y2="350" stroke="#e2e8f0" stroke-dasharray="4,4"/>
    <line x1="444.0" y1="50" x2="444.0" y2="350" stroke="#e2e8f0" stroke-dasharray="4,4"/>
    <line x1="540.0" y1="50" x2="540.0" y2="350" stroke="#e2e8f0" stroke-dasharray="4,4"/>
    <line x1="60" y1="340.0" x2="540" y2="340.0" stroke="#e2e8f0" stroke-dasharray="4,4"/>
    <line x1="60" y1="284.0" x2="540" y2="284.0" stroke="#e2e8f0" stroke-dasharray="4,4"/>
    <line x1="60" y1="228.0" x2="540" y2="228.0" stroke="#e2e8f0" stroke-dasharray="4,4"/>
    <line x1="60" y1="172.0" x2="540" y2="172.0" stroke="#e2e8f0" stroke-dasharray="4,4"/>
    <line x1="60" y1="116.0" x2="540" y2="116.0" stroke="#e2e8f0" stroke-dasharray="4,4"/>
    <line x1="60" y1="60.0" x2="540" y2="60.0" stroke="#e2e8f0" stroke-dasharray="4,4"/>
  </g>
  <line x1="60" y1="592.0" x2="540" y2="592.0" stroke="#374151" stroke-width="2"/>
  <line x1="-1540.0" y1="50" x2="-1540.0" y2="350" stroke="#374151" stroke-width="2"/>
  <text x="550" y="597.0" font-size="14" font-weight="bold" fill="#374151">Altura (cm)</text>
  <text x="-1532.0" y="45" font-size="14" font-weight="bold" fill="#374151">Peso (kg)</text>
  <circle class="scatter-point" cx="113.3" cy="323.2" r="8" fill="#3b82f6" stroke="white" stroke-width="2" style="transform-origin: 113.3px 323.2px; animation-delay: 0.0s;"/>
  <circle class="scatter-point" cx="166.7" cy="289.6" r="8" fill="#3b82f6" stroke="white" stroke-width="2" style="transform-origin: 166.7px 289.6px; animation-delay: 0.1s;"/>
  <circle class="scatter-point" cx="198.7" cy="278.4" r="8" fill="#3b82f6" stroke="white" stroke-width="2" style="transform-origin: 198.7px 278.4px; animation-delay: 0.2s;"/>
  <circle class="scatter-point" cx="252.0" cy="244.8" r="8" fill="#3b82f6" stroke="white" stroke-width="2" style="transform-origin: 252.0px 244.8px; animation-delay: 0.30000000000000004s;"/>
  <circle class="scatter-point" cx="273.3" cy="228.0" r="8" fill="#3b82f6" stroke="white" stroke-width="2" style="transform-origin: 273.3px 228.0px; animation-delay: 0.4s;"/>
  <text x="273.3" y="215.0" text-anchor="middle" font-size="11" font-weight="bold" fill="#1e293b">Promedio</text>
  <circle class="scatter-point" cx="326.7" cy="188.8" r="8" fill="#3b82f6" stroke="white" stroke-width="2" style="transform-origin: 326.7px 188.8px; animation-delay: 0.5s;"/>
  <circle class="scatter-point" cx="380.0" cy="155.2" r="8" fill="#3b82f6" stroke="white" stroke-width="2" style="transform-origin: 380.0px 155.2px; animation-delay: 0.6000000000000001s;"/>
  <circle class="scatter-point" cx="412.0" cy="132.8" r="8" fill="#3b82f6" stroke="white" stroke-width="2" style="transform-origin: 412.0px 132.8px; animation-delay: 0.7000000000000001s;"/>
  <circle class="scatter-point" cx="465.3" cy="99.2" r="8" fill="#3b82f6" stroke="white" stroke-width="2" style="transform-origin: 465.3px 99.2px; animation-delay: 0.8s;"/>
  <circle class="scatter-point" cx="508.0" cy="76.8" r="8" fill="#3b82f6" stroke="white" stroke-width="2" style="transform-origin: 508.0px 76.8px; animation-delay: 0.9s;"/>
</svg>