<svg xmlns="http://www.w3.org/2000/svg" viewBox="0 0 450 400" 
style="font-family: 'Inter', 'Segoe UI', system-ui, sans-serif;">
<rect width="450" height="400" fill="#f8fafc"/>
<text x="225.00" y="30.00" text-anchor="middle" font-size="18" font-weight="bold" fill="#f97316">Ángulo Inscrito</text>
<circle cx="225" cy="200" r="120" fill="none" stroke="#3b82f6" stroke-width="2"/>
<circle cx="121.08" cy="140.00" r="5" fill="#1e293b"/>
<circle cx="328.92" cy="140.00" r="5" fill="#1e293b"/>
<circle cx="183.96" cy="312.76" r="7" fill="#f97316"/>
<text x="103.08" y="132.00" text-anchor="start" font-size="14" font-weight="bold" fill="#1e293b">A</text>
<text x="338.92" y="140.00" text-anchor="start" font-size="14" font-weight="bold" fill="#1e293b">B</text>
<text x="178.96" y="334.76" text-anchor="start" font-size="14" font-weight="bold" fill="#f97316">P</text>
<line x1="183.96" y1="312.76" x2="121.08" y2="140.00" stroke="#f97316" stroke-width="2.5"/>
<line x1="183.96" y1="312.76" x2="328.92" y2="140.00" stroke="#f97316" stroke-width="2.5"/>
<circle cx="225" cy="200" r="3" fill="#94a3b8"/>
<path d="M 328.92 140.00 A 120 120 0 0 0 121.08 140.00" fill="none" stroke="#f97316" stroke-width="5"/>
<path d="M 201.96 291.31 A 28 28 0 0 0 174.38 286.45" fill="none" stroke="#f97316" stroke-width="2"/>
<text x="218.96" y="297.76" text-anchor="start" font-size="14" font-weight="bold" fill="#f97316">α</text>
<rect x="100" y="350" width="250" height="40" rx="8" fill="white" stroke="#f97316"/>
<text x="225.0" y="374.0" text-anchor="middle" font-size="12" fill="#1e293b">α = arco AB / 2</text>
</svg>