<svg xmlns="http://www.w3.org/2000/svg" viewBox="0 0 600 420" 
style="font-family: 'Inter', 'Segoe UI', system-ui, sans-serif;">
<rect width="600" height="420" fill="#f8fafc"/>
<text x="300.00" y="30.00" text-anchor="middle" font-size="18" font-weight="bold" fill="#f97316">Ángulo Exterior</text>
<circle cx="300" cy="220" r="110" fill="none" stroke="#3b82f6" stroke-width="2"/>
<line x1="110" y1="220" x2="229.29" y2="135.74" stroke="#22c55e" stroke-width="2.5"/>
<line x1="110" y1="220" x2="395.26" y2="275.00" stroke="#14b8a6" stroke-width="2.5"/>
<circle cx="229.29" cy="135.74" r="5" fill="#22c55e"/>
<circle cx="395.26" cy="275.00" r="5" fill="#14b8a6"/>
<text x="224.29" y="120.74" text-anchor="start" font-size="14" font-weight="bold" fill="#22c55e">A</text>
<text x="405.26" y="280.00" text-anchor="start" font-size="14" font-weight="bold" fill="#14b8a6">C</text>
<path d="M 395.26 275.00 A 110 110 0 0 0 229.29 135.74" fill="none" stroke="#f97316" stroke-width="5"/>
<path d="M 229.29 135.74 A 110 110 0 1 0 395.26 275.00" fill="none" stroke="#fbbf24" stroke-width="5"/>
<circle cx="300" cy="220" r="3" fill="#94a3b8"/>
<path d="M 138.59 199.81 A 35 35 0 0 1 144.37 226.63" fill="none" stroke="#f97316" stroke-width="3"/>
<text x="158.88" y="209.47" text-anchor="start" font-size="16" font-weight="bold" fill="#f97316">α</text>
<circle cx="110" cy="220" r="7" fill="#f97316"/>
<text x="85.00" y="225.00" text-anchor="start" font-size="14" font-weight="bold" fill="#f97316">P</text>
<rect x="278.4425039850356" y="340.9490466566481" width="90" height="24" rx="4" fill="#f97316" fill-opacity="0.2" stroke="#f97316"/>
<text x="323.44" y="357.95" text-anchor="middle" font-size="10" font-weight="bold" fill="#f97316">ARCO MAYOR</text>
<rect x="341.77632730768283" y="104.58400017893797" width="90" height="24" rx="4" fill="#fbbf24" fill-opacity="0.3" stroke="#fbbf24"/>
<text x="386.78" y="121.58" text-anchor="middle" font-size="10" font-weight="bold" fill="#fbbf24">ARCO MENOR</text>
<rect x="125" y="385" width="300" height="55" rx="8" fill="white" stroke="#f97316"/>
<text x="275.0" y="416.5" text-anchor="middle" font-size="12" fill="#1e293b"></text>
<text x="275.00" y="405.00" text-anchor="middle" font-size="14" font-weight="bold" fill="#1e293b">α = (MAYOR - MENOR) / 2</text>
<text x="275.00" y="425.00" text-anchor="middle" font-size="10" font-weight="normal" fill="#94a3b8">El ángulo es la SEMIDIFERENCIA de los arcos</text>
</svg>