<svg xmlns="http://www.w3.org/2000/svg" viewBox="0 0 600 400" style="font-family: Inter, system-ui, sans-serif;">
<rect width="600" height="400" fill="white"/>
<text x="300.0" y="40" text-anchor="middle" font-size="20" font-weight="bold" fill="#1e293b">1 Media Vuelta (180°)</text>
<text x="300.0" y="65" text-anchor="middle" font-size="14" fill="#64748b">3 radios + 0.14... = 3.14... = π</text>
<path d="M 300.0 340 L 550.0 340.0 A 250 250 0 0 0 435.1 129.6 Z" fill="#3b82f6" stroke="white" stroke-width="2" opacity="0.9"/>
<text x="466.7" y="248.9" text-anchor="middle" dominant-baseline="middle" font-size="16" font-weight="bold" fill="white">1 Rad</text>
<path d="M 300.0 340 L 435.1 129.6 A 250 250 0 0 0 196.0 112.7 Z" fill="#8b5cf6" stroke="white" stroke-width="2" opacity="0.9"/>
<text x="313.4" y="150.5" text-anchor="middle" dominant-baseline="middle" font-size="16" font-weight="bold" fill="white">1 Rad</text>
<path d="M 300.0 340 L 196.0 112.7 A 250 250 0 0 0 52.5 304.7 Z" fill="#ec4899" stroke="white" stroke-width="2" opacity="0.9"/>
<text x="147.8" y="226.3" text-anchor="middle" dominant-baseline="middle" font-size="16" font-weight="bold" fill="white">1 Rad</text>
<path d="M 300.0 340 L 37.7 302.6 A 265 265 0 0 0 35.0 340.0 Z" fill="#ef4444" stroke="white" stroke-width="2" opacity="0.9"/>
<text x="60.0" y="300.0" text-anchor="start" font-size="14" font-weight="bold" fill="#ef4444">≈ 0.1416...</text>
<line x1="70.0" y1="305.0" x2="70.6" y2="323.7" stroke="#ef4444" stroke-width="2"/>
<circle cx="70.6" cy="323.7" r="2" fill="#ef4444"/>
<path d="M 550.0 340.0 A 250 250 0 0 0 435.1 129.6" fill="none" stroke="#1d4ed8" stroke-width="4"/>
<path d="M 435.1 129.6 A 250 250 0 0 0 196.0 112.7" fill="none" stroke="#6d28d9" stroke-width="4"/>
<path d="M 196.0 112.7 A 250 250 0 0 0 52.5 304.7" fill="none" stroke="#be185d" stroke-width="4"/>
<line x1="30.0" y1="340" x2="570.0" y2="340" stroke="#64748b" stroke-width="2"/>
<text x="560.0" y="340" font-size="12" fill="#64748b">0</text>
<text x="25.0" y="340" text-anchor="end" font-size="14" font-weight="bold" fill="#64748b">Total = π</text>
<circle cx="300.0" cy="340" r="5" fill="#1e293b"/>
</svg>