<svg xmlns="http://www.w3.org/2000/svg" viewBox="0 0 750 420" 
style="font-family: 'Inter', 'Segoe UI', system-ui, sans-serif;">
<rect width="750" height="420" fill="#f8fafc"/>
<text x="375.00" y="30.00" text-anchor="middle" font-size="18" font-weight="bold" fill="#22c55e">Área del Segmento Circular</text>
<path d="M 140 185 L 213.61 142.50 A 85 85 0 0 0 66.39 142.50 Z" fill="#fef3c7" stroke="#f97316" stroke-width="2"/>
<circle cx="140" cy="185" r="4" fill="#ef4444"/>
<text x="128.00" y="190.00" text-anchor="start" font-size="11" font-weight="bold" fill="#ef4444">O</text>
<circle cx="66.4" cy="142.5" r="3" fill="#1e293b"/>
<circle cx="213.6" cy="142.5" r="3" fill="#1e293b"/>
<text x="140.00" y="295.00" text-anchor="middle" font-size="12" font-weight="bold" fill="#f97316">SECTOR</text>
<text x="245.00" y="190.00" text-anchor="start" font-size="32" font-weight="bold" fill="#1e293b">−</text>
<circle cx="375" cy="185" r="85" fill="none" stroke="#94a3b8" stroke-width="1" stroke-dasharray="4,4"/>
<polygon points="375,185 301.4,142.5 448.6,142.5" fill="#ef4444" fill-opacity="0.2" stroke="#ef4444" stroke-width="2"/>
<circle cx="375" cy="185" r="4" fill="#ef4444"/>
<text x="363.00" y="190.00" text-anchor="start" font-size="11" font-weight="bold" fill="#ef4444">O</text>
<circle cx="301.4" cy="142.5" r="3" fill="#1e293b"/>
<circle cx="448.6" cy="142.5" r="3" fill="#1e293b"/>
<text x="286.39" y="137.50" text-anchor="start" font-size="11" font-weight="bold" fill="#1e293b">A</text>
<text x="456.61" y="137.50" text-anchor="start" font-size="11" font-weight="bold" fill="#1e293b">B</text>
<text x="375.00" y="295.00" text-anchor="middle" font-size="12" font-weight="bold" fill="#ef4444">TRIÁNGULO OAB</text>
<text x="480.00" y="190.00" text-anchor="start" font-size="32" font-weight="bold" fill="#1e293b">=</text>
<circle cx="610" cy="185" r="85" fill="none" stroke="#94a3b8" stroke-width="1" stroke-dasharray="4,4"/>
<path d="M 683.61 142.50 A 85 85 0 0 0 536.39 142.50 Z" fill="#dcfce7" stroke="#22c55e" stroke-width="3"/>
<line x1="536.4" y1="142.5" x2="683.6" y2="142.5" stroke="#22c55e" stroke-width="2"/>
<circle cx="610" cy="185" r="3" fill="#94a3b8"/>
<text x="610.00" y="295.00" text-anchor="middle" font-size="12" font-weight="bold" fill="#22c55e">SEGMENTO</text>
<rect x="125" y="320" width="500" height="85" rx="12" fill="white" stroke="#22c55e" stroke-width="2"/>
<text x="375.00" y="348.00" text-anchor="middle" font-size="15" font-weight="bold" fill="#1e293b">A(SEGMENTO) = A(SECTOR) − A(TRIÁNGULO)</text>
<text x="375.00" y="373.00" text-anchor="middle" font-size="11" font-weight="normal" fill="#94a3b8">El TRIÁNGULO está formado por los 2 radios (OA, OB) y la cuerda (AB)</text>
<text x="375.00" y="395.00" text-anchor="middle" font-size="12" font-weight="normal" fill="#1e293b">A(△) = ½ · r² · sin(θ)</text>
</svg>