<svg xmlns="http://www.w3.org/2000/svg" viewBox="0 0 700 380" 
style="font-family: 'Inter', 'Segoe UI', system-ui, sans-serif;">
<rect width="700" height="380" fill="#f8fafc"/>
<text x="350.00" y="30.00" text-anchor="middle" font-size="18" font-weight="bold" fill="#22c55e">Área del Segmento Circular</text>
<path d="M 120 200 L 189.28 160.00 A 80 80 0 0 0 50.72 160.00 Z" fill="#fef3c7" stroke="#f97316" stroke-width="2"/>
<circle cx="120" cy="200" r="4" fill="#ef4444"/>
<text x="108.00" y="205.00" text-anchor="start" font-size="11" font-weight="bold" fill="#ef4444">O</text>
<circle cx="50.7" cy="160.0" r="3" fill="#1e293b"/>
<circle cx="189.3" cy="160.0" r="3" fill="#1e293b"/>
<text x="120.00" y="305.00" text-anchor="middle" font-size="12" font-weight="bold" fill="#f97316">SECTOR</text>
<text x="210.00" y="200.00" text-anchor="start" font-size="30" font-weight="bold" fill="#1e293b">−</text>
<circle cx="300" cy="200" r="80" fill="none" stroke="#94a3b8" stroke-width="1" stroke-dasharray="4,4"/>
<polygon points="300,200 230.7,160.0 369.3,160.0" fill="#ef4444" fill-opacity="0.2" stroke="#ef4444" stroke-width="2"/>
<circle cx="300" cy="200" r="4" fill="#ef4444"/>
<text x="288.00" y="205.00" text-anchor="start" font-size="11" font-weight="bold" fill="#ef4444">O</text>
<circle cx="230.7" cy="160.0" r="3" fill="#1e293b"/>
<circle cx="369.3" cy="160.0" r="3" fill="#1e293b"/>
<text x="215.72" y="155.00" text-anchor="start" font-size="11" font-weight="bold" fill="#1e293b">A</text>
<text x="377.28" y="155.00" text-anchor="start" font-size="11" font-weight="bold" fill="#1e293b">B</text>
<text x="300.00" y="305.00" text-anchor="middle" font-size="12" font-weight="bold" fill="#ef4444">TRIÁNGULO OAB</text>
<text x="390.00" y="200.00" text-anchor="start" font-size="30" font-weight="bold" fill="#1e293b">=</text>
<circle cx="500" cy="200" r="80" fill="none" stroke="#94a3b8" stroke-width="1" stroke-dasharray="4,4"/>
<path d="M 569.28 160.00 A 80 80 0 0 0 430.72 160.00 Z" fill="#dcfce7" stroke="#22c55e" stroke-width="3"/>
<line x1="430.7" y1="160.0" x2="569.3" y2="160.0" stroke="#22c55e" stroke-width="2"/>
<circle cx="500" cy="200" r="3" fill="#94a3b8"/>
<text x="500.00" y="305.00" text-anchor="middle" font-size="12" font-weight="bold" fill="#22c55e">SEGMENTO</text>
<rect x="100" y="330" width="450" height="75" rx="12" fill="white" stroke="#22c55e" stroke-width="2"/>
<text x="325.00" y="355.00" text-anchor="middle" font-size="14" font-weight="bold" fill="#1e293b">A(SEGMENTO) = A(SECTOR) − A(TRIÁNGULO)</text>
<text x="325.00" y="378.00" text-anchor="middle" font-size="10" font-weight="normal" fill="#94a3b8">El TRIÁNGULO está formado por los 2 radios (OA, OB) y la cuerda (AB)</text>
<text x="325.00" y="395.00" text-anchor="middle" font-size="11" font-weight="normal" fill="#1e293b">A(△) = ½ · r² · sin(θ)</text>
</svg>