<svg xmlns="http://www.w3.org/2000/svg" viewBox="0 0 750 420" 
style="font-family: 'Inter', 'Segoe UI', system-ui, sans-serif;">
<rect width="750" height="420" fill="#f8fafc"/>
<text x="375.00" y="28.00" text-anchor="middle" font-size="18" font-weight="bold" fill="#1e293b">Posiciones de un Punto</text>
<circle cx="150" cy="190" r="70" fill="#dbeafe" fill-opacity="0.3" stroke="#3b82f6" stroke-width="2"/>
<circle cx="150" cy="190" r="3" fill="#ef4444"/>
<circle cx="175.00" cy="175.00" r="6" fill="#22c55e"/>
<text x="185.00" y="167.00" text-anchor="start" font-size="12" font-weight="bold" fill="#22c55e">P</text>
<line x1="150" y1="190" x2="175.00" y2="175.00" stroke="#94a3b8" stroke-width="1.5" stroke-dasharray="4,3"/>
<text x="150.00" y="295.00" text-anchor="middle" font-size="13" font-weight="bold" fill="#22c55e">Interior</text>
<text x="150.00" y="315.00" text-anchor="middle" font-size="11" font-weight="normal" fill="#1e293b">d &lt; r</text>
<circle cx="375" cy="190" r="70" fill="#dbeafe" fill-opacity="0.3" stroke="#3b82f6" stroke-width="2"/>
<circle cx="375" cy="190" r="3" fill="#ef4444"/>
<circle cx="420.00" cy="136.38" r="6" fill="#3b82f6"/>
<text x="430.00" y="128.38" text-anchor="start" font-size="12" font-weight="bold" fill="#3b82f6">P</text>
<line x1="375" y1="190" x2="420.00" y2="136.38" stroke="#94a3b8" stroke-width="1.5" stroke-dasharray="4,3"/>
<text x="375.00" y="295.00" text-anchor="middle" font-size="13" font-weight="bold" fill="#3b82f6">Sobre la circ.</text>
<text x="375.00" y="315.00" text-anchor="middle" font-size="11" font-weight="normal" fill="#1e293b">d = r</text>
<circle cx="600" cy="190" r="70" fill="#dbeafe" fill-opacity="0.3" stroke="#3b82f6" stroke-width="2"/>
<circle cx="600" cy="190" r="3" fill="#ef4444"/>
<circle cx="690.00" cy="170.00" r="6" fill="#ec4899"/>
<text x="700.00" y="162.00" text-anchor="start" font-size="12" font-weight="bold" fill="#ec4899">P</text>
<line x1="600" y1="190" x2="690.00" y2="170.00" stroke="#94a3b8" stroke-width="1.5" stroke-dasharray="4,3"/>
<text x="600.00" y="295.00" text-anchor="middle" font-size="13" font-weight="bold" fill="#ec4899">Exterior</text>
<text x="600.00" y="315.00" text-anchor="middle" font-size="11" font-weight="normal" fill="#1e293b">d &gt; r</text>
</svg>