<svg xmlns="http://www.w3.org/2000/svg" viewBox="0 0 700 380" 
style="font-family: 'Inter', 'Segoe UI', system-ui, sans-serif;">
<rect width="700" height="380" fill="#f8fafc"/>
<text x="350.00" y="28.00" text-anchor="middle" font-size="18" font-weight="bold" fill="#1e293b">Posiciones de un Punto</text>
<circle cx="120" cy="170" r="70" fill="#dbeafe" fill-opacity="0.3" stroke="#3b82f6" stroke-width="2"/>
<circle cx="120" cy="170" r="3" fill="#ef4444"/>
<circle cx="145.00" cy="155.00" r="6" fill="#22c55e"/>
<text x="155.00" y="147.00" text-anchor="start" font-size="12" font-weight="bold" fill="#22c55e">P</text>
<line x1="120" y1="170" x2="145.00" y2="155.00" stroke="#94a3b8" stroke-width="1.5" stroke-dasharray="4,3"/>
<text x="120.00" y="270.00" text-anchor="middle" font-size="13" font-weight="bold" fill="#22c55e">Interior</text>
<text x="120.00" y="288.00" text-anchor="middle" font-size="11" font-weight="normal" fill="#1e293b">d < r</text>
<circle cx="350" cy="170" r="70" fill="#dbeafe" fill-opacity="0.3" stroke="#3b82f6" stroke-width="2"/>
<circle cx="350" cy="170" r="3" fill="#ef4444"/>
<circle cx="395.00" cy="116.38" r="6" fill="#3b82f6"/>
<text x="405.00" y="108.38" text-anchor="start" font-size="12" font-weight="bold" fill="#3b82f6">P</text>
<line x1="350" y1="170" x2="395.00" y2="116.38" stroke="#94a3b8" stroke-width="1.5" stroke-dasharray="4,3"/>
<text x="350.00" y="270.00" text-anchor="middle" font-size="13" font-weight="bold" fill="#3b82f6">Sobre la circ.</text>
<text x="350.00" y="288.00" text-anchor="middle" font-size="11" font-weight="normal" fill="#1e293b">d = r</text>
<circle cx="580" cy="170" r="70" fill="#dbeafe" fill-opacity="0.3" stroke="#3b82f6" stroke-width="2"/>
<circle cx="580" cy="170" r="3" fill="#ef4444"/>
<circle cx="680.00" cy="150.00" r="6" fill="#ec4899"/>
<text x="690.00" y="142.00" text-anchor="start" font-size="12" font-weight="bold" fill="#ec4899">P</text>
<line x1="580" y1="170" x2="680.00" y2="150.00" stroke="#94a3b8" stroke-width="1.5" stroke-dasharray="4,3"/>
<text x="580.00" y="270.00" text-anchor="middle" font-size="13" font-weight="bold" fill="#ec4899">Exterior</text>
<text x="580.00" y="288.00" text-anchor="middle" font-size="11" font-weight="normal" fill="#1e293b">d > r</text>
</svg>