<svg xmlns="http://www.w3.org/2000/svg" viewBox="0 0 600 420" 
style="font-family: 'Inter', 'Segoe UI', system-ui, sans-serif;">
<rect width="600" height="420" fill="#f8fafc"/>
<text x="300.00" y="30.00" text-anchor="middle" font-size="18" font-weight="bold" fill="#1e293b">Teorema del Ángulo Inscrito</text>
<circle cx="300" cy="230" r="130" fill="none" stroke="#3b82f6" stroke-width="2"/>
<circle cx="193.51" cy="155.44" r="5" fill="#1e293b"/>
<circle cx="406.49" cy="155.44" r="5" fill="#1e293b"/>
<text x="175.51" y="147.44" text-anchor="start" font-size="14" font-weight="bold" fill="#1e293b">A</text>
<text x="416.49" y="150.44" text-anchor="start" font-size="14" font-weight="bold" fill="#1e293b">B</text>
<line x1="300" y1="230" x2="193.51" y2="155.44" stroke="#ef4444" stroke-width="2.5"/>
<line x1="300" y1="230" x2="406.49" y2="155.44" stroke="#ef4444" stroke-width="2.5"/>
<line x1="266.35" y1="355.57" x2="193.51" y2="155.44" stroke="#f97316" stroke-width="2.5"/>
<line x1="266.35" y1="355.57" x2="406.49" y2="155.44" stroke="#f97316" stroke-width="2.5"/>
<circle cx="300" cy="230" r="5" fill="#ef4444"/>
<text x="310.00" y="235.00" text-anchor="start" font-size="12" font-weight="bold" fill="#ef4444">O</text>
<path d="M 271.33 209.92 A 35 35 0 0 1 328.67 209.92" fill="none" stroke="#ef4444" stroke-width="3"/>
<text x="300.00" y="180.00" text-anchor="start" font-size="18" font-weight="bold" fill="#ef4444">θ</text>
<path d="M 256.09 327.38 A 30 30 0 0 1 283.56 331.00" fill="none" stroke="#f97316" stroke-width="3"/>
<text x="272.23" y="310.96" text-anchor="start" font-size="18" font-weight="bold" fill="#f97316">α</text>
<circle cx="266.35" cy="355.57" r="6" fill="#f97316"/>
<text x="261.35" y="377.57" text-anchor="start" font-size="14" font-weight="bold" fill="#f97316">P</text>
<rect x="30" y="55" width="120" height="70" rx="8" fill="white" stroke="#ef4444" stroke-width="2"/>
<text x="90.00" y="80.00" text-anchor="middle" font-size="11" font-weight="bold" fill="#ef4444">CENTRAL</text>
<text x="90.00" y="100.00" text-anchor="middle" font-size="12" font-weight="normal" fill="#1e293b">θ = arco AB</text>
<text x="90.00" y="118.00" text-anchor="middle" font-size="9" font-weight="normal" fill="#94a3b8">(vértice en O)</text>
<rect x="450" y="55" width="120" height="70" rx="8" fill="white" stroke="#f97316" stroke-width="2"/>
<text x="510.00" y="80.00" text-anchor="middle" font-size="11" font-weight="bold" fill="#f97316">INSCRITO</text>
<text x="510.00" y="100.00" text-anchor="middle" font-size="12" font-weight="normal" fill="#1e293b">α = θ / 2</text>
<text x="510.00" y="118.00" text-anchor="middle" font-size="9" font-weight="normal" fill="#94a3b8">(vértice en P)</text>
<rect x="150" y="395" width="300" height="45" rx="10" fill="#fbbf24" fill-opacity="0.3" stroke="#fbbf24" stroke-width="2"/>
<text x="300.00" y="415.00" text-anchor="middle" font-size="15" font-weight="bold" fill="#1e293b">INSCRITO = ½ CENTRAL</text>
<text x="300.00" y="432.00" text-anchor="middle" font-size="12" font-weight="normal" fill="#94a3b8">α = θ / 2</text>
</svg>