<svg xmlns="http://www.w3.org/2000/svg" viewBox="0 0 700 500">
  <defs>
        <marker id="arrow-64748b-10" markerWidth="10" markerHeight="10" 
                refX="9.0" refY="5.0" orient="auto"
                markerUnits="userSpaceOnUse">
            <polygon points="0,0 10,5.0 0,10" fill="#64748b"/>
        </marker>

        <marker id="arrow-64748b-10" markerWidth="10" markerHeight="10" 
                refX="9.0" refY="5.0" orient="auto"
                markerUnits="userSpaceOnUse">
            <polygon points="0,0 10,5.0 0,10" fill="#64748b"/>
        </marker>

        <marker id="arrow-ef4444-10" markerWidth="10" markerHeight="10" 
                refX="9.0" refY="5.0" orient="auto"
                markerUnits="userSpaceOnUse">
            <polygon points="0,0 10,5.0 0,10" fill="#ef4444"/>
        </marker>

        <marker id="arrow-ef4444-10" markerWidth="10" markerHeight="10" 
                refX="9.0" refY="5.0" orient="auto"
                markerUnits="userSpaceOnUse">
            <polygon points="0,0 10,5.0 0,10" fill="#ef4444"/>
        </marker>

        <marker id="arrow-3b82f6-10" markerWidth="10" markerHeight="10" 
                refX="9.0" refY="5.0" orient="auto"
                markerUnits="userSpaceOnUse">
            <polygon points="0,0 10,5.0 0,10" fill="#3b82f6"/>
        </marker>

        <marker id="arrow-ef4444-10" markerWidth="10" markerHeight="10" 
                refX="9.0" refY="5.0" orient="auto"
                markerUnits="userSpaceOnUse">
            <polygon points="0,0 10,5.0 0,10" fill="#ef4444"/>
        </marker></defs>
  <rect x="0.00" y="0.00" width="700.00" height="500.00" fill="#f8fafc" stroke="none" stroke-width="0" rx="0"/>
  <line x1="40.00" y1="460.00" x2="40.00" y2="40.00" stroke="#e2e8f0" stroke-width="0.5"  />
  <line x1="152.73" y1="460.00" x2="152.73" y2="40.00" stroke="#e2e8f0" stroke-width="0.5"  />
  <line x1="209.09" y1="460.00" x2="209.09" y2="40.00" stroke="#e2e8f0" stroke-width="0.5"  />
  <line x1="265.45" y1="460.00" x2="265.45" y2="40.00" stroke="#e2e8f0" stroke-width="0.5"  />
  <line x1="321.82" y1="460.00" x2="321.82" y2="40.00" stroke="#e2e8f0" stroke-width="0.5"  />
  <line x1="378.18" y1="460.00" x2="378.18" y2="40.00" stroke="#e2e8f0" stroke-width="0.5"  />
  <line x1="434.55" y1="460.00" x2="434.55" y2="40.00" stroke="#e2e8f0" stroke-width="0.5"  />
  <line x1="490.91" y1="460.00" x2="490.91" y2="40.00" stroke="#e2e8f0" stroke-width="0.5"  />
  <line x1="547.27" y1="460.00" x2="547.27" y2="40.00" stroke="#e2e8f0" stroke-width="0.5"  />
  <line x1="603.64" y1="460.00" x2="603.64" y2="40.00" stroke="#e2e8f0" stroke-width="0.5"  />
  <line x1="660.00" y1="460.00" x2="660.00" y2="40.00" stroke="#e2e8f0" stroke-width="0.5"  />
  <line x1="40.00" y1="460.00" x2="660.00" y2="460.00" stroke="#e2e8f0" stroke-width="0.5"  />
  <line x1="40.00" y1="355.00" x2="660.00" y2="355.00" stroke="#e2e8f0" stroke-width="0.5"  />
  <line x1="40.00" y1="302.50" x2="660.00" y2="302.50" stroke="#e2e8f0" stroke-width="0.5"  />
  <line x1="40.00" y1="250.00" x2="660.00" y2="250.00" stroke="#e2e8f0" stroke-width="0.5"  />
  <line x1="40.00" y1="197.50" x2="660.00" y2="197.50" stroke="#e2e8f0" stroke-width="0.5"  />
  <line x1="40.00" y1="145.00" x2="660.00" y2="145.00" stroke="#e2e8f0" stroke-width="0.5"  />
  <line x1="40.00" y1="92.50" x2="660.00" y2="92.50" stroke="#e2e8f0" stroke-width="0.5"  />
  <line x1="40.00" y1="40.00" x2="660.00" y2="40.00" stroke="#e2e8f0" stroke-width="0.5"  />
  <line x1="40.00" y1="407.50" x2="660.00" y2="407.50" stroke="#64748b" stroke-width="2"  marker-end="url(#arrow-64748b-10)"/>
  <line x1="96.36" y1="460.00" x2="96.36" y2="40.00" stroke="#64748b" stroke-width="2"  marker-end="url(#arrow-64748b-10)"/>
  <text x="655.00" y="427.50" font-family="Inter, sans-serif" font-size="14" font-weight="bold" fill="#64748b" text-anchor="middle" dominant-baseline="middle">x</text>
  <text x="76.36" y="50.00" font-family="Inter, sans-serif" font-size="14" font-weight="bold" fill="#64748b" text-anchor="middle" dominant-baseline="middle">y</text>
  <line x1="40.00" y1="402.50" x2="40.00" y2="412.50" stroke="#64748b" stroke-width="1"  />
  <text x="40.00" y="425.50" font-family="Inter, sans-serif" font-size="11" font-weight="normal" fill="#64748b" text-anchor="middle" dominant-baseline="middle">-1</text>
  <line x1="152.73" y1="402.50" x2="152.73" y2="412.50" stroke="#64748b" stroke-width="1"  />
  <text x="152.73" y="425.50" font-family="Inter, sans-serif" font-size="11" font-weight="normal" fill="#64748b" text-anchor="middle" dominant-baseline="middle">1</text>
  <line x1="209.09" y1="402.50" x2="209.09" y2="412.50" stroke="#64748b" stroke-width="1"  />
  <text x="209.09" y="425.50" font-family="Inter, sans-serif" font-size="11" font-weight="normal" fill="#64748b" text-anchor="middle" dominant-baseline="middle">2</text>
  <line x1="265.45" y1="402.50" x2="265.45" y2="412.50" stroke="#64748b" stroke-width="1"  />
  <text x="265.45" y="425.50" font-family="Inter, sans-serif" font-size="11" font-weight="normal" fill="#64748b" text-anchor="middle" dominant-baseline="middle">3</text>
  <line x1="321.82" y1="402.50" x2="321.82" y2="412.50" stroke="#64748b" stroke-width="1"  />
  <text x="321.82" y="425.50" font-family="Inter, sans-serif" font-size="11" font-weight="normal" fill="#64748b" text-anchor="middle" dominant-baseline="middle">4</text>
  <line x1="378.18" y1="402.50" x2="378.18" y2="412.50" stroke="#64748b" stroke-width="1"  />
  <text x="378.18" y="425.50" font-family="Inter, sans-serif" font-size="11" font-weight="normal" fill="#64748b" text-anchor="middle" dominant-baseline="middle">5</text>
  <line x1="434.55" y1="402.50" x2="434.55" y2="412.50" stroke="#64748b" stroke-width="1"  />
  <text x="434.55" y="425.50" font-family="Inter, sans-serif" font-size="11" font-weight="normal" fill="#64748b" text-anchor="middle" dominant-baseline="middle">6</text>
  <line x1="490.91" y1="402.50" x2="490.91" y2="412.50" stroke="#64748b" stroke-width="1"  />
  <text x="490.91" y="425.50" font-family="Inter, sans-serif" font-size="11" font-weight="normal" fill="#64748b" text-anchor="middle" dominant-baseline="middle">7</text>
  <line x1="547.27" y1="402.50" x2="547.27" y2="412.50" stroke="#64748b" stroke-width="1"  />
  <text x="547.27" y="425.50" font-family="Inter, sans-serif" font-size="11" font-weight="normal" fill="#64748b" text-anchor="middle" dominant-baseline="middle">8</text>
  <line x1="603.64" y1="402.50" x2="603.64" y2="412.50" stroke="#64748b" stroke-width="1"  />
  <text x="603.64" y="425.50" font-family="Inter, sans-serif" font-size="11" font-weight="normal" fill="#64748b" text-anchor="middle" dominant-baseline="middle">9</text>
  <line x1="660.00" y1="402.50" x2="660.00" y2="412.50" stroke="#64748b" stroke-width="1"  />
  <text x="660.00" y="425.50" font-family="Inter, sans-serif" font-size="11" font-weight="normal" fill="#64748b" text-anchor="middle" dominant-baseline="middle">10</text>
  <line x1="91.36" y1="460.00" x2="101.36" y2="460.00" stroke="#64748b" stroke-width="1"  />
  <text x="81.36" y="460.00" font-family="Inter, sans-serif" font-size="11" font-weight="normal" fill="#64748b" text-anchor="end" dominant-baseline="middle">-1</text>
  <line x1="91.36" y1="355.00" x2="101.36" y2="355.00" stroke="#64748b" stroke-width="1"  />
  <text x="81.36" y="355.00" font-family="Inter, sans-serif" font-size="11" font-weight="normal" fill="#64748b" text-anchor="end" dominant-baseline="middle">1</text>
  <line x1="91.36" y1="302.50" x2="101.36" y2="302.50" stroke="#64748b" stroke-width="1"  />
  <text x="81.36" y="302.50" font-family="Inter, sans-serif" font-size="11" font-weight="normal" fill="#64748b" text-anchor="end" dominant-baseline="middle">2</text>
  <line x1="91.36" y1="250.00" x2="101.36" y2="250.00" stroke="#64748b" stroke-width="1"  />
  <text x="81.36" y="250.00" font-family="Inter, sans-serif" font-size="11" font-weight="normal" fill="#64748b" text-anchor="end" dominant-baseline="middle">3</text>
  <line x1="91.36" y1="197.50" x2="101.36" y2="197.50" stroke="#64748b" stroke-width="1"  />
  <text x="81.36" y="197.50" font-family="Inter, sans-serif" font-size="11" font-weight="normal" fill="#64748b" text-anchor="end" dominant-baseline="middle">4</text>
  <line x1="91.36" y1="145.00" x2="101.36" y2="145.00" stroke="#64748b" stroke-width="1"  />
  <text x="81.36" y="145.00" font-family="Inter, sans-serif" font-size="11" font-weight="normal" fill="#64748b" text-anchor="end" dominant-baseline="middle">5</text>
  <line x1="91.36" y1="92.50" x2="101.36" y2="92.50" stroke="#64748b" stroke-width="1"  />
  <text x="81.36" y="92.50" font-family="Inter, sans-serif" font-size="11" font-weight="normal" fill="#64748b" text-anchor="end" dominant-baseline="middle">6</text>
  <line x1="91.36" y1="40.00" x2="101.36" y2="40.00" stroke="#64748b" stroke-width="1"  />
  <text x="81.36" y="40.00" font-family="Inter, sans-serif" font-size="11" font-weight="normal" fill="#64748b" text-anchor="end" dominant-baseline="middle">7</text>
  <text x="84.36" y="422.50" font-family="Inter, sans-serif" font-size="11" font-weight="normal" fill="#64748b" text-anchor="middle" dominant-baseline="middle">O</text>
  <text x="350.00" y="25.00" font-family="Inter, sans-serif" font-size="18" font-weight="bold" fill="#1e293b" text-anchor="middle" dominant-baseline="middle">El origen puede estar en cualquier punto</text>
  <line x1="434.55" y1="355.00" x2="603.64" y2="355.00" stroke="#ef4444" stroke-width="2"  marker-end="url(#arrow-ef4444-10)"/>
  <line x1="434.55" y1="355.00" x2="434.55" y2="197.50" stroke="#ef4444" stroke-width="2"  marker-end="url(#arrow-ef4444-10)"/>
  <text x="603.64" y="375.00" font-family="Inter, sans-serif" font-size="14" font-weight="bold" fill="#ef4444" text-anchor="middle" dominant-baseline="middle">x₂</text>
  <text x="414.55" y="197.50" font-family="Inter, sans-serif" font-size="14" font-weight="bold" fill="#ef4444" text-anchor="middle" dominant-baseline="middle">y₂</text>
  <line x1="96.36" y1="407.50" x2="490.91" y2="145.00" stroke="#3b82f6" stroke-width="1.5"  marker-end="url(#arrow-3b82f6-10)"/>
  <line x1="434.55" y1="355.00" x2="490.91" y2="145.00" stroke="#ef4444" stroke-width="1.5"  marker-end="url(#arrow-ef4444-10)"/>
  <circle cx="96.36" cy="407.50" r="5" fill="#3b82f6" />
  <text x="86.36" y="427.50" font-family="Inter, sans-serif" font-size="12" font-weight="bold" fill="#3b82f6" text-anchor="start" dominant-baseline="middle">O₁(0, 0)</text>
  <circle cx="434.55" cy="355.00" r="5" fill="#3b82f6" />
  <text x="424.55" y="380.00" font-family="Inter, sans-serif" font-size="12" font-weight="bold" fill="#3b82f6" text-anchor="start" dominant-baseline="middle">O₂(6, 1)</text>
  <circle cx="490.91" cy="145.00" r="5" fill="#22c55e" />
  <text x="500.91" y="135.00" font-family="Inter, sans-serif" font-size="12" font-weight="bold" fill="#22c55e" text-anchor="start" dominant-baseline="middle">P(7, 5)</text>
  <text x="180.91" y="66.25" font-family="Inter, sans-serif" font-size="14" font-weight="bold" fill="#3b82f6" text-anchor="middle" dominant-baseline="middle">Respecto a O₁: (7, 5)</text>
  <text x="180.91" y="92.50" font-family="Inter, sans-serif" font-size="14" font-weight="bold" fill="#ef4444" text-anchor="middle" dominant-baseline="middle">Respecto a O₂: (1, 4)</text>
</svg>