<svg xmlns="http://www.w3.org/2000/svg" viewBox="0 0 750 420">
  <defs></defs>
  <rect x="0.00" y="0.00" width="750.00" height="420.00" fill="#f8fafc" stroke="none" stroke-width="0" rx="0"  />
  <path d="M 300.0 190.0 L 300.00 130.00 A 60 60 0 0 1 357.06 171.46 Z" fill="#22c55e" stroke="#64748b" stroke-width="2"/>
  <path d="M 300.0 190.0 L 357.06 171.46 A 60 60 0 0 1 335.27 238.54 Z" fill="#22c55e" stroke="#64748b" stroke-width="2"/>
  <path d="M 300.0 190.0 L 335.27 238.54 A 60 60 0 0 1 264.73 238.54 Z" fill="#22c55e" stroke="#64748b" stroke-width="2"/>
  <path d="M 300.0 190.0 L 264.73 238.54 A 60 60 0 0 1 242.94 171.46 Z" fill="#22c55e" stroke="#64748b" stroke-width="2"/>
  <path d="M 300.0 190.0 L 242.94 171.46 A 60 60 0 0 1 300.00 130.00 Z" fill="#22c55e" stroke="#64748b" stroke-width="2"/>
  <circle cx="300.00" cy="190.00" r="60.00" fill="none" stroke="#64748b" stroke-width="2"  />
  <path d="M 450.0 190.0 L 450.00 130.00 A 60 60 0 0 1 507.06 171.46 Z" fill="#22c55e" stroke="#64748b" stroke-width="2"/>
  <path d="M 450.0 190.0 L 507.06 171.46 A 60 60 0 0 1 485.27 238.54 Z" fill="#22c55e" stroke="#64748b" stroke-width="2"/>
  <path d="M 450.0 190.0 L 485.27 238.54 A 60 60 0 0 1 414.73 238.54 Z" fill="#22c55e" stroke="#64748b" stroke-width="2"/>
  <path d="M 450.0 190.0 L 414.73 238.54 A 60 60 0 0 1 392.94 171.46 Z" fill="#22c55e" stroke="#64748b" stroke-width="2"/>
  <path d="M 450.0 190.0 L 392.94 171.46 A 60 60 0 0 1 450.00 130.00 Z" fill="#22c55e" stroke="#64748b" stroke-width="2"/>
  <circle cx="450.00" cy="190.00" r="60.00" fill="none" stroke="#64748b" stroke-width="2"  />
  <text x="375.00" y="380.00" font-family="Inter, sans-serif" font-size="40" font-weight="bold" fill="#1e293b" text-anchor="middle" dominant-baseline="middle">10/5</text>
</svg>