<svg xmlns="http://www.w3.org/2000/svg" viewBox="0 0 750 420">
  <defs></defs>
  <rect x="0.00" y="0.00" width="750.00" height="420.00" fill="#f8fafc" stroke="none" stroke-width="0" rx="0"  />
  <path d="M 165.0 200.0 L 165.00 140.00 A 60 60 0 0 1 222.06 181.46 Z" fill="#22c55e" stroke="#64748b" stroke-width="2"/>
  <path d="M 165.0 200.0 L 222.06 181.46 A 60 60 0 0 1 200.27 248.54 Z" fill="#22c55e" stroke="#64748b" stroke-width="2"/>
  <path d="M 165.0 200.0 L 200.27 248.54 A 60 60 0 0 1 129.73 248.54 Z" fill="#22c55e" stroke="#64748b" stroke-width="2"/>
  <path d="M 165.0 200.0 L 129.73 248.54 A 60 60 0 0 1 107.94 181.46 Z" fill="#22c55e" stroke="#64748b" stroke-width="2"/>
  <path d="M 165.0 200.0 L 107.94 181.46 A 60 60 0 0 1 165.00 140.00 Z" fill="#22c55e" stroke="#64748b" stroke-width="2"/>
  <circle cx="165.00" cy="200.00" r="60.00" fill="none" stroke="#64748b" stroke-width="2"  />
  <path d="M 305.0 200.0 L 305.00 140.00 A 60 60 0 0 1 362.06 181.46 Z" fill="#22c55e" stroke="#64748b" stroke-width="2"/>
  <path d="M 305.0 200.0 L 362.06 181.46 A 60 60 0 0 1 340.27 248.54 Z" fill="#22c55e" stroke="#64748b" stroke-width="2"/>
  <path d="M 305.0 200.0 L 340.27 248.54 A 60 60 0 0 1 269.73 248.54 Z" fill="#22c55e" stroke="#64748b" stroke-width="2"/>
  <path d="M 305.0 200.0 L 269.73 248.54 A 60 60 0 0 1 247.94 181.46 Z" fill="#22c55e" stroke="#64748b" stroke-width="2"/>
  <path d="M 305.0 200.0 L 247.94 181.46 A 60 60 0 0 1 305.00 140.00 Z" fill="#22c55e" stroke="#64748b" stroke-width="2"/>
  <circle cx="305.00" cy="200.00" r="60.00" fill="none" stroke="#64748b" stroke-width="2"  />
  <path d="M 445.0 200.0 L 445.00 140.00 A 60 60 0 0 1 502.06 181.46 Z" fill="#22c55e" stroke="#64748b" stroke-width="2"/>
  <path d="M 445.0 200.0 L 502.06 181.46 A 60 60 0 0 1 480.27 248.54 Z" fill="#22c55e" stroke="#64748b" stroke-width="2"/>
  <path d="M 445.0 200.0 L 480.27 248.54 A 60 60 0 0 1 409.73 248.54 Z" fill="#22c55e" stroke="#64748b" stroke-width="2"/>
  <path d="M 445.0 200.0 L 409.73 248.54 A 60 60 0 0 1 387.94 181.46 Z" fill="#22c55e" stroke="#64748b" stroke-width="2"/>
  <path d="M 445.0 200.0 L 387.94 181.46 A 60 60 0 0 1 445.00 140.00 Z" fill="#22c55e" stroke="#64748b" stroke-width="2"/>
  <circle cx="445.00" cy="200.00" r="60.00" fill="none" stroke="#64748b" stroke-width="2"  />
  <path d="M 585.0 200.0 L 585.00 140.00 A 60 60 0 0 1 642.06 181.46 Z" fill="#22c55e" stroke="#64748b" stroke-width="2"/>
  <path d="M 585.0 200.0 L 642.06 181.46 A 60 60 0 0 1 620.27 248.54 Z" fill="#22c55e" stroke="#64748b" stroke-width="2"/>
  <path d="M 585.0 200.0 L 620.27 248.54 A 60 60 0 0 1 549.73 248.54 Z" fill="#f1f5f9" stroke="#64748b" stroke-width="2"/>
  <path d="M 585.0 200.0 L 549.73 248.54 A 60 60 0 0 1 527.94 181.46 Z" fill="#f1f5f9" stroke="#64748b" stroke-width="2"/>
  <path d="M 585.0 200.0 L 527.94 181.46 A 60 60 0 0 1 585.00 140.00 Z" fill="#f1f5f9" stroke="#64748b" stroke-width="2"/>
  <circle cx="585.00" cy="200.00" r="60.00" fill="none" stroke="#64748b" stroke-width="2"  />
  <text x="375.00" y="395.00" font-family="Inter, sans-serif" font-size="32" font-weight="bold" fill="#1e293b" text-anchor="middle" dominant-baseline="middle">3 ␣ 2/5 = 17/5</text>
</svg>