<svg xmlns="http://www.w3.org/2000/svg" viewBox="0 0 750 420">
  <defs></defs>
  <rect x="0.00" y="0.00" width="750.00" height="420.00" fill="#f8fafc" stroke="none" stroke-width="0" rx="0"  />
  <path d="M 135.0 70.0 L 135.00 20.00 A 50 50 0 0 1 164.39 29.55 Z" fill="#22c55e" stroke="#64748b" stroke-width="2"/>
  <path d="M 135.0 70.0 L 164.39 29.55 A 50 50 0 0 1 182.55 54.55 Z" fill="#22c55e" stroke="#64748b" stroke-width="2"/>
  <path d="M 135.0 70.0 L 182.55 54.55 A 50 50 0 0 1 182.55 85.45 Z" fill="#22c55e" stroke="#64748b" stroke-width="2"/>
  <path d="M 135.0 70.0 L 182.55 85.45 A 50 50 0 0 1 164.39 110.45 Z" fill="#22c55e" stroke="#64748b" stroke-width="2"/>
  <path d="M 135.0 70.0 L 164.39 110.45 A 50 50 0 0 1 135.00 120.00 Z" fill="#22c55e" stroke="#64748b" stroke-width="2"/>
  <path d="M 135.0 70.0 L 135.00 120.00 A 50 50 0 0 1 105.61 110.45 Z" fill="#22c55e" stroke="#64748b" stroke-width="2"/>
  <path d="M 135.0 70.0 L 105.61 110.45 A 50 50 0 0 1 87.45 85.45 Z" fill="#22c55e" stroke="#64748b" stroke-width="2"/>
  <path d="M 135.0 70.0 L 87.45 85.45 A 50 50 0 0 1 87.45 54.55 Z" fill="#22c55e" stroke="#64748b" stroke-width="2"/>
  <path d="M 135.0 70.0 L 87.45 54.55 A 50 50 0 0 1 105.61 29.55 Z" fill="#22c55e" stroke="#64748b" stroke-width="2"/>
  <path d="M 135.0 70.0 L 105.61 29.55 A 50 50 0 0 1 135.00 20.00 Z" fill="#22c55e" stroke="#64748b" stroke-width="2"/>
  <circle cx="135.00" cy="70.00" r="50.00" fill="none" stroke="#64748b" stroke-width="2"  />
  <path d="M 255.0 70.0 L 255.00 20.00 A 50 50 0 0 1 284.39 29.55 Z" fill="#22c55e" stroke="#64748b" stroke-width="2"/>
  <path d="M 255.0 70.0 L 284.39 29.55 A 50 50 0 0 1 302.55 54.55 Z" fill="#22c55e" stroke="#64748b" stroke-width="2"/>
  <path d="M 255.0 70.0 L 302.55 54.55 A 50 50 0 0 1 302.55 85.45 Z" fill="#22c55e" stroke="#64748b" stroke-width="2"/>
  <path d="M 255.0 70.0 L 302.55 85.45 A 50 50 0 0 1 284.39 110.45 Z" fill="#22c55e" stroke="#64748b" stroke-width="2"/>
  <path d="M 255.0 70.0 L 284.39 110.45 A 50 50 0 0 1 255.00 120.00 Z" fill="#22c55e" stroke="#64748b" stroke-width="2"/>
  <path d="M 255.0 70.0 L 255.00 120.00 A 50 50 0 0 1 225.61 110.45 Z" fill="#22c55e" stroke="#64748b" stroke-width="2"/>
  <path d="M 255.0 70.0 L 225.61 110.45 A 50 50 0 0 1 207.45 85.45 Z" fill="#22c55e" stroke="#64748b" stroke-width="2"/>
  <path d="M 255.0 70.0 L 207.45 85.45 A 50 50 0 0 1 207.45 54.55 Z" fill="#22c55e" stroke="#64748b" stroke-width="2"/>
  <path d="M 255.0 70.0 L 207.45 54.55 A 50 50 0 0 1 225.61 29.55 Z" fill="#22c55e" stroke="#64748b" stroke-width="2"/>
  <path d="M 255.0 70.0 L 225.61 29.55 A 50 50 0 0 1 255.00 20.00 Z" fill="#22c55e" stroke="#64748b" stroke-width="2"/>
  <circle cx="255.00" cy="70.00" r="50.00" fill="none" stroke="#64748b" stroke-width="2"  />
  <path d="M 375.0 70.0 L 375.00 20.00 A 50 50 0 0 1 404.39 29.55 Z" fill="#22c55e" stroke="#64748b" stroke-width="2"/>
  <path d="M 375.0 70.0 L 404.39 29.55 A 50 50 0 0 1 422.55 54.55 Z" fill="#22c55e" stroke="#64748b" stroke-width="2"/>
  <path d="M 375.0 70.0 L 422.55 54.55 A 50 50 0 0 1 422.55 85.45 Z" fill="#22c55e" stroke="#64748b" stroke-width="2"/>
  <path d="M 375.0 70.0 L 422.55 85.45 A 50 50 0 0 1 404.39 110.45 Z" fill="#22c55e" stroke="#64748b" stroke-width="2"/>
  <path d="M 375.0 70.0 L 404.39 110.45 A 50 50 0 0 1 375.00 120.00 Z" fill="#22c55e" stroke="#64748b" stroke-width="2"/>
  <path d="M 375.0 70.0 L 375.00 120.00 A 50 50 0 0 1 345.61 110.45 Z" fill="#22c55e" stroke="#64748b" stroke-width="2"/>
  <path d="M 375.0 70.0 L 345.61 110.45 A 50 50 0 0 1 327.45 85.45 Z" fill="#22c55e" stroke="#64748b" stroke-width="2"/>
  <path d="M 375.0 70.0 L 327.45 85.45 A 50 50 0 0 1 327.45 54.55 Z" fill="#22c55e" stroke="#64748b" stroke-width="2"/>
  <path d="M 375.0 70.0 L 327.45 54.55 A 50 50 0 0 1 345.61 29.55 Z" fill="#22c55e" stroke="#64748b" stroke-width="2"/>
  <path d="M 375.0 70.0 L 345.61 29.55 A 50 50 0 0 1 375.00 20.00 Z" fill="#22c55e" stroke="#64748b" stroke-width="2"/>
  <circle cx="375.00" cy="70.00" r="50.00" fill="none" stroke="#64748b" stroke-width="2"  />
  <path d="M 495.0 70.0 L 495.00 20.00 A 50 50 0 0 1 524.39 29.55 Z" fill="#22c55e" stroke="#64748b" stroke-width="2"/>
  <path d="M 495.0 70.0 L 524.39 29.55 A 50 50 0 0 1 542.55 54.55 Z" fill="#22c55e" stroke="#64748b" stroke-width="2"/>
  <path d="M 495.0 70.0 L 542.55 54.55 A 50 50 0 0 1 542.55 85.45 Z" fill="#22c55e" stroke="#64748b" stroke-width="2"/>
  <path d="M 495.0 70.0 L 542.55 85.45 A 50 50 0 0 1 524.39 110.45 Z" fill="#22c55e" stroke="#64748b" stroke-width="2"/>
  <path d="M 495.0 70.0 L 524.39 110.45 A 50 50 0 0 1 495.00 120.00 Z" fill="#22c55e" stroke="#64748b" stroke-width="2"/>
  <path d="M 495.0 70.0 L 495.00 120.00 A 50 50 0 0 1 465.61 110.45 Z" fill="#22c55e" stroke="#64748b" stroke-width="2"/>
  <path d="M 495.0 70.0 L 465.61 110.45 A 50 50 0 0 1 447.45 85.45 Z" fill="#22c55e" stroke="#64748b" stroke-width="2"/>
  <path d="M 495.0 70.0 L 447.45 85.45 A 50 50 0 0 1 447.45 54.55 Z" fill="#22c55e" stroke="#64748b" stroke-width="2"/>
  <path d="M 495.0 70.0 L 447.45 54.55 A 50 50 0 0 1 465.61 29.55 Z" fill="#22c55e" stroke="#64748b" stroke-width="2"/>
  <path d="M 495.0 70.0 L 465.61 29.55 A 50 50 0 0 1 495.00 20.00 Z" fill="#22c55e" stroke="#64748b" stroke-width="2"/>
  <circle cx="495.00" cy="70.00" r="50.00" fill="none" stroke="#64748b" stroke-width="2"  />
  <path d="M 615.0 70.0 L 615.00 20.00 A 50 50 0 0 1 644.39 29.55 Z" fill="#22c55e" stroke="#64748b" stroke-width="2"/>
  <path d="M 615.0 70.0 L 644.39 29.55 A 50 50 0 0 1 662.55 54.55 Z" fill="#22c55e" stroke="#64748b" stroke-width="2"/>
  <path d="M 615.0 70.0 L 662.55 54.55 A 50 50 0 0 1 662.55 85.45 Z" fill="#22c55e" stroke="#64748b" stroke-width="2"/>
  <path d="M 615.0 70.0 L 662.55 85.45 A 50 50 0 0 1 644.39 110.45 Z" fill="#22c55e" stroke="#64748b" stroke-width="2"/>
  <path d="M 615.0 70.0 L 644.39 110.45 A 50 50 0 0 1 615.00 120.00 Z" fill="#22c55e" stroke="#64748b" stroke-width="2"/>
  <path d="M 615.0 70.0 L 615.00 120.00 A 50 50 0 0 1 585.61 110.45 Z" fill="#22c55e" stroke="#64748b" stroke-width="2"/>
  <path d="M 615.0 70.0 L 585.61 110.45 A 50 50 0 0 1 567.45 85.45 Z" fill="#22c55e" stroke="#64748b" stroke-width="2"/>
  <path d="M 615.0 70.0 L 567.45 85.45 A 50 50 0 0 1 567.45 54.55 Z" fill="#22c55e" stroke="#64748b" stroke-width="2"/>
  <path d="M 615.0 70.0 L 567.45 54.55 A 50 50 0 0 1 585.61 29.55 Z" fill="#22c55e" stroke="#64748b" stroke-width="2"/>
  <path d="M 615.0 70.0 L 585.61 29.55 A 50 50 0 0 1 615.00 20.00 Z" fill="#22c55e" stroke="#64748b" stroke-width="2"/>
  <circle cx="615.00" cy="70.00" r="50.00" fill="none" stroke="#64748b" stroke-width="2"  />
  <path d="M 135.0 200.0 L 135.00 150.00 A 50 50 0 0 1 164.39 159.55 Z" fill="#22c55e" stroke="#64748b" stroke-width="2"/>
  <path d="M 135.0 200.0 L 164.39 159.55 A 50 50 0 0 1 182.55 184.55 Z" fill="#22c55e" stroke="#64748b" stroke-width="2"/>
  <path d="M 135.0 200.0 L 182.55 184.55 A 50 50 0 0 1 182.55 215.45 Z" fill="#22c55e" stroke="#64748b" stroke-width="2"/>
  <path d="M 135.0 200.0 L 182.55 215.45 A 50 50 0 0 1 164.39 240.45 Z" fill="#22c55e" stroke="#64748b" stroke-width="2"/>
  <path d="M 135.0 200.0 L 164.39 240.45 A 50 50 0 0 1 135.00 250.00 Z" fill="#22c55e" stroke="#64748b" stroke-width="2"/>
  <path d="M 135.0 200.0 L 135.00 250.00 A 50 50 0 0 1 105.61 240.45 Z" fill="#22c55e" stroke="#64748b" stroke-width="2"/>
  <path d="M 135.0 200.0 L 105.61 240.45 A 50 50 0 0 1 87.45 215.45 Z" fill="#22c55e" stroke="#64748b" stroke-width="2"/>
  <path d="M 135.0 200.0 L 87.45 215.45 A 50 50 0 0 1 87.45 184.55 Z" fill="#22c55e" stroke="#64748b" stroke-width="2"/>
  <path d="M 135.0 200.0 L 87.45 184.55 A 50 50 0 0 1 105.61 159.55 Z" fill="#22c55e" stroke="#64748b" stroke-width="2"/>
  <path d="M 135.0 200.0 L 105.61 159.55 A 50 50 0 0 1 135.00 150.00 Z" fill="#22c55e" stroke="#64748b" stroke-width="2"/>
  <circle cx="135.00" cy="200.00" r="50.00" fill="none" stroke="#64748b" stroke-width="2"  />
  <path d="M 255.0 200.0 L 255.00 150.00 A 50 50 0 0 1 284.39 159.55 Z" fill="#22c55e" stroke="#64748b" stroke-width="2"/>
  <path d="M 255.0 200.0 L 284.39 159.55 A 50 50 0 0 1 302.55 184.55 Z" fill="#22c55e" stroke="#64748b" stroke-width="2"/>
  <path d="M 255.0 200.0 L 302.55 184.55 A 50 50 0 0 1 302.55 215.45 Z" fill="#22c55e" stroke="#64748b" stroke-width="2"/>
  <path d="M 255.0 200.0 L 302.55 215.45 A 50 50 0 0 1 284.39 240.45 Z" fill="#22c55e" stroke="#64748b" stroke-width="2"/>
  <path d="M 255.0 200.0 L 284.39 240.45 A 50 50 0 0 1 255.00 250.00 Z" fill="#22c55e" stroke="#64748b" stroke-width="2"/>
  <path d="M 255.0 200.0 L 255.00 250.00 A 50 50 0 0 1 225.61 240.45 Z" fill="#22c55e" stroke="#64748b" stroke-width="2"/>
  <path d="M 255.0 200.0 L 225.61 240.45 A 50 50 0 0 1 207.45 215.45 Z" fill="#22c55e" stroke="#64748b" stroke-width="2"/>
  <path d="M 255.0 200.0 L 207.45 215.45 A 50 50 0 0 1 207.45 184.55 Z" fill="#22c55e" stroke="#64748b" stroke-width="2"/>
  <path d="M 255.0 200.0 L 207.45 184.55 A 50 50 0 0 1 225.61 159.55 Z" fill="#22c55e" stroke="#64748b" stroke-width="2"/>
  <path d="M 255.0 200.0 L 225.61 159.55 A 50 50 0 0 1 255.00 150.00 Z" fill="#22c55e" stroke="#64748b" stroke-width="2"/>
  <circle cx="255.00" cy="200.00" r="50.00" fill="none" stroke="#64748b" stroke-width="2"  />
  <path d="M 375.0 200.0 L 375.00 150.00 A 50 50 0 0 1 404.39 159.55 Z" fill="#22c55e" stroke="#64748b" stroke-width="2"/>
  <path d="M 375.0 200.0 L 404.39 159.55 A 50 50 0 0 1 422.55 184.55 Z" fill="#22c55e" stroke="#64748b" stroke-width="2"/>
  <path d="M 375.0 200.0 L 422.55 184.55 A 50 50 0 0 1 422.55 215.45 Z" fill="#22c55e" stroke="#64748b" stroke-width="2"/>
  <path d="M 375.0 200.0 L 422.55 215.45 A 50 50 0 0 1 404.39 240.45 Z" fill="#22c55e" stroke="#64748b" stroke-width="2"/>
  <path d="M 375.0 200.0 L 404.39 240.45 A 50 50 0 0 1 375.00 250.00 Z" fill="#22c55e" stroke="#64748b" stroke-width="2"/>
  <path d="M 375.0 200.0 L 375.00 250.00 A 50 50 0 0 1 345.61 240.45 Z" fill="#22c55e" stroke="#64748b" stroke-width="2"/>
  <path d="M 375.0 200.0 L 345.61 240.45 A 50 50 0 0 1 327.45 215.45 Z" fill="#22c55e" stroke="#64748b" stroke-width="2"/>
  <path d="M 375.0 200.0 L 327.45 215.45 A 50 50 0 0 1 327.45 184.55 Z" fill="#22c55e" stroke="#64748b" stroke-width="2"/>
  <path d="M 375.0 200.0 L 327.45 184.55 A 50 50 0 0 1 345.61 159.55 Z" fill="#22c55e" stroke="#64748b" stroke-width="2"/>
  <path d="M 375.0 200.0 L 345.61 159.55 A 50 50 0 0 1 375.00 150.00 Z" fill="#22c55e" stroke="#64748b" stroke-width="2"/>
  <circle cx="375.00" cy="200.00" r="50.00" fill="none" stroke="#64748b" stroke-width="2"  />
  <path d="M 495.0 200.0 L 495.00 150.00 A 50 50 0 0 1 524.39 159.55 Z" fill="#22c55e" stroke="#64748b" stroke-width="2"/>
  <path d="M 495.0 200.0 L 524.39 159.55 A 50 50 0 0 1 542.55 184.55 Z" fill="#22c55e" stroke="#64748b" stroke-width="2"/>
  <path d="M 495.0 200.0 L 542.55 184.55 A 50 50 0 0 1 542.55 215.45 Z" fill="#22c55e" stroke="#64748b" stroke-width="2"/>
  <path d="M 495.0 200.0 L 542.55 215.45 A 50 50 0 0 1 524.39 240.45 Z" fill="#22c55e" stroke="#64748b" stroke-width="2"/>
  <path d="M 495.0 200.0 L 524.39 240.45 A 50 50 0 0 1 495.00 250.00 Z" fill="#22c55e" stroke="#64748b" stroke-width="2"/>
  <path d="M 495.0 200.0 L 495.00 250.00 A 50 50 0 0 1 465.61 240.45 Z" fill="#22c55e" stroke="#64748b" stroke-width="2"/>
  <path d="M 495.0 200.0 L 465.61 240.45 A 50 50 0 0 1 447.45 215.45 Z" fill="#22c55e" stroke="#64748b" stroke-width="2"/>
  <path d="M 495.0 200.0 L 447.45 215.45 A 50 50 0 0 1 447.45 184.55 Z" fill="#22c55e" stroke="#64748b" stroke-width="2"/>
  <path d="M 495.0 200.0 L 447.45 184.55 A 50 50 0 0 1 465.61 159.55 Z" fill="#22c55e" stroke="#64748b" stroke-width="2"/>
  <path d="M 495.0 200.0 L 465.61 159.55 A 50 50 0 0 1 495.00 150.00 Z" fill="#22c55e" stroke="#64748b" stroke-width="2"/>
  <circle cx="495.00" cy="200.00" r="50.00" fill="none" stroke="#64748b" stroke-width="2"  />
  <path d="M 615.0 200.0 L 615.00 150.00 A 50 50 0 0 1 644.39 159.55 Z" fill="#22c55e" stroke="#64748b" stroke-width="2"/>
  <path d="M 615.0 200.0 L 644.39 159.55 A 50 50 0 0 1 662.55 184.55 Z" fill="#22c55e" stroke="#64748b" stroke-width="2"/>
  <path d="M 615.0 200.0 L 662.55 184.55 A 50 50 0 0 1 662.55 215.45 Z" fill="#22c55e" stroke="#64748b" stroke-width="2"/>
  <path d="M 615.0 200.0 L 662.55 215.45 A 50 50 0 0 1 644.39 240.45 Z" fill="#22c55e" stroke="#64748b" stroke-width="2"/>
  <path d="M 615.0 200.0 L 644.39 240.45 A 50 50 0 0 1 615.00 250.00 Z" fill="#22c55e" stroke="#64748b" stroke-width="2"/>
  <path d="M 615.0 200.0 L 615.00 250.00 A 50 50 0 0 1 585.61 240.45 Z" fill="#22c55e" stroke="#64748b" stroke-width="2"/>
  <path d="M 615.0 200.0 L 585.61 240.45 A 50 50 0 0 1 567.45 215.45 Z" fill="#22c55e" stroke="#64748b" stroke-width="2"/>
  <path d="M 615.0 200.0 L 567.45 215.45 A 50 50 0 0 1 567.45 184.55 Z" fill="#22c55e" stroke="#64748b" stroke-width="2"/>
  <path d="M 615.0 200.0 L 567.45 184.55 A 50 50 0 0 1 585.61 159.55 Z" fill="#22c55e" stroke="#64748b" stroke-width="2"/>
  <path d="M 615.0 200.0 L 585.61 159.55 A 50 50 0 0 1 615.00 150.00 Z" fill="#22c55e" stroke="#64748b" stroke-width="2"/>
  <circle cx="615.00" cy="200.00" r="50.00" fill="none" stroke="#64748b" stroke-width="2"  />
  <path d="M 135.0 330.0 L 135.00 280.00 A 50 50 0 0 1 164.39 289.55 Z" fill="#22c55e" stroke="#64748b" stroke-width="2"/>
  <path d="M 135.0 330.0 L 164.39 289.55 A 50 50 0 0 1 182.55 314.55 Z" fill="#f1f5f9" stroke="#64748b" stroke-width="2"/>
  <path d="M 135.0 330.0 L 182.55 314.55 A 50 50 0 0 1 182.55 345.45 Z" fill="#f1f5f9" stroke="#64748b" stroke-width="2"/>
  <path d="M 135.0 330.0 L 182.55 345.45 A 50 50 0 0 1 164.39 370.45 Z" fill="#f1f5f9" stroke="#64748b" stroke-width="2"/>
  <path d="M 135.0 330.0 L 164.39 370.45 A 50 50 0 0 1 135.00 380.00 Z" fill="#f1f5f9" stroke="#64748b" stroke-width="2"/>
  <path d="M 135.0 330.0 L 135.00 380.00 A 50 50 0 0 1 105.61 370.45 Z" fill="#f1f5f9" stroke="#64748b" stroke-width="2"/>
  <path d="M 135.0 330.0 L 105.61 370.45 A 50 50 0 0 1 87.45 345.45 Z" fill="#f1f5f9" stroke="#64748b" stroke-width="2"/>
  <path d="M 135.0 330.0 L 87.45 345.45 A 50 50 0 0 1 87.45 314.55 Z" fill="#f1f5f9" stroke="#64748b" stroke-width="2"/>
  <path d="M 135.0 330.0 L 87.45 314.55 A 50 50 0 0 1 105.61 289.55 Z" fill="#f1f5f9" stroke="#64748b" stroke-width="2"/>
  <path d="M 135.0 330.0 L 105.61 289.55 A 50 50 0 0 1 135.00 280.00 Z" fill="#f1f5f9" stroke="#64748b" stroke-width="2"/>
  <circle cx="135.00" cy="330.00" r="50.00" fill="none" stroke="#64748b" stroke-width="2"  />
  <text x="375.00" y="395.00" font-family="Inter, sans-serif" font-size="32" font-weight="bold" fill="#1e293b" text-anchor="middle" dominant-baseline="middle">10 ␣ 1/10 = 101/10</text>
</svg>