<svg xmlns="http://www.w3.org/2000/svg" viewBox="0 0 750 420">
  <defs></defs>
  <rect x="0.00" y="0.00" width="750.00" height="420.00" fill="#f8fafc" stroke="none" stroke-width="0" rx="0"  />
  <path d="M 135.0 135.0 L 135.00 85.00 A 50 50 0 0 1 135.00 185.00 Z" fill="#22c55e" stroke="#64748b" stroke-width="2"/>
  <path d="M 135.0 135.0 L 135.00 185.00 A 50 50 0 0 1 135.00 85.00 Z" fill="#22c55e" stroke="#64748b" stroke-width="2"/>
  <circle cx="135.00" cy="135.00" r="50.00" fill="none" stroke="#64748b" stroke-width="2"  />
  <path d="M 255.0 135.0 L 255.00 85.00 A 50 50 0 0 1 255.00 185.00 Z" fill="#22c55e" stroke="#64748b" stroke-width="2"/>
  <path d="M 255.0 135.0 L 255.00 185.00 A 50 50 0 0 1 255.00 85.00 Z" fill="#22c55e" stroke="#64748b" stroke-width="2"/>
  <circle cx="255.00" cy="135.00" r="50.00" fill="none" stroke="#64748b" stroke-width="2"  />
  <path d="M 375.0 135.0 L 375.00 85.00 A 50 50 0 0 1 375.00 185.00 Z" fill="#22c55e" stroke="#64748b" stroke-width="2"/>
  <path d="M 375.0 135.0 L 375.00 185.00 A 50 50 0 0 1 375.00 85.00 Z" fill="#22c55e" stroke="#64748b" stroke-width="2"/>
  <circle cx="375.00" cy="135.00" r="50.00" fill="none" stroke="#64748b" stroke-width="2"  />
  <path d="M 495.0 135.0 L 495.00 85.00 A 50 50 0 0 1 495.00 185.00 Z" fill="#22c55e" stroke="#64748b" stroke-width="2"/>
  <path d="M 495.0 135.0 L 495.00 185.00 A 50 50 0 0 1 495.00 85.00 Z" fill="#22c55e" stroke="#64748b" stroke-width="2"/>
  <circle cx="495.00" cy="135.00" r="50.00" fill="none" stroke="#64748b" stroke-width="2"  />
  <path d="M 615.0 135.0 L 615.00 85.00 A 50 50 0 0 1 615.00 185.00 Z" fill="#22c55e" stroke="#64748b" stroke-width="2"/>
  <path d="M 615.0 135.0 L 615.00 185.00 A 50 50 0 0 1 615.00 85.00 Z" fill="#22c55e" stroke="#64748b" stroke-width="2"/>
  <circle cx="615.00" cy="135.00" r="50.00" fill="none" stroke="#64748b" stroke-width="2"  />
  <path d="M 135.0 265.0 L 135.00 215.00 A 50 50 0 0 1 135.00 315.00 Z" fill="#22c55e" stroke="#64748b" stroke-width="2"/>
  <path d="M 135.0 265.0 L 135.00 315.00 A 50 50 0 0 1 135.00 215.00 Z" fill="#22c55e" stroke="#64748b" stroke-width="2"/>
  <circle cx="135.00" cy="265.00" r="50.00" fill="none" stroke="#64748b" stroke-width="2"  />
  <path d="M 255.0 265.0 L 255.00 215.00 A 50 50 0 0 1 255.00 315.00 Z" fill="#22c55e" stroke="#64748b" stroke-width="2"/>
  <path d="M 255.0 265.0 L 255.00 315.00 A 50 50 0 0 1 255.00 215.00 Z" fill="#22c55e" stroke="#64748b" stroke-width="2"/>
  <circle cx="255.00" cy="265.00" r="50.00" fill="none" stroke="#64748b" stroke-width="2"  />
  <path d="M 375.0 265.0 L 375.00 215.00 A 50 50 0 0 1 375.00 315.00 Z" fill="#22c55e" stroke="#64748b" stroke-width="2"/>
  <path d="M 375.0 265.0 L 375.00 315.00 A 50 50 0 0 1 375.00 215.00 Z" fill="#f1f5f9" stroke="#64748b" stroke-width="2"/>
  <circle cx="375.00" cy="265.00" r="50.00" fill="none" stroke="#64748b" stroke-width="2"  />
  <text x="375.00" y="395.00" font-family="Inter, sans-serif" font-size="32" font-weight="bold" fill="#1e293b" text-anchor="middle" dominant-baseline="middle">7 ␣ 1/2 = 15/2</text>
</svg>