<svg xmlns="http://www.w3.org/2000/svg" viewBox="0 0 750 420">
  <defs></defs>
  <rect x="0.00" y="0.00" width="750.00" height="420.00" fill="#f8fafc" stroke="none" stroke-width="0" rx="0"  />
  <path d="M 235.0 200.0 L 235.00 140.00 A 60 60 0 0 1 281.91 162.59 Z" fill="#22c55e" stroke="#64748b" stroke-width="2"/>
  <path d="M 235.0 200.0 L 281.91 162.59 A 60 60 0 0 1 293.50 213.35 Z" fill="#22c55e" stroke="#64748b" stroke-width="2"/>
  <path d="M 235.0 200.0 L 293.50 213.35 A 60 60 0 0 1 261.03 254.06 Z" fill="#22c55e" stroke="#64748b" stroke-width="2"/>
  <path d="M 235.0 200.0 L 261.03 254.06 A 60 60 0 0 1 208.97 254.06 Z" fill="#22c55e" stroke="#64748b" stroke-width="2"/>
  <path d="M 235.0 200.0 L 208.97 254.06 A 60 60 0 0 1 176.50 213.35 Z" fill="#22c55e" stroke="#64748b" stroke-width="2"/>
  <path d="M 235.0 200.0 L 176.50 213.35 A 60 60 0 0 1 188.09 162.59 Z" fill="#22c55e" stroke="#64748b" stroke-width="2"/>
  <path d="M 235.0 200.0 L 188.09 162.59 A 60 60 0 0 1 235.00 140.00 Z" fill="#22c55e" stroke="#64748b" stroke-width="2"/>
  <circle cx="235.00" cy="200.00" r="60.00" fill="none" stroke="#64748b" stroke-width="2"  />
  <path d="M 375.0 200.0 L 375.00 140.00 A 60 60 0 0 1 421.91 162.59 Z" fill="#22c55e" stroke="#64748b" stroke-width="2"/>
  <path d="M 375.0 200.0 L 421.91 162.59 A 60 60 0 0 1 433.50 213.35 Z" fill="#22c55e" stroke="#64748b" stroke-width="2"/>
  <path d="M 375.0 200.0 L 433.50 213.35 A 60 60 0 0 1 401.03 254.06 Z" fill="#22c55e" stroke="#64748b" stroke-width="2"/>
  <path d="M 375.0 200.0 L 401.03 254.06 A 60 60 0 0 1 348.97 254.06 Z" fill="#22c55e" stroke="#64748b" stroke-width="2"/>
  <path d="M 375.0 200.0 L 348.97 254.06 A 60 60 0 0 1 316.50 213.35 Z" fill="#22c55e" stroke="#64748b" stroke-width="2"/>
  <path d="M 375.0 200.0 L 316.50 213.35 A 60 60 0 0 1 328.09 162.59 Z" fill="#22c55e" stroke="#64748b" stroke-width="2"/>
  <path d="M 375.0 200.0 L 328.09 162.59 A 60 60 0 0 1 375.00 140.00 Z" fill="#22c55e" stroke="#64748b" stroke-width="2"/>
  <circle cx="375.00" cy="200.00" r="60.00" fill="none" stroke="#64748b" stroke-width="2"  />
  <path d="M 515.0 200.0 L 515.00 140.00 A 60 60 0 0 1 561.91 162.59 Z" fill="#22c55e" stroke="#64748b" stroke-width="2"/>
  <path d="M 515.0 200.0 L 561.91 162.59 A 60 60 0 0 1 573.50 213.35 Z" fill="#22c55e" stroke="#64748b" stroke-width="2"/>
  <path d="M 515.0 200.0 L 573.50 213.35 A 60 60 0 0 1 541.03 254.06 Z" fill="#22c55e" stroke="#64748b" stroke-width="2"/>
  <path d="M 515.0 200.0 L 541.03 254.06 A 60 60 0 0 1 488.97 254.06 Z" fill="#22c55e" stroke="#64748b" stroke-width="2"/>
  <path d="M 515.0 200.0 L 488.97 254.06 A 60 60 0 0 1 456.50 213.35 Z" fill="#22c55e" stroke="#64748b" stroke-width="2"/>
  <path d="M 515.0 200.0 L 456.50 213.35 A 60 60 0 0 1 468.09 162.59 Z" fill="#f1f5f9" stroke="#64748b" stroke-width="2"/>
  <path d="M 515.0 200.0 L 468.09 162.59 A 60 60 0 0 1 515.00 140.00 Z" fill="#f1f5f9" stroke="#64748b" stroke-width="2"/>
  <circle cx="515.00" cy="200.00" r="60.00" fill="none" stroke="#64748b" stroke-width="2"  />
  <text x="375.00" y="395.00" font-family="Inter, sans-serif" font-size="32" font-weight="bold" fill="#1e293b" text-anchor="middle" dominant-baseline="middle">2 ␣ 5/7 = 19/7</text>
</svg>