<svg xmlns="http://www.w3.org/2000/svg" viewBox="0 0 750 420">
  <defs></defs>
  <rect x="0.00" y="0.00" width="750.00" height="420.00" fill="#f8fafc" stroke="none" stroke-width="0" rx="0"  />
  <path d="M 165.0 200.0 L 165.00 140.00 A 60 60 0 0 1 216.96 170.00 Z" fill="#22c55e" stroke="#64748b" stroke-width="2"/>
  <path d="M 165.0 200.0 L 216.96 170.00 A 60 60 0 0 1 216.96 230.00 Z" fill="#22c55e" stroke="#64748b" stroke-width="2"/>
  <path d="M 165.0 200.0 L 216.96 230.00 A 60 60 0 0 1 165.00 260.00 Z" fill="#22c55e" stroke="#64748b" stroke-width="2"/>
  <path d="M 165.0 200.0 L 165.00 260.00 A 60 60 0 0 1 113.04 230.00 Z" fill="#22c55e" stroke="#64748b" stroke-width="2"/>
  <path d="M 165.0 200.0 L 113.04 230.00 A 60 60 0 0 1 113.04 170.00 Z" fill="#22c55e" stroke="#64748b" stroke-width="2"/>
  <path d="M 165.0 200.0 L 113.04 170.00 A 60 60 0 0 1 165.00 140.00 Z" fill="#22c55e" stroke="#64748b" stroke-width="2"/>
  <circle cx="165.00" cy="200.00" r="60.00" fill="none" stroke="#64748b" stroke-width="2"  />
  <path d="M 305.0 200.0 L 305.00 140.00 A 60 60 0 0 1 356.96 170.00 Z" fill="#22c55e" stroke="#64748b" stroke-width="2"/>
  <path d="M 305.0 200.0 L 356.96 170.00 A 60 60 0 0 1 356.96 230.00 Z" fill="#22c55e" stroke="#64748b" stroke-width="2"/>
  <path d="M 305.0 200.0 L 356.96 230.00 A 60 60 0 0 1 305.00 260.00 Z" fill="#22c55e" stroke="#64748b" stroke-width="2"/>
  <path d="M 305.0 200.0 L 305.00 260.00 A 60 60 0 0 1 253.04 230.00 Z" fill="#22c55e" stroke="#64748b" stroke-width="2"/>
  <path d="M 305.0 200.0 L 253.04 230.00 A 60 60 0 0 1 253.04 170.00 Z" fill="#22c55e" stroke="#64748b" stroke-width="2"/>
  <path d="M 305.0 200.0 L 253.04 170.00 A 60 60 0 0 1 305.00 140.00 Z" fill="#22c55e" stroke="#64748b" stroke-width="2"/>
  <circle cx="305.00" cy="200.00" r="60.00" fill="none" stroke="#64748b" stroke-width="2"  />
  <path d="M 445.0 200.0 L 445.00 140.00 A 60 60 0 0 1 496.96 170.00 Z" fill="#22c55e" stroke="#64748b" stroke-width="2"/>
  <path d="M 445.0 200.0 L 496.96 170.00 A 60 60 0 0 1 496.96 230.00 Z" fill="#22c55e" stroke="#64748b" stroke-width="2"/>
  <path d="M 445.0 200.0 L 496.96 230.00 A 60 60 0 0 1 445.00 260.00 Z" fill="#22c55e" stroke="#64748b" stroke-width="2"/>
  <path d="M 445.0 200.0 L 445.00 260.00 A 60 60 0 0 1 393.04 230.00 Z" fill="#22c55e" stroke="#64748b" stroke-width="2"/>
  <path d="M 445.0 200.0 L 393.04 230.00 A 60 60 0 0 1 393.04 170.00 Z" fill="#22c55e" stroke="#64748b" stroke-width="2"/>
  <path d="M 445.0 200.0 L 393.04 170.00 A 60 60 0 0 1 445.00 140.00 Z" fill="#22c55e" stroke="#64748b" stroke-width="2"/>
  <circle cx="445.00" cy="200.00" r="60.00" fill="none" stroke="#64748b" stroke-width="2"  />
  <path d="M 585.0 200.0 L 585.00 140.00 A 60 60 0 0 1 636.96 170.00 Z" fill="#22c55e" stroke="#64748b" stroke-width="2"/>
  <path d="M 585.0 200.0 L 636.96 170.00 A 60 60 0 0 1 636.96 230.00 Z" fill="#22c55e" stroke="#64748b" stroke-width="2"/>
  <path d="M 585.0 200.0 L 636.96 230.00 A 60 60 0 0 1 585.00 260.00 Z" fill="#22c55e" stroke="#64748b" stroke-width="2"/>
  <path d="M 585.0 200.0 L 585.00 260.00 A 60 60 0 0 1 533.04 230.00 Z" fill="#22c55e" stroke="#64748b" stroke-width="2"/>
  <path d="M 585.0 200.0 L 533.04 230.00 A 60 60 0 0 1 533.04 170.00 Z" fill="#22c55e" stroke="#64748b" stroke-width="2"/>
  <path d="M 585.0 200.0 L 533.04 170.00 A 60 60 0 0 1 585.00 140.00 Z" fill="#f1f5f9" stroke="#64748b" stroke-width="2"/>
  <circle cx="585.00" cy="200.00" r="60.00" fill="none" stroke="#64748b" stroke-width="2"  />
  <text x="375.00" y="395.00" font-family="Inter, sans-serif" font-size="32" font-weight="bold" fill="#1e293b" text-anchor="middle" dominant-baseline="middle">3 ␣ 5/6 = 23/6</text>
</svg>