<svg xmlns="http://www.w3.org/2000/svg" viewBox="0 0 600 460" style="font-family: Inter, system-ui, sans-serif;">
<rect width="600" height="460" fill="#f8fafc" />
<path d="M 175.0 280.0 L 375.0 280.0 L 425.0 140.0 L 225.0 140.0 Z" fill="#3b82f6" fill-opacity="0.1" stroke="#3b82f6" stroke-width="3"/>
<line x1="275.00" y1="285.00" x2="275.00" y2="275.00" stroke="#22c55e" stroke-width="2"/>
<line x1="325.00" y1="135.00" x2="325.00" y2="145.00" stroke="#22c55e" stroke-width="2"/>
<line x1="204.04" y1="213.57" x2="194.62" y2="210.20" stroke="#22c55e" stroke-width="2"/>
<line x1="205.38" y1="209.80" x2="195.96" y2="206.43" stroke="#22c55e" stroke-width="2"/>
<line x1="404.04" y1="213.57" x2="394.62" y2="210.20" stroke="#22c55e" stroke-width="2"/>
<line x1="405.38" y1="209.80" x2="395.96" y2="206.43" stroke="#22c55e" stroke-width="2"/>
<path d="M 175.00 280.00 L 185.09 251.75 A 30 30 0 0 1 205.00 280.00 Z" fill="#ef4444" fill-opacity="0.2" stroke="none"/>
<path d="M 185.09 251.75 A 30 30 0 0 1 205.00 280.00" fill="none" stroke="#ef4444" stroke-width="2"/>

<text x="205.00" y="265.00" font-family="sans-serif" font-size="18" font-weight="bold" fill="#1e293b" text-anchor="middle" dominant-baseline="middle">α</text>
<path d="M 425.00 140.00 L 414.91 168.25 A 30 30 0 0 1 395.00 140.00 Z" fill="#ef4444" fill-opacity="0.2" stroke="none"/>
<path d="M 414.91 168.25 A 30 30 0 0 1 395.00 140.00" fill="none" stroke="#ef4444" stroke-width="2"/>

<text x="395.00" y="155.00" font-family="sans-serif" font-size="18" font-weight="bold" fill="#1e293b" text-anchor="middle" dominant-baseline="middle">α</text>
<path d="M 375.00 280.00 L 345.00 280.00 A 30 30 0 0 1 385.09 251.75 Z" fill="#22c55e" fill-opacity="0.2" stroke="none"/>
<path d="M 345.00 280.00 A 30 30 0 0 1 385.09 251.75" fill="none" stroke="#22c55e" stroke-width="2"/>
<path d="M 350.00 280.00 A 25 25 0 0 1 383.41 256.46" fill="none" stroke="#22c55e" stroke-width="2"/>

<text x="350.00" y="265.00" font-family="sans-serif" font-size="18" font-weight="bold" fill="#1e293b" text-anchor="middle" dominant-baseline="middle">β</text>
<path d="M 225.00 140.00 L 255.00 140.00 A 30 30 0 0 1 214.91 168.25 Z" fill="#22c55e" fill-opacity="0.2" stroke="none"/>
<path d="M 255.00 140.00 A 30 30 0 0 1 214.91 168.25" fill="none" stroke="#22c55e" stroke-width="2"/>
<path d="M 250.00 140.00 A 25 25 0 0 1 216.59 163.54" fill="none" stroke="#22c55e" stroke-width="2"/>

<text x="250.00" y="155.00" font-family="sans-serif" font-size="18" font-weight="bold" fill="#1e293b" text-anchor="middle" dominant-baseline="middle">β</text>
<text x="300.00" y="340.00" font-family="sans-serif" font-size="16" font-weight="bold" fill="#64748b" text-anchor="middle" dominant-baseline="middle">Lados Opuestos Iguales | Ángulos Opuestos Iguales</text>
<text x="300.00" y="35.00" font-family="sans-serif" font-size="22" font-weight="bold" fill="#1e293b" text-anchor="middle" dominant-baseline="middle">Propiedades: Lados y Ángulos</text>
</svg>