<svg xmlns="http://www.w3.org/2000/svg" viewBox="0 0 600 460" style="font-family: Inter, system-ui, sans-serif;">
<rect width="600" height="460" fill="#f8fafc" />
<path d="M 175.0 280.0 L 375.0 280.0 L 425.0 140.0 L 225.0 140.0 Z" fill="#3b82f6" fill-opacity="0.1" stroke="#3b82f6" stroke-width="3"/>
<path d="M 175.00 280.00 L 188.45 242.33 A 40 40 0 0 1 215.00 280.00 Z" fill="#ef4444" fill-opacity="0.2" stroke="none"/>
<path d="M 188.45 242.33 A 40 40 0 0 1 215.00 280.00" fill="none" stroke="#ef4444" stroke-width="2"/>

<text x="215.00" y="265.00" font-family="sans-serif" font-size="18" font-weight="bold" fill="#1e293b" text-anchor="middle" dominant-baseline="middle">α</text>
<path d="M 375.00 280.00 L 335.00 280.00 A 40 40 0 0 1 388.45 242.33 Z" fill="#22c55e" fill-opacity="0.2" stroke="none"/>
<path d="M 335.00 280.00 A 40 40 0 0 1 388.45 242.33" fill="none" stroke="#22c55e" stroke-width="2"/>
<path d="M 340.00 280.00 A 35 35 0 0 1 386.77 247.04" fill="none" stroke="#22c55e" stroke-width="2"/>

<text x="340.00" y="265.00" font-family="sans-serif" font-size="18" font-weight="bold" fill="#1e293b" text-anchor="middle" dominant-baseline="middle">β</text>
<rect x="220.0" y="150.0" width="160" height="60" rx="6" fill="#fef3c7" stroke="#e2e8f0"/>
<text x="300.00" y="180.00" font-family="sans-serif" font-size="22" font-weight="bold" fill="#1e293b" text-anchor="middle" dominant-baseline="middle">α + β = 180°</text>
<line x1="375.0" y1="280.0" x2="455.0" y2="280.0" stroke="#64748b" stroke-dasharray="4,4"/>
<text x="300.00" y="35.00" font-family="sans-serif" font-size="22" font-weight="bold" fill="#1e293b" text-anchor="middle" dominant-baseline="middle">Ángulos Consecutivos (Suplementarios)</text>
</svg>