<svg xmlns="http://www.w3.org/2000/svg" viewBox="0 0 600 460" style="font-family: Inter, system-ui, sans-serif;">
<rect width="600" height="460" fill="#f8fafc" />
<path d="M 150.0 150.0 L 400.0 130.0 L 460.0 310.0 L 180.0 350.0 Z" fill="#3b82f6" fill-opacity="0.1" stroke="#3b82f6" stroke-width="3"/>
<line x1="150.0" y1="150.0" x2="460.0" y2="310.0" stroke="#22c55e" stroke-width="2" stroke-dasharray="5,5"/>
<line x1="400.0" y1="130.0" x2="180.0" y2="350.0" stroke="#22c55e" stroke-width="2" stroke-dasharray="5,5"/>
<text x="130.00" y="140.00" font-family="sans-serif" font-size="18" font-weight="bold" fill="#1e293b" text-anchor="middle" dominant-baseline="middle">A</text>
<text x="420.00" y="120.00" font-family="sans-serif" font-size="18" font-weight="bold" fill="#1e293b" text-anchor="middle" dominant-baseline="middle">B</text>
<text x="480.00" y="320.00" font-family="sans-serif" font-size="18" font-weight="bold" fill="#1e293b" text-anchor="middle" dominant-baseline="middle">C</text>
<text x="160.00" y="360.00" font-family="sans-serif" font-size="18" font-weight="bold" fill="#1e293b" text-anchor="middle" dominant-baseline="middle">D</text>
<path d="M 150.00 150.00 L 179.90 147.61 A 30 30 0 0 1 154.45 179.67 Z" fill="#22c55e" fill-opacity="0.2" stroke="none"/>
<path d="M 179.90 147.61 A 30 30 0 0 1 154.45 179.67" fill="none" stroke="#22c55e" stroke-width="2"/>

<path d="M 400.00 130.00 L 409.49 158.46 A 30 30 0 0 1 370.10 132.39 Z" fill="#22c55e" fill-opacity="0.2" stroke="none"/>
<path d="M 409.49 158.46 A 30 30 0 0 1 370.10 132.39" fill="none" stroke="#22c55e" stroke-width="2"/>

<path d="M 460.00 310.00 L 430.30 314.24 A 30 30 0 0 1 450.51 281.54 Z" fill="#22c55e" fill-opacity="0.2" stroke="none"/>
<path d="M 430.30 314.24 A 30 30 0 0 1 450.51 281.54" fill="none" stroke="#22c55e" stroke-width="2"/>

<path d="M 180.00 350.00 L 175.55 320.33 A 30 30 0 0 1 209.70 345.76 Z" fill="#22c55e" fill-opacity="0.2" stroke="none"/>
<path d="M 175.55 320.33 A 30 30 0 0 1 209.70 345.76" fill="none" stroke="#22c55e" stroke-width="2"/>

<text x="186.88" y="171.25" font-family="KaTeX_Main" font-size="16" font-weight="bold" fill="#1e293b" text-anchor="middle" dominant-baseline="middle">α</text>
<text x="374.38" y="156.25" font-family="KaTeX_Main" font-size="16" font-weight="bold" fill="#1e293b" text-anchor="middle" dominant-baseline="middle">β</text>
<text x="419.38" y="291.25" font-family="KaTeX_Main" font-size="16" font-weight="bold" fill="#1e293b" text-anchor="middle" dominant-baseline="middle">γ</text>
<text x="209.38" y="321.25" font-family="KaTeX_Main" font-size="16" font-weight="bold" fill="#1e293b" text-anchor="middle" dominant-baseline="middle">δ</text>
<text x="300.00" y="390.00" font-family="sans-serif" font-size="16" font-weight="normal" fill="#64748b" text-anchor="middle" dominant-baseline="middle">Lados, Vértices, Ángulos y Diagonales</text>
<text x="300.00" y="35.00" font-family="sans-serif" font-size="22" font-weight="bold" fill="#1e293b" text-anchor="middle" dominant-baseline="middle">Elementos de un Cuadrilátero</text>
</svg>