<svg xmlns="http://www.w3.org/2000/svg" viewBox="0 0 600 460" style="font-family: Inter, system-ui, sans-serif;">
<rect width="600" height="460" fill="#f8fafc" />
<path d="M 200.0 130.0 L 400.0 150.0 L 420.0 310.0 L 220.0 330.0 Z" fill="none" fill-opacity="0.1" stroke="#1e293b" stroke-width="3"/>
<path d="M 220.00 330.00 L 217.51 305.12 A 25 25 0 0 1 237.68 312.32 Z" fill="#22c55e" fill-opacity="0.2" stroke="none"/>
<path d="M 217.51 305.12 A 25 25 0 0 1 237.68 312.32" fill="none" stroke="#22c55e" stroke-width="2"/>

<text x="215.00" y="155.00" font-family="sans-serif" font-size="18" font-weight="bold" fill="#1e293b" text-anchor="middle" dominant-baseline="middle">100°</text>
<path d="M 200.00 130.00 L 224.88 132.49 A 25 25 0 0 1 219.35 145.83 Z" fill="#22c55e" fill-opacity="0.2" stroke="none"/>
<path d="M 224.88 132.49 A 25 25 0 0 1 219.35 145.83" fill="none" stroke="#22c55e" stroke-width="2"/>

<text x="385.00" y="175.00" font-family="sans-serif" font-size="18" font-weight="bold" fill="#1e293b" text-anchor="middle" dominant-baseline="middle">80°</text>
<path d="M 400.00 150.00 L 403.10 174.81 A 25 25 0 0 1 382.32 167.68 Z" fill="#22c55e" fill-opacity="0.2" stroke="none"/>
<path d="M 403.10 174.81 A 25 25 0 0 1 382.32 167.68" fill="none" stroke="#22c55e" stroke-width="2"/>

<text x="395.00" y="295.00" font-family="sans-serif" font-size="18" font-weight="bold" fill="#1e293b" text-anchor="middle" dominant-baseline="middle">70°</text>
<text x="240.00" y="310.00" font-family="sans-serif" font-size="24" font-weight="bold" fill="#ef4444" text-anchor="middle" dominant-baseline="middle">D=?</text>
<text x="300.00" y="35.00" font-family="sans-serif" font-size="22" font-weight="bold" fill="#1e293b" text-anchor="middle" dominant-baseline="middle">Hallar Ángulo Desconocido</text>
</svg>