<svg xmlns="http://www.w3.org/2000/svg" viewBox="0 0 600 450" 
style="max-width: 100%; height: auto; font-family: Inter, system-ui, sans-serif;">

  <style>
    .wave-path {
      stroke-dasharray: 3000;
      stroke-dashoffset: 0;
      animation: none;
    }
    .marker-group { opacity: 1; animation: none; }
    .label-group { opacity: 1; animation: none; }
    .annotation-group { opacity: 1; animation: none; }
    @keyframes drawWave { to { stroke-dashoffset: 0; } }
    @keyframes fadeIn { to { opacity: 1; } }
  </style>

  <rect width="600" height="450" fill="#ffffff" rx="8"/>
  <text x="300.0" y="25" text-anchor="middle" font-size="16" font-weight="bold" fill="#1e293b">Rectas Paralelas: m1 = m2</text>
  <g class="grid">
    <line x1="50.0" y1="50" x2="50.0" y2="400" stroke="#e2e8f0" stroke-dasharray="4,4"/>
    <line x1="100.0" y1="50" x2="100.0" y2="400" stroke="#e2e8f0" stroke-dasharray="4,4"/>
    <line x1="150.0" y1="50" x2="150.0" y2="400" stroke="#e2e8f0" stroke-dasharray="4,4"/>
    <line x1="200.0" y1="50" x2="200.0" y2="400" stroke="#e2e8f0" stroke-dasharray="4,4"/>
    <line x1="250.0" y1="50" x2="250.0" y2="400" stroke="#e2e8f0" stroke-dasharray="4,4"/>
    <line x1="300.0" y1="50" x2="300.0" y2="400" stroke="#e2e8f0" stroke-dasharray="4,4"/>
    <line x1="350.0" y1="50" x2="350.0" y2="400" stroke="#e2e8f0" stroke-dasharray="4,4"/>
    <line x1="400.0" y1="50" x2="400.0" y2="400" stroke="#e2e8f0" stroke-dasharray="4,4"/>
    <line x1="450.0" y1="50" x2="450.0" y2="400" stroke="#e2e8f0" stroke-dasharray="4,4"/>
    <line x1="500.0" y1="50" x2="500.0" y2="400" stroke="#e2e8f0" stroke-dasharray="4,4"/>
    <line x1="550.0" y1="50" x2="550.0" y2="400" stroke="#e2e8f0" stroke-dasharray="4,4"/>
    <line x1="50" y1="376.7" x2="550" y2="376.7" stroke="#e2e8f0" stroke-dasharray="4,4"/>
    <line x1="50" y1="330.0" x2="550" y2="330.0" stroke="#e2e8f0" stroke-dasharray="4,4"/>
    <line x1="50" y1="236.7" x2="550" y2="236.7" stroke="#e2e8f0" stroke-dasharray="4,4"/>
    <line x1="50" y1="190.0" x2="550" y2="190.0" stroke="#e2e8f0" stroke-dasharray="4,4"/>
    <line x1="50" y1="143.3" x2="550" y2="143.3" stroke="#e2e8f0" stroke-dasharray="4,4"/>
    <line x1="50" y1="96.7" x2="550" y2="96.7" stroke="#e2e8f0" stroke-dasharray="4,4"/>
    <line x1="50" y1="50.0" x2="550" y2="50.0" stroke="#e2e8f0" stroke-dasharray="4,4"/>
  </g>
  <g class="axes">
    <line x1="50" y1="283.3" x2="550" y2="283.3" stroke="#374151" stroke-width="2"/>
    <polygon points="550,283.3 542,279.3 542,287.3" fill="#374151"/>
    <line x1="300.0" y1="50" x2="300.0" y2="400" stroke="#374151" stroke-width="2"/>
    <polygon points="300.0,50 296.0,58 304.0,58" fill="#374151"/>
    <text x="550" y="273.3" text-anchor="end" font-size="14" font-weight="bold" fill="#374151">x</text>
    <text x="290.0" y="50" text-anchor="end" font-size="14" font-weight="bold" fill="#374151">y</text>
    <line x1="50.0" y1="279.3" x2="50.0" y2="287.3" stroke="#374151" stroke-width="1.5"/>
    <text x="50.0" y="303.3" text-anchor="middle" font-size="12" fill="#374151">-5</text>
    <line x1="100.0" y1="279.3" x2="100.0" y2="287.3" stroke="#374151" stroke-width="1.5"/>
    <text x="100.0" y="303.3" text-anchor="middle" font-size="12" fill="#374151">-4</text>
    <line x1="150.0" y1="279.3" x2="150.0" y2="287.3" stroke="#374151" stroke-width="1.5"/>
    <text x="150.0" y="303.3" text-anchor="middle" font-size="12" fill="#374151">-3</text>
    <line x1="200.0" y1="279.3" x2="200.0" y2="287.3" stroke="#374151" stroke-width="1.5"/>
    <text x="200.0" y="303.3" text-anchor="middle" font-size="12" fill="#374151">-2</text>
    <line x1="250.0" y1="279.3" x2="250.0" y2="287.3" stroke="#374151" stroke-width="1.5"/>
    <text x="250.0" y="303.3" text-anchor="middle" font-size="12" fill="#374151">-1</text>
    <line x1="350.0" y1="279.3" x2="350.0" y2="287.3" stroke="#374151" stroke-width="1.5"/>
    <text x="350.0" y="303.3" text-anchor="middle" font-size="12" fill="#374151">1</text>
    <line x1="400.0" y1="279.3" x2="400.0" y2="287.3" stroke="#374151" stroke-width="1.5"/>
    <text x="400.0" y="303.3" text-anchor="middle" font-size="12" fill="#374151">2</text>
    <line x1="450.0" y1="279.3" x2="450.0" y2="287.3" stroke="#374151" stroke-width="1.5"/>
    <text x="450.0" y="303.3" text-anchor="middle" font-size="12" fill="#374151">3</text>
    <line x1="500.0" y1="279.3" x2="500.0" y2="287.3" stroke="#374151" stroke-width="1.5"/>
    <text x="500.0" y="303.3" text-anchor="middle" font-size="12" fill="#374151">4</text>
    <line x1="550.0" y1="279.3" x2="550.0" y2="287.3" stroke="#374151" stroke-width="1.5"/>
    <text x="550.0" y="303.3" text-anchor="middle" font-size="12" fill="#374151">5</text>
    <line x1="296.0" y1="376.7" x2="304.0" y2="376.7" stroke="#374151" stroke-width="1.5"/>
    <text x="288.0" y="380.7" text-anchor="end" font-size="12" fill="#374151">-4</text>
    <line x1="296.0" y1="330.0" x2="304.0" y2="330.0" stroke="#374151" stroke-width="1.5"/>
    <text x="288.0" y="334.0" text-anchor="end" font-size="12" fill="#374151">-2</text>
    <line x1="296.0" y1="236.7" x2="304.0" y2="236.7" stroke="#374151" stroke-width="1.5"/>
    <text x="288.0" y="240.7" text-anchor="end" font-size="12" fill="#374151">2</text>
    <line x1="296.0" y1="190.0" x2="304.0" y2="190.0" stroke="#374151" stroke-width="1.5"/>
    <text x="288.0" y="194.0" text-anchor="end" font-size="12" fill="#374151">4</text>
    <line x1="296.0" y1="143.3" x2="304.0" y2="143.3" stroke="#374151" stroke-width="1.5"/>
    <text x="288.0" y="147.3" text-anchor="end" font-size="12" fill="#374151">6</text>
    <line x1="296.0" y1="96.7" x2="304.0" y2="96.7" stroke="#374151" stroke-width="1.5"/>
    <text x="288.0" y="100.7" text-anchor="end" font-size="12" fill="#374151">8</text>
    <line x1="296.0" y1="50.0" x2="304.0" y2="50.0" stroke="#374151" stroke-width="1.5"/>
    <text x="288.0" y="54.0" text-anchor="end" font-size="12" fill="#374151">10</text>
  </g>
  <path id="f1" class="wave-path" d="M 50.00 400.00 L 52.50 397.67 L 55.00 395.33 L 57.50 393.00 L 60.00 390.67 L 62.50 388.33 L 65.00 386.00 L 67.50 383.67 L 70.00 381.33 L 72.50 379.00 L 75.00 376.67 L 77.50 374.33 L 80.00 372.00 L 82.50 369.67 L 85.00 367.33 L 87.50 365.00 L 90.00 362.67 L 92.50 360.33 L 95.00 358.00 L 97.50 355.67 L 100.00 353.33 L 102.50 351.00 L 105.00 348.67 L 107.50 346.33 L 110.00 344.00 L 112.50 341.67 L 115.00 339.33 L 117.50 337.00 L 120.00 334.67 L 122.50 332.33 L 125.00 330.00 L 127.50 327.67 L 130.00 325.33 L 132.50 323.00 L 135.00 320.67 L 137.50 318.33 L 140.00 316.00 L 142.50 313.67 L 145.00 311.33 L 147.50 309.00 L 150.00 306.67 L 152.50 304.33 L 155.00 302.00 L 157.50 299.67 L 160.00 297.33 L 162.50 295.00 L 165.00 292.67 L 167.50 290.33 L 170.00 288.00 L 172.50 285.67 L 175.00 283.33 L 177.50 281.00 L 180.00 278.67 L 182.50 276.33 L 185.00 274.00 L 187.50 271.67 L 190.00 269.33 L 192.50 267.00 L 195.00 264.67 L 197.50 262.33 L 200.00 260.00 L 202.50 257.67 L 205.00 255.33 L 207.50 253.00 L 210.00 250.67 L 212.50 248.33 L 215.00 246.00 L 217.50 243.67 L 220.00 241.33 L 222.50 239.00 L 225.00 236.67 L 227.50 234.33 L 230.00 232.00 L 232.50 229.67 L 235.00 227.33 L 237.50 225.00 L 240.00 222.67 L 242.50 220.33 L 245.00 218.00 L 247.50 215.67 L 250.00 213.33 L 252.50 211.00 L 255.00 208.67 L 257.50 206.33 L 260.00 204.00 L 262.50 201.67 L 265.00 199.33 L 267.50 197.00 L 270.00 194.67 L 272.50 192.33 L 275.00 190.00 L 277.50 187.67 L 280.00 185.33 L 282.50 183.00 L 285.00 180.67 L 287.50 178.33 L 290.00 176.00 L 292.50 173.67 L 295.00 171.33 L 297.50 169.00 L 300.00 166.67 L 302.50 164.33 L 305.00 162.00 L 307.50 159.67 L 310.00 157.33 L 312.50 155.00 L 315.00 152.67 L 317.50 150.33 L 320.00 148.00 L 322.50 145.67 L 325.00 143.33 L 327.50 141.00 L 330.00 138.67 L 332.50 136.33 L 335.00 134.00 L 337.50 131.67 L 340.00 129.33 L 342.50 127.00 L 345.00 124.67 L 347.50 122.33 L 350.00 120.00 L 352.50 117.67 L 355.00 115.33 L 357.50 113.00 L 360.00 110.67 L 362.50 108.33 L 365.00 106.00 L 367.50 103.67 L 370.00 101.33 L 372.50 99.00 L 375.00 96.67 L 377.50 94.33 L 380.00 92.00 L 382.50 89.67 L 385.00 87.33 L 387.50 85.00 L 390.00 82.67 L 392.50 80.33 L 395.00 78.00 L 397.50 75.67 L 400.00 73.33 L 402.50 71.00 L 405.00 68.67 L 407.50 66.33 L 410.00 64.00 L 412.50 61.67 L 415.00 59.33 L 417.50 57.00 L 420.00 54.67 L 422.50 52.33 L 425.00 50.00" fill="none" stroke="#3b82f6" stroke-width="3" stroke-linecap="round" stroke-linejoin="round"/>
  <path id="f2" class="wave-path" d="M 250.00 400.00 L 252.50 397.67 L 255.00 395.33 L 257.50 393.00 L 260.00 390.67 L 262.50 388.33 L 265.00 386.00 L 267.50 383.67 L 270.00 381.33 L 272.50 379.00 L 275.00 376.67 L 277.50 374.33 L 280.00 372.00 L 282.50 369.67 L 285.00 367.33 L 287.50 365.00 L 290.00 362.67 L 292.50 360.33 L 295.00 358.00 L 297.50 355.67 L 300.00 353.33 L 302.50 351.00 L 305.00 348.67 L 307.50 346.33 L 310.00 344.00 L 312.50 341.67 L 315.00 339.33 L 317.50 337.00 L 320.00 334.67 L 322.50 332.33 L 325.00 330.00 L 327.50 327.67 L 330.00 325.33 L 332.50 323.00 L 335.00 320.67 L 337.50 318.33 L 340.00 316.00 L 342.50 313.67 L 345.00 311.33 L 347.50 309.00 L 350.00 306.67 L 352.50 304.33 L 355.00 302.00 L 357.50 299.67 L 360.00 297.33 L 362.50 295.00 L 365.00 292.67 L 367.50 290.33 L 370.00 288.00 L 372.50 285.67 L 375.00 283.33 L 377.50 281.00 L 380.00 278.67 L 382.50 276.33 L 385.00 274.00 L 387.50 271.67 L 390.00 269.33 L 392.50 267.00 L 395.00 264.67 L 397.50 262.33 L 400.00 260.00 L 402.50 257.67 L 405.00 255.33 L 407.50 253.00 L 410.00 250.67 L 412.50 248.33 L 415.00 246.00 L 417.50 243.67 L 420.00 241.33 L 422.50 239.00 L 425.00 236.67 L 427.50 234.33 L 430.00 232.00 L 432.50 229.67 L 435.00 227.33 L 437.50 225.00 L 440.00 222.67 L 442.50 220.33 L 445.00 218.00 L 447.50 215.67 L 450.00 213.33 L 452.50 211.00 L 455.00 208.67 L 457.50 206.33 L 460.00 204.00 L 462.50 201.67 L 465.00 199.33 L 467.50 197.00 L 470.00 194.67 L 472.50 192.33 L 475.00 190.00 L 477.50 187.67 L 480.00 185.33 L 482.50 183.00 L 485.00 180.67 L 487.50 178.33 L 490.00 176.00 L 492.50 173.67 L 495.00 171.33 L 497.50 169.00 L 500.00 166.67 L 502.50 164.33 L 505.00 162.00 L 507.50 159.67 L 510.00 157.33 L 512.50 155.00 L 515.00 152.67 L 517.50 150.33 L 520.00 148.00 L 522.50 145.67 L 525.00 143.33 L 527.50 141.00 L 530.00 138.67 L 532.50 136.33 L 535.00 134.00 L 537.50 131.67 L 540.00 129.33 L 542.50 127.00 L 545.00 124.67 L 547.50 122.33 L 550.00 120.00" fill="none" stroke="#f97316" stroke-width="3" stroke-linecap="round" stroke-linejoin="round"/>
  <g class="annotation-group">
    <rect x="360" y="60" width="180" height="54" rx="6" fill="white" fill-opacity="0.95" stroke="#e2e8f0" stroke-width="1"/>
    <line x1="370" y1="75" x2="395" y2="75" stroke="#3b82f6" stroke-width="3" stroke-linecap="round"/>
    <text x="402" y="79" font-size="10" fill="#1e293b">y = 2x + 5</text>
    <line x1="370" y1="97" x2="395" y2="97" stroke="#f97316" stroke-width="3" stroke-linecap="round"/>
    <text x="402" y="101" font-size="10" fill="#1e293b">y = 2x - 3</text>
  </g>
  <g class="annotation-group">
    <text x="200.0" y="120.0" text-anchor="middle" font-size="11" font-weight="bold" fill="#3b82f6">m = 2</text>
    <text x="400.0" y="306.7" text-anchor="middle" font-size="11" font-weight="bold" fill="#3b82f6">m = 2</text>
  </g>
</svg>