<svg xmlns="http://www.w3.org/2000/svg" viewBox="0 0 600 450" 
style="max-width: 100%; height: auto; font-family: Inter, system-ui, sans-serif;">

  <style>
    .wave-path {
      stroke-dasharray: 3000;
      stroke-dashoffset: 0;
      animation: none;
    }
    .marker-group { opacity: 1; animation: none; }
    .label-group { opacity: 1; animation: none; }
    .annotation-group { opacity: 1; animation: none; }
    @keyframes drawWave { to { stroke-dashoffset: 0; } }
    @keyframes fadeIn { to { opacity: 1; } }
  </style>

  <rect width="600" height="450" fill="#ffffff" rx="8"/>
  <text x="300.0" y="25" text-anchor="middle" font-size="16" font-weight="bold" fill="#1e293b">Rectas Perpendiculares: m1 * m2 = -1</text>
  <g class="grid">
    <line x1="50.0" y1="50" x2="50.0" y2="400" stroke="#e2e8f0" stroke-dasharray="4,4"/>
    <line x1="93.5" y1="50" x2="93.5" y2="400" stroke="#e2e8f0" stroke-dasharray="4,4"/>
    <line x1="137.0" y1="50" x2="137.0" y2="400" stroke="#e2e8f0" stroke-dasharray="4,4"/>
    <line x1="180.4" y1="50" x2="180.4" y2="400" stroke="#e2e8f0" stroke-dasharray="4,4"/>
    <line x1="223.9" y1="50" x2="223.9" y2="400" stroke="#e2e8f0" stroke-dasharray="4,4"/>
    <line x1="267.4" y1="50" x2="267.4" y2="400" stroke="#e2e8f0" stroke-dasharray="4,4"/>
    <line x1="310.9" y1="50" x2="310.9" y2="400" stroke="#e2e8f0" stroke-dasharray="4,4"/>
    <line x1="354.3" y1="50" x2="354.3" y2="400" stroke="#e2e8f0" stroke-dasharray="4,4"/>
    <line x1="397.8" y1="50" x2="397.8" y2="400" stroke="#e2e8f0" stroke-dasharray="4,4"/>
    <line x1="441.3" y1="50" x2="441.3" y2="400" stroke="#e2e8f0" stroke-dasharray="4,4"/>
    <line x1="484.8" y1="50" x2="484.8" y2="400" stroke="#e2e8f0" stroke-dasharray="4,4"/>
    <line x1="528.3" y1="50" x2="528.3" y2="400" stroke="#e2e8f0" stroke-dasharray="4,4"/>
    <line x1="50" y1="400.0" x2="550" y2="400.0" stroke="#e2e8f0" stroke-dasharray="4,4"/>
    <line x1="50" y1="356.2" x2="550" y2="356.2" stroke="#e2e8f0" stroke-dasharray="4,4"/>
    <line x1="50" y1="312.5" x2="550" y2="312.5" stroke="#e2e8f0" stroke-dasharray="4,4"/>
    <line x1="50" y1="268.8" x2="550" y2="268.8" stroke="#e2e8f0" stroke-dasharray="4,4"/>
    <line x1="50" y1="181.2" x2="550" y2="181.2" stroke="#e2e8f0" stroke-dasharray="4,4"/>
    <line x1="50" y1="137.5" x2="550" y2="137.5" stroke="#e2e8f0" stroke-dasharray="4,4"/>
    <line x1="50" y1="93.8" x2="550" y2="93.8" stroke="#e2e8f0" stroke-dasharray="4,4"/>
    <line x1="50" y1="50.0" x2="550" y2="50.0" stroke="#e2e8f0" stroke-dasharray="4,4"/>
  </g>
  <g class="axes">
    <line x1="50" y1="225.0" x2="550" y2="225.0" stroke="#374151" stroke-width="2"/>
    <polygon points="550,225.0 542,221.0 542,229.0" fill="#374151"/>
    <line x1="310.9" y1="50" x2="310.9" y2="400" stroke="#374151" stroke-width="2"/>
    <polygon points="310.9,50 306.9,58 314.9,58" fill="#374151"/>
    <text x="550" y="215.0" text-anchor="end" font-size="14" font-weight="bold" fill="#374151">x</text>
    <text x="300.9" y="50" text-anchor="end" font-size="14" font-weight="bold" fill="#374151">y</text>
    <line x1="50.0" y1="221.0" x2="50.0" y2="229.0" stroke="#374151" stroke-width="1.5"/>
    <text x="50.0" y="245.0" text-anchor="middle" font-size="12" fill="#374151">-6</text>
    <line x1="93.5" y1="221.0" x2="93.5" y2="229.0" stroke="#374151" stroke-width="1.5"/>
    <text x="93.5" y="245.0" text-anchor="middle" font-size="12" fill="#374151">-5</text>
    <line x1="137.0" y1="221.0" x2="137.0" y2="229.0" stroke="#374151" stroke-width="1.5"/>
    <text x="137.0" y="245.0" text-anchor="middle" font-size="12" fill="#374151">-4</text>
    <line x1="180.4" y1="221.0" x2="180.4" y2="229.0" stroke="#374151" stroke-width="1.5"/>
    <text x="180.4" y="245.0" text-anchor="middle" font-size="12" fill="#374151">-3</text>
    <line x1="223.9" y1="221.0" x2="223.9" y2="229.0" stroke="#374151" stroke-width="1.5"/>
    <text x="223.9" y="245.0" text-anchor="middle" font-size="12" fill="#374151">-2</text>
    <line x1="267.4" y1="221.0" x2="267.4" y2="229.0" stroke="#374151" stroke-width="1.5"/>
    <text x="267.4" y="245.0" text-anchor="middle" font-size="12" fill="#374151">-1</text>
    <line x1="354.3" y1="221.0" x2="354.3" y2="229.0" stroke="#374151" stroke-width="1.5"/>
    <text x="354.3" y="245.0" text-anchor="middle" font-size="12" fill="#374151">1</text>
    <line x1="397.8" y1="221.0" x2="397.8" y2="229.0" stroke="#374151" stroke-width="1.5"/>
    <text x="397.8" y="245.0" text-anchor="middle" font-size="12" fill="#374151">2</text>
    <line x1="441.3" y1="221.0" x2="441.3" y2="229.0" stroke="#374151" stroke-width="1.5"/>
    <text x="441.3" y="245.0" text-anchor="middle" font-size="12" fill="#374151">3</text>
    <line x1="484.8" y1="221.0" x2="484.8" y2="229.0" stroke="#374151" stroke-width="1.5"/>
    <text x="484.8" y="245.0" text-anchor="middle" font-size="12" fill="#374151">4</text>
    <line x1="528.3" y1="221.0" x2="528.3" y2="229.0" stroke="#374151" stroke-width="1.5"/>
    <text x="528.3" y="245.0" text-anchor="middle" font-size="12" fill="#374151">5</text>
    <line x1="306.9" y1="400.0" x2="314.9" y2="400.0" stroke="#374151" stroke-width="1.5"/>
    <text x="298.9" y="404.0" text-anchor="end" font-size="12" fill="#374151">-4</text>
    <line x1="306.9" y1="356.2" x2="314.9" y2="356.2" stroke="#374151" stroke-width="1.5"/>
    <text x="298.9" y="360.2" text-anchor="end" font-size="12" fill="#374151">-3</text>
    <line x1="306.9" y1="312.5" x2="314.9" y2="312.5" stroke="#374151" stroke-width="1.5"/>
    <text x="298.9" y="316.5" text-anchor="end" font-size="12" fill="#374151">-2</text>
    <line x1="306.9" y1="268.8" x2="314.9" y2="268.8" stroke="#374151" stroke-width="1.5"/>
    <text x="298.9" y="272.8" text-anchor="end" font-size="12" fill="#374151">-1</text>
    <line x1="306.9" y1="181.2" x2="314.9" y2="181.2" stroke="#374151" stroke-width="1.5"/>
    <text x="298.9" y="185.2" text-anchor="end" font-size="12" fill="#374151">1</text>
    <line x1="306.9" y1="137.5" x2="314.9" y2="137.5" stroke="#374151" stroke-width="1.5"/>
    <text x="298.9" y="141.5" text-anchor="end" font-size="12" fill="#374151">2</text>
    <line x1="306.9" y1="93.8" x2="314.9" y2="93.8" stroke="#374151" stroke-width="1.5"/>
    <text x="298.9" y="97.8" text-anchor="end" font-size="12" fill="#374151">3</text>
    <line x1="306.9" y1="50.0" x2="314.9" y2="50.0" stroke="#374151" stroke-width="1.5"/>
    <text x="298.9" y="54.0" text-anchor="end" font-size="12" fill="#374151">4</text>
  </g>
  <path id="func-0" class="wave-path" d="M 255.00 393.66 L 257.50 386.11 L 260.00 378.56 L 262.50 371.02 L 265.00 363.47 L 267.50 355.92 L 270.00 348.37 L 272.50 340.83 L 275.00 333.28 L 277.50 325.73 L 280.00 318.19 L 282.50 310.64 L 285.00 303.09 L 287.50 295.55 L 290.00 288.00 L 292.50 280.45 L 295.00 272.91 L 297.50 265.36 L 300.00 257.81 L 302.50 250.27 L 305.00 242.72 L 307.50 235.17 L 310.00 227.62 L 312.50 220.08 L 315.00 212.53 L 317.50 204.98 L 320.00 197.44 L 322.50 189.89 L 325.00 182.34 L 327.50 174.80 L 330.00 167.25 L 332.50 159.70 L 335.00 152.16 L 337.50 144.61 L 340.00 137.06 L 342.50 129.52 L 345.00 121.97 L 347.50 114.42 L 350.00 106.87 L 352.50 99.33 L 355.00 91.78 L 357.50 84.23 L 360.00 76.69 L 362.50 69.14 L 365.00 61.59 L 367.50 54.05" fill="none" stroke="#3b82f6" stroke-width="3" stroke-linecap="round" stroke-linejoin="round"/>
  <path id="func-1" class="wave-path" d="M 50.00 137.50 L 52.50 138.34 L 55.00 139.18 L 57.50 140.02 L 60.00 140.85 L 62.50 141.69 L 65.00 142.53 L 67.50 143.37 L 70.00 144.21 L 72.50 145.05 L 75.00 145.89 L 77.50 146.72 L 80.00 147.56 L 82.50 148.40 L 85.00 149.24 L 87.50 150.08 L 90.00 150.92 L 92.50 151.76 L 95.00 152.59 L 97.50 153.43 L 100.00 154.27 L 102.50 155.11 L 105.00 155.95 L 107.50 156.79 L 110.00 157.62 L 112.50 158.46 L 115.00 159.30 L 117.50 160.14 L 120.00 160.98 L 122.50 161.82 L 125.00 162.66 L 127.50 163.49 L 130.00 164.33 L 132.50 165.17 L 135.00 166.01 L 137.50 166.85 L 140.00 167.69 L 142.50 168.53 L 145.00 169.36 L 147.50 170.20 L 150.00 171.04 L 152.50 171.88 L 155.00 172.72 L 157.50 173.56 L 160.00 174.40 L 162.50 175.23 L 165.00 176.07 L 167.50 176.91 L 170.00 177.75 L 172.50 178.59 L 175.00 179.43 L 177.50 180.27 L 180.00 181.10 L 182.50 181.94 L 185.00 182.78 L 187.50 183.62 L 190.00 184.46 L 192.50 185.30 L 195.00 186.14 L 197.50 186.97 L 200.00 187.81 L 202.50 188.65 L 205.00 189.49 L 207.50 190.33 L 210.00 191.17 L 212.50 192.01 L 215.00 192.84 L 217.50 193.68 L 220.00 194.52 L 222.50 195.36 L 225.00 196.20 L 227.50 197.04 L 230.00 197.88 L 232.50 198.71 L 235.00 199.55 L 237.50 200.39 L 240.00 201.23 L 242.50 202.07 L 245.00 202.91 L 247.50 203.74 L 250.00 204.58 L 252.50 205.42 L 255.00 206.26 L 257.50 207.10 L 260.00 207.94 L 262.50 208.78 L 265.00 209.61 L 267.50 210.45 L 270.00 211.29 L 272.50 212.13 L 275.00 212.97 L 277.50 213.81 L 280.00 214.65 L 282.50 215.48 L 285.00 216.32 L 287.50 217.16 L 290.00 218.00 L 292.50 218.84 L 295.00 219.68 L 297.50 220.52 L 300.00 221.35 L 302.50 222.19 L 305.00 223.03 L 307.50 223.87 L 310.00 224.71 L 312.50 225.55 L 315.00 226.39 L 317.50 227.22 L 320.00 228.06 L 322.50 228.90 L 325.00 229.74 L 327.50 230.58 L 330.00 231.42 L 332.50 232.26 L 335.00 233.09 L 337.50 233.93 L 340.00 234.77 L 342.50 235.61 L 345.00 236.45 L 347.50 237.29 L 350.00 238.12 L 352.50 238.96 L 355.00 239.80 L 357.50 240.64 L 360.00 241.48 L 362.50 242.32 L 365.00 243.16 L 367.50 243.99 L 370.00 244.83 L 372.50 245.67 L 375.00 246.51 L 377.50 247.35 L 380.00 248.19 L 382.50 249.03 L 385.00 249.86 L 387.50 250.70 L 390.00 251.54 L 392.50 252.38 L 395.00 253.22 L 397.50 254.06 L 400.00 254.90 L 402.50 255.73 L 405.00 256.57 L 407.50 257.41 L 410.00 258.25 L 412.50 259.09 L 415.00 259.93 L 417.50 260.77 L 420.00 261.60 L 422.50 262.44 L 425.00 263.28 L 427.50 264.12 L 430.00 264.96 L 432.50 265.80 L 435.00 266.64 L 437.50 267.47 L 440.00 268.31 L 442.50 269.15 L 445.00 269.99 L 447.50 270.83 L 450.00 271.67 L 452.50 272.51 L 455.00 273.34 L 457.50 274.18 L 460.00 275.02 L 462.50 275.86 L 465.00 276.70 L 467.50 277.54 L 470.00 278.38 L 472.50 279.21 L 475.00 280.05 L 477.50 280.89 L 480.00 281.73 L 482.50 282.57 L 485.00 283.41 L 487.50 284.24 L 490.00 285.08 L 492.50 285.92 L 495.00 286.76 L 497.50 287.60 L 500.00 288.44 L 502.50 289.28 L 505.00 290.11 L 507.50 290.95 L 510.00 291.79 L 512.50 292.63 L 515.00 293.47 L 517.50 294.31 L 520.00 295.15 L 522.50 295.98 L 525.00 296.82 L 527.50 297.66 L 530.00 298.50 L 532.50 299.34 L 535.00 300.18 L 537.50 301.02 L 540.00 301.85 L 542.50 302.69 L 545.00 303.53 L 547.50 304.37 L 550.00 305.21" fill="none" stroke="#22c55e" stroke-width="3" stroke-linecap="round" stroke-linejoin="round"/>
  <g class="annotation-group">
    <rect x="360" y="60" width="180" height="54" rx="6" fill="white" fill-opacity="0.95" stroke="#e2e8f0" stroke-width="1"/>
    <line x1="370" y1="75" x2="395" y2="75" stroke="#3b82f6" stroke-width="3" stroke-linecap="round"/>
    <text x="402" y="79" font-size="10" fill="#1e293b">m = 3</text>
    <line x1="370" y1="97" x2="395" y2="97" stroke="#22c55e" stroke-width="3" stroke-linecap="round"/>
    <text x="402" y="101" font-size="10" fill="#1e293b">m = -1/3</text>
  </g>
  <g class="annotation-group">
    <text x="376.1" y="71.9" text-anchor="middle" font-size="11" font-weight="bold" fill="#3b82f6">m = 3</text>
    <text x="441.3" y="246.9" text-anchor="middle" font-size="11" font-weight="bold" fill="#22c55e">m = -1/3</text>
  </g>
</svg>