<svg xmlns="http://www.w3.org/2000/svg" viewBox="0 0 600 450" 
style="max-width: 100%; height: auto; font-family: Inter, system-ui, sans-serif;">

  <style>
    .wave-path {
      stroke-dasharray: 3000;
      stroke-dashoffset: 0;
      animation: none;
    }
    .marker-group { opacity: 1; animation: none; }
    .label-group { opacity: 1; animation: none; }
    .annotation-group { opacity: 1; animation: none; }
    @keyframes drawWave { to { stroke-dashoffset: 0; } }
    @keyframes fadeIn { to { opacity: 1; } }
  </style>

  <rect width="600" height="450" fill="#ffffff" rx="8"/>
  <text x="300.0" y="25" text-anchor="middle" font-size="16" font-weight="bold" fill="#1e293b">Crear Recta Paralela</text>
  <g class="grid">
    <line x1="50.0" y1="50" x2="50.0" y2="400" stroke="#e2e8f0" stroke-dasharray="4,4"/>
    <line x1="150.0" y1="50" x2="150.0" y2="400" stroke="#e2e8f0" stroke-dasharray="4,4"/>
    <line x1="250.0" y1="50" x2="250.0" y2="400" stroke="#e2e8f0" stroke-dasharray="4,4"/>
    <line x1="350.0" y1="50" x2="350.0" y2="400" stroke="#e2e8f0" stroke-dasharray="4,4"/>
    <line x1="450.0" y1="50" x2="450.0" y2="400" stroke="#e2e8f0" stroke-dasharray="4,4"/>
    <line x1="550.0" y1="50" x2="550.0" y2="400" stroke="#e2e8f0" stroke-dasharray="4,4"/>
    <line x1="50" y1="400.0" x2="550" y2="400.0" stroke="#e2e8f0" stroke-dasharray="4,4"/>
    <line x1="50" y1="300.0" x2="550" y2="300.0" stroke="#e2e8f0" stroke-dasharray="4,4"/>
    <line x1="50" y1="250.0" x2="550" y2="250.0" stroke="#e2e8f0" stroke-dasharray="4,4"/>
    <line x1="50" y1="200.0" x2="550" y2="200.0" stroke="#e2e8f0" stroke-dasharray="4,4"/>
    <line x1="50" y1="150.0" x2="550" y2="150.0" stroke="#e2e8f0" stroke-dasharray="4,4"/>
    <line x1="50" y1="100.0" x2="550" y2="100.0" stroke="#e2e8f0" stroke-dasharray="4,4"/>
    <line x1="50" y1="50.0" x2="550" y2="50.0" stroke="#e2e8f0" stroke-dasharray="4,4"/>
  </g>
  <g class="axes">
    <line x1="50" y1="350.0" x2="550" y2="350.0" stroke="#374151" stroke-width="2"/>
    <polygon points="550,350.0 542,346.0 542,354.0" fill="#374151"/>
    <line x1="250.0" y1="50" x2="250.0" y2="400" stroke="#374151" stroke-width="2"/>
    <polygon points="250.0,50 246.0,58 254.0,58" fill="#374151"/>
    <text x="550" y="340.0" text-anchor="end" font-size="14" font-weight="bold" fill="#374151">x</text>
    <text x="240.0" y="50" text-anchor="end" font-size="14" font-weight="bold" fill="#374151">y</text>
    <line x1="50.0" y1="346.0" x2="50.0" y2="354.0" stroke="#374151" stroke-width="1.5"/>
    <text x="50.0" y="370.0" text-anchor="middle" font-size="12" fill="#374151">-2</text>
    <line x1="150.0" y1="346.0" x2="150.0" y2="354.0" stroke="#374151" stroke-width="1.5"/>
    <text x="150.0" y="370.0" text-anchor="middle" font-size="12" fill="#374151">-1</text>
    <line x1="350.0" y1="346.0" x2="350.0" y2="354.0" stroke="#374151" stroke-width="1.5"/>
    <text x="350.0" y="370.0" text-anchor="middle" font-size="12" fill="#374151">1</text>
    <line x1="450.0" y1="346.0" x2="450.0" y2="354.0" stroke="#374151" stroke-width="1.5"/>
    <text x="450.0" y="370.0" text-anchor="middle" font-size="12" fill="#374151">2</text>
    <line x1="550.0" y1="346.0" x2="550.0" y2="354.0" stroke="#374151" stroke-width="1.5"/>
    <text x="550.0" y="370.0" text-anchor="middle" font-size="12" fill="#374151">3</text>
    <line x1="246.0" y1="400.0" x2="254.0" y2="400.0" stroke="#374151" stroke-width="1.5"/>
    <text x="238.0" y="404.0" text-anchor="end" font-size="12" fill="#374151">-2</text>
    <line x1="246.0" y1="300.0" x2="254.0" y2="300.0" stroke="#374151" stroke-width="1.5"/>
    <text x="238.0" y="304.0" text-anchor="end" font-size="12" fill="#374151">2</text>
    <line x1="246.0" y1="250.0" x2="254.0" y2="250.0" stroke="#374151" stroke-width="1.5"/>
    <text x="238.0" y="254.0" text-anchor="end" font-size="12" fill="#374151">4</text>
    <line x1="246.0" y1="200.0" x2="254.0" y2="200.0" stroke="#374151" stroke-width="1.5"/>
    <text x="238.0" y="204.0" text-anchor="end" font-size="12" fill="#374151">6</text>
    <line x1="246.0" y1="150.0" x2="254.0" y2="150.0" stroke="#374151" stroke-width="1.5"/>
    <text x="238.0" y="154.0" text-anchor="end" font-size="12" fill="#374151">8</text>
    <line x1="246.0" y1="100.0" x2="254.0" y2="100.0" stroke="#374151" stroke-width="1.5"/>
    <text x="238.0" y="104.0" text-anchor="end" font-size="12" fill="#374151">10</text>
    <line x1="246.0" y1="50.0" x2="254.0" y2="50.0" stroke="#374151" stroke-width="1.5"/>
    <text x="238.0" y="54.0" text-anchor="end" font-size="12" fill="#374151">12</text>
  </g>
  <path id="func-0" class="wave-path" d="M 175.00 400.00 L 177.50 397.50 L 180.00 395.00 L 182.50 392.50 L 185.00 390.00 L 187.50 387.50 L 190.00 385.00 L 192.50 382.50 L 195.00 380.00 L 197.50 377.50 L 200.00 375.00 L 202.50 372.50 L 205.00 370.00 L 207.50 367.50 L 210.00 365.00 L 212.50 362.50 L 215.00 360.00 L 217.50 357.50 L 220.00 355.00 L 222.50 352.50 L 225.00 350.00 L 227.50 347.50 L 230.00 345.00 L 232.50 342.50 L 235.00 340.00 L 237.50 337.50 L 240.00 335.00 L 242.50 332.50 L 245.00 330.00 L 247.50 327.50 L 250.00 325.00 L 252.50 322.50 L 255.00 320.00 L 257.50 317.50 L 260.00 315.00 L 262.50 312.50 L 265.00 310.00 L 267.50 307.50 L 270.00 305.00 L 272.50 302.50 L 275.00 300.00 L 277.50 297.50 L 280.00 295.00 L 282.50 292.50 L 285.00 290.00 L 287.50 287.50 L 290.00 285.00 L 292.50 282.50 L 295.00 280.00 L 297.50 277.50 L 300.00 275.00 L 302.50 272.50 L 305.00 270.00 L 307.50 267.50 L 310.00 265.00 L 312.50 262.50 L 315.00 260.00 L 317.50 257.50 L 320.00 255.00 L 322.50 252.50 L 325.00 250.00 L 327.50 247.50 L 330.00 245.00 L 332.50 242.50 L 335.00 240.00 L 337.50 237.50 L 340.00 235.00 L 342.50 232.50 L 345.00 230.00 L 347.50 227.50 L 350.00 225.00 L 352.50 222.50 L 355.00 220.00 L 357.50 217.50 L 360.00 215.00 L 362.50 212.50 L 365.00 210.00 L 367.50 207.50 L 370.00 205.00 L 372.50 202.50 L 375.00 200.00 L 377.50 197.50 L 380.00 195.00 L 382.50 192.50 L 385.00 190.00 L 387.50 187.50 L 390.00 185.00 L 392.50 182.50 L 395.00 180.00 L 397.50 177.50 L 400.00 175.00 L 402.50 172.50 L 405.00 170.00 L 407.50 167.50 L 410.00 165.00 L 412.50 162.50 L 415.00 160.00 L 417.50 157.50 L 420.00 155.00 L 422.50 152.50 L 425.00 150.00 L 427.50 147.50 L 430.00 145.00 L 432.50 142.50 L 435.00 140.00 L 437.50 137.50 L 440.00 135.00 L 442.50 132.50 L 445.00 130.00 L 447.50 127.50 L 450.00 125.00 L 452.50 122.50 L 455.00 120.00 L 457.50 117.50 L 460.00 115.00 L 462.50 112.50 L 465.00 110.00 L 467.50 107.50 L 470.00 105.00 L 472.50 102.50 L 475.00 100.00 L 477.50 97.50 L 480.00 95.00 L 482.50 92.50 L 485.00 90.00 L 487.50 87.50 L 490.00 85.00 L 492.50 82.50 L 495.00 80.00 L 497.50 77.50 L 500.00 75.00 L 502.50 72.50 L 505.00 70.00 L 507.50 67.50 L 510.00 65.00 L 512.50 62.50 L 515.00 60.00 L 517.50 57.50 L 520.00 55.00 L 522.50 52.50 L 525.00 50.00" fill="none" stroke="#3b82f6" stroke-width="2" stroke-linecap="round" stroke-linejoin="round"/>
  <path id="func-1" class="wave-path" d="M 50.00 375.00 L 52.50 372.50 L 55.00 370.00 L 57.50 367.50 L 60.00 365.00 L 62.50 362.50 L 65.00 360.00 L 67.50 357.50 L 70.00 355.00 L 72.50 352.50 L 75.00 350.00 L 77.50 347.50 L 80.00 345.00 L 82.50 342.50 L 85.00 340.00 L 87.50 337.50 L 90.00 335.00 L 92.50 332.50 L 95.00 330.00 L 97.50 327.50 L 100.00 325.00 L 102.50 322.50 L 105.00 320.00 L 107.50 317.50 L 110.00 315.00 L 112.50 312.50 L 115.00 310.00 L 117.50 307.50 L 120.00 305.00 L 122.50 302.50 L 125.00 300.00 L 127.50 297.50 L 130.00 295.00 L 132.50 292.50 L 135.00 290.00 L 137.50 287.50 L 140.00 285.00 L 142.50 282.50 L 145.00 280.00 L 147.50 277.50 L 150.00 275.00 L 152.50 272.50 L 155.00 270.00 L 157.50 267.50 L 160.00 265.00 L 162.50 262.50 L 165.00 260.00 L 167.50 257.50 L 170.00 255.00 L 172.50 252.50 L 175.00 250.00 L 177.50 247.50 L 180.00 245.00 L 182.50 242.50 L 185.00 240.00 L 187.50 237.50 L 190.00 235.00 L 192.50 232.50 L 195.00 230.00 L 197.50 227.50 L 200.00 225.00 L 202.50 222.50 L 205.00 220.00 L 207.50 217.50 L 210.00 215.00 L 212.50 212.50 L 215.00 210.00 L 217.50 207.50 L 220.00 205.00 L 222.50 202.50 L 225.00 200.00 L 227.50 197.50 L 230.00 195.00 L 232.50 192.50 L 235.00 190.00 L 237.50 187.50 L 240.00 185.00 L 242.50 182.50 L 245.00 180.00 L 247.50 177.50 L 250.00 175.00 L 252.50 172.50 L 255.00 170.00 L 257.50 167.50 L 260.00 165.00 L 262.50 162.50 L 265.00 160.00 L 267.50 157.50 L 270.00 155.00 L 272.50 152.50 L 275.00 150.00 L 277.50 147.50 L 280.00 145.00 L 282.50 142.50 L 285.00 140.00 L 287.50 137.50 L 290.00 135.00 L 292.50 132.50 L 295.00 130.00 L 297.50 127.50 L 300.00 125.00 L 302.50 122.50 L 305.00 120.00 L 307.50 117.50 L 310.00 115.00 L 312.50 112.50 L 315.00 110.00 L 317.50 107.50 L 320.00 105.00 L 322.50 102.50 L 325.00 100.00 L 327.50 97.50 L 330.00 95.00 L 332.50 92.50 L 335.00 90.00 L 337.50 87.50 L 340.00 85.00 L 342.50 82.50 L 345.00 80.00 L 347.50 77.50 L 350.00 75.00 L 352.50 72.50 L 355.00 70.00 L 357.50 67.50 L 360.00 65.00 L 362.50 62.50 L 365.00 60.00 L 367.50 57.50 L 370.00 55.00 L 372.50 52.50 L 375.00 50.00" fill="none" stroke="#22c55e" stroke-width="4" stroke-linecap="round" stroke-linejoin="round"/>
  <g class="marker-group">
    <circle cx="250.0" cy="175.0" r="6" fill="#ef4444" stroke="white" stroke-width="2"/>
  </g>
  <g class="label-group">
    <rect x="215.0" y="167.0" width="100" height="16" fill="white" fill-opacity="0.9" rx="3"/>
    <text x="265.0" y="179.0" text-anchor="start" font-size="11" font-weight="bold" fill="#ef4444">P(0, 7)</text>
  </g>
  <g class="annotation-group">
    <rect x="360" y="60" width="180" height="54" rx="6" fill="white" fill-opacity="0.95" stroke="#e2e8f0" stroke-width="1"/>
    <line x1="370" y1="75" x2="395" y2="75" stroke="#3b82f6" stroke-width="3" stroke-linecap="round"/>
    <text x="402" y="79" font-size="10" fill="#1e293b">y = 4x + 1</text>
    <line x1="370" y1="97" x2="395" y2="97" stroke="#22c55e" stroke-width="3" stroke-linecap="round"/>
    <text x="402" y="101" font-size="10" fill="#1e293b">y = 4x + 7</text>
  </g>
</svg>