<svg xmlns="http://www.w3.org/2000/svg" viewBox="0 0 600 450" 
style="max-width: 100%; height: auto; font-family: Inter, system-ui, sans-serif;">

  <style>
    .wave-path {
      stroke-dasharray: 3000;
      stroke-dashoffset: 0;
      animation: none;
    }
    .marker-group { opacity: 1; animation: none; }
    .label-group { opacity: 1; animation: none; }
    .annotation-group { opacity: 1; animation: none; }
    @keyframes drawWave { to { stroke-dashoffset: 0; } }
    @keyframes fadeIn { to { opacity: 1; } }
  </style>

  <rect width="600" height="450" fill="#ffffff" rx="8"/>
  <text x="300.0" y="25" text-anchor="middle" font-size="16" font-weight="bold" fill="#1e293b">Perpendicular por un Punto</text>
  <g class="grid">
    <line x1="50.0" y1="50" x2="50.0" y2="400" stroke="#e2e8f0" stroke-dasharray="4,4"/>
    <line x1="100.0" y1="50" x2="100.0" y2="400" stroke="#e2e8f0" stroke-dasharray="4,4"/>
    <line x1="150.0" y1="50" x2="150.0" y2="400" stroke="#e2e8f0" stroke-dasharray="4,4"/>
    <line x1="200.0" y1="50" x2="200.0" y2="400" stroke="#e2e8f0" stroke-dasharray="4,4"/>
    <line x1="250.0" y1="50" x2="250.0" y2="400" stroke="#e2e8f0" stroke-dasharray="4,4"/>
    <line x1="300.0" y1="50" x2="300.0" y2="400" stroke="#e2e8f0" stroke-dasharray="4,4"/>
    <line x1="350.0" y1="50" x2="350.0" y2="400" stroke="#e2e8f0" stroke-dasharray="4,4"/>
    <line x1="400.0" y1="50" x2="400.0" y2="400" stroke="#e2e8f0" stroke-dasharray="4,4"/>
    <line x1="450.0" y1="50" x2="450.0" y2="400" stroke="#e2e8f0" stroke-dasharray="4,4"/>
    <line x1="500.0" y1="50" x2="500.0" y2="400" stroke="#e2e8f0" stroke-dasharray="4,4"/>
    <line x1="550.0" y1="50" x2="550.0" y2="400" stroke="#e2e8f0" stroke-dasharray="4,4"/>
    <line x1="50" y1="400.0" x2="550" y2="400.0" stroke="#e2e8f0" stroke-dasharray="4,4"/>
    <line x1="50" y1="300.0" x2="550" y2="300.0" stroke="#e2e8f0" stroke-dasharray="4,4"/>
    <line x1="50" y1="250.0" x2="550" y2="250.0" stroke="#e2e8f0" stroke-dasharray="4,4"/>
    <line x1="50" y1="200.0" x2="550" y2="200.0" stroke="#e2e8f0" stroke-dasharray="4,4"/>
    <line x1="50" y1="150.0" x2="550" y2="150.0" stroke="#e2e8f0" stroke-dasharray="4,4"/>
    <line x1="50" y1="100.0" x2="550" y2="100.0" stroke="#e2e8f0" stroke-dasharray="4,4"/>
    <line x1="50" y1="50.0" x2="550" y2="50.0" stroke="#e2e8f0" stroke-dasharray="4,4"/>
  </g>
  <g class="axes">
    <line x1="50" y1="350.0" x2="550" y2="350.0" stroke="#374151" stroke-width="2"/>
    <polygon points="550,350.0 542,346.0 542,354.0" fill="#374151"/>
    <line x1="300.0" y1="50" x2="300.0" y2="400" stroke="#374151" stroke-width="2"/>
    <polygon points="300.0,50 296.0,58 304.0,58" fill="#374151"/>
    <text x="550" y="340.0" text-anchor="end" font-size="14" font-weight="bold" fill="#374151">x</text>
    <text x="290.0" y="50" text-anchor="end" font-size="14" font-weight="bold" fill="#374151">y</text>
    <line x1="50.0" y1="346.0" x2="50.0" y2="354.0" stroke="#374151" stroke-width="1.5"/>
    <text x="50.0" y="370.0" text-anchor="middle" font-size="12" fill="#374151">-5</text>
    <line x1="100.0" y1="346.0" x2="100.0" y2="354.0" stroke="#374151" stroke-width="1.5"/>
    <text x="100.0" y="370.0" text-anchor="middle" font-size="12" fill="#374151">-4</text>
    <line x1="150.0" y1="346.0" x2="150.0" y2="354.0" stroke="#374151" stroke-width="1.5"/>
    <text x="150.0" y="370.0" text-anchor="middle" font-size="12" fill="#374151">-3</text>
    <line x1="200.0" y1="346.0" x2="200.0" y2="354.0" stroke="#374151" stroke-width="1.5"/>
    <text x="200.0" y="370.0" text-anchor="middle" font-size="12" fill="#374151">-2</text>
    <line x1="250.0" y1="346.0" x2="250.0" y2="354.0" stroke="#374151" stroke-width="1.5"/>
    <text x="250.0" y="370.0" text-anchor="middle" font-size="12" fill="#374151">-1</text>
    <line x1="350.0" y1="346.0" x2="350.0" y2="354.0" stroke="#374151" stroke-width="1.5"/>
    <text x="350.0" y="370.0" text-anchor="middle" font-size="12" fill="#374151">1</text>
    <line x1="400.0" y1="346.0" x2="400.0" y2="354.0" stroke="#374151" stroke-width="1.5"/>
    <text x="400.0" y="370.0" text-anchor="middle" font-size="12" fill="#374151">2</text>
    <line x1="450.0" y1="346.0" x2="450.0" y2="354.0" stroke="#374151" stroke-width="1.5"/>
    <text x="450.0" y="370.0" text-anchor="middle" font-size="12" fill="#374151">3</text>
    <line x1="500.0" y1="346.0" x2="500.0" y2="354.0" stroke="#374151" stroke-width="1.5"/>
    <text x="500.0" y="370.0" text-anchor="middle" font-size="12" fill="#374151">4</text>
    <line x1="550.0" y1="346.0" x2="550.0" y2="354.0" stroke="#374151" stroke-width="1.5"/>
    <text x="550.0" y="370.0" text-anchor="middle" font-size="12" fill="#374151">5</text>
    <line x1="296.0" y1="400.0" x2="304.0" y2="400.0" stroke="#374151" stroke-width="1.5"/>
    <text x="288.0" y="404.0" text-anchor="end" font-size="12" fill="#374151">-1</text>
    <line x1="296.0" y1="300.0" x2="304.0" y2="300.0" stroke="#374151" stroke-width="1.5"/>
    <text x="288.0" y="304.0" text-anchor="end" font-size="12" fill="#374151">1</text>
    <line x1="296.0" y1="250.0" x2="304.0" y2="250.0" stroke="#374151" stroke-width="1.5"/>
    <text x="288.0" y="254.0" text-anchor="end" font-size="12" fill="#374151">2</text>
    <line x1="296.0" y1="200.0" x2="304.0" y2="200.0" stroke="#374151" stroke-width="1.5"/>
    <text x="288.0" y="204.0" text-anchor="end" font-size="12" fill="#374151">3</text>
    <line x1="296.0" y1="150.0" x2="304.0" y2="150.0" stroke="#374151" stroke-width="1.5"/>
    <text x="288.0" y="154.0" text-anchor="end" font-size="12" fill="#374151">4</text>
    <line x1="296.0" y1="100.0" x2="304.0" y2="100.0" stroke="#374151" stroke-width="1.5"/>
    <text x="288.0" y="104.0" text-anchor="end" font-size="12" fill="#374151">5</text>
    <line x1="296.0" y1="50.0" x2="304.0" y2="50.0" stroke="#374151" stroke-width="1.5"/>
    <text x="288.0" y="54.0" text-anchor="end" font-size="12" fill="#374151">6</text>
  </g>
  <path id="func-0" class="wave-path" d="M 50.00 350.00 L 52.50 345.00 L 55.00 340.00 L 57.50 335.00 L 60.00 330.00 L 62.50 325.00 L 65.00 320.00 L 67.50 315.00 L 70.00 310.00 L 72.50 305.00 L 75.00 300.00 L 77.50 295.00 L 80.00 290.00 L 82.50 285.00 L 85.00 280.00 L 87.50 275.00 L 90.00 270.00 L 92.50 265.00 L 95.00 260.00 L 97.50 255.00 L 100.00 250.00 L 102.50 245.00 L 105.00 240.00 L 107.50 235.00 L 110.00 230.00 L 112.50 225.00 L 115.00 220.00 L 117.50 215.00 L 120.00 210.00 L 122.50 205.00 L 125.00 200.00 L 127.50 195.00 L 130.00 190.00 L 132.50 185.00 L 135.00 180.00 L 137.50 175.00 L 140.00 170.00 L 142.50 165.00 L 145.00 160.00 L 147.50 155.00 L 150.00 150.00 L 152.50 145.00 L 155.00 140.00 L 157.50 135.00 L 160.00 130.00 L 162.50 125.00 L 165.00 120.00 L 167.50 115.00 L 170.00 110.00 L 172.50 105.00 L 175.00 100.00 L 177.50 95.00 L 180.00 90.00 L 182.50 85.00 L 185.00 80.00 L 187.50 75.00 L 190.00 70.00 L 192.50 65.00 L 195.00 60.00 L 197.50 55.00 L 200.00 50.00" fill="none" stroke="#3b82f6" stroke-width="2" stroke-linecap="round" stroke-linejoin="round"/>
  <path id="func-1" class="wave-path" d="M 100.00 50.00 L 102.50 51.25 L 105.00 52.50 L 107.50 53.75 L 110.00 55.00 L 112.50 56.25 L 115.00 57.50 L 117.50 58.75 L 120.00 60.00 L 122.50 61.25 L 125.00 62.50 L 127.50 63.75 L 130.00 65.00 L 132.50 66.25 L 135.00 67.50 L 137.50 68.75 L 140.00 70.00 L 142.50 71.25 L 145.00 72.50 L 147.50 73.75 L 150.00 75.00 L 152.50 76.25 L 155.00 77.50 L 157.50 78.75 L 160.00 80.00 L 162.50 81.25 L 165.00 82.50 L 167.50 83.75 L 170.00 85.00 L 172.50 86.25 L 175.00 87.50 L 177.50 88.75 L 180.00 90.00 L 182.50 91.25 L 185.00 92.50 L 187.50 93.75 L 190.00 95.00 L 192.50 96.25 L 195.00 97.50 L 197.50 98.75 L 200.00 100.00 L 202.50 101.25 L 205.00 102.50 L 207.50 103.75 L 210.00 105.00 L 212.50 106.25 L 215.00 107.50 L 217.50 108.75 L 220.00 110.00 L 222.50 111.25 L 225.00 112.50 L 227.50 113.75 L 230.00 115.00 L 232.50 116.25 L 235.00 117.50 L 237.50 118.75 L 240.00 120.00 L 242.50 121.25 L 245.00 122.50 L 247.50 123.75 L 250.00 125.00 L 252.50 126.25 L 255.00 127.50 L 257.50 128.75 L 260.00 130.00 L 262.50 131.25 L 265.00 132.50 L 267.50 133.75 L 270.00 135.00 L 272.50 136.25 L 275.00 137.50 L 277.50 138.75 L 280.00 140.00 L 282.50 141.25 L 285.00 142.50 L 287.50 143.75 L 290.00 145.00 L 292.50 146.25 L 295.00 147.50 L 297.50 148.75 L 300.00 150.00 L 302.50 151.25 L 305.00 152.50 L 307.50 153.75 L 310.00 155.00 L 312.50 156.25 L 315.00 157.50 L 317.50 158.75 L 320.00 160.00 L 322.50 161.25 L 325.00 162.50 L 327.50 163.75 L 330.00 165.00 L 332.50 166.25 L 335.00 167.50 L 337.50 168.75 L 340.00 170.00 L 342.50 171.25 L 345.00 172.50 L 347.50 173.75 L 350.00 175.00 L 352.50 176.25 L 355.00 177.50 L 357.50 178.75 L 360.00 180.00 L 362.50 181.25 L 365.00 182.50 L 367.50 183.75 L 370.00 185.00 L 372.50 186.25 L 375.00 187.50 L 377.50 188.75 L 380.00 190.00 L 382.50 191.25 L 385.00 192.50 L 387.50 193.75 L 390.00 195.00 L 392.50 196.25 L 395.00 197.50 L 397.50 198.75 L 400.00 200.00 L 402.50 201.25 L 405.00 202.50 L 407.50 203.75 L 410.00 205.00 L 412.50 206.25 L 415.00 207.50 L 417.50 208.75 L 420.00 210.00 L 422.50 211.25 L 425.00 212.50 L 427.50 213.75 L 430.00 215.00 L 432.50 216.25 L 435.00 217.50 L 437.50 218.75 L 440.00 220.00 L 442.50 221.25 L 445.00 222.50 L 447.50 223.75 L 450.00 225.00 L 452.50 226.25 L 455.00 227.50 L 457.50 228.75 L 460.00 230.00 L 462.50 231.25 L 465.00 232.50 L 467.50 233.75 L 470.00 235.00 L 472.50 236.25 L 475.00 237.50 L 477.50 238.75 L 480.00 240.00 L 482.50 241.25 L 485.00 242.50 L 487.50 243.75 L 490.00 245.00 L 492.50 246.25 L 495.00 247.50 L 497.50 248.75 L 500.00 250.00 L 502.50 251.25 L 505.00 252.50 L 507.50 253.75 L 510.00 255.00 L 512.50 256.25 L 515.00 257.50 L 517.50 258.75 L 520.00 260.00 L 522.50 261.25 L 525.00 262.50 L 527.50 263.75 L 530.00 265.00 L 532.50 266.25 L 535.00 267.50 L 537.50 268.75 L 540.00 270.00 L 542.50 271.25 L 545.00 272.50 L 547.50 273.75 L 550.00 275.00" fill="none" stroke="#22c55e" stroke-width="4" stroke-linecap="round" stroke-linejoin="round"/>
  <g class="marker-group">
    <circle cx="300.0" cy="150.0" r="6" fill="#ef4444" stroke="white" stroke-width="2"/>
  </g>
  <g class="label-group">
    <rect x="265.0" y="142.0" width="100" height="16" fill="white" fill-opacity="0.9" rx="3"/>
    <text x="315.0" y="154.0" text-anchor="start" font-size="11" font-weight="bold" fill="#ef4444">P(0, 4)</text>
  </g>
  <g class="annotation-group">
    <rect x="360" y="60" width="180" height="54" rx="6" fill="white" fill-opacity="0.95" stroke="#e2e8f0" stroke-width="1"/>
    <line x1="370" y1="75" x2="395" y2="75" stroke="#3b82f6" stroke-width="3" stroke-linecap="round"/>
    <text x="402" y="79" font-size="10" fill="#1e293b">m = 2</text>
    <line x1="370" y1="97" x2="395" y2="97" stroke="#22c55e" stroke-width="3" stroke-linecap="round"/>
    <text x="402" y="101" font-size="10" fill="#1e293b">m = -1/2</text>
  </g>
  <g class="annotation-group">
    <text x="180.0" y="125.0" text-anchor="middle" font-size="11" font-weight="bold" fill="#ef4444">90°</text>
  </g>
</svg>