<svg xmlns="http://www.w3.org/2000/svg" viewBox="0 0 800 400" 
style="max-width: 100%; height: auto; font-family: Inter, system-ui, sans-serif;">

  <style>
    .wave-path {
      stroke-dasharray: 3000;
      stroke-dashoffset: 0;
      animation: none;
    }
    .marker-group { opacity: 1; animation: none; }
    .label-group { opacity: 1; animation: none; }
    .annotation-group { opacity: 1; animation: none; }
    @keyframes drawWave { to { stroke-dashoffset: 0; } }
    @keyframes fadeIn { to { opacity: 1; } }
  </style>

  <rect width="800" height="400" fill="#ffffff" rx="8"/>
  <text x="400.0" y="25" text-anchor="middle" font-size="16" font-weight="bold" fill="#1e293b">Resumen: Paralelas y Perpendiculares</text>
  <g class="grid">
    <line x1="50.0" y1="50" x2="50.0" y2="350" stroke="#e2e8f0" stroke-dasharray="4,4"/>
    <line x1="120.0" y1="50" x2="120.0" y2="350" stroke="#e2e8f0" stroke-dasharray="4,4"/>
    <line x1="190.0" y1="50" x2="190.0" y2="350" stroke="#e2e8f0" stroke-dasharray="4,4"/>
    <line x1="260.0" y1="50" x2="260.0" y2="350" stroke="#e2e8f0" stroke-dasharray="4,4"/>
    <line x1="330.0" y1="50" x2="330.0" y2="350" stroke="#e2e8f0" stroke-dasharray="4,4"/>
    <line x1="400.0" y1="50" x2="400.0" y2="350" stroke="#e2e8f0" stroke-dasharray="4,4"/>
    <line x1="470.0" y1="50" x2="470.0" y2="350" stroke="#e2e8f0" stroke-dasharray="4,4"/>
    <line x1="540.0" y1="50" x2="540.0" y2="350" stroke="#e2e8f0" stroke-dasharray="4,4"/>
    <line x1="610.0" y1="50" x2="610.0" y2="350" stroke="#e2e8f0" stroke-dasharray="4,4"/>
    <line x1="680.0" y1="50" x2="680.0" y2="350" stroke="#e2e8f0" stroke-dasharray="4,4"/>
    <line x1="750.0" y1="50" x2="750.0" y2="350" stroke="#e2e8f0" stroke-dasharray="4,4"/>
    <line x1="50" y1="350.0" x2="750" y2="350.0" stroke="#e2e8f0" stroke-dasharray="4,4"/>
    <line x1="50" y1="320.0" x2="750" y2="320.0" stroke="#e2e8f0" stroke-dasharray="4,4"/>
    <line x1="50" y1="290.0" x2="750" y2="290.0" stroke="#e2e8f0" stroke-dasharray="4,4"/>
    <line x1="50" y1="260.0" x2="750" y2="260.0" stroke="#e2e8f0" stroke-dasharray="4,4"/>
    <line x1="50" y1="230.0" x2="750" y2="230.0" stroke="#e2e8f0" stroke-dasharray="4,4"/>
    <line x1="50" y1="170.0" x2="750" y2="170.0" stroke="#e2e8f0" stroke-dasharray="4,4"/>
    <line x1="50" y1="140.0" x2="750" y2="140.0" stroke="#e2e8f0" stroke-dasharray="4,4"/>
    <line x1="50" y1="110.0" x2="750" y2="110.0" stroke="#e2e8f0" stroke-dasharray="4,4"/>
    <line x1="50" y1="80.0" x2="750" y2="80.0" stroke="#e2e8f0" stroke-dasharray="4,4"/>
    <line x1="50" y1="50.0" x2="750" y2="50.0" stroke="#e2e8f0" stroke-dasharray="4,4"/>
  </g>
  <g class="axes">
    <line x1="50" y1="200.0" x2="750" y2="200.0" stroke="#374151" stroke-width="2"/>
    <polygon points="750,200.0 742,196.0 742,204.0" fill="#374151"/>
    <line x1="400.0" y1="50" x2="400.0" y2="350" stroke="#374151" stroke-width="2"/>
    <polygon points="400.0,50 396.0,58 404.0,58" fill="#374151"/>
    <text x="750" y="190.0" text-anchor="end" font-size="14" font-weight="bold" fill="#374151">x</text>
    <text x="390.0" y="50" text-anchor="end" font-size="14" font-weight="bold" fill="#374151">y</text>
    <line x1="50.0" y1="196.0" x2="50.0" y2="204.0" stroke="#374151" stroke-width="1.5"/>
    <text x="50.0" y="220.0" text-anchor="middle" font-size="12" fill="#374151">-5</text>
    <line x1="120.0" y1="196.0" x2="120.0" y2="204.0" stroke="#374151" stroke-width="1.5"/>
    <text x="120.0" y="220.0" text-anchor="middle" font-size="12" fill="#374151">-4</text>
    <line x1="190.0" y1="196.0" x2="190.0" y2="204.0" stroke="#374151" stroke-width="1.5"/>
    <text x="190.0" y="220.0" text-anchor="middle" font-size="12" fill="#374151">-3</text>
    <line x1="260.0" y1="196.0" x2="260.0" y2="204.0" stroke="#374151" stroke-width="1.5"/>
    <text x="260.0" y="220.0" text-anchor="middle" font-size="12" fill="#374151">-2</text>
    <line x1="330.0" y1="196.0" x2="330.0" y2="204.0" stroke="#374151" stroke-width="1.5"/>
    <text x="330.0" y="220.0" text-anchor="middle" font-size="12" fill="#374151">-1</text>
    <line x1="470.0" y1="196.0" x2="470.0" y2="204.0" stroke="#374151" stroke-width="1.5"/>
    <text x="470.0" y="220.0" text-anchor="middle" font-size="12" fill="#374151">1</text>
    <line x1="540.0" y1="196.0" x2="540.0" y2="204.0" stroke="#374151" stroke-width="1.5"/>
    <text x="540.0" y="220.0" text-anchor="middle" font-size="12" fill="#374151">2</text>
    <line x1="610.0" y1="196.0" x2="610.0" y2="204.0" stroke="#374151" stroke-width="1.5"/>
    <text x="610.0" y="220.0" text-anchor="middle" font-size="12" fill="#374151">3</text>
    <line x1="680.0" y1="196.0" x2="680.0" y2="204.0" stroke="#374151" stroke-width="1.5"/>
    <text x="680.0" y="220.0" text-anchor="middle" font-size="12" fill="#374151">4</text>
    <line x1="750.0" y1="196.0" x2="750.0" y2="204.0" stroke="#374151" stroke-width="1.5"/>
    <text x="750.0" y="220.0" text-anchor="middle" font-size="12" fill="#374151">5</text>
    <line x1="396.0" y1="350.0" x2="404.0" y2="350.0" stroke="#374151" stroke-width="1.5"/>
    <text x="388.0" y="354.0" text-anchor="end" font-size="12" fill="#374151">-5</text>
    <line x1="396.0" y1="320.0" x2="404.0" y2="320.0" stroke="#374151" stroke-width="1.5"/>
    <text x="388.0" y="324.0" text-anchor="end" font-size="12" fill="#374151">-4</text>
    <line x1="396.0" y1="290.0" x2="404.0" y2="290.0" stroke="#374151" stroke-width="1.5"/>
    <text x="388.0" y="294.0" text-anchor="end" font-size="12" fill="#374151">-3</text>
    <line x1="396.0" y1="260.0" x2="404.0" y2="260.0" stroke="#374151" stroke-width="1.5"/>
    <text x="388.0" y="264.0" text-anchor="end" font-size="12" fill="#374151">-2</text>
    <line x1="396.0" y1="230.0" x2="404.0" y2="230.0" stroke="#374151" stroke-width="1.5"/>
    <text x="388.0" y="234.0" text-anchor="end" font-size="12" fill="#374151">-1</text>
    <line x1="396.0" y1="170.0" x2="404.0" y2="170.0" stroke="#374151" stroke-width="1.5"/>
    <text x="388.0" y="174.0" text-anchor="end" font-size="12" fill="#374151">1</text>
    <line x1="396.0" y1="140.0" x2="404.0" y2="140.0" stroke="#374151" stroke-width="1.5"/>
    <text x="388.0" y="144.0" text-anchor="end" font-size="12" fill="#374151">2</text>
    <line x1="396.0" y1="110.0" x2="404.0" y2="110.0" stroke="#374151" stroke-width="1.5"/>
    <text x="388.0" y="114.0" text-anchor="end" font-size="12" fill="#374151">3</text>
    <line x1="396.0" y1="80.0" x2="404.0" y2="80.0" stroke="#374151" stroke-width="1.5"/>
    <text x="388.0" y="84.0" text-anchor="end" font-size="12" fill="#374151">4</text>
    <line x1="396.0" y1="50.0" x2="404.0" y2="50.0" stroke="#374151" stroke-width="1.5"/>
    <text x="388.0" y="54.0" text-anchor="end" font-size="12" fill="#374151">5</text>
  </g>
  <path id="func-0" class="wave-path" d="M 50.00 215.00 L 53.50 214.25 L 57.00 213.50 L 60.50 212.75 L 64.00 212.00 L 67.50 211.25 L 71.00 210.50 L 74.50 209.75 L 78.00 209.00 L 81.50 208.25 L 85.00 207.50 L 88.50 206.75 L 92.00 206.00 L 95.50 205.25 L 99.00 204.50 L 102.50 203.75 L 106.00 203.00 L 109.50 202.25 L 113.00 201.50 L 116.50 200.75 L 120.00 200.00 L 123.50 199.25 L 127.00 198.50 L 130.50 197.75 L 134.00 197.00 L 137.50 196.25 L 141.00 195.50 L 144.50 194.75 L 148.00 194.00 L 151.50 193.25 L 155.00 192.50 L 158.50 191.75 L 162.00 191.00 L 165.50 190.25 L 169.00 189.50 L 172.50 188.75 L 176.00 188.00 L 179.50 187.25 L 183.00 186.50 L 186.50 185.75 L 190.00 185.00 L 193.50 184.25 L 197.00 183.50 L 200.50 182.75 L 204.00 182.00 L 207.50 181.25 L 211.00 180.50 L 214.50 179.75 L 218.00 179.00 L 221.50 178.25 L 225.00 177.50 L 228.50 176.75 L 232.00 176.00 L 235.50 175.25 L 239.00 174.50 L 242.50 173.75 L 246.00 173.00 L 249.50 172.25 L 253.00 171.50 L 256.50 170.75 L 260.00 170.00 L 263.50 169.25 L 267.00 168.50 L 270.50 167.75 L 274.00 167.00 L 277.50 166.25 L 281.00 165.50 L 284.50 164.75 L 288.00 164.00 L 291.50 163.25 L 295.00 162.50 L 298.50 161.75 L 302.00 161.00 L 305.50 160.25 L 309.00 159.50 L 312.50 158.75 L 316.00 158.00 L 319.50 157.25 L 323.00 156.50 L 326.50 155.75 L 330.00 155.00 L 333.50 154.25 L 337.00 153.50 L 340.50 152.75 L 344.00 152.00 L 347.50 151.25 L 351.00 150.50 L 354.50 149.75 L 358.00 149.00 L 361.50 148.25 L 365.00 147.50 L 368.50 146.75 L 372.00 146.00 L 375.50 145.25 L 379.00 144.50 L 382.50 143.75 L 386.00 143.00 L 389.50 142.25 L 393.00 141.50 L 396.50 140.75 L 400.00 140.00 L 403.50 139.25 L 407.00 138.50 L 410.50 137.75 L 414.00 137.00 L 417.50 136.25 L 421.00 135.50 L 424.50 134.75 L 428.00 134.00 L 431.50 133.25 L 435.00 132.50 L 438.50 131.75 L 442.00 131.00 L 445.50 130.25 L 449.00 129.50 L 452.50 128.75 L 456.00 128.00 L 459.50 127.25 L 463.00 126.50 L 466.50 125.75 L 470.00 125.00 L 473.50 124.25 L 477.00 123.50 L 480.50 122.75 L 484.00 122.00 L 487.50 121.25 L 491.00 120.50 L 494.50 119.75 L 498.00 119.00 L 501.50 118.25 L 505.00 117.50 L 508.50 116.75 L 512.00 116.00 L 515.50 115.25 L 519.00 114.50 L 522.50 113.75 L 526.00 113.00 L 529.50 112.25 L 533.00 111.50 L 536.50 110.75 L 540.00 110.00 L 543.50 109.25 L 547.00 108.50 L 550.50 107.75 L 554.00 107.00 L 557.50 106.25 L 561.00 105.50 L 564.50 104.75 L 568.00 104.00 L 571.50 103.25 L 575.00 102.50 L 578.50 101.75 L 582.00 101.00 L 585.50 100.25 L 589.00 99.50 L 592.50 98.75 L 596.00 98.00 L 599.50 97.25 L 603.00 96.50 L 606.50 95.75 L 610.00 95.00 L 613.50 94.25 L 617.00 93.50 L 620.50 92.75 L 624.00 92.00 L 627.50 91.25 L 631.00 90.50 L 634.50 89.75 L 638.00 89.00 L 641.50 88.25 L 645.00 87.50 L 648.50 86.75 L 652.00 86.00 L 655.50 85.25 L 659.00 84.50 L 662.50 83.75 L 666.00 83.00 L 669.50 82.25 L 673.00 81.50 L 676.50 80.75 L 680.00 80.00 L 683.50 79.25 L 687.00 78.50 L 690.50 77.75 L 694.00 77.00 L 697.50 76.25 L 701.00 75.50 L 704.50 74.75 L 708.00 74.00 L 711.50 73.25 L 715.00 72.50 L 718.50 71.75 L 722.00 71.00 L 725.50 70.25 L 729.00 69.50 L 732.50 68.75 L 736.00 68.00 L 739.50 67.25 L 743.00 66.50 L 746.50 65.75 L 750.00 65.00" fill="none" stroke="#3b82f6" stroke-width="3" stroke-linecap="round" stroke-linejoin="round"/>
  <path id="func-1" class="wave-path" d="M 50.00 305.00 L 53.50 304.25 L 57.00 303.50 L 60.50 302.75 L 64.00 302.00 L 67.50 301.25 L 71.00 300.50 L 74.50 299.75 L 78.00 299.00 L 81.50 298.25 L 85.00 297.50 L 88.50 296.75 L 92.00 296.00 L 95.50 295.25 L 99.00 294.50 L 102.50 293.75 L 106.00 293.00 L 109.50 292.25 L 113.00 291.50 L 116.50 290.75 L 120.00 290.00 L 123.50 289.25 L 127.00 288.50 L 130.50 287.75 L 134.00 287.00 L 137.50 286.25 L 141.00 285.50 L 144.50 284.75 L 148.00 284.00 L 151.50 283.25 L 155.00 282.50 L 158.50 281.75 L 162.00 281.00 L 165.50 280.25 L 169.00 279.50 L 172.50 278.75 L 176.00 278.00 L 179.50 277.25 L 183.00 276.50 L 186.50 275.75 L 190.00 275.00 L 193.50 274.25 L 197.00 273.50 L 200.50 272.75 L 204.00 272.00 L 207.50 271.25 L 211.00 270.50 L 214.50 269.75 L 218.00 269.00 L 221.50 268.25 L 225.00 267.50 L 228.50 266.75 L 232.00 266.00 L 235.50 265.25 L 239.00 264.50 L 242.50 263.75 L 246.00 263.00 L 249.50 262.25 L 253.00 261.50 L 256.50 260.75 L 260.00 260.00 L 263.50 259.25 L 267.00 258.50 L 270.50 257.75 L 274.00 257.00 L 277.50 256.25 L 281.00 255.50 L 284.50 254.75 L 288.00 254.00 L 291.50 253.25 L 295.00 252.50 L 298.50 251.75 L 302.00 251.00 L 305.50 250.25 L 309.00 249.50 L 312.50 248.75 L 316.00 248.00 L 319.50 247.25 L 323.00 246.50 L 326.50 245.75 L 330.00 245.00 L 333.50 244.25 L 337.00 243.50 L 340.50 242.75 L 344.00 242.00 L 347.50 241.25 L 351.00 240.50 L 354.50 239.75 L 358.00 239.00 L 361.50 238.25 L 365.00 237.50 L 368.50 236.75 L 372.00 236.00 L 375.50 235.25 L 379.00 234.50 L 382.50 233.75 L 386.00 233.00 L 389.50 232.25 L 393.00 231.50 L 396.50 230.75 L 400.00 230.00 L 403.50 229.25 L 407.00 228.50 L 410.50 227.75 L 414.00 227.00 L 417.50 226.25 L 421.00 225.50 L 424.50 224.75 L 428.00 224.00 L 431.50 223.25 L 435.00 222.50 L 438.50 221.75 L 442.00 221.00 L 445.50 220.25 L 449.00 219.50 L 452.50 218.75 L 456.00 218.00 L 459.50 217.25 L 463.00 216.50 L 466.50 215.75 L 470.00 215.00 L 473.50 214.25 L 477.00 213.50 L 480.50 212.75 L 484.00 212.00 L 487.50 211.25 L 491.00 210.50 L 494.50 209.75 L 498.00 209.00 L 501.50 208.25 L 505.00 207.50 L 508.50 206.75 L 512.00 206.00 L 515.50 205.25 L 519.00 204.50 L 522.50 203.75 L 526.00 203.00 L 529.50 202.25 L 533.00 201.50 L 536.50 200.75 L 540.00 200.00 L 543.50 199.25 L 547.00 198.50 L 550.50 197.75 L 554.00 197.00 L 557.50 196.25 L 561.00 195.50 L 564.50 194.75 L 568.00 194.00 L 571.50 193.25 L 575.00 192.50 L 578.50 191.75 L 582.00 191.00 L 585.50 190.25 L 589.00 189.50 L 592.50 188.75 L 596.00 188.00 L 599.50 187.25 L 603.00 186.50 L 606.50 185.75 L 610.00 185.00 L 613.50 184.25 L 617.00 183.50 L 620.50 182.75 L 624.00 182.00 L 627.50 181.25 L 631.00 180.50 L 634.50 179.75 L 638.00 179.00 L 641.50 178.25 L 645.00 177.50 L 648.50 176.75 L 652.00 176.00 L 655.50 175.25 L 659.00 174.50 L 662.50 173.75 L 666.00 173.00 L 669.50 172.25 L 673.00 171.50 L 676.50 170.75 L 680.00 170.00 L 683.50 169.25 L 687.00 168.50 L 690.50 167.75 L 694.00 167.00 L 697.50 166.25 L 701.00 165.50 L 704.50 164.75 L 708.00 164.00 L 711.50 163.25 L 715.00 162.50 L 718.50 161.75 L 722.00 161.00 L 725.50 160.25 L 729.00 159.50 L 732.50 158.75 L 736.00 158.00 L 739.50 157.25 L 743.00 156.50 L 746.50 155.75 L 750.00 155.00" fill="none" stroke="#22c55e" stroke-width="3" stroke-linecap="round" stroke-linejoin="round"/>
  <path id="func-2" class="wave-path" d="M 260.00 50.00 L 263.50 53.00 L 267.00 56.00 L 270.50 59.00 L 274.00 62.00 L 277.50 65.00 L 281.00 68.00 L 284.50 71.00 L 288.00 74.00 L 291.50 77.00 L 295.00 80.00 L 298.50 83.00 L 302.00 86.00 L 305.50 89.00 L 309.00 92.00 L 312.50 95.00 L 316.00 98.00 L 319.50 101.00 L 323.00 104.00 L 326.50 107.00 L 330.00 110.00 L 333.50 113.00 L 337.00 116.00 L 340.50 119.00 L 344.00 122.00 L 347.50 125.00 L 351.00 128.00 L 354.50 131.00 L 358.00 134.00 L 361.50 137.00 L 365.00 140.00 L 368.50 143.00 L 372.00 146.00 L 375.50 149.00 L 379.00 152.00 L 382.50 155.00 L 386.00 158.00 L 389.50 161.00 L 393.00 164.00 L 396.50 167.00 L 400.00 170.00 L 403.50 173.00 L 407.00 176.00 L 410.50 179.00 L 414.00 182.00 L 417.50 185.00 L 421.00 188.00 L 424.50 191.00 L 428.00 194.00 L 431.50 197.00 L 435.00 200.00 L 438.50 203.00 L 442.00 206.00 L 445.50 209.00 L 449.00 212.00 L 452.50 215.00 L 456.00 218.00 L 459.50 221.00 L 463.00 224.00 L 466.50 227.00 L 470.00 230.00 L 473.50 233.00 L 477.00 236.00 L 480.50 239.00 L 484.00 242.00 L 487.50 245.00 L 491.00 248.00 L 494.50 251.00 L 498.00 254.00 L 501.50 257.00 L 505.00 260.00 L 508.50 263.00 L 512.00 266.00 L 515.50 269.00 L 519.00 272.00 L 522.50 275.00 L 526.00 278.00 L 529.50 281.00 L 533.00 284.00 L 536.50 287.00 L 540.00 290.00 L 543.50 293.00 L 547.00 296.00 L 550.50 299.00 L 554.00 302.00 L 557.50 305.00 L 561.00 308.00 L 564.50 311.00 L 568.00 314.00 L 571.50 317.00 L 575.00 320.00 L 578.50 323.00 L 582.00 326.00 L 585.50 329.00 L 589.00 332.00 L 592.50 335.00 L 596.00 338.00 L 599.50 341.00 L 603.00 344.00 L 606.50 347.00 L 610.00 350.00" fill="none" stroke="#ef4444" stroke-width="3" stroke-linecap="round" stroke-linejoin="round"/>
  <g class="annotation-group">
    <rect x="560" y="60" width="180" height="76" rx="6" fill="white" fill-opacity="0.95" stroke="#e2e8f0" stroke-width="1"/>
    <line x1="570" y1="75" x2="595" y2="75" stroke="#3b82f6" stroke-width="3" stroke-linecap="round"/>
    <text x="602" y="79" font-size="10" fill="#1e293b">L1</text>
    <line x1="570" y1="97" x2="595" y2="97" stroke="#22c55e" stroke-width="3" stroke-linecap="round"/>
    <text x="602" y="101" font-size="10" fill="#1e293b">L2 (Paralela a L1)</text>
    <line x1="570" y1="119" x2="595" y2="119" stroke="#ef4444" stroke-width="3" stroke-linecap="round"/>
    <text x="602" y="123" font-size="10" fill="#1e293b">L3 (Perpendicular a L1 y L2)</text>
  </g>
</svg>