<svg xmlns="http://www.w3.org/2000/svg" viewBox="0 0 920 440">
  <rect width="920" height="440" fill="#f8fafc" rx="16"/>
  <text x="460" y="34" font-family="Inter, sans-serif" font-size="28" font-weight="900" fill="#1e293b" text-anchor="middle">Dos isótopos del carbono</text>

  <g transform="translate(220,0)">
    <text x="-18" y="68" font-family="Inter, sans-serif" font-size="24" font-weight="800" fill="#1e293b" text-anchor="middle">Carbono-12</text>
    <rect x="58" y="50" width="64" height="24" rx="12" fill="#ecfdf5" stroke="#86efac" stroke-width="1"/>
    <text x="90" y="67" font-family="Inter, sans-serif" font-size="12" font-weight="800" fill="#166534" text-anchor="middle">98.9%</text>

    <circle cx="0" cy="220" r="96" fill="none" stroke="#cbd5e1" stroke-width="2"/>
    <circle cx="0" cy="220" r="142" fill="none" stroke="#cbd5e1" stroke-width="2"/>

    <circle cx="0" cy="124" r="5" fill="#2563eb" stroke="white" stroke-width="1.4"/><path d="M -2 124 L 2 124" stroke="white" stroke-width="1.2" stroke-linecap="round"/>
    <circle cx="0" cy="316" r="5" fill="#2563eb" stroke="white" stroke-width="1.4"/><path d="M -2 316 L 2 316" stroke="white" stroke-width="1.2" stroke-linecap="round"/>
    <circle cx="0" cy="78" r="5" fill="#2563eb" stroke="white" stroke-width="1.4"/><path d="M -2 78 L 2 78" stroke="white" stroke-width="1.2" stroke-linecap="round"/>
    <circle cx="142" cy="220" r="5" fill="#2563eb" stroke="white" stroke-width="1.4"/><path d="M 140 220 L 144 220" stroke="white" stroke-width="1.2" stroke-linecap="round"/>
    <circle cx="0" cy="362" r="5" fill="#2563eb" stroke="white" stroke-width="1.4"/><path d="M -2 362 L 2 362" stroke="white" stroke-width="1.2" stroke-linecap="round"/>
    <circle cx="-142" cy="220" r="5" fill="#2563eb" stroke="white" stroke-width="1.4"/><path d="M -144 220 L -140 220" stroke="white" stroke-width="1.2" stroke-linecap="round"/>

    <circle cx="0" cy="220" r="72" fill="#fff7ed" stroke="#f97316" stroke-width="2" stroke-dasharray="6 5"/>
    <g transform="translate(0,220)">
      <circle cx="-24" cy="-22" r="10.5" fill="#64748b" stroke="white" stroke-width="1.2"/><text x="-24" y="-18" font-family="Inter, sans-serif" font-size="11" font-weight="800" fill="white" text-anchor="middle">0</text>
      <circle cx="0" cy="-22" r="10.5" fill="#ef4444" stroke="white" stroke-width="1.2"/><text x="0" y="-18" font-family="Inter, sans-serif" font-size="12" font-weight="800" fill="white" text-anchor="middle">+</text>
      <circle cx="24" cy="-22" r="10.5" fill="#64748b" stroke="white" stroke-width="1.2"/><text x="24" y="-18" font-family="Inter, sans-serif" font-size="11" font-weight="800" fill="white" text-anchor="middle">0</text>
      <circle cx="-24" cy="0" r="10.5" fill="#ef4444" stroke="white" stroke-width="1.2"/><text x="-24" y="4" font-family="Inter, sans-serif" font-size="12" font-weight="800" fill="white" text-anchor="middle">+</text>
      <circle cx="0" cy="0" r="10.5" fill="#64748b" stroke="white" stroke-width="1.2"/><text x="0" y="4" font-family="Inter, sans-serif" font-size="11" font-weight="800" fill="white" text-anchor="middle">0</text>
      <circle cx="24" cy="0" r="10.5" fill="#ef4444" stroke="white" stroke-width="1.2"/><text x="24" y="4" font-family="Inter, sans-serif" font-size="12" font-weight="800" fill="white" text-anchor="middle">+</text>
      <circle cx="-24" cy="22" r="10.5" fill="#64748b" stroke="white" stroke-width="1.2"/><text x="-24" y="26" font-family="Inter, sans-serif" font-size="11" font-weight="800" fill="white" text-anchor="middle">0</text>
      <circle cx="0" cy="22" r="10.5" fill="#ef4444" stroke="white" stroke-width="1.2"/><text x="0" y="26" font-family="Inter, sans-serif" font-size="12" font-weight="800" fill="white" text-anchor="middle">+</text>
      <circle cx="24" cy="22" r="10.5" fill="#64748b" stroke="white" stroke-width="1.2"/><text x="24" y="26" font-family="Inter, sans-serif" font-size="11" font-weight="800" fill="white" text-anchor="middle">0</text>
      <circle cx="-48" cy="0" r="10.5" fill="#ef4444" stroke="white" stroke-width="1.2"/><text x="-48" y="4" font-family="Inter, sans-serif" font-size="12" font-weight="800" fill="white" text-anchor="middle">+</text>
      <circle cx="48" cy="0" r="10.5" fill="#64748b" stroke="white" stroke-width="1.2"/><text x="48" y="4" font-family="Inter, sans-serif" font-size="11" font-weight="800" fill="white" text-anchor="middle">0</text>
      <circle cx="0" cy="-44" r="10.5" fill="#ef4444" stroke="white" stroke-width="1.2"/><text x="0" y="-40" font-family="Inter, sans-serif" font-size="12" font-weight="800" fill="white" text-anchor="middle">+</text>
    </g>

    <rect x="-104" y="374" width="208" height="40" rx="16" fill="white" stroke="#e2e8f0" stroke-width="1.5"/>
    <text x="0" y="390" font-family="Inter, sans-serif" font-size="11" font-weight="700" fill="#1e293b" text-anchor="middle">6 protones | 6 neutrones</text>
    <text x="0" y="406" font-family="Inter, sans-serif" font-size="11" font-weight="700" fill="#475569" text-anchor="middle">A = 12</text>
  </g>

  <g transform="translate(460,136)">
    <rect x="-62" y="0" width="124" height="152" rx="18" fill="white" stroke="#cbd5e1" stroke-width="1.5"/>
    <text x="-40" y="26" font-family="Inter, sans-serif" font-size="16" font-weight="800" fill="#475569">6</text>
    <text x="0" y="78" font-family="Inter, sans-serif" font-size="44" font-weight="900" fill="#1e293b" text-anchor="middle">C</text>
    <text x="0" y="103" font-family="Inter, sans-serif" font-size="14" font-weight="700" fill="#475569" text-anchor="middle">Carbono</text>
    <text x="0" y="130" font-family="Inter, sans-serif" font-size="18" font-weight="900" fill="#0f172a" text-anchor="middle">12.011 u</text>
  </g>

  <g transform="translate(700,0)">
    <text x="-18" y="68" font-family="Inter, sans-serif" font-size="24" font-weight="800" fill="#1e293b" text-anchor="middle">Carbono-13</text>
    <rect x="58" y="50" width="56" height="24" rx="12" fill="#eff6ff" stroke="#93c5fd" stroke-width="1"/>
    <text x="86" y="67" font-family="Inter, sans-serif" font-size="12" font-weight="800" fill="#1d4ed8" text-anchor="middle">1.1%</text>

    <circle cx="0" cy="220" r="96" fill="none" stroke="#cbd5e1" stroke-width="2"/>
    <circle cx="0" cy="220" r="142" fill="none" stroke="#cbd5e1" stroke-width="2"/>

    <circle cx="0" cy="124" r="5" fill="#2563eb" stroke="white" stroke-width="1.4"/><path d="M -2 124 L 2 124" stroke="white" stroke-width="1.2" stroke-linecap="round"/>
    <circle cx="0" cy="316" r="5" fill="#2563eb" stroke="white" stroke-width="1.4"/><path d="M -2 316 L 2 316" stroke="white" stroke-width="1.2" stroke-linecap="round"/>
    <circle cx="0" cy="78" r="5" fill="#2563eb" stroke="white" stroke-width="1.4"/><path d="M -2 78 L 2 78" stroke="white" stroke-width="1.2" stroke-linecap="round"/>
    <circle cx="142" cy="220" r="5" fill="#2563eb" stroke="white" stroke-width="1.4"/><path d="M 140 220 L 144 220" stroke="white" stroke-width="1.2" stroke-linecap="round"/>
    <circle cx="0" cy="362" r="5" fill="#2563eb" stroke="white" stroke-width="1.4"/><path d="M -2 362 L 2 362" stroke="white" stroke-width="1.2" stroke-linecap="round"/>
    <circle cx="-142" cy="220" r="5" fill="#2563eb" stroke="white" stroke-width="1.4"/><path d="M -144 220 L -140 220" stroke="white" stroke-width="1.2" stroke-linecap="round"/>

    <circle cx="0" cy="220" r="76" fill="#fff7ed" stroke="#f97316" stroke-width="2" stroke-dasharray="6 5"/>
    <g transform="translate(0,220)">
      <circle cx="-24" cy="-22" r="10.5" fill="#64748b" stroke="white" stroke-width="1.2"/><text x="-24" y="-18" font-family="Inter, sans-serif" font-size="11" font-weight="800" fill="white" text-anchor="middle">0</text>
      <circle cx="0" cy="-22" r="10.5" fill="#ef4444" stroke="white" stroke-width="1.2"/><text x="0" y="-18" font-family="Inter, sans-serif" font-size="12" font-weight="800" fill="white" text-anchor="middle">+</text>
      <circle cx="24" cy="-22" r="10.5" fill="#64748b" stroke="white" stroke-width="1.2"/><text x="24" y="-18" font-family="Inter, sans-serif" font-size="11" font-weight="800" fill="white" text-anchor="middle">0</text>
      <circle cx="-24" cy="0" r="10.5" fill="#ef4444" stroke="white" stroke-width="1.2"/><text x="-24" y="4" font-family="Inter, sans-serif" font-size="12" font-weight="800" fill="white" text-anchor="middle">+</text>
      <circle cx="0" cy="0" r="10.5" fill="#64748b" stroke="white" stroke-width="1.2"/><text x="0" y="4" font-family="Inter, sans-serif" font-size="11" font-weight="800" fill="white" text-anchor="middle">0</text>
      <circle cx="24" cy="0" r="10.5" fill="#ef4444" stroke="white" stroke-width="1.2"/><text x="24" y="4" font-family="Inter, sans-serif" font-size="12" font-weight="800" fill="white" text-anchor="middle">+</text>
      <circle cx="-24" cy="22" r="10.5" fill="#64748b" stroke="white" stroke-width="1.2"/><text x="-24" y="26" font-family="Inter, sans-serif" font-size="11" font-weight="800" fill="white" text-anchor="middle">0</text>
      <circle cx="0" cy="22" r="10.5" fill="#ef4444" stroke="white" stroke-width="1.2"/><text x="0" y="26" font-family="Inter, sans-serif" font-size="12" font-weight="800" fill="white" text-anchor="middle">+</text>
      <circle cx="24" cy="22" r="10.5" fill="#64748b" stroke="white" stroke-width="1.2"/><text x="24" y="26" font-family="Inter, sans-serif" font-size="11" font-weight="800" fill="white" text-anchor="middle">0</text>
      <circle cx="-48" cy="0" r="10.5" fill="#ef4444" stroke="white" stroke-width="1.2"/><text x="-48" y="4" font-family="Inter, sans-serif" font-size="12" font-weight="800" fill="white" text-anchor="middle">+</text>
      <circle cx="48" cy="0" r="10.5" fill="#64748b" stroke="white" stroke-width="1.2"/><text x="48" y="4" font-family="Inter, sans-serif" font-size="11" font-weight="800" fill="white" text-anchor="middle">0</text>
      <circle cx="0" cy="-44" r="10.5" fill="#ef4444" stroke="white" stroke-width="1.2"/><text x="0" y="-40" font-family="Inter, sans-serif" font-size="12" font-weight="800" fill="white" text-anchor="middle">+</text>
      <circle cx="0" cy="44" r="10.5" fill="#64748b" stroke="white" stroke-width="1.2"/><text x="0" y="48" font-family="Inter, sans-serif" font-size="11" font-weight="800" fill="white" text-anchor="middle">0</text>
    </g>

    <rect x="-104" y="374" width="208" height="40" rx="16" fill="white" stroke="#e2e8f0" stroke-width="1.5"/>
    <text x="0" y="390" font-family="Inter, sans-serif" font-size="11" font-weight="700" fill="#1e293b" text-anchor="middle">6 protones | 7 neutrones</text>
    <text x="0" y="406" font-family="Inter, sans-serif" font-size="11" font-weight="700" fill="#475569" text-anchor="middle">A = 13</text>
  </g>

  <text x="460" y="430" font-family="Inter, sans-serif" font-size="12" font-weight="700" fill="#475569" text-anchor="middle">Mismo Z, distinto número de neutrones.</text>
</svg>
