<svg xmlns="http://www.w3.org/2000/svg" viewBox="0 0 560 420">
  <rect width="560" height="380" rx="16" fill="#f8fafc"/>

  <text x="280" y="48" text-anchor="middle" font-family="Inter, Arial, sans-serif" font-size="28" font-weight="800" fill="#102a43">
    Oxígeno (O)
  </text>
  <text x="228" y="78" text-anchor="end" font-family="Inter, Arial, sans-serif" font-size="18" font-weight="700" fill="#627d98">
    Z = 8
  </text>
  <text x="245" y="78" text-anchor="middle" font-family="Inter, Arial, sans-serif" font-size="18" font-weight="700" fill="#cbd5e1">
    |
  </text>
  <text x="262" y="78" text-anchor="start" font-family="Inter, Arial, sans-serif" font-size="13" font-weight="700" fill="#ef4444">
    protones en el núcleo
  </text>

  <g transform="translate(280,226)">
    <circle cx="0" cy="0" r="74" fill="none" stroke="#cbd5e1" stroke-width="3"/>
    <circle cx="0" cy="0" r="128" fill="none" stroke="#cbd5e1" stroke-width="3"/>

    <circle cx="0" cy="-74" r="8" fill="#2563eb" stroke="#ffffff" stroke-width="1.5"/>
    <path d="M -3 -74 L 3 -74" stroke="#ffffff" stroke-width="2" stroke-linecap="round"/>
    <circle cx="0" cy="74" r="8" fill="#2563eb" stroke="#ffffff" stroke-width="1.5"/>
    <path d="M -3 74 L 3 74" stroke="#ffffff" stroke-width="2" stroke-linecap="round"/>

    <circle cx="0" cy="-128" r="8" fill="#2563eb" stroke="#ffffff" stroke-width="1.5"/>
    <path d="M -3 -128 L 3 -128" stroke="#ffffff" stroke-width="2" stroke-linecap="round"/>
    <circle cx="110.8" cy="-64" r="8" fill="#2563eb" stroke="#ffffff" stroke-width="1.5"/>
    <path d="M 107.8 -64 L 113.8 -64" stroke="#ffffff" stroke-width="2" stroke-linecap="round"/>
    <circle cx="110.8" cy="64" r="8" fill="#2563eb" stroke="#ffffff" stroke-width="1.5"/>
    <path d="M 107.8 64 L 113.8 64" stroke="#ffffff" stroke-width="2" stroke-linecap="round"/>
    <circle cx="0" cy="128" r="8" fill="#2563eb" stroke="#ffffff" stroke-width="1.5"/>
    <path d="M -3 128 L 3 128" stroke="#ffffff" stroke-width="2" stroke-linecap="round"/>
    <circle cx="-110.8" cy="64" r="8" fill="#2563eb" stroke="#ffffff" stroke-width="1.5"/>
    <path d="M -113.8 64 L -107.8 64" stroke="#ffffff" stroke-width="2" stroke-linecap="round"/>
    <circle cx="-110.8" cy="-64" r="8" fill="#2563eb" stroke="#ffffff" stroke-width="1.5"/>
    <path d="M -113.8 -64 L -107.8 -64" stroke="#ffffff" stroke-width="2" stroke-linecap="round"/>

    <circle cx="0" cy="0" r="58" fill="#fff7ed" stroke="#f97316" stroke-width="2.5" stroke-dasharray="6 4"/>

    <circle cx="-20" cy="-22" r="16" fill="#ef4444" stroke="#ffffff" stroke-width="1.5"/>
    <text x="-20" y="-16" text-anchor="middle" font-family="Inter, Arial, sans-serif" font-size="18" font-weight="800" fill="#ffffff">+</text>
    <circle cx="20" cy="-22" r="16" fill="#ef4444" stroke="#ffffff" stroke-width="1.5"/>
    <text x="20" y="-16" text-anchor="middle" font-family="Inter, Arial, sans-serif" font-size="18" font-weight="800" fill="#ffffff">+</text>
    <circle cx="-20" cy="22" r="16" fill="#ef4444" stroke="#ffffff" stroke-width="1.5"/>
    <text x="-20" y="28" text-anchor="middle" font-family="Inter, Arial, sans-serif" font-size="18" font-weight="800" fill="#ffffff">+</text>
    <circle cx="20" cy="22" r="16" fill="#ef4444" stroke="#ffffff" stroke-width="1.5"/>
    <text x="20" y="28" text-anchor="middle" font-family="Inter, Arial, sans-serif" font-size="18" font-weight="800" fill="#ffffff">+</text>
    <circle cx="-40" cy="0" r="16" fill="#ef4444" stroke="#ffffff" stroke-width="1.5"/>
    <text x="-40" y="6" text-anchor="middle" font-family="Inter, Arial, sans-serif" font-size="18" font-weight="800" fill="#ffffff">+</text>
    <circle cx="40" cy="0" r="16" fill="#ef4444" stroke="#ffffff" stroke-width="1.5"/>
    <text x="40" y="6" text-anchor="middle" font-family="Inter, Arial, sans-serif" font-size="18" font-weight="800" fill="#ffffff">+</text>
    <circle cx="0" cy="-44" r="16" fill="#ef4444" stroke="#ffffff" stroke-width="1.5"/>
    <text x="0" y="-38" text-anchor="middle" font-family="Inter, Arial, sans-serif" font-size="18" font-weight="800" fill="#ffffff">+</text>
    <circle cx="0" cy="44" r="16" fill="#ef4444" stroke="#ffffff" stroke-width="1.5"/>
    <text x="0" y="50" text-anchor="middle" font-family="Inter, Arial, sans-serif" font-size="18" font-weight="800" fill="#ffffff">+</text>
  </g>

  <g font-family="Inter, Arial, sans-serif">
    <rect x="110" y="352" width="152" height="42" rx="21" fill="#ffffff" stroke="#e2e8f0" stroke-width="1.5"/>
    <circle cx="134" cy="373" r="13" fill="#ef4444"/>
    <text x="134" y="379" text-anchor="middle" font-size="18" font-weight="800" fill="#ffffff">+</text>
    <text x="160" y="380" font-size="18" font-weight="700" fill="#102a43">Protón</text>

    <rect x="286" y="352" width="166" height="42" rx="21" fill="#ffffff" stroke="#e2e8f0" stroke-width="1.5"/>
    <circle cx="310" cy="373" r="13" fill="#2563eb"/>
    <path d="M 305.5 373 L 314.5 373" stroke="#ffffff" stroke-width="2" stroke-linecap="round"/>
    <text x="336" y="380" font-size="18" font-weight="700" fill="#102a43">Electrón</text>
  </g>
</svg>
