<svg xmlns="http://www.w3.org/2000/svg" viewBox="0 0 560 420">
  <rect width="560" height="380" rx="16" fill="#f8fafc"/>

  <text x="280" y="48" text-anchor="middle" font-family="Inter, Arial, sans-serif" font-size="28" font-weight="800" fill="#102a43">
    Carbono (C)
  </text>
  <text x="228" y="78" text-anchor="end" font-family="Inter, Arial, sans-serif" font-size="18" font-weight="700" fill="#627d98">
    Z = 6
  </text>
  <text x="245" y="78" text-anchor="middle" font-family="Inter, Arial, sans-serif" font-size="18" font-weight="700" fill="#cbd5e1">
    |
  </text>
  <text x="262" y="78" text-anchor="start" font-family="Inter, Arial, sans-serif" font-size="13" font-weight="700" fill="#ef4444">
    protones en el núcleo
  </text>

  <g transform="translate(280,226)">
    <circle cx="0" cy="0" r="72" fill="none" stroke="#cbd5e1" stroke-width="3"/>
    <circle cx="0" cy="0" r="126" fill="none" stroke="#cbd5e1" stroke-width="3"/>

    <circle cx="0" cy="-72" r="8" fill="#2563eb" stroke="#ffffff" stroke-width="1.5"/>
    <path d="M -3 -72 L 3 -72" stroke="#ffffff" stroke-width="2" stroke-linecap="round"/>
    <circle cx="0" cy="72" r="8" fill="#2563eb" stroke="#ffffff" stroke-width="1.5"/>
    <path d="M -3 72 L 3 72" stroke="#ffffff" stroke-width="2" stroke-linecap="round"/>

    <circle cx="0" cy="-126" r="8" fill="#2563eb" stroke="#ffffff" stroke-width="1.5"/>
    <path d="M -3 -126 L 3 -126" stroke="#ffffff" stroke-width="2" stroke-linecap="round"/>
    <circle cx="126" cy="0" r="8" fill="#2563eb" stroke="#ffffff" stroke-width="1.5"/>
    <path d="M 123 0 L 129 0" stroke="#ffffff" stroke-width="2" stroke-linecap="round"/>
    <circle cx="0" cy="126" r="8" fill="#2563eb" stroke="#ffffff" stroke-width="1.5"/>
    <path d="M -3 126 L 3 126" stroke="#ffffff" stroke-width="2" stroke-linecap="round"/>
    <circle cx="-126" cy="0" r="8" fill="#2563eb" stroke="#ffffff" stroke-width="1.5"/>
    <path d="M -129 0 L -123 0" stroke="#ffffff" stroke-width="2" stroke-linecap="round"/>

    <circle cx="0" cy="0" r="54" fill="#fff7ed" stroke="#f97316" stroke-width="2.5" stroke-dasharray="6 4"/>

    <circle cx="-22" cy="-20" r="18" fill="#ef4444" stroke="#ffffff" stroke-width="1.5"/>
    <text x="-22" y="-14" text-anchor="middle" font-family="Inter, Arial, sans-serif" font-size="20" font-weight="800" fill="#ffffff">+</text>
    <circle cx="22" cy="-20" r="18" fill="#ef4444" stroke="#ffffff" stroke-width="1.5"/>
    <text x="22" y="-14" text-anchor="middle" font-family="Inter, Arial, sans-serif" font-size="20" font-weight="800" fill="#ffffff">+</text>
    <circle cx="-22" cy="20" r="18" fill="#ef4444" stroke="#ffffff" stroke-width="1.5"/>
    <text x="-22" y="26" text-anchor="middle" font-family="Inter, Arial, sans-serif" font-size="20" font-weight="800" fill="#ffffff">+</text>
    <circle cx="22" cy="20" r="18" fill="#ef4444" stroke="#ffffff" stroke-width="1.5"/>
    <text x="22" y="26" text-anchor="middle" font-family="Inter, Arial, sans-serif" font-size="20" font-weight="800" fill="#ffffff">+</text>
    <circle cx="-44" cy="0" r="18" fill="#ef4444" stroke="#ffffff" stroke-width="1.5"/>
    <text x="-44" y="6" text-anchor="middle" font-family="Inter, Arial, sans-serif" font-size="20" font-weight="800" fill="#ffffff">+</text>
    <circle cx="44" cy="0" r="18" fill="#ef4444" stroke="#ffffff" stroke-width="1.5"/>
    <text x="44" y="6" text-anchor="middle" font-family="Inter, Arial, sans-serif" font-size="20" font-weight="800" fill="#ffffff">+</text>
  </g>

  <g font-family="Inter, Arial, sans-serif">
    <rect x="110" y="352" width="152" height="42" rx="21" fill="#ffffff" stroke="#e2e8f0" stroke-width="1.5"/>
    <circle cx="134" cy="373" r="13" fill="#ef4444"/>
    <text x="134" y="379" text-anchor="middle" font-size="18" font-weight="800" fill="#ffffff">+</text>
    <text x="160" y="380" font-size="18" font-weight="700" fill="#102a43">Protón</text>

    <rect x="286" y="352" width="166" height="42" rx="21" fill="#ffffff" stroke="#e2e8f0" stroke-width="1.5"/>
    <circle cx="310" cy="373" r="13" fill="#2563eb"/>
    <path d="M 305.5 373 L 314.5 373" stroke="#ffffff" stroke-width="2" stroke-linecap="round"/>
    <text x="336" y="380" font-size="18" font-weight="700" fill="#102a43">Electrón</text>
  </g>
</svg>
