<svg xmlns="http://www.w3.org/2000/svg" viewBox="0 0 600 500">
  <rect width="600" height="500" fill="#f8fafc" rx="12"/>
  <text x="300" y="42" font-family="Inter, sans-serif" font-size="24" font-weight="700" fill="#1e293b" text-anchor="middle">Ejemplo: Oxígeno (O)</text>
  <text x="300" y="66" font-family="Inter, sans-serif" font-size="14" fill="#64748b" text-anchor="middle">Cálculo del número másico (A = 16)</text>

  <rect x="24" y="188" width="190" height="150" rx="12" fill="#ffffff" stroke="#e2e8f0" stroke-width="1"/>
  <text x="119" y="230" font-family="Inter, sans-serif" font-size="48" font-weight="900" fill="#1e293b" text-anchor="middle">A</text>
  <text x="119" y="255" font-family="Inter, sans-serif" font-size="14" font-weight="700" fill="#f97316" text-anchor="middle">Número másico</text>
  <text x="119" y="292" font-family="Inter, sans-serif" font-size="24" font-weight="700" fill="#1e293b" text-anchor="middle">=</text>
  <text x="79" y="322" font-family="Inter, sans-serif" font-size="20" font-weight="700" fill="#ef4444" text-anchor="middle">Z</text>
  <text x="79" y="338" font-family="Inter, sans-serif" font-size="10" fill="#64748b" text-anchor="middle">(Protones)</text>
  <text x="119" y="322" font-family="Inter, sans-serif" font-size="20" font-weight="700" fill="#1e293b" text-anchor="middle">+</text>
  <text x="159" y="322" font-family="Inter, sans-serif" font-size="20" font-weight="700" fill="#64748b" text-anchor="middle">n</text>
  <text x="159" y="338" font-family="Inter, sans-serif" font-size="10" fill="#64748b" text-anchor="middle">(Neutrones)</text>

  <g transform="translate(402,274)">
    <circle cx="0" cy="0" r="92" fill="#fff7ed" stroke="#f97316" stroke-width="2" stroke-dasharray="6,4"/>
    <circle cx="0" cy="0" r="120" fill="none" stroke="#e2e8f0" stroke-width="2"/>
    <circle cx="0" cy="0" r="164" fill="none" stroke="#e2e8f0" stroke-width="2"/>

    <circle cx="0" cy="-120" r="5" fill="#3b82f6" stroke="white" stroke-width="1.5"/><path d="M -2 -120 L 2 -120" stroke="white" stroke-width="1.5" stroke-linecap="round"/>
    <circle cx="0" cy="120" r="5" fill="#3b82f6" stroke="white" stroke-width="1.5"/><path d="M -2 120 L 2 120" stroke="white" stroke-width="1.5" stroke-linecap="round"/>
    <circle cx="0" cy="-164" r="5" fill="#3b82f6" stroke="white" stroke-width="1.5"/><path d="M -2 -164 L 2 -164" stroke="white" stroke-width="1.5" stroke-linecap="round"/>
    <circle cx="142.03" cy="-82" r="5" fill="#3b82f6" stroke="white" stroke-width="1.5"/><path d="M 140.03 -82 L 144.03 -82" stroke="white" stroke-width="1.5" stroke-linecap="round"/>
    <circle cx="142.03" cy="82" r="5" fill="#3b82f6" stroke="white" stroke-width="1.5"/><path d="M 140.03 82 L 144.03 82" stroke="white" stroke-width="1.5" stroke-linecap="round"/>
    <circle cx="0" cy="164" r="5" fill="#3b82f6" stroke="white" stroke-width="1.5"/><path d="M -2 164 L 2 164" stroke="white" stroke-width="1.5" stroke-linecap="round"/>
    <circle cx="-142.03" cy="82" r="5" fill="#3b82f6" stroke="white" stroke-width="1.5"/><path d="M -144.03 82 L -140.03 82" stroke="white" stroke-width="1.5" stroke-linecap="round"/>
    <circle cx="-142.03" cy="-82" r="5" fill="#3b82f6" stroke="white" stroke-width="1.5"/><path d="M -144.03 -82 L -140.03 -82" stroke="white" stroke-width="1.5" stroke-linecap="round"/>

    <circle cx="-36" cy="-42" r="10" fill="#64748b" stroke="white" stroke-width="1.2"/><text x="-36" y="-38" font-family="Inter, sans-serif" font-size="11" font-weight="700" fill="white" text-anchor="middle">0</text>
    <circle cx="-12" cy="-42" r="10" fill="#ef4444" stroke="white" stroke-width="1.2"/><text x="-12" y="-38" font-family="Inter, sans-serif" font-size="12" font-weight="700" fill="white" text-anchor="middle">+</text>
    <circle cx="12" cy="-42" r="10" fill="#64748b" stroke="white" stroke-width="1.2"/><text x="12" y="-38" font-family="Inter, sans-serif" font-size="11" font-weight="700" fill="white" text-anchor="middle">0</text>
    <circle cx="36" cy="-42" r="10" fill="#ef4444" stroke="white" stroke-width="1.2"/><text x="36" y="-38" font-family="Inter, sans-serif" font-size="12" font-weight="700" fill="white" text-anchor="middle">+</text>

    <circle cx="-36" cy="-14" r="10" fill="#ef4444" stroke="white" stroke-width="1.2"/><text x="-36" y="-10" font-family="Inter, sans-serif" font-size="12" font-weight="700" fill="white" text-anchor="middle">+</text>
    <circle cx="-12" cy="-14" r="10" fill="#64748b" stroke="white" stroke-width="1.2"/><text x="-12" y="-10" font-family="Inter, sans-serif" font-size="11" font-weight="700" fill="white" text-anchor="middle">0</text>
    <circle cx="12" cy="-14" r="10" fill="#ef4444" stroke="white" stroke-width="1.2"/><text x="12" y="-10" font-family="Inter, sans-serif" font-size="12" font-weight="700" fill="white" text-anchor="middle">+</text>
    <circle cx="36" cy="-14" r="10" fill="#64748b" stroke="white" stroke-width="1.2"/><text x="36" y="-10" font-family="Inter, sans-serif" font-size="11" font-weight="700" fill="white" text-anchor="middle">0</text>

    <circle cx="-36" cy="14" r="10" fill="#64748b" stroke="white" stroke-width="1.2"/><text x="-36" y="18" font-family="Inter, sans-serif" font-size="11" font-weight="700" fill="white" text-anchor="middle">0</text>
    <circle cx="-12" cy="14" r="10" fill="#ef4444" stroke="white" stroke-width="1.2"/><text x="-12" y="18" font-family="Inter, sans-serif" font-size="12" font-weight="700" fill="white" text-anchor="middle">+</text>
    <circle cx="12" cy="14" r="10" fill="#64748b" stroke="white" stroke-width="1.2"/><text x="12" y="18" font-family="Inter, sans-serif" font-size="11" font-weight="700" fill="white" text-anchor="middle">0</text>
    <circle cx="36" cy="14" r="10" fill="#ef4444" stroke="white" stroke-width="1.2"/><text x="36" y="18" font-family="Inter, sans-serif" font-size="12" font-weight="700" fill="white" text-anchor="middle">+</text>

    <circle cx="-36" cy="42" r="10" fill="#ef4444" stroke="white" stroke-width="1.2"/><text x="-36" y="46" font-family="Inter, sans-serif" font-size="12" font-weight="700" fill="white" text-anchor="middle">+</text>
    <circle cx="-12" cy="42" r="10" fill="#64748b" stroke="white" stroke-width="1.2"/><text x="-12" y="46" font-family="Inter, sans-serif" font-size="11" font-weight="700" fill="white" text-anchor="middle">0</text>
    <circle cx="12" cy="42" r="10" fill="#ef4444" stroke="white" stroke-width="1.2"/><text x="12" y="46" font-family="Inter, sans-serif" font-size="12" font-weight="700" fill="white" text-anchor="middle">+</text>
    <circle cx="36" cy="42" r="10" fill="#64748b" stroke="white" stroke-width="1.2"/><text x="36" y="46" font-family="Inter, sans-serif" font-size="11" font-weight="700" fill="white" text-anchor="middle">0</text>
  </g>
</svg>
