<svg xmlns="http://www.w3.org/2000/svg" viewBox="0 0 980 590">
  <rect width="980" height="560" fill="#f8fafc" rx="18"/>

  <text x="490" y="42" font-family="Inter, sans-serif" font-size="28" font-weight="900" fill="#1e293b" text-anchor="middle">Oxígeno: átomo neutro y anión</text>

  <text x="490" y="82" font-family="Inter, sans-serif" font-size="16" font-weight="800" fill="#1d4ed8" text-anchor="middle">gana 2 electrones</text>
  <path d="M 432 96 L 548 96" stroke="#1d4ed8" stroke-width="3" stroke-linecap="round"/>
  <path d="M 548 96 L 536 89" stroke="#1d4ed8" stroke-width="3" stroke-linecap="round"/>
  <path d="M 548 96 L 536 103" stroke="#1d4ed8" stroke-width="3" stroke-linecap="round"/>

  <g transform="translate(235,0)">
    <text x="0" y="118" font-family="Inter, sans-serif" font-size="25" font-weight="850" fill="#1e293b" text-anchor="middle">Átomo neutro</text>

    <circle cx="0" cy="318" r="116" fill="none" stroke="#cbd5e1" stroke-width="3"/>
    <circle cx="0" cy="318" r="162" fill="none" stroke="#cbd5e1" stroke-width="3"/>

    <circle cx="0" cy="202" r="7" fill="#2563eb" stroke="white" stroke-width="1.6"/>
    <path d="M -2.8 202 L 2.8 202" stroke="white" stroke-width="1.4" stroke-linecap="round"/>
    <circle cx="0" cy="434" r="7" fill="#2563eb" stroke="white" stroke-width="1.6"/>
    <path d="M -2.8 434 L 2.8 434" stroke="white" stroke-width="1.4" stroke-linecap="round"/>

    <circle cx="0" cy="156" r="7" fill="#2563eb" stroke="white" stroke-width="1.6"/>
    <path d="M -2.8 156 L 2.8 156" stroke="white" stroke-width="1.4" stroke-linecap="round"/>
    <circle cx="140.3" cy="237" r="7" fill="#2563eb" stroke="white" stroke-width="1.6"/>
    <path d="M 137.5 237 L 143.1 237" stroke="white" stroke-width="1.4" stroke-linecap="round"/>
    <circle cx="140.3" cy="399" r="7" fill="#2563eb" stroke="white" stroke-width="1.6"/>
    <path d="M 137.5 399 L 143.1 399" stroke="white" stroke-width="1.4" stroke-linecap="round"/>
    <circle cx="0" cy="474" r="7" fill="#2563eb" stroke="white" stroke-width="1.6"/>
    <path d="M -2.8 474 L 2.8 474" stroke="white" stroke-width="1.4" stroke-linecap="round"/>
    <circle cx="-140.3" cy="399" r="7" fill="#2563eb" stroke="white" stroke-width="1.6"/>
    <path d="M -143.1 399 L -137.5 399" stroke="white" stroke-width="1.4" stroke-linecap="round"/>
    <circle cx="-140.3" cy="237" r="7" fill="#2563eb" stroke="white" stroke-width="1.6"/>
    <path d="M -143.1 237 L -137.5 237" stroke="white" stroke-width="1.4" stroke-linecap="round"/>

    <circle cx="0" cy="318" r="68" fill="#fff7ed" stroke="#f97316" stroke-width="3" stroke-dasharray="9 7"/>
    <circle cx="0" cy="318" r="34" fill="#ef4444" stroke="white" stroke-width="2"/>
    <text x="0" y="311" font-family="Inter, sans-serif" font-size="28" font-weight="900" fill="white" text-anchor="middle">8</text>
    <text x="0" y="332" font-family="Inter, sans-serif" font-size="14" font-weight="800" fill="white" text-anchor="middle">p+</text>

    <rect x="-120" y="536" width="240" height="36" rx="15" fill="white" stroke="#e2e8f0" stroke-width="1.5"/>
    <text x="0" y="551" font-family="Inter, sans-serif" font-size="11.5" font-weight="700" fill="#1e293b" text-anchor="middle">8 protones | 8 electrones</text>
    <text x="0" y="565" font-family="Inter, sans-serif" font-size="11.5" font-weight="700" fill="#475569" text-anchor="middle">carga = 0</text>
  </g>

  <g transform="translate(745,0)">
    <text x="0" y="104" font-family="Inter, sans-serif" font-size="25" font-weight="850" fill="#1e293b" text-anchor="middle">Anión</text>

    <circle cx="0" cy="318" r="120" fill="none" stroke="#cbd5e1" stroke-width="3"/>
    <circle cx="0" cy="318" r="194" fill="none" stroke="#cbd5e1" stroke-width="3"/>

    <circle cx="0" cy="198" r="7" fill="#2563eb" stroke="white" stroke-width="1.6"/>
    <path d="M -2.8 198 L 2.8 198" stroke="white" stroke-width="1.4" stroke-linecap="round"/>
    <circle cx="0" cy="438" r="7" fill="#2563eb" stroke="white" stroke-width="1.6"/>
    <path d="M -2.8 438 L 2.8 438" stroke="white" stroke-width="1.4" stroke-linecap="round"/>

    <circle cx="0" cy="124" r="7" fill="#2563eb" stroke="white" stroke-width="1.6"/>
    <path d="M -2.8 124 L 2.8 124" stroke="white" stroke-width="1.4" stroke-linecap="round"/>
    <circle cx="137.2" cy="180.8" r="7" fill="#2563eb" stroke="white" stroke-width="1.6"/>
    <path d="M 134.4 180.8 L 140 180.8" stroke="white" stroke-width="1.4" stroke-linecap="round"/>
    <circle cx="194" cy="318" r="7" fill="#2563eb" stroke="white" stroke-width="1.6"/>
    <path d="M 191.2 318 L 196.8 318" stroke="white" stroke-width="1.4" stroke-linecap="round"/>
    <circle cx="137.2" cy="455.2" r="7" fill="#2563eb" stroke="white" stroke-width="1.6"/>
    <path d="M 134.4 455.2 L 140 455.2" stroke="white" stroke-width="1.4" stroke-linecap="round"/>
    <circle cx="0" cy="500" r="7" fill="#2563eb" stroke="white" stroke-width="1.6"/>
    <path d="M -2.8 500 L 2.8 500" stroke="white" stroke-width="1.4" stroke-linecap="round"/>
    <circle cx="-137.2" cy="455.2" r="7" fill="#2563eb" stroke="white" stroke-width="1.6"/>
    <path d="M -140 455.2 L -134.4 455.2" stroke="white" stroke-width="1.4" stroke-linecap="round"/>
    <circle cx="-194" cy="318" r="7" fill="#2563eb" stroke="white" stroke-width="1.6"/>
    <path d="M -196.8 318 L -191.2 318" stroke="white" stroke-width="1.4" stroke-linecap="round"/>
    <circle cx="-137.2" cy="180.8" r="7" fill="#2563eb" stroke="white" stroke-width="1.6"/>
    <path d="M -140 180.8 L -134.4 180.8" stroke="white" stroke-width="1.4" stroke-linecap="round"/>

    <circle cx="0" cy="318" r="68" fill="#fff7ed" stroke="#f97316" stroke-width="3" stroke-dasharray="9 7"/>
    <circle cx="0" cy="318" r="34" fill="#ef4444" stroke="white" stroke-width="2"/>
    <text x="0" y="311" font-family="Inter, sans-serif" font-size="28" font-weight="900" fill="white" text-anchor="middle">8</text>
    <text x="0" y="332" font-family="Inter, sans-serif" font-size="14" font-weight="800" fill="white" text-anchor="middle">p+</text>

    <rect x="-124" y="536" width="248" height="36" rx="15" fill="white" stroke="#e2e8f0" stroke-width="1.5"/>
    <text x="0" y="551" font-family="Inter, sans-serif" font-size="11.5" font-weight="700" fill="#1e293b" text-anchor="middle">8 protones | 10 electrones</text>
    <text x="0" y="565" font-family="Inter, sans-serif" font-size="11.5" font-weight="700" fill="#475569" text-anchor="middle">carga = 2− | radio mayor</text>
  </g>
</svg>
