<svg xmlns="http://www.w3.org/2000/svg" viewBox="0 0 980 560">
  <rect width="980" height="560" fill="#f8fafc" rx="18"/>

  <text x="490" y="42" font-family="Inter, sans-serif" font-size="28" font-weight="900" fill="#1e293b" text-anchor="middle">Sodio: átomo neutro y catión</text>

  <text x="490" y="82" font-family="Inter, sans-serif" font-size="16" font-weight="800" fill="#dc2626" text-anchor="middle">pierde 1 electrón</text>
  <path d="M 432 96 L 548 96" stroke="#dc2626" stroke-width="3" stroke-linecap="round"/>
  <path d="M 548 96 L 536 89" stroke="#dc2626" stroke-width="3" stroke-linecap="round"/>
  <path d="M 548 96 L 536 103" stroke="#dc2626" stroke-width="3" stroke-linecap="round"/>

  <g transform="translate(235,0)">
    <text x="0" y="118" font-family="Inter, sans-serif" font-size="25" font-weight="850" fill="#1e293b" text-anchor="middle">Átomo neutro</text>

    <circle cx="0" cy="318" r="86" fill="none" stroke="#cbd5e1" stroke-width="3"/>
    <circle cx="0" cy="318" r="132" fill="none" stroke="#cbd5e1" stroke-width="3"/>
    <circle cx="0" cy="318" r="178" fill="none" stroke="#cbd5e1" stroke-width="3"/>

    <circle cx="0" cy="232" r="7" fill="#2563eb" stroke="white" stroke-width="1.6"/>
    <path d="M -2.8 232 L 2.8 232" stroke="white" stroke-width="1.4" stroke-linecap="round"/>
    <circle cx="0" cy="404" r="7" fill="#2563eb" stroke="white" stroke-width="1.6"/>
    <path d="M -2.8 404 L 2.8 404" stroke="white" stroke-width="1.4" stroke-linecap="round"/>

    <circle cx="0" cy="186" r="7" fill="#2563eb" stroke="white" stroke-width="1.6"/>
    <path d="M -2.8 186 L 2.8 186" stroke="white" stroke-width="1.4" stroke-linecap="round"/>
    <circle cx="93.3" cy="224.7" r="7" fill="#2563eb" stroke="white" stroke-width="1.6"/>
    <path d="M 90.5 224.7 L 96.1 224.7" stroke="white" stroke-width="1.4" stroke-linecap="round"/>
    <circle cx="132" cy="318" r="7" fill="#2563eb" stroke="white" stroke-width="1.6"/>
    <path d="M 129.2 318 L 134.8 318" stroke="white" stroke-width="1.4" stroke-linecap="round"/>
    <circle cx="93.3" cy="411.3" r="7" fill="#2563eb" stroke="white" stroke-width="1.6"/>
    <path d="M 90.5 411.3 L 96.1 411.3" stroke="white" stroke-width="1.4" stroke-linecap="round"/>
    <circle cx="0" cy="450" r="7" fill="#2563eb" stroke="white" stroke-width="1.6"/>
    <path d="M -2.8 450 L 2.8 450" stroke="white" stroke-width="1.4" stroke-linecap="round"/>
    <circle cx="-93.3" cy="411.3" r="7" fill="#2563eb" stroke="white" stroke-width="1.6"/>
    <path d="M -96.1 411.3 L -90.5 411.3" stroke="white" stroke-width="1.4" stroke-linecap="round"/>
    <circle cx="-132" cy="318" r="7" fill="#2563eb" stroke="white" stroke-width="1.6"/>
    <path d="M -134.8 318 L -129.2 318" stroke="white" stroke-width="1.4" stroke-linecap="round"/>
    <circle cx="-93.3" cy="224.7" r="7" fill="#2563eb" stroke="white" stroke-width="1.6"/>
    <path d="M -96.1 224.7 L -90.5 224.7" stroke="white" stroke-width="1.4" stroke-linecap="round"/>

    <circle cx="0" cy="140" r="7" fill="#2563eb" stroke="white" stroke-width="1.6"/>
    <path d="M -2.8 140 L 2.8 140" stroke="white" stroke-width="1.4" stroke-linecap="round"/>

    <circle cx="0" cy="318" r="68" fill="#fff7ed" stroke="#f97316" stroke-width="3" stroke-dasharray="9 7"/>
    <circle cx="0" cy="318" r="34" fill="#ef4444" stroke="white" stroke-width="2"/>
    <text x="0" y="311" font-family="Inter, sans-serif" font-size="28" font-weight="900" fill="white" text-anchor="middle">11</text>
    <text x="0" y="332" font-family="Inter, sans-serif" font-size="14" font-weight="800" fill="white" text-anchor="middle">p+</text>

    <rect x="-122" y="504" width="244" height="36" rx="15" fill="white" stroke="#e2e8f0" stroke-width="1.5"/>
    <text x="0" y="519" font-family="Inter, sans-serif" font-size="11.5" font-weight="700" fill="#1e293b" text-anchor="middle">11 protones | 11 electrones</text>
    <text x="0" y="533" font-family="Inter, sans-serif" font-size="11.5" font-weight="700" fill="#475569" text-anchor="middle">carga = 0</text>
  </g>

  <g transform="translate(745,0)">
    <text x="0" y="104" font-family="Inter, sans-serif" font-size="25" font-weight="850" fill="#1e293b" text-anchor="middle">Catión</text>

    <circle cx="0" cy="318" r="86" fill="none" stroke="#cbd5e1" stroke-width="3"/>
    <circle cx="0" cy="318" r="128" fill="none" stroke="#cbd5e1" stroke-width="3"/>

    <circle cx="0" cy="232" r="7" fill="#2563eb" stroke="white" stroke-width="1.6"/>
    <path d="M -2.8 232 L 2.8 232" stroke="white" stroke-width="1.4" stroke-linecap="round"/>
    <circle cx="0" cy="404" r="7" fill="#2563eb" stroke="white" stroke-width="1.6"/>
    <path d="M -2.8 404 L 2.8 404" stroke="white" stroke-width="1.4" stroke-linecap="round"/>

    <circle cx="0" cy="190" r="7" fill="#2563eb" stroke="white" stroke-width="1.6"/>
    <path d="M -2.8 190 L 2.8 190" stroke="white" stroke-width="1.4" stroke-linecap="round"/>
    <circle cx="90.5" cy="227.5" r="7" fill="#2563eb" stroke="white" stroke-width="1.6"/>
    <path d="M 87.7 227.5 L 93.3 227.5" stroke="white" stroke-width="1.4" stroke-linecap="round"/>
    <circle cx="128" cy="318" r="7" fill="#2563eb" stroke="white" stroke-width="1.6"/>
    <path d="M 125.2 318 L 130.8 318" stroke="white" stroke-width="1.4" stroke-linecap="round"/>
    <circle cx="90.5" cy="408.5" r="7" fill="#2563eb" stroke="white" stroke-width="1.6"/>
    <path d="M 87.7 408.5 L 93.3 408.5" stroke="white" stroke-width="1.4" stroke-linecap="round"/>
    <circle cx="0" cy="446" r="7" fill="#2563eb" stroke="white" stroke-width="1.6"/>
    <path d="M -2.8 446 L 2.8 446" stroke="white" stroke-width="1.4" stroke-linecap="round"/>
    <circle cx="-90.5" cy="408.5" r="7" fill="#2563eb" stroke="white" stroke-width="1.6"/>
    <path d="M -93.3 408.5 L -87.7 408.5" stroke="white" stroke-width="1.4" stroke-linecap="round"/>
    <circle cx="-128" cy="318" r="7" fill="#2563eb" stroke="white" stroke-width="1.6"/>
    <path d="M -130.8 318 L -125.2 318" stroke="white" stroke-width="1.4" stroke-linecap="round"/>
    <circle cx="-90.5" cy="227.5" r="7" fill="#2563eb" stroke="white" stroke-width="1.6"/>
    <path d="M -93.3 227.5 L -87.7 227.5" stroke="white" stroke-width="1.4" stroke-linecap="round"/>

    <circle cx="0" cy="318" r="68" fill="#fff7ed" stroke="#f97316" stroke-width="3" stroke-dasharray="9 7"/>
    <circle cx="0" cy="318" r="34" fill="#ef4444" stroke="white" stroke-width="2"/>
    <text x="0" y="311" font-family="Inter, sans-serif" font-size="28" font-weight="900" fill="white" text-anchor="middle">11</text>
    <text x="0" y="332" font-family="Inter, sans-serif" font-size="14" font-weight="800" fill="white" text-anchor="middle">p+</text>

    <rect x="-124" y="504" width="248" height="36" rx="15" fill="white" stroke="#e2e8f0" stroke-width="1.5"/>
    <text x="0" y="519" font-family="Inter, sans-serif" font-size="11.5" font-weight="700" fill="#1e293b" text-anchor="middle">11 protones | 10 electrones</text>
    <text x="0" y="533" font-family="Inter, sans-serif" font-size="11.5" font-weight="700" fill="#475569" text-anchor="middle">carga = 1+ | radio menor</text>
  </g>
</svg>
