<svg xmlns="http://www.w3.org/2000/svg" viewBox="0 0 600 450" 
style="max-width: 100%; height: auto; font-family: Inter, system-ui, sans-serif;">

  <style>
    .wave-path {
      stroke-dasharray: 3000;
      stroke-dashoffset: 0;
      animation: none;
    }
    .marker-group { opacity: 1; animation: none; }
    .label-group { opacity: 1; animation: none; }
    .annotation-group { opacity: 1; animation: none; }
    @keyframes drawWave { to { stroke-dashoffset: 0; } }
    @keyframes fadeIn { to { opacity: 1; } }
  </style>

  <rect width="600" height="450" fill="#ffffff" rx="8"/>
  <text x="300.0" y="25" text-anchor="middle" font-size="16" font-weight="bold" fill="#1e293b">Graficar y = 2x - 1 (Método Tabla)</text>
  <g class="grid">
    <line x1="50.0" y1="50" x2="50.0" y2="400" stroke="#e2e8f0" stroke-dasharray="4,4"/>
    <line x1="121.4" y1="50" x2="121.4" y2="400" stroke="#e2e8f0" stroke-dasharray="4,4"/>
    <line x1="192.9" y1="50" x2="192.9" y2="400" stroke="#e2e8f0" stroke-dasharray="4,4"/>
    <line x1="264.3" y1="50" x2="264.3" y2="400" stroke="#e2e8f0" stroke-dasharray="4,4"/>
    <line x1="335.7" y1="50" x2="335.7" y2="400" stroke="#e2e8f0" stroke-dasharray="4,4"/>
    <line x1="407.1" y1="50" x2="407.1" y2="400" stroke="#e2e8f0" stroke-dasharray="4,4"/>
    <line x1="478.6" y1="50" x2="478.6" y2="400" stroke="#e2e8f0" stroke-dasharray="4,4"/>
    <line x1="550.0" y1="50" x2="550.0" y2="400" stroke="#e2e8f0" stroke-dasharray="4,4"/>
    <line x1="50" y1="400.0" x2="550" y2="400.0" stroke="#e2e8f0" stroke-dasharray="4,4"/>
    <line x1="50" y1="365.0" x2="550" y2="365.0" stroke="#e2e8f0" stroke-dasharray="4,4"/>
    <line x1="50" y1="330.0" x2="550" y2="330.0" stroke="#e2e8f0" stroke-dasharray="4,4"/>
    <line x1="50" y1="295.0" x2="550" y2="295.0" stroke="#e2e8f0" stroke-dasharray="4,4"/>
    <line x1="50" y1="260.0" x2="550" y2="260.0" stroke="#e2e8f0" stroke-dasharray="4,4"/>
    <line x1="50" y1="190.0" x2="550" y2="190.0" stroke="#e2e8f0" stroke-dasharray="4,4"/>
    <line x1="50" y1="155.0" x2="550" y2="155.0" stroke="#e2e8f0" stroke-dasharray="4,4"/>
    <line x1="50" y1="120.0" x2="550" y2="120.0" stroke="#e2e8f0" stroke-dasharray="4,4"/>
    <line x1="50" y1="85.0" x2="550" y2="85.0" stroke="#e2e8f0" stroke-dasharray="4,4"/>
    <line x1="50" y1="50.0" x2="550" y2="50.0" stroke="#e2e8f0" stroke-dasharray="4,4"/>
  </g>
  <g class="axes">
    <line x1="50" y1="225.0" x2="550" y2="225.0" stroke="#374151" stroke-width="2"/>
    <polygon points="550,225.0 542,221.0 542,229.0" fill="#374151"/>
    <line x1="264.3" y1="50" x2="264.3" y2="400" stroke="#374151" stroke-width="2"/>
    <polygon points="264.3,50 260.3,58 268.3,58" fill="#374151"/>
    <text x="550" y="215.0" text-anchor="end" font-size="14" font-weight="bold" fill="#374151">x</text>
    <text x="254.3" y="50" text-anchor="end" font-size="14" font-weight="bold" fill="#374151">y</text>
    <line x1="50.0" y1="221.0" x2="50.0" y2="229.0" stroke="#374151" stroke-width="1.5"/>
    <text x="50.0" y="245.0" text-anchor="middle" font-size="12" fill="#374151">-3</text>
    <line x1="121.4" y1="221.0" x2="121.4" y2="229.0" stroke="#374151" stroke-width="1.5"/>
    <text x="121.4" y="245.0" text-anchor="middle" font-size="12" fill="#374151">-2</text>
    <line x1="192.9" y1="221.0" x2="192.9" y2="229.0" stroke="#374151" stroke-width="1.5"/>
    <text x="192.9" y="245.0" text-anchor="middle" font-size="12" fill="#374151">-1</text>
    <line x1="335.7" y1="221.0" x2="335.7" y2="229.0" stroke="#374151" stroke-width="1.5"/>
    <text x="335.7" y="245.0" text-anchor="middle" font-size="12" fill="#374151">1</text>
    <line x1="407.1" y1="221.0" x2="407.1" y2="229.0" stroke="#374151" stroke-width="1.5"/>
    <text x="407.1" y="245.0" text-anchor="middle" font-size="12" fill="#374151">2</text>
    <line x1="478.6" y1="221.0" x2="478.6" y2="229.0" stroke="#374151" stroke-width="1.5"/>
    <text x="478.6" y="245.0" text-anchor="middle" font-size="12" fill="#374151">3</text>
    <line x1="550.0" y1="221.0" x2="550.0" y2="229.0" stroke="#374151" stroke-width="1.5"/>
    <text x="550.0" y="245.0" text-anchor="middle" font-size="12" fill="#374151">4</text>
    <line x1="260.3" y1="400.0" x2="268.3" y2="400.0" stroke="#374151" stroke-width="1.5"/>
    <text x="252.3" y="404.0" text-anchor="end" font-size="12" fill="#374151">-5</text>
    <line x1="260.3" y1="365.0" x2="268.3" y2="365.0" stroke="#374151" stroke-width="1.5"/>
    <text x="252.3" y="369.0" text-anchor="end" font-size="12" fill="#374151">-4</text>
    <line x1="260.3" y1="330.0" x2="268.3" y2="330.0" stroke="#374151" stroke-width="1.5"/>
    <text x="252.3" y="334.0" text-anchor="end" font-size="12" fill="#374151">-3</text>
    <line x1="260.3" y1="295.0" x2="268.3" y2="295.0" stroke="#374151" stroke-width="1.5"/>
    <text x="252.3" y="299.0" text-anchor="end" font-size="12" fill="#374151">-2</text>
    <line x1="260.3" y1="260.0" x2="268.3" y2="260.0" stroke="#374151" stroke-width="1.5"/>
    <text x="252.3" y="264.0" text-anchor="end" font-size="12" fill="#374151">-1</text>
    <line x1="260.3" y1="190.0" x2="268.3" y2="190.0" stroke="#374151" stroke-width="1.5"/>
    <text x="252.3" y="194.0" text-anchor="end" font-size="12" fill="#374151">1</text>
    <line x1="260.3" y1="155.0" x2="268.3" y2="155.0" stroke="#374151" stroke-width="1.5"/>
    <text x="252.3" y="159.0" text-anchor="end" font-size="12" fill="#374151">2</text>
    <line x1="260.3" y1="120.0" x2="268.3" y2="120.0" stroke="#374151" stroke-width="1.5"/>
    <text x="252.3" y="124.0" text-anchor="end" font-size="12" fill="#374151">3</text>
    <line x1="260.3" y1="85.0" x2="268.3" y2="85.0" stroke="#374151" stroke-width="1.5"/>
    <text x="252.3" y="89.0" text-anchor="end" font-size="12" fill="#374151">4</text>
    <line x1="260.3" y1="50.0" x2="268.3" y2="50.0" stroke="#374151" stroke-width="1.5"/>
    <text x="252.3" y="54.0" text-anchor="end" font-size="12" fill="#374151">5</text>
  </g>
  <path id="func-0" class="wave-path" d="M 122.50 398.95 L 125.00 396.50 L 127.50 394.05 L 130.00 391.60 L 132.50 389.15 L 135.00 386.70 L 137.50 384.25 L 140.00 381.80 L 142.50 379.35 L 145.00 376.90 L 147.50 374.45 L 150.00 372.00 L 152.50 369.55 L 155.00 367.10 L 157.50 364.65 L 160.00 362.20 L 162.50 359.75 L 165.00 357.30 L 167.50 354.85 L 170.00 352.40 L 172.50 349.95 L 175.00 347.50 L 177.50 345.05 L 180.00 342.60 L 182.50 340.15 L 185.00 337.70 L 187.50 335.25 L 190.00 332.80 L 192.50 330.35 L 195.00 327.90 L 197.50 325.45 L 200.00 323.00 L 202.50 320.55 L 205.00 318.10 L 207.50 315.65 L 210.00 313.20 L 212.50 310.75 L 215.00 308.30 L 217.50 305.85 L 220.00 303.40 L 222.50 300.95 L 225.00 298.50 L 227.50 296.05 L 230.00 293.60 L 232.50 291.15 L 235.00 288.70 L 237.50 286.25 L 240.00 283.80 L 242.50 281.35 L 245.00 278.90 L 247.50 276.45 L 250.00 274.00 L 252.50 271.55 L 255.00 269.10 L 257.50 266.65 L 260.00 264.20 L 262.50 261.75 L 265.00 259.30 L 267.50 256.85 L 270.00 254.40 L 272.50 251.95 L 275.00 249.50 L 277.50 247.05 L 280.00 244.60 L 282.50 242.15 L 285.00 239.70 L 287.50 237.25 L 290.00 234.80 L 292.50 232.35 L 295.00 229.90 L 297.50 227.45 L 300.00 225.00 L 302.50 222.55 L 305.00 220.10 L 307.50 217.65 L 310.00 215.20 L 312.50 212.75 L 315.00 210.30 L 317.50 207.85 L 320.00 205.40 L 322.50 202.95 L 325.00 200.50 L 327.50 198.05 L 330.00 195.60 L 332.50 193.15 L 335.00 190.70 L 337.50 188.25 L 340.00 185.80 L 342.50 183.35 L 345.00 180.90 L 347.50 178.45 L 350.00 176.00 L 352.50 173.55 L 355.00 171.10 L 357.50 168.65 L 360.00 166.20 L 362.50 163.75 L 365.00 161.30 L 367.50 158.85 L 370.00 156.40 L 372.50 153.95 L 375.00 151.50 L 377.50 149.05 L 380.00 146.60 L 382.50 144.15 L 385.00 141.70 L 387.50 139.25 L 390.00 136.80 L 392.50 134.35 L 395.00 131.90 L 397.50 129.45 L 400.00 127.00 L 402.50 124.55 L 405.00 122.10 L 407.50 119.65 L 410.00 117.20 L 412.50 114.75 L 415.00 112.30 L 417.50 109.85 L 420.00 107.40 L 422.50 104.95 L 425.00 102.50 L 427.50 100.05 L 430.00 97.60 L 432.50 95.15 L 435.00 92.70 L 437.50 90.25 L 440.00 87.80 L 442.50 85.35 L 445.00 82.90 L 447.50 80.45 L 450.00 78.00 L 452.50 75.55 L 455.00 73.10 L 457.50 70.65 L 460.00 68.20 L 462.50 65.75 L 465.00 63.30 L 467.50 60.85 L 470.00 58.40 L 472.50 55.95 L 475.00 53.50 L 477.50 51.05" fill="none" stroke="#3b82f6" stroke-width="3" stroke-linecap="round" stroke-linejoin="round"/>
  <g class="marker-group">
    <circle cx="192.9" cy="330.0" r="6" fill="#ef4444" stroke="white" stroke-width="2"/>
    <circle cx="264.3" cy="260.0" r="6" fill="#ef4444" stroke="white" stroke-width="2"/>
    <circle cx="335.7" cy="190.0" r="6" fill="#ef4444" stroke="white" stroke-width="2"/>
    <circle cx="407.1" cy="120.0" r="6" fill="#ef4444" stroke="white" stroke-width="2"/>
  </g>
  <g class="label-group">
    <rect x="127.85714285714286" y="322.0" width="100" height="16" fill="white" fill-opacity="0.9" rx="3"/>
    <text x="177.9" y="334.0" text-anchor="end" font-size="11" font-weight="bold" fill="#ef4444">(-1, -3)</text>
    <rect x="199.28571428571428" y="252.0" width="100" height="16" fill="white" fill-opacity="0.9" rx="3"/>
    <text x="249.3" y="264.0" text-anchor="end" font-size="11" font-weight="bold" fill="#ef4444">(0, -1)</text>
    <rect x="300.7142857142857" y="182.0" width="100" height="16" fill="white" fill-opacity="0.9" rx="3"/>
    <text x="350.7" y="194.0" text-anchor="start" font-size="11" font-weight="bold" fill="#ef4444">(1, 1)</text>
    <rect x="372.14285714285717" y="112.0" width="100" height="16" fill="white" fill-opacity="0.9" rx="3"/>
    <text x="422.1" y="124.0" text-anchor="start" font-size="11" font-weight="bold" fill="#ef4444">(2, 3)</text>
  </g>
</svg>