<svg xmlns="http://www.w3.org/2000/svg" viewBox="0 0 600 450" 
style="max-width: 100%; height: auto; font-family: Inter, system-ui, sans-serif;">

  <style>
    .wave-path {
      stroke-dasharray: 3000;
      stroke-dashoffset: 0;
      animation: none;
    }
    .marker-group { opacity: 1; animation: none; }
    .label-group { opacity: 1; animation: none; }
    .annotation-group { opacity: 1; animation: none; }
    @keyframes drawWave { to { stroke-dashoffset: 0; } }
    @keyframes fadeIn { to { opacity: 1; } }
  </style>

  <rect width="600" height="450" fill="#ffffff" rx="8"/>
  <text x="300.0" y="25" text-anchor="middle" font-size="16" font-weight="bold" fill="#1e293b">Graficar y = (2/3)x + 1 (Método Pendiente)</text>
  <g class="grid">
    <line x1="50.0" y1="50" x2="50.0" y2="400" stroke="#e2e8f0" stroke-dasharray="4,4"/>
    <line x1="121.4" y1="50" x2="121.4" y2="400" stroke="#e2e8f0" stroke-dasharray="4,4"/>
    <line x1="192.9" y1="50" x2="192.9" y2="400" stroke="#e2e8f0" stroke-dasharray="4,4"/>
    <line x1="264.3" y1="50" x2="264.3" y2="400" stroke="#e2e8f0" stroke-dasharray="4,4"/>
    <line x1="335.7" y1="50" x2="335.7" y2="400" stroke="#e2e8f0" stroke-dasharray="4,4"/>
    <line x1="407.1" y1="50" x2="407.1" y2="400" stroke="#e2e8f0" stroke-dasharray="4,4"/>
    <line x1="478.6" y1="50" x2="478.6" y2="400" stroke="#e2e8f0" stroke-dasharray="4,4"/>
    <line x1="550.0" y1="50" x2="550.0" y2="400" stroke="#e2e8f0" stroke-dasharray="4,4"/>
    <line x1="50" y1="400.0" x2="550" y2="400.0" stroke="#e2e8f0" stroke-dasharray="4,4"/>
    <line x1="50" y1="283.3" x2="550" y2="283.3" stroke="#e2e8f0" stroke-dasharray="4,4"/>
    <line x1="50" y1="225.0" x2="550" y2="225.0" stroke="#e2e8f0" stroke-dasharray="4,4"/>
    <line x1="50" y1="166.7" x2="550" y2="166.7" stroke="#e2e8f0" stroke-dasharray="4,4"/>
    <line x1="50" y1="108.3" x2="550" y2="108.3" stroke="#e2e8f0" stroke-dasharray="4,4"/>
    <line x1="50" y1="50.0" x2="550" y2="50.0" stroke="#e2e8f0" stroke-dasharray="4,4"/>
  </g>
  <g class="axes">
    <line x1="50" y1="341.7" x2="550" y2="341.7" stroke="#374151" stroke-width="2"/>
    <polygon points="550,341.7 542,337.7 542,345.7" fill="#374151"/>
    <line x1="192.9" y1="50" x2="192.9" y2="400" stroke="#374151" stroke-width="2"/>
    <polygon points="192.9,50 188.9,58 196.9,58" fill="#374151"/>
    <text x="550" y="331.7" text-anchor="end" font-size="14" font-weight="bold" fill="#374151">x</text>
    <text x="182.9" y="50" text-anchor="end" font-size="14" font-weight="bold" fill="#374151">y</text>
    <line x1="50.0" y1="337.7" x2="50.0" y2="345.7" stroke="#374151" stroke-width="1.5"/>
    <text x="50.0" y="361.7" text-anchor="middle" font-size="12" fill="#374151">-2</text>
    <line x1="121.4" y1="337.7" x2="121.4" y2="345.7" stroke="#374151" stroke-width="1.5"/>
    <text x="121.4" y="361.7" text-anchor="middle" font-size="12" fill="#374151">-1</text>
    <line x1="264.3" y1="337.7" x2="264.3" y2="345.7" stroke="#374151" stroke-width="1.5"/>
    <text x="264.3" y="361.7" text-anchor="middle" font-size="12" fill="#374151">1</text>
    <line x1="335.7" y1="337.7" x2="335.7" y2="345.7" stroke="#374151" stroke-width="1.5"/>
    <text x="335.7" y="361.7" text-anchor="middle" font-size="12" fill="#374151">2</text>
    <line x1="407.1" y1="337.7" x2="407.1" y2="345.7" stroke="#374151" stroke-width="1.5"/>
    <text x="407.1" y="361.7" text-anchor="middle" font-size="12" fill="#374151">3</text>
    <line x1="478.6" y1="337.7" x2="478.6" y2="345.7" stroke="#374151" stroke-width="1.5"/>
    <text x="478.6" y="361.7" text-anchor="middle" font-size="12" fill="#374151">4</text>
    <line x1="550.0" y1="337.7" x2="550.0" y2="345.7" stroke="#374151" stroke-width="1.5"/>
    <text x="550.0" y="361.7" text-anchor="middle" font-size="12" fill="#374151">5</text>
    <line x1="188.9" y1="400.0" x2="196.9" y2="400.0" stroke="#374151" stroke-width="1.5"/>
    <text x="180.9" y="404.0" text-anchor="end" font-size="12" fill="#374151">-1</text>
    <line x1="188.9" y1="283.3" x2="196.9" y2="283.3" stroke="#374151" stroke-width="1.5"/>
    <text x="180.9" y="287.3" text-anchor="end" font-size="12" fill="#374151">1</text>
    <line x1="188.9" y1="225.0" x2="196.9" y2="225.0" stroke="#374151" stroke-width="1.5"/>
    <text x="180.9" y="229.0" text-anchor="end" font-size="12" fill="#374151">2</text>
    <line x1="188.9" y1="166.7" x2="196.9" y2="166.7" stroke="#374151" stroke-width="1.5"/>
    <text x="180.9" y="170.7" text-anchor="end" font-size="12" fill="#374151">3</text>
    <line x1="188.9" y1="108.3" x2="196.9" y2="108.3" stroke="#374151" stroke-width="1.5"/>
    <text x="180.9" y="112.3" text-anchor="end" font-size="12" fill="#374151">4</text>
    <line x1="188.9" y1="50.0" x2="196.9" y2="50.0" stroke="#374151" stroke-width="1.5"/>
    <text x="180.9" y="54.0" text-anchor="end" font-size="12" fill="#374151">5</text>
  </g>
  <path id="func-0" class="wave-path" d="M 50.00 361.11 L 52.50 359.75 L 55.00 358.39 L 57.50 357.03 L 60.00 355.67 L 62.50 354.31 L 65.00 352.94 L 67.50 351.58 L 70.00 350.22 L 72.50 348.86 L 75.00 347.50 L 77.50 346.14 L 80.00 344.78 L 82.50 343.42 L 85.00 342.06 L 87.50 340.69 L 90.00 339.33 L 92.50 337.97 L 95.00 336.61 L 97.50 335.25 L 100.00 333.89 L 102.50 332.53 L 105.00 331.17 L 107.50 329.81 L 110.00 328.44 L 112.50 327.08 L 115.00 325.72 L 117.50 324.36 L 120.00 323.00 L 122.50 321.64 L 125.00 320.28 L 127.50 318.92 L 130.00 317.56 L 132.50 316.19 L 135.00 314.83 L 137.50 313.47 L 140.00 312.11 L 142.50 310.75 L 145.00 309.39 L 147.50 308.03 L 150.00 306.67 L 152.50 305.31 L 155.00 303.94 L 157.50 302.58 L 160.00 301.22 L 162.50 299.86 L 165.00 298.50 L 167.50 297.14 L 170.00 295.78 L 172.50 294.42 L 175.00 293.06 L 177.50 291.69 L 180.00 290.33 L 182.50 288.97 L 185.00 287.61 L 187.50 286.25 L 190.00 284.89 L 192.50 283.53 L 195.00 282.17 L 197.50 280.81 L 200.00 279.44 L 202.50 278.08 L 205.00 276.72 L 207.50 275.36 L 210.00 274.00 L 212.50 272.64 L 215.00 271.28 L 217.50 269.92 L 220.00 268.56 L 222.50 267.19 L 225.00 265.83 L 227.50 264.47 L 230.00 263.11 L 232.50 261.75 L 235.00 260.39 L 237.50 259.03 L 240.00 257.67 L 242.50 256.31 L 245.00 254.94 L 247.50 253.58 L 250.00 252.22 L 252.50 250.86 L 255.00 249.50 L 257.50 248.14 L 260.00 246.78 L 262.50 245.42 L 265.00 244.06 L 267.50 242.69 L 270.00 241.33 L 272.50 239.97 L 275.00 238.61 L 277.50 237.25 L 280.00 235.89 L 282.50 234.53 L 285.00 233.17 L 287.50 231.81 L 290.00 230.44 L 292.50 229.08 L 295.00 227.72 L 297.50 226.36 L 300.00 225.00 L 302.50 223.64 L 305.00 222.28 L 307.50 220.92 L 310.00 219.56 L 312.50 218.19 L 315.00 216.83 L 317.50 215.47 L 320.00 214.11 L 322.50 212.75 L 325.00 211.39 L 327.50 210.03 L 330.00 208.67 L 332.50 207.31 L 335.00 205.94 L 337.50 204.58 L 340.00 203.22 L 342.50 201.86 L 345.00 200.50 L 347.50 199.14 L 350.00 197.78 L 352.50 196.42 L 355.00 195.06 L 357.50 193.69 L 360.00 192.33 L 362.50 190.97 L 365.00 189.61 L 367.50 188.25 L 370.00 186.89 L 372.50 185.53 L 375.00 184.17 L 377.50 182.81 L 380.00 181.44 L 382.50 180.08 L 385.00 178.72 L 387.50 177.36 L 390.00 176.00 L 392.50 174.64 L 395.00 173.28 L 397.50 171.92 L 400.00 170.56 L 402.50 169.19 L 405.00 167.83 L 407.50 166.47 L 410.00 165.11 L 412.50 163.75 L 415.00 162.39 L 417.50 161.03 L 420.00 159.67 L 422.50 158.31 L 425.00 156.94 L 427.50 155.58 L 430.00 154.22 L 432.50 152.86 L 435.00 151.50 L 437.50 150.14 L 440.00 148.78 L 442.50 147.42 L 445.00 146.06 L 447.50 144.69 L 450.00 143.33 L 452.50 141.97 L 455.00 140.61 L 457.50 139.25 L 460.00 137.89 L 462.50 136.53 L 465.00 135.17 L 467.50 133.81 L 470.00 132.44 L 472.50 131.08 L 475.00 129.72 L 477.50 128.36 L 480.00 127.00 L 482.50 125.64 L 485.00 124.28 L 487.50 122.92 L 490.00 121.56 L 492.50 120.19 L 495.00 118.83 L 497.50 117.47 L 500.00 116.11 L 502.50 114.75 L 505.00 113.39 L 507.50 112.03 L 510.00 110.67 L 512.50 109.31 L 515.00 107.94 L 517.50 106.58 L 520.00 105.22 L 522.50 103.86 L 525.00 102.50 L 527.50 101.14 L 530.00 99.78 L 532.50 98.42 L 535.00 97.06 L 537.50 95.69 L 540.00 94.33 L 542.50 92.97 L 545.00 91.61 L 547.50 90.25 L 550.00 88.89" fill="none" stroke="#3b82f6" stroke-width="3" stroke-linecap="round" stroke-linejoin="round"/>
  <g class="marker-group">
    <circle cx="192.9" cy="283.3" r="6" fill="#22c55e" stroke="white" stroke-width="2"/>
    <circle cx="407.1" cy="166.7" r="6" fill="#ef4444" stroke="white" stroke-width="2"/>
  </g>
  <g class="label-group">
    <rect x="127.85714285714286" y="275.3333333333333" width="100" height="16" fill="white" fill-opacity="0.9" rx="3"/>
    <text x="177.9" y="287.3" text-anchor="end" font-size="11" font-weight="bold" fill="#22c55e">b = 1</text>
    <rect x="372.14285714285717" y="158.66666666666666" width="100" height="16" fill="white" fill-opacity="0.9" rx="3"/>
    <text x="422.1" y="170.7" text-anchor="start" font-size="11" font-weight="bold" fill="#ef4444">(3, 3)</text>
  </g>
  <g class="annotation-group">
    <line x1="192.9" y1="283.3" x2="407.1" y2="283.3" stroke="#64748b" stroke-width="2.5"/>
    <polygon points="407.1,283.3 397.9,287.2 397.9,279.4" fill="#64748b"/>
    <rect x="278.0" y="261.3333333333333" width="44" height="14" rx="3" fill="white" fill-opacity="0.9"/>
    <text x="300.0" y="271.3" text-anchor="middle" font-size="11" font-weight="bold" fill="#64748b">+3</text>
    <line x1="407.1" y1="283.3" x2="407.1" y2="166.7" stroke="#8b5cf6" stroke-width="2.5"/>
    <polygon points="407.1,166.7 411.0,175.9 403.2,175.9" fill="#8b5cf6"/>
    <rect x="385.14285714285717" y="203.0" width="44" height="14" rx="3" fill="white" fill-opacity="0.9"/>
    <text x="407.1" y="213.0" text-anchor="middle" font-size="11" font-weight="bold" fill="#8b5cf6">+2</text>
  </g>
</svg>