<svg xmlns="http://www.w3.org/2000/svg" viewBox="0 0 600 450" 
style="max-width: 100%; height: auto; font-family: Inter, system-ui, sans-serif;">

  <style>
    .wave-path {
      stroke-dasharray: 3000;
      stroke-dashoffset: 0;
      animation: none;
    }
    .marker-group { opacity: 1; animation: none; }
    .label-group { opacity: 1; animation: none; }
    .annotation-group { opacity: 1; animation: none; }
    @keyframes drawWave { to { stroke-dashoffset: 0; } }
    @keyframes fadeIn { to { opacity: 1; } }
  </style>

  <rect width="600" height="450" fill="#ffffff" rx="8"/>
  <text x="300.0" y="25" text-anchor="middle" font-size="16" font-weight="bold" fill="#1e293b">Graficar y = -2x + 5 (Método Pendiente)</text>
  <g class="grid">
    <line x1="50.0" y1="50" x2="50.0" y2="400" stroke="#e2e8f0" stroke-dasharray="4,4"/>
    <line x1="150.0" y1="50" x2="150.0" y2="400" stroke="#e2e8f0" stroke-dasharray="4,4"/>
    <line x1="250.0" y1="50" x2="250.0" y2="400" stroke="#e2e8f0" stroke-dasharray="4,4"/>
    <line x1="350.0" y1="50" x2="350.0" y2="400" stroke="#e2e8f0" stroke-dasharray="4,4"/>
    <line x1="450.0" y1="50" x2="450.0" y2="400" stroke="#e2e8f0" stroke-dasharray="4,4"/>
    <line x1="550.0" y1="50" x2="550.0" y2="400" stroke="#e2e8f0" stroke-dasharray="4,4"/>
    <line x1="50" y1="400.0" x2="550" y2="400.0" stroke="#e2e8f0" stroke-dasharray="4,4"/>
    <line x1="50" y1="361.1" x2="550" y2="361.1" stroke="#e2e8f0" stroke-dasharray="4,4"/>
    <line x1="50" y1="283.3" x2="550" y2="283.3" stroke="#e2e8f0" stroke-dasharray="4,4"/>
    <line x1="50" y1="244.4" x2="550" y2="244.4" stroke="#e2e8f0" stroke-dasharray="4,4"/>
    <line x1="50" y1="205.6" x2="550" y2="205.6" stroke="#e2e8f0" stroke-dasharray="4,4"/>
    <line x1="50" y1="166.7" x2="550" y2="166.7" stroke="#e2e8f0" stroke-dasharray="4,4"/>
    <line x1="50" y1="127.8" x2="550" y2="127.8" stroke="#e2e8f0" stroke-dasharray="4,4"/>
    <line x1="50" y1="88.9" x2="550" y2="88.9" stroke="#e2e8f0" stroke-dasharray="4,4"/>
    <line x1="50" y1="50.0" x2="550" y2="50.0" stroke="#e2e8f0" stroke-dasharray="4,4"/>
  </g>
  <g class="axes">
    <line x1="50" y1="322.2" x2="550" y2="322.2" stroke="#374151" stroke-width="2"/>
    <polygon points="550,322.2 542,318.2 542,326.2" fill="#374151"/>
    <line x1="150.0" y1="50" x2="150.0" y2="400" stroke="#374151" stroke-width="2"/>
    <polygon points="150.0,50 146.0,58 154.0,58" fill="#374151"/>
    <text x="550" y="312.2" text-anchor="end" font-size="14" font-weight="bold" fill="#374151">x</text>
    <text x="140.0" y="50" text-anchor="end" font-size="14" font-weight="bold" fill="#374151">y</text>
    <line x1="50.0" y1="318.2" x2="50.0" y2="326.2" stroke="#374151" stroke-width="1.5"/>
    <text x="50.0" y="342.2" text-anchor="middle" font-size="12" fill="#374151">-1</text>
    <line x1="250.0" y1="318.2" x2="250.0" y2="326.2" stroke="#374151" stroke-width="1.5"/>
    <text x="250.0" y="342.2" text-anchor="middle" font-size="12" fill="#374151">1</text>
    <line x1="350.0" y1="318.2" x2="350.0" y2="326.2" stroke="#374151" stroke-width="1.5"/>
    <text x="350.0" y="342.2" text-anchor="middle" font-size="12" fill="#374151">2</text>
    <line x1="450.0" y1="318.2" x2="450.0" y2="326.2" stroke="#374151" stroke-width="1.5"/>
    <text x="450.0" y="342.2" text-anchor="middle" font-size="12" fill="#374151">3</text>
    <line x1="550.0" y1="318.2" x2="550.0" y2="326.2" stroke="#374151" stroke-width="1.5"/>
    <text x="550.0" y="342.2" text-anchor="middle" font-size="12" fill="#374151">4</text>
    <line x1="146.0" y1="400.0" x2="154.0" y2="400.0" stroke="#374151" stroke-width="1.5"/>
    <text x="138.0" y="404.0" text-anchor="end" font-size="12" fill="#374151">-2</text>
    <line x1="146.0" y1="361.1" x2="154.0" y2="361.1" stroke="#374151" stroke-width="1.5"/>
    <text x="138.0" y="365.1" text-anchor="end" font-size="12" fill="#374151">-1</text>
    <line x1="146.0" y1="283.3" x2="154.0" y2="283.3" stroke="#374151" stroke-width="1.5"/>
    <text x="138.0" y="287.3" text-anchor="end" font-size="12" fill="#374151">1</text>
    <line x1="146.0" y1="244.4" x2="154.0" y2="244.4" stroke="#374151" stroke-width="1.5"/>
    <text x="138.0" y="248.4" text-anchor="end" font-size="12" fill="#374151">2</text>
    <line x1="146.0" y1="205.6" x2="154.0" y2="205.6" stroke="#374151" stroke-width="1.5"/>
    <text x="138.0" y="209.6" text-anchor="end" font-size="12" fill="#374151">3</text>
    <line x1="146.0" y1="166.7" x2="154.0" y2="166.7" stroke="#374151" stroke-width="1.5"/>
    <text x="138.0" y="170.7" text-anchor="end" font-size="12" fill="#374151">4</text>
    <line x1="146.0" y1="127.8" x2="154.0" y2="127.8" stroke="#374151" stroke-width="1.5"/>
    <text x="138.0" y="131.8" text-anchor="end" font-size="12" fill="#374151">5</text>
    <line x1="146.0" y1="88.9" x2="154.0" y2="88.9" stroke="#374151" stroke-width="1.5"/>
    <text x="138.0" y="92.9" text-anchor="end" font-size="12" fill="#374151">6</text>
    <line x1="146.0" y1="50.0" x2="154.0" y2="50.0" stroke="#374151" stroke-width="1.5"/>
    <text x="138.0" y="54.0" text-anchor="end" font-size="12" fill="#374151">7</text>
  </g>
  <path id="func-0" class="wave-path" d="M 50.00 50.00 L 52.50 51.94 L 55.00 53.89 L 57.50 55.83 L 60.00 57.78 L 62.50 59.72 L 65.00 61.67 L 67.50 63.61 L 70.00 65.56 L 72.50 67.50 L 75.00 69.44 L 77.50 71.39 L 80.00 73.33 L 82.50 75.28 L 85.00 77.22 L 87.50 79.17 L 90.00 81.11 L 92.50 83.06 L 95.00 85.00 L 97.50 86.94 L 100.00 88.89 L 102.50 90.83 L 105.00 92.78 L 107.50 94.72 L 110.00 96.67 L 112.50 98.61 L 115.00 100.56 L 117.50 102.50 L 120.00 104.44 L 122.50 106.39 L 125.00 108.33 L 127.50 110.28 L 130.00 112.22 L 132.50 114.17 L 135.00 116.11 L 137.50 118.06 L 140.00 120.00 L 142.50 121.94 L 145.00 123.89 L 147.50 125.83 L 150.00 127.78 L 152.50 129.72 L 155.00 131.67 L 157.50 133.61 L 160.00 135.56 L 162.50 137.50 L 165.00 139.44 L 167.50 141.39 L 170.00 143.33 L 172.50 145.28 L 175.00 147.22 L 177.50 149.17 L 180.00 151.11 L 182.50 153.06 L 185.00 155.00 L 187.50 156.94 L 190.00 158.89 L 192.50 160.83 L 195.00 162.78 L 197.50 164.72 L 200.00 166.67 L 202.50 168.61 L 205.00 170.56 L 207.50 172.50 L 210.00 174.44 L 212.50 176.39 L 215.00 178.33 L 217.50 180.28 L 220.00 182.22 L 222.50 184.17 L 225.00 186.11 L 227.50 188.06 L 230.00 190.00 L 232.50 191.94 L 235.00 193.89 L 237.50 195.83 L 240.00 197.78 L 242.50 199.72 L 245.00 201.67 L 247.50 203.61 L 250.00 205.56 L 252.50 207.50 L 255.00 209.44 L 257.50 211.39 L 260.00 213.33 L 262.50 215.28 L 265.00 217.22 L 267.50 219.17 L 270.00 221.11 L 272.50 223.06 L 275.00 225.00 L 277.50 226.94 L 280.00 228.89 L 282.50 230.83 L 285.00 232.78 L 287.50 234.72 L 290.00 236.67 L 292.50 238.61 L 295.00 240.56 L 297.50 242.50 L 300.00 244.44 L 302.50 246.39 L 305.00 248.33 L 307.50 250.28 L 310.00 252.22 L 312.50 254.17 L 315.00 256.11 L 317.50 258.06 L 320.00 260.00 L 322.50 261.94 L 325.00 263.89 L 327.50 265.83 L 330.00 267.78 L 332.50 269.72 L 335.00 271.67 L 337.50 273.61 L 340.00 275.56 L 342.50 277.50 L 345.00 279.44 L 347.50 281.39 L 350.00 283.33 L 352.50 285.28 L 355.00 287.22 L 357.50 289.17 L 360.00 291.11 L 362.50 293.06 L 365.00 295.00 L 367.50 296.94 L 370.00 298.89 L 372.50 300.83 L 375.00 302.78 L 377.50 304.72 L 380.00 306.67 L 382.50 308.61 L 385.00 310.56 L 387.50 312.50 L 390.00 314.44 L 392.50 316.39 L 395.00 318.33 L 397.50 320.28 L 400.00 322.22 L 402.50 324.17 L 405.00 326.11 L 407.50 328.06 L 410.00 330.00 L 412.50 331.94 L 415.00 333.89 L 417.50 335.83 L 420.00 337.78 L 422.50 339.72 L 425.00 341.67 L 427.50 343.61 L 430.00 345.56 L 432.50 347.50 L 435.00 349.44 L 437.50 351.39 L 440.00 353.33 L 442.50 355.28 L 445.00 357.22 L 447.50 359.17 L 450.00 361.11 L 452.50 363.06 L 455.00 365.00 L 457.50 366.94 L 460.00 368.89 L 462.50 370.83 L 465.00 372.78 L 467.50 374.72 L 470.00 376.67 L 472.50 378.61 L 475.00 380.56 L 477.50 382.50 L 480.00 384.44 L 482.50 386.39 L 485.00 388.33 L 487.50 390.28 L 490.00 392.22 L 492.50 394.17 L 495.00 396.11 L 497.50 398.06 L 500.00 400.00" fill="none" stroke="#3b82f6" stroke-width="3" stroke-linecap="round" stroke-linejoin="round"/>
  <g class="marker-group">
    <circle cx="150.0" cy="127.8" r="6" fill="#22c55e" stroke="white" stroke-width="2"/>
    <circle cx="250.0" cy="205.6" r="6" fill="#ef4444" stroke="white" stroke-width="2"/>
  </g>
  <g class="label-group">
    <rect x="85.0" y="119.77777777777777" width="100" height="16" fill="white" fill-opacity="0.9" rx="3"/>
    <text x="135.0" y="131.8" text-anchor="end" font-size="11" font-weight="bold" fill="#22c55e">b = 5</text>
    <rect x="215.0" y="197.55555555555554" width="100" height="16" fill="white" fill-opacity="0.9" rx="3"/>
    <text x="265.0" y="209.6" text-anchor="start" font-size="11" font-weight="bold" fill="#ef4444">(1, 3)</text>
  </g>
  <g class="annotation-group">
    <line x1="150.0" y1="127.8" x2="250.0" y2="127.8" stroke="#64748b" stroke-width="2.5"/>
    <polygon points="250.0,127.8 240.8,131.7 240.8,123.9" fill="#64748b"/>
    <rect x="178.0" y="105.77777777777777" width="44" height="14" rx="3" fill="white" fill-opacity="0.9"/>
    <text x="200.0" y="115.8" text-anchor="middle" font-size="11" font-weight="bold" fill="#64748b">+1</text>
    <line x1="250.0" y1="127.8" x2="250.0" y2="205.6" stroke="#8b5cf6" stroke-width="2.5"/>
    <polygon points="250.0,205.6 246.1,196.3 253.9,196.3" fill="#8b5cf6"/>
    <rect x="228.0" y="144.66666666666666" width="44" height="14" rx="3" fill="white" fill-opacity="0.9"/>
    <text x="250.0" y="154.7" text-anchor="middle" font-size="11" font-weight="bold" fill="#8b5cf6">-2</text>
  </g>
</svg>