<svg xmlns="http://www.w3.org/2000/svg" viewBox="0 0 800 850">
  <defs></defs>
  <rect x="0.00" y="0.00" width="800.00" height="850.00" fill="#f8fafc" stroke="none" stroke-width="0" rx="12"  />
  <text x="400.00" y="45.00" font-family="Inter, sans-serif" font-size="36" font-weight="900" fill="#1e293b" text-anchor="middle" dominant-baseline="middle">Estroncio (Sr)</text>
  <text x="400.00" y="85.00" font-family="Inter, sans-serif" font-size="20" font-weight="bold" fill="#64748b" text-anchor="middle" dominant-baseline="middle">Z = 38 | Grupo IIA | Periodo 5</text>
  <text x="99.50" y="123.00" font-family="Inter, sans-serif" font-size="11" font-weight="900" fill="#64748b" text-anchor="middle" dominant-baseline="middle">1</text>
  <text x="131.50" y="123.00" font-family="Inter, sans-serif" font-size="11" font-weight="900" fill="#64748b" text-anchor="middle" dominant-baseline="middle">2</text>
  <text x="163.50" y="123.00" font-family="Inter, sans-serif" font-size="11" font-weight="900" fill="#64748b" text-anchor="middle" dominant-baseline="middle">3</text>
  <text x="195.50" y="123.00" font-family="Inter, sans-serif" font-size="11" font-weight="900" fill="#64748b" text-anchor="middle" dominant-baseline="middle">4</text>
  <text x="227.50" y="123.00" font-family="Inter, sans-serif" font-size="11" font-weight="900" fill="#64748b" text-anchor="middle" dominant-baseline="middle">5</text>
  <text x="259.50" y="123.00" font-family="Inter, sans-serif" font-size="11" font-weight="900" fill="#64748b" text-anchor="middle" dominant-baseline="middle">6</text>
  <text x="291.50" y="123.00" font-family="Inter, sans-serif" font-size="11" font-weight="900" fill="#64748b" text-anchor="middle" dominant-baseline="middle">7</text>
  <text x="323.50" y="123.00" font-family="Inter, sans-serif" font-size="11" font-weight="900" fill="#64748b" text-anchor="middle" dominant-baseline="middle">8</text>
  <text x="355.50" y="123.00" font-family="Inter, sans-serif" font-size="11" font-weight="900" fill="#64748b" text-anchor="middle" dominant-baseline="middle">9</text>
  <text x="387.50" y="123.00" font-family="Inter, sans-serif" font-size="11" font-weight="900" fill="#64748b" text-anchor="middle" dominant-baseline="middle">10</text>
  <text x="419.50" y="123.00" font-family="Inter, sans-serif" font-size="11" font-weight="900" fill="#64748b" text-anchor="middle" dominant-baseline="middle">11</text>
  <text x="451.50" y="123.00" font-family="Inter, sans-serif" font-size="11" font-weight="900" fill="#64748b" text-anchor="middle" dominant-baseline="middle">12</text>
  <text x="483.50" y="123.00" font-family="Inter, sans-serif" font-size="11" font-weight="900" fill="#64748b" text-anchor="middle" dominant-baseline="middle">13</text>
  <text x="515.50" y="123.00" font-family="Inter, sans-serif" font-size="11" font-weight="900" fill="#64748b" text-anchor="middle" dominant-baseline="middle">14</text>
  <text x="547.50" y="123.00" font-family="Inter, sans-serif" font-size="11" font-weight="900" fill="#64748b" text-anchor="middle" dominant-baseline="middle">15</text>
  <text x="579.50" y="123.00" font-family="Inter, sans-serif" font-size="11" font-weight="900" fill="#64748b" text-anchor="middle" dominant-baseline="middle">16</text>
  <text x="611.50" y="123.00" font-family="Inter, sans-serif" font-size="11" font-weight="900" fill="#64748b" text-anchor="middle" dominant-baseline="middle">17</text>
  <text x="643.50" y="123.00" font-family="Inter, sans-serif" font-size="11" font-weight="900" fill="#64748b" text-anchor="middle" dominant-baseline="middle">18</text>
  <text x="67.00" y="153.50" font-family="Inter, sans-serif" font-size="12" font-weight="900" fill="#64748b" text-anchor="middle" dominant-baseline="middle">1</text>
  <text x="67.00" y="185.50" font-family="Inter, sans-serif" font-size="12" font-weight="900" fill="#64748b" text-anchor="middle" dominant-baseline="middle">2</text>
  <text x="67.00" y="217.50" font-family="Inter, sans-serif" font-size="12" font-weight="900" fill="#64748b" text-anchor="middle" dominant-baseline="middle">3</text>
  <text x="67.00" y="249.50" font-family="Inter, sans-serif" font-size="12" font-weight="900" fill="#64748b" text-anchor="middle" dominant-baseline="middle">4</text>
  <text x="67.00" y="281.50" font-family="Inter, sans-serif" font-size="12" font-weight="900" fill="#64748b" text-anchor="middle" dominant-baseline="middle">5</text>
  <text x="67.00" y="313.50" font-family="Inter, sans-serif" font-size="12" font-weight="900" fill="#64748b" text-anchor="middle" dominant-baseline="middle">6</text>
  <text x="67.00" y="345.50" font-family="Inter, sans-serif" font-size="12" font-weight="900" fill="#64748b" text-anchor="middle" dominant-baseline="middle">7</text>
  <rect x="85.00" y="135.00" width="29.00" height="29.00" fill="#f8fafc" stroke="#cbd5e1" stroke-width="0.8" rx="4"  />
  <rect x="629.00" y="135.00" width="29.00" height="29.00" fill="#f8fafc" stroke="#cbd5e1" stroke-width="0.8" rx="4"  />
  <rect x="85.00" y="167.00" width="29.00" height="29.00" fill="#f8fafc" stroke="#cbd5e1" stroke-width="0.8" rx="4"  />
  <rect x="117.00" y="167.00" width="29.00" height="29.00" fill="#f8fafc" stroke="#cbd5e1" stroke-width="0.8" rx="4"  />
  <rect x="469.00" y="167.00" width="29.00" height="29.00" fill="#f8fafc" stroke="#cbd5e1" stroke-width="0.8" rx="4"  />
  <rect x="501.00" y="167.00" width="29.00" height="29.00" fill="#f8fafc" stroke="#cbd5e1" stroke-width="0.8" rx="4"  />
  <rect x="533.00" y="167.00" width="29.00" height="29.00" fill="#f8fafc" stroke="#cbd5e1" stroke-width="0.8" rx="4"  />
  <rect x="565.00" y="167.00" width="29.00" height="29.00" fill="#f8fafc" stroke="#cbd5e1" stroke-width="0.8" rx="4"  />
  <rect x="597.00" y="167.00" width="29.00" height="29.00" fill="#f8fafc" stroke="#cbd5e1" stroke-width="0.8" rx="4"  />
  <rect x="629.00" y="167.00" width="29.00" height="29.00" fill="#f8fafc" stroke="#cbd5e1" stroke-width="0.8" rx="4"  />
  <rect x="85.00" y="199.00" width="29.00" height="29.00" fill="#f8fafc" stroke="#cbd5e1" stroke-width="0.8" rx="4"  />
  <rect x="117.00" y="199.00" width="29.00" height="29.00" fill="#f8fafc" stroke="#cbd5e1" stroke-width="0.8" rx="4"  />
  <rect x="469.00" y="199.00" width="29.00" height="29.00" fill="#f8fafc" stroke="#cbd5e1" stroke-width="0.8" rx="4"  />
  <rect x="501.00" y="199.00" width="29.00" height="29.00" fill="#f8fafc" stroke="#cbd5e1" stroke-width="0.8" rx="4"  />
  <rect x="533.00" y="199.00" width="29.00" height="29.00" fill="#f8fafc" stroke="#cbd5e1" stroke-width="0.8" rx="4"  />
  <rect x="565.00" y="199.00" width="29.00" height="29.00" fill="#f8fafc" stroke="#cbd5e1" stroke-width="0.8" rx="4"  />
  <rect x="597.00" y="199.00" width="29.00" height="29.00" fill="#f8fafc" stroke="#cbd5e1" stroke-width="0.8" rx="4"  />
  <rect x="629.00" y="199.00" width="29.00" height="29.00" fill="#f8fafc" stroke="#cbd5e1" stroke-width="0.8" rx="4"  />
  <rect x="85.00" y="231.00" width="29.00" height="29.00" fill="#f8fafc" stroke="#cbd5e1" stroke-width="0.8" rx="4"  />
  <rect x="117.00" y="231.00" width="29.00" height="29.00" fill="#f8fafc" stroke="#cbd5e1" stroke-width="0.8" rx="4"  />
  <rect x="149.00" y="231.00" width="29.00" height="29.00" fill="#f8fafc" stroke="#cbd5e1" stroke-width="0.8" rx="4"  />
  <rect x="181.00" y="231.00" width="29.00" height="29.00" fill="#f8fafc" stroke="#cbd5e1" stroke-width="0.8" rx="4"  />
  <rect x="213.00" y="231.00" width="29.00" height="29.00" fill="#f8fafc" stroke="#cbd5e1" stroke-width="0.8" rx="4"  />
  <rect x="245.00" y="231.00" width="29.00" height="29.00" fill="#f8fafc" stroke="#cbd5e1" stroke-width="0.8" rx="4"  />
  <rect x="277.00" y="231.00" width="29.00" height="29.00" fill="#f8fafc" stroke="#cbd5e1" stroke-width="0.8" rx="4"  />
  <rect x="309.00" y="231.00" width="29.00" height="29.00" fill="#f8fafc" stroke="#cbd5e1" stroke-width="0.8" rx="4"  />
  <rect x="341.00" y="231.00" width="29.00" height="29.00" fill="#f8fafc" stroke="#cbd5e1" stroke-width="0.8" rx="4"  />
  <rect x="373.00" y="231.00" width="29.00" height="29.00" fill="#f8fafc" stroke="#cbd5e1" stroke-width="0.8" rx="4"  />
  <rect x="405.00" y="231.00" width="29.00" height="29.00" fill="#f8fafc" stroke="#cbd5e1" stroke-width="0.8" rx="4"  />
  <rect x="437.00" y="231.00" width="29.00" height="29.00" fill="#f8fafc" stroke="#cbd5e1" stroke-width="0.8" rx="4"  />
  <rect x="469.00" y="231.00" width="29.00" height="29.00" fill="#f8fafc" stroke="#cbd5e1" stroke-width="0.8" rx="4"  />
  <rect x="501.00" y="231.00" width="29.00" height="29.00" fill="#f8fafc" stroke="#cbd5e1" stroke-width="0.8" rx="4"  />
  <rect x="533.00" y="231.00" width="29.00" height="29.00" fill="#f8fafc" stroke="#cbd5e1" stroke-width="0.8" rx="4"  />
  <rect x="565.00" y="231.00" width="29.00" height="29.00" fill="#f8fafc" stroke="#cbd5e1" stroke-width="0.8" rx="4"  />
  <rect x="597.00" y="231.00" width="29.00" height="29.00" fill="#f8fafc" stroke="#cbd5e1" stroke-width="0.8" rx="4"  />
  <rect x="629.00" y="231.00" width="29.00" height="29.00" fill="#f8fafc" stroke="#cbd5e1" stroke-width="0.8" rx="4"  />
  <rect x="85.00" y="263.00" width="29.00" height="29.00" fill="#f8fafc" stroke="#cbd5e1" stroke-width="0.8" rx="4"  />
  <rect x="117.00" y="263.00" width="29.00" height="29.00" fill="#10b981" stroke="#10b981" stroke-width="3" rx="4"  />
  <rect x="149.00" y="263.00" width="29.00" height="29.00" fill="#f8fafc" stroke="#cbd5e1" stroke-width="0.8" rx="4"  />
  <rect x="181.00" y="263.00" width="29.00" height="29.00" fill="#f8fafc" stroke="#cbd5e1" stroke-width="0.8" rx="4"  />
  <rect x="213.00" y="263.00" width="29.00" height="29.00" fill="#f8fafc" stroke="#cbd5e1" stroke-width="0.8" rx="4"  />
  <rect x="245.00" y="263.00" width="29.00" height="29.00" fill="#f8fafc" stroke="#cbd5e1" stroke-width="0.8" rx="4"  />
  <rect x="277.00" y="263.00" width="29.00" height="29.00" fill="#f8fafc" stroke="#cbd5e1" stroke-width="0.8" rx="4"  />
  <rect x="309.00" y="263.00" width="29.00" height="29.00" fill="#f8fafc" stroke="#cbd5e1" stroke-width="0.8" rx="4"  />
  <rect x="341.00" y="263.00" width="29.00" height="29.00" fill="#f8fafc" stroke="#cbd5e1" stroke-width="0.8" rx="4"  />
  <rect x="373.00" y="263.00" width="29.00" height="29.00" fill="#f8fafc" stroke="#cbd5e1" stroke-width="0.8" rx="4"  />
  <rect x="405.00" y="263.00" width="29.00" height="29.00" fill="#f8fafc" stroke="#cbd5e1" stroke-width="0.8" rx="4"  />
  <rect x="437.00" y="263.00" width="29.00" height="29.00" fill="#f8fafc" stroke="#cbd5e1" stroke-width="0.8" rx="4"  />
  <rect x="469.00" y="263.00" width="29.00" height="29.00" fill="#f8fafc" stroke="#cbd5e1" stroke-width="0.8" rx="4"  />
  <rect x="501.00" y="263.00" width="29.00" height="29.00" fill="#f8fafc" stroke="#cbd5e1" stroke-width="0.8" rx="4"  />
  <rect x="533.00" y="263.00" width="29.00" height="29.00" fill="#f8fafc" stroke="#cbd5e1" stroke-width="0.8" rx="4"  />
  <rect x="565.00" y="263.00" width="29.00" height="29.00" fill="#f8fafc" stroke="#cbd5e1" stroke-width="0.8" rx="4"  />
  <rect x="597.00" y="263.00" width="29.00" height="29.00" fill="#f8fafc" stroke="#cbd5e1" stroke-width="0.8" rx="4"  />
  <rect x="629.00" y="263.00" width="29.00" height="29.00" fill="#f8fafc" stroke="#cbd5e1" stroke-width="0.8" rx="4"  />
  <rect x="85.00" y="295.00" width="29.00" height="29.00" fill="#f8fafc" stroke="#cbd5e1" stroke-width="0.8" rx="4"  />
  <rect x="117.00" y="295.00" width="29.00" height="29.00" fill="#f8fafc" stroke="#cbd5e1" stroke-width="0.8" rx="4"  />
  <rect x="149.00" y="295.00" width="29.00" height="29.00" fill="#f8fafc" stroke="#cbd5e1" stroke-width="0.8" rx="4"  />
  <rect x="181.00" y="295.00" width="29.00" height="29.00" fill="#f8fafc" stroke="#cbd5e1" stroke-width="0.8" rx="4"  />
  <rect x="213.00" y="295.00" width="29.00" height="29.00" fill="#f8fafc" stroke="#cbd5e1" stroke-width="0.8" rx="4"  />
  <rect x="245.00" y="295.00" width="29.00" height="29.00" fill="#f8fafc" stroke="#cbd5e1" stroke-width="0.8" rx="4"  />
  <rect x="277.00" y="295.00" width="29.00" height="29.00" fill="#f8fafc" stroke="#cbd5e1" stroke-width="0.8" rx="4"  />
  <rect x="309.00" y="295.00" width="29.00" height="29.00" fill="#f8fafc" stroke="#cbd5e1" stroke-width="0.8" rx="4"  />
  <rect x="341.00" y="295.00" width="29.00" height="29.00" fill="#f8fafc" stroke="#cbd5e1" stroke-width="0.8" rx="4"  />
  <rect x="373.00" y="295.00" width="29.00" height="29.00" fill="#f8fafc" stroke="#cbd5e1" stroke-width="0.8" rx="4"  />
  <rect x="405.00" y="295.00" width="29.00" height="29.00" fill="#f8fafc" stroke="#cbd5e1" stroke-width="0.8" rx="4"  />
  <rect x="437.00" y="295.00" width="29.00" height="29.00" fill="#f8fafc" stroke="#cbd5e1" stroke-width="0.8" rx="4"  />
  <rect x="469.00" y="295.00" width="29.00" height="29.00" fill="#f8fafc" stroke="#cbd5e1" stroke-width="0.8" rx="4"  />
  <rect x="501.00" y="295.00" width="29.00" height="29.00" fill="#f8fafc" stroke="#cbd5e1" stroke-width="0.8" rx="4"  />
  <rect x="533.00" y="295.00" width="29.00" height="29.00" fill="#f8fafc" stroke="#cbd5e1" stroke-width="0.8" rx="4"  />
  <rect x="565.00" y="295.00" width="29.00" height="29.00" fill="#f8fafc" stroke="#cbd5e1" stroke-width="0.8" rx="4"  />
  <rect x="597.00" y="295.00" width="29.00" height="29.00" fill="#f8fafc" stroke="#cbd5e1" stroke-width="0.8" rx="4"  />
  <rect x="629.00" y="295.00" width="29.00" height="29.00" fill="#f8fafc" stroke="#cbd5e1" stroke-width="0.8" rx="4"  />
  <rect x="85.00" y="327.00" width="29.00" height="29.00" fill="#f8fafc" stroke="#cbd5e1" stroke-width="0.8" rx="4"  />
  <rect x="117.00" y="327.00" width="29.00" height="29.00" fill="#f8fafc" stroke="#cbd5e1" stroke-width="0.8" rx="4"  />
  <rect x="149.00" y="327.00" width="29.00" height="29.00" fill="#f8fafc" stroke="#cbd5e1" stroke-width="0.8" rx="4"  />
  <rect x="181.00" y="327.00" width="29.00" height="29.00" fill="#f8fafc" stroke="#cbd5e1" stroke-width="0.8" rx="4"  />
  <rect x="213.00" y="327.00" width="29.00" height="29.00" fill="#f8fafc" stroke="#cbd5e1" stroke-width="0.8" rx="4"  />
  <rect x="245.00" y="327.00" width="29.00" height="29.00" fill="#f8fafc" stroke="#cbd5e1" stroke-width="0.8" rx="4"  />
  <rect x="277.00" y="327.00" width="29.00" height="29.00" fill="#f8fafc" stroke="#cbd5e1" stroke-width="0.8" rx="4"  />
  <rect x="309.00" y="327.00" width="29.00" height="29.00" fill="#f8fafc" stroke="#cbd5e1" stroke-width="0.8" rx="4"  />
  <rect x="341.00" y="327.00" width="29.00" height="29.00" fill="#f8fafc" stroke="#cbd5e1" stroke-width="0.8" rx="4"  />
  <rect x="373.00" y="327.00" width="29.00" height="29.00" fill="#f8fafc" stroke="#cbd5e1" stroke-width="0.8" rx="4"  />
  <rect x="405.00" y="327.00" width="29.00" height="29.00" fill="#f8fafc" stroke="#cbd5e1" stroke-width="0.8" rx="4"  />
  <rect x="437.00" y="327.00" width="29.00" height="29.00" fill="#f8fafc" stroke="#cbd5e1" stroke-width="0.8" rx="4"  />
  <rect x="469.00" y="327.00" width="29.00" height="29.00" fill="#f8fafc" stroke="#cbd5e1" stroke-width="0.8" rx="4"  />
  <rect x="501.00" y="327.00" width="29.00" height="29.00" fill="#f8fafc" stroke="#cbd5e1" stroke-width="0.8" rx="4"  />
  <rect x="533.00" y="327.00" width="29.00" height="29.00" fill="#f8fafc" stroke="#cbd5e1" stroke-width="0.8" rx="4"  />
  <rect x="565.00" y="327.00" width="29.00" height="29.00" fill="#f8fafc" stroke="#cbd5e1" stroke-width="0.8" rx="4"  />
  <rect x="597.00" y="327.00" width="29.00" height="29.00" fill="#f8fafc" stroke="#cbd5e1" stroke-width="0.8" rx="4"  />
  <rect x="629.00" y="327.00" width="29.00" height="29.00" fill="#f8fafc" stroke="#cbd5e1" stroke-width="0.8" rx="4"  />
  <text x="400.00" y="397.50" font-family="Inter, sans-serif" font-size="16" font-weight="bold" fill="#94a3b8" text-anchor="middle" dominant-baseline="middle">Ubicación en la Tabla Periódica</text>
  <circle cx="400.00" cy="540.00" r="60.00" fill="none" stroke="#e2e8f0" stroke-width="1.5" fill-opacity="0.2" />
  <circle cx="400.00" cy="480.00" r="6.00" fill="#94a3b8" stroke="white" stroke-width="1.2"  />
  <text x="400.00" y="482.00" font-family="Inter, sans-serif" font-size="11" font-weight="900" fill="white" text-anchor="middle" dominant-baseline="middle">-</text>
  <circle cx="400.00" cy="600.00" r="6.00" fill="#94a3b8" stroke="white" stroke-width="1.2"  />
  <text x="400.00" y="602.00" font-family="Inter, sans-serif" font-size="11" font-weight="900" fill="white" text-anchor="middle" dominant-baseline="middle">-</text>
  <circle cx="400.00" cy="540.00" r="100.00" fill="none" stroke="#e2e8f0" stroke-width="1.5" fill-opacity="0.2" />
  <circle cx="400.00" cy="440.00" r="6.00" fill="#94a3b8" stroke="white" stroke-width="1.2"  />
  <text x="400.00" y="442.00" font-family="Inter, sans-serif" font-size="11" font-weight="900" fill="white" text-anchor="middle" dominant-baseline="middle">-</text>
  <circle cx="470.71" cy="469.29" r="6.00" fill="#94a3b8" stroke="white" stroke-width="1.2"  />
  <text x="470.71" y="471.29" font-family="Inter, sans-serif" font-size="11" font-weight="900" fill="white" text-anchor="middle" dominant-baseline="middle">-</text>
  <circle cx="500.00" cy="540.00" r="6.00" fill="#94a3b8" stroke="white" stroke-width="1.2"  />
  <text x="500.00" y="542.00" font-family="Inter, sans-serif" font-size="11" font-weight="900" fill="white" text-anchor="middle" dominant-baseline="middle">-</text>
  <circle cx="470.71" cy="610.71" r="6.00" fill="#94a3b8" stroke="white" stroke-width="1.2"  />
  <text x="470.71" y="612.71" font-family="Inter, sans-serif" font-size="11" font-weight="900" fill="white" text-anchor="middle" dominant-baseline="middle">-</text>
  <circle cx="400.00" cy="640.00" r="6.00" fill="#94a3b8" stroke="white" stroke-width="1.2"  />
  <text x="400.00" y="642.00" font-family="Inter, sans-serif" font-size="11" font-weight="900" fill="white" text-anchor="middle" dominant-baseline="middle">-</text>
  <circle cx="329.29" cy="610.71" r="6.00" fill="#94a3b8" stroke="white" stroke-width="1.2"  />
  <text x="329.29" y="612.71" font-family="Inter, sans-serif" font-size="11" font-weight="900" fill="white" text-anchor="middle" dominant-baseline="middle">-</text>
  <circle cx="300.00" cy="540.00" r="6.00" fill="#94a3b8" stroke="white" stroke-width="1.2"  />
  <text x="300.00" y="542.00" font-family="Inter, sans-serif" font-size="11" font-weight="900" fill="white" text-anchor="middle" dominant-baseline="middle">-</text>
  <circle cx="329.29" cy="469.29" r="6.00" fill="#94a3b8" stroke="white" stroke-width="1.2"  />
  <text x="329.29" y="471.29" font-family="Inter, sans-serif" font-size="11" font-weight="900" fill="white" text-anchor="middle" dominant-baseline="middle">-</text>
  <circle cx="400.00" cy="540.00" r="140.00" fill="none" stroke="#e2e8f0" stroke-width="1.5" fill-opacity="0.2" />
  <circle cx="400.00" cy="400.00" r="6.00" fill="#94a3b8" stroke="white" stroke-width="1.2"  />
  <text x="400.00" y="402.00" font-family="Inter, sans-serif" font-size="11" font-weight="900" fill="white" text-anchor="middle" dominant-baseline="middle">-</text>
  <circle cx="447.88" cy="408.44" r="6.00" fill="#94a3b8" stroke="white" stroke-width="1.2"  />
  <text x="447.88" y="410.44" font-family="Inter, sans-serif" font-size="11" font-weight="900" fill="white" text-anchor="middle" dominant-baseline="middle">-</text>
  <circle cx="489.99" cy="432.75" r="6.00" fill="#94a3b8" stroke="white" stroke-width="1.2"  />
  <text x="489.99" y="434.75" font-family="Inter, sans-serif" font-size="11" font-weight="900" fill="white" text-anchor="middle" dominant-baseline="middle">-</text>
  <circle cx="521.24" cy="470.00" r="6.00" fill="#94a3b8" stroke="white" stroke-width="1.2"  />
  <text x="521.24" y="472.00" font-family="Inter, sans-serif" font-size="11" font-weight="900" fill="white" text-anchor="middle" dominant-baseline="middle">-</text>
  <circle cx="537.87" cy="515.69" r="6.00" fill="#94a3b8" stroke="white" stroke-width="1.2"  />
  <text x="537.87" y="517.69" font-family="Inter, sans-serif" font-size="11" font-weight="900" fill="white" text-anchor="middle" dominant-baseline="middle">-</text>
  <circle cx="537.87" cy="564.31" r="6.00" fill="#94a3b8" stroke="white" stroke-width="1.2"  />
  <text x="537.87" y="566.31" font-family="Inter, sans-serif" font-size="11" font-weight="900" fill="white" text-anchor="middle" dominant-baseline="middle">-</text>
  <circle cx="521.24" cy="610.00" r="6.00" fill="#94a3b8" stroke="white" stroke-width="1.2"  />
  <text x="521.24" y="612.00" font-family="Inter, sans-serif" font-size="11" font-weight="900" fill="white" text-anchor="middle" dominant-baseline="middle">-</text>
  <circle cx="489.99" cy="647.25" r="6.00" fill="#94a3b8" stroke="white" stroke-width="1.2"  />
  <text x="489.99" y="649.25" font-family="Inter, sans-serif" font-size="11" font-weight="900" fill="white" text-anchor="middle" dominant-baseline="middle">-</text>
  <circle cx="447.88" cy="671.56" r="6.00" fill="#94a3b8" stroke="white" stroke-width="1.2"  />
  <text x="447.88" y="673.56" font-family="Inter, sans-serif" font-size="11" font-weight="900" fill="white" text-anchor="middle" dominant-baseline="middle">-</text>
  <circle cx="400.00" cy="680.00" r="6.00" fill="#94a3b8" stroke="white" stroke-width="1.2"  />
  <text x="400.00" y="682.00" font-family="Inter, sans-serif" font-size="11" font-weight="900" fill="white" text-anchor="middle" dominant-baseline="middle">-</text>
  <circle cx="352.12" cy="671.56" r="6.00" fill="#94a3b8" stroke="white" stroke-width="1.2"  />
  <text x="352.12" y="673.56" font-family="Inter, sans-serif" font-size="11" font-weight="900" fill="white" text-anchor="middle" dominant-baseline="middle">-</text>
  <circle cx="310.01" cy="647.25" r="6.00" fill="#94a3b8" stroke="white" stroke-width="1.2"  />
  <text x="310.01" y="649.25" font-family="Inter, sans-serif" font-size="11" font-weight="900" fill="white" text-anchor="middle" dominant-baseline="middle">-</text>
  <circle cx="278.76" cy="610.00" r="6.00" fill="#94a3b8" stroke="white" stroke-width="1.2"  />
  <text x="278.76" y="612.00" font-family="Inter, sans-serif" font-size="11" font-weight="900" fill="white" text-anchor="middle" dominant-baseline="middle">-</text>
  <circle cx="262.13" cy="564.31" r="6.00" fill="#94a3b8" stroke="white" stroke-width="1.2"  />
  <text x="262.13" y="566.31" font-family="Inter, sans-serif" font-size="11" font-weight="900" fill="white" text-anchor="middle" dominant-baseline="middle">-</text>
  <circle cx="262.13" cy="515.69" r="6.00" fill="#94a3b8" stroke="white" stroke-width="1.2"  />
  <text x="262.13" y="517.69" font-family="Inter, sans-serif" font-size="11" font-weight="900" fill="white" text-anchor="middle" dominant-baseline="middle">-</text>
  <circle cx="278.76" cy="470.00" r="6.00" fill="#94a3b8" stroke="white" stroke-width="1.2"  />
  <text x="278.76" y="472.00" font-family="Inter, sans-serif" font-size="11" font-weight="900" fill="white" text-anchor="middle" dominant-baseline="middle">-</text>
  <circle cx="310.01" cy="432.75" r="6.00" fill="#94a3b8" stroke="white" stroke-width="1.2"  />
  <text x="310.01" y="434.75" font-family="Inter, sans-serif" font-size="11" font-weight="900" fill="white" text-anchor="middle" dominant-baseline="middle">-</text>
  <circle cx="352.12" cy="408.44" r="6.00" fill="#94a3b8" stroke="white" stroke-width="1.2"  />
  <text x="352.12" y="410.44" font-family="Inter, sans-serif" font-size="11" font-weight="900" fill="white" text-anchor="middle" dominant-baseline="middle">-</text>
  <circle cx="400.00" cy="540.00" r="180.00" fill="none" stroke="#e2e8f0" stroke-width="1.5" fill-opacity="0.2" />
  <circle cx="400.00" cy="360.00" r="6.00" fill="#94a3b8" stroke="white" stroke-width="1.2"  />
  <text x="400.00" y="362.00" font-family="Inter, sans-serif" font-size="11" font-weight="900" fill="white" text-anchor="middle" dominant-baseline="middle">-</text>
  <circle cx="527.28" cy="412.72" r="6.00" fill="#94a3b8" stroke="white" stroke-width="1.2"  />
  <text x="527.28" y="414.72" font-family="Inter, sans-serif" font-size="11" font-weight="900" fill="white" text-anchor="middle" dominant-baseline="middle">-</text>
  <circle cx="580.00" cy="540.00" r="6.00" fill="#94a3b8" stroke="white" stroke-width="1.2"  />
  <text x="580.00" y="542.00" font-family="Inter, sans-serif" font-size="11" font-weight="900" fill="white" text-anchor="middle" dominant-baseline="middle">-</text>
  <circle cx="527.28" cy="667.28" r="6.00" fill="#94a3b8" stroke="white" stroke-width="1.2"  />
  <text x="527.28" y="669.28" font-family="Inter, sans-serif" font-size="11" font-weight="900" fill="white" text-anchor="middle" dominant-baseline="middle">-</text>
  <circle cx="400.00" cy="720.00" r="6.00" fill="#94a3b8" stroke="white" stroke-width="1.2"  />
  <text x="400.00" y="722.00" font-family="Inter, sans-serif" font-size="11" font-weight="900" fill="white" text-anchor="middle" dominant-baseline="middle">-</text>
  <circle cx="272.72" cy="667.28" r="6.00" fill="#94a3b8" stroke="white" stroke-width="1.2"  />
  <text x="272.72" y="669.28" font-family="Inter, sans-serif" font-size="11" font-weight="900" fill="white" text-anchor="middle" dominant-baseline="middle">-</text>
  <circle cx="220.00" cy="540.00" r="6.00" fill="#94a3b8" stroke="white" stroke-width="1.2"  />
  <text x="220.00" y="542.00" font-family="Inter, sans-serif" font-size="11" font-weight="900" fill="white" text-anchor="middle" dominant-baseline="middle">-</text>
  <circle cx="272.72" cy="412.72" r="6.00" fill="#94a3b8" stroke="white" stroke-width="1.2"  />
  <text x="272.72" y="414.72" font-family="Inter, sans-serif" font-size="11" font-weight="900" fill="white" text-anchor="middle" dominant-baseline="middle">-</text>
  <circle cx="400.00" cy="540.00" r="220.00" fill="none" stroke="#10b981" stroke-width="4"  />
  <circle cx="400.00" cy="320.00" r="6.00" fill="#10b981" stroke="white" stroke-width="1.2"  />
  <text x="400.00" y="322.00" font-family="Inter, sans-serif" font-size="11" font-weight="900" fill="white" text-anchor="middle" dominant-baseline="middle">-</text>
  <circle cx="400.00" cy="760.00" r="6.00" fill="#10b981" stroke="white" stroke-width="1.2"  />
  <text x="400.00" y="762.00" font-family="Inter, sans-serif" font-size="11" font-weight="900" fill="white" text-anchor="middle" dominant-baseline="middle">-</text>
  <circle cx="400.00" cy="540.00" r="28.00" fill="#f1f5f9" stroke="#1e293b" stroke-width="3"  />
  <circle cx="400.00" cy="540.00" r="22.00" fill="#e2e8f0" stroke="none" stroke-width="2"  />
  <text x="400.00" y="546.00" font-family="Inter, sans-serif" font-size="18" font-weight="900" fill="#1e293b" text-anchor="middle" dominant-baseline="middle">Sr</text>
  <rect x="120.00" y="765.00" width="560.00" height="50.00" fill="#f1f5f9" stroke="none" stroke-width="0" rx="25"  />
  <text x="400.00" y="798.00" font-family="monospace" font-size="20" font-weight="bold" fill="#334155" text-anchor="middle" dominant-baseline="middle">Configuración: [Kr] 5s²</text>
</svg>