<svg xmlns="http://www.w3.org/2000/svg" viewBox="0 0 850 480">
  <defs></defs>
  <rect x="0.00" y="0.00" width="850.00" height="480.00" fill="#f8fafc" stroke="none" stroke-width="0" rx="12"  />
  <text x="425.00" y="45.00" font-family="Inter, sans-serif" font-size="30" font-weight="900" fill="#1e293b" text-anchor="middle" dominant-baseline="middle">Ubicación: Estroncio (Sr)</text>
  <text x="78.00" y="90.00" font-family="Inter, sans-serif" font-size="12" font-weight="900" fill="#f59e0b" text-anchor="middle" dominant-baseline="middle">s¹</text>
  <text x="78.00" y="107.00" font-family="Inter, sans-serif" font-size="11" font-weight="900" fill="#1e293b" text-anchor="middle" dominant-baseline="middle">IA</text>
  <text x="78.00" y="123.00" font-family="Inter, sans-serif" font-size="10" font-weight="bold" fill="#64748b" text-anchor="middle" dominant-baseline="middle">1</text>
  <text x="118.00" y="90.00" font-family="Inter, sans-serif" font-size="12" font-weight="900" fill="#f59e0b" text-anchor="middle" dominant-baseline="middle">s²</text>
  <text x="118.00" y="107.00" font-family="Inter, sans-serif" font-size="11" font-weight="900" fill="#1e293b" text-anchor="middle" dominant-baseline="middle">IIA</text>
  <text x="118.00" y="123.00" font-family="Inter, sans-serif" font-size="10" font-weight="bold" fill="#64748b" text-anchor="middle" dominant-baseline="middle">2</text>
  <text x="158.00" y="123.00" font-family="Inter, sans-serif" font-size="10" font-weight="bold" fill="#cbd5e1" text-anchor="middle" dominant-baseline="middle">3</text>
  <text x="198.00" y="123.00" font-family="Inter, sans-serif" font-size="10" font-weight="bold" fill="#cbd5e1" text-anchor="middle" dominant-baseline="middle">4</text>
  <text x="238.00" y="123.00" font-family="Inter, sans-serif" font-size="10" font-weight="bold" fill="#cbd5e1" text-anchor="middle" dominant-baseline="middle">5</text>
  <text x="278.00" y="123.00" font-family="Inter, sans-serif" font-size="10" font-weight="bold" fill="#cbd5e1" text-anchor="middle" dominant-baseline="middle">6</text>
  <text x="318.00" y="123.00" font-family="Inter, sans-serif" font-size="10" font-weight="bold" fill="#cbd5e1" text-anchor="middle" dominant-baseline="middle">7</text>
  <text x="358.00" y="123.00" font-family="Inter, sans-serif" font-size="10" font-weight="bold" fill="#cbd5e1" text-anchor="middle" dominant-baseline="middle">8</text>
  <text x="398.00" y="123.00" font-family="Inter, sans-serif" font-size="10" font-weight="bold" fill="#cbd5e1" text-anchor="middle" dominant-baseline="middle">9</text>
  <text x="438.00" y="123.00" font-family="Inter, sans-serif" font-size="10" font-weight="bold" fill="#cbd5e1" text-anchor="middle" dominant-baseline="middle">10</text>
  <text x="478.00" y="123.00" font-family="Inter, sans-serif" font-size="10" font-weight="bold" fill="#cbd5e1" text-anchor="middle" dominant-baseline="middle">11</text>
  <text x="518.00" y="123.00" font-family="Inter, sans-serif" font-size="10" font-weight="bold" fill="#cbd5e1" text-anchor="middle" dominant-baseline="middle">12</text>
  <text x="558.00" y="90.00" font-family="Inter, sans-serif" font-size="12" font-weight="900" fill="#3b82f6" text-anchor="middle" dominant-baseline="middle">p¹</text>
  <text x="558.00" y="107.00" font-family="Inter, sans-serif" font-size="11" font-weight="900" fill="#1e293b" text-anchor="middle" dominant-baseline="middle">IIIA</text>
  <text x="558.00" y="123.00" font-family="Inter, sans-serif" font-size="10" font-weight="bold" fill="#64748b" text-anchor="middle" dominant-baseline="middle">13</text>
  <text x="598.00" y="90.00" font-family="Inter, sans-serif" font-size="12" font-weight="900" fill="#3b82f6" text-anchor="middle" dominant-baseline="middle">p²</text>
  <text x="598.00" y="107.00" font-family="Inter, sans-serif" font-size="11" font-weight="900" fill="#1e293b" text-anchor="middle" dominant-baseline="middle">IVA</text>
  <text x="598.00" y="123.00" font-family="Inter, sans-serif" font-size="10" font-weight="bold" fill="#64748b" text-anchor="middle" dominant-baseline="middle">14</text>
  <text x="638.00" y="90.00" font-family="Inter, sans-serif" font-size="12" font-weight="900" fill="#3b82f6" text-anchor="middle" dominant-baseline="middle">p³</text>
  <text x="638.00" y="107.00" font-family="Inter, sans-serif" font-size="11" font-weight="900" fill="#1e293b" text-anchor="middle" dominant-baseline="middle">VA</text>
  <text x="638.00" y="123.00" font-family="Inter, sans-serif" font-size="10" font-weight="bold" fill="#64748b" text-anchor="middle" dominant-baseline="middle">15</text>
  <text x="678.00" y="90.00" font-family="Inter, sans-serif" font-size="12" font-weight="900" fill="#3b82f6" text-anchor="middle" dominant-baseline="middle">p⁴</text>
  <text x="678.00" y="107.00" font-family="Inter, sans-serif" font-size="11" font-weight="900" fill="#1e293b" text-anchor="middle" dominant-baseline="middle">VIA</text>
  <text x="678.00" y="123.00" font-family="Inter, sans-serif" font-size="10" font-weight="bold" fill="#64748b" text-anchor="middle" dominant-baseline="middle">16</text>
  <text x="718.00" y="90.00" font-family="Inter, sans-serif" font-size="12" font-weight="900" fill="#3b82f6" text-anchor="middle" dominant-baseline="middle">p⁵</text>
  <text x="718.00" y="107.00" font-family="Inter, sans-serif" font-size="11" font-weight="900" fill="#1e293b" text-anchor="middle" dominant-baseline="middle">VIIA</text>
  <text x="718.00" y="123.00" font-family="Inter, sans-serif" font-size="10" font-weight="bold" fill="#64748b" text-anchor="middle" dominant-baseline="middle">17</text>
  <text x="758.00" y="90.00" font-family="Inter, sans-serif" font-size="12" font-weight="900" fill="#3b82f6" text-anchor="middle" dominant-baseline="middle">p⁶</text>
  <text x="758.00" y="107.00" font-family="Inter, sans-serif" font-size="11" font-weight="900" fill="#1e293b" text-anchor="middle" dominant-baseline="middle">VIIIA</text>
  <text x="758.00" y="123.00" font-family="Inter, sans-serif" font-size="10" font-weight="bold" fill="#64748b" text-anchor="middle" dominant-baseline="middle">18</text>
  <text x="35.00" y="158.00" font-family="Inter, sans-serif" font-size="14" font-weight="900" fill="#64748b" text-anchor="middle" dominant-baseline="middle">1</text>
  <text x="35.00" y="198.00" font-family="Inter, sans-serif" font-size="14" font-weight="900" fill="#64748b" text-anchor="middle" dominant-baseline="middle">2</text>
  <text x="35.00" y="238.00" font-family="Inter, sans-serif" font-size="14" font-weight="900" fill="#64748b" text-anchor="middle" dominant-baseline="middle">3</text>
  <text x="35.00" y="278.00" font-family="Inter, sans-serif" font-size="14" font-weight="900" fill="#64748b" text-anchor="middle" dominant-baseline="middle">4</text>
  <text x="35.00" y="318.00" font-family="Inter, sans-serif" font-size="14" font-weight="900" fill="#64748b" text-anchor="middle" dominant-baseline="middle">5</text>
  <text x="35.00" y="358.00" font-family="Inter, sans-serif" font-size="14" font-weight="900" fill="#64748b" text-anchor="middle" dominant-baseline="middle">6</text>
  <text x="35.00" y="398.00" font-family="Inter, sans-serif" font-size="14" font-weight="900" fill="#64748b" text-anchor="middle" dominant-baseline="middle">7</text>
  <rect x="60.00" y="135.00" width="36.00" height="36.00" fill="#f8fafc" stroke="#cbd5e1" stroke-width="1" rx="6"  />
  <rect x="740.00" y="135.00" width="36.00" height="36.00" fill="#f8fafc" stroke="#cbd5e1" stroke-width="1" rx="6"  />
  <rect x="60.00" y="175.00" width="36.00" height="36.00" fill="#f8fafc" stroke="#cbd5e1" stroke-width="1" rx="6"  />
  <rect x="100.00" y="175.00" width="36.00" height="36.00" fill="#f8fafc" stroke="#cbd5e1" stroke-width="1" rx="6"  />
  <rect x="540.00" y="175.00" width="36.00" height="36.00" fill="#f8fafc" stroke="#cbd5e1" stroke-width="1" rx="6"  />
  <rect x="580.00" y="175.00" width="36.00" height="36.00" fill="#f8fafc" stroke="#cbd5e1" stroke-width="1" rx="6"  />
  <rect x="620.00" y="175.00" width="36.00" height="36.00" fill="#f8fafc" stroke="#cbd5e1" stroke-width="1" rx="6"  />
  <rect x="660.00" y="175.00" width="36.00" height="36.00" fill="#f8fafc" stroke="#cbd5e1" stroke-width="1" rx="6"  />
  <rect x="700.00" y="175.00" width="36.00" height="36.00" fill="#f8fafc" stroke="#cbd5e1" stroke-width="1" rx="6"  />
  <rect x="740.00" y="175.00" width="36.00" height="36.00" fill="#f8fafc" stroke="#cbd5e1" stroke-width="1" rx="6"  />
  <rect x="60.00" y="215.00" width="36.00" height="36.00" fill="#f8fafc" stroke="#cbd5e1" stroke-width="1" rx="6"  />
  <rect x="100.00" y="215.00" width="36.00" height="36.00" fill="#f8fafc" stroke="#cbd5e1" stroke-width="1" rx="6"  />
  <rect x="540.00" y="215.00" width="36.00" height="36.00" fill="#f8fafc" stroke="#cbd5e1" stroke-width="1" rx="6"  />
  <rect x="580.00" y="215.00" width="36.00" height="36.00" fill="#f8fafc" stroke="#cbd5e1" stroke-width="1" rx="6"  />
  <rect x="620.00" y="215.00" width="36.00" height="36.00" fill="#f8fafc" stroke="#cbd5e1" stroke-width="1" rx="6"  />
  <rect x="660.00" y="215.00" width="36.00" height="36.00" fill="#f8fafc" stroke="#cbd5e1" stroke-width="1" rx="6"  />
  <rect x="700.00" y="215.00" width="36.00" height="36.00" fill="#f8fafc" stroke="#cbd5e1" stroke-width="1" rx="6"  />
  <rect x="740.00" y="215.00" width="36.00" height="36.00" fill="#f8fafc" stroke="#cbd5e1" stroke-width="1" rx="6"  />
  <rect x="60.00" y="255.00" width="36.00" height="36.00" fill="#f8fafc" stroke="#cbd5e1" stroke-width="1" rx="6"  />
  <rect x="100.00" y="255.00" width="36.00" height="36.00" fill="#f8fafc" stroke="#cbd5e1" stroke-width="1" rx="6"  />
  <rect x="140.00" y="255.00" width="36.00" height="36.00" fill="#f1f5f9" stroke="#e2e8f0" stroke-width="0.8" rx="6" fill-opacity="0.3" />
  <rect x="180.00" y="255.00" width="36.00" height="36.00" fill="#f1f5f9" stroke="#e2e8f0" stroke-width="0.8" rx="6" fill-opacity="0.3" />
  <rect x="220.00" y="255.00" width="36.00" height="36.00" fill="#f1f5f9" stroke="#e2e8f0" stroke-width="0.8" rx="6" fill-opacity="0.3" />
  <rect x="260.00" y="255.00" width="36.00" height="36.00" fill="#f1f5f9" stroke="#e2e8f0" stroke-width="0.8" rx="6" fill-opacity="0.3" />
  <rect x="300.00" y="255.00" width="36.00" height="36.00" fill="#f1f5f9" stroke="#e2e8f0" stroke-width="0.8" rx="6" fill-opacity="0.3" />
  <rect x="340.00" y="255.00" width="36.00" height="36.00" fill="#f1f5f9" stroke="#e2e8f0" stroke-width="0.8" rx="6" fill-opacity="0.3" />
  <rect x="380.00" y="255.00" width="36.00" height="36.00" fill="#f1f5f9" stroke="#e2e8f0" stroke-width="0.8" rx="6" fill-opacity="0.3" />
  <rect x="420.00" y="255.00" width="36.00" height="36.00" fill="#f1f5f9" stroke="#e2e8f0" stroke-width="0.8" rx="6" fill-opacity="0.3" />
  <rect x="460.00" y="255.00" width="36.00" height="36.00" fill="#f1f5f9" stroke="#e2e8f0" stroke-width="0.8" rx="6" fill-opacity="0.3" />
  <rect x="500.00" y="255.00" width="36.00" height="36.00" fill="#f1f5f9" stroke="#e2e8f0" stroke-width="0.8" rx="6" fill-opacity="0.3" />
  <rect x="540.00" y="255.00" width="36.00" height="36.00" fill="#f8fafc" stroke="#cbd5e1" stroke-width="1" rx="6"  />
  <rect x="580.00" y="255.00" width="36.00" height="36.00" fill="#f8fafc" stroke="#cbd5e1" stroke-width="1" rx="6"  />
  <rect x="620.00" y="255.00" width="36.00" height="36.00" fill="#f8fafc" stroke="#cbd5e1" stroke-width="1" rx="6"  />
  <rect x="660.00" y="255.00" width="36.00" height="36.00" fill="#f8fafc" stroke="#cbd5e1" stroke-width="1" rx="6"  />
  <rect x="700.00" y="255.00" width="36.00" height="36.00" fill="#f8fafc" stroke="#cbd5e1" stroke-width="1" rx="6"  />
  <rect x="740.00" y="255.00" width="36.00" height="36.00" fill="#f8fafc" stroke="#cbd5e1" stroke-width="1" rx="6"  />
  <rect x="60.00" y="295.00" width="36.00" height="36.00" fill="#f8fafc" stroke="#cbd5e1" stroke-width="1" rx="6"  />
  <rect x="100.00" y="295.00" width="36.00" height="36.00" fill="#10b981" stroke="#10b981" stroke-width="4" rx="6"  />
  <rect x="140.00" y="295.00" width="36.00" height="36.00" fill="#f1f5f9" stroke="#e2e8f0" stroke-width="0.8" rx="6" fill-opacity="0.3" />
  <rect x="180.00" y="295.00" width="36.00" height="36.00" fill="#f1f5f9" stroke="#e2e8f0" stroke-width="0.8" rx="6" fill-opacity="0.3" />
  <rect x="220.00" y="295.00" width="36.00" height="36.00" fill="#f1f5f9" stroke="#e2e8f0" stroke-width="0.8" rx="6" fill-opacity="0.3" />
  <rect x="260.00" y="295.00" width="36.00" height="36.00" fill="#f1f5f9" stroke="#e2e8f0" stroke-width="0.8" rx="6" fill-opacity="0.3" />
  <rect x="300.00" y="295.00" width="36.00" height="36.00" fill="#f1f5f9" stroke="#e2e8f0" stroke-width="0.8" rx="6" fill-opacity="0.3" />
  <rect x="340.00" y="295.00" width="36.00" height="36.00" fill="#f1f5f9" stroke="#e2e8f0" stroke-width="0.8" rx="6" fill-opacity="0.3" />
  <rect x="380.00" y="295.00" width="36.00" height="36.00" fill="#f1f5f9" stroke="#e2e8f0" stroke-width="0.8" rx="6" fill-opacity="0.3" />
  <rect x="420.00" y="295.00" width="36.00" height="36.00" fill="#f1f5f9" stroke="#e2e8f0" stroke-width="0.8" rx="6" fill-opacity="0.3" />
  <rect x="460.00" y="295.00" width="36.00" height="36.00" fill="#f1f5f9" stroke="#e2e8f0" stroke-width="0.8" rx="6" fill-opacity="0.3" />
  <rect x="500.00" y="295.00" width="36.00" height="36.00" fill="#f1f5f9" stroke="#e2e8f0" stroke-width="0.8" rx="6" fill-opacity="0.3" />
  <rect x="540.00" y="295.00" width="36.00" height="36.00" fill="#f8fafc" stroke="#cbd5e1" stroke-width="1" rx="6"  />
  <rect x="580.00" y="295.00" width="36.00" height="36.00" fill="#f8fafc" stroke="#cbd5e1" stroke-width="1" rx="6"  />
  <rect x="620.00" y="295.00" width="36.00" height="36.00" fill="#f8fafc" stroke="#cbd5e1" stroke-width="1" rx="6"  />
  <rect x="660.00" y="295.00" width="36.00" height="36.00" fill="#f8fafc" stroke="#cbd5e1" stroke-width="1" rx="6"  />
  <rect x="700.00" y="295.00" width="36.00" height="36.00" fill="#f8fafc" stroke="#cbd5e1" stroke-width="1" rx="6"  />
  <rect x="740.00" y="295.00" width="36.00" height="36.00" fill="#f8fafc" stroke="#cbd5e1" stroke-width="1" rx="6"  />
  <rect x="60.00" y="335.00" width="36.00" height="36.00" fill="#f8fafc" stroke="#cbd5e1" stroke-width="1" rx="6"  />
  <rect x="100.00" y="335.00" width="36.00" height="36.00" fill="#f8fafc" stroke="#cbd5e1" stroke-width="1" rx="6"  />
  <rect x="140.00" y="335.00" width="36.00" height="36.00" fill="#f1f5f9" stroke="#e2e8f0" stroke-width="0.8" rx="6" fill-opacity="0.3" />
  <rect x="180.00" y="335.00" width="36.00" height="36.00" fill="#f1f5f9" stroke="#e2e8f0" stroke-width="0.8" rx="6" fill-opacity="0.3" />
  <rect x="220.00" y="335.00" width="36.00" height="36.00" fill="#f1f5f9" stroke="#e2e8f0" stroke-width="0.8" rx="6" fill-opacity="0.3" />
  <rect x="260.00" y="335.00" width="36.00" height="36.00" fill="#f1f5f9" stroke="#e2e8f0" stroke-width="0.8" rx="6" fill-opacity="0.3" />
  <rect x="300.00" y="335.00" width="36.00" height="36.00" fill="#f1f5f9" stroke="#e2e8f0" stroke-width="0.8" rx="6" fill-opacity="0.3" />
  <rect x="340.00" y="335.00" width="36.00" height="36.00" fill="#f1f5f9" stroke="#e2e8f0" stroke-width="0.8" rx="6" fill-opacity="0.3" />
  <rect x="380.00" y="335.00" width="36.00" height="36.00" fill="#f1f5f9" stroke="#e2e8f0" stroke-width="0.8" rx="6" fill-opacity="0.3" />
  <rect x="420.00" y="335.00" width="36.00" height="36.00" fill="#f1f5f9" stroke="#e2e8f0" stroke-width="0.8" rx="6" fill-opacity="0.3" />
  <rect x="460.00" y="335.00" width="36.00" height="36.00" fill="#f1f5f9" stroke="#e2e8f0" stroke-width="0.8" rx="6" fill-opacity="0.3" />
  <rect x="500.00" y="335.00" width="36.00" height="36.00" fill="#f1f5f9" stroke="#e2e8f0" stroke-width="0.8" rx="6" fill-opacity="0.3" />
  <rect x="540.00" y="335.00" width="36.00" height="36.00" fill="#f8fafc" stroke="#cbd5e1" stroke-width="1" rx="6"  />
  <rect x="580.00" y="335.00" width="36.00" height="36.00" fill="#f8fafc" stroke="#cbd5e1" stroke-width="1" rx="6"  />
  <rect x="620.00" y="335.00" width="36.00" height="36.00" fill="#f8fafc" stroke="#cbd5e1" stroke-width="1" rx="6"  />
  <rect x="660.00" y="335.00" width="36.00" height="36.00" fill="#f8fafc" stroke="#cbd5e1" stroke-width="1" rx="6"  />
  <rect x="700.00" y="335.00" width="36.00" height="36.00" fill="#f8fafc" stroke="#cbd5e1" stroke-width="1" rx="6"  />
  <rect x="740.00" y="335.00" width="36.00" height="36.00" fill="#f8fafc" stroke="#cbd5e1" stroke-width="1" rx="6"  />
  <rect x="60.00" y="375.00" width="36.00" height="36.00" fill="#f8fafc" stroke="#cbd5e1" stroke-width="1" rx="6"  />
  <rect x="100.00" y="375.00" width="36.00" height="36.00" fill="#f8fafc" stroke="#cbd5e1" stroke-width="1" rx="6"  />
  <rect x="140.00" y="375.00" width="36.00" height="36.00" fill="#f1f5f9" stroke="#e2e8f0" stroke-width="0.8" rx="6" fill-opacity="0.3" />
  <rect x="180.00" y="375.00" width="36.00" height="36.00" fill="#f1f5f9" stroke="#e2e8f0" stroke-width="0.8" rx="6" fill-opacity="0.3" />
  <rect x="220.00" y="375.00" width="36.00" height="36.00" fill="#f1f5f9" stroke="#e2e8f0" stroke-width="0.8" rx="6" fill-opacity="0.3" />
  <rect x="260.00" y="375.00" width="36.00" height="36.00" fill="#f1f5f9" stroke="#e2e8f0" stroke-width="0.8" rx="6" fill-opacity="0.3" />
  <rect x="300.00" y="375.00" width="36.00" height="36.00" fill="#f1f5f9" stroke="#e2e8f0" stroke-width="0.8" rx="6" fill-opacity="0.3" />
  <rect x="340.00" y="375.00" width="36.00" height="36.00" fill="#f1f5f9" stroke="#e2e8f0" stroke-width="0.8" rx="6" fill-opacity="0.3" />
  <rect x="380.00" y="375.00" width="36.00" height="36.00" fill="#f1f5f9" stroke="#e2e8f0" stroke-width="0.8" rx="6" fill-opacity="0.3" />
  <rect x="420.00" y="375.00" width="36.00" height="36.00" fill="#f1f5f9" stroke="#e2e8f0" stroke-width="0.8" rx="6" fill-opacity="0.3" />
  <rect x="460.00" y="375.00" width="36.00" height="36.00" fill="#f1f5f9" stroke="#e2e8f0" stroke-width="0.8" rx="6" fill-opacity="0.3" />
  <rect x="500.00" y="375.00" width="36.00" height="36.00" fill="#f1f5f9" stroke="#e2e8f0" stroke-width="0.8" rx="6" fill-opacity="0.3" />
  <rect x="540.00" y="375.00" width="36.00" height="36.00" fill="#f8fafc" stroke="#cbd5e1" stroke-width="1" rx="6"  />
  <rect x="580.00" y="375.00" width="36.00" height="36.00" fill="#f8fafc" stroke="#cbd5e1" stroke-width="1" rx="6"  />
  <rect x="620.00" y="375.00" width="36.00" height="36.00" fill="#f8fafc" stroke="#cbd5e1" stroke-width="1" rx="6"  />
  <rect x="660.00" y="375.00" width="36.00" height="36.00" fill="#f8fafc" stroke="#cbd5e1" stroke-width="1" rx="6"  />
  <rect x="700.00" y="375.00" width="36.00" height="36.00" fill="#f8fafc" stroke="#cbd5e1" stroke-width="1" rx="6"  />
  <rect x="740.00" y="375.00" width="36.00" height="36.00" fill="#f8fafc" stroke="#cbd5e1" stroke-width="1" rx="6"  />
</svg>