<svg xmlns="http://www.w3.org/2000/svg" viewBox="0 0 650 450" 
style="font-family: Inter, system-ui, sans-serif;">
<rect width="650" height="450" fill="#f8fafc"/>

<!-- Título -->
<text x="325.0" y="30" text-anchor="middle" font-size="18" font-weight="bold" fill="#1e293b">Ley de Senos</text>

<polygon points="100,350 400,350 250,120" fill="#f1f5f9" stroke="#1e293b" stroke-width="3" stroke-linejoin="round"/>
<circle cx="100" cy="350" r="6" fill="#1e293b"/>
<text x="80" y="365" font-size="16" font-weight="bold" fill="#1e293b">A</text>
<circle cx="400" cy="350" r="6" fill="#1e293b"/>
<text x="415" y="365" font-size="16" font-weight="bold" fill="#1e293b">B</text>
<circle cx="250" cy="120" r="6" fill="#1e293b"/>
<text x="250" y="105" font-size="16" font-weight="bold" fill="#1e293b">C</text>
<line x1="400" y1="350" x2="250" y2="120" stroke="#ef4444" stroke-width="4"/>
<text x="345.0" y="235.0" font-size="18" font-weight="bold" fill="#ef4444">a</text>
<line x1="100" y1="350" x2="250" y2="120" stroke="#3b82f6" stroke-width="4"/>
<text x="150.0" y="235.0" font-size="18" font-weight="bold" fill="#3b82f6">b</text>
<line x1="100" y1="350" x2="400" y2="350" stroke="#22c55e" stroke-width="4"/>
<text x="250.0" y="375.0" text-anchor="middle" font-size="18" font-weight="bold" fill="#22c55e">c</text>
<rect x="450" y="80" width="180" height="120" rx="10" fill="white" stroke="#e2e8f0" stroke-width="2"/>
<text x="540" y="110" text-anchor="middle" font-size="12" font-weight="bold" fill="#1e293b">LEY DE SENOS</text>
<text x="540" y="145" text-anchor="middle" font-size="14" fill="#ef4444">a/sin A</text>
<text x="540" y="165" text-anchor="middle" font-size="14" fill="#1e293b">=</text>
<text x="490" y="185" text-anchor="middle" font-size="14" fill="#3b82f6">b/sin B</text>
<text x="540" y="185" text-anchor="middle" font-size="14" fill="#1e293b">=</text>
<text x="590" y="185" text-anchor="middle" font-size="14" fill="#22c55e">c/sin C</text>
<rect x="450" y="220" width="180" height="80" rx="8" fill="#f1f5f9" stroke="#e2e8f0"/>
<text x="460" y="245" font-size="10" fill="#1e293b">💡 Cada lado dividido</text>
<text x="460" y="262" font-size="10" fill="#1e293b">por el seno de su ángulo</text>
<text x="460" y="279" font-size="10" fill="#1e293b">opuesto es constante.</text>
<rect x="40" y="380" width="570" height="55" rx="8" fill="white" stroke="#f97316" stroke-width="2"/>
<text x="55" y="405" font-size="11" font-weight="bold" fill="#f97316">📋 USAR CUANDO:</text>
<text x="200" y="405" font-size="11" fill="#1e293b">Caso ALA (2 ángulos + 1 lado)</text>
<text x="430" y="405" font-size="11" fill="#1e293b">Caso LLA (con cuidado: caso ambiguo)</text>
</svg>