<svg xmlns="http://www.w3.org/2000/svg" viewBox="0 0 650 450" 
style="max-width: 100%; height: auto; font-family: Inter, system-ui, sans-serif;">

  <style>
    .wave-path {
      stroke-dasharray: 3000;
      stroke-dashoffset: 3000;
      animation: drawWave 2s ease-out forwards;
    }
    .marker-group { opacity: 0; animation: fadeIn 0.5s ease-out 2s forwards; }
    .label-group { opacity: 0; animation: fadeIn 0.5s ease-out 2.3s forwards; }
    .annotation-group { opacity: 0; animation: fadeIn 0.5s ease-out 2.5s forwards; }
    @keyframes drawWave { to { stroke-dashoffset: 0; } }
    @keyframes fadeIn { to { opacity: 1; } }
  </style>

  <rect width="650" height="450" fill="#f8fafc" rx="8"/>
  <text x="325.0" y="25" text-anchor="middle" font-size="16" font-weight="bold" fill="#1e293b">Ejemplo 2: Punto Medio entre A(2, 10) y B(8, 4)</text>
  <g class="grid">
    <line x1="75.0" y1="75" x2="75.0" y2="375" stroke="#e2e8f0" stroke-dasharray="4,4"/>
    <line x1="125.0" y1="75" x2="125.0" y2="375" stroke="#e2e8f0" stroke-dasharray="4,4"/>
    <line x1="175.0" y1="75" x2="175.0" y2="375" stroke="#e2e8f0" stroke-dasharray="4,4"/>
    <line x1="225.0" y1="75" x2="225.0" y2="375" stroke="#e2e8f0" stroke-dasharray="4,4"/>
    <line x1="275.0" y1="75" x2="275.0" y2="375" stroke="#e2e8f0" stroke-dasharray="4,4"/>
    <line x1="325.0" y1="75" x2="325.0" y2="375" stroke="#e2e8f0" stroke-dasharray="4,4"/>
    <line x1="375.0" y1="75" x2="375.0" y2="375" stroke="#e2e8f0" stroke-dasharray="4,4"/>
    <line x1="425.0" y1="75" x2="425.0" y2="375" stroke="#e2e8f0" stroke-dasharray="4,4"/>
    <line x1="475.0" y1="75" x2="475.0" y2="375" stroke="#e2e8f0" stroke-dasharray="4,4"/>
    <line x1="525.0" y1="75" x2="525.0" y2="375" stroke="#e2e8f0" stroke-dasharray="4,4"/>
    <line x1="575.0" y1="75" x2="575.0" y2="375" stroke="#e2e8f0" stroke-dasharray="4,4"/>
    <line x1="75" y1="325.0" x2="575" y2="325.0" stroke="#e2e8f0" stroke-dasharray="4,4"/>
    <line x1="75" y1="275.0" x2="575" y2="275.0" stroke="#e2e8f0" stroke-dasharray="4,4"/>
    <line x1="75" y1="225.0" x2="575" y2="225.0" stroke="#e2e8f0" stroke-dasharray="4,4"/>
    <line x1="75" y1="175.0" x2="575" y2="175.0" stroke="#e2e8f0" stroke-dasharray="4,4"/>
    <line x1="75" y1="125.0" x2="575" y2="125.0" stroke="#e2e8f0" stroke-dasharray="4,4"/>
    <line x1="75" y1="75.0" x2="575" y2="75.0" stroke="#e2e8f0" stroke-dasharray="4,4"/>
  </g>
  <g class="axes">
    <line x1="75" y1="375.0" x2="575" y2="375.0" stroke="#374151" stroke-width="2"/>
    <polygon points="575,375.0 567,371.0 567,379.0" fill="#374151"/>
    <line x1="75.0" y1="75" x2="75.0" y2="375" stroke="#374151" stroke-width="2"/>
    <polygon points="75.0,75 71.0,83 79.0,83" fill="#374151"/>
    <text x="635" y="360.0" text-anchor="end" font-size="14" font-weight="bold" fill="#374151">x</text>
    <text x="75.0" y="60.0" text-anchor="middle" font-size="14" font-weight="bold" fill="#374151">y</text>
    <line x1="125.0" y1="371.0" x2="125.0" y2="379.0" stroke="#374151" stroke-width="1.5"/>
    <text x="125.0" y="395.0" text-anchor="middle" font-size="12" fill="#374151">1</text>
    <line x1="175.0" y1="371.0" x2="175.0" y2="379.0" stroke="#374151" stroke-width="1.5"/>
    <text x="175.0" y="395.0" text-anchor="middle" font-size="12" fill="#374151">2</text>
    <line x1="225.0" y1="371.0" x2="225.0" y2="379.0" stroke="#374151" stroke-width="1.5"/>
    <text x="225.0" y="395.0" text-anchor="middle" font-size="12" fill="#374151">3</text>
    <line x1="275.0" y1="371.0" x2="275.0" y2="379.0" stroke="#374151" stroke-width="1.5"/>
    <text x="275.0" y="395.0" text-anchor="middle" font-size="12" fill="#374151">4</text>
    <line x1="325.0" y1="371.0" x2="325.0" y2="379.0" stroke="#374151" stroke-width="1.5"/>
    <text x="325.0" y="395.0" text-anchor="middle" font-size="12" fill="#374151">5</text>
    <line x1="375.0" y1="371.0" x2="375.0" y2="379.0" stroke="#374151" stroke-width="1.5"/>
    <text x="375.0" y="395.0" text-anchor="middle" font-size="12" fill="#374151">6</text>
    <line x1="425.0" y1="371.0" x2="425.0" y2="379.0" stroke="#374151" stroke-width="1.5"/>
    <text x="425.0" y="395.0" text-anchor="middle" font-size="12" fill="#374151">7</text>
    <line x1="475.0" y1="371.0" x2="475.0" y2="379.0" stroke="#374151" stroke-width="1.5"/>
    <text x="475.0" y="395.0" text-anchor="middle" font-size="12" fill="#374151">8</text>
    <line x1="525.0" y1="371.0" x2="525.0" y2="379.0" stroke="#374151" stroke-width="1.5"/>
    <text x="525.0" y="395.0" text-anchor="middle" font-size="12" fill="#374151">9</text>
    <line x1="575.0" y1="371.0" x2="575.0" y2="379.0" stroke="#374151" stroke-width="1.5"/>
    <text x="575.0" y="395.0" text-anchor="middle" font-size="12" fill="#374151">10</text>
    <line x1="71.0" y1="325.0" x2="79.0" y2="325.0" stroke="#374151" stroke-width="1.5"/>
    <text x="63.0" y="329.0" text-anchor="end" font-size="12" fill="#374151">2</text>
    <line x1="71.0" y1="275.0" x2="79.0" y2="275.0" stroke="#374151" stroke-width="1.5"/>
    <text x="63.0" y="279.0" text-anchor="end" font-size="12" fill="#374151">4</text>
    <line x1="71.0" y1="225.0" x2="79.0" y2="225.0" stroke="#374151" stroke-width="1.5"/>
    <text x="63.0" y="229.0" text-anchor="end" font-size="12" fill="#374151">6</text>
    <line x1="71.0" y1="175.0" x2="79.0" y2="175.0" stroke="#374151" stroke-width="1.5"/>
    <text x="63.0" y="179.0" text-anchor="end" font-size="12" fill="#374151">8</text>
    <line x1="71.0" y1="125.0" x2="79.0" y2="125.0" stroke="#374151" stroke-width="1.5"/>
    <text x="63.0" y="129.0" text-anchor="end" font-size="12" fill="#374151">10</text>
    <line x1="71.0" y1="75.0" x2="79.0" y2="75.0" stroke="#374151" stroke-width="1.5"/>
    <text x="63.0" y="79.0" text-anchor="end" font-size="12" fill="#374151">12</text>
  </g>
  <g class="marker-group">
    <circle cx="175.0" cy="125.0" r="6" fill="#3b82f6" stroke="white" stroke-width="2"/>
    <circle cx="475.0" cy="275.0" r="6" fill="#22c55e" stroke="white" stroke-width="2"/>
    <circle cx="325.0" cy="200.0" r="6" fill="#f97316" stroke="white" stroke-width="2"/>
  </g>
  <g class="label-group">
    <rect x="125.0" y="98.0" width="100" height="16" fill="white" fill-opacity="0.9" rx="3"/>
    <text x="175.0" y="110.0" text-anchor="middle" font-size="11" font-weight="bold" fill="#3b82f6">A(2, 10)</text>
    <rect x="425.0" y="288.0" width="100" height="16" fill="white" fill-opacity="0.9" rx="3"/>
    <text x="475.0" y="300.0" text-anchor="middle" font-size="11" font-weight="bold" fill="#22c55e">B(8, 4)</text>
    <rect x="290.0" y="192.0" width="100" height="16" fill="white" fill-opacity="0.9" rx="3"/>
    <text x="340.0" y="204.0" text-anchor="start" font-size="11" font-weight="bold" fill="#f97316">M(5, 7)</text>
  </g>
  <g class="annotation-group">
    <line x1="175.0" y1="125.0" x2="325.0" y2="200.0" stroke="#9ca3af" stroke-width="2.5"/>
    <polygon points="325.0,200.0 315.0,199.4 318.5,192.4" fill="#9ca3af"/>
    <line x1="325.0" y1="200.0" x2="475.0" y2="275.0" stroke="#9ca3af" stroke-width="2.5"/>
    <polygon points="475.0,275.0 465.0,274.4 468.5,267.4" fill="#9ca3af"/>
    <text x="325.0" y="162.5" text-anchor="middle" font-size="12" font-weight="normal" fill="#64748b">Promedio:</text>
    <text x="325.0" y="176.5" text-anchor="middle" font-size="12" font-weight="normal" fill="#64748b">(2+8)/2 = 5</text>
    <text x="325.0" y="190.5" text-anchor="middle" font-size="12" font-weight="normal" fill="#64748b">(10+4)/2 = 7</text>
  </g>
</svg>