<svg xmlns="http://www.w3.org/2000/svg" viewBox="0 0 650 450" 
style="max-width: 100%; height: auto; font-family: Inter, system-ui, sans-serif;">

  <style>
    .wave-path {
      stroke-dasharray: 3000;
      stroke-dashoffset: 3000;
      animation: drawWave 2s ease-out forwards;
    }
    .marker-group { opacity: 0; animation: fadeIn 0.5s ease-out 2s forwards; }
    .label-group { opacity: 0; animation: fadeIn 0.5s ease-out 2.3s forwards; }
    .annotation-group { opacity: 0; animation: fadeIn 0.5s ease-out 2.5s forwards; }
    @keyframes drawWave { to { stroke-dashoffset: 0; } }
    @keyframes fadeIn { to { opacity: 1; } }
  </style>

  <rect width="650" height="450" fill="#f8fafc" rx="8"/>
  <text x="325.0" y="25" text-anchor="middle" font-size="16" font-weight="bold" fill="#1e293b">Ejemplo 1: Distancia P1(1,2) a P2(4,6)</text>
  <g class="grid">
    <line x1="75.0" y1="75" x2="75.0" y2="375" stroke="#e2e8f0" stroke-dasharray="4,4"/>
    <line x1="158.3" y1="75" x2="158.3" y2="375" stroke="#e2e8f0" stroke-dasharray="4,4"/>
    <line x1="241.7" y1="75" x2="241.7" y2="375" stroke="#e2e8f0" stroke-dasharray="4,4"/>
    <line x1="325.0" y1="75" x2="325.0" y2="375" stroke="#e2e8f0" stroke-dasharray="4,4"/>
    <line x1="408.3" y1="75" x2="408.3" y2="375" stroke="#e2e8f0" stroke-dasharray="4,4"/>
    <line x1="491.7" y1="75" x2="491.7" y2="375" stroke="#e2e8f0" stroke-dasharray="4,4"/>
    <line x1="575.0" y1="75" x2="575.0" y2="375" stroke="#e2e8f0" stroke-dasharray="4,4"/>
    <line x1="75" y1="332.1" x2="575" y2="332.1" stroke="#e2e8f0" stroke-dasharray="4,4"/>
    <line x1="75" y1="289.3" x2="575" y2="289.3" stroke="#e2e8f0" stroke-dasharray="4,4"/>
    <line x1="75" y1="246.4" x2="575" y2="246.4" stroke="#e2e8f0" stroke-dasharray="4,4"/>
    <line x1="75" y1="203.6" x2="575" y2="203.6" stroke="#e2e8f0" stroke-dasharray="4,4"/>
    <line x1="75" y1="160.7" x2="575" y2="160.7" stroke="#e2e8f0" stroke-dasharray="4,4"/>
    <line x1="75" y1="117.9" x2="575" y2="117.9" stroke="#e2e8f0" stroke-dasharray="4,4"/>
    <line x1="75" y1="75.0" x2="575" y2="75.0" stroke="#e2e8f0" stroke-dasharray="4,4"/>
  </g>
  <g class="axes">
    <line x1="75" y1="375.0" x2="575" y2="375.0" stroke="#374151" stroke-width="2"/>
    <polygon points="575,375.0 567,371.0 567,379.0" fill="#374151"/>
    <line x1="75.0" y1="75" x2="75.0" y2="375" stroke="#374151" stroke-width="2"/>
    <polygon points="75.0,75 71.0,83 79.0,83" fill="#374151"/>
    <text x="635" y="360.0" text-anchor="end" font-size="14" font-weight="bold" fill="#374151">x</text>
    <text x="75.0" y="60.0" text-anchor="middle" font-size="14" font-weight="bold" fill="#374151">y</text>
    <line x1="158.3" y1="371.0" x2="158.3" y2="379.0" stroke="#374151" stroke-width="1.5"/>
    <text x="158.3" y="395.0" text-anchor="middle" font-size="12" fill="#374151">1</text>
    <line x1="241.7" y1="371.0" x2="241.7" y2="379.0" stroke="#374151" stroke-width="1.5"/>
    <text x="241.7" y="395.0" text-anchor="middle" font-size="12" fill="#374151">2</text>
    <line x1="325.0" y1="371.0" x2="325.0" y2="379.0" stroke="#374151" stroke-width="1.5"/>
    <text x="325.0" y="395.0" text-anchor="middle" font-size="12" fill="#374151">3</text>
    <line x1="408.3" y1="371.0" x2="408.3" y2="379.0" stroke="#374151" stroke-width="1.5"/>
    <text x="408.3" y="395.0" text-anchor="middle" font-size="12" fill="#374151">4</text>
    <line x1="491.7" y1="371.0" x2="491.7" y2="379.0" stroke="#374151" stroke-width="1.5"/>
    <text x="491.7" y="395.0" text-anchor="middle" font-size="12" fill="#374151">5</text>
    <line x1="575.0" y1="371.0" x2="575.0" y2="379.0" stroke="#374151" stroke-width="1.5"/>
    <text x="575.0" y="395.0" text-anchor="middle" font-size="12" fill="#374151">6</text>
    <line x1="71.0" y1="332.1" x2="79.0" y2="332.1" stroke="#374151" stroke-width="1.5"/>
    <text x="63.0" y="336.1" text-anchor="end" font-size="12" fill="#374151">1</text>
    <line x1="71.0" y1="289.3" x2="79.0" y2="289.3" stroke="#374151" stroke-width="1.5"/>
    <text x="63.0" y="293.3" text-anchor="end" font-size="12" fill="#374151">2</text>
    <line x1="71.0" y1="246.4" x2="79.0" y2="246.4" stroke="#374151" stroke-width="1.5"/>
    <text x="63.0" y="250.4" text-anchor="end" font-size="12" fill="#374151">3</text>
    <line x1="71.0" y1="203.6" x2="79.0" y2="203.6" stroke="#374151" stroke-width="1.5"/>
    <text x="63.0" y="207.6" text-anchor="end" font-size="12" fill="#374151">4</text>
    <line x1="71.0" y1="160.7" x2="79.0" y2="160.7" stroke="#374151" stroke-width="1.5"/>
    <text x="63.0" y="164.7" text-anchor="end" font-size="12" fill="#374151">5</text>
    <line x1="71.0" y1="117.9" x2="79.0" y2="117.9" stroke="#374151" stroke-width="1.5"/>
    <text x="63.0" y="121.9" text-anchor="end" font-size="12" fill="#374151">6</text>
    <line x1="71.0" y1="75.0" x2="79.0" y2="75.0" stroke="#374151" stroke-width="1.5"/>
    <text x="63.0" y="79.0" text-anchor="end" font-size="12" fill="#374151">7</text>
  </g>
  <g class="marker-group">
    <circle cx="158.3" cy="289.3" r="6" fill="#3b82f6" stroke="white" stroke-width="2"/>
    <circle cx="408.3" cy="117.9" r="6" fill="#22c55e" stroke="white" stroke-width="2"/>
  </g>
  <g class="label-group">
    <rect x="108.33333333333331" y="302.2857142857143" width="100" height="16" fill="white" fill-opacity="0.9" rx="3"/>
    <text x="158.3" y="314.3" text-anchor="middle" font-size="11" font-weight="bold" fill="#3b82f6">P1(1, 2)</text>
    <rect x="358.3333333333333" y="90.85714285714286" width="100" height="16" fill="white" fill-opacity="0.9" rx="3"/>
    <text x="408.3" y="102.9" text-anchor="middle" font-size="11" font-weight="bold" fill="#22c55e">P2(4, 6)</text>
  </g>
  <g class="annotation-group">
    <line x1="158.3" y1="289.3" x2="408.3" y2="289.3" stroke="#64748b" stroke-width="2.5"/>
    <polygon points="408.3,289.3 399.1,293.2 399.1,285.4" fill="#64748b"/>
    <rect x="261.3333333333333" y="267.2857142857143" width="44" height="14" rx="3" fill="white" fill-opacity="0.9"/>
    <text x="283.3" y="277.3" text-anchor="middle" font-size="11" font-weight="bold" fill="#64748b">3 unidades</text>
    <line x1="408.3" y1="289.3" x2="408.3" y2="117.9" stroke="#64748b" stroke-width="2.5"/>
    <polygon points="408.3,117.9 412.2,127.1 404.4,127.1" fill="#64748b"/>
    <rect x="386.3333333333333" y="181.57142857142856" width="44" height="14" rx="3" fill="white" fill-opacity="0.9"/>
    <text x="408.3" y="191.6" text-anchor="middle" font-size="11" font-weight="bold" fill="#64748b">4 unidades</text>
    <line x1="158.3" y1="289.3" x2="408.3" y2="117.9" stroke="#ef4444" stroke-width="2.5"/>
    <polygon points="408.3,117.9 402.9,126.3 398.5,119.9" fill="#ef4444"/>
    <rect x="261.3333333333333" y="181.57142857142856" width="44" height="14" rx="3" fill="white" fill-opacity="0.9"/>
    <text x="283.3" y="191.6" text-anchor="middle" font-size="11" font-weight="bold" fill="#ef4444">d = 5</text>
  </g>
</svg>