<svg xmlns="http://www.w3.org/2000/svg" viewBox="0 0 400 400">
  <defs>
        <marker id="arrow-64748b-10" markerWidth="10" markerHeight="10" 
                refX="9.0" refY="5.0" orient="auto"
                markerUnits="userSpaceOnUse">
            <polygon points="0,0 10,5.0 0,10" fill="#64748b"/>
        </marker>

        <marker id="arrow-64748b-10" markerWidth="10" markerHeight="10" 
                refX="9.0" refY="5.0" orient="auto"
                markerUnits="userSpaceOnUse">
            <polygon points="0,0 10,5.0 0,10" fill="#64748b"/>
        </marker>

        <marker id="arrow-3b82f6-12" markerWidth="12" markerHeight="12" 
                refX="10.8" refY="6.0" orient="auto"
                markerUnits="userSpaceOnUse">
            <polygon points="0,0 12,6.0 0,12" fill="#3b82f6"/>
        </marker>

        <marker id="arrow-ef4444-12" markerWidth="12" markerHeight="12" 
                refX="10.8" refY="6.0" orient="auto"
                markerUnits="userSpaceOnUse">
            <polygon points="0,0 12,6.0 0,12" fill="#ef4444"/>
        </marker></defs>
  <rect x="0.00" y="0.00" width="400.00" height="400.00" fill="#f8fafc" stroke="none" stroke-width="0" rx="12"/>
  <line x1="40.00" y1="360.00" x2="40.00" y2="40.00" stroke="#e2e8f0" stroke-width="0.5"  />
  <line x1="80.00" y1="360.00" x2="80.00" y2="40.00" stroke="#e2e8f0" stroke-width="0.5"  />
  <line x1="120.00" y1="360.00" x2="120.00" y2="40.00" stroke="#e2e8f0" stroke-width="0.5"  />
  <line x1="160.00" y1="360.00" x2="160.00" y2="40.00" stroke="#e2e8f0" stroke-width="0.5"  />
  <line x1="240.00" y1="360.00" x2="240.00" y2="40.00" stroke="#e2e8f0" stroke-width="0.5"  />
  <line x1="280.00" y1="360.00" x2="280.00" y2="40.00" stroke="#e2e8f0" stroke-width="0.5"  />
  <line x1="320.00" y1="360.00" x2="320.00" y2="40.00" stroke="#e2e8f0" stroke-width="0.5"  />
  <line x1="360.00" y1="360.00" x2="360.00" y2="40.00" stroke="#e2e8f0" stroke-width="0.5"  />
  <line x1="40.00" y1="360.00" x2="360.00" y2="360.00" stroke="#e2e8f0" stroke-width="0.5"  />
  <line x1="40.00" y1="320.00" x2="360.00" y2="320.00" stroke="#e2e8f0" stroke-width="0.5"  />
  <line x1="40.00" y1="280.00" x2="360.00" y2="280.00" stroke="#e2e8f0" stroke-width="0.5"  />
  <line x1="40.00" y1="240.00" x2="360.00" y2="240.00" stroke="#e2e8f0" stroke-width="0.5"  />
  <line x1="40.00" y1="160.00" x2="360.00" y2="160.00" stroke="#e2e8f0" stroke-width="0.5"  />
  <line x1="40.00" y1="120.00" x2="360.00" y2="120.00" stroke="#e2e8f0" stroke-width="0.5"  />
  <line x1="40.00" y1="80.00" x2="360.00" y2="80.00" stroke="#e2e8f0" stroke-width="0.5"  />
  <line x1="40.00" y1="40.00" x2="360.00" y2="40.00" stroke="#e2e8f0" stroke-width="0.5"  />
  <line x1="40.00" y1="200.00" x2="360.00" y2="200.00" stroke="#64748b" stroke-width="2"  marker-end="url(#arrow-64748b-10)"/>
  <line x1="200.00" y1="360.00" x2="200.00" y2="40.00" stroke="#64748b" stroke-width="2"  marker-end="url(#arrow-64748b-10)"/>
  <text x="355.00" y="220.00" font-family="Inter, sans-serif" font-size="14" font-weight="bold" fill="#64748b" text-anchor="middle" dominant-baseline="middle">x</text>
  <text x="180.00" y="50.00" font-family="Inter, sans-serif" font-size="14" font-weight="bold" fill="#64748b" text-anchor="middle" dominant-baseline="middle">y</text>
  <line x1="40.00" y1="195.00" x2="40.00" y2="205.00" stroke="#64748b" stroke-width="1"  />
  <text x="40.00" y="218.00" font-family="Inter, sans-serif" font-size="11" font-weight="normal" fill="#64748b" text-anchor="middle" dominant-baseline="middle">-4</text>
  <line x1="80.00" y1="195.00" x2="80.00" y2="205.00" stroke="#64748b" stroke-width="1"  />
  <text x="80.00" y="218.00" font-family="Inter, sans-serif" font-size="11" font-weight="normal" fill="#64748b" text-anchor="middle" dominant-baseline="middle">-3</text>
  <line x1="120.00" y1="195.00" x2="120.00" y2="205.00" stroke="#64748b" stroke-width="1"  />
  <text x="120.00" y="218.00" font-family="Inter, sans-serif" font-size="11" font-weight="normal" fill="#64748b" text-anchor="middle" dominant-baseline="middle">-2</text>
  <line x1="160.00" y1="195.00" x2="160.00" y2="205.00" stroke="#64748b" stroke-width="1"  />
  <text x="160.00" y="218.00" font-family="Inter, sans-serif" font-size="11" font-weight="normal" fill="#64748b" text-anchor="middle" dominant-baseline="middle">-1</text>
  <line x1="240.00" y1="195.00" x2="240.00" y2="205.00" stroke="#64748b" stroke-width="1"  />
  <text x="240.00" y="218.00" font-family="Inter, sans-serif" font-size="11" font-weight="normal" fill="#64748b" text-anchor="middle" dominant-baseline="middle">1</text>
  <line x1="280.00" y1="195.00" x2="280.00" y2="205.00" stroke="#64748b" stroke-width="1"  />
  <text x="280.00" y="218.00" font-family="Inter, sans-serif" font-size="11" font-weight="normal" fill="#64748b" text-anchor="middle" dominant-baseline="middle">2</text>
  <line x1="320.00" y1="195.00" x2="320.00" y2="205.00" stroke="#64748b" stroke-width="1"  />
  <text x="320.00" y="218.00" font-family="Inter, sans-serif" font-size="11" font-weight="normal" fill="#64748b" text-anchor="middle" dominant-baseline="middle">3</text>
  <line x1="360.00" y1="195.00" x2="360.00" y2="205.00" stroke="#64748b" stroke-width="1"  />
  <text x="360.00" y="218.00" font-family="Inter, sans-serif" font-size="11" font-weight="normal" fill="#64748b" text-anchor="middle" dominant-baseline="middle">4</text>
  <line x1="195.00" y1="360.00" x2="205.00" y2="360.00" stroke="#64748b" stroke-width="1"  />
  <text x="185.00" y="360.00" font-family="Inter, sans-serif" font-size="11" font-weight="normal" fill="#64748b" text-anchor="end" dominant-baseline="middle">-4</text>
  <line x1="195.00" y1="320.00" x2="205.00" y2="320.00" stroke="#64748b" stroke-width="1"  />
  <text x="185.00" y="320.00" font-family="Inter, sans-serif" font-size="11" font-weight="normal" fill="#64748b" text-anchor="end" dominant-baseline="middle">-3</text>
  <line x1="195.00" y1="280.00" x2="205.00" y2="280.00" stroke="#64748b" stroke-width="1"  />
  <text x="185.00" y="280.00" font-family="Inter, sans-serif" font-size="11" font-weight="normal" fill="#64748b" text-anchor="end" dominant-baseline="middle">-2</text>
  <line x1="195.00" y1="240.00" x2="205.00" y2="240.00" stroke="#64748b" stroke-width="1"  />
  <text x="185.00" y="240.00" font-family="Inter, sans-serif" font-size="11" font-weight="normal" fill="#64748b" text-anchor="end" dominant-baseline="middle">-1</text>
  <line x1="195.00" y1="160.00" x2="205.00" y2="160.00" stroke="#64748b" stroke-width="1"  />
  <text x="185.00" y="160.00" font-family="Inter, sans-serif" font-size="11" font-weight="normal" fill="#64748b" text-anchor="end" dominant-baseline="middle">1</text>
  <line x1="195.00" y1="120.00" x2="205.00" y2="120.00" stroke="#64748b" stroke-width="1"  />
  <text x="185.00" y="120.00" font-family="Inter, sans-serif" font-size="11" font-weight="normal" fill="#64748b" text-anchor="end" dominant-baseline="middle">2</text>
  <line x1="195.00" y1="80.00" x2="205.00" y2="80.00" stroke="#64748b" stroke-width="1"  />
  <text x="185.00" y="80.00" font-family="Inter, sans-serif" font-size="11" font-weight="normal" fill="#64748b" text-anchor="end" dominant-baseline="middle">3</text>
  <line x1="195.00" y1="40.00" x2="205.00" y2="40.00" stroke="#64748b" stroke-width="1"  />
  <text x="185.00" y="40.00" font-family="Inter, sans-serif" font-size="11" font-weight="normal" fill="#64748b" text-anchor="end" dominant-baseline="middle">4</text>
  <text x="188.00" y="215.00" font-family="Inter, sans-serif" font-size="11" font-weight="normal" fill="#64748b" text-anchor="middle" dominant-baseline="middle">O</text>
  <line x1="200.00" y1="200.00" x2="200.00" y2="80.00" stroke="#3b82f6" stroke-width="3"  marker-end="url(#arrow-3b82f6-12)"/>
  <text x="215.00" y="85.00" font-family="Inter, sans-serif" font-size="16" font-weight="bold" fill="#3b82f6" text-anchor="middle" dominant-baseline="middle">v₁</text>
  <line x1="200.00" y1="200.00" x2="200.00" y2="320.00" stroke="#ef4444" stroke-width="3"  marker-end="url(#arrow-ef4444-12)"/>
  <text x="215.00" y="315.00" font-family="Inter, sans-serif" font-size="16" font-weight="bold" fill="#ef4444" text-anchor="middle" dominant-baseline="middle">v₂</text>
  <text x="200.00" y="25.00" font-family="Inter, sans-serif" font-size="14" font-weight="bold" fill="#1e293b" text-anchor="middle" dominant-baseline="middle">Dirección: Vertical</text>
  <text x="200.00" y="385.00" font-family="Inter, sans-serif" font-size="12" font-weight="normal" fill="#64748b" text-anchor="middle" dominant-baseline="middle">Sentidos opuestos</text>
</svg>