<svg xmlns="http://www.w3.org/2000/svg" viewBox="0 0 600 450">
  <defs>
        <marker id="arrow-64748b-10" markerWidth="10" markerHeight="10" 
                refX="9.0" refY="5.0" orient="auto"
                markerUnits="userSpaceOnUse">
            <polygon points="0,0 10,5.0 0,10" fill="#64748b"/>
        </marker>

        <marker id="arrow-64748b-10" markerWidth="10" markerHeight="10" 
                refX="9.0" refY="5.0" orient="auto"
                markerUnits="userSpaceOnUse">
            <polygon points="0,0 10,5.0 0,10" fill="#64748b"/>
        </marker>

        <marker id="arrow-3b82f6-12" markerWidth="12" markerHeight="12" 
                refX="10.8" refY="6.0" orient="auto"
                markerUnits="userSpaceOnUse">
            <polygon points="0,0 12,6.0 0,12" fill="#3b82f6"/>
        </marker>

        <marker id="arrow-ef4444-12" markerWidth="12" markerHeight="12" 
                refX="10.8" refY="6.0" orient="auto"
                markerUnits="userSpaceOnUse">
            <polygon points="0,0 12,6.0 0,12" fill="#ef4444"/>
        </marker>

        <marker id="arrow-22c55e-12" markerWidth="12" markerHeight="12" 
                refX="10.8" refY="6.0" orient="auto"
                markerUnits="userSpaceOnUse">
            <polygon points="0,0 12,6.0 0,12" fill="#22c55e"/>
        </marker></defs>
  <rect x="0.00" y="0.00" width="600.00" height="450.00" fill="#f8fafc" stroke="none" stroke-width="0" rx="0"/>
  <line x1="50.00" y1="400.00" x2="50.00" y2="50.00" stroke="#e2e8f0" stroke-width="1"  />
  <line x1="105.56" y1="400.00" x2="105.56" y2="50.00" stroke="#e2e8f0" stroke-width="1"  />
  <line x1="161.11" y1="400.00" x2="161.11" y2="50.00" stroke="#e2e8f0" stroke-width="1"  />
  <line x1="216.67" y1="400.00" x2="216.67" y2="50.00" stroke="#e2e8f0" stroke-width="1"  />
  <line x1="272.22" y1="400.00" x2="272.22" y2="50.00" stroke="#e2e8f0" stroke-width="1"  />
  <line x1="327.78" y1="400.00" x2="327.78" y2="50.00" stroke="#e2e8f0" stroke-width="1"  />
  <line x1="383.33" y1="400.00" x2="383.33" y2="50.00" stroke="#e2e8f0" stroke-width="1"  />
  <line x1="438.89" y1="400.00" x2="438.89" y2="50.00" stroke="#e2e8f0" stroke-width="1"  />
  <line x1="494.44" y1="400.00" x2="494.44" y2="50.00" stroke="#e2e8f0" stroke-width="1"  />
  <line x1="550.00" y1="400.00" x2="550.00" y2="50.00" stroke="#e2e8f0" stroke-width="1"  />
  <line x1="50.00" y1="400.00" x2="550.00" y2="400.00" stroke="#e2e8f0" stroke-width="1"  />
  <line x1="50.00" y1="350.00" x2="550.00" y2="350.00" stroke="#e2e8f0" stroke-width="1"  />
  <line x1="50.00" y1="300.00" x2="550.00" y2="300.00" stroke="#e2e8f0" stroke-width="1"  />
  <line x1="50.00" y1="250.00" x2="550.00" y2="250.00" stroke="#e2e8f0" stroke-width="1"  />
  <line x1="50.00" y1="200.00" x2="550.00" y2="200.00" stroke="#e2e8f0" stroke-width="1"  />
  <line x1="50.00" y1="150.00" x2="550.00" y2="150.00" stroke="#e2e8f0" stroke-width="1"  />
  <line x1="50.00" y1="100.00" x2="550.00" y2="100.00" stroke="#e2e8f0" stroke-width="1"  />
  <line x1="50.00" y1="50.00" x2="550.00" y2="50.00" stroke="#e2e8f0" stroke-width="1"  />
  <line x1="85.56" y1="350.00" x2="522.22" y2="350.00" stroke="#64748b" stroke-width="2"  marker-end="url(#arrow-64748b-10)"/>
  <line x1="105.56" y1="370.00" x2="105.56" y2="75.00" stroke="#64748b" stroke-width="2"  marker-end="url(#arrow-64748b-10)"/>
  <line x1="383.33" y1="300.00" x2="494.44" y2="100.00" stroke="#22c55e" stroke-width="2" stroke-dasharray="5,5" />
  <line x1="216.67" y1="150.00" x2="494.44" y2="100.00" stroke="#22c55e" stroke-width="2" stroke-dasharray="5,5" />
  <line x1="105.56" y1="350.00" x2="383.33" y2="300.00" stroke="#3b82f6" stroke-width="4"  marker-end="url(#arrow-3b82f6-12)"/>
  <text x="244.44" y="345.00" font-family="Inter, sans-serif" font-size="16" font-weight="bold" fill="#3b82f6" text-anchor="middle" dominant-baseline="middle">A</text>
  <line x1="105.56" y1="350.00" x2="216.67" y2="150.00" stroke="#ef4444" stroke-width="4"  marker-end="url(#arrow-ef4444-12)"/>
  <text x="136.11" y="250.00" font-family="Inter, sans-serif" font-size="16" font-weight="bold" fill="#ef4444" text-anchor="middle" dominant-baseline="middle">B</text>
  <line x1="105.56" y1="350.00" x2="494.44" y2="100.00" stroke="#22c55e" stroke-width="4"  marker-end="url(#arrow-22c55e-12)"/>
  <text x="310.00" y="215.00" font-family="Inter, sans-serif" font-size="16" font-weight="bold" fill="#22c55e" text-anchor="middle" dominant-baseline="middle">R</text>
  <circle cx="105.56" cy="350.00" r="4" fill="#22c55e" />
  <text x="90.56" y="365.00" font-family="Inter, sans-serif" font-size="12" font-weight="normal" fill="#22c55e" text-anchor="middle" dominant-baseline="middle">O</text>
  <text x="300.00" y="25.00" font-family="Inter, sans-serif" font-size="18" font-weight="bold" fill="#1e293b" text-anchor="middle" dominant-baseline="middle">Método del Paralelogramo</text>
</svg>