<svg xmlns="http://www.w3.org/2000/svg" viewBox="0 0 600 250">
  <defs>
        <marker id="arrow-64748b-10" markerWidth="10" markerHeight="10" 
                refX="9.0" refY="5.0" orient="auto"
                markerUnits="userSpaceOnUse">
            <polygon points="0,0 10,5.0 0,10" fill="#64748b"/>
        </marker>

        <marker id="arrow-64748b-10" markerWidth="10" markerHeight="10" 
                refX="9.0" refY="5.0" orient="auto"
                markerUnits="userSpaceOnUse">
            <polygon points="0,0 10,5.0 0,10" fill="#64748b"/>
        </marker>

        <marker id="arrow-3b82f6-10" markerWidth="10" markerHeight="10" 
                refX="9.0" refY="5.0" orient="auto"
                markerUnits="userSpaceOnUse">
            <polygon points="0,0 10,5.0 0,10" fill="#3b82f6"/>
        </marker>

        <marker id="arrow-ef4444-10" markerWidth="10" markerHeight="10" 
                refX="9.0" refY="5.0" orient="auto"
                markerUnits="userSpaceOnUse">
            <polygon points="0,0 10,5.0 0,10" fill="#ef4444"/>
        </marker></defs>
  <rect x="0.00" y="0.00" width="600.00" height="250.00" fill="#f8fafc" stroke="none" stroke-width="0" rx="0"/>
  <text x="300.00" y="25.00" font-family="Inter, sans-serif" font-size="18" font-weight="bold" fill="#1e293b" text-anchor="middle" dominant-baseline="middle">Movimiento del Tenista</text>
  <line x1="40.00" y1="210.00" x2="40.00" y2="40.00" stroke="#e2e8f0" stroke-width="0.5"  />
  <line x1="72.50" y1="210.00" x2="72.50" y2="40.00" stroke="#e2e8f0" stroke-width="0.5"  />
  <line x1="137.50" y1="210.00" x2="137.50" y2="40.00" stroke="#e2e8f0" stroke-width="0.5"  />
  <line x1="170.00" y1="210.00" x2="170.00" y2="40.00" stroke="#e2e8f0" stroke-width="0.5"  />
  <line x1="202.50" y1="210.00" x2="202.50" y2="40.00" stroke="#e2e8f0" stroke-width="0.5"  />
  <line x1="235.00" y1="210.00" x2="235.00" y2="40.00" stroke="#e2e8f0" stroke-width="0.5"  />
  <line x1="267.50" y1="210.00" x2="267.50" y2="40.00" stroke="#e2e8f0" stroke-width="0.5"  />
  <line x1="300.00" y1="210.00" x2="300.00" y2="40.00" stroke="#e2e8f0" stroke-width="0.5"  />
  <line x1="332.50" y1="210.00" x2="332.50" y2="40.00" stroke="#e2e8f0" stroke-width="0.5"  />
  <line x1="365.00" y1="210.00" x2="365.00" y2="40.00" stroke="#e2e8f0" stroke-width="0.5"  />
  <line x1="397.50" y1="210.00" x2="397.50" y2="40.00" stroke="#e2e8f0" stroke-width="0.5"  />
  <line x1="430.00" y1="210.00" x2="430.00" y2="40.00" stroke="#e2e8f0" stroke-width="0.5"  />
  <line x1="462.50" y1="210.00" x2="462.50" y2="40.00" stroke="#e2e8f0" stroke-width="0.5"  />
  <line x1="495.00" y1="210.00" x2="495.00" y2="40.00" stroke="#e2e8f0" stroke-width="0.5"  />
  <line x1="527.50" y1="210.00" x2="527.50" y2="40.00" stroke="#e2e8f0" stroke-width="0.5"  />
  <line x1="560.00" y1="210.00" x2="560.00" y2="40.00" stroke="#e2e8f0" stroke-width="0.5"  />
  <line x1="40.00" y1="210.00" x2="560.00" y2="210.00" stroke="#e2e8f0" stroke-width="0.5"  />
  <line x1="40.00" y1="181.67" x2="560.00" y2="181.67" stroke="#e2e8f0" stroke-width="0.5"  />
  <line x1="40.00" y1="125.00" x2="560.00" y2="125.00" stroke="#e2e8f0" stroke-width="0.5"  />
  <line x1="40.00" y1="96.67" x2="560.00" y2="96.67" stroke="#e2e8f0" stroke-width="0.5"  />
  <line x1="40.00" y1="68.33" x2="560.00" y2="68.33" stroke="#e2e8f0" stroke-width="0.5"  />
  <line x1="40.00" y1="40.00" x2="560.00" y2="40.00" stroke="#e2e8f0" stroke-width="0.5"  />
  <line x1="40.00" y1="153.33" x2="560.00" y2="153.33" stroke="#64748b" stroke-width="2"  marker-end="url(#arrow-64748b-10)"/>
  <line x1="105.00" y1="210.00" x2="105.00" y2="40.00" stroke="#64748b" stroke-width="2"  marker-end="url(#arrow-64748b-10)"/>
  <text x="555.00" y="173.33" font-family="Inter, sans-serif" font-size="14" font-weight="bold" fill="#64748b" text-anchor="middle" dominant-baseline="middle">x</text>
  <text x="85.00" y="50.00" font-family="Inter, sans-serif" font-size="14" font-weight="bold" fill="#64748b" text-anchor="middle" dominant-baseline="middle">y</text>
  <line x1="40.00" y1="148.33" x2="40.00" y2="158.33" stroke="#64748b" stroke-width="1"  />
  <text x="40.00" y="171.33" font-family="Inter, sans-serif" font-size="11" font-weight="normal" fill="#64748b" text-anchor="middle" dominant-baseline="middle">-2</text>
  <line x1="170.00" y1="148.33" x2="170.00" y2="158.33" stroke="#64748b" stroke-width="1"  />
  <text x="170.00" y="171.33" font-family="Inter, sans-serif" font-size="11" font-weight="normal" fill="#64748b" text-anchor="middle" dominant-baseline="middle">2</text>
  <line x1="235.00" y1="148.33" x2="235.00" y2="158.33" stroke="#64748b" stroke-width="1"  />
  <text x="235.00" y="171.33" font-family="Inter, sans-serif" font-size="11" font-weight="normal" fill="#64748b" text-anchor="middle" dominant-baseline="middle">4</text>
  <line x1="300.00" y1="148.33" x2="300.00" y2="158.33" stroke="#64748b" stroke-width="1"  />
  <text x="300.00" y="171.33" font-family="Inter, sans-serif" font-size="11" font-weight="normal" fill="#64748b" text-anchor="middle" dominant-baseline="middle">6</text>
  <line x1="365.00" y1="148.33" x2="365.00" y2="158.33" stroke="#64748b" stroke-width="1"  />
  <text x="365.00" y="171.33" font-family="Inter, sans-serif" font-size="11" font-weight="normal" fill="#64748b" text-anchor="middle" dominant-baseline="middle">8</text>
  <line x1="430.00" y1="148.33" x2="430.00" y2="158.33" stroke="#64748b" stroke-width="1"  />
  <text x="430.00" y="171.33" font-family="Inter, sans-serif" font-size="11" font-weight="normal" fill="#64748b" text-anchor="middle" dominant-baseline="middle">10</text>
  <line x1="495.00" y1="148.33" x2="495.00" y2="158.33" stroke="#64748b" stroke-width="1"  />
  <text x="495.00" y="171.33" font-family="Inter, sans-serif" font-size="11" font-weight="normal" fill="#64748b" text-anchor="middle" dominant-baseline="middle">12</text>
  <line x1="560.00" y1="148.33" x2="560.00" y2="158.33" stroke="#64748b" stroke-width="1"  />
  <text x="560.00" y="171.33" font-family="Inter, sans-serif" font-size="11" font-weight="normal" fill="#64748b" text-anchor="middle" dominant-baseline="middle">14</text>
  <line x1="100.00" y1="210.00" x2="110.00" y2="210.00" stroke="#64748b" stroke-width="1"  />
  <text x="90.00" y="210.00" font-family="Inter, sans-serif" font-size="11" font-weight="normal" fill="#64748b" text-anchor="end" dominant-baseline="middle">-2</text>
  <line x1="100.00" y1="96.67" x2="110.00" y2="96.67" stroke="#64748b" stroke-width="1"  />
  <text x="90.00" y="96.67" font-family="Inter, sans-serif" font-size="11" font-weight="normal" fill="#64748b" text-anchor="end" dominant-baseline="middle">2</text>
  <line x1="100.00" y1="40.00" x2="110.00" y2="40.00" stroke="#64748b" stroke-width="1"  />
  <text x="90.00" y="40.00" font-family="Inter, sans-serif" font-size="11" font-weight="normal" fill="#64748b" text-anchor="end" dominant-baseline="middle">4</text>
  <text x="93.00" y="168.33" font-family="Inter, sans-serif" font-size="11" font-weight="normal" fill="#64748b" text-anchor="middle" dominant-baseline="middle">O</text>
  <line x1="105.00" y1="139.17" x2="495.00" y2="139.17" stroke="#3b82f6" stroke-width="3"  marker-end="url(#arrow-3b82f6-10)"/>
  <text x="300.00" y="124.17" font-family="Inter, sans-serif" font-size="12" font-weight="bold" fill="#3b82f6" text-anchor="middle" dominant-baseline="middle">1. Avanza 12m</text>
  <line x1="495.00" y1="110.83" x2="300.00" y2="110.83" stroke="#ef4444" stroke-width="3"  marker-end="url(#arrow-ef4444-10)"/>
  <text x="397.50" y="95.83" font-family="Inter, sans-serif" font-size="12" font-weight="bold" fill="#ef4444" text-anchor="middle" dominant-baseline="middle">2. Retrocede 6m</text>
  <circle cx="105.00" cy="153.33" r="5" fill="#22c55e" />
  <text x="95.00" y="133.33" font-family="Inter, sans-serif" font-size="12" font-weight="bold" fill="#22c55e" text-anchor="start" dominant-baseline="middle">Inicio (0)</text>
  <circle cx="495.00" cy="153.33" r="5" fill="#3b82f6" />
  <text x="485.00" y="133.33" font-family="Inter, sans-serif" font-size="12" font-weight="bold" fill="#3b82f6" text-anchor="start" dominant-baseline="middle">Red (12)</text>
  <circle cx="300.00" cy="153.33" r="5" fill="#ef4444" />
  <text x="290.00" y="133.33" font-family="Inter, sans-serif" font-size="12" font-weight="bold" fill="#ef4444" text-anchor="start" dominant-baseline="middle">Fin (6)</text>
</svg>