<svg xmlns="http://www.w3.org/2000/svg" viewBox="0 0 800 400" 
style="max-width: 100%; height: auto; font-family: Inter, system-ui, sans-serif;">

  <style>
    .wave-path {
      stroke-dasharray: 3000;
      stroke-dashoffset: 3000;
      animation: drawWave 2s ease-out forwards;
    }
    .marker-group { opacity: 0; animation: fadeIn 0.5s ease-out 2s forwards; }
    .label-group { opacity: 0; animation: fadeIn 0.5s ease-out 2.3s forwards; }
    .annotation-group { opacity: 0; animation: fadeIn 0.5s ease-out 2.5s forwards; }
    @keyframes drawWave { to { stroke-dashoffset: 0; } }
    @keyframes fadeIn { to { opacity: 1; } }
  </style>

  <rect width="800" height="400" fill="#f8fafc" rx="8"/>
  <text x="400.0" y="25" text-anchor="middle" font-size="16" font-weight="bold" fill="#1e293b">Ejemplo: y = 3sin(2x)</text>
  <g class="grid">
    <line x1="55.0" y1="55" x2="55.0" y2="345" stroke="#e2e8f0" stroke-dasharray="4,4"/>
    <line x1="227.5" y1="55" x2="227.5" y2="345" stroke="#e2e8f0" stroke-dasharray="4,4"/>
    <line x1="400.0" y1="55" x2="400.0" y2="345" stroke="#e2e8f0" stroke-dasharray="4,4"/>
    <line x1="572.5" y1="55" x2="572.5" y2="345" stroke="#e2e8f0" stroke-dasharray="4,4"/>
    <line x1="745.0" y1="55" x2="745.0" y2="345" stroke="#e2e8f0" stroke-dasharray="4,4"/>
    <line x1="55" y1="236.2" x2="745" y2="236.2" stroke="#e2e8f0" stroke-dasharray="4,4"/>
    <line x1="55" y1="218.1" x2="745" y2="218.1" stroke="#e2e8f0" stroke-dasharray="4,4"/>
    <line x1="55" y1="181.9" x2="745" y2="181.9" stroke="#e2e8f0" stroke-dasharray="4,4"/>
    <line x1="55" y1="163.8" x2="745" y2="163.8" stroke="#e2e8f0" stroke-dasharray="4,4"/>
  </g>
  <g class="axes">
    <line x1="55" y1="200.0" x2="745" y2="200.0" stroke="#374151" stroke-width="2"/>
    <polygon points="745,200.0 737,196.0 737,204.0" fill="#374151"/>
    <line x1="55.0" y1="55" x2="55.0" y2="345" stroke="#374151" stroke-width="2"/>
    <polygon points="55.0,55 51.0,63 59.0,63" fill="#374151"/>
    <text x="755" y="205.0" font-size="14" font-weight="bold" fill="#374151">x</text>
    <text x="63.0" y="50" font-size="14" font-weight="bold" fill="#374151">y</text>
    <line x1="227.5" y1="196.0" x2="227.5" y2="204.0" stroke="#374151" stroke-width="1.5"/>
    <text x="227.5" y="220.0" text-anchor="middle" font-size="12" fill="#374151">π/2</text>
    <line x1="400.0" y1="196.0" x2="400.0" y2="204.0" stroke="#374151" stroke-width="1.5"/>
    <text x="400.0" y="220.0" text-anchor="middle" font-size="12" fill="#374151">π</text>
    <line x1="572.5" y1="196.0" x2="572.5" y2="204.0" stroke="#374151" stroke-width="1.5"/>
    <text x="572.5" y="220.0" text-anchor="middle" font-size="12" fill="#374151">3π/2</text>
    <line x1="51.0" y1="236.2" x2="59.0" y2="236.2" stroke="#374151" stroke-width="1.5"/>
    <text x="43.0" y="240.2" text-anchor="end" font-size="12" fill="#374151">-1</text>
    <line x1="51.0" y1="163.8" x2="59.0" y2="163.8" stroke="#374151" stroke-width="1.5"/>
    <text x="43.0" y="167.8" text-anchor="end" font-size="12" fill="#374151">1</text>
  </g>
  <path id="sin-x-base" class="wave-path" d="M 55.00 200.00 L 58.45 198.86 L 61.90 197.72 L 65.35 196.59 L 68.80 195.46 L 72.25 194.33 L 75.70 193.21 L 79.15 192.09 L 82.60 190.98 L 86.05 189.89 L 89.50 188.80 L 92.95 187.72 L 96.40 186.66 L 99.85 185.60 L 103.30 184.57 L 106.75 183.54 L 110.20 182.54 L 113.65 181.55 L 117.10 180.58 L 120.55 179.62 L 124.00 178.69 L 127.45 177.78 L 130.90 176.89 L 134.35 176.03 L 137.80 175.19 L 141.25 174.37 L 144.70 173.57 L 148.15 172.81 L 151.60 172.07 L 155.05 171.36 L 158.50 170.67 L 161.95 170.02 L 165.40 169.39 L 168.85 168.80 L 172.30 168.23 L 175.75 167.70 L 179.20 167.20 L 182.65 166.73 L 186.10 166.30 L 189.55 165.89 L 193.00 165.52 L 196.45 165.19 L 199.90 164.89 L 203.35 164.62 L 206.80 164.39 L 210.25 164.20 L 213.70 164.04 L 217.15 163.91 L 220.60 163.82 L 224.05 163.77 L 227.50 163.75 L 230.95 163.77 L 234.40 163.82 L 237.85 163.91 L 241.30 164.04 L 244.75 164.20 L 248.20 164.39 L 251.65 164.62 L 255.10 164.89 L 258.55 165.19 L 262.00 165.52 L 265.45 165.89 L 268.90 166.30 L 272.35 166.73 L 275.80 167.20 L 279.25 167.70 L 282.70 168.23 L 286.15 168.80 L 289.60 169.39 L 293.05 170.02 L 296.50 170.67 L 299.95 171.36 L 303.40 172.07 L 306.85 172.81 L 310.30 173.57 L 313.75 174.37 L 317.20 175.19 L 320.65 176.03 L 324.10 176.89 L 327.55 177.78 L 331.00 178.69 L 334.45 179.62 L 337.90 180.58 L 341.35 181.55 L 344.80 182.54 L 348.25 183.54 L 351.70 184.57 L 355.15 185.60 L 358.60 186.66 L 362.05 187.72 L 365.50 188.80 L 368.95 189.89 L 372.40 190.98 L 375.85 192.09 L 379.30 193.21 L 382.75 194.33 L 386.20 195.46 L 389.65 196.59 L 393.10 197.72 L 396.55 198.86 L 400.00 200.00 L 403.45 201.14 L 406.90 202.28 L 410.35 203.41 L 413.80 204.54 L 417.25 205.67 L 420.70 206.79 L 424.15 207.91 L 427.60 209.02 L 431.05 210.11 L 434.50 211.20 L 437.95 212.28 L 441.40 213.34 L 444.85 214.40 L 448.30 215.43 L 451.75 216.46 L 455.20 217.46 L 458.65 218.45 L 462.10 219.42 L 465.55 220.38 L 469.00 221.31 L 472.45 222.22 L 475.90 223.11 L 479.35 223.97 L 482.80 224.81 L 486.25 225.63 L 489.70 226.43 L 493.15 227.19 L 496.60 227.93 L 500.05 228.64 L 503.50 229.33 L 506.95 229.98 L 510.40 230.61 L 513.85 231.20 L 517.30 231.77 L 520.75 232.30 L 524.20 232.80 L 527.65 233.27 L 531.10 233.70 L 534.55 234.11 L 538.00 234.48 L 541.45 234.81 L 544.90 235.11 L 548.35 235.38 L 551.80 235.61 L 555.25 235.80 L 558.70 235.96 L 562.15 236.09 L 565.60 236.18 L 569.05 236.23 L 572.50 236.25 L 575.95 236.23 L 579.40 236.18 L 582.85 236.09 L 586.30 235.96 L 589.75 235.80 L 593.20 235.61 L 596.65 235.38 L 600.10 235.11 L 603.55 234.81 L 607.00 234.48 L 610.45 234.11 L 613.90 233.70 L 617.35 233.27 L 620.80 232.80 L 624.25 232.30 L 627.70 231.77 L 631.15 231.20 L 634.60 230.61 L 638.05 229.98 L 641.50 229.33 L 644.95 228.64 L 648.40 227.93 L 651.85 227.19 L 655.30 226.43 L 658.75 225.63 L 662.20 224.81 L 665.65 223.97 L 669.10 223.11 L 672.55 222.22 L 676.00 221.31 L 679.45 220.38 L 682.90 219.42 L 686.35 218.45 L 689.80 217.46 L 693.25 216.46 L 696.70 215.43 L 700.15 214.40 L 703.60 213.34 L 707.05 212.28 L 710.50 211.20 L 713.95 210.11 L 717.40 209.02 L 720.85 207.91 L 724.30 206.79 L 727.75 205.67 L 731.20 204.54 L 734.65 203.41 L 738.10 202.28 L 741.55 201.14 L 745.00 200.00" fill="none" stroke="#94a3b8" stroke-width="2" stroke-linecap="round" stroke-linejoin="round"/>
  <path id="3sin-2x" class="wave-path" d="M 55.00 200.00 L 58.45 193.17 L 61.90 186.37 L 65.35 179.62 L 68.80 172.95 L 72.25 166.39 L 75.70 159.97 L 79.15 153.70 L 82.60 147.61 L 86.05 141.73 L 89.50 136.08 L 92.95 130.68 L 96.40 125.56 L 99.85 120.72 L 103.30 116.21 L 106.75 112.02 L 110.20 108.18 L 113.65 104.70 L 117.10 101.60 L 120.55 98.89 L 124.00 96.57 L 127.45 94.67 L 130.90 93.18 L 134.35 92.11 L 137.80 91.46 L 141.25 91.25 L 144.70 91.46 L 148.15 92.11 L 151.60 93.18 L 155.05 94.67 L 158.50 96.57 L 161.95 98.89 L 165.40 101.60 L 168.85 104.70 L 172.30 108.18 L 175.75 112.02 L 179.20 116.21 L 182.65 120.72 L 186.10 125.56 L 189.55 130.68 L 193.00 136.08 L 196.45 141.73 L 199.90 147.61 L 203.35 153.70 L 206.80 159.97 L 210.25 166.39 L 213.70 172.95 L 217.15 179.62 L 220.60 186.37 L 224.05 193.17 L 227.50 200.00 L 230.95 206.83 L 234.40 213.63 L 237.85 220.38 L 241.30 227.05 L 244.75 233.61 L 248.20 240.03 L 251.65 246.30 L 255.10 252.39 L 258.55 258.27 L 262.00 263.92 L 265.45 269.32 L 268.90 274.44 L 272.35 279.28 L 275.80 283.79 L 279.25 287.98 L 282.70 291.82 L 286.15 295.30 L 289.60 298.40 L 293.05 301.11 L 296.50 303.43 L 299.95 305.33 L 303.40 306.82 L 306.85 307.89 L 310.30 308.54 L 313.75 308.75 L 317.20 308.54 L 320.65 307.89 L 324.10 306.82 L 327.55 305.33 L 331.00 303.43 L 334.45 301.11 L 337.90 298.40 L 341.35 295.30 L 344.80 291.82 L 348.25 287.98 L 351.70 283.79 L 355.15 279.28 L 358.60 274.44 L 362.05 269.32 L 365.50 263.92 L 368.95 258.27 L 372.40 252.39 L 375.85 246.30 L 379.30 240.03 L 382.75 233.61 L 386.20 227.05 L 389.65 220.38 L 393.10 213.63 L 396.55 206.83 L 400.00 200.00 L 403.45 193.17 L 406.90 186.37 L 410.35 179.62 L 413.80 172.95 L 417.25 166.39 L 420.70 159.97 L 424.15 153.70 L 427.60 147.61 L 431.05 141.73 L 434.50 136.08 L 437.95 130.68 L 441.40 125.56 L 444.85 120.72 L 448.30 116.21 L 451.75 112.02 L 455.20 108.18 L 458.65 104.70 L 462.10 101.60 L 465.55 98.89 L 469.00 96.57 L 472.45 94.67 L 475.90 93.18 L 479.35 92.11 L 482.80 91.46 L 486.25 91.25 L 489.70 91.46 L 493.15 92.11 L 496.60 93.18 L 500.05 94.67 L 503.50 96.57 L 506.95 98.89 L 510.40 101.60 L 513.85 104.70 L 517.30 108.18 L 520.75 112.02 L 524.20 116.21 L 527.65 120.72 L 531.10 125.56 L 534.55 130.68 L 538.00 136.08 L 541.45 141.73 L 544.90 147.61 L 548.35 153.70 L 551.80 159.97 L 555.25 166.39 L 558.70 172.95 L 562.15 179.62 L 565.60 186.37 L 569.05 193.17 L 572.50 200.00 L 575.95 206.83 L 579.40 213.63 L 582.85 220.38 L 586.30 227.05 L 589.75 233.61 L 593.20 240.03 L 596.65 246.30 L 600.10 252.39 L 603.55 258.27 L 607.00 263.92 L 610.45 269.32 L 613.90 274.44 L 617.35 279.28 L 620.80 283.79 L 624.25 287.98 L 627.70 291.82 L 631.15 295.30 L 634.60 298.40 L 638.05 301.11 L 641.50 303.43 L 644.95 305.33 L 648.40 306.82 L 651.85 307.89 L 655.30 308.54 L 658.75 308.75 L 662.20 308.54 L 665.65 307.89 L 669.10 306.82 L 672.55 305.33 L 676.00 303.43 L 679.45 301.11 L 682.90 298.40 L 686.35 295.30 L 689.80 291.82 L 693.25 287.98 L 696.70 283.79 L 700.15 279.28 L 703.60 274.44 L 707.05 269.32 L 710.50 263.92 L 713.95 258.27 L 717.40 252.39 L 720.85 246.30 L 724.30 240.03 L 727.75 233.61 L 731.20 227.05 L 734.65 220.38 L 738.10 213.63 L 741.55 206.83 L 745.00 200.00" fill="none" stroke="#8b5cf6" stroke-width="3" stroke-linecap="round" stroke-linejoin="round"/>
  <g class="marker-group">
    <circle cx="141.2" cy="91.2" r="6" fill="#ef4444" stroke="white" stroke-width="2"/>
  </g>
  <g class="label-group">
    <rect x="91.25" y="64.25" width="100" height="16" fill="white" fill-opacity="0.9" rx="3"/>
    <text x="141.2" y="76.2" text-anchor="middle" font-size="11" font-weight="bold" fill="#ef4444">Máximo (π/4, 3)</text>
  </g>
  <g class="annotation-group">
    <path d="M 55.0 321.9 L 55.0 326.9 L 400.0 326.9 L 400.0 321.9" fill="none" stroke="#8b5cf6" stroke-width="2"/>
    <text x="227.5" y="344.9" text-anchor="middle" font-size="12" font-weight="bold" fill="#8b5cf6">Período = π</text>
  </g>
</svg>