<svg xmlns="http://www.w3.org/2000/svg" viewBox="0 0 800 400" 
style="max-width: 100%; height: auto; font-family: Inter, system-ui, sans-serif;">

  <style>
    .wave-path {
      stroke-dasharray: 3000;
      stroke-dashoffset: 3000;
      animation: drawWave 2s ease-out forwards;
    }
    .marker-group { opacity: 0; animation: fadeIn 0.5s ease-out 2s forwards; }
    .label-group { opacity: 0; animation: fadeIn 0.5s ease-out 2.3s forwards; }
    .annotation-group { opacity: 0; animation: fadeIn 0.5s ease-out 2.5s forwards; }
    @keyframes drawWave { to { stroke-dashoffset: 0; } }
    @keyframes fadeIn { to { opacity: 1; } }
  </style>

  <rect width="800" height="400" fill="#f8fafc" rx="8"/>
  <text x="400.0" y="25" text-anchor="middle" font-size="16" font-weight="bold" fill="#1e293b">Efecto de la Amplitud: A = 1, 2, 0.5</text>
  <g class="grid">
    <line x1="55.0" y1="55" x2="55.0" y2="345" stroke="#e2e8f0" stroke-dasharray="4,4"/>
    <line x1="227.5" y1="55" x2="227.5" y2="345" stroke="#e2e8f0" stroke-dasharray="4,4"/>
    <line x1="400.0" y1="55" x2="400.0" y2="345" stroke="#e2e8f0" stroke-dasharray="4,4"/>
    <line x1="572.5" y1="55" x2="572.5" y2="345" stroke="#e2e8f0" stroke-dasharray="4,4"/>
    <line x1="745.0" y1="55" x2="745.0" y2="345" stroke="#e2e8f0" stroke-dasharray="4,4"/>
    <line x1="55" y1="258.0" x2="745" y2="258.0" stroke="#e2e8f0" stroke-dasharray="4,4"/>
    <line x1="55" y1="229.0" x2="745" y2="229.0" stroke="#e2e8f0" stroke-dasharray="4,4"/>
    <line x1="55" y1="171.0" x2="745" y2="171.0" stroke="#e2e8f0" stroke-dasharray="4,4"/>
    <line x1="55" y1="142.0" x2="745" y2="142.0" stroke="#e2e8f0" stroke-dasharray="4,4"/>
  </g>
  <g class="axes">
    <line x1="55" y1="200.0" x2="745" y2="200.0" stroke="#374151" stroke-width="2"/>
    <polygon points="745,200.0 737,196.0 737,204.0" fill="#374151"/>
    <line x1="55.0" y1="55" x2="55.0" y2="345" stroke="#374151" stroke-width="2"/>
    <polygon points="55.0,55 51.0,63 59.0,63" fill="#374151"/>
    <text x="755" y="205.0" font-size="14" font-weight="bold" fill="#374151">x</text>
    <text x="63.0" y="50" font-size="14" font-weight="bold" fill="#374151">y</text>
    <line x1="227.5" y1="196.0" x2="227.5" y2="204.0" stroke="#374151" stroke-width="1.5"/>
    <text x="227.5" y="220.0" text-anchor="middle" font-size="12" fill="#374151">π/2</text>
    <line x1="400.0" y1="196.0" x2="400.0" y2="204.0" stroke="#374151" stroke-width="1.5"/>
    <text x="400.0" y="220.0" text-anchor="middle" font-size="12" fill="#374151">π</text>
    <line x1="572.5" y1="196.0" x2="572.5" y2="204.0" stroke="#374151" stroke-width="1.5"/>
    <text x="572.5" y="220.0" text-anchor="middle" font-size="12" fill="#374151">3π/2</text>
    <line x1="51.0" y1="258.0" x2="59.0" y2="258.0" stroke="#374151" stroke-width="1.5"/>
    <text x="43.0" y="262.0" text-anchor="end" font-size="12" fill="#374151">-1</text>
    <line x1="51.0" y1="142.0" x2="59.0" y2="142.0" stroke="#374151" stroke-width="1.5"/>
    <text x="43.0" y="146.0" text-anchor="end" font-size="12" fill="#374151">1</text>
  </g>
  <path id="sin-x" class="wave-path" d="M 55.00 200.00 L 58.45 198.18 L 61.90 196.36 L 65.35 194.54 L 68.80 192.73 L 72.25 190.93 L 75.70 189.13 L 79.15 187.35 L 82.60 185.58 L 86.05 183.82 L 89.50 182.08 L 92.95 180.35 L 96.40 178.65 L 99.85 176.97 L 103.30 175.30 L 106.75 173.67 L 110.20 172.06 L 113.65 170.48 L 117.10 168.92 L 120.55 167.40 L 124.00 165.91 L 127.45 164.45 L 130.90 163.03 L 134.35 161.64 L 137.80 160.30 L 141.25 158.99 L 144.70 157.72 L 148.15 156.49 L 151.60 155.31 L 155.05 154.17 L 158.50 153.08 L 161.95 152.03 L 165.40 151.03 L 168.85 150.08 L 172.30 149.17 L 175.75 148.32 L 179.20 147.52 L 182.65 146.77 L 186.10 146.07 L 189.55 145.43 L 193.00 144.84 L 196.45 144.30 L 199.90 143.82 L 203.35 143.40 L 206.80 143.03 L 210.25 142.71 L 213.70 142.46 L 217.15 142.26 L 220.60 142.11 L 224.05 142.03 L 227.50 142.00 L 230.95 142.03 L 234.40 142.11 L 237.85 142.26 L 241.30 142.46 L 244.75 142.71 L 248.20 143.03 L 251.65 143.40 L 255.10 143.82 L 258.55 144.30 L 262.00 144.84 L 265.45 145.43 L 268.90 146.07 L 272.35 146.77 L 275.80 147.52 L 279.25 148.32 L 282.70 149.17 L 286.15 150.08 L 289.60 151.03 L 293.05 152.03 L 296.50 153.08 L 299.95 154.17 L 303.40 155.31 L 306.85 156.49 L 310.30 157.72 L 313.75 158.99 L 317.20 160.30 L 320.65 161.64 L 324.10 163.03 L 327.55 164.45 L 331.00 165.91 L 334.45 167.40 L 337.90 168.92 L 341.35 170.48 L 344.80 172.06 L 348.25 173.67 L 351.70 175.30 L 355.15 176.97 L 358.60 178.65 L 362.05 180.35 L 365.50 182.08 L 368.95 183.82 L 372.40 185.58 L 375.85 187.35 L 379.30 189.13 L 382.75 190.93 L 386.20 192.73 L 389.65 194.54 L 393.10 196.36 L 396.55 198.18 L 400.00 200.00 L 403.45 201.82 L 406.90 203.64 L 410.35 205.46 L 413.80 207.27 L 417.25 209.07 L 420.70 210.87 L 424.15 212.65 L 427.60 214.42 L 431.05 216.18 L 434.50 217.92 L 437.95 219.65 L 441.40 221.35 L 444.85 223.03 L 448.30 224.70 L 451.75 226.33 L 455.20 227.94 L 458.65 229.52 L 462.10 231.08 L 465.55 232.60 L 469.00 234.09 L 472.45 235.55 L 475.90 236.97 L 479.35 238.36 L 482.80 239.70 L 486.25 241.01 L 489.70 242.28 L 493.15 243.51 L 496.60 244.69 L 500.05 245.83 L 503.50 246.92 L 506.95 247.97 L 510.40 248.97 L 513.85 249.92 L 517.30 250.83 L 520.75 251.68 L 524.20 252.48 L 527.65 253.23 L 531.10 253.93 L 534.55 254.57 L 538.00 255.16 L 541.45 255.70 L 544.90 256.18 L 548.35 256.60 L 551.80 256.97 L 555.25 257.29 L 558.70 257.54 L 562.15 257.74 L 565.60 257.89 L 569.05 257.97 L 572.50 258.00 L 575.95 257.97 L 579.40 257.89 L 582.85 257.74 L 586.30 257.54 L 589.75 257.29 L 593.20 256.97 L 596.65 256.60 L 600.10 256.18 L 603.55 255.70 L 607.00 255.16 L 610.45 254.57 L 613.90 253.93 L 617.35 253.23 L 620.80 252.48 L 624.25 251.68 L 627.70 250.83 L 631.15 249.92 L 634.60 248.97 L 638.05 247.97 L 641.50 246.92 L 644.95 245.83 L 648.40 244.69 L 651.85 243.51 L 655.30 242.28 L 658.75 241.01 L 662.20 239.70 L 665.65 238.36 L 669.10 236.97 L 672.55 235.55 L 676.00 234.09 L 679.45 232.60 L 682.90 231.08 L 686.35 229.52 L 689.80 227.94 L 693.25 226.33 L 696.70 224.70 L 700.15 223.03 L 703.60 221.35 L 707.05 219.65 L 710.50 217.92 L 713.95 216.18 L 717.40 214.42 L 720.85 212.65 L 724.30 210.87 L 727.75 209.07 L 731.20 207.27 L 734.65 205.46 L 738.10 203.64 L 741.55 201.82 L 745.00 200.00" fill="none" stroke="#3b82f6" stroke-width="2" stroke-linecap="round" stroke-linejoin="round"/>
  <path id="2sin-x" class="wave-path" d="M 55.00 200.00 L 58.45 196.36 L 61.90 192.72 L 65.35 189.08 L 68.80 185.46 L 72.25 181.85 L 75.70 178.26 L 79.15 174.70 L 82.60 171.15 L 86.05 167.64 L 89.50 164.15 L 92.95 160.71 L 96.40 157.30 L 99.85 153.93 L 103.30 150.61 L 106.75 147.34 L 110.20 144.12 L 113.65 140.95 L 117.10 137.84 L 120.55 134.80 L 124.00 131.82 L 127.45 128.90 L 130.90 126.06 L 134.35 123.29 L 137.80 120.59 L 141.25 117.98 L 144.70 115.44 L 148.15 112.99 L 151.60 110.62 L 155.05 108.34 L 158.50 106.15 L 161.95 104.06 L 165.40 102.06 L 168.85 100.15 L 172.30 98.35 L 175.75 96.64 L 179.20 95.04 L 182.65 93.54 L 186.10 92.15 L 189.55 90.86 L 193.00 89.68 L 196.45 88.61 L 199.90 87.64 L 203.35 86.79 L 206.80 86.05 L 210.25 85.43 L 213.70 84.91 L 217.15 84.51 L 220.60 84.23 L 224.05 84.06 L 227.50 84.00 L 230.95 84.06 L 234.40 84.23 L 237.85 84.51 L 241.30 84.91 L 244.75 85.43 L 248.20 86.05 L 251.65 86.79 L 255.10 87.64 L 258.55 88.61 L 262.00 89.68 L 265.45 90.86 L 268.90 92.15 L 272.35 93.54 L 275.80 95.04 L 279.25 96.64 L 282.70 98.35 L 286.15 100.15 L 289.60 102.06 L 293.05 104.06 L 296.50 106.15 L 299.95 108.34 L 303.40 110.62 L 306.85 112.99 L 310.30 115.44 L 313.75 117.98 L 317.20 120.59 L 320.65 123.29 L 324.10 126.06 L 327.55 128.90 L 331.00 131.82 L 334.45 134.80 L 337.90 137.84 L 341.35 140.95 L 344.80 144.12 L 348.25 147.34 L 351.70 150.61 L 355.15 153.93 L 358.60 157.30 L 362.05 160.71 L 365.50 164.15 L 368.95 167.64 L 372.40 171.15 L 375.85 174.70 L 379.30 178.26 L 382.75 181.85 L 386.20 185.46 L 389.65 189.08 L 393.10 192.72 L 396.55 196.36 L 400.00 200.00 L 403.45 203.64 L 406.90 207.28 L 410.35 210.92 L 413.80 214.54 L 417.25 218.15 L 420.70 221.74 L 424.15 225.30 L 427.60 228.85 L 431.05 232.36 L 434.50 235.85 L 437.95 239.29 L 441.40 242.70 L 444.85 246.07 L 448.30 249.39 L 451.75 252.66 L 455.20 255.88 L 458.65 259.05 L 462.10 262.16 L 465.55 265.20 L 469.00 268.18 L 472.45 271.10 L 475.90 273.94 L 479.35 276.71 L 482.80 279.41 L 486.25 282.02 L 489.70 284.56 L 493.15 287.01 L 496.60 289.38 L 500.05 291.66 L 503.50 293.85 L 506.95 295.94 L 510.40 297.94 L 513.85 299.85 L 517.30 301.65 L 520.75 303.36 L 524.20 304.96 L 527.65 306.46 L 531.10 307.85 L 534.55 309.14 L 538.00 310.32 L 541.45 311.39 L 544.90 312.36 L 548.35 313.21 L 551.80 313.95 L 555.25 314.57 L 558.70 315.09 L 562.15 315.49 L 565.60 315.77 L 569.05 315.94 L 572.50 316.00 L 575.95 315.94 L 579.40 315.77 L 582.85 315.49 L 586.30 315.09 L 589.75 314.57 L 593.20 313.95 L 596.65 313.21 L 600.10 312.36 L 603.55 311.39 L 607.00 310.32 L 610.45 309.14 L 613.90 307.85 L 617.35 306.46 L 620.80 304.96 L 624.25 303.36 L 627.70 301.65 L 631.15 299.85 L 634.60 297.94 L 638.05 295.94 L 641.50 293.85 L 644.95 291.66 L 648.40 289.38 L 651.85 287.01 L 655.30 284.56 L 658.75 282.02 L 662.20 279.41 L 665.65 276.71 L 669.10 273.94 L 672.55 271.10 L 676.00 268.18 L 679.45 265.20 L 682.90 262.16 L 686.35 259.05 L 689.80 255.88 L 693.25 252.66 L 696.70 249.39 L 700.15 246.07 L 703.60 242.70 L 707.05 239.29 L 710.50 235.85 L 713.95 232.36 L 717.40 228.85 L 720.85 225.30 L 724.30 221.74 L 727.75 218.15 L 731.20 214.54 L 734.65 210.92 L 738.10 207.28 L 741.55 203.64 L 745.00 200.00" fill="none" stroke="#ef4444" stroke-width="3" stroke-linecap="round" stroke-linejoin="round"/>
  <path id="05sin-x" class="wave-path" d="M 55.00 200.00 L 58.45 199.09 L 61.90 198.18 L 65.35 197.27 L 68.80 196.37 L 72.25 195.46 L 75.70 194.57 L 79.15 193.67 L 82.60 192.79 L 86.05 191.91 L 89.50 191.04 L 92.95 190.18 L 96.40 189.32 L 99.85 188.48 L 103.30 187.65 L 106.75 186.83 L 110.20 186.03 L 113.65 185.24 L 117.10 184.46 L 120.55 183.70 L 124.00 182.95 L 127.45 182.23 L 130.90 181.51 L 134.35 180.82 L 137.80 180.15 L 141.25 179.49 L 144.70 178.86 L 148.15 178.25 L 151.60 177.66 L 155.05 177.09 L 158.50 176.54 L 161.95 176.01 L 165.40 175.51 L 168.85 175.04 L 172.30 174.59 L 175.75 174.16 L 179.20 173.76 L 182.65 173.39 L 186.10 173.04 L 189.55 172.71 L 193.00 172.42 L 196.45 172.15 L 199.90 171.91 L 203.35 171.70 L 206.80 171.51 L 210.25 171.36 L 213.70 171.23 L 217.15 171.13 L 220.60 171.06 L 224.05 171.01 L 227.50 171.00 L 230.95 171.01 L 234.40 171.06 L 237.85 171.13 L 241.30 171.23 L 244.75 171.36 L 248.20 171.51 L 251.65 171.70 L 255.10 171.91 L 258.55 172.15 L 262.00 172.42 L 265.45 172.71 L 268.90 173.04 L 272.35 173.39 L 275.80 173.76 L 279.25 174.16 L 282.70 174.59 L 286.15 175.04 L 289.60 175.51 L 293.05 176.01 L 296.50 176.54 L 299.95 177.09 L 303.40 177.66 L 306.85 178.25 L 310.30 178.86 L 313.75 179.49 L 317.20 180.15 L 320.65 180.82 L 324.10 181.51 L 327.55 182.23 L 331.00 182.95 L 334.45 183.70 L 337.90 184.46 L 341.35 185.24 L 344.80 186.03 L 348.25 186.83 L 351.70 187.65 L 355.15 188.48 L 358.60 189.32 L 362.05 190.18 L 365.50 191.04 L 368.95 191.91 L 372.40 192.79 L 375.85 193.67 L 379.30 194.57 L 382.75 195.46 L 386.20 196.37 L 389.65 197.27 L 393.10 198.18 L 396.55 199.09 L 400.00 200.00 L 403.45 200.91 L 406.90 201.82 L 410.35 202.73 L 413.80 203.63 L 417.25 204.54 L 420.70 205.43 L 424.15 206.33 L 427.60 207.21 L 431.05 208.09 L 434.50 208.96 L 437.95 209.82 L 441.40 210.68 L 444.85 211.52 L 448.30 212.35 L 451.75 213.17 L 455.20 213.97 L 458.65 214.76 L 462.10 215.54 L 465.55 216.30 L 469.00 217.05 L 472.45 217.77 L 475.90 218.49 L 479.35 219.18 L 482.80 219.85 L 486.25 220.51 L 489.70 221.14 L 493.15 221.75 L 496.60 222.34 L 500.05 222.91 L 503.50 223.46 L 506.95 223.99 L 510.40 224.49 L 513.85 224.96 L 517.30 225.41 L 520.75 225.84 L 524.20 226.24 L 527.65 226.61 L 531.10 226.96 L 534.55 227.29 L 538.00 227.58 L 541.45 227.85 L 544.90 228.09 L 548.35 228.30 L 551.80 228.49 L 555.25 228.64 L 558.70 228.77 L 562.15 228.87 L 565.60 228.94 L 569.05 228.99 L 572.50 229.00 L 575.95 228.99 L 579.40 228.94 L 582.85 228.87 L 586.30 228.77 L 589.75 228.64 L 593.20 228.49 L 596.65 228.30 L 600.10 228.09 L 603.55 227.85 L 607.00 227.58 L 610.45 227.29 L 613.90 226.96 L 617.35 226.61 L 620.80 226.24 L 624.25 225.84 L 627.70 225.41 L 631.15 224.96 L 634.60 224.49 L 638.05 223.99 L 641.50 223.46 L 644.95 222.91 L 648.40 222.34 L 651.85 221.75 L 655.30 221.14 L 658.75 220.51 L 662.20 219.85 L 665.65 219.18 L 669.10 218.49 L 672.55 217.77 L 676.00 217.05 L 679.45 216.30 L 682.90 215.54 L 686.35 214.76 L 689.80 213.97 L 693.25 213.17 L 696.70 212.35 L 700.15 211.52 L 703.60 210.68 L 707.05 209.82 L 710.50 208.96 L 713.95 208.09 L 717.40 207.21 L 720.85 206.33 L 724.30 205.43 L 727.75 204.54 L 731.20 203.63 L 734.65 202.73 L 738.10 201.82 L 741.55 200.91 L 745.00 200.00" fill="none" stroke="#22c55e" stroke-width="2" stroke-linecap="round" stroke-linejoin="round"/>
</svg>