<svg xmlns="http://www.w3.org/2000/svg" viewBox="0 0 600 400" 
style="max-width: 100%; height: auto; font-family: Inter, system-ui, sans-serif;">

  <style>
    .wave-path {
      stroke-dasharray: 3000;
      stroke-dashoffset: 3000;
      animation: drawWave 1.5s ease-out forwards;
    }
    .marker-group { opacity: 0; animation: fadeIn 0.5s ease-out 1.5s forwards; }
    .label-group { opacity: 0; animation: fadeIn 0.5s ease-out 1.8s forwards; }
    .annotation-group { opacity: 0; animation: fadeIn 0.5s ease-out 2.0s forwards; }
    @keyframes drawWave { to { stroke-dashoffset: 0; } }
    @keyframes fadeIn { to { opacity: 1; } }
  </style>

  <rect width="600" height="400" fill="#f8fafc" rx="8"/>
  <text x="300.0" y="25" text-anchor="middle" font-size="16" font-weight="bold" fill="#1e293b">Arcoseno: de números a ángulos</text>
  <g class="grid">
    <line x1="300.0" y1="55" x2="300.0" y2="345" stroke="#e2e8f0" stroke-dasharray="4,4"/>
    <line x1="55" y1="272.5" x2="545" y2="272.5" stroke="#e2e8f0" stroke-dasharray="4,4"/>
    <line x1="55" y1="236.2" x2="545" y2="236.2" stroke="#e2e8f0" stroke-dasharray="4,4"/>
    <line x1="55" y1="163.8" x2="545" y2="163.8" stroke="#e2e8f0" stroke-dasharray="4,4"/>
    <line x1="55" y1="127.5" x2="545" y2="127.5" stroke="#e2e8f0" stroke-dasharray="4,4"/>
  </g>
  <g class="axes">
    <line x1="55" y1="200.0" x2="545" y2="200.0" stroke="#374151" stroke-width="2"/>
    <polygon points="545,200.0 537,196.0 537,204.0" fill="#374151"/>
    <line x1="300.0" y1="55" x2="300.0" y2="345" stroke="#374151" stroke-width="2"/>
    <polygon points="300.0,55 296.0,63 304.0,63" fill="#374151"/>
    <text x="555" y="205.0" font-size="14" font-weight="bold" fill="#374151">x</text>
    <text x="308.0" y="50" font-size="14" font-weight="bold" fill="#374151">y (radianes)</text>
    <line x1="296.0" y1="272.5" x2="304.0" y2="272.5" stroke="#374151" stroke-width="1.5"/>
    <text x="288.0" y="276.5" text-anchor="end" font-size="12" fill="#374151">-1</text>
    <line x1="296.0" y1="127.5" x2="304.0" y2="127.5" stroke="#374151" stroke-width="1.5"/>
    <text x="288.0" y="131.5" text-anchor="end" font-size="12" fill="#374151">1</text>
  </g>
  <path id="arcsin-x" class="wave-path" d="M 113.80 302.64 L 116.25 297.64 L 118.70 293.83 L 121.15 290.63 L 123.60 287.80 L 126.05 285.25 L 128.50 282.89 L 130.95 280.69 L 133.40 278.62 L 135.85 276.65 L 138.30 274.77 L 140.75 272.98 L 143.20 271.25 L 145.65 269.58 L 148.10 267.96 L 150.55 266.39 L 153.00 264.86 L 155.45 263.38 L 157.90 261.92 L 160.35 260.51 L 162.80 259.12 L 165.25 257.76 L 167.70 256.42 L 170.15 255.11 L 172.60 253.82 L 175.05 252.55 L 177.50 251.30 L 179.95 250.07 L 182.40 248.85 L 184.85 247.66 L 187.30 246.47 L 189.75 245.30 L 192.20 244.15 L 194.65 243.01 L 197.10 241.87 L 199.55 240.76 L 202.00 239.65 L 204.45 238.55 L 206.90 237.46 L 209.35 236.38 L 211.80 235.31 L 214.25 234.25 L 216.70 233.19 L 219.15 232.15 L 221.60 231.11 L 224.05 230.07 L 226.50 229.05 L 228.95 228.03 L 231.40 227.01 L 233.85 226.00 L 236.30 225.00 L 238.75 224.00 L 241.20 223.00 L 243.65 222.01 L 246.10 221.03 L 248.55 220.05 L 251.00 219.07 L 253.45 218.09 L 255.90 217.12 L 258.35 216.16 L 260.80 215.19 L 263.25 214.23 L 265.70 213.27 L 268.15 212.31 L 270.60 211.36 L 273.05 210.40 L 275.50 209.45 L 277.95 208.50 L 280.40 207.55 L 282.85 206.61 L 285.30 205.66 L 287.75 204.72 L 290.20 203.77 L 292.65 202.83 L 295.10 201.89 L 297.55 200.94 L 300.00 200.00 L 302.45 199.06 L 304.90 198.11 L 307.35 197.17 L 309.80 196.23 L 312.25 195.28 L 314.70 194.34 L 317.15 193.39 L 319.60 192.45 L 322.05 191.50 L 324.50 190.55 L 326.95 189.60 L 329.40 188.64 L 331.85 187.69 L 334.30 186.73 L 336.75 185.77 L 339.20 184.81 L 341.65 183.84 L 344.10 182.88 L 346.55 181.91 L 349.00 180.93 L 351.45 179.95 L 353.90 178.97 L 356.35 177.99 L 358.80 177.00 L 361.25 176.00 L 363.70 175.00 L 366.15 174.00 L 368.60 172.99 L 371.05 171.97 L 373.50 170.95 L 375.95 169.93 L 378.40 168.89 L 380.85 167.85 L 383.30 166.81 L 385.75 165.75 L 388.20 164.69 L 390.65 163.62 L 393.10 162.54 L 395.55 161.45 L 398.00 160.35 L 400.45 159.24 L 402.90 158.13 L 405.35 156.99 L 407.80 155.85 L 410.25 154.70 L 412.70 153.53 L 415.15 152.34 L 417.60 151.15 L 420.05 149.93 L 422.50 148.70 L 424.95 147.45 L 427.40 146.18 L 429.85 144.89 L 432.30 143.58 L 434.75 142.24 L 437.20 140.88 L 439.65 139.49 L 442.10 138.08 L 444.55 136.62 L 447.00 135.14 L 449.45 133.61 L 451.90 132.04 L 454.35 130.42 L 456.80 128.75 L 459.25 127.02 L 461.70 125.23 L 464.15 123.35 L 466.60 121.38 L 469.05 119.31 L 471.50 117.11 L 473.95 114.75 L 476.40 112.20 L 478.85 109.37 L 481.30 106.17 L 483.75 102.36 L 486.20 97.36" fill="none" stroke="#3b82f6" stroke-width="3" stroke-linecap="round" stroke-linejoin="round"/>
  <g class="marker-group">
    <circle cx="111.5" cy="313.9" r="6" fill="#ef4444" stroke="white" stroke-width="2"/>
    <circle cx="300.0" cy="200.0" r="6" fill="#22c55e" stroke="white" stroke-width="2"/>
    <circle cx="488.5" cy="86.1" r="6" fill="#ef4444" stroke="white" stroke-width="2"/>
  </g>
  <g class="label-group">
    <rect x="46.53846153846155" y="305.88273369263" width="100" height="16" fill="white" fill-opacity="0.9" rx="3"/>
    <text x="96.5" y="317.9" text-anchor="end" font-size="11" font-weight="bold" fill="#ef4444">(-1, -π/2)</text>
    <rect x="265.0" y="192.0" width="100" height="16" fill="white" fill-opacity="0.9" rx="3"/>
    <text x="315.0" y="204.0" text-anchor="start" font-size="11" font-weight="bold" fill="#22c55e">(0, 0)</text>
    <rect x="453.4615384615384" y="78.11726630737" width="100" height="16" fill="white" fill-opacity="0.9" rx="3"/>
    <text x="503.5" y="90.1" text-anchor="start" font-size="11" font-weight="bold" fill="#ef4444">(1, π/2)</text>
  </g>
  <g class="annotation-group">
    <line x1="55" y1="86.1" x2="545" y2="86.1" stroke="#94a3b8" stroke-width="1.5" stroke-dasharray="8,4"/>
    <text x="550" y="90.1" text-anchor="start" font-size="10" fill="#94a3b8">π/2</text>
    <line x1="55" y1="313.9" x2="545" y2="313.9" stroke="#94a3b8" stroke-width="1.5" stroke-dasharray="8,4"/>
    <text x="550" y="317.9" text-anchor="start" font-size="10" fill="#94a3b8">-π/2</text>
  </g>
</svg>