<svg xmlns="http://www.w3.org/2000/svg" viewBox="0 0 800 450" 
style="max-width: 100%; height: auto; font-family: Inter, system-ui, sans-serif;">

  <style>
    .wave-path {
      stroke-dasharray: 3000;
      stroke-dashoffset: 3000;
      animation: drawWave 2s ease-out forwards;
    }
    .marker-group { opacity: 0; animation: fadeIn 0.5s ease-out 2s forwards; }
    .label-group { opacity: 0; animation: fadeIn 0.5s ease-out 2.3s forwards; }
    .annotation-group { opacity: 0; animation: fadeIn 0.5s ease-out 2.5s forwards; }
    @keyframes drawWave { to { stroke-dashoffset: 0; } }
    @keyframes fadeIn { to { opacity: 1; } }
  </style>

  <rect width="800" height="450" fill="#f8fafc" rx="8"/>
  <text x="400.0" y="25" text-anchor="middle" font-size="16" font-weight="bold" fill="#1e293b">La función cosecante: csc(x) = 1/sin(x)</text>
  <g class="grid">
    <line x1="55.0" y1="55" x2="55.0" y2="395" stroke="#e2e8f0" stroke-dasharray="4,4"/>
    <line x1="141.2" y1="55" x2="141.2" y2="395" stroke="#e2e8f0" stroke-dasharray="4,4"/>
    <line x1="227.5" y1="55" x2="227.5" y2="395" stroke="#e2e8f0" stroke-dasharray="4,4"/>
    <line x1="313.8" y1="55" x2="313.8" y2="395" stroke="#e2e8f0" stroke-dasharray="4,4"/>
    <line x1="400.0" y1="55" x2="400.0" y2="395" stroke="#e2e8f0" stroke-dasharray="4,4"/>
    <line x1="486.2" y1="55" x2="486.2" y2="395" stroke="#e2e8f0" stroke-dasharray="4,4"/>
    <line x1="572.5" y1="55" x2="572.5" y2="395" stroke="#e2e8f0" stroke-dasharray="4,4"/>
    <line x1="658.8" y1="55" x2="658.8" y2="395" stroke="#e2e8f0" stroke-dasharray="4,4"/>
    <line x1="745.0" y1="55" x2="745.0" y2="395" stroke="#e2e8f0" stroke-dasharray="4,4"/>
    <line x1="55" y1="259.0" x2="745" y2="259.0" stroke="#e2e8f0" stroke-dasharray="4,4"/>
    <line x1="55" y1="242.0" x2="745" y2="242.0" stroke="#e2e8f0" stroke-dasharray="4,4"/>
    <line x1="55" y1="208.0" x2="745" y2="208.0" stroke="#e2e8f0" stroke-dasharray="4,4"/>
    <line x1="55" y1="191.0" x2="745" y2="191.0" stroke="#e2e8f0" stroke-dasharray="4,4"/>
  </g>
  <g class="axes">
    <line x1="55" y1="225.0" x2="745" y2="225.0" stroke="#374151" stroke-width="2"/>
    <polygon points="745,225.0 737,221.0 737,229.0" fill="#374151"/>
    <line x1="400.0" y1="55" x2="400.0" y2="395" stroke="#374151" stroke-width="2"/>
    <polygon points="400.0,55 396.0,63 404.0,63" fill="#374151"/>
    <text x="755" y="230.0" font-size="14" font-weight="bold" fill="#374151">x</text>
    <text x="408.0" y="50" font-size="14" font-weight="bold" fill="#374151">y</text>
    <line x1="141.2" y1="221.0" x2="141.2" y2="229.0" stroke="#374151" stroke-width="1.5"/>
    <text x="141.2" y="245.0" text-anchor="middle" font-size="12" fill="#374151">-3π/2</text>
    <line x1="227.5" y1="221.0" x2="227.5" y2="229.0" stroke="#374151" stroke-width="1.5"/>
    <text x="227.5" y="245.0" text-anchor="middle" font-size="12" fill="#374151">-π</text>
    <line x1="313.8" y1="221.0" x2="313.8" y2="229.0" stroke="#374151" stroke-width="1.5"/>
    <text x="313.8" y="245.0" text-anchor="middle" font-size="12" fill="#374151">-π/2</text>
    <line x1="486.2" y1="221.0" x2="486.2" y2="229.0" stroke="#374151" stroke-width="1.5"/>
    <text x="486.2" y="245.0" text-anchor="middle" font-size="12" fill="#374151">π/2</text>
    <line x1="572.5" y1="221.0" x2="572.5" y2="229.0" stroke="#374151" stroke-width="1.5"/>
    <text x="572.5" y="245.0" text-anchor="middle" font-size="12" fill="#374151">π</text>
    <line x1="658.8" y1="221.0" x2="658.8" y2="229.0" stroke="#374151" stroke-width="1.5"/>
    <text x="658.8" y="245.0" text-anchor="middle" font-size="12" fill="#374151">3π/2</text>
    <line x1="396.0" y1="259.0" x2="404.0" y2="259.0" stroke="#374151" stroke-width="1.5"/>
    <text x="388.0" y="263.0" text-anchor="end" font-size="12" fill="#374151">-1</text>
    <line x1="396.0" y1="191.0" x2="404.0" y2="191.0" stroke="#374151" stroke-width="1.5"/>
    <text x="388.0" y="195.0" text-anchor="end" font-size="12" fill="#374151">1</text>
  </g>
  <path id="sin-x" class="wave-path" d="M 55.00 225.00 L 58.45 222.87 L 61.90 220.74 L 65.35 218.63 L 68.80 216.54 L 72.25 214.49 L 75.70 212.48 L 79.15 210.52 L 82.60 208.62 L 86.05 206.78 L 89.50 205.02 L 92.95 203.33 L 96.40 201.73 L 99.85 200.22 L 103.30 198.80 L 106.75 197.49 L 110.20 196.29 L 113.65 195.21 L 117.10 194.24 L 120.55 193.39 L 124.00 192.66 L 127.45 192.07 L 130.90 191.60 L 134.35 191.27 L 137.80 191.07 L 141.25 191.00 L 144.70 191.07 L 148.15 191.27 L 151.60 191.60 L 155.05 192.07 L 158.50 192.66 L 161.95 193.39 L 165.40 194.24 L 168.85 195.21 L 172.30 196.29 L 175.75 197.49 L 179.20 198.80 L 182.65 200.22 L 186.10 201.73 L 189.55 203.33 L 193.00 205.02 L 196.45 206.78 L 199.90 208.62 L 203.35 210.52 L 206.80 212.48 L 210.25 214.49 L 213.70 216.54 L 217.15 218.63 L 220.60 220.74 L 224.05 222.87 L 227.50 225.00 L 230.95 227.13 L 234.40 229.26 L 237.85 231.37 L 241.30 233.46 L 244.75 235.51 L 248.20 237.52 L 251.65 239.48 L 255.10 241.38 L 258.55 243.22 L 262.00 244.98 L 265.45 246.67 L 268.90 248.27 L 272.35 249.78 L 275.80 251.20 L 279.25 252.51 L 282.70 253.71 L 286.15 254.79 L 289.60 255.76 L 293.05 256.61 L 296.50 257.34 L 299.95 257.93 L 303.40 258.40 L 306.85 258.73 L 310.30 258.93 L 313.75 259.00 L 317.20 258.93 L 320.65 258.73 L 324.10 258.40 L 327.55 257.93 L 331.00 257.34 L 334.45 256.61 L 337.90 255.76 L 341.35 254.79 L 344.80 253.71 L 348.25 252.51 L 351.70 251.20 L 355.15 249.78 L 358.60 248.27 L 362.05 246.67 L 365.50 244.98 L 368.95 243.22 L 372.40 241.38 L 375.85 239.48 L 379.30 237.52 L 382.75 235.51 L 386.20 233.46 L 389.65 231.37 L 393.10 229.26 L 396.55 227.13 L 400.00 225.00 L 403.45 222.87 L 406.90 220.74 L 410.35 218.63 L 413.80 216.54 L 417.25 214.49 L 420.70 212.48 L 424.15 210.52 L 427.60 208.62 L 431.05 206.78 L 434.50 205.02 L 437.95 203.33 L 441.40 201.73 L 444.85 200.22 L 448.30 198.80 L 451.75 197.49 L 455.20 196.29 L 458.65 195.21 L 462.10 194.24 L 465.55 193.39 L 469.00 192.66 L 472.45 192.07 L 475.90 191.60 L 479.35 191.27 L 482.80 191.07 L 486.25 191.00 L 489.70 191.07 L 493.15 191.27 L 496.60 191.60 L 500.05 192.07 L 503.50 192.66 L 506.95 193.39 L 510.40 194.24 L 513.85 195.21 L 517.30 196.29 L 520.75 197.49 L 524.20 198.80 L 527.65 200.22 L 531.10 201.73 L 534.55 203.33 L 538.00 205.02 L 541.45 206.78 L 544.90 208.62 L 548.35 210.52 L 551.80 212.48 L 555.25 214.49 L 558.70 216.54 L 562.15 218.63 L 565.60 220.74 L 569.05 222.87 L 572.50 225.00 L 575.95 227.13 L 579.40 229.26 L 582.85 231.37 L 586.30 233.46 L 589.75 235.51 L 593.20 237.52 L 596.65 239.48 L 600.10 241.38 L 603.55 243.22 L 607.00 244.98 L 610.45 246.67 L 613.90 248.27 L 617.35 249.78 L 620.80 251.20 L 624.25 252.51 L 627.70 253.71 L 631.15 254.79 L 634.60 255.76 L 638.05 256.61 L 641.50 257.34 L 644.95 257.93 L 648.40 258.40 L 651.85 258.73 L 655.30 258.93 L 658.75 259.00 L 662.20 258.93 L 665.65 258.73 L 669.10 258.40 L 672.55 257.93 L 676.00 257.34 L 679.45 256.61 L 682.90 255.76 L 686.35 254.79 L 689.80 253.71 L 693.25 252.51 L 696.70 251.20 L 700.15 249.78 L 703.60 248.27 L 707.05 246.67 L 710.50 244.98 L 713.95 243.22 L 717.40 241.38 L 720.85 239.48 L 724.30 237.52 L 727.75 235.51 L 731.20 233.46 L 734.65 231.37 L 738.10 229.26 L 741.55 227.13 L 745.00 225.00" fill="none" stroke="#94a3b8" stroke-width="2" stroke-linecap="round" stroke-linejoin="round"/>
  <path id="csc-x" class="wave-path" d="M 68.80 88.28 L 72.25 114.97 L 75.70 132.64 L 79.15 145.15 L 82.60 154.42 L 86.05 161.55 L 89.50 167.16 L 92.95 171.66 L 96.40 175.33 L 99.85 178.36 L 103.30 180.87 L 106.75 182.97 L 110.20 184.73 L 113.65 186.20 L 117.10 187.42 L 120.55 188.43 L 124.00 189.25 L 127.45 189.90 L 130.90 190.39 L 134.35 190.73 L 137.80 190.93 L 141.25 191.00 L 144.70 190.93 L 148.15 190.73 L 151.60 190.39 L 155.05 189.90 L 158.50 189.25 L 161.95 188.43 L 165.40 187.42 L 168.85 186.20 L 172.30 184.73 L 175.75 182.97 L 179.20 180.87 L 182.65 178.36 L 186.10 175.33 L 189.55 171.66 L 193.00 167.16 L 196.45 161.55 L 199.90 154.42 L 203.35 145.15 L 206.80 132.64 L 210.25 114.97 L 213.70 88.28 M 241.30 361.72 L 244.75 335.03 L 248.20 317.36 L 251.65 304.85 L 255.10 295.58 L 258.55 288.45 L 262.00 282.84 L 265.45 278.34 L 268.90 274.67 L 272.35 271.64 L 275.80 269.13 L 279.25 267.03 L 282.70 265.27 L 286.15 263.80 L 289.60 262.58 L 293.05 261.57 L 296.50 260.75 L 299.95 260.10 L 303.40 259.61 L 306.85 259.27 L 310.30 259.07 L 313.75 259.00 L 317.20 259.07 L 320.65 259.27 L 324.10 259.61 L 327.55 260.10 L 331.00 260.75 L 334.45 261.57 L 337.90 262.58 L 341.35 263.80 L 344.80 265.27 L 348.25 267.03 L 351.70 269.13 L 355.15 271.64 L 358.60 274.67 L 362.05 278.34 L 365.50 282.84 L 368.95 288.45 L 372.40 295.58 L 375.85 304.85 L 379.30 317.36 L 382.75 335.03 L 386.20 361.72 M 413.80 88.28 L 417.25 114.97 L 420.70 132.64 L 424.15 145.15 L 427.60 154.42 L 431.05 161.55 L 434.50 167.16 L 437.95 171.66 L 441.40 175.33 L 444.85 178.36 L 448.30 180.87 L 451.75 182.97 L 455.20 184.73 L 458.65 186.20 L 462.10 187.42 L 465.55 188.43 L 469.00 189.25 L 472.45 189.90 L 475.90 190.39 L 479.35 190.73 L 482.80 190.93 L 486.25 191.00 L 489.70 190.93 L 493.15 190.73 L 496.60 190.39 L 500.05 189.90 L 503.50 189.25 L 506.95 188.43 L 510.40 187.42 L 513.85 186.20 L 517.30 184.73 L 520.75 182.97 L 524.20 180.87 L 527.65 178.36 L 531.10 175.33 L 534.55 171.66 L 538.00 167.16 L 541.45 161.55 L 544.90 154.42 L 548.35 145.15 L 551.80 132.64 L 555.25 114.97 L 558.70 88.28 M 586.30 361.72 L 589.75 335.03 L 593.20 317.36 L 596.65 304.85 L 600.10 295.58 L 603.55 288.45 L 607.00 282.84 L 610.45 278.34 L 613.90 274.67 L 617.35 271.64 L 620.80 269.13 L 624.25 267.03 L 627.70 265.27 L 631.15 263.80 L 634.60 262.58 L 638.05 261.57 L 641.50 260.75 L 644.95 260.10 L 648.40 259.61 L 651.85 259.27 L 655.30 259.07 L 658.75 259.00 L 662.20 259.07 L 665.65 259.27 L 669.10 259.61 L 672.55 260.10 L 676.00 260.75 L 679.45 261.57 L 682.90 262.58 L 686.35 263.80 L 689.80 265.27 L 693.25 267.03 L 696.70 269.13 L 700.15 271.64 L 703.60 274.67 L 707.05 278.34 L 710.50 282.84 L 713.95 288.45 L 717.40 295.58 L 720.85 304.85 L 724.30 317.36 L 727.75 335.03 L 731.20 361.72" fill="none" stroke="#ec4899" stroke-width="3" stroke-linecap="round" stroke-linejoin="round"/>
  <g class="marker-group">
    <circle cx="486.2" cy="191.0" r="6" fill="#3b82f6" stroke="white" stroke-width="2"/>
    <circle cx="313.8" cy="259.0" r="6" fill="#3b82f6" stroke="white" stroke-width="2"/>
  </g>
  <g class="label-group">
    <rect x="436.25" y="164.0" width="100" height="16" fill="white" fill-opacity="0.9" rx="3"/>
    <text x="486.2" y="176.0" text-anchor="middle" font-size="11" font-weight="bold" fill="#3b82f6">(π/2, 1)</text>
    <rect x="263.75" y="272.0" width="100" height="16" fill="white" fill-opacity="0.9" rx="3"/>
    <text x="313.8" y="284.0" text-anchor="middle" font-size="11" font-weight="bold" fill="#3b82f6">(-π/2, -1)</text>
  </g>
  <g class="annotation-group">
    <line x1="400.0" y1="55" x2="400.0" y2="395" stroke="#ef4444" stroke-width="1.5" stroke-dasharray="8,4"/>
    <text x="405.0" y="70" text-anchor="start" font-size="9" fill="#ef4444">x = 0</text>
    <line x1="572.5" y1="55" x2="572.5" y2="395" stroke="#ef4444" stroke-width="1.5" stroke-dasharray="8,4"/>
    <text x="577.5" y="70" text-anchor="start" font-size="9" fill="#ef4444">x = π</text>
    <line x1="227.5" y1="55" x2="227.5" y2="395" stroke="#ef4444" stroke-width="1.5" stroke-dasharray="8,4"/>
    <text x="232.5" y="70" text-anchor="start" font-size="9" fill="#ef4444">x = -π</text>
    <line x1="745.0" y1="55" x2="745.0" y2="395" stroke="#ef4444" stroke-width="1.5" stroke-dasharray="8,4"/>
    <line x1="55.0" y1="55" x2="55.0" y2="395" stroke="#ef4444" stroke-width="1.5" stroke-dasharray="8,4"/>
    <line x1="55" y1="191.0" x2="745" y2="191.0" stroke="#22c55e" stroke-width="1.5" stroke-dasharray="8,4"/>
    <text x="750" y="195.0" text-anchor="start" font-size="10" fill="#22c55e">y = 1</text>
    <line x1="55" y1="259.0" x2="745" y2="259.0" stroke="#22c55e" stroke-width="1.5" stroke-dasharray="8,4"/>
    <text x="750" y="263.0" text-anchor="start" font-size="10" fill="#22c55e">y = -1</text>
  </g>
</svg>