<svg xmlns="http://www.w3.org/2000/svg" viewBox="0 0 800 450" 
style="max-width: 100%; height: auto; font-family: Inter, system-ui, sans-serif;">

  <style>
    .wave-path {
      stroke-dasharray: 3000;
      stroke-dashoffset: 3000;
      animation: drawWave 2s ease-out forwards;
    }
    .marker-group { opacity: 0; animation: fadeIn 0.5s ease-out 2s forwards; }
    .label-group { opacity: 0; animation: fadeIn 0.5s ease-out 2.3s forwards; }
    .annotation-group { opacity: 0; animation: fadeIn 0.5s ease-out 2.5s forwards; }
    @keyframes drawWave { to { stroke-dashoffset: 0; } }
    @keyframes fadeIn { to { opacity: 1; } }
  </style>

  <rect width="800" height="450" fill="#f8fafc" rx="8"/>
  <text x="400.0" y="25" text-anchor="middle" font-size="16" font-weight="bold" fill="#1e293b">La función cotangente: cot(x) = cos(x)/sin(x)</text>
  <g class="grid">
    <line x1="55.0" y1="55" x2="55.0" y2="395" stroke="#e2e8f0" stroke-dasharray="4,4"/>
    <line x1="170.0" y1="55" x2="170.0" y2="395" stroke="#e2e8f0" stroke-dasharray="4,4"/>
    <line x1="285.0" y1="55" x2="285.0" y2="395" stroke="#e2e8f0" stroke-dasharray="4,4"/>
    <line x1="400.0" y1="55" x2="400.0" y2="395" stroke="#e2e8f0" stroke-dasharray="4,4"/>
    <line x1="515.0" y1="55" x2="515.0" y2="395" stroke="#e2e8f0" stroke-dasharray="4,4"/>
    <line x1="630.0" y1="55" x2="630.0" y2="395" stroke="#e2e8f0" stroke-dasharray="4,4"/>
    <line x1="745.0" y1="55" x2="745.0" y2="395" stroke="#e2e8f0" stroke-dasharray="4,4"/>
    <line x1="55" y1="253.3" x2="745" y2="253.3" stroke="#e2e8f0" stroke-dasharray="4,4"/>
    <line x1="55" y1="239.2" x2="745" y2="239.2" stroke="#e2e8f0" stroke-dasharray="4,4"/>
    <line x1="55" y1="210.8" x2="745" y2="210.8" stroke="#e2e8f0" stroke-dasharray="4,4"/>
    <line x1="55" y1="196.7" x2="745" y2="196.7" stroke="#e2e8f0" stroke-dasharray="4,4"/>
  </g>
  <g class="axes">
    <line x1="55" y1="225.0" x2="745" y2="225.0" stroke="#374151" stroke-width="2"/>
    <polygon points="745,225.0 737,221.0 737,229.0" fill="#374151"/>
    <line x1="400.0" y1="55" x2="400.0" y2="395" stroke="#374151" stroke-width="2"/>
    <polygon points="400.0,55 396.0,63 404.0,63" fill="#374151"/>
    <text x="755" y="230.0" font-size="14" font-weight="bold" fill="#374151">x</text>
    <text x="408.0" y="50" font-size="14" font-weight="bold" fill="#374151">y</text>
    <line x1="170.0" y1="221.0" x2="170.0" y2="229.0" stroke="#374151" stroke-width="1.5"/>
    <text x="170.0" y="245.0" text-anchor="middle" font-size="12" fill="#374151">-π</text>
    <line x1="285.0" y1="221.0" x2="285.0" y2="229.0" stroke="#374151" stroke-width="1.5"/>
    <text x="285.0" y="245.0" text-anchor="middle" font-size="12" fill="#374151">-π/2</text>
    <line x1="515.0" y1="221.0" x2="515.0" y2="229.0" stroke="#374151" stroke-width="1.5"/>
    <text x="515.0" y="245.0" text-anchor="middle" font-size="12" fill="#374151">π/2</text>
    <line x1="630.0" y1="221.0" x2="630.0" y2="229.0" stroke="#374151" stroke-width="1.5"/>
    <text x="630.0" y="245.0" text-anchor="middle" font-size="12" fill="#374151">π</text>
    <line x1="396.0" y1="253.3" x2="404.0" y2="253.3" stroke="#374151" stroke-width="1.5"/>
    <text x="388.0" y="257.3" text-anchor="end" font-size="12" fill="#374151">-1</text>
    <line x1="396.0" y1="196.7" x2="404.0" y2="196.7" stroke="#374151" stroke-width="1.5"/>
    <text x="388.0" y="200.7" text-anchor="end" font-size="12" fill="#374151">1</text>
  </g>
  <path id="cot-x" class="wave-path" d="M 55.00 225.00 L 58.45 226.34 L 61.90 227.68 L 65.35 229.03 L 68.80 230.40 L 72.25 231.80 L 75.70 233.23 L 79.15 234.70 L 82.60 236.22 L 86.05 237.79 L 89.50 239.44 L 92.95 241.16 L 96.40 242.98 L 99.85 244.91 L 103.30 246.98 L 106.75 249.20 L 110.20 251.61 L 113.65 254.24 L 117.10 257.14 L 120.55 260.37 L 124.00 264.00 L 127.45 268.13 L 130.90 272.91 L 134.35 278.51 L 137.80 285.21 L 141.25 293.40 L 144.70 303.70 L 148.15 317.10 L 151.60 335.35 L 155.05 361.82 M 182.65 62.66 L 186.10 98.24 L 189.55 121.43 L 193.00 137.80 L 196.45 150.02 L 199.90 159.53 L 203.35 167.16 L 206.80 173.46 L 210.25 178.76 L 213.70 183.31 L 217.15 187.26 L 220.60 190.75 L 224.05 193.86 L 227.50 196.67 L 230.95 199.22 L 234.40 201.56 L 237.85 203.73 L 241.30 205.74 L 244.75 207.64 L 248.20 209.42 L 251.65 211.12 L 255.10 212.74 L 258.55 214.29 L 262.00 215.79 L 265.45 217.25 L 268.90 218.67 L 272.35 220.06 L 275.80 221.42 L 279.25 222.77 L 282.70 224.11 L 286.15 225.45 L 289.60 226.78 L 293.05 228.13 L 296.50 229.49 L 299.95 230.87 L 303.40 232.27 L 306.85 233.72 L 310.30 235.20 L 313.75 236.74 L 317.20 238.33 L 320.65 240.00 L 324.10 241.76 L 327.55 243.61 L 331.00 245.59 L 334.45 247.70 L 337.90 249.98 L 341.35 252.46 L 344.80 255.17 L 348.25 258.17 L 351.70 261.53 L 355.15 265.31 L 358.60 269.65 L 362.05 274.67 L 365.50 280.61 L 368.95 287.75 L 372.40 296.56 L 375.85 307.75 L 379.30 322.52 L 382.75 343.02 L 386.20 373.53 M 413.80 76.47 L 417.25 106.98 L 420.70 127.48 L 424.15 142.25 L 427.60 153.44 L 431.05 162.25 L 434.50 169.39 L 437.95 175.33 L 441.40 180.35 L 444.85 184.69 L 448.30 188.47 L 451.75 191.83 L 455.20 194.83 L 458.65 197.54 L 462.10 200.02 L 465.55 202.30 L 469.00 204.41 L 472.45 206.39 L 475.90 208.24 L 479.35 210.00 L 482.80 211.67 L 486.25 213.26 L 489.70 214.80 L 493.15 216.28 L 496.60 217.73 L 500.05 219.13 L 503.50 220.51 L 506.95 221.87 L 510.40 223.22 L 513.85 224.55 L 517.30 225.89 L 520.75 227.23 L 524.20 228.58 L 527.65 229.94 L 531.10 231.33 L 534.55 232.75 L 538.00 234.21 L 541.45 235.71 L 544.90 237.26 L 548.35 238.88 L 551.80 240.58 L 555.25 242.36 L 558.70 244.26 L 562.15 246.27 L 565.60 248.44 L 569.05 250.78 L 572.50 253.33 L 575.95 256.14 L 579.40 259.25 L 582.85 262.74 L 586.30 266.69 L 589.75 271.24 L 593.20 276.54 L 596.65 282.84 L 600.10 290.47 L 603.55 299.98 L 607.00 312.20 L 610.45 328.57 L 613.90 351.76 L 617.35 387.34 M 644.95 88.18 L 648.40 114.65 L 651.85 132.90 L 655.30 146.30 L 658.75 156.60 L 662.20 164.79 L 665.65 171.49 L 669.10 177.09 L 672.55 181.87 L 676.00 186.00 L 679.45 189.63 L 682.90 192.86 L 686.35 195.76 L 689.80 198.39 L 693.25 200.80 L 696.70 203.02 L 700.15 205.09 L 703.60 207.02 L 707.05 208.84 L 710.50 210.56 L 713.95 212.21 L 717.40 213.78 L 720.85 215.30 L 724.30 216.77 L 727.75 218.20 L 731.20 219.60 L 734.65 220.97 L 738.10 222.32 L 741.55 223.66 L 745.00 225.00" fill="none" stroke="#8b5cf6" stroke-width="3" stroke-linecap="round" stroke-linejoin="round"/>
  <g class="marker-group">
    <circle cx="457.5" cy="196.7" r="6" fill="#ef4444" stroke="white" stroke-width="2"/>
    <circle cx="342.5" cy="253.3" r="6" fill="#ef4444" stroke="white" stroke-width="2"/>
    <circle cx="515.0" cy="225.0" r="6" fill="#22c55e" stroke="white" stroke-width="2"/>
  </g>
  <g class="label-group">
    <rect x="407.5" y="169.66666666666669" width="100" height="16" fill="white" fill-opacity="0.9" rx="3"/>
    <text x="457.5" y="181.7" text-anchor="middle" font-size="11" font-weight="bold" fill="#ef4444">(π/4, 1)</text>
    <rect x="292.5" y="266.33333333333337" width="100" height="16" fill="white" fill-opacity="0.9" rx="3"/>
    <text x="342.5" y="278.3" text-anchor="middle" font-size="11" font-weight="bold" fill="#ef4444">(-π/4, -1)</text>
    <rect x="465.0" y="238.0" width="100" height="16" fill="white" fill-opacity="0.9" rx="3"/>
    <text x="515.0" y="250.0" text-anchor="middle" font-size="11" font-weight="bold" fill="#22c55e">(π/2, 0)</text>
  </g>
  <g class="annotation-group">
    <line x1="400.0" y1="55" x2="400.0" y2="395" stroke="#ef4444" stroke-width="1.5" stroke-dasharray="8,4"/>
    <text x="405.0" y="70" text-anchor="start" font-size="9" fill="#ef4444">x = 0</text>
    <line x1="630.0" y1="55" x2="630.0" y2="395" stroke="#ef4444" stroke-width="1.5" stroke-dasharray="8,4"/>
    <text x="635.0" y="70" text-anchor="start" font-size="9" fill="#ef4444">x = π</text>
    <line x1="170.0" y1="55" x2="170.0" y2="395" stroke="#ef4444" stroke-width="1.5" stroke-dasharray="8,4"/>
    <text x="175.0" y="70" text-anchor="start" font-size="9" fill="#ef4444">x = -π</text>
    <path d="M 400.0 375.8 L 400.0 380.8 L 630.0 380.8 L 630.0 375.8" fill="none" stroke="#3b82f6" stroke-width="2"/>
    <text x="515.0" y="398.8" text-anchor="middle" font-size="12" font-weight="bold" fill="#3b82f6">Período = π</text>
  </g>
</svg>