<svg xmlns="http://www.w3.org/2000/svg" viewBox="0 0 800 450" 
style="max-width: 100%; height: auto; font-family: Inter, system-ui, sans-serif;">

  <style>
    .wave-path {
      stroke-dasharray: 3000;
      stroke-dashoffset: 3000;
      animation: drawWave 2s ease-out forwards;
    }
    .marker-group { opacity: 0; animation: fadeIn 0.5s ease-out 2s forwards; }
    .label-group { opacity: 0; animation: fadeIn 0.5s ease-out 2.3s forwards; }
    .annotation-group { opacity: 0; animation: fadeIn 0.5s ease-out 2.5s forwards; }
    @keyframes drawWave { to { stroke-dashoffset: 0; } }
    @keyframes fadeIn { to { opacity: 1; } }
  </style>

  <rect width="800" height="450" fill="#f8fafc" rx="8"/>
  <text x="400.0" y="25" text-anchor="middle" font-size="16" font-weight="bold" fill="#1e293b">Desplazamiento Vertical (D)</text>
  <g class="grid">
    <line x1="55.0" y1="55" x2="55.0" y2="395" stroke="#e2e8f0" stroke-dasharray="4,4"/>
    <line x1="227.5" y1="55" x2="227.5" y2="395" stroke="#e2e8f0" stroke-dasharray="4,4"/>
    <line x1="400.0" y1="55" x2="400.0" y2="395" stroke="#e2e8f0" stroke-dasharray="4,4"/>
    <line x1="572.5" y1="55" x2="572.5" y2="395" stroke="#e2e8f0" stroke-dasharray="4,4"/>
    <line x1="745.0" y1="55" x2="745.0" y2="395" stroke="#e2e8f0" stroke-dasharray="4,4"/>
    <line x1="55" y1="316.5" x2="745" y2="316.5" stroke="#e2e8f0" stroke-dasharray="4,4"/>
    <line x1="55" y1="290.4" x2="745" y2="290.4" stroke="#e2e8f0" stroke-dasharray="4,4"/>
    <line x1="55" y1="238.1" x2="745" y2="238.1" stroke="#e2e8f0" stroke-dasharray="4,4"/>
    <line x1="55" y1="211.9" x2="745" y2="211.9" stroke="#e2e8f0" stroke-dasharray="4,4"/>
  </g>
  <g class="axes">
    <line x1="55" y1="264.2" x2="745" y2="264.2" stroke="#374151" stroke-width="2"/>
    <polygon points="745,264.2 737,260.2 737,268.2" fill="#374151"/>
    <line x1="55.0" y1="55" x2="55.0" y2="395" stroke="#374151" stroke-width="2"/>
    <polygon points="55.0,55 51.0,63 59.0,63" fill="#374151"/>
    <text x="755" y="269.2" font-size="14" font-weight="bold" fill="#374151">x</text>
    <text x="63.0" y="50" font-size="14" font-weight="bold" fill="#374151">y</text>
    <line x1="227.5" y1="260.2" x2="227.5" y2="268.2" stroke="#374151" stroke-width="1.5"/>
    <text x="227.5" y="284.2" text-anchor="middle" font-size="12" fill="#374151">π/2</text>
    <line x1="400.0" y1="260.2" x2="400.0" y2="268.2" stroke="#374151" stroke-width="1.5"/>
    <text x="400.0" y="284.2" text-anchor="middle" font-size="12" fill="#374151">π</text>
    <line x1="572.5" y1="260.2" x2="572.5" y2="268.2" stroke="#374151" stroke-width="1.5"/>
    <text x="572.5" y="284.2" text-anchor="middle" font-size="12" fill="#374151">3π/2</text>
    <line x1="51.0" y1="316.5" x2="59.0" y2="316.5" stroke="#374151" stroke-width="1.5"/>
    <text x="43.0" y="320.5" text-anchor="end" font-size="12" fill="#374151">-1</text>
    <line x1="51.0" y1="211.9" x2="59.0" y2="211.9" stroke="#374151" stroke-width="1.5"/>
    <text x="43.0" y="215.9" text-anchor="end" font-size="12" fill="#374151">1</text>
  </g>
  <path id="sin-x-base" class="wave-path" d="M 55.00 264.23 L 58.45 262.59 L 61.90 260.95 L 65.35 259.31 L 68.80 257.67 L 72.25 256.05 L 75.70 254.43 L 79.15 252.82 L 82.60 251.22 L 86.05 249.64 L 89.50 248.07 L 92.95 246.51 L 96.40 244.98 L 99.85 243.46 L 103.30 241.96 L 106.75 240.48 L 110.20 239.03 L 113.65 237.60 L 117.10 236.20 L 120.55 234.83 L 124.00 233.49 L 127.45 232.17 L 130.90 230.89 L 134.35 229.64 L 137.80 228.42 L 141.25 227.24 L 144.70 226.10 L 148.15 224.99 L 151.60 223.93 L 155.05 222.90 L 158.50 221.91 L 161.95 220.97 L 165.40 220.07 L 168.85 219.21 L 172.30 218.39 L 175.75 217.62 L 179.20 216.90 L 182.65 216.23 L 186.10 215.60 L 189.55 215.02 L 193.00 214.48 L 196.45 214.00 L 199.90 213.57 L 203.35 213.18 L 206.80 212.85 L 210.25 212.57 L 213.70 212.34 L 217.15 212.16 L 220.60 212.03 L 224.05 211.95 L 227.50 211.92 L 230.95 211.95 L 234.40 212.03 L 237.85 212.16 L 241.30 212.34 L 244.75 212.57 L 248.20 212.85 L 251.65 213.18 L 255.10 213.57 L 258.55 214.00 L 262.00 214.48 L 265.45 215.02 L 268.90 215.60 L 272.35 216.23 L 275.80 216.90 L 279.25 217.62 L 282.70 218.39 L 286.15 219.21 L 289.60 220.07 L 293.05 220.97 L 296.50 221.91 L 299.95 222.90 L 303.40 223.93 L 306.85 224.99 L 310.30 226.10 L 313.75 227.24 L 317.20 228.42 L 320.65 229.64 L 324.10 230.89 L 327.55 232.17 L 331.00 233.49 L 334.45 234.83 L 337.90 236.20 L 341.35 237.60 L 344.80 239.03 L 348.25 240.48 L 351.70 241.96 L 355.15 243.46 L 358.60 244.98 L 362.05 246.51 L 365.50 248.07 L 368.95 249.64 L 372.40 251.22 L 375.85 252.82 L 379.30 254.43 L 382.75 256.05 L 386.20 257.67 L 389.65 259.31 L 393.10 260.95 L 396.55 262.59 L 400.00 264.23 L 403.45 265.87 L 406.90 267.52 L 410.35 269.15 L 413.80 270.79 L 417.25 272.41 L 420.70 274.03 L 424.15 275.64 L 427.60 277.24 L 431.05 278.82 L 434.50 280.39 L 437.95 281.95 L 441.40 283.49 L 444.85 285.00 L 448.30 286.50 L 451.75 287.98 L 455.20 289.43 L 458.65 290.86 L 462.10 292.26 L 465.55 293.63 L 469.00 294.98 L 472.45 296.29 L 475.90 297.57 L 479.35 298.82 L 482.80 300.04 L 486.25 301.22 L 489.70 302.36 L 493.15 303.47 L 496.60 304.53 L 500.05 305.56 L 503.50 306.55 L 506.95 307.49 L 510.40 308.40 L 513.85 309.25 L 517.30 310.07 L 520.75 310.84 L 524.20 311.56 L 527.65 312.24 L 531.10 312.87 L 534.55 313.45 L 538.00 313.98 L 541.45 314.46 L 544.90 314.90 L 548.35 315.28 L 551.80 315.61 L 555.25 315.89 L 558.70 316.13 L 562.15 316.31 L 565.60 316.44 L 569.05 316.51 L 572.50 316.54 L 575.95 316.51 L 579.40 316.44 L 582.85 316.31 L 586.30 316.13 L 589.75 315.89 L 593.20 315.61 L 596.65 315.28 L 600.10 314.90 L 603.55 314.46 L 607.00 313.98 L 610.45 313.45 L 613.90 312.87 L 617.35 312.24 L 620.80 311.56 L 624.25 310.84 L 627.70 310.07 L 631.15 309.25 L 634.60 308.40 L 638.05 307.49 L 641.50 306.55 L 644.95 305.56 L 648.40 304.53 L 651.85 303.47 L 655.30 302.36 L 658.75 301.22 L 662.20 300.04 L 665.65 298.82 L 669.10 297.57 L 672.55 296.29 L 676.00 294.98 L 679.45 293.63 L 682.90 292.26 L 686.35 290.86 L 689.80 289.43 L 693.25 287.98 L 696.70 286.50 L 700.15 285.00 L 703.60 283.49 L 707.05 281.95 L 710.50 280.39 L 713.95 278.82 L 717.40 277.24 L 720.85 275.64 L 724.30 274.03 L 727.75 272.41 L 731.20 270.79 L 734.65 269.15 L 738.10 267.52 L 741.55 265.87 L 745.00 264.23" fill="none" stroke="#94a3b8" stroke-width="2" stroke-linecap="round" stroke-linejoin="round"/>
  <path id="sin-x-arriba" class="wave-path" d="M 55.00 159.62 L 58.45 157.97 L 61.90 156.33 L 65.35 154.69 L 68.80 153.06 L 72.25 151.43 L 75.70 149.81 L 79.15 148.20 L 82.60 146.61 L 86.05 145.02 L 89.50 143.45 L 92.95 141.90 L 96.40 140.36 L 99.85 138.84 L 103.30 137.34 L 106.75 135.87 L 110.20 134.42 L 113.65 132.99 L 117.10 131.59 L 120.55 130.21 L 124.00 128.87 L 127.45 127.56 L 130.90 126.27 L 134.35 125.02 L 137.80 123.81 L 141.25 122.63 L 144.70 121.48 L 148.15 120.38 L 151.60 119.31 L 155.05 118.28 L 158.50 117.30 L 161.95 116.35 L 165.40 115.45 L 168.85 114.59 L 172.30 113.78 L 175.75 113.01 L 179.20 112.29 L 182.65 111.61 L 186.10 110.98 L 189.55 110.40 L 193.00 109.87 L 196.45 109.38 L 199.90 108.95 L 203.35 108.57 L 206.80 108.23 L 210.25 107.95 L 213.70 107.72 L 217.15 107.54 L 220.60 107.41 L 224.05 107.33 L 227.50 107.31 L 230.95 107.33 L 234.40 107.41 L 237.85 107.54 L 241.30 107.72 L 244.75 107.95 L 248.20 108.23 L 251.65 108.57 L 255.10 108.95 L 258.55 109.38 L 262.00 109.87 L 265.45 110.40 L 268.90 110.98 L 272.35 111.61 L 275.80 112.29 L 279.25 113.01 L 282.70 113.78 L 286.15 114.59 L 289.60 115.45 L 293.05 116.35 L 296.50 117.30 L 299.95 118.28 L 303.40 119.31 L 306.85 120.38 L 310.30 121.48 L 313.75 122.63 L 317.20 123.81 L 320.65 125.02 L 324.10 126.27 L 327.55 127.56 L 331.00 128.87 L 334.45 130.21 L 337.90 131.59 L 341.35 132.99 L 344.80 134.42 L 348.25 135.87 L 351.70 137.34 L 355.15 138.84 L 358.60 140.36 L 362.05 141.90 L 365.50 143.45 L 368.95 145.02 L 372.40 146.61 L 375.85 148.20 L 379.30 149.81 L 382.75 151.43 L 386.20 153.06 L 389.65 154.69 L 393.10 156.33 L 396.55 157.97 L 400.00 159.62 L 403.45 161.26 L 406.90 162.90 L 410.35 164.54 L 413.80 166.17 L 417.25 167.80 L 420.70 169.42 L 424.15 171.03 L 427.60 172.62 L 431.05 174.21 L 434.50 175.78 L 437.95 177.33 L 441.40 178.87 L 444.85 180.39 L 448.30 181.89 L 451.75 183.36 L 455.20 184.81 L 458.65 186.24 L 462.10 187.64 L 465.55 189.02 L 469.00 190.36 L 472.45 191.68 L 475.90 192.96 L 479.35 194.21 L 482.80 195.42 L 486.25 196.60 L 489.70 197.75 L 493.15 198.85 L 496.60 199.92 L 500.05 200.95 L 503.50 201.93 L 506.95 202.88 L 510.40 203.78 L 513.85 204.64 L 517.30 205.45 L 520.75 206.22 L 524.20 206.94 L 527.65 207.62 L 531.10 208.25 L 534.55 208.83 L 538.00 209.36 L 541.45 209.85 L 544.90 210.28 L 548.35 210.66 L 551.80 211.00 L 555.25 211.28 L 558.70 211.51 L 562.15 211.69 L 565.60 211.82 L 569.05 211.90 L 572.50 211.92 L 575.95 211.90 L 579.40 211.82 L 582.85 211.69 L 586.30 211.51 L 589.75 211.28 L 593.20 211.00 L 596.65 210.66 L 600.10 210.28 L 603.55 209.85 L 607.00 209.36 L 610.45 208.83 L 613.90 208.25 L 617.35 207.62 L 620.80 206.94 L 624.25 206.22 L 627.70 205.45 L 631.15 204.64 L 634.60 203.78 L 638.05 202.88 L 641.50 201.93 L 644.95 200.95 L 648.40 199.92 L 651.85 198.85 L 655.30 197.75 L 658.75 196.60 L 662.20 195.42 L 665.65 194.21 L 669.10 192.96 L 672.55 191.68 L 676.00 190.36 L 679.45 189.02 L 682.90 187.64 L 686.35 186.24 L 689.80 184.81 L 693.25 183.36 L 696.70 181.89 L 700.15 180.39 L 703.60 178.87 L 707.05 177.33 L 710.50 175.78 L 713.95 174.21 L 717.40 172.62 L 720.85 171.03 L 724.30 169.42 L 727.75 167.80 L 731.20 166.17 L 734.65 164.54 L 738.10 162.90 L 741.55 161.26 L 745.00 159.62" fill="none" stroke="#3b82f6" stroke-width="3" stroke-linecap="round" stroke-linejoin="round"/>
  <path id="sin-x-abajo" class="wave-path" d="M 55.00 316.54 L 58.45 314.90 L 61.90 313.25 L 65.35 311.62 L 68.80 309.98 L 72.25 308.36 L 75.70 306.74 L 79.15 305.13 L 82.60 303.53 L 86.05 301.95 L 89.50 300.37 L 92.95 298.82 L 96.40 297.28 L 99.85 295.76 L 103.30 294.27 L 106.75 292.79 L 110.20 291.34 L 113.65 289.91 L 117.10 288.51 L 120.55 287.14 L 124.00 285.79 L 127.45 284.48 L 130.90 283.20 L 134.35 281.95 L 137.80 280.73 L 141.25 279.55 L 144.70 278.41 L 148.15 277.30 L 151.60 276.23 L 155.05 275.21 L 158.50 274.22 L 161.95 273.28 L 165.40 272.37 L 168.85 271.52 L 172.30 270.70 L 175.75 269.93 L 179.20 269.21 L 182.65 268.53 L 186.10 267.90 L 189.55 267.32 L 193.00 266.79 L 196.45 266.31 L 199.90 265.87 L 203.35 265.49 L 206.80 265.16 L 210.25 264.87 L 213.70 264.64 L 217.15 264.46 L 220.60 264.33 L 224.05 264.26 L 227.50 264.23 L 230.95 264.26 L 234.40 264.33 L 237.85 264.46 L 241.30 264.64 L 244.75 264.87 L 248.20 265.16 L 251.65 265.49 L 255.10 265.87 L 258.55 266.31 L 262.00 266.79 L 265.45 267.32 L 268.90 267.90 L 272.35 268.53 L 275.80 269.21 L 279.25 269.93 L 282.70 270.70 L 286.15 271.52 L 289.60 272.37 L 293.05 273.28 L 296.50 274.22 L 299.95 275.21 L 303.40 276.23 L 306.85 277.30 L 310.30 278.41 L 313.75 279.55 L 317.20 280.73 L 320.65 281.95 L 324.10 283.20 L 327.55 284.48 L 331.00 285.79 L 334.45 287.14 L 337.90 288.51 L 341.35 289.91 L 344.80 291.34 L 348.25 292.79 L 351.70 294.27 L 355.15 295.76 L 358.60 297.28 L 362.05 298.82 L 365.50 300.37 L 368.95 301.95 L 372.40 303.53 L 375.85 305.13 L 379.30 306.74 L 382.75 308.36 L 386.20 309.98 L 389.65 311.62 L 393.10 313.25 L 396.55 314.90 L 400.00 316.54 L 403.45 318.18 L 406.90 319.82 L 410.35 321.46 L 413.80 323.09 L 417.25 324.72 L 420.70 326.34 L 424.15 327.95 L 427.60 329.55 L 431.05 331.13 L 434.50 332.70 L 437.95 334.26 L 441.40 335.79 L 444.85 337.31 L 448.30 338.81 L 451.75 340.29 L 455.20 341.74 L 458.65 343.17 L 462.10 344.57 L 465.55 345.94 L 469.00 347.28 L 472.45 348.60 L 475.90 349.88 L 479.35 351.13 L 482.80 352.35 L 486.25 353.53 L 489.70 354.67 L 493.15 355.78 L 496.60 356.84 L 500.05 357.87 L 503.50 358.86 L 506.95 359.80 L 510.40 360.70 L 513.85 361.56 L 517.30 362.38 L 520.75 363.14 L 524.20 363.87 L 527.65 364.54 L 531.10 365.17 L 534.55 365.75 L 538.00 366.29 L 541.45 366.77 L 544.90 367.20 L 548.35 367.59 L 551.80 367.92 L 555.25 368.20 L 558.70 368.43 L 562.15 368.61 L 565.60 368.74 L 569.05 368.82 L 572.50 368.85 L 575.95 368.82 L 579.40 368.74 L 582.85 368.61 L 586.30 368.43 L 589.75 368.20 L 593.20 367.92 L 596.65 367.59 L 600.10 367.20 L 603.55 366.77 L 607.00 366.29 L 610.45 365.75 L 613.90 365.17 L 617.35 364.54 L 620.80 363.87 L 624.25 363.14 L 627.70 362.38 L 631.15 361.56 L 634.60 360.70 L 638.05 359.80 L 641.50 358.86 L 644.95 357.87 L 648.40 356.84 L 651.85 355.78 L 655.30 354.67 L 658.75 353.53 L 662.20 352.35 L 665.65 351.13 L 669.10 349.88 L 672.55 348.60 L 676.00 347.28 L 679.45 345.94 L 682.90 344.57 L 686.35 343.17 L 689.80 341.74 L 693.25 340.29 L 696.70 338.81 L 700.15 337.31 L 703.60 335.79 L 707.05 334.26 L 710.50 332.70 L 713.95 331.13 L 717.40 329.55 L 720.85 327.95 L 724.30 326.34 L 727.75 324.72 L 731.20 323.09 L 734.65 321.46 L 738.10 319.82 L 741.55 318.18 L 745.00 316.54" fill="none" stroke="#f97316" stroke-width="3" stroke-linecap="round" stroke-linejoin="round"/>
  <g class="annotation-group">
    <rect x="555" y="65" width="180" height="91" rx="6" fill="white" fill-opacity="0.95" stroke="#e2e8f0" stroke-width="1"/>
    <text x="565" y="81" font-size="11" font-weight="bold" fill="#1e293b">Leyenda</text>
    <line x1="565" y1="95" x2="590" y2="95" stroke="#94a3b8" stroke-width="3" stroke-linecap="round"/>
    <text x="597" y="99" font-size="10" fill="#1e293b">sin(x) - Original</text>
    <line x1="565" y1="117" x2="590" y2="117" stroke="#3b82f6" stroke-width="3" stroke-linecap="round"/>
    <text x="597" y="121" font-size="10" fill="#1e293b">sin(x) + 2 ↑ Sube</text>
    <line x1="565" y1="139" x2="590" y2="139" stroke="#f97316" stroke-width="3" stroke-linecap="round"/>
    <text x="597" y="143" font-size="10" fill="#1e293b">sin(x) - 1 ↓ Baja</text>
  </g>
  <g class="annotation-group">
    <line x1="55" y1="159.6" x2="745" y2="159.6" stroke="#3b82f6" stroke-width="1.5" stroke-dasharray="8,4"/>
    <text x="750" y="163.6" text-anchor="start" font-size="10" fill="#3b82f6">Nueva línea central (D=2)</text>
    <line x1="55" y1="316.5" x2="745" y2="316.5" stroke="#f97316" stroke-width="1.5" stroke-dasharray="8,4"/>
    <text x="750" y="320.5" text-anchor="start" font-size="10" fill="#f97316">Nueva línea central (D=-1)</text>
    <text x="400.0" y="70.7" text-anchor="middle" font-size="12" font-weight="normal" fill="#1e293b">Rango: [D - A, D + A]</text>
  </g>
</svg>