<svg xmlns="http://www.w3.org/2000/svg" viewBox="0 0 800 450" 
style="max-width: 100%; height: auto; font-family: Inter, system-ui, sans-serif;">

  <style>
    .wave-path {
      stroke-dasharray: 3000;
      stroke-dashoffset: 3000;
      animation: drawWave 2s ease-out forwards;
    }
    .marker-group { opacity: 0; animation: fadeIn 0.5s ease-out 2s forwards; }
    .label-group { opacity: 0; animation: fadeIn 0.5s ease-out 2.3s forwards; }
    .annotation-group { opacity: 0; animation: fadeIn 0.5s ease-out 2.5s forwards; }
    @keyframes drawWave { to { stroke-dashoffset: 0; } }
    @keyframes fadeIn { to { opacity: 1; } }
  </style>

  <rect width="800" height="450" fill="#f8fafc" rx="8"/>
  <text x="400.0" y="25" text-anchor="middle" font-size="16" font-weight="bold" fill="#1e293b">Ejemplo: y = 3sin(2x - π) + 1</text>
  <g class="grid">
    <line x1="117.7" y1="55" x2="117.7" y2="395" stroke="#e2e8f0" stroke-dasharray="4,4"/>
    <line x1="431.4" y1="55" x2="431.4" y2="395" stroke="#e2e8f0" stroke-dasharray="4,4"/>
    <line x1="745.0" y1="55" x2="745.0" y2="395" stroke="#e2e8f0" stroke-dasharray="4,4"/>
    <line x1="55" y1="310.0" x2="745" y2="310.0" stroke="#e2e8f0" stroke-dasharray="4,4"/>
    <line x1="55" y1="288.8" x2="745" y2="288.8" stroke="#e2e8f0" stroke-dasharray="4,4"/>
    <line x1="55" y1="246.2" x2="745" y2="246.2" stroke="#e2e8f0" stroke-dasharray="4,4"/>
    <line x1="55" y1="225.0" x2="745" y2="225.0" stroke="#e2e8f0" stroke-dasharray="4,4"/>
  </g>
  <g class="axes">
    <line x1="55" y1="267.5" x2="745" y2="267.5" stroke="#374151" stroke-width="2"/>
    <polygon points="745,267.5 737,263.5 737,271.5" fill="#374151"/>
    <line x1="117.7" y1="55" x2="117.7" y2="395" stroke="#374151" stroke-width="2"/>
    <polygon points="117.7,55 113.7,63 121.7,63" fill="#374151"/>
    <text x="755" y="272.5" font-size="14" font-weight="bold" fill="#374151">x</text>
    <text x="125.7" y="50" font-size="14" font-weight="bold" fill="#374151">y</text>
    <line x1="431.4" y1="263.5" x2="431.4" y2="271.5" stroke="#374151" stroke-width="1.5"/>
    <text x="431.4" y="287.5" text-anchor="middle" font-size="12" fill="#374151">5</text>
    <line x1="745.0" y1="263.5" x2="745.0" y2="271.5" stroke="#374151" stroke-width="1.5"/>
    <text x="745.0" y="287.5" text-anchor="middle" font-size="12" fill="#374151">10</text>
    <line x1="113.7" y1="310.0" x2="121.7" y2="310.0" stroke="#374151" stroke-width="1.5"/>
    <text x="105.7" y="314.0" text-anchor="end" font-size="12" fill="#374151">-1</text>
    <line x1="113.7" y1="225.0" x2="121.7" y2="225.0" stroke="#374151" stroke-width="1.5"/>
    <text x="105.7" y="229.0" text-anchor="end" font-size="12" fill="#374151">1</text>
  </g>
  <path id="sin-x-base" class="wave-path" d="M 55.00 303.26 L 58.45 301.95 L 61.90 300.53 L 65.35 299.01 L 68.80 297.39 L 72.25 295.68 L 75.70 293.89 L 79.15 292.02 L 82.60 290.08 L 86.05 288.06 L 89.50 285.99 L 92.95 283.85 L 96.40 281.67 L 99.85 279.45 L 103.30 277.19 L 106.75 274.90 L 110.20 272.59 L 113.65 270.26 L 117.10 267.92 L 120.55 265.59 L 124.00 263.26 L 127.45 260.94 L 130.90 258.64 L 134.35 256.37 L 137.80 254.13 L 141.25 251.93 L 144.70 249.78 L 148.15 247.69 L 151.60 245.65 L 155.05 243.68 L 158.50 241.78 L 161.95 239.96 L 165.40 238.22 L 168.85 236.57 L 172.30 235.02 L 175.75 233.56 L 179.20 232.20 L 182.65 230.96 L 186.10 229.82 L 189.55 228.79 L 193.00 227.89 L 196.45 227.10 L 199.90 226.44 L 203.35 225.90 L 206.80 225.48 L 210.25 225.19 L 213.70 225.04 L 217.15 225.00 L 220.60 225.10 L 224.05 225.33 L 227.50 225.68 L 230.95 226.16 L 234.40 226.76 L 237.85 227.49 L 241.30 228.34 L 244.75 229.31 L 248.20 230.39 L 251.65 231.59 L 255.10 232.89 L 258.55 234.30 L 262.00 235.81 L 265.45 237.41 L 268.90 239.11 L 272.35 240.89 L 275.80 242.75 L 279.25 244.69 L 282.70 246.69 L 286.15 248.76 L 289.60 250.89 L 293.05 253.06 L 296.50 255.28 L 299.95 257.54 L 303.40 259.82 L 306.85 262.13 L 310.30 264.46 L 313.75 266.79 L 317.20 269.13 L 320.65 271.46 L 324.10 273.78 L 327.55 276.09 L 331.00 278.36 L 334.45 280.60 L 337.90 282.81 L 341.35 284.96 L 344.80 287.07 L 348.25 289.11 L 351.70 291.09 L 355.15 293.00 L 358.60 294.83 L 362.05 296.58 L 365.50 298.24 L 368.95 299.80 L 372.40 301.27 L 375.85 302.64 L 379.30 303.90 L 382.75 305.05 L 386.20 306.09 L 389.65 307.01 L 393.10 307.81 L 396.55 308.49 L 400.00 309.05 L 403.45 309.47 L 406.90 309.78 L 410.35 309.95 L 413.80 310.00 L 417.25 309.92 L 420.70 309.71 L 424.15 309.37 L 427.60 308.90 L 431.05 308.31 L 434.50 307.60 L 437.95 306.77 L 441.40 305.81 L 444.85 304.74 L 448.30 303.56 L 451.75 302.27 L 455.20 300.88 L 458.65 299.38 L 462.10 297.79 L 465.55 296.10 L 469.00 294.33 L 472.45 292.48 L 475.90 290.55 L 479.35 288.55 L 482.80 286.49 L 486.25 284.37 L 489.70 282.20 L 493.15 279.99 L 496.60 277.73 L 500.05 275.45 L 503.50 273.14 L 506.95 270.82 L 510.40 268.49 L 513.85 266.15 L 517.30 263.82 L 520.75 261.49 L 524.20 259.19 L 527.65 256.91 L 531.10 254.66 L 534.55 252.46 L 538.00 250.29 L 541.45 248.18 L 544.90 246.13 L 548.35 244.14 L 551.80 242.23 L 555.25 240.39 L 558.70 238.63 L 562.15 236.96 L 565.60 235.38 L 569.05 233.90 L 572.50 232.52 L 575.95 231.25 L 579.40 230.08 L 582.85 229.03 L 586.30 228.09 L 589.75 227.28 L 593.20 226.59 L 596.65 226.01 L 600.10 225.57 L 603.55 225.25 L 607.00 225.06 L 610.45 225.00 L 613.90 225.07 L 617.35 225.26 L 620.80 225.58 L 624.25 226.03 L 627.70 226.61 L 631.15 227.31 L 634.60 228.13 L 638.05 229.07 L 641.50 230.12 L 644.95 231.29 L 648.40 232.57 L 651.85 233.95 L 655.30 235.44 L 658.75 237.02 L 662.20 238.69 L 665.65 240.45 L 669.10 242.30 L 672.55 244.22 L 676.00 246.21 L 679.45 248.26 L 682.90 250.37 L 686.35 252.54 L 689.80 254.75 L 693.25 256.99 L 696.70 259.27 L 700.15 261.58 L 703.60 263.90 L 707.05 266.23 L 710.50 268.57 L 713.95 270.91 L 717.40 273.23 L 720.85 275.54 L 724.30 277.82 L 727.75 280.07 L 731.20 282.28 L 734.65 284.45 L 738.10 286.57 L 741.55 288.63 L 745.00 290.62" fill="none" stroke="#94a3b8" stroke-width="1" stroke-linecap="round" stroke-linejoin="round"/>
  <path id="completa" class="wave-path" d="M 55.00 109.06 L 58.45 103.94 L 61.90 100.28 L 65.35 98.13 L 68.80 97.51 L 72.25 98.43 L 75.70 100.88 L 79.15 104.83 L 82.60 110.24 L 86.05 117.03 L 89.50 125.13 L 92.95 134.43 L 96.40 144.83 L 99.85 156.20 L 103.30 168.40 L 106.75 181.28 L 110.20 194.69 L 113.65 208.47 L 117.10 222.45 L 120.55 236.46 L 124.00 250.33 L 127.45 263.89 L 130.90 276.99 L 134.35 289.46 L 137.80 301.14 L 141.25 311.91 L 144.70 321.62 L 148.15 330.17 L 151.60 337.45 L 155.05 343.37 L 158.50 347.85 L 161.95 350.86 L 165.40 352.34 L 168.85 352.28 L 172.30 350.68 L 175.75 347.56 L 179.20 342.96 L 182.65 336.94 L 186.10 329.56 L 189.55 320.92 L 193.00 311.12 L 196.45 300.28 L 199.90 288.53 L 203.35 276.01 L 206.80 262.87 L 210.25 249.28 L 213.70 235.39 L 217.15 221.38 L 220.60 207.41 L 224.05 193.65 L 227.50 180.28 L 230.95 167.44 L 234.40 155.30 L 237.85 144.00 L 241.30 133.68 L 244.75 124.46 L 248.20 116.46 L 251.65 109.77 L 255.10 104.48 L 258.55 100.64 L 262.00 98.30 L 265.45 97.50 L 268.90 98.24 L 272.35 100.51 L 275.80 104.28 L 279.25 109.51 L 282.70 116.14 L 286.15 124.09 L 289.60 133.25 L 293.05 143.53 L 296.50 154.79 L 299.95 166.90 L 303.40 179.71 L 306.85 193.06 L 310.30 206.81 L 313.75 220.77 L 317.20 234.78 L 320.65 248.68 L 324.10 262.29 L 327.55 275.45 L 331.00 288.00 L 334.45 299.79 L 337.90 310.67 L 341.35 320.52 L 344.80 329.21 L 348.25 336.65 L 351.70 342.73 L 355.15 347.39 L 358.60 350.58 L 362.05 352.24 L 365.50 352.37 L 368.95 350.95 L 372.40 348.02 L 375.85 343.59 L 379.30 337.74 L 382.75 330.52 L 386.20 322.02 L 389.65 312.35 L 393.10 301.63 L 396.55 289.98 L 400.00 277.55 L 403.45 264.47 L 406.90 250.93 L 410.35 237.07 L 413.80 223.06 L 417.25 209.08 L 420.70 195.28 L 424.15 181.85 L 427.60 168.94 L 431.05 156.71 L 434.50 145.30 L 437.95 134.86 L 441.40 125.51 L 444.85 117.35 L 448.30 110.50 L 451.75 105.04 L 455.20 101.02 L 458.65 98.50 L 462.10 97.52 L 465.55 98.07 L 469.00 100.15 L 472.45 103.75 L 475.90 108.81 L 479.35 115.28 L 482.80 123.07 L 486.25 132.10 L 489.70 142.24 L 493.15 153.39 L 496.60 165.40 L 500.05 178.14 L 503.50 191.44 L 506.95 205.14 L 510.40 219.09 L 513.85 233.11 L 517.30 247.03 L 520.75 260.68 L 524.20 273.90 L 527.65 286.53 L 531.10 298.42 L 534.55 309.42 L 538.00 319.40 L 541.45 328.24 L 544.90 335.83 L 548.35 342.08 L 551.80 346.91 L 555.25 350.27 L 558.70 352.12 L 562.15 352.43 L 565.60 351.20 L 569.05 348.45 L 572.50 344.20 L 575.95 338.51 L 579.40 331.45 L 582.85 323.10 L 586.30 313.57 L 589.75 302.97 L 593.20 291.42 L 596.65 279.07 L 600.10 266.07 L 603.55 252.57 L 607.00 238.74 L 610.45 224.74 L 613.90 210.75 L 617.35 196.92 L 620.80 183.44 L 624.25 170.46 L 627.70 158.14 L 631.15 146.62 L 634.60 136.06 L 638.05 126.57 L 641.50 118.26 L 644.95 111.25 L 648.40 105.62 L 651.85 101.42 L 655.30 98.73 L 658.75 97.55 L 662.20 97.92 L 665.65 99.82 L 669.10 103.24 L 672.55 108.13 L 676.00 114.43 L 679.45 122.07 L 682.90 130.95 L 686.35 140.97 L 689.80 152.01 L 693.25 163.92 L 696.70 176.58 L 700.15 189.82 L 703.60 203.49 L 707.05 217.41 L 710.50 231.43 L 713.95 245.37 L 717.40 259.06 L 720.85 272.34 L 724.30 285.05 L 727.75 297.04 L 731.20 308.15 L 734.65 318.26 L 738.10 327.24 L 741.55 334.99 L 745.00 341.40" fill="none" stroke="#8b5cf6" stroke-width="3" stroke-linecap="round" stroke-linejoin="round"/>
  <g class="marker-group">
    <circle cx="265.5" cy="97.5" r="6" fill="#ef4444" stroke="white" stroke-width="2"/>
  </g>
  <g class="label-group">
    <rect x="215.52492711206526" y="70.5" width="100" height="16" fill="white" fill-opacity="0.9" rx="3"/>
    <text x="265.5" y="82.5" text-anchor="middle" font-size="11" font-weight="bold" fill="#ef4444">Máximo (3π/4, 4)</text>
  </g>
</svg>