<svg xmlns="http://www.w3.org/2000/svg" viewBox="0 0 800 450" 
style="max-width: 100%; height: auto; font-family: Inter, system-ui, sans-serif;">

  <style>
    .wave-path {
      stroke-dasharray: 3000;
      stroke-dashoffset: 3000;
      animation: drawWave 2s ease-out forwards;
    }
    .marker-group { opacity: 0; animation: fadeIn 0.5s ease-out 2s forwards; }
    .label-group { opacity: 0; animation: fadeIn 0.5s ease-out 2.3s forwards; }
    .annotation-group { opacity: 0; animation: fadeIn 0.5s ease-out 2.5s forwards; }
    @keyframes drawWave { to { stroke-dashoffset: 0; } }
    @keyframes fadeIn { to { opacity: 1; } }
  </style>

  <rect width="800" height="450" fill="#f8fafc" rx="8"/>
  <text x="400.0" y="25" text-anchor="middle" font-size="16" font-weight="bold" fill="#1e293b">Desplazamiento de Fase (Horizontal)</text>
  <g class="grid">
    <line x1="55.0" y1="55" x2="55.0" y2="395" stroke="#e2e8f0" stroke-dasharray="4,4"/>
    <line x1="170.0" y1="55" x2="170.0" y2="395" stroke="#e2e8f0" stroke-dasharray="4,4"/>
    <line x1="285.0" y1="55" x2="285.0" y2="395" stroke="#e2e8f0" stroke-dasharray="4,4"/>
    <line x1="400.0" y1="55" x2="400.0" y2="395" stroke="#e2e8f0" stroke-dasharray="4,4"/>
    <line x1="515.0" y1="55" x2="515.0" y2="395" stroke="#e2e8f0" stroke-dasharray="4,4"/>
    <line x1="630.0" y1="55" x2="630.0" y2="395" stroke="#e2e8f0" stroke-dasharray="4,4"/>
    <line x1="55" y1="319.4" x2="745" y2="319.4" stroke="#e2e8f0" stroke-dasharray="4,4"/>
    <line x1="55" y1="272.2" x2="745" y2="272.2" stroke="#e2e8f0" stroke-dasharray="4,4"/>
    <line x1="55" y1="177.8" x2="745" y2="177.8" stroke="#e2e8f0" stroke-dasharray="4,4"/>
    <line x1="55" y1="130.6" x2="745" y2="130.6" stroke="#e2e8f0" stroke-dasharray="4,4"/>
  </g>
  <g class="axes">
    <line x1="55" y1="225.0" x2="745" y2="225.0" stroke="#374151" stroke-width="2"/>
    <polygon points="745,225.0 737,221.0 737,229.0" fill="#374151"/>
    <line x1="170.0" y1="55" x2="170.0" y2="395" stroke="#374151" stroke-width="2"/>
    <polygon points="170.0,55 166.0,63 174.0,63" fill="#374151"/>
    <text x="755" y="230.0" font-size="14" font-weight="bold" fill="#374151">x</text>
    <text x="178.0" y="50" font-size="14" font-weight="bold" fill="#374151">y</text>
    <line x1="285.0" y1="221.0" x2="285.0" y2="229.0" stroke="#374151" stroke-width="1.5"/>
    <text x="285.0" y="245.0" text-anchor="middle" font-size="12" fill="#374151">π/2</text>
    <line x1="400.0" y1="221.0" x2="400.0" y2="229.0" stroke="#374151" stroke-width="1.5"/>
    <text x="400.0" y="245.0" text-anchor="middle" font-size="12" fill="#374151">π</text>
    <line x1="515.0" y1="221.0" x2="515.0" y2="229.0" stroke="#374151" stroke-width="1.5"/>
    <text x="515.0" y="245.0" text-anchor="middle" font-size="12" fill="#374151">3π/2</text>
    <line x1="630.0" y1="221.0" x2="630.0" y2="229.0" stroke="#374151" stroke-width="1.5"/>
    <text x="630.0" y="245.0" text-anchor="middle" font-size="12" fill="#374151">2π</text>
    <line x1="166.0" y1="319.4" x2="174.0" y2="319.4" stroke="#374151" stroke-width="1.5"/>
    <text x="158.0" y="323.4" text-anchor="end" font-size="12" fill="#374151">-1</text>
    <line x1="166.0" y1="130.6" x2="174.0" y2="130.6" stroke="#374151" stroke-width="1.5"/>
    <text x="158.0" y="134.6" text-anchor="end" font-size="12" fill="#374151">1</text>
  </g>
  <path id="sin-x-base" class="wave-path" d="M 55.00 319.44 L 58.45 319.34 L 61.90 319.03 L 65.35 318.50 L 68.80 317.77 L 72.25 316.83 L 75.70 315.69 L 79.15 314.35 L 82.60 312.81 L 86.05 311.08 L 89.50 309.15 L 92.95 307.04 L 96.40 304.74 L 99.85 302.27 L 103.30 299.63 L 106.75 296.82 L 110.20 293.85 L 113.65 290.73 L 117.10 287.46 L 120.55 284.05 L 124.00 280.51 L 127.45 276.85 L 130.90 273.08 L 134.35 269.19 L 137.80 265.21 L 141.25 261.14 L 144.70 256.99 L 148.15 252.77 L 151.60 248.49 L 155.05 244.15 L 158.50 239.77 L 161.95 235.36 L 165.40 230.93 L 168.85 226.48 L 172.30 222.03 L 175.75 217.59 L 179.20 213.16 L 182.65 208.76 L 186.10 204.40 L 189.55 200.08 L 193.00 195.82 L 196.45 191.62 L 199.90 187.49 L 203.35 183.45 L 206.80 179.50 L 210.25 175.65 L 213.70 171.91 L 217.15 168.29 L 220.60 164.80 L 224.05 161.44 L 227.50 158.22 L 230.95 155.15 L 234.40 152.23 L 237.85 149.47 L 241.30 146.89 L 244.75 144.47 L 248.20 142.24 L 251.65 140.19 L 255.10 138.32 L 258.55 136.65 L 262.00 135.18 L 265.45 133.90 L 268.90 132.83 L 272.35 131.96 L 275.80 131.30 L 279.25 130.85 L 282.70 130.60 L 286.15 130.57 L 289.60 130.74 L 293.05 131.13 L 296.50 131.72 L 299.95 132.52 L 303.40 133.52 L 306.85 134.73 L 310.30 136.14 L 313.75 137.74 L 317.20 139.54 L 320.65 141.53 L 324.10 143.71 L 327.55 146.06 L 331.00 148.59 L 334.45 151.29 L 337.90 154.16 L 341.35 157.18 L 344.80 160.35 L 348.25 163.66 L 351.70 167.11 L 355.15 170.69 L 358.60 174.39 L 362.05 178.21 L 365.50 182.12 L 368.95 186.13 L 372.40 190.23 L 375.85 194.41 L 379.30 198.65 L 382.75 202.95 L 386.20 207.30 L 389.65 211.69 L 393.10 216.11 L 396.55 220.55 L 400.00 225.00 L 403.45 229.45 L 406.90 233.89 L 410.35 238.31 L 413.80 242.70 L 417.25 247.05 L 420.70 251.35 L 424.15 255.59 L 427.60 259.77 L 431.05 263.87 L 434.50 267.88 L 437.95 271.79 L 441.40 275.61 L 444.85 279.31 L 448.30 282.89 L 451.75 286.34 L 455.20 289.65 L 458.65 292.82 L 462.10 295.84 L 465.55 298.71 L 469.00 301.41 L 472.45 303.94 L 475.90 306.29 L 479.35 308.47 L 482.80 310.46 L 486.25 312.26 L 489.70 313.86 L 493.15 315.27 L 496.60 316.48 L 500.05 317.48 L 503.50 318.28 L 506.95 318.87 L 510.40 319.26 L 513.85 319.43 L 517.30 319.40 L 520.75 319.15 L 524.20 318.70 L 527.65 318.04 L 531.10 317.17 L 534.55 316.10 L 538.00 314.82 L 541.45 313.35 L 544.90 311.68 L 548.35 309.81 L 551.80 307.76 L 555.25 305.53 L 558.70 303.11 L 562.15 300.53 L 565.60 297.77 L 569.05 294.85 L 572.50 291.78 L 575.95 288.56 L 579.40 285.20 L 582.85 281.71 L 586.30 278.09 L 589.75 274.35 L 593.20 270.50 L 596.65 266.55 L 600.10 262.51 L 603.55 258.38 L 607.00 254.18 L 610.45 249.92 L 613.90 245.60 L 617.35 241.24 L 620.80 236.84 L 624.25 232.41 L 627.70 227.97 L 631.15 223.52 L 634.60 219.07 L 638.05 214.64 L 641.50 210.23 L 644.95 205.85 L 648.40 201.51 L 651.85 197.23 L 655.30 193.01 L 658.75 188.86 L 662.20 184.79 L 665.65 180.81 L 669.10 176.92 L 672.55 173.15 L 676.00 169.49 L 679.45 165.95 L 682.90 162.54 L 686.35 159.27 L 689.80 156.15 L 693.25 153.18 L 696.70 150.37 L 700.15 147.73 L 703.60 145.26 L 707.05 142.96 L 710.50 140.85 L 713.95 138.92 L 717.40 137.19 L 720.85 135.65 L 724.30 134.31 L 727.75 133.17 L 731.20 132.23 L 734.65 131.50 L 738.10 130.97 L 741.55 130.66 L 745.00 130.56" fill="none" stroke="#94a3b8" stroke-width="2" stroke-linecap="round" stroke-linejoin="round"/>
  <path id="sin-x-derecha" class="wave-path" d="M 55.00 225.00 L 58.45 229.45 L 61.90 233.89 L 65.35 238.31 L 68.80 242.70 L 72.25 247.05 L 75.70 251.35 L 79.15 255.59 L 82.60 259.77 L 86.05 263.87 L 89.50 267.88 L 92.95 271.79 L 96.40 275.61 L 99.85 279.31 L 103.30 282.89 L 106.75 286.34 L 110.20 289.65 L 113.65 292.82 L 117.10 295.84 L 120.55 298.71 L 124.00 301.41 L 127.45 303.94 L 130.90 306.29 L 134.35 308.47 L 137.80 310.46 L 141.25 312.26 L 144.70 313.86 L 148.15 315.27 L 151.60 316.48 L 155.05 317.48 L 158.50 318.28 L 161.95 318.87 L 165.40 319.26 L 168.85 319.43 L 172.30 319.40 L 175.75 319.15 L 179.20 318.70 L 182.65 318.04 L 186.10 317.17 L 189.55 316.10 L 193.00 314.82 L 196.45 313.35 L 199.90 311.68 L 203.35 309.81 L 206.80 307.76 L 210.25 305.53 L 213.70 303.11 L 217.15 300.53 L 220.60 297.77 L 224.05 294.85 L 227.50 291.78 L 230.95 288.56 L 234.40 285.20 L 237.85 281.71 L 241.30 278.09 L 244.75 274.35 L 248.20 270.50 L 251.65 266.55 L 255.10 262.51 L 258.55 258.38 L 262.00 254.18 L 265.45 249.92 L 268.90 245.60 L 272.35 241.24 L 275.80 236.84 L 279.25 232.41 L 282.70 227.97 L 286.15 223.52 L 289.60 219.07 L 293.05 214.64 L 296.50 210.23 L 299.95 205.85 L 303.40 201.51 L 306.85 197.23 L 310.30 193.01 L 313.75 188.86 L 317.20 184.79 L 320.65 180.81 L 324.10 176.92 L 327.55 173.15 L 331.00 169.49 L 334.45 165.95 L 337.90 162.54 L 341.35 159.27 L 344.80 156.15 L 348.25 153.18 L 351.70 150.37 L 355.15 147.73 L 358.60 145.26 L 362.05 142.96 L 365.50 140.85 L 368.95 138.92 L 372.40 137.19 L 375.85 135.65 L 379.30 134.31 L 382.75 133.17 L 386.20 132.23 L 389.65 131.50 L 393.10 130.97 L 396.55 130.66 L 400.00 130.56 L 403.45 130.66 L 406.90 130.97 L 410.35 131.50 L 413.80 132.23 L 417.25 133.17 L 420.70 134.31 L 424.15 135.65 L 427.60 137.19 L 431.05 138.92 L 434.50 140.85 L 437.95 142.96 L 441.40 145.26 L 444.85 147.73 L 448.30 150.37 L 451.75 153.18 L 455.20 156.15 L 458.65 159.27 L 462.10 162.54 L 465.55 165.95 L 469.00 169.49 L 472.45 173.15 L 475.90 176.92 L 479.35 180.81 L 482.80 184.79 L 486.25 188.86 L 489.70 193.01 L 493.15 197.23 L 496.60 201.51 L 500.05 205.85 L 503.50 210.23 L 506.95 214.64 L 510.40 219.07 L 513.85 223.52 L 517.30 227.97 L 520.75 232.41 L 524.20 236.84 L 527.65 241.24 L 531.10 245.60 L 534.55 249.92 L 538.00 254.18 L 541.45 258.38 L 544.90 262.51 L 548.35 266.55 L 551.80 270.50 L 555.25 274.35 L 558.70 278.09 L 562.15 281.71 L 565.60 285.20 L 569.05 288.56 L 572.50 291.78 L 575.95 294.85 L 579.40 297.77 L 582.85 300.53 L 586.30 303.11 L 589.75 305.53 L 593.20 307.76 L 596.65 309.81 L 600.10 311.68 L 603.55 313.35 L 607.00 314.82 L 610.45 316.10 L 613.90 317.17 L 617.35 318.04 L 620.80 318.70 L 624.25 319.15 L 627.70 319.40 L 631.15 319.43 L 634.60 319.26 L 638.05 318.87 L 641.50 318.28 L 644.95 317.48 L 648.40 316.48 L 651.85 315.27 L 655.30 313.86 L 658.75 312.26 L 662.20 310.46 L 665.65 308.47 L 669.10 306.29 L 672.55 303.94 L 676.00 301.41 L 679.45 298.71 L 682.90 295.84 L 686.35 292.82 L 689.80 289.65 L 693.25 286.34 L 696.70 282.89 L 700.15 279.31 L 703.60 275.61 L 707.05 271.79 L 710.50 267.88 L 713.95 263.87 L 717.40 259.77 L 720.85 255.59 L 724.30 251.35 L 727.75 247.05 L 731.20 242.70 L 734.65 238.31 L 738.10 233.89 L 741.55 229.45 L 745.00 225.00" fill="none" stroke="#ef4444" stroke-width="3" stroke-linecap="round" stroke-linejoin="round"/>
  <path id="sin-x-izquierda" class="wave-path" d="M 55.00 225.00 L 58.45 220.55 L 61.90 216.11 L 65.35 211.69 L 68.80 207.30 L 72.25 202.95 L 75.70 198.65 L 79.15 194.41 L 82.60 190.23 L 86.05 186.13 L 89.50 182.12 L 92.95 178.21 L 96.40 174.39 L 99.85 170.69 L 103.30 167.11 L 106.75 163.66 L 110.20 160.35 L 113.65 157.18 L 117.10 154.16 L 120.55 151.29 L 124.00 148.59 L 127.45 146.06 L 130.90 143.71 L 134.35 141.53 L 137.80 139.54 L 141.25 137.74 L 144.70 136.14 L 148.15 134.73 L 151.60 133.52 L 155.05 132.52 L 158.50 131.72 L 161.95 131.13 L 165.40 130.74 L 168.85 130.57 L 172.30 130.60 L 175.75 130.85 L 179.20 131.30 L 182.65 131.96 L 186.10 132.83 L 189.55 133.90 L 193.00 135.18 L 196.45 136.65 L 199.90 138.32 L 203.35 140.19 L 206.80 142.24 L 210.25 144.47 L 213.70 146.89 L 217.15 149.47 L 220.60 152.23 L 224.05 155.15 L 227.50 158.22 L 230.95 161.44 L 234.40 164.80 L 237.85 168.29 L 241.30 171.91 L 244.75 175.65 L 248.20 179.50 L 251.65 183.45 L 255.10 187.49 L 258.55 191.62 L 262.00 195.82 L 265.45 200.08 L 268.90 204.40 L 272.35 208.76 L 275.80 213.16 L 279.25 217.59 L 282.70 222.03 L 286.15 226.48 L 289.60 230.93 L 293.05 235.36 L 296.50 239.77 L 299.95 244.15 L 303.40 248.49 L 306.85 252.77 L 310.30 256.99 L 313.75 261.14 L 317.20 265.21 L 320.65 269.19 L 324.10 273.08 L 327.55 276.85 L 331.00 280.51 L 334.45 284.05 L 337.90 287.46 L 341.35 290.73 L 344.80 293.85 L 348.25 296.82 L 351.70 299.63 L 355.15 302.27 L 358.60 304.74 L 362.05 307.04 L 365.50 309.15 L 368.95 311.08 L 372.40 312.81 L 375.85 314.35 L 379.30 315.69 L 382.75 316.83 L 386.20 317.77 L 389.65 318.50 L 393.10 319.03 L 396.55 319.34 L 400.00 319.44 L 403.45 319.34 L 406.90 319.03 L 410.35 318.50 L 413.80 317.77 L 417.25 316.83 L 420.70 315.69 L 424.15 314.35 L 427.60 312.81 L 431.05 311.08 L 434.50 309.15 L 437.95 307.04 L 441.40 304.74 L 444.85 302.27 L 448.30 299.63 L 451.75 296.82 L 455.20 293.85 L 458.65 290.73 L 462.10 287.46 L 465.55 284.05 L 469.00 280.51 L 472.45 276.85 L 475.90 273.08 L 479.35 269.19 L 482.80 265.21 L 486.25 261.14 L 489.70 256.99 L 493.15 252.77 L 496.60 248.49 L 500.05 244.15 L 503.50 239.77 L 506.95 235.36 L 510.40 230.93 L 513.85 226.48 L 517.30 222.03 L 520.75 217.59 L 524.20 213.16 L 527.65 208.76 L 531.10 204.40 L 534.55 200.08 L 538.00 195.82 L 541.45 191.62 L 544.90 187.49 L 548.35 183.45 L 551.80 179.50 L 555.25 175.65 L 558.70 171.91 L 562.15 168.29 L 565.60 164.80 L 569.05 161.44 L 572.50 158.22 L 575.95 155.15 L 579.40 152.23 L 582.85 149.47 L 586.30 146.89 L 589.75 144.47 L 593.20 142.24 L 596.65 140.19 L 600.10 138.32 L 603.55 136.65 L 607.00 135.18 L 610.45 133.90 L 613.90 132.83 L 617.35 131.96 L 620.80 131.30 L 624.25 130.85 L 627.70 130.60 L 631.15 130.57 L 634.60 130.74 L 638.05 131.13 L 641.50 131.72 L 644.95 132.52 L 648.40 133.52 L 651.85 134.73 L 655.30 136.14 L 658.75 137.74 L 662.20 139.54 L 665.65 141.53 L 669.10 143.71 L 672.55 146.06 L 676.00 148.59 L 679.45 151.29 L 682.90 154.16 L 686.35 157.18 L 689.80 160.35 L 693.25 163.66 L 696.70 167.11 L 700.15 170.69 L 703.60 174.39 L 707.05 178.21 L 710.50 182.12 L 713.95 186.13 L 717.40 190.23 L 720.85 194.41 L 724.30 198.65 L 727.75 202.95 L 731.20 207.30 L 734.65 211.69 L 738.10 216.11 L 741.55 220.55 L 745.00 225.00" fill="none" stroke="#22c55e" stroke-width="3" stroke-linecap="round" stroke-linejoin="round"/>
  <g class="annotation-group">
    <rect x="555" y="65" width="180" height="91" rx="6" fill="white" fill-opacity="0.95" stroke="#e2e8f0" stroke-width="1"/>
    <text x="565" y="81" font-size="11" font-weight="bold" fill="#1e293b">Leyenda</text>
    <line x1="565" y1="95" x2="590" y2="95" stroke="#94a3b8" stroke-width="3" stroke-linecap="round"/>
    <text x="597" y="99" font-size="10" fill="#1e293b">sin(x) - Original</text>
    <line x1="565" y1="117" x2="590" y2="117" stroke="#ef4444" stroke-width="3" stroke-linecap="round"/>
    <text x="597" y="121" font-size="10" fill="#1e293b">sin(x - π/2) → Derecha</text>
    <line x1="565" y1="139" x2="590" y2="139" stroke="#22c55e" stroke-width="3" stroke-linecap="round"/>
    <text x="597" y="143" font-size="10" fill="#1e293b">sin(x + π/2) ← Izquierda</text>
  </g>
  <g class="annotation-group">
    <line x1="285.0" y1="177.8" x2="400.0" y2="177.8" stroke="#ef4444" stroke-width="2.5"/>
    <polygon points="400.0,177.8 390.8,181.7 390.8,173.9" fill="#ef4444"/>
    <rect x="320.5" y="155.77777777777777" width="44" height="14" rx="3" fill="white" fill-opacity="0.9"/>
    <text x="342.5" y="165.8" text-anchor="middle" font-size="11" font-weight="bold" fill="#ef4444">-π/2</text>
    <line x1="285.0" y1="272.2" x2="170.0" y2="272.2" stroke="#22c55e" stroke-width="2.5"/>
    <polygon points="170.0,272.2 179.2,268.3 179.2,276.1" fill="#22c55e"/>
    <rect x="205.5" y="250.22222222222217" width="44" height="14" rx="3" fill="white" fill-opacity="0.9"/>
    <text x="227.5" y="260.2" text-anchor="middle" font-size="11" font-weight="bold" fill="#22c55e">+π/2</text>
    <text x="630.0" y="376.1" text-anchor="middle" font-size="12" font-weight="normal" fill="#64748b">⚠️ Restar = Derecha | Sumar = Izquierda</text>
  </g>
</svg>