<svg xmlns="http://www.w3.org/2000/svg" viewBox="0 0 800 400" 
style="max-width: 100%; height: auto; font-family: Inter, system-ui, sans-serif;">

  <style>
    .wave-path {
      stroke-dasharray: 3000;
      stroke-dashoffset: 3000;
      animation: drawWave 2s ease-out forwards;
    }
    .marker-group { opacity: 0; animation: fadeIn 0.5s ease-out 2s forwards; }
    .label-group { opacity: 0; animation: fadeIn 0.5s ease-out 2.3s forwards; }
    .annotation-group { opacity: 0; animation: fadeIn 0.5s ease-out 2.5s forwards; }
    @keyframes drawWave { to { stroke-dashoffset: 0; } }
    @keyframes fadeIn { to { opacity: 1; } }
  </style>

  <rect width="800" height="400" fill="#f8fafc" rx="8"/>
  <text x="400.0" y="25" text-anchor="middle" font-size="16" font-weight="bold" fill="#1e293b">Efecto del Período: B = 1, 2, 0.5</text>
  <g class="grid">
    <line x1="55.0" y1="55" x2="55.0" y2="345" stroke="#e2e8f0" stroke-dasharray="4,4"/>
    <line x1="138.4" y1="55" x2="138.4" y2="345" stroke="#e2e8f0" stroke-dasharray="4,4"/>
    <line x1="221.7" y1="55" x2="221.7" y2="345" stroke="#e2e8f0" stroke-dasharray="4,4"/>
    <line x1="305.1" y1="55" x2="305.1" y2="345" stroke="#e2e8f0" stroke-dasharray="4,4"/>
    <line x1="388.5" y1="55" x2="388.5" y2="345" stroke="#e2e8f0" stroke-dasharray="4,4"/>
    <line x1="55" y1="296.7" x2="745" y2="296.7" stroke="#e2e8f0" stroke-dasharray="4,4"/>
    <line x1="55" y1="248.3" x2="745" y2="248.3" stroke="#e2e8f0" stroke-dasharray="4,4"/>
    <line x1="55" y1="151.7" x2="745" y2="151.7" stroke="#e2e8f0" stroke-dasharray="4,4"/>
    <line x1="55" y1="103.3" x2="745" y2="103.3" stroke="#e2e8f0" stroke-dasharray="4,4"/>
  </g>
  <g class="axes">
    <line x1="55" y1="200.0" x2="745" y2="200.0" stroke="#374151" stroke-width="2"/>
    <polygon points="745,200.0 737,196.0 737,204.0" fill="#374151"/>
    <line x1="55.0" y1="55" x2="55.0" y2="345" stroke="#374151" stroke-width="2"/>
    <polygon points="55.0,55 51.0,63 59.0,63" fill="#374151"/>
    <text x="755" y="205.0" font-size="14" font-weight="bold" fill="#374151">x</text>
    <text x="63.0" y="50" font-size="14" font-weight="bold" fill="#374151">y</text>
    <line x1="138.4" y1="196.0" x2="138.4" y2="204.0" stroke="#374151" stroke-width="1.5"/>
    <text x="138.4" y="220.0" text-anchor="middle" font-size="12" fill="#374151">π/2</text>
    <line x1="221.7" y1="196.0" x2="221.7" y2="204.0" stroke="#374151" stroke-width="1.5"/>
    <text x="221.7" y="220.0" text-anchor="middle" font-size="12" fill="#374151">π</text>
    <line x1="305.1" y1="196.0" x2="305.1" y2="204.0" stroke="#374151" stroke-width="1.5"/>
    <text x="305.1" y="220.0" text-anchor="middle" font-size="12" fill="#374151">3π/2</text>
    <line x1="388.5" y1="196.0" x2="388.5" y2="204.0" stroke="#374151" stroke-width="1.5"/>
    <text x="388.5" y="220.0" text-anchor="middle" font-size="12" fill="#374151">2π</text>
    <line x1="51.0" y1="296.7" x2="59.0" y2="296.7" stroke="#374151" stroke-width="1.5"/>
    <text x="43.0" y="300.7" text-anchor="end" font-size="12" fill="#374151">-1</text>
    <line x1="51.0" y1="103.3" x2="59.0" y2="103.3" stroke="#374151" stroke-width="1.5"/>
    <text x="43.0" y="107.3" text-anchor="end" font-size="12" fill="#374151">1</text>
  </g>
  <path id="sin-x" class="wave-path" d="M 55.00 200.00 L 58.45 193.72 L 61.90 187.47 L 65.35 181.27 L 68.80 175.15 L 72.25 169.13 L 75.70 163.25 L 79.15 157.52 L 82.60 151.97 L 86.05 146.62 L 89.50 141.50 L 92.95 136.62 L 96.40 132.02 L 99.85 127.70 L 103.30 123.68 L 106.75 119.99 L 110.20 116.63 L 113.65 113.63 L 117.10 110.99 L 120.55 108.73 L 124.00 106.86 L 127.45 105.37 L 130.90 104.29 L 134.35 103.61 L 137.80 103.34 L 141.25 103.48 L 144.70 104.02 L 148.15 104.97 L 151.60 106.32 L 155.05 108.07 L 158.50 110.20 L 161.95 112.71 L 165.40 115.60 L 168.85 118.84 L 172.30 122.42 L 175.75 126.33 L 179.20 130.55 L 182.65 135.06 L 186.10 139.85 L 189.55 144.89 L 193.00 150.17 L 196.45 155.65 L 199.90 161.33 L 203.35 167.16 L 206.80 173.14 L 210.25 179.23 L 213.70 185.40 L 217.15 191.64 L 220.60 197.91 L 224.05 204.19 L 227.50 210.46 L 230.95 216.68 L 234.40 222.83 L 237.85 228.88 L 241.30 234.81 L 244.75 240.60 L 248.20 246.21 L 251.65 251.63 L 255.10 256.83 L 258.55 261.79 L 262.00 266.48 L 265.45 270.90 L 268.90 275.02 L 272.35 278.82 L 275.80 282.29 L 279.25 285.41 L 282.70 288.17 L 286.15 290.56 L 289.60 292.56 L 293.05 294.18 L 296.50 295.39 L 299.95 296.21 L 303.40 296.62 L 306.85 296.62 L 310.30 296.21 L 313.75 295.39 L 317.20 294.17 L 320.65 292.56 L 324.10 290.55 L 327.55 288.16 L 331.00 285.40 L 334.45 282.28 L 337.90 278.81 L 341.35 275.01 L 344.80 270.89 L 348.25 266.47 L 351.70 261.77 L 355.15 256.81 L 358.60 251.61 L 362.05 246.19 L 365.50 240.58 L 368.95 234.79 L 372.40 228.86 L 375.85 222.81 L 379.30 216.66 L 382.75 210.44 L 386.20 204.17 L 389.65 197.89 L 393.10 191.62 L 396.55 185.38 L 400.00 179.21 L 403.45 173.12 L 406.90 167.14 L 410.35 161.31 L 413.80 155.63 L 417.25 150.15 L 420.70 144.88 L 424.15 139.83 L 427.60 135.05 L 431.05 130.53 L 434.50 126.31 L 437.95 122.41 L 441.40 118.82 L 444.85 115.59 L 448.30 112.71 L 451.75 110.19 L 455.20 108.06 L 458.65 106.31 L 462.10 104.96 L 465.55 104.02 L 469.00 103.47 L 472.45 103.34 L 475.90 103.61 L 479.35 104.29 L 482.80 105.38 L 486.25 106.86 L 489.70 108.74 L 493.15 111.00 L 496.60 113.64 L 500.05 116.65 L 503.50 120.00 L 506.95 123.69 L 510.40 127.71 L 513.85 132.03 L 517.30 136.64 L 520.75 141.52 L 524.20 146.64 L 527.65 151.99 L 531.10 157.54 L 534.55 163.27 L 538.00 169.15 L 541.45 175.17 L 544.90 181.29 L 548.35 187.49 L 551.80 193.74 L 555.25 200.02 L 558.70 206.30 L 562.15 212.55 L 565.60 218.75 L 569.05 224.87 L 572.50 230.89 L 575.95 236.77 L 579.40 242.50 L 582.85 248.05 L 586.30 253.40 L 589.75 258.52 L 593.20 263.39 L 596.65 268.00 L 600.10 272.32 L 603.55 276.33 L 607.00 280.02 L 610.45 283.38 L 613.90 286.38 L 617.35 289.01 L 620.80 291.27 L 624.25 293.15 L 627.70 294.63 L 631.15 295.71 L 634.60 296.39 L 638.05 296.66 L 641.50 296.52 L 644.95 295.98 L 648.40 295.03 L 651.85 293.68 L 655.30 291.93 L 658.75 289.79 L 662.20 287.28 L 665.65 284.39 L 669.10 281.15 L 672.55 277.57 L 676.00 273.66 L 679.45 269.44 L 682.90 264.92 L 686.35 260.13 L 689.80 255.09 L 693.25 249.81 L 696.70 244.33 L 700.15 238.65 L 703.60 232.82 L 707.05 226.84 L 710.50 220.75 L 713.95 214.58 L 717.40 208.34 L 720.85 202.07 L 724.30 195.78 L 727.75 189.52 L 731.20 183.30 L 734.65 177.15 L 738.10 171.10 L 741.55 165.17 L 745.00 159.38" fill="none" stroke="#3b82f6" stroke-width="2" stroke-linecap="round" stroke-linejoin="round"/>
  <path id="sin-2x" class="wave-path" d="M 55.00 200.00 L 58.45 187.47 L 61.90 175.15 L 65.35 163.25 L 68.80 151.97 L 72.25 141.50 L 75.70 132.02 L 79.15 123.68 L 82.60 116.63 L 86.05 110.99 L 89.50 106.86 L 92.95 104.29 L 96.40 103.34 L 99.85 104.02 L 103.30 106.32 L 106.75 110.20 L 110.20 115.60 L 113.65 122.42 L 117.10 130.55 L 120.55 139.85 L 124.00 150.17 L 127.45 161.33 L 130.90 173.14 L 134.35 185.40 L 137.80 197.91 L 141.25 210.46 L 144.70 222.83 L 148.15 234.81 L 151.60 246.21 L 155.05 256.83 L 158.50 266.48 L 161.95 275.02 L 165.40 282.29 L 168.85 288.17 L 172.30 292.56 L 175.75 295.39 L 179.20 296.62 L 182.65 296.21 L 186.10 294.17 L 189.55 290.55 L 193.00 285.40 L 196.45 278.81 L 199.90 270.89 L 203.35 261.77 L 206.80 251.61 L 210.25 240.58 L 213.70 228.86 L 217.15 216.66 L 220.60 204.17 L 224.05 191.62 L 227.50 179.21 L 230.95 167.14 L 234.40 155.63 L 237.85 144.88 L 241.30 135.05 L 244.75 126.31 L 248.20 118.82 L 251.65 112.71 L 255.10 108.06 L 258.55 104.96 L 262.00 103.47 L 265.45 103.61 L 268.90 105.38 L 272.35 108.74 L 275.80 113.64 L 279.25 120.00 L 282.70 127.71 L 286.15 136.64 L 289.60 146.64 L 293.05 157.54 L 296.50 169.15 L 299.95 181.29 L 303.40 193.74 L 306.85 206.30 L 310.30 218.75 L 313.75 230.89 L 317.20 242.50 L 320.65 253.40 L 324.10 263.39 L 327.55 272.32 L 331.00 280.02 L 334.45 286.38 L 337.90 291.27 L 341.35 294.63 L 344.80 296.39 L 348.25 296.52 L 351.70 295.03 L 355.15 291.93 L 358.60 287.28 L 362.05 281.15 L 365.50 273.66 L 368.95 264.92 L 372.40 255.09 L 375.85 244.33 L 379.30 232.82 L 382.75 220.75 L 386.20 208.34 L 389.65 195.78 L 393.10 183.30 L 396.55 171.10 L 400.00 159.38 L 403.45 148.36 L 406.90 138.20 L 410.35 129.08 L 413.80 121.17 L 417.25 114.58 L 420.70 109.43 L 424.15 105.82 L 427.60 103.79 L 431.05 103.39 L 434.50 104.61 L 437.95 107.45 L 441.40 111.85 L 444.85 117.73 L 448.30 125.01 L 451.75 133.55 L 455.20 143.21 L 458.65 153.83 L 462.10 165.23 L 465.55 177.21 L 469.00 189.58 L 472.45 202.13 L 475.90 214.64 L 479.35 226.90 L 482.80 238.71 L 486.25 249.87 L 489.70 260.18 L 493.15 269.48 L 496.60 277.61 L 500.05 284.42 L 503.50 289.82 L 506.95 293.69 L 510.40 295.99 L 513.85 296.66 L 517.30 295.70 L 520.75 293.13 L 524.20 288.99 L 527.65 283.34 L 531.10 276.29 L 534.55 267.95 L 538.00 258.47 L 541.45 247.99 L 544.90 236.71 L 548.35 224.81 L 551.80 212.49 L 555.25 199.96 L 558.70 187.43 L 562.15 175.11 L 565.60 163.21 L 569.05 151.93 L 572.50 141.46 L 575.95 131.99 L 579.40 123.65 L 582.85 116.61 L 586.30 110.98 L 589.75 106.84 L 593.20 104.28 L 596.65 103.34 L 600.10 104.02 L 603.55 106.33 L 607.00 110.22 L 610.45 115.62 L 613.90 122.44 L 617.35 130.58 L 620.80 139.88 L 624.25 150.20 L 627.70 161.37 L 631.15 173.18 L 634.60 185.44 L 638.05 197.96 L 641.50 210.50 L 644.95 222.87 L 648.40 234.85 L 651.85 246.25 L 655.30 256.86 L 658.75 266.52 L 662.20 275.05 L 665.65 282.31 L 669.10 288.19 L 672.55 292.58 L 676.00 295.40 L 679.45 296.62 L 682.90 296.20 L 686.35 294.16 L 689.80 290.54 L 693.25 285.38 L 696.70 278.78 L 700.15 270.86 L 703.60 261.74 L 707.05 251.57 L 710.50 240.54 L 713.95 228.82 L 717.40 216.62 L 720.85 204.13 L 724.30 191.58 L 727.75 179.16 L 731.20 167.10 L 734.65 155.60 L 738.10 144.84 L 741.55 135.01 L 745.00 126.29" fill="none" stroke="#ef4444" stroke-width="3" stroke-linecap="round" stroke-linejoin="round"/>
  <path id="sin-05x" class="wave-path" d="M 55.00 200.00 L 58.45 196.86 L 61.90 193.72 L 65.35 190.59 L 68.80 187.47 L 72.25 184.36 L 75.70 181.27 L 79.15 178.20 L 82.60 175.15 L 86.05 172.13 L 89.50 169.13 L 92.95 166.17 L 96.40 163.25 L 99.85 160.36 L 103.30 157.52 L 106.75 154.72 L 110.20 151.97 L 113.65 149.27 L 117.10 146.62 L 120.55 144.03 L 124.00 141.50 L 127.45 139.03 L 130.90 136.62 L 134.35 134.29 L 137.80 132.02 L 141.25 129.82 L 144.70 127.70 L 148.15 125.65 L 151.60 123.68 L 155.05 121.79 L 158.50 119.99 L 161.95 118.27 L 165.40 116.63 L 168.85 115.09 L 172.30 113.63 L 175.75 112.27 L 179.20 110.99 L 182.65 109.82 L 186.10 108.73 L 189.55 107.75 L 193.00 106.86 L 196.45 106.06 L 199.90 105.37 L 203.35 104.78 L 206.80 104.29 L 210.25 103.90 L 213.70 103.61 L 217.15 103.42 L 220.60 103.34 L 224.05 103.36 L 227.50 103.48 L 230.95 103.70 L 234.40 104.02 L 237.85 104.44 L 241.30 104.97 L 244.75 105.59 L 248.20 106.32 L 251.65 107.14 L 255.10 108.07 L 258.55 109.09 L 262.00 110.20 L 265.45 111.41 L 268.90 112.71 L 272.35 114.11 L 275.80 115.60 L 279.25 117.17 L 282.70 118.84 L 286.15 120.59 L 289.60 122.42 L 293.05 124.33 L 296.50 126.33 L 299.95 128.40 L 303.40 130.55 L 306.85 132.77 L 310.30 135.06 L 313.75 137.42 L 317.20 139.85 L 320.65 142.34 L 324.10 144.89 L 327.55 147.50 L 331.00 150.17 L 334.45 152.89 L 337.90 155.65 L 341.35 158.47 L 344.80 161.33 L 348.25 164.23 L 351.70 167.16 L 355.15 170.13 L 358.60 173.14 L 362.05 176.17 L 365.50 179.23 L 368.95 182.30 L 372.40 185.40 L 375.85 188.51 L 379.30 191.64 L 382.75 194.77 L 386.20 197.91 L 389.65 201.05 L 393.10 204.19 L 396.55 207.33 L 400.00 210.46 L 403.45 213.58 L 406.90 216.68 L 410.35 219.76 L 413.80 222.83 L 417.25 225.87 L 420.70 228.88 L 424.15 231.86 L 427.60 234.81 L 431.05 237.72 L 434.50 240.60 L 437.95 243.43 L 441.40 246.21 L 444.85 248.94 L 448.30 251.63 L 451.75 254.26 L 455.20 256.83 L 458.65 259.34 L 462.10 261.79 L 465.55 264.17 L 469.00 266.48 L 472.45 268.73 L 475.90 270.90 L 479.35 273.00 L 482.80 275.02 L 486.25 276.96 L 489.70 278.82 L 493.15 280.60 L 496.60 282.29 L 500.05 283.89 L 503.50 285.41 L 506.95 286.84 L 510.40 288.17 L 513.85 289.41 L 517.30 290.56 L 520.75 291.61 L 524.20 292.56 L 527.65 293.42 L 531.10 294.18 L 534.55 294.84 L 538.00 295.39 L 541.45 295.85 L 544.90 296.21 L 548.35 296.46 L 551.80 296.62 L 555.25 296.67 L 558.70 296.62 L 562.15 296.46 L 565.60 296.21 L 569.05 295.85 L 572.50 295.39 L 575.95 294.83 L 579.40 294.17 L 582.85 293.41 L 586.30 292.56 L 589.75 291.60 L 593.20 290.55 L 596.65 289.40 L 600.10 288.16 L 603.55 286.83 L 607.00 285.40 L 610.45 283.88 L 613.90 282.28 L 617.35 280.59 L 620.80 278.81 L 624.25 276.95 L 627.70 275.01 L 631.15 272.99 L 634.60 270.89 L 638.05 268.71 L 641.50 266.47 L 644.95 264.15 L 648.40 261.77 L 651.85 259.32 L 655.30 256.81 L 658.75 254.24 L 662.20 251.61 L 665.65 248.93 L 669.10 246.19 L 672.55 243.41 L 676.00 240.58 L 679.45 237.70 L 682.90 234.79 L 686.35 231.84 L 689.80 228.86 L 693.25 225.85 L 696.70 222.81 L 700.15 219.74 L 703.60 216.66 L 707.05 213.55 L 710.50 210.44 L 713.95 207.31 L 717.40 204.17 L 720.85 201.03 L 724.30 197.89 L 727.75 194.75 L 731.20 191.62 L 734.65 188.49 L 738.10 185.38 L 741.55 182.28 L 745.00 179.21" fill="none" stroke="#22c55e" stroke-width="2" stroke-linecap="round" stroke-linejoin="round"/>
</svg>