<svg xmlns="http://www.w3.org/2000/svg" viewBox="0 0 800 450" 
style="max-width: 100%; height: auto; font-family: Inter, system-ui, sans-serif;">

  <style>
    .wave-path {
      stroke-dasharray: 3000;
      stroke-dashoffset: 3000;
      animation: drawWave 2s ease-out forwards;
    }
    .marker-group { opacity: 0; animation: fadeIn 0.5s ease-out 2s forwards; }
    .label-group { opacity: 0; animation: fadeIn 0.5s ease-out 2.3s forwards; }
    .annotation-group { opacity: 0; animation: fadeIn 0.5s ease-out 2.5s forwards; }
    @keyframes drawWave { to { stroke-dashoffset: 0; } }
    @keyframes fadeIn { to { opacity: 1; } }
  </style>

  <rect width="800" height="450" fill="#f8fafc" rx="8"/>
  <text x="400.0" y="25" text-anchor="middle" font-size="16" font-weight="bold" fill="#1e293b">La función secante: sec(x) = 1/cos(x)</text>
  <g class="grid">
    <line x1="55.0" y1="55" x2="55.0" y2="395" stroke="#e2e8f0" stroke-dasharray="4,4"/>
    <line x1="141.2" y1="55" x2="141.2" y2="395" stroke="#e2e8f0" stroke-dasharray="4,4"/>
    <line x1="227.5" y1="55" x2="227.5" y2="395" stroke="#e2e8f0" stroke-dasharray="4,4"/>
    <line x1="313.8" y1="55" x2="313.8" y2="395" stroke="#e2e8f0" stroke-dasharray="4,4"/>
    <line x1="400.0" y1="55" x2="400.0" y2="395" stroke="#e2e8f0" stroke-dasharray="4,4"/>
    <line x1="486.2" y1="55" x2="486.2" y2="395" stroke="#e2e8f0" stroke-dasharray="4,4"/>
    <line x1="572.5" y1="55" x2="572.5" y2="395" stroke="#e2e8f0" stroke-dasharray="4,4"/>
    <line x1="658.8" y1="55" x2="658.8" y2="395" stroke="#e2e8f0" stroke-dasharray="4,4"/>
    <line x1="745.0" y1="55" x2="745.0" y2="395" stroke="#e2e8f0" stroke-dasharray="4,4"/>
    <line x1="55" y1="259.0" x2="745" y2="259.0" stroke="#e2e8f0" stroke-dasharray="4,4"/>
    <line x1="55" y1="242.0" x2="745" y2="242.0" stroke="#e2e8f0" stroke-dasharray="4,4"/>
    <line x1="55" y1="208.0" x2="745" y2="208.0" stroke="#e2e8f0" stroke-dasharray="4,4"/>
    <line x1="55" y1="191.0" x2="745" y2="191.0" stroke="#e2e8f0" stroke-dasharray="4,4"/>
  </g>
  <g class="axes">
    <line x1="55" y1="225.0" x2="745" y2="225.0" stroke="#374151" stroke-width="2"/>
    <polygon points="745,225.0 737,221.0 737,229.0" fill="#374151"/>
    <line x1="400.0" y1="55" x2="400.0" y2="395" stroke="#374151" stroke-width="2"/>
    <polygon points="400.0,55 396.0,63 404.0,63" fill="#374151"/>
    <text x="755" y="230.0" font-size="14" font-weight="bold" fill="#374151">x</text>
    <text x="408.0" y="50" font-size="14" font-weight="bold" fill="#374151">y</text>
    <line x1="141.2" y1="221.0" x2="141.2" y2="229.0" stroke="#374151" stroke-width="1.5"/>
    <text x="141.2" y="245.0" text-anchor="middle" font-size="12" fill="#374151">-3π/2</text>
    <line x1="227.5" y1="221.0" x2="227.5" y2="229.0" stroke="#374151" stroke-width="1.5"/>
    <text x="227.5" y="245.0" text-anchor="middle" font-size="12" fill="#374151">-π</text>
    <line x1="313.8" y1="221.0" x2="313.8" y2="229.0" stroke="#374151" stroke-width="1.5"/>
    <text x="313.8" y="245.0" text-anchor="middle" font-size="12" fill="#374151">-π/2</text>
    <line x1="486.2" y1="221.0" x2="486.2" y2="229.0" stroke="#374151" stroke-width="1.5"/>
    <text x="486.2" y="245.0" text-anchor="middle" font-size="12" fill="#374151">π/2</text>
    <line x1="572.5" y1="221.0" x2="572.5" y2="229.0" stroke="#374151" stroke-width="1.5"/>
    <text x="572.5" y="245.0" text-anchor="middle" font-size="12" fill="#374151">π</text>
    <line x1="658.8" y1="221.0" x2="658.8" y2="229.0" stroke="#374151" stroke-width="1.5"/>
    <text x="658.8" y="245.0" text-anchor="middle" font-size="12" fill="#374151">3π/2</text>
    <line x1="396.0" y1="259.0" x2="404.0" y2="259.0" stroke="#374151" stroke-width="1.5"/>
    <text x="388.0" y="263.0" text-anchor="end" font-size="12" fill="#374151">-1</text>
    <line x1="396.0" y1="191.0" x2="404.0" y2="191.0" stroke="#374151" stroke-width="1.5"/>
    <text x="388.0" y="195.0" text-anchor="end" font-size="12" fill="#374151">1</text>
  </g>
  <path id="cos-x" class="wave-path" d="M 55.00 191.00 L 58.45 191.07 L 61.90 191.27 L 65.35 191.60 L 68.80 192.07 L 72.25 192.66 L 75.70 193.39 L 79.15 194.24 L 82.60 195.21 L 86.05 196.29 L 89.50 197.49 L 92.95 198.80 L 96.40 200.22 L 99.85 201.73 L 103.30 203.33 L 106.75 205.02 L 110.20 206.78 L 113.65 208.62 L 117.10 210.52 L 120.55 212.48 L 124.00 214.49 L 127.45 216.54 L 130.90 218.63 L 134.35 220.74 L 137.80 222.87 L 141.25 225.00 L 144.70 227.13 L 148.15 229.26 L 151.60 231.37 L 155.05 233.46 L 158.50 235.51 L 161.95 237.52 L 165.40 239.48 L 168.85 241.38 L 172.30 243.22 L 175.75 244.98 L 179.20 246.67 L 182.65 248.27 L 186.10 249.78 L 189.55 251.20 L 193.00 252.51 L 196.45 253.71 L 199.90 254.79 L 203.35 255.76 L 206.80 256.61 L 210.25 257.34 L 213.70 257.93 L 217.15 258.40 L 220.60 258.73 L 224.05 258.93 L 227.50 259.00 L 230.95 258.93 L 234.40 258.73 L 237.85 258.40 L 241.30 257.93 L 244.75 257.34 L 248.20 256.61 L 251.65 255.76 L 255.10 254.79 L 258.55 253.71 L 262.00 252.51 L 265.45 251.20 L 268.90 249.78 L 272.35 248.27 L 275.80 246.67 L 279.25 244.98 L 282.70 243.22 L 286.15 241.38 L 289.60 239.48 L 293.05 237.52 L 296.50 235.51 L 299.95 233.46 L 303.40 231.37 L 306.85 229.26 L 310.30 227.13 L 313.75 225.00 L 317.20 222.87 L 320.65 220.74 L 324.10 218.63 L 327.55 216.54 L 331.00 214.49 L 334.45 212.48 L 337.90 210.52 L 341.35 208.62 L 344.80 206.78 L 348.25 205.02 L 351.70 203.33 L 355.15 201.73 L 358.60 200.22 L 362.05 198.80 L 365.50 197.49 L 368.95 196.29 L 372.40 195.21 L 375.85 194.24 L 379.30 193.39 L 382.75 192.66 L 386.20 192.07 L 389.65 191.60 L 393.10 191.27 L 396.55 191.07 L 400.00 191.00 L 403.45 191.07 L 406.90 191.27 L 410.35 191.60 L 413.80 192.07 L 417.25 192.66 L 420.70 193.39 L 424.15 194.24 L 427.60 195.21 L 431.05 196.29 L 434.50 197.49 L 437.95 198.80 L 441.40 200.22 L 444.85 201.73 L 448.30 203.33 L 451.75 205.02 L 455.20 206.78 L 458.65 208.62 L 462.10 210.52 L 465.55 212.48 L 469.00 214.49 L 472.45 216.54 L 475.90 218.63 L 479.35 220.74 L 482.80 222.87 L 486.25 225.00 L 489.70 227.13 L 493.15 229.26 L 496.60 231.37 L 500.05 233.46 L 503.50 235.51 L 506.95 237.52 L 510.40 239.48 L 513.85 241.38 L 517.30 243.22 L 520.75 244.98 L 524.20 246.67 L 527.65 248.27 L 531.10 249.78 L 534.55 251.20 L 538.00 252.51 L 541.45 253.71 L 544.90 254.79 L 548.35 255.76 L 551.80 256.61 L 555.25 257.34 L 558.70 257.93 L 562.15 258.40 L 565.60 258.73 L 569.05 258.93 L 572.50 259.00 L 575.95 258.93 L 579.40 258.73 L 582.85 258.40 L 586.30 257.93 L 589.75 257.34 L 593.20 256.61 L 596.65 255.76 L 600.10 254.79 L 603.55 253.71 L 607.00 252.51 L 610.45 251.20 L 613.90 249.78 L 617.35 248.27 L 620.80 246.67 L 624.25 244.98 L 627.70 243.22 L 631.15 241.38 L 634.60 239.48 L 638.05 237.52 L 641.50 235.51 L 644.95 233.46 L 648.40 231.37 L 651.85 229.26 L 655.30 227.13 L 658.75 225.00 L 662.20 222.87 L 665.65 220.74 L 669.10 218.63 L 672.55 216.54 L 676.00 214.49 L 679.45 212.48 L 682.90 210.52 L 686.35 208.62 L 689.80 206.78 L 693.25 205.02 L 696.70 203.33 L 700.15 201.73 L 703.60 200.22 L 707.05 198.80 L 710.50 197.49 L 713.95 196.29 L 717.40 195.21 L 720.85 194.24 L 724.30 193.39 L 727.75 192.66 L 731.20 192.07 L 734.65 191.60 L 738.10 191.27 L 741.55 191.07 L 745.00 191.00" fill="none" stroke="#94a3b8" stroke-width="2" stroke-linecap="round" stroke-linejoin="round"/>
  <path id="sec-x" class="wave-path" d="M 55.00 191.00 L 58.45 190.93 L 61.90 190.73 L 65.35 190.39 L 68.80 189.90 L 72.25 189.25 L 75.70 188.43 L 79.15 187.42 L 82.60 186.20 L 86.05 184.73 L 89.50 182.97 L 92.95 180.87 L 96.40 178.36 L 99.85 175.33 L 103.30 171.66 L 106.75 167.16 L 110.20 161.55 L 113.65 154.42 L 117.10 145.15 L 120.55 132.64 L 124.00 114.97 L 127.45 88.28 M 155.05 361.72 L 158.50 335.03 L 161.95 317.36 L 165.40 304.85 L 168.85 295.58 L 172.30 288.45 L 175.75 282.84 L 179.20 278.34 L 182.65 274.67 L 186.10 271.64 L 189.55 269.13 L 193.00 267.03 L 196.45 265.27 L 199.90 263.80 L 203.35 262.58 L 206.80 261.57 L 210.25 260.75 L 213.70 260.10 L 217.15 259.61 L 220.60 259.27 L 224.05 259.07 L 227.50 259.00 L 230.95 259.07 L 234.40 259.27 L 237.85 259.61 L 241.30 260.10 L 244.75 260.75 L 248.20 261.57 L 251.65 262.58 L 255.10 263.80 L 258.55 265.27 L 262.00 267.03 L 265.45 269.13 L 268.90 271.64 L 272.35 274.67 L 275.80 278.34 L 279.25 282.84 L 282.70 288.45 L 286.15 295.58 L 289.60 304.85 L 293.05 317.36 L 296.50 335.03 L 299.95 361.72 M 327.55 88.28 L 331.00 114.97 L 334.45 132.64 L 337.90 145.15 L 341.35 154.42 L 344.80 161.55 L 348.25 167.16 L 351.70 171.66 L 355.15 175.33 L 358.60 178.36 L 362.05 180.87 L 365.50 182.97 L 368.95 184.73 L 372.40 186.20 L 375.85 187.42 L 379.30 188.43 L 382.75 189.25 L 386.20 189.90 L 389.65 190.39 L 393.10 190.73 L 396.55 190.93 L 400.00 191.00 L 403.45 190.93 L 406.90 190.73 L 410.35 190.39 L 413.80 189.90 L 417.25 189.25 L 420.70 188.43 L 424.15 187.42 L 427.60 186.20 L 431.05 184.73 L 434.50 182.97 L 437.95 180.87 L 441.40 178.36 L 444.85 175.33 L 448.30 171.66 L 451.75 167.16 L 455.20 161.55 L 458.65 154.42 L 462.10 145.15 L 465.55 132.64 L 469.00 114.97 L 472.45 88.28 M 500.05 361.72 L 503.50 335.03 L 506.95 317.36 L 510.40 304.85 L 513.85 295.58 L 517.30 288.45 L 520.75 282.84 L 524.20 278.34 L 527.65 274.67 L 531.10 271.64 L 534.55 269.13 L 538.00 267.03 L 541.45 265.27 L 544.90 263.80 L 548.35 262.58 L 551.80 261.57 L 555.25 260.75 L 558.70 260.10 L 562.15 259.61 L 565.60 259.27 L 569.05 259.07 L 572.50 259.00 L 575.95 259.07 L 579.40 259.27 L 582.85 259.61 L 586.30 260.10 L 589.75 260.75 L 593.20 261.57 L 596.65 262.58 L 600.10 263.80 L 603.55 265.27 L 607.00 267.03 L 610.45 269.13 L 613.90 271.64 L 617.35 274.67 L 620.80 278.34 L 624.25 282.84 L 627.70 288.45 L 631.15 295.58 L 634.60 304.85 L 638.05 317.36 L 641.50 335.03 L 644.95 361.72 M 672.55 88.28 L 676.00 114.97 L 679.45 132.64 L 682.90 145.15 L 686.35 154.42 L 689.80 161.55 L 693.25 167.16 L 696.70 171.66 L 700.15 175.33 L 703.60 178.36 L 707.05 180.87 L 710.50 182.97 L 713.95 184.73 L 717.40 186.20 L 720.85 187.42 L 724.30 188.43 L 727.75 189.25 L 731.20 189.90 L 734.65 190.39 L 738.10 190.73 L 741.55 190.93 L 745.00 191.00" fill="none" stroke="#f97316" stroke-width="3" stroke-linecap="round" stroke-linejoin="round"/>
  <g class="marker-group">
    <circle cx="400.0" cy="191.0" r="6" fill="#3b82f6" stroke="white" stroke-width="2"/>
    <circle cx="572.5" cy="259.0" r="6" fill="#3b82f6" stroke="white" stroke-width="2"/>
  </g>
  <g class="label-group">
    <rect x="350.0" y="164.0" width="100" height="16" fill="white" fill-opacity="0.9" rx="3"/>
    <text x="400.0" y="176.0" text-anchor="middle" font-size="11" font-weight="bold" fill="#3b82f6">(0, 1)</text>
    <rect x="522.5" y="272.0" width="100" height="16" fill="white" fill-opacity="0.9" rx="3"/>
    <text x="572.5" y="284.0" text-anchor="middle" font-size="11" font-weight="bold" fill="#3b82f6">(π, -1)</text>
  </g>
  <g class="annotation-group">
    <line x1="486.2" y1="55" x2="486.2" y2="395" stroke="#ef4444" stroke-width="1.5" stroke-dasharray="8,4"/>
    <text x="491.2" y="70" text-anchor="start" font-size="9" fill="#ef4444">x = π/2</text>
    <line x1="313.8" y1="55" x2="313.8" y2="395" stroke="#ef4444" stroke-width="1.5" stroke-dasharray="8,4"/>
    <text x="318.8" y="70" text-anchor="start" font-size="9" fill="#ef4444">x = -π/2</text>
    <line x1="658.8" y1="55" x2="658.8" y2="395" stroke="#ef4444" stroke-width="1.5" stroke-dasharray="8,4"/>
    <line x1="141.2" y1="55" x2="141.2" y2="395" stroke="#ef4444" stroke-width="1.5" stroke-dasharray="8,4"/>
    <line x1="55" y1="191.0" x2="745" y2="191.0" stroke="#22c55e" stroke-width="1.5" stroke-dasharray="8,4"/>
    <text x="750" y="195.0" text-anchor="start" font-size="10" fill="#22c55e">y = 1</text>
    <line x1="55" y1="259.0" x2="745" y2="259.0" stroke="#22c55e" stroke-width="1.5" stroke-dasharray="8,4"/>
    <text x="750" y="263.0" text-anchor="start" font-size="10" fill="#22c55e">y = -1</text>
  </g>
</svg>