<svg xmlns="http://www.w3.org/2000/svg" viewBox="0 0 700 350" 
style="max-width: 100%; height: auto; font-family: Inter, system-ui, sans-serif;">

  <style>
    .wave-path {
      stroke-dasharray: 3000;
      stroke-dashoffset: 3000;
      animation: drawWave 1.5s ease-out forwards;
    }
    .marker-group { opacity: 0; animation: fadeIn 0.5s ease-out 1.5s forwards; }
    .label-group { opacity: 0; animation: fadeIn 0.5s ease-out 1.8s forwards; }
    .annotation-group { opacity: 0; animation: fadeIn 0.5s ease-out 2.0s forwards; }
    @keyframes drawWave { to { stroke-dashoffset: 0; } }
    @keyframes fadeIn { to { opacity: 1; } }
  </style>

  <rect width="700" height="350" fill="#f8fafc" rx="8"/>
  <text x="350.0" y="25" text-anchor="middle" font-size="16" font-weight="bold" fill="#1e293b">Simetría del Seno: sin(-x) = -sin(x)</text>
  <g class="grid">
    <line x1="50.0" y1="50" x2="50.0" y2="300" stroke="#e2e8f0" stroke-dasharray="4,4"/>
    <line x1="200.0" y1="50" x2="200.0" y2="300" stroke="#e2e8f0" stroke-dasharray="4,4"/>
    <line x1="350.0" y1="50" x2="350.0" y2="300" stroke="#e2e8f0" stroke-dasharray="4,4"/>
    <line x1="500.0" y1="50" x2="500.0" y2="300" stroke="#e2e8f0" stroke-dasharray="4,4"/>
    <line x1="650.0" y1="50" x2="650.0" y2="300" stroke="#e2e8f0" stroke-dasharray="4,4"/>
    <line x1="50" y1="271.2" x2="650" y2="271.2" stroke="#e2e8f0" stroke-dasharray="4,4"/>
    <line x1="50" y1="223.1" x2="650" y2="223.1" stroke="#e2e8f0" stroke-dasharray="4,4"/>
    <line x1="50" y1="126.9" x2="650" y2="126.9" stroke="#e2e8f0" stroke-dasharray="4,4"/>
    <line x1="50" y1="78.8" x2="650" y2="78.8" stroke="#e2e8f0" stroke-dasharray="4,4"/>
  </g>
  <g class="axes">
    <line x1="50" y1="175.0" x2="650" y2="175.0" stroke="#374151" stroke-width="2"/>
    <polygon points="650,175.0 642,171.0 642,179.0" fill="#374151"/>
    <line x1="350.0" y1="50" x2="350.0" y2="300" stroke="#374151" stroke-width="2"/>
    <polygon points="350.0,50 346.0,58 354.0,58" fill="#374151"/>
    <text x="660" y="180.0" font-size="14" font-weight="bold" fill="#374151">x</text>
    <text x="358.0" y="45" font-size="14" font-weight="bold" fill="#374151">y</text>
    <line x1="200.0" y1="171.0" x2="200.0" y2="179.0" stroke="#374151" stroke-width="1.5"/>
    <text x="200.0" y="195.0" text-anchor="middle" font-size="12" fill="#374151">-π/2</text>
    <line x1="500.0" y1="171.0" x2="500.0" y2="179.0" stroke="#374151" stroke-width="1.5"/>
    <text x="500.0" y="195.0" text-anchor="middle" font-size="12" fill="#374151">π/2</text>
    <line x1="346.0" y1="271.2" x2="354.0" y2="271.2" stroke="#374151" stroke-width="1.5"/>
    <text x="338.0" y="275.2" text-anchor="end" font-size="12" fill="#374151">-1</text>
    <line x1="346.0" y1="78.8" x2="354.0" y2="78.8" stroke="#374151" stroke-width="1.5"/>
    <text x="338.0" y="82.8" text-anchor="end" font-size="12" fill="#374151">1</text>
  </g>
  <path id="sin-x-simetria" class="wave-path" d="M 50.00 175.00 L 53.00 178.02 L 56.00 181.04 L 59.00 184.05 L 62.00 187.05 L 65.00 190.04 L 68.00 193.02 L 71.00 195.98 L 74.00 198.91 L 77.00 201.83 L 80.00 204.71 L 83.00 207.57 L 86.00 210.40 L 89.00 213.19 L 92.00 215.94 L 95.00 218.65 L 98.00 221.32 L 101.00 223.95 L 104.00 226.52 L 107.00 229.05 L 110.00 231.52 L 113.00 233.93 L 116.00 236.29 L 119.00 238.59 L 122.00 240.82 L 125.00 242.99 L 128.00 245.09 L 131.00 247.13 L 134.00 249.09 L 137.00 250.98 L 140.00 252.79 L 143.00 254.53 L 146.00 256.19 L 149.00 257.76 L 152.00 259.26 L 155.00 260.67 L 158.00 262.00 L 161.00 263.25 L 164.00 264.40 L 167.00 265.47 L 170.00 266.45 L 173.00 267.34 L 176.00 268.13 L 179.00 268.84 L 182.00 269.45 L 185.00 269.97 L 188.00 270.40 L 191.00 270.73 L 194.00 270.96 L 197.00 271.11 L 200.00 271.15 L 203.00 271.11 L 206.00 270.96 L 209.00 270.73 L 212.00 270.40 L 215.00 269.97 L 218.00 269.45 L 221.00 268.84 L 224.00 268.13 L 227.00 267.34 L 230.00 266.45 L 233.00 265.47 L 236.00 264.40 L 239.00 263.25 L 242.00 262.00 L 245.00 260.67 L 248.00 259.26 L 251.00 257.76 L 254.00 256.19 L 257.00 254.53 L 260.00 252.79 L 263.00 250.98 L 266.00 249.09 L 269.00 247.13 L 272.00 245.09 L 275.00 242.99 L 278.00 240.82 L 281.00 238.59 L 284.00 236.29 L 287.00 233.93 L 290.00 231.52 L 293.00 229.05 L 296.00 226.52 L 299.00 223.95 L 302.00 221.32 L 305.00 218.65 L 308.00 215.94 L 311.00 213.19 L 314.00 210.40 L 317.00 207.57 L 320.00 204.71 L 323.00 201.83 L 326.00 198.91 L 329.00 195.98 L 332.00 193.02 L 335.00 190.04 L 338.00 187.05 L 341.00 184.05 L 344.00 181.04 L 347.00 178.02 L 350.00 175.00 L 353.00 171.98 L 356.00 168.96 L 359.00 165.95 L 362.00 162.95 L 365.00 159.96 L 368.00 156.98 L 371.00 154.02 L 374.00 151.09 L 377.00 148.17 L 380.00 145.29 L 383.00 142.43 L 386.00 139.60 L 389.00 136.81 L 392.00 134.06 L 395.00 131.35 L 398.00 128.68 L 401.00 126.05 L 404.00 123.48 L 407.00 120.95 L 410.00 118.48 L 413.00 116.07 L 416.00 113.71 L 419.00 111.41 L 422.00 109.18 L 425.00 107.01 L 428.00 104.91 L 431.00 102.87 L 434.00 100.91 L 437.00 99.02 L 440.00 97.21 L 443.00 95.47 L 446.00 93.81 L 449.00 92.24 L 452.00 90.74 L 455.00 89.33 L 458.00 88.00 L 461.00 86.75 L 464.00 85.60 L 467.00 84.53 L 470.00 83.55 L 473.00 82.66 L 476.00 81.87 L 479.00 81.16 L 482.00 80.55 L 485.00 80.03 L 488.00 79.60 L 491.00 79.27 L 494.00 79.04 L 497.00 78.89 L 500.00 78.85 L 503.00 78.89 L 506.00 79.04 L 509.00 79.27 L 512.00 79.60 L 515.00 80.03 L 518.00 80.55 L 521.00 81.16 L 524.00 81.87 L 527.00 82.66 L 530.00 83.55 L 533.00 84.53 L 536.00 85.60 L 539.00 86.75 L 542.00 88.00 L 545.00 89.33 L 548.00 90.74 L 551.00 92.24 L 554.00 93.81 L 557.00 95.47 L 560.00 97.21 L 563.00 99.02 L 566.00 100.91 L 569.00 102.87 L 572.00 104.91 L 575.00 107.01 L 578.00 109.18 L 581.00 111.41 L 584.00 113.71 L 587.00 116.07 L 590.00 118.48 L 593.00 120.95 L 596.00 123.48 L 599.00 126.05 L 602.00 128.68 L 605.00 131.35 L 608.00 134.06 L 611.00 136.81 L 614.00 139.60 L 617.00 142.43 L 620.00 145.29 L 623.00 148.17 L 626.00 151.09 L 629.00 154.02 L 632.00 156.98 L 635.00 159.96 L 638.00 162.95 L 641.00 165.95 L 644.00 168.96 L 647.00 171.98 L 650.00 175.00" fill="none" stroke="#3b82f6" stroke-width="3" stroke-linecap="round" stroke-linejoin="round"/>
  <g class="marker-group">
    <circle cx="400.0" cy="126.9" r="6" fill="#ef4444" stroke="white" stroke-width="2"/>
    <circle cx="300.0" cy="223.1" r="6" fill="#ef4444" stroke="white" stroke-width="2"/>
  </g>
  <g class="label-group">
    <rect x="349.99999999999994" y="99.92307692307693" width="100" height="16" fill="white" fill-opacity="0.9" rx="3"/>
    <text x="400.0" y="111.9" text-anchor="middle" font-size="11" font-weight="bold" fill="#ef4444">(π/6, 0.5)</text>
    <rect x="250.0" y="236.07692307692307" width="100" height="16" fill="white" fill-opacity="0.9" rx="3"/>
    <text x="300.0" y="248.1" text-anchor="middle" font-size="11" font-weight="bold" fill="#ef4444">(-π/6, -0.5)</text>
  </g>
</svg>