<svg xmlns="http://www.w3.org/2000/svg" viewBox="0 0 500 400">
  <defs>
        <marker id="arrow-64748b-10" markerWidth="10" markerHeight="10" 
                refX="9.0" refY="5.0" orient="auto"
                markerUnits="userSpaceOnUse">
            <polygon points="0,0 10,5.0 0,10" fill="#64748b"/>
        </marker>

        <marker id="arrow-64748b-10" markerWidth="10" markerHeight="10" 
                refX="9.0" refY="5.0" orient="auto"
                markerUnits="userSpaceOnUse">
            <polygon points="0,0 10,5.0 0,10" fill="#64748b"/>
        </marker></defs>
  <rect x="0.00" y="0.00" width="500.00" height="400.00" fill="white" stroke="none" stroke-width="0" rx="0"  />
  <text x="250.00" y="30.00" font-family="Inter, sans-serif" font-size="16" font-weight="bold" fill="#1e293b" text-anchor="middle" dominant-baseline="middle">Secuencia: 20, 15, 10, 5...</text>
  <line x1="123.33" y1="340.00" x2="123.33" y2="60.00" stroke="#e2e8f0" stroke-width="0.5"  />
  <line x1="186.67" y1="340.00" x2="186.67" y2="60.00" stroke="#e2e8f0" stroke-width="0.5"  />
  <line x1="250.00" y1="340.00" x2="250.00" y2="60.00" stroke="#e2e8f0" stroke-width="0.5"  />
  <line x1="313.33" y1="340.00" x2="313.33" y2="60.00" stroke="#e2e8f0" stroke-width="0.5"  />
  <line x1="376.67" y1="340.00" x2="376.67" y2="60.00" stroke="#e2e8f0" stroke-width="0.5"  />
  <line x1="440.00" y1="340.00" x2="440.00" y2="60.00" stroke="#e2e8f0" stroke-width="0.5"  />
  <line x1="60.00" y1="258.33" x2="440.00" y2="258.33" stroke="#e2e8f0" stroke-width="0.5"  />
  <line x1="60.00" y1="200.00" x2="440.00" y2="200.00" stroke="#e2e8f0" stroke-width="0.5"  />
  <line x1="60.00" y1="141.67" x2="440.00" y2="141.67" stroke="#e2e8f0" stroke-width="0.5"  />
  <line x1="60.00" y1="83.33" x2="440.00" y2="83.33" stroke="#e2e8f0" stroke-width="0.5"  />
  <line x1="60.00" y1="316.67" x2="440.00" y2="316.67" stroke="#64748b" stroke-width="2"  marker-end="url(#arrow-64748b-10)"/>
  <line x1="60.00" y1="340.00" x2="60.00" y2="60.00" stroke="#64748b" stroke-width="2"  marker-end="url(#arrow-64748b-10)"/>
  <text x="435.00" y="336.67" font-family="Inter, sans-serif" font-size="14" font-weight="bold" fill="#64748b" text-anchor="middle" dominant-baseline="middle">x</text>
  <text x="40.00" y="70.00" font-family="Inter, sans-serif" font-size="14" font-weight="bold" fill="#64748b" text-anchor="middle" dominant-baseline="middle">y</text>
  <line x1="123.33" y1="311.67" x2="123.33" y2="321.67" stroke="#64748b" stroke-width="1"  />
  <text x="123.33" y="334.67" font-family="Inter, sans-serif" font-size="11" font-weight="normal" fill="#64748b" text-anchor="middle" dominant-baseline="middle">1</text>
  <line x1="186.67" y1="311.67" x2="186.67" y2="321.67" stroke="#64748b" stroke-width="1"  />
  <text x="186.67" y="334.67" font-family="Inter, sans-serif" font-size="11" font-weight="normal" fill="#64748b" text-anchor="middle" dominant-baseline="middle">2</text>
  <line x1="250.00" y1="311.67" x2="250.00" y2="321.67" stroke="#64748b" stroke-width="1"  />
  <text x="250.00" y="334.67" font-family="Inter, sans-serif" font-size="11" font-weight="normal" fill="#64748b" text-anchor="middle" dominant-baseline="middle">3</text>
  <line x1="313.33" y1="311.67" x2="313.33" y2="321.67" stroke="#64748b" stroke-width="1"  />
  <text x="313.33" y="334.67" font-family="Inter, sans-serif" font-size="11" font-weight="normal" fill="#64748b" text-anchor="middle" dominant-baseline="middle">4</text>
  <line x1="376.67" y1="311.67" x2="376.67" y2="321.67" stroke="#64748b" stroke-width="1"  />
  <text x="376.67" y="334.67" font-family="Inter, sans-serif" font-size="11" font-weight="normal" fill="#64748b" text-anchor="middle" dominant-baseline="middle">5</text>
  <line x1="440.00" y1="311.67" x2="440.00" y2="321.67" stroke="#64748b" stroke-width="1"  />
  <text x="440.00" y="334.67" font-family="Inter, sans-serif" font-size="11" font-weight="normal" fill="#64748b" text-anchor="middle" dominant-baseline="middle">6</text>
  <line x1="55.00" y1="258.33" x2="65.00" y2="258.33" stroke="#64748b" stroke-width="1"  />
  <text x="45.00" y="258.33" font-family="Inter, sans-serif" font-size="11" font-weight="normal" fill="#64748b" text-anchor="end" dominant-baseline="middle">5</text>
  <line x1="55.00" y1="200.00" x2="65.00" y2="200.00" stroke="#64748b" stroke-width="1"  />
  <text x="45.00" y="200.00" font-family="Inter, sans-serif" font-size="11" font-weight="normal" fill="#64748b" text-anchor="end" dominant-baseline="middle">10</text>
  <line x1="55.00" y1="141.67" x2="65.00" y2="141.67" stroke="#64748b" stroke-width="1"  />
  <text x="45.00" y="141.67" font-family="Inter, sans-serif" font-size="11" font-weight="normal" fill="#64748b" text-anchor="end" dominant-baseline="middle">15</text>
  <line x1="55.00" y1="83.33" x2="65.00" y2="83.33" stroke="#64748b" stroke-width="1"  />
  <text x="45.00" y="83.33" font-family="Inter, sans-serif" font-size="11" font-weight="normal" fill="#64748b" text-anchor="end" dominant-baseline="middle">20</text>
  <circle cx="123.33" cy="83.33" r="9" fill="white" />
  <circle cx="123.33" cy="83.33" r="5" fill="#ef4444" stroke="white" stroke-width="2"/>
  <rect x="97.83" y="45.33" width="51.00" height="26.00" fill="white" stroke="#ef4444" stroke-width="1.5" rx="6"  />
  <text x="123.33" y="62.33" font-family="Inter, sans-serif" font-size="12" font-weight="bold" fill="#ef4444" text-anchor="middle" dominant-baseline="middle">a1=20</text>
  <circle cx="186.67" cy="141.67" r="9" fill="white" />
  <circle cx="186.67" cy="141.67" r="5" fill="#ef4444" stroke="white" stroke-width="2"/>
  <rect x="161.17" y="103.67" width="51.00" height="26.00" fill="white" stroke="#ef4444" stroke-width="1.5" rx="6"  />
  <text x="186.67" y="120.67" font-family="Inter, sans-serif" font-size="12" font-weight="bold" fill="#ef4444" text-anchor="middle" dominant-baseline="middle">a2=15</text>
  <circle cx="250.00" cy="200.00" r="9" fill="white" />
  <circle cx="250.00" cy="200.00" r="5" fill="#ef4444" stroke="white" stroke-width="2"/>
  <rect x="224.50" y="162.00" width="51.00" height="26.00" fill="white" stroke="#ef4444" stroke-width="1.5" rx="6"  />
  <text x="250.00" y="179.00" font-family="Inter, sans-serif" font-size="12" font-weight="bold" fill="#ef4444" text-anchor="middle" dominant-baseline="middle">a3=10</text>
  <circle cx="313.33" cy="258.33" r="9" fill="white" />
  <circle cx="313.33" cy="258.33" r="5" fill="#ef4444" stroke="white" stroke-width="2"/>
  <rect x="291.33" y="220.33" width="44.00" height="26.00" fill="white" stroke="#ef4444" stroke-width="1.5" rx="6"  />
  <text x="313.33" y="237.33" font-family="Inter, sans-serif" font-size="12" font-weight="bold" fill="#ef4444" text-anchor="middle" dominant-baseline="middle">a4=5</text>
  <circle cx="376.67" cy="316.67" r="9" fill="white" />
  <circle cx="376.67" cy="316.67" r="5" fill="#ef4444" stroke="white" stroke-width="2"/>
  <rect x="354.67" y="278.67" width="44.00" height="26.00" fill="white" stroke="#ef4444" stroke-width="1.5" rx="6"  />
  <text x="376.67" y="295.67" font-family="Inter, sans-serif" font-size="12" font-weight="bold" fill="#ef4444" text-anchor="middle" dominant-baseline="middle">a5=0</text>
  <polyline points="60.00,25.00 63.84,28.54 67.68,32.07 71.52,35.61 75.35,39.14 79.19,42.68 83.03,46.21 86.87,49.75 90.71,53.28 94.55,56.82 98.38,60.35 102.22,63.89 106.06,67.42 109.90,70.96 113.74,74.49 117.58,78.03 121.41,81.57 125.25,85.10 129.09,88.64 132.93,92.17 136.77,95.71 140.61,99.24 144.44,102.78 148.28,106.31 152.12,109.85 155.96,113.38 159.80,116.92 163.64,120.45 167.47,123.99 171.31,127.53 175.15,131.06 178.99,134.60 182.83,138.13 186.67,141.67 190.51,145.20 194.34,148.74 198.18,152.27 202.02,155.81 205.86,159.34 209.70,162.88 213.54,166.41 217.37,169.95 221.21,173.48 225.05,177.02 228.89,180.56 232.73,184.09 236.57,187.63 240.40,191.16 244.24,194.70 248.08,198.23 251.92,201.77 255.76,205.30 259.60,208.84 263.43,212.37 267.27,215.91 271.11,219.44 274.95,222.98 278.79,226.52 282.63,230.05 286.46,233.59 290.30,237.12 294.14,240.66 297.98,244.19 301.82,247.73 305.66,251.26 309.49,254.80 313.33,258.33 317.17,261.87 321.01,265.40 324.85,268.94 328.69,272.47 332.53,276.01 336.36,279.55 340.20,283.08 344.04,286.62 347.88,290.15 351.72,293.69 355.56,297.22 359.39,300.76 363.23,304.29 367.07,307.83 370.91,311.36 374.75,314.90 378.59,318.43 382.42,321.97 386.26,325.51 390.10,329.04 393.94,332.58 397.78,336.11 401.62,339.65 405.45,343.18 409.29,346.72 413.13,350.25 416.97,353.79 420.81,357.32 424.65,360.86 428.48,364.39 432.32,367.93 436.16,371.46 440.00,375.00" fill="none" stroke="#22c55e" stroke-width="3" stroke-dasharray="6,4" stroke-linecap="round" stroke-linejoin="round"/>
  <rect x="320.00" y="60.00" width="160.00" height="50.00" fill="white" stroke="#e2e8f0" stroke-width="0" rx="8"  />
  <line x1="335.00" y1="80.00" x2="365.00" y2="80.00" stroke="#22c55e" stroke-width="3" stroke-dasharray="5,5" />
  <text x="375.00" y="84.00" font-family="Inter, sans-serif" font-size="11" font-weight="normal" fill="#1e293b" text-anchor="start" dominant-baseline="middle">Diferencia constante (d=-5)</text>
</svg>