<svg xmlns="http://www.w3.org/2000/svg" viewBox="0 0 650 450" 
style="max-width: 100%; height: auto; font-family: Inter, system-ui, sans-serif;">

  <style>
    .wave-path {
      stroke-dasharray: 3000;
      stroke-dashoffset: 3000;
      animation: drawWave 2s ease-out forwards;
    }
    .marker-group { opacity: 0; animation: fadeIn 0.5s ease-out 2s forwards; }
    .label-group { opacity: 0; animation: fadeIn 0.5s ease-out 2.3s forwards; }
    .annotation-group { opacity: 0; animation: fadeIn 0.5s ease-out 2.5s forwards; }
    @keyframes drawWave { to { stroke-dashoffset: 0; } }
    @keyframes fadeIn { to { opacity: 1; } }
  </style>

  <rect width="650" height="450" fill="#f8fafc" rx="8"/>
  <text x="325.0" y="25" text-anchor="middle" font-size="16" font-weight="bold" fill="#1e293b">Ubicando el Punto B(-4, 5)</text>
  <g class="grid">
    <line x1="75.0" y1="75" x2="75.0" y2="375" stroke="#e2e8f0" stroke-dasharray="4,4"/>
    <line x1="137.5" y1="75" x2="137.5" y2="375" stroke="#e2e8f0" stroke-dasharray="4,4"/>
    <line x1="200.0" y1="75" x2="200.0" y2="375" stroke="#e2e8f0" stroke-dasharray="4,4"/>
    <line x1="262.5" y1="75" x2="262.5" y2="375" stroke="#e2e8f0" stroke-dasharray="4,4"/>
    <line x1="325.0" y1="75" x2="325.0" y2="375" stroke="#e2e8f0" stroke-dasharray="4,4"/>
    <line x1="387.5" y1="75" x2="387.5" y2="375" stroke="#e2e8f0" stroke-dasharray="4,4"/>
    <line x1="450.0" y1="75" x2="450.0" y2="375" stroke="#e2e8f0" stroke-dasharray="4,4"/>
    <line x1="512.5" y1="75" x2="512.5" y2="375" stroke="#e2e8f0" stroke-dasharray="4,4"/>
    <line x1="575.0" y1="75" x2="575.0" y2="375" stroke="#e2e8f0" stroke-dasharray="4,4"/>
    <line x1="75" y1="375.0" x2="575" y2="375.0" stroke="#e2e8f0" stroke-dasharray="4,4"/>
    <line x1="75" y1="341.7" x2="575" y2="341.7" stroke="#e2e8f0" stroke-dasharray="4,4"/>
    <line x1="75" y1="275.0" x2="575" y2="275.0" stroke="#e2e8f0" stroke-dasharray="4,4"/>
    <line x1="75" y1="241.7" x2="575" y2="241.7" stroke="#e2e8f0" stroke-dasharray="4,4"/>
    <line x1="75" y1="208.3" x2="575" y2="208.3" stroke="#e2e8f0" stroke-dasharray="4,4"/>
    <line x1="75" y1="175.0" x2="575" y2="175.0" stroke="#e2e8f0" stroke-dasharray="4,4"/>
    <line x1="75" y1="141.7" x2="575" y2="141.7" stroke="#e2e8f0" stroke-dasharray="4,4"/>
    <line x1="75" y1="108.3" x2="575" y2="108.3" stroke="#e2e8f0" stroke-dasharray="4,4"/>
    <line x1="75" y1="75.0" x2="575" y2="75.0" stroke="#e2e8f0" stroke-dasharray="4,4"/>
  </g>
  <g class="axes">
    <line x1="75" y1="308.3" x2="575" y2="308.3" stroke="#374151" stroke-width="2"/>
    <polygon points="575,308.3 567,304.3 567,312.3" fill="#374151"/>
    <line x1="450.0" y1="75" x2="450.0" y2="375" stroke="#374151" stroke-width="2"/>
    <polygon points="450.0,75 446.0,83 454.0,83" fill="#374151"/>
    <text x="635" y="293.3" text-anchor="end" font-size="14" font-weight="bold" fill="#374151">x</text>
    <text x="450.0" y="60.0" text-anchor="middle" font-size="14" font-weight="bold" fill="#374151">y</text>
    <line x1="75.0" y1="304.3" x2="75.0" y2="312.3" stroke="#374151" stroke-width="1.5"/>
    <text x="75.0" y="328.3" text-anchor="middle" font-size="12" fill="#374151">-6</text>
    <line x1="137.5" y1="304.3" x2="137.5" y2="312.3" stroke="#374151" stroke-width="1.5"/>
    <text x="137.5" y="328.3" text-anchor="middle" font-size="12" fill="#374151">-5</text>
    <line x1="200.0" y1="304.3" x2="200.0" y2="312.3" stroke="#374151" stroke-width="1.5"/>
    <text x="200.0" y="328.3" text-anchor="middle" font-size="12" fill="#374151">-4</text>
    <line x1="262.5" y1="304.3" x2="262.5" y2="312.3" stroke="#374151" stroke-width="1.5"/>
    <text x="262.5" y="328.3" text-anchor="middle" font-size="12" fill="#374151">-3</text>
    <line x1="325.0" y1="304.3" x2="325.0" y2="312.3" stroke="#374151" stroke-width="1.5"/>
    <text x="325.0" y="328.3" text-anchor="middle" font-size="12" fill="#374151">-2</text>
    <line x1="387.5" y1="304.3" x2="387.5" y2="312.3" stroke="#374151" stroke-width="1.5"/>
    <text x="387.5" y="328.3" text-anchor="middle" font-size="12" fill="#374151">-1</text>
    <line x1="512.5" y1="304.3" x2="512.5" y2="312.3" stroke="#374151" stroke-width="1.5"/>
    <text x="512.5" y="328.3" text-anchor="middle" font-size="12" fill="#374151">1</text>
    <line x1="575.0" y1="304.3" x2="575.0" y2="312.3" stroke="#374151" stroke-width="1.5"/>
    <text x="575.0" y="328.3" text-anchor="middle" font-size="12" fill="#374151">2</text>
    <line x1="446.0" y1="375.0" x2="454.0" y2="375.0" stroke="#374151" stroke-width="1.5"/>
    <text x="438.0" y="379.0" text-anchor="end" font-size="12" fill="#374151">-2</text>
    <line x1="446.0" y1="341.7" x2="454.0" y2="341.7" stroke="#374151" stroke-width="1.5"/>
    <text x="438.0" y="345.7" text-anchor="end" font-size="12" fill="#374151">-1</text>
    <line x1="446.0" y1="275.0" x2="454.0" y2="275.0" stroke="#374151" stroke-width="1.5"/>
    <text x="438.0" y="279.0" text-anchor="end" font-size="12" fill="#374151">1</text>
    <line x1="446.0" y1="241.7" x2="454.0" y2="241.7" stroke="#374151" stroke-width="1.5"/>
    <text x="438.0" y="245.7" text-anchor="end" font-size="12" fill="#374151">2</text>
    <line x1="446.0" y1="208.3" x2="454.0" y2="208.3" stroke="#374151" stroke-width="1.5"/>
    <text x="438.0" y="212.3" text-anchor="end" font-size="12" fill="#374151">3</text>
    <line x1="446.0" y1="175.0" x2="454.0" y2="175.0" stroke="#374151" stroke-width="1.5"/>
    <text x="438.0" y="179.0" text-anchor="end" font-size="12" fill="#374151">4</text>
    <line x1="446.0" y1="141.7" x2="454.0" y2="141.7" stroke="#374151" stroke-width="1.5"/>
    <text x="438.0" y="145.7" text-anchor="end" font-size="12" fill="#374151">5</text>
    <line x1="446.0" y1="108.3" x2="454.0" y2="108.3" stroke="#374151" stroke-width="1.5"/>
    <text x="438.0" y="112.3" text-anchor="end" font-size="12" fill="#374151">6</text>
    <line x1="446.0" y1="75.0" x2="454.0" y2="75.0" stroke="#374151" stroke-width="1.5"/>
    <text x="438.0" y="79.0" text-anchor="end" font-size="12" fill="#374151">7</text>
  </g>
  <g class="marker-group">
    <circle cx="200.0" cy="141.7" r="6" fill="#8b5cf6" stroke="white" stroke-width="2"/>
  </g>
  <g class="label-group">
    <rect x="150.0" y="114.66666666666666" width="100" height="16" fill="white" fill-opacity="0.9" rx="3"/>
    <text x="200.0" y="126.7" text-anchor="middle" font-size="11" font-weight="bold" fill="#8b5cf6">B(-4, 5)</text>
  </g>
  <g class="annotation-group">
    <line x1="450.0" y1="308.3" x2="200.0" y2="308.3" stroke="#ef4444" stroke-width="2.5"/>
    <polygon points="200.0,308.3 209.2,304.4 209.2,312.2" fill="#ef4444"/>
    <rect x="303.0" y="286.33333333333337" width="44" height="14" rx="3" fill="white" fill-opacity="0.9"/>
    <text x="325.0" y="296.3" text-anchor="middle" font-size="11" font-weight="bold" fill="#ef4444">4 izq</text>
    <line x1="200.0" y1="308.3" x2="200.0" y2="141.7" stroke="#22c55e" stroke-width="2.5"/>
    <polygon points="200.0,141.7 203.9,150.9 196.1,150.9" fill="#22c55e"/>
    <rect x="178.0" y="203.0" width="44" height="14" rx="3" fill="white" fill-opacity="0.9"/>
    <text x="200.0" y="213.0" text-anchor="middle" font-size="11" font-weight="bold" fill="#22c55e">5 subir</text>
  </g>
</svg>