<svg xmlns="http://www.w3.org/2000/svg" viewBox="0 0 600 250">
  <defs>
        <marker id="arrow-3b82f6-10" markerWidth="10" markerHeight="10" 
                refX="9.0" refY="5.0" orient="auto"
                markerUnits="userSpaceOnUse">
            <polygon points="0,0 10,5.0 0,10" fill="#3b82f6"/>
        </marker>

        <marker id="arrow-3b82f6-10" markerWidth="10" markerHeight="10" 
                refX="9.0" refY="5.0" orient="auto"
                markerUnits="userSpaceOnUse">
            <polygon points="0,0 10,5.0 0,10" fill="#3b82f6"/>
        </marker></defs>
  <rect x="0.00" y="0.00" width="600.00" height="250.00" fill="#f8fafc" stroke="none" stroke-width="0" rx="0"  />
  <line x1="20.00" y1="140.00" x2="580.00" y2="140.00" stroke="#64748b" stroke-width="2"  marker-end="url(#arrow)"/>
  <line x1="90.00" y1="135.00" x2="90.00" y2="145.00" stroke="#64748b" stroke-width="1"  />
  <line x1="120.00" y1="135.00" x2="120.00" y2="145.00" stroke="#64748b" stroke-width="1"  />
  <text x="120.00" y="165.00" font-family="Inter, sans-serif" font-size="10" font-weight="normal" fill="#64748b" text-anchor="middle" dominant-baseline="middle">-6</text>
  <line x1="150.00" y1="135.00" x2="150.00" y2="145.00" stroke="#64748b" stroke-width="1"  />
  <line x1="180.00" y1="135.00" x2="180.00" y2="145.00" stroke="#64748b" stroke-width="1"  />
  <text x="180.00" y="165.00" font-family="Inter, sans-serif" font-size="10" font-weight="normal" fill="#64748b" text-anchor="middle" dominant-baseline="middle">-4</text>
  <line x1="210.00" y1="135.00" x2="210.00" y2="145.00" stroke="#64748b" stroke-width="1"  />
  <line x1="240.00" y1="135.00" x2="240.00" y2="145.00" stroke="#64748b" stroke-width="1"  />
  <text x="240.00" y="165.00" font-family="Inter, sans-serif" font-size="10" font-weight="normal" fill="#64748b" text-anchor="middle" dominant-baseline="middle">-2</text>
  <line x1="270.00" y1="135.00" x2="270.00" y2="145.00" stroke="#64748b" stroke-width="1"  />
  <line x1="300.00" y1="135.00" x2="300.00" y2="145.00" stroke="#64748b" stroke-width="1"  />
  <text x="300.00" y="165.00" font-family="Inter, sans-serif" font-size="10" font-weight="normal" fill="#64748b" text-anchor="middle" dominant-baseline="middle">0</text>
  <line x1="330.00" y1="135.00" x2="330.00" y2="145.00" stroke="#64748b" stroke-width="1"  />
  <line x1="360.00" y1="135.00" x2="360.00" y2="145.00" stroke="#64748b" stroke-width="1"  />
  <text x="360.00" y="165.00" font-family="Inter, sans-serif" font-size="10" font-weight="normal" fill="#64748b" text-anchor="middle" dominant-baseline="middle">2</text>
  <line x1="390.00" y1="135.00" x2="390.00" y2="145.00" stroke="#64748b" stroke-width="1"  />
  <line x1="420.00" y1="135.00" x2="420.00" y2="145.00" stroke="#64748b" stroke-width="1"  />
  <text x="420.00" y="165.00" font-family="Inter, sans-serif" font-size="10" font-weight="normal" fill="#64748b" text-anchor="middle" dominant-baseline="middle">4</text>
  <line x1="450.00" y1="135.00" x2="450.00" y2="145.00" stroke="#64748b" stroke-width="1"  />
  <line x1="480.00" y1="135.00" x2="480.00" y2="145.00" stroke="#64748b" stroke-width="1"  />
  <text x="480.00" y="165.00" font-family="Inter, sans-serif" font-size="10" font-weight="normal" fill="#64748b" text-anchor="middle" dominant-baseline="middle">6</text>
  <line x1="510.00" y1="135.00" x2="510.00" y2="145.00" stroke="#64748b" stroke-width="1"  />
  <line x1="360.00" y1="125.00" x2="360.00" y2="155.00" stroke="#22c55e" stroke-width="2" stroke-dasharray="5,5" />
  <text x="360.00" y="115.00" font-family="Inter, sans-serif" font-size="14" font-weight="bold" fill="#22c55e" text-anchor="middle" dominant-baseline="middle">a</text>
  <circle cx="450.00" cy="140.00" r="5" fill="#ef4444" />
  <circle cx="270.00" cy="140.00" r="5" fill="#ef4444" />
  <line x1="360.00" y1="90.00" x2="450.00" y2="90.00" stroke="#3b82f6" stroke-width="2"  marker-end="url(#arrow-3b82f6-10)"/>
  <line x1="360.00" y1="90.00" x2="270.00" y2="90.00" stroke="#3b82f6" stroke-width="2"  marker-end="url(#arrow-3b82f6-10)"/>
  <line x1="360.00" y1="125.00" x2="360.00" y2="90.00" stroke="#22c55e" stroke-width="1" stroke-dasharray="5,5" />
  <line x1="450.00" y1="140.00" x2="450.00" y2="90.00" stroke="#ef4444" stroke-width="1" stroke-dasharray="5,5" />
  <line x1="270.00" y1="140.00" x2="270.00" y2="90.00" stroke="#ef4444" stroke-width="1" stroke-dasharray="5,5" />
  <text x="405.00" y="75.00" font-family="Inter, sans-serif" font-size="12" font-weight="normal" fill="#3b82f6" text-anchor="middle" dominant-baseline="middle">d</text>
  <text x="315.00" y="75.00" font-family="Inter, sans-serif" font-size="12" font-weight="normal" fill="#3b82f6" text-anchor="middle" dominant-baseline="middle">d</text>
  <text x="435.00" y="55.00" font-family="Inter, sans-serif" font-size="11" font-weight="normal" fill="#64748b" text-anchor="middle" dominant-baseline="middle">Caso Positivo</text>
  <text x="435.00" y="40.00" font-family="Inter, sans-serif" font-size="12" font-weight="bold" fill="#1e293b" text-anchor="middle" dominant-baseline="middle">x - a = d</text>
  <text x="285.00" y="55.00" font-family="Inter, sans-serif" font-size="11" font-weight="normal" fill="#64748b" text-anchor="middle" dominant-baseline="middle">Caso Negativo</text>
  <text x="285.00" y="40.00" font-family="Inter, sans-serif" font-size="12" font-weight="bold" fill="#1e293b" text-anchor="middle" dominant-baseline="middle">x - a = -d</text>
  <rect x="413.60" y="173.80" width="72.80" height="22.40" fill="#bbf7d0" stroke="none" stroke-width="0" rx="4"  />
  <text x="450.00" y="185.00" font-family="Inter, sans-serif" font-size="12" font-weight="bold" fill="#22c55e" text-anchor="middle" dominant-baseline="middle">x = a + d</text>
  <rect x="233.60" y="173.80" width="72.80" height="22.40" fill="#bbf7d0" stroke="none" stroke-width="0" rx="4"  />
  <text x="270.00" y="185.00" font-family="Inter, sans-serif" font-size="12" font-weight="bold" fill="#22c55e" text-anchor="middle" dominant-baseline="middle">x = a - d</text>
  <rect x="249.65" y="12.20" width="100.70" height="35.60" fill="#fef3c7" stroke="#f97316" stroke-width="1" rx="6"  />
  <text x="300.00" y="30.00" font-family="Inter, sans-serif" font-size="14" font-weight="bold" fill="#1e293b" text-anchor="middle" dominant-baseline="middle">|x - a| = d</text>
</svg>