<svg xmlns="http://www.w3.org/2000/svg" viewBox="0 0 600 200">
  <defs>
        <marker id="arrow-3b82f6-10" markerWidth="10" markerHeight="10" 
                refX="9.0" refY="5.0" orient="auto"
                markerUnits="userSpaceOnUse">
            <polygon points="0,0 10,5.0 0,10" fill="#3b82f6"/>
        </marker>

        <marker id="arrow-3b82f6-10" markerWidth="10" markerHeight="10" 
                refX="9.0" refY="5.0" orient="auto"
                markerUnits="userSpaceOnUse">
            <polygon points="0,0 10,5.0 0,10" fill="#3b82f6"/>
        </marker></defs>
  <rect x="0.00" y="0.00" width="600.00" height="200.00" fill="#f8fafc" stroke="none" stroke-width="0" rx="0"  />
  <line x1="20.00" y1="120.00" x2="580.00" y2="120.00" stroke="#64748b" stroke-width="2"  marker-end="url(#arrow)"/>
  <line x1="90.00" y1="115.00" x2="90.00" y2="125.00" stroke="#64748b" stroke-width="1"  />
  <line x1="120.00" y1="115.00" x2="120.00" y2="125.00" stroke="#64748b" stroke-width="1"  />
  <text x="120.00" y="145.00" font-family="Inter, sans-serif" font-size="12" font-weight="normal" fill="#64748b" text-anchor="middle" dominant-baseline="middle">-6</text>
  <line x1="150.00" y1="115.00" x2="150.00" y2="125.00" stroke="#64748b" stroke-width="1"  />
  <line x1="180.00" y1="115.00" x2="180.00" y2="125.00" stroke="#64748b" stroke-width="1"  />
  <text x="180.00" y="145.00" font-family="Inter, sans-serif" font-size="12" font-weight="normal" fill="#64748b" text-anchor="middle" dominant-baseline="middle">-4</text>
  <line x1="210.00" y1="115.00" x2="210.00" y2="125.00" stroke="#64748b" stroke-width="1"  />
  <line x1="240.00" y1="115.00" x2="240.00" y2="125.00" stroke="#64748b" stroke-width="1"  />
  <text x="240.00" y="145.00" font-family="Inter, sans-serif" font-size="12" font-weight="normal" fill="#64748b" text-anchor="middle" dominant-baseline="middle">-2</text>
  <line x1="270.00" y1="115.00" x2="270.00" y2="125.00" stroke="#64748b" stroke-width="1"  />
  <line x1="300.00" y1="110.00" x2="300.00" y2="130.00" stroke="#64748b" stroke-width="1"  />
  <line x1="330.00" y1="115.00" x2="330.00" y2="125.00" stroke="#64748b" stroke-width="1"  />
  <line x1="360.00" y1="115.00" x2="360.00" y2="125.00" stroke="#64748b" stroke-width="1"  />
  <text x="360.00" y="145.00" font-family="Inter, sans-serif" font-size="12" font-weight="normal" fill="#64748b" text-anchor="middle" dominant-baseline="middle">2</text>
  <line x1="390.00" y1="115.00" x2="390.00" y2="125.00" stroke="#64748b" stroke-width="1"  />
  <line x1="420.00" y1="115.00" x2="420.00" y2="125.00" stroke="#64748b" stroke-width="1"  />
  <text x="420.00" y="145.00" font-family="Inter, sans-serif" font-size="12" font-weight="normal" fill="#64748b" text-anchor="middle" dominant-baseline="middle">4</text>
  <line x1="450.00" y1="115.00" x2="450.00" y2="125.00" stroke="#64748b" stroke-width="1"  />
  <line x1="480.00" y1="115.00" x2="480.00" y2="125.00" stroke="#64748b" stroke-width="1"  />
  <text x="480.00" y="145.00" font-family="Inter, sans-serif" font-size="12" font-weight="normal" fill="#64748b" text-anchor="middle" dominant-baseline="middle">6</text>
  <line x1="510.00" y1="115.00" x2="510.00" y2="125.00" stroke="#64748b" stroke-width="1"  />
  <text x="300.00" y="145.00" font-family="Inter, sans-serif" font-size="12" font-weight="bold" fill="#64748b" text-anchor="middle" dominant-baseline="middle">0</text>
  <circle cx="420.00" cy="120.00" r="5" fill="#ef4444" />
  <circle cx="180.00" cy="120.00" r="5" fill="#ef4444" />
  <line x1="300.00" y1="90.00" x2="420.00" y2="90.00" stroke="#3b82f6" stroke-width="2"  marker-end="url(#arrow-3b82f6-10)"/>
  <line x1="300.00" y1="90.00" x2="180.00" y2="90.00" stroke="#3b82f6" stroke-width="2"  marker-end="url(#arrow-3b82f6-10)"/>
  <text x="360.00" y="75.00" font-family="Inter, sans-serif" font-size="12" font-weight="normal" fill="#3b82f6" text-anchor="middle" dominant-baseline="middle">distancia = d</text>
  <text x="240.00" y="75.00" font-family="Inter, sans-serif" font-size="12" font-weight="normal" fill="#3b82f6" text-anchor="middle" dominant-baseline="middle">distancia = d</text>
  <rect x="398.00" y="153.80" width="44.00" height="22.40" fill="#bbf7d0" stroke="none" stroke-width="0" rx="4"  />
  <text x="420.00" y="165.00" font-family="Inter, sans-serif" font-size="12" font-weight="bold" fill="#22c55e" text-anchor="middle" dominant-baseline="middle">x = d</text>
  <rect x="154.40" y="153.80" width="51.20" height="22.40" fill="#bbf7d0" stroke="none" stroke-width="0" rx="4"  />
  <text x="180.00" y="165.00" font-family="Inter, sans-serif" font-size="12" font-weight="bold" fill="#22c55e" text-anchor="middle" dominant-baseline="middle">x = -d</text>
  <rect x="265.05" y="12.20" width="69.90" height="35.60" fill="#fef3c7" stroke="#f97316" stroke-width="1" rx="6"  />
  <text x="300.00" y="30.00" font-family="Inter, sans-serif" font-size="14" font-weight="bold" fill="#1e293b" text-anchor="middle" dominant-baseline="middle">|x| = d</text>
</svg>