<svg xmlns="http://www.w3.org/2000/svg" viewBox="0 0 600 180">
  <defs></defs>
  <rect x="0.00" y="0.00" width="600.00" height="180.00" fill="#f8fafc" stroke="none" stroke-width="0" rx="0"  />
  <line x1="20.00" y1="90.00" x2="580.00" y2="90.00" stroke="#64748b" stroke-width="2"  marker-end="url(#arrow)"/>
  <line x1="60.00" y1="85.00" x2="60.00" y2="95.00" stroke="#64748b" stroke-width="2"  />
  <text x="60.00" y="115.00" font-family="Inter, sans-serif" font-size="11" font-weight="normal" fill="#64748b" text-anchor="middle" dominant-baseline="middle">-8</text>
  <line x1="90.00" y1="85.00" x2="90.00" y2="95.00" stroke="#64748b" stroke-width="2"  />
  <text x="90.00" y="115.00" font-family="Inter, sans-serif" font-size="11" font-weight="normal" fill="#64748b" text-anchor="middle" dominant-baseline="middle">-7</text>
  <line x1="120.00" y1="85.00" x2="120.00" y2="95.00" stroke="#64748b" stroke-width="2"  />
  <text x="120.00" y="115.00" font-family="Inter, sans-serif" font-size="11" font-weight="normal" fill="#64748b" text-anchor="middle" dominant-baseline="middle">-6</text>
  <line x1="180.00" y1="85.00" x2="180.00" y2="95.00" stroke="#64748b" stroke-width="2"  />
  <text x="180.00" y="115.00" font-family="Inter, sans-serif" font-size="11" font-weight="normal" fill="#64748b" text-anchor="middle" dominant-baseline="middle">-4</text>
  <line x1="240.00" y1="85.00" x2="240.00" y2="95.00" stroke="#64748b" stroke-width="2"  />
  <text x="240.00" y="115.00" font-family="Inter, sans-serif" font-size="11" font-weight="normal" fill="#64748b" text-anchor="middle" dominant-baseline="middle">-2</text>
  <line x1="300.00" y1="85.00" x2="300.00" y2="95.00" stroke="#64748b" stroke-width="2"  />
  <text x="300.00" y="115.00" font-family="Inter, sans-serif" font-size="11" font-weight="normal" fill="#22c55e" text-anchor="middle" dominant-baseline="middle">0</text>
  <line x1="360.00" y1="85.00" x2="360.00" y2="95.00" stroke="#64748b" stroke-width="2"  />
  <text x="360.00" y="115.00" font-family="Inter, sans-serif" font-size="11" font-weight="normal" fill="#64748b" text-anchor="middle" dominant-baseline="middle">2</text>
  <line x1="420.00" y1="85.00" x2="420.00" y2="95.00" stroke="#64748b" stroke-width="2"  />
  <text x="420.00" y="115.00" font-family="Inter, sans-serif" font-size="11" font-weight="normal" fill="#64748b" text-anchor="middle" dominant-baseline="middle">4</text>
  <line x1="480.00" y1="85.00" x2="480.00" y2="95.00" stroke="#64748b" stroke-width="2"  />
  <text x="480.00" y="115.00" font-family="Inter, sans-serif" font-size="11" font-weight="normal" fill="#64748b" text-anchor="middle" dominant-baseline="middle">6</text>
  <line x1="510.00" y1="85.00" x2="510.00" y2="95.00" stroke="#64748b" stroke-width="2"  />
  <text x="510.00" y="115.00" font-family="Inter, sans-serif" font-size="11" font-weight="normal" fill="#64748b" text-anchor="middle" dominant-baseline="middle">7</text>
  <line x1="540.00" y1="85.00" x2="540.00" y2="95.00" stroke="#64748b" stroke-width="2"  />
  <text x="540.00" y="115.00" font-family="Inter, sans-serif" font-size="11" font-weight="normal" fill="#64748b" text-anchor="middle" dominant-baseline="middle">8</text>
  <circle cx="510.00" cy="90.00" r="6" fill="#22c55e" />
  <circle cx="90.00" cy="90.00" r="6" fill="#22c55e" />
  <rect x="488.00" y="53.80" width="44.00" height="22.40" fill="#bbf7d0" stroke="none" stroke-width="0" rx="4"  />
  <text x="510.00" y="65.00" font-family="Inter, sans-serif" font-size="12" font-weight="bold" fill="#22c55e" text-anchor="middle" dominant-baseline="middle">x = 7</text>
  <rect x="64.40" y="53.80" width="51.20" height="22.40" fill="#bbf7d0" stroke="none" stroke-width="0" rx="4"  />
  <text x="90.00" y="65.00" font-family="Inter, sans-serif" font-size="12" font-weight="bold" fill="#22c55e" text-anchor="middle" dominant-baseline="middle">x = -7</text>
  <path d="M 300 90 Q 405.0 50 510 90" fill="none" stroke="#3b82f6" stroke-width="2"/>
  <path d="M 300 90 Q 195.0 50 90 90" fill="none" stroke="#3b82f6" stroke-width="2"/>
  <text x="405.00" y="40.00" font-family="Inter, sans-serif" font-size="12" font-weight="normal" fill="#3b82f6" text-anchor="middle" dominant-baseline="middle">|7|</text>
  <text x="195.00" y="40.00" font-family="Inter, sans-serif" font-size="12" font-weight="normal" fill="#3b82f6" text-anchor="middle" dominant-baseline="middle">|-7|</text>
</svg>