<svg xmlns="http://www.w3.org/2000/svg" viewBox="0 0 600 300">
  <defs>
        <marker id="arrow-64748b-10" markerWidth="10" markerHeight="10" 
                refX="9.0" refY="5.0" orient="auto"
                markerUnits="userSpaceOnUse">
            <polygon points="0,0 10,5.0 0,10" fill="#64748b"/>
        </marker>

        <marker id="arrow-64748b-10" markerWidth="10" markerHeight="10" 
                refX="9.0" refY="5.0" orient="auto"
                markerUnits="userSpaceOnUse">
            <polygon points="0,0 10,5.0 0,10" fill="#64748b"/>
        </marker></defs>
  <rect x="0.00" y="0.00" width="600.00" height="300.00" fill="white" stroke="none" stroke-width="0" rx="0"/>
  <text x="300.00" y="30.00" font-family="Inter, sans-serif" font-size="16" font-weight="bold" fill="#1e293b" text-anchor="middle" dominant-baseline="middle">Ejercicio 4: Pelota lanzada</text>
  <line x1="60.00" y1="240.00" x2="540.00" y2="240.00" stroke="#e2e8f0" stroke-width="0.5"  />
  <line x1="60.00" y1="222.00" x2="540.00" y2="222.00" stroke="#e2e8f0" stroke-width="0.5"  />
  <line x1="60.00" y1="204.00" x2="540.00" y2="204.00" stroke="#e2e8f0" stroke-width="0.5"  />
  <line x1="60.00" y1="186.00" x2="540.00" y2="186.00" stroke="#e2e8f0" stroke-width="0.5"  />
  <line x1="60.00" y1="168.00" x2="540.00" y2="168.00" stroke="#e2e8f0" stroke-width="0.5"  />
  <line x1="60.00" y1="132.00" x2="540.00" y2="132.00" stroke="#e2e8f0" stroke-width="0.5"  />
  <line x1="60.00" y1="114.00" x2="540.00" y2="114.00" stroke="#e2e8f0" stroke-width="0.5"  />
  <line x1="60.00" y1="96.00" x2="540.00" y2="96.00" stroke="#e2e8f0" stroke-width="0.5"  />
  <line x1="60.00" y1="78.00" x2="540.00" y2="78.00" stroke="#e2e8f0" stroke-width="0.5"  />
  <line x1="60.00" y1="60.00" x2="540.00" y2="60.00" stroke="#e2e8f0" stroke-width="0.5"  />
  <line x1="60.00" y1="150.00" x2="540.00" y2="150.00" stroke="#64748b" stroke-width="2"  marker-end="url(#arrow-64748b-10)"/>
  <line x1="60.00" y1="240.00" x2="60.00" y2="60.00" stroke="#64748b" stroke-width="2"  marker-end="url(#arrow-64748b-10)"/>
  <text x="535.00" y="170.00" font-family="Inter, sans-serif" font-size="14" font-weight="bold" fill="#64748b" text-anchor="middle" dominant-baseline="middle">t (s)</text>
  <text x="40.00" y="70.00" font-family="Inter, sans-serif" font-size="14" font-weight="bold" fill="#64748b" text-anchor="middle" dominant-baseline="middle">v (m/s)</text>
  <line x1="55.00" y1="240.00" x2="65.00" y2="240.00" stroke="#64748b" stroke-width="1"  />
  <text x="45.00" y="240.00" font-family="Inter, sans-serif" font-size="11" font-weight="normal" fill="#64748b" text-anchor="end" dominant-baseline="middle">-25</text>
  <line x1="55.00" y1="222.00" x2="65.00" y2="222.00" stroke="#64748b" stroke-width="1"  />
  <text x="45.00" y="222.00" font-family="Inter, sans-serif" font-size="11" font-weight="normal" fill="#64748b" text-anchor="end" dominant-baseline="middle">-20</text>
  <line x1="55.00" y1="204.00" x2="65.00" y2="204.00" stroke="#64748b" stroke-width="1"  />
  <text x="45.00" y="204.00" font-family="Inter, sans-serif" font-size="11" font-weight="normal" fill="#64748b" text-anchor="end" dominant-baseline="middle">-15</text>
  <line x1="55.00" y1="186.00" x2="65.00" y2="186.00" stroke="#64748b" stroke-width="1"  />
  <text x="45.00" y="186.00" font-family="Inter, sans-serif" font-size="11" font-weight="normal" fill="#64748b" text-anchor="end" dominant-baseline="middle">-10</text>
  <line x1="55.00" y1="168.00" x2="65.00" y2="168.00" stroke="#64748b" stroke-width="1"  />
  <text x="45.00" y="168.00" font-family="Inter, sans-serif" font-size="11" font-weight="normal" fill="#64748b" text-anchor="end" dominant-baseline="middle">-5</text>
  <line x1="55.00" y1="132.00" x2="65.00" y2="132.00" stroke="#64748b" stroke-width="1"  />
  <text x="45.00" y="132.00" font-family="Inter, sans-serif" font-size="11" font-weight="normal" fill="#64748b" text-anchor="end" dominant-baseline="middle">5</text>
  <line x1="55.00" y1="114.00" x2="65.00" y2="114.00" stroke="#64748b" stroke-width="1"  />
  <text x="45.00" y="114.00" font-family="Inter, sans-serif" font-size="11" font-weight="normal" fill="#64748b" text-anchor="end" dominant-baseline="middle">10</text>
  <line x1="55.00" y1="96.00" x2="65.00" y2="96.00" stroke="#64748b" stroke-width="1"  />
  <text x="45.00" y="96.00" font-family="Inter, sans-serif" font-size="11" font-weight="normal" fill="#64748b" text-anchor="end" dominant-baseline="middle">15</text>
  <line x1="55.00" y1="78.00" x2="65.00" y2="78.00" stroke="#64748b" stroke-width="1"  />
  <text x="45.00" y="78.00" font-family="Inter, sans-serif" font-size="11" font-weight="normal" fill="#64748b" text-anchor="end" dominant-baseline="middle">20</text>
  <line x1="55.00" y1="60.00" x2="65.00" y2="60.00" stroke="#64748b" stroke-width="1"  />
  <text x="45.00" y="60.00" font-family="Inter, sans-serif" font-size="11" font-weight="normal" fill="#64748b" text-anchor="end" dominant-baseline="middle">25</text>
  <text x="48.00" y="165.00" font-family="Inter, sans-serif" font-size="11" font-weight="normal" fill="#64748b" text-anchor="middle" dominant-baseline="middle">O</text>
  <polyline points="60.00,78.00 64.85,79.64 69.70,81.27 74.55,82.91 79.39,84.55 84.24,86.18 89.09,87.82 93.94,89.45 98.79,91.09 103.64,92.73 108.48,94.36 113.33,96.00 118.18,97.64 123.03,99.27 127.88,100.91 132.73,102.55 137.58,104.18 142.42,105.82 147.27,107.45 152.12,109.09 156.97,110.73 161.82,112.36 166.67,114.00 171.52,115.64 176.36,117.27 181.21,118.91 186.06,120.55 190.91,122.18 195.76,123.82 200.61,125.45 205.45,127.09 210.30,128.73 215.15,130.36 220.00,132.00 224.85,133.64 229.70,135.27 234.55,136.91 239.39,138.55 244.24,140.18 249.09,141.82 253.94,143.45 258.79,145.09 263.64,146.73 268.48,148.36 273.33,150.00 278.18,151.64 283.03,153.27 287.88,154.91 292.73,156.55 297.58,158.18 302.42,159.82 307.27,161.45 312.12,163.09 316.97,164.73 321.82,166.36 326.67,168.00 331.52,169.64 336.36,171.27 341.21,172.91 346.06,174.55 350.91,176.18 355.76,177.82 360.61,179.45 365.45,181.09 370.30,182.73 375.15,184.36 380.00,186.00 384.85,187.64 389.70,189.27 394.55,190.91 399.39,192.55 404.24,194.18 409.09,195.82 413.94,197.45 418.79,199.09 423.64,200.73 428.48,202.36 433.33,204.00 438.18,205.64 443.03,207.27 447.88,208.91 452.73,210.55 457.58,212.18 462.42,213.82 467.27,215.45 472.12,217.09 476.97,218.73 481.82,220.36 486.67,222.00 491.52,223.64 496.36,225.27 501.21,226.91 506.06,228.55 510.91,230.18 515.76,231.82 520.61,233.45 525.45,235.09 530.30,236.73 535.15,238.36 540.00,240.00" fill="none" stroke="#8b5cf6" stroke-width="3"  stroke-linecap="round" stroke-linejoin="round"/>
  <circle cx="60.00" cy="78.00" r="9" fill="white" />
  <circle cx="60.00" cy="78.00" r="5" fill="#8b5cf6" stroke="white" stroke-width="2"/>
  <circle cx="166.67" cy="114.00" r="9" fill="white" />
  <circle cx="166.67" cy="114.00" r="5" fill="#8b5cf6" stroke="white" stroke-width="2"/>
  <circle cx="273.33" cy="150.00" r="9" fill="white" />
  <circle cx="273.33" cy="150.00" r="5" fill="#8b5cf6" stroke="white" stroke-width="2"/>
  <circle cx="380.00" cy="186.00" r="9" fill="white" />
  <circle cx="380.00" cy="186.00" r="5" fill="#8b5cf6" stroke="white" stroke-width="2"/>
  <circle cx="486.67" cy="222.00" r="9" fill="white" />
  <circle cx="486.67" cy="222.00" r="5" fill="#8b5cf6" stroke="white" stroke-width="2"/>
</svg>