<svg xmlns="http://www.w3.org/2000/svg" viewBox="0 0 600 300">
  <defs>
        <marker id="arrow-64748b-10" markerWidth="10" markerHeight="10" 
                refX="9.0" refY="5.0" orient="auto"
                markerUnits="userSpaceOnUse">
            <polygon points="0,0 10,5.0 0,10" fill="#64748b"/>
        </marker>

        <marker id="arrow-64748b-10" markerWidth="10" markerHeight="10" 
                refX="9.0" refY="5.0" orient="auto"
                markerUnits="userSpaceOnUse">
            <polygon points="0,0 10,5.0 0,10" fill="#64748b"/>
        </marker></defs>
  <rect x="0.00" y="0.00" width="600.00" height="300.00" fill="white" stroke="none" stroke-width="0" rx="0"/>
  <text x="300.00" y="30.00" font-family="Inter, sans-serif" font-size="16" font-weight="bold" fill="#1e293b" text-anchor="middle" dominant-baseline="middle">Ejercicio 6: Regreso a casa</text>
  <line x1="197.14" y1="240.00" x2="197.14" y2="60.00" stroke="#e2e8f0" stroke-width="0.5"  />
  <line x1="334.29" y1="240.00" x2="334.29" y2="60.00" stroke="#e2e8f0" stroke-width="0.5"  />
  <line x1="471.43" y1="240.00" x2="471.43" y2="60.00" stroke="#e2e8f0" stroke-width="0.5"  />
  <line x1="60.00" y1="214.29" x2="540.00" y2="214.29" stroke="#e2e8f0" stroke-width="0.5"  />
  <line x1="60.00" y1="188.57" x2="540.00" y2="188.57" stroke="#e2e8f0" stroke-width="0.5"  />
  <line x1="60.00" y1="162.86" x2="540.00" y2="162.86" stroke="#e2e8f0" stroke-width="0.5"  />
  <line x1="60.00" y1="137.14" x2="540.00" y2="137.14" stroke="#e2e8f0" stroke-width="0.5"  />
  <line x1="60.00" y1="111.43" x2="540.00" y2="111.43" stroke="#e2e8f0" stroke-width="0.5"  />
  <line x1="60.00" y1="85.71" x2="540.00" y2="85.71" stroke="#e2e8f0" stroke-width="0.5"  />
  <line x1="60.00" y1="60.00" x2="540.00" y2="60.00" stroke="#e2e8f0" stroke-width="0.5"  />
  <line x1="60.00" y1="240.00" x2="540.00" y2="240.00" stroke="#64748b" stroke-width="2"  marker-end="url(#arrow-64748b-10)"/>
  <line x1="60.00" y1="240.00" x2="60.00" y2="60.00" stroke="#64748b" stroke-width="2"  marker-end="url(#arrow-64748b-10)"/>
  <text x="535.00" y="260.00" font-family="Inter, sans-serif" font-size="14" font-weight="bold" fill="#64748b" text-anchor="middle" dominant-baseline="middle">t (s)</text>
  <text x="40.00" y="70.00" font-family="Inter, sans-serif" font-size="14" font-weight="bold" fill="#64748b" text-anchor="middle" dominant-baseline="middle">x (m)</text>
  <line x1="197.14" y1="235.00" x2="197.14" y2="245.00" stroke="#64748b" stroke-width="1"  />
  <text x="197.14" y="258.00" font-family="Inter, sans-serif" font-size="11" font-weight="normal" fill="#64748b" text-anchor="middle" dominant-baseline="middle">2</text>
  <line x1="334.29" y1="235.00" x2="334.29" y2="245.00" stroke="#64748b" stroke-width="1"  />
  <text x="334.29" y="258.00" font-family="Inter, sans-serif" font-size="11" font-weight="normal" fill="#64748b" text-anchor="middle" dominant-baseline="middle">4</text>
  <line x1="471.43" y1="235.00" x2="471.43" y2="245.00" stroke="#64748b" stroke-width="1"  />
  <text x="471.43" y="258.00" font-family="Inter, sans-serif" font-size="11" font-weight="normal" fill="#64748b" text-anchor="middle" dominant-baseline="middle">6</text>
  <line x1="55.00" y1="214.29" x2="65.00" y2="214.29" stroke="#64748b" stroke-width="1"  />
  <text x="45.00" y="214.29" font-family="Inter, sans-serif" font-size="11" font-weight="normal" fill="#64748b" text-anchor="end" dominant-baseline="middle">2</text>
  <line x1="55.00" y1="188.57" x2="65.00" y2="188.57" stroke="#64748b" stroke-width="1"  />
  <text x="45.00" y="188.57" font-family="Inter, sans-serif" font-size="11" font-weight="normal" fill="#64748b" text-anchor="end" dominant-baseline="middle">4</text>
  <line x1="55.00" y1="162.86" x2="65.00" y2="162.86" stroke="#64748b" stroke-width="1"  />
  <text x="45.00" y="162.86" font-family="Inter, sans-serif" font-size="11" font-weight="normal" fill="#64748b" text-anchor="end" dominant-baseline="middle">6</text>
  <line x1="55.00" y1="137.14" x2="65.00" y2="137.14" stroke="#64748b" stroke-width="1"  />
  <text x="45.00" y="137.14" font-family="Inter, sans-serif" font-size="11" font-weight="normal" fill="#64748b" text-anchor="end" dominant-baseline="middle">8</text>
  <line x1="55.00" y1="111.43" x2="65.00" y2="111.43" stroke="#64748b" stroke-width="1"  />
  <text x="45.00" y="111.43" font-family="Inter, sans-serif" font-size="11" font-weight="normal" fill="#64748b" text-anchor="end" dominant-baseline="middle">10</text>
  <line x1="55.00" y1="85.71" x2="65.00" y2="85.71" stroke="#64748b" stroke-width="1"  />
  <text x="45.00" y="85.71" font-family="Inter, sans-serif" font-size="11" font-weight="normal" fill="#64748b" text-anchor="end" dominant-baseline="middle">12</text>
  <line x1="55.00" y1="60.00" x2="65.00" y2="60.00" stroke="#64748b" stroke-width="1"  />
  <text x="45.00" y="60.00" font-family="Inter, sans-serif" font-size="11" font-weight="normal" fill="#64748b" text-anchor="end" dominant-baseline="middle">14</text>
  <text x="48.00" y="255.00" font-family="Inter, sans-serif" font-size="11" font-weight="normal" fill="#64748b" text-anchor="middle" dominant-baseline="middle">O</text>
  <polyline points="60.00,85.71 64.85,87.53 69.70,89.35 74.55,91.17 79.39,92.99 84.24,94.81 89.09,96.62 93.94,98.44 98.79,100.26 103.64,102.08 108.48,103.90 113.33,105.71 118.18,107.53 123.03,109.35 127.88,111.17 132.73,112.99 137.58,114.81 142.42,116.62 147.27,118.44 152.12,120.26 156.97,122.08 161.82,123.90 166.67,125.71 171.52,127.53 176.36,129.35 181.21,131.17 186.06,132.99 190.91,134.81 195.76,136.62 200.61,138.44 205.45,140.26 210.30,142.08 215.15,143.90 220.00,145.71 224.85,147.53 229.70,149.35 234.55,151.17 239.39,152.99 244.24,154.81 249.09,156.62 253.94,158.44 258.79,160.26 263.64,162.08 268.48,163.90 273.33,165.71 278.18,167.53 283.03,169.35 287.88,171.17 292.73,172.99 297.58,174.81 302.42,176.62 307.27,178.44 312.12,180.26 316.97,182.08 321.82,183.90 326.67,185.71 331.52,187.53 336.36,189.35 341.21,191.17 346.06,192.99 350.91,194.81 355.76,196.62 360.61,198.44 365.45,200.26 370.30,202.08 375.15,203.90 380.00,205.71 384.85,207.53 389.70,209.35 394.55,211.17 399.39,212.99 404.24,214.81 409.09,216.62 413.94,218.44 418.79,220.26 423.64,222.08 428.48,223.90 433.33,225.71 438.18,227.53 443.03,229.35 447.88,231.17 452.73,232.99 457.58,234.81 462.42,236.62 467.27,238.44 472.12,240.26 476.97,242.08 481.82,243.90 486.67,245.71 491.52,247.53 496.36,249.35 501.21,251.17 506.06,252.99 510.91,254.81 515.76,256.62 520.61,258.44 525.45,260.26 530.30,262.08 535.15,263.90 540.00,265.71" fill="none" stroke="#3b82f6" stroke-width="3"  stroke-linecap="round" stroke-linejoin="round"/>
</svg>