<svg xmlns="http://www.w3.org/2000/svg" viewBox="0 0 600 300">
  <defs>
        <marker id="arrow-64748b-10" markerWidth="10" markerHeight="10" 
                refX="9.0" refY="5.0" orient="auto"
                markerUnits="userSpaceOnUse">
            <polygon points="0,0 10,5.0 0,10" fill="#64748b"/>
        </marker>

        <marker id="arrow-64748b-10" markerWidth="10" markerHeight="10" 
                refX="9.0" refY="5.0" orient="auto"
                markerUnits="userSpaceOnUse">
            <polygon points="0,0 10,5.0 0,10" fill="#64748b"/>
        </marker></defs>
  <rect x="0.00" y="0.00" width="600.00" height="300.00" fill="white" stroke="none" stroke-width="0" rx="0"/>
  <text x="300.00" y="30.00" font-family="Inter, sans-serif" font-size="16" font-weight="bold" fill="#1e293b" text-anchor="middle" dominant-baseline="middle">Ejercicio 10: Aceleración constante</text>
  <line x1="156.00" y1="240.00" x2="156.00" y2="60.00" stroke="#e2e8f0" stroke-width="0.5"  />
  <line x1="252.00" y1="240.00" x2="252.00" y2="60.00" stroke="#e2e8f0" stroke-width="0.5"  />
  <line x1="348.00" y1="240.00" x2="348.00" y2="60.00" stroke="#e2e8f0" stroke-width="0.5"  />
  <line x1="444.00" y1="240.00" x2="444.00" y2="60.00" stroke="#e2e8f0" stroke-width="0.5"  />
  <line x1="540.00" y1="240.00" x2="540.00" y2="60.00" stroke="#e2e8f0" stroke-width="0.5"  />
  <line x1="60.00" y1="204.00" x2="540.00" y2="204.00" stroke="#e2e8f0" stroke-width="0.5"  />
  <line x1="60.00" y1="168.00" x2="540.00" y2="168.00" stroke="#e2e8f0" stroke-width="0.5"  />
  <line x1="60.00" y1="132.00" x2="540.00" y2="132.00" stroke="#e2e8f0" stroke-width="0.5"  />
  <line x1="60.00" y1="96.00" x2="540.00" y2="96.00" stroke="#e2e8f0" stroke-width="0.5"  />
  <line x1="60.00" y1="60.00" x2="540.00" y2="60.00" stroke="#e2e8f0" stroke-width="0.5"  />
  <line x1="60.00" y1="240.00" x2="540.00" y2="240.00" stroke="#64748b" stroke-width="2"  marker-end="url(#arrow-64748b-10)"/>
  <line x1="60.00" y1="240.00" x2="60.00" y2="60.00" stroke="#64748b" stroke-width="2"  marker-end="url(#arrow-64748b-10)"/>
  <text x="535.00" y="260.00" font-family="Inter, sans-serif" font-size="14" font-weight="bold" fill="#64748b" text-anchor="middle" dominant-baseline="middle">t (s)</text>
  <text x="40.00" y="70.00" font-family="Inter, sans-serif" font-size="14" font-weight="bold" fill="#64748b" text-anchor="middle" dominant-baseline="middle">a (m/s²)</text>
  <line x1="156.00" y1="235.00" x2="156.00" y2="245.00" stroke="#64748b" stroke-width="1"  />
  <text x="156.00" y="258.00" font-family="Inter, sans-serif" font-size="11" font-weight="normal" fill="#64748b" text-anchor="middle" dominant-baseline="middle">1</text>
  <line x1="252.00" y1="235.00" x2="252.00" y2="245.00" stroke="#64748b" stroke-width="1"  />
  <text x="252.00" y="258.00" font-family="Inter, sans-serif" font-size="11" font-weight="normal" fill="#64748b" text-anchor="middle" dominant-baseline="middle">2</text>
  <line x1="348.00" y1="235.00" x2="348.00" y2="245.00" stroke="#64748b" stroke-width="1"  />
  <text x="348.00" y="258.00" font-family="Inter, sans-serif" font-size="11" font-weight="normal" fill="#64748b" text-anchor="middle" dominant-baseline="middle">3</text>
  <line x1="444.00" y1="235.00" x2="444.00" y2="245.00" stroke="#64748b" stroke-width="1"  />
  <text x="444.00" y="258.00" font-family="Inter, sans-serif" font-size="11" font-weight="normal" fill="#64748b" text-anchor="middle" dominant-baseline="middle">4</text>
  <line x1="540.00" y1="235.00" x2="540.00" y2="245.00" stroke="#64748b" stroke-width="1"  />
  <text x="540.00" y="258.00" font-family="Inter, sans-serif" font-size="11" font-weight="normal" fill="#64748b" text-anchor="middle" dominant-baseline="middle">5</text>
  <line x1="55.00" y1="204.00" x2="65.00" y2="204.00" stroke="#64748b" stroke-width="1"  />
  <text x="45.00" y="204.00" font-family="Inter, sans-serif" font-size="11" font-weight="normal" fill="#64748b" text-anchor="end" dominant-baseline="middle">1</text>
  <line x1="55.00" y1="168.00" x2="65.00" y2="168.00" stroke="#64748b" stroke-width="1"  />
  <text x="45.00" y="168.00" font-family="Inter, sans-serif" font-size="11" font-weight="normal" fill="#64748b" text-anchor="end" dominant-baseline="middle">2</text>
  <line x1="55.00" y1="132.00" x2="65.00" y2="132.00" stroke="#64748b" stroke-width="1"  />
  <text x="45.00" y="132.00" font-family="Inter, sans-serif" font-size="11" font-weight="normal" fill="#64748b" text-anchor="end" dominant-baseline="middle">3</text>
  <line x1="55.00" y1="96.00" x2="65.00" y2="96.00" stroke="#64748b" stroke-width="1"  />
  <text x="45.00" y="96.00" font-family="Inter, sans-serif" font-size="11" font-weight="normal" fill="#64748b" text-anchor="end" dominant-baseline="middle">4</text>
  <line x1="55.00" y1="60.00" x2="65.00" y2="60.00" stroke="#64748b" stroke-width="1"  />
  <text x="45.00" y="60.00" font-family="Inter, sans-serif" font-size="11" font-weight="normal" fill="#64748b" text-anchor="end" dominant-baseline="middle">5</text>
  <text x="48.00" y="255.00" font-family="Inter, sans-serif" font-size="11" font-weight="normal" fill="#64748b" text-anchor="middle" dominant-baseline="middle">O</text>
  <polyline points="60.00,132.00 64.85,132.00 69.70,132.00 74.55,132.00 79.39,132.00 84.24,132.00 89.09,132.00 93.94,132.00 98.79,132.00 103.64,132.00 108.48,132.00 113.33,132.00 118.18,132.00 123.03,132.00 127.88,132.00 132.73,132.00 137.58,132.00 142.42,132.00 147.27,132.00 152.12,132.00 156.97,132.00 161.82,132.00 166.67,132.00 171.52,132.00 176.36,132.00 181.21,132.00 186.06,132.00 190.91,132.00 195.76,132.00 200.61,132.00 205.45,132.00 210.30,132.00 215.15,132.00 220.00,132.00 224.85,132.00 229.70,132.00 234.55,132.00 239.39,132.00 244.24,132.00 249.09,132.00 253.94,132.00 258.79,132.00 263.64,132.00 268.48,132.00 273.33,132.00 278.18,132.00 283.03,132.00 287.88,132.00 292.73,132.00 297.58,132.00 302.42,132.00 307.27,132.00 312.12,132.00 316.97,132.00 321.82,132.00 326.67,132.00 331.52,132.00 336.36,132.00 341.21,132.00 346.06,132.00 350.91,132.00 355.76,132.00 360.61,132.00 365.45,132.00 370.30,132.00 375.15,132.00 380.00,132.00 384.85,132.00 389.70,132.00 394.55,132.00 399.39,132.00 404.24,132.00 409.09,132.00 413.94,132.00 418.79,132.00 423.64,132.00 428.48,132.00 433.33,132.00 438.18,132.00 443.03,132.00 447.88,132.00 452.73,132.00 457.58,132.00 462.42,132.00 467.27,132.00 472.12,132.00 476.97,132.00 481.82,132.00 486.67,132.00 491.52,132.00 496.36,132.00 501.21,132.00 506.06,132.00 510.91,132.00 515.76,132.00 520.61,132.00 525.45,132.00 530.30,132.00 535.15,132.00 540.00,132.00" fill="none" stroke="#ef4444" stroke-width="3"  stroke-linecap="round" stroke-linejoin="round"/>
</svg>