<svg xmlns="http://www.w3.org/2000/svg" viewBox="0 0 600 300">
  <defs>
        <marker id="arrow-64748b-10" markerWidth="10" markerHeight="10" 
                refX="9.0" refY="5.0" orient="auto"
                markerUnits="userSpaceOnUse">
            <polygon points="0,0 10,5.0 0,10" fill="#64748b"/>
        </marker>

        <marker id="arrow-64748b-10" markerWidth="10" markerHeight="10" 
                refX="9.0" refY="5.0" orient="auto"
                markerUnits="userSpaceOnUse">
            <polygon points="0,0 10,5.0 0,10" fill="#64748b"/>
        </marker></defs>
  <rect x="0.00" y="0.00" width="600.00" height="300.00" fill="white" stroke="none" stroke-width="0" rx="0"/>
  <text x="300.00" y="30.00" font-family="Inter, sans-serif" font-size="16" font-weight="bold" fill="#1e293b" text-anchor="middle" dominant-baseline="middle">Ejercicio 9: El encuentro</text>
  <line x1="220.00" y1="240.00" x2="220.00" y2="60.00" stroke="#e2e8f0" stroke-width="0.5"  />
  <line x1="380.00" y1="240.00" x2="380.00" y2="60.00" stroke="#e2e8f0" stroke-width="0.5"  />
  <line x1="540.00" y1="240.00" x2="540.00" y2="60.00" stroke="#e2e8f0" stroke-width="0.5"  />
  <line x1="60.00" y1="214.29" x2="540.00" y2="214.29" stroke="#e2e8f0" stroke-width="0.5"  />
  <line x1="60.00" y1="188.57" x2="540.00" y2="188.57" stroke="#e2e8f0" stroke-width="0.5"  />
  <line x1="60.00" y1="162.86" x2="540.00" y2="162.86" stroke="#e2e8f0" stroke-width="0.5"  />
  <line x1="60.00" y1="137.14" x2="540.00" y2="137.14" stroke="#e2e8f0" stroke-width="0.5"  />
  <line x1="60.00" y1="111.43" x2="540.00" y2="111.43" stroke="#e2e8f0" stroke-width="0.5"  />
  <line x1="60.00" y1="85.71" x2="540.00" y2="85.71" stroke="#e2e8f0" stroke-width="0.5"  />
  <line x1="60.00" y1="60.00" x2="540.00" y2="60.00" stroke="#e2e8f0" stroke-width="0.5"  />
  <line x1="60.00" y1="240.00" x2="540.00" y2="240.00" stroke="#64748b" stroke-width="2"  marker-end="url(#arrow-64748b-10)"/>
  <line x1="60.00" y1="240.00" x2="60.00" y2="60.00" stroke="#64748b" stroke-width="2"  marker-end="url(#arrow-64748b-10)"/>
  <text x="535.00" y="260.00" font-family="Inter, sans-serif" font-size="14" font-weight="bold" fill="#64748b" text-anchor="middle" dominant-baseline="middle">t (s)</text>
  <text x="40.00" y="70.00" font-family="Inter, sans-serif" font-size="14" font-weight="bold" fill="#64748b" text-anchor="middle" dominant-baseline="middle">x (m)</text>
  <line x1="220.00" y1="235.00" x2="220.00" y2="245.00" stroke="#64748b" stroke-width="1"  />
  <text x="220.00" y="258.00" font-family="Inter, sans-serif" font-size="11" font-weight="normal" fill="#64748b" text-anchor="middle" dominant-baseline="middle">2</text>
  <line x1="380.00" y1="235.00" x2="380.00" y2="245.00" stroke="#64748b" stroke-width="1"  />
  <text x="380.00" y="258.00" font-family="Inter, sans-serif" font-size="11" font-weight="normal" fill="#64748b" text-anchor="middle" dominant-baseline="middle">4</text>
  <line x1="540.00" y1="235.00" x2="540.00" y2="245.00" stroke="#64748b" stroke-width="1"  />
  <text x="540.00" y="258.00" font-family="Inter, sans-serif" font-size="11" font-weight="normal" fill="#64748b" text-anchor="middle" dominant-baseline="middle">6</text>
  <line x1="55.00" y1="214.29" x2="65.00" y2="214.29" stroke="#64748b" stroke-width="1"  />
  <text x="45.00" y="214.29" font-family="Inter, sans-serif" font-size="11" font-weight="normal" fill="#64748b" text-anchor="end" dominant-baseline="middle">2</text>
  <line x1="55.00" y1="188.57" x2="65.00" y2="188.57" stroke="#64748b" stroke-width="1"  />
  <text x="45.00" y="188.57" font-family="Inter, sans-serif" font-size="11" font-weight="normal" fill="#64748b" text-anchor="end" dominant-baseline="middle">4</text>
  <line x1="55.00" y1="162.86" x2="65.00" y2="162.86" stroke="#64748b" stroke-width="1"  />
  <text x="45.00" y="162.86" font-family="Inter, sans-serif" font-size="11" font-weight="normal" fill="#64748b" text-anchor="end" dominant-baseline="middle">6</text>
  <line x1="55.00" y1="137.14" x2="65.00" y2="137.14" stroke="#64748b" stroke-width="1"  />
  <text x="45.00" y="137.14" font-family="Inter, sans-serif" font-size="11" font-weight="normal" fill="#64748b" text-anchor="end" dominant-baseline="middle">8</text>
  <line x1="55.00" y1="111.43" x2="65.00" y2="111.43" stroke="#64748b" stroke-width="1"  />
  <text x="45.00" y="111.43" font-family="Inter, sans-serif" font-size="11" font-weight="normal" fill="#64748b" text-anchor="end" dominant-baseline="middle">10</text>
  <line x1="55.00" y1="85.71" x2="65.00" y2="85.71" stroke="#64748b" stroke-width="1"  />
  <text x="45.00" y="85.71" font-family="Inter, sans-serif" font-size="11" font-weight="normal" fill="#64748b" text-anchor="end" dominant-baseline="middle">12</text>
  <line x1="55.00" y1="60.00" x2="65.00" y2="60.00" stroke="#64748b" stroke-width="1"  />
  <text x="45.00" y="60.00" font-family="Inter, sans-serif" font-size="11" font-weight="normal" fill="#64748b" text-anchor="end" dominant-baseline="middle">14</text>
  <text x="48.00" y="255.00" font-family="Inter, sans-serif" font-size="11" font-weight="normal" fill="#64748b" text-anchor="middle" dominant-baseline="middle">O</text>
  <polyline points="60.00,240.00 64.85,238.44 69.70,236.88 74.55,235.32 79.39,233.77 84.24,232.21 89.09,230.65 93.94,229.09 98.79,227.53 103.64,225.97 108.48,224.42 113.33,222.86 118.18,221.30 123.03,219.74 127.88,218.18 132.73,216.62 137.58,215.06 142.42,213.51 147.27,211.95 152.12,210.39 156.97,208.83 161.82,207.27 166.67,205.71 171.52,204.16 176.36,202.60 181.21,201.04 186.06,199.48 190.91,197.92 195.76,196.36 200.61,194.81 205.45,193.25 210.30,191.69 215.15,190.13 220.00,188.57 224.85,187.01 229.70,185.45 234.55,183.90 239.39,182.34 244.24,180.78 249.09,179.22 253.94,177.66 258.79,176.10 263.64,174.55 268.48,172.99 273.33,171.43 278.18,169.87 283.03,168.31 287.88,166.75 292.73,165.19 297.58,163.64 302.42,162.08 307.27,160.52 312.12,158.96 316.97,157.40 321.82,155.84 326.67,154.29 331.52,152.73 336.36,151.17 341.21,149.61 346.06,148.05 350.91,146.49 355.76,144.94 360.61,143.38 365.45,141.82 370.30,140.26 375.15,138.70 380.00,137.14 384.85,135.58 389.70,134.03 394.55,132.47 399.39,130.91 404.24,129.35 409.09,127.79 413.94,126.23 418.79,124.68 423.64,123.12 428.48,121.56 433.33,120.00 438.18,118.44 443.03,116.88 447.88,115.32 452.73,113.77 457.58,112.21 462.42,110.65 467.27,109.09 472.12,107.53 476.97,105.97 481.82,104.42 486.67,102.86 491.52,101.30 496.36,99.74 501.21,98.18 506.06,96.62 510.91,95.06 515.76,93.51 520.61,91.95 525.45,90.39 530.30,88.83 535.15,87.27 540.00,85.71" fill="none" stroke="#3b82f6" stroke-width="3"  stroke-linecap="round" stroke-linejoin="round"/>
  <polyline points="60.00,85.71 64.85,86.49 69.70,87.27 74.55,88.05 79.39,88.83 84.24,89.61 89.09,90.39 93.94,91.17 98.79,91.95 103.64,92.73 108.48,93.51 113.33,94.29 118.18,95.06 123.03,95.84 127.88,96.62 132.73,97.40 137.58,98.18 142.42,98.96 147.27,99.74 152.12,100.52 156.97,101.30 161.82,102.08 166.67,102.86 171.52,103.64 176.36,104.42 181.21,105.19 186.06,105.97 190.91,106.75 195.76,107.53 200.61,108.31 205.45,109.09 210.30,109.87 215.15,110.65 220.00,111.43 224.85,112.21 229.70,112.99 234.55,113.77 239.39,114.55 244.24,115.32 249.09,116.10 253.94,116.88 258.79,117.66 263.64,118.44 268.48,119.22 273.33,120.00 278.18,120.78 283.03,121.56 287.88,122.34 292.73,123.12 297.58,123.90 302.42,124.68 307.27,125.45 312.12,126.23 316.97,127.01 321.82,127.79 326.67,128.57 331.52,129.35 336.36,130.13 341.21,130.91 346.06,131.69 350.91,132.47 355.76,133.25 360.61,134.03 365.45,134.81 370.30,135.58 375.15,136.36 380.00,137.14 384.85,137.92 389.70,138.70 394.55,139.48 399.39,140.26 404.24,141.04 409.09,141.82 413.94,142.60 418.79,143.38 423.64,144.16 428.48,144.94 433.33,145.71 438.18,146.49 443.03,147.27 447.88,148.05 452.73,148.83 457.58,149.61 462.42,150.39 467.27,151.17 472.12,151.95 476.97,152.73 481.82,153.51 486.67,154.29 491.52,155.06 496.36,155.84 501.21,156.62 506.06,157.40 510.91,158.18 515.76,158.96 520.61,159.74 525.45,160.52 530.30,161.30 535.15,162.08 540.00,162.86" fill="none" stroke="#22c55e" stroke-width="3"  stroke-linecap="round" stroke-linejoin="round"/>
  <rect x="80.00" y="60.00" width="160.00" height="70.00" fill="white" stroke="#e2e8f0" stroke-width="0" rx="8"/>
  <line x1="95.00" y1="80.00" x2="125.00" y2="80.00" stroke="#3b82f6" stroke-width="3"  />
  <text x="135.00" y="84.00" font-family="Inter, sans-serif" font-size="11" font-weight="normal" fill="#1e293b" text-anchor="start" dominant-baseline="middle">Corredor A</text>
  <line x1="95.00" y1="100.00" x2="125.00" y2="100.00" stroke="#22c55e" stroke-width="3"  />
  <text x="135.00" y="104.00" font-family="Inter, sans-serif" font-size="11" font-weight="normal" fill="#1e293b" text-anchor="start" dominant-baseline="middle">Corredor B</text>
</svg>