<svg xmlns="http://www.w3.org/2000/svg" viewBox="0 0 600 300">
  <defs>
        <marker id="arrow-64748b-10" markerWidth="10" markerHeight="10" 
                refX="9.0" refY="5.0" orient="auto"
                markerUnits="userSpaceOnUse">
            <polygon points="0,0 10,5.0 0,10" fill="#64748b"/>
        </marker>

        <marker id="arrow-64748b-10" markerWidth="10" markerHeight="10" 
                refX="9.0" refY="5.0" orient="auto"
                markerUnits="userSpaceOnUse">
            <polygon points="0,0 10,5.0 0,10" fill="#64748b"/>
        </marker></defs>
  <rect x="0.00" y="0.00" width="600.00" height="300.00" fill="white" stroke="none" stroke-width="0" rx="0"/>
  <text x="300.00" y="30.00" font-family="Inter, sans-serif" font-size="16" font-weight="bold" fill="#1e293b" text-anchor="middle" dominant-baseline="middle">Ejercicio 5: Comparación</text>
  <line x1="60.00" y1="205.38" x2="540.00" y2="205.38" stroke="#e2e8f0" stroke-width="0.5"  />
  <line x1="60.00" y1="170.77" x2="540.00" y2="170.77" stroke="#e2e8f0" stroke-width="0.5"  />
  <line x1="60.00" y1="136.15" x2="540.00" y2="136.15" stroke="#e2e8f0" stroke-width="0.5"  />
  <line x1="60.00" y1="101.54" x2="540.00" y2="101.54" stroke="#e2e8f0" stroke-width="0.5"  />
  <line x1="60.00" y1="66.92" x2="540.00" y2="66.92" stroke="#e2e8f0" stroke-width="0.5"  />
  <line x1="60.00" y1="240.00" x2="540.00" y2="240.00" stroke="#64748b" stroke-width="2"  marker-end="url(#arrow-64748b-10)"/>
  <line x1="60.00" y1="240.00" x2="60.00" y2="60.00" stroke="#64748b" stroke-width="2"  marker-end="url(#arrow-64748b-10)"/>
  <text x="535.00" y="260.00" font-family="Inter, sans-serif" font-size="14" font-weight="bold" fill="#64748b" text-anchor="middle" dominant-baseline="middle">t (s)</text>
  <text x="40.00" y="70.00" font-family="Inter, sans-serif" font-size="14" font-weight="bold" fill="#64748b" text-anchor="middle" dominant-baseline="middle">x (m)</text>
  <line x1="55.00" y1="205.38" x2="65.00" y2="205.38" stroke="#64748b" stroke-width="1"  />
  <text x="45.00" y="205.38" font-family="Inter, sans-serif" font-size="11" font-weight="normal" fill="#64748b" text-anchor="end" dominant-baseline="middle">5</text>
  <line x1="55.00" y1="170.77" x2="65.00" y2="170.77" stroke="#64748b" stroke-width="1"  />
  <text x="45.00" y="170.77" font-family="Inter, sans-serif" font-size="11" font-weight="normal" fill="#64748b" text-anchor="end" dominant-baseline="middle">10</text>
  <line x1="55.00" y1="136.15" x2="65.00" y2="136.15" stroke="#64748b" stroke-width="1"  />
  <text x="45.00" y="136.15" font-family="Inter, sans-serif" font-size="11" font-weight="normal" fill="#64748b" text-anchor="end" dominant-baseline="middle">15</text>
  <line x1="55.00" y1="101.54" x2="65.00" y2="101.54" stroke="#64748b" stroke-width="1"  />
  <text x="45.00" y="101.54" font-family="Inter, sans-serif" font-size="11" font-weight="normal" fill="#64748b" text-anchor="end" dominant-baseline="middle">20</text>
  <line x1="55.00" y1="66.92" x2="65.00" y2="66.92" stroke="#64748b" stroke-width="1"  />
  <text x="45.00" y="66.92" font-family="Inter, sans-serif" font-size="11" font-weight="normal" fill="#64748b" text-anchor="end" dominant-baseline="middle">25</text>
  <text x="48.00" y="255.00" font-family="Inter, sans-serif" font-size="11" font-weight="normal" fill="#64748b" text-anchor="middle" dominant-baseline="middle">O</text>
  <polyline points="60.00,240.00 64.85,239.37 69.70,238.74 74.55,238.11 79.39,237.48 84.24,236.85 89.09,236.22 93.94,235.59 98.79,234.97 103.64,234.34 108.48,233.71 113.33,233.08 118.18,232.45 123.03,231.82 127.88,231.19 132.73,230.56 137.58,229.93 142.42,229.30 147.27,228.67 152.12,228.04 156.97,227.41 161.82,226.78 166.67,226.15 171.52,225.52 176.36,224.90 181.21,224.27 186.06,223.64 190.91,223.01 195.76,222.38 200.61,221.75 205.45,221.12 210.30,220.49 215.15,219.86 220.00,219.23 224.85,218.60 229.70,217.97 234.55,217.34 239.39,216.71 244.24,216.08 249.09,215.45 253.94,214.83 258.79,214.20 263.64,213.57 268.48,212.94 273.33,212.31 278.18,211.68 283.03,211.05 287.88,210.42 292.73,209.79 297.58,209.16 302.42,208.53 307.27,207.90 312.12,207.27 316.97,206.64 321.82,206.01 326.67,205.38 331.52,204.76 336.36,204.13 341.21,203.50 346.06,202.87 350.91,202.24 355.76,201.61 360.61,200.98 365.45,200.35 370.30,199.72 375.15,199.09 380.00,198.46 384.85,197.83 389.70,197.20 394.55,196.57 399.39,195.94 404.24,195.31 409.09,194.69 413.94,194.06 418.79,193.43 423.64,192.80 428.48,192.17 433.33,191.54 438.18,190.91 443.03,190.28 447.88,189.65 452.73,189.02 457.58,188.39 462.42,187.76 467.27,187.13 472.12,186.50 476.97,185.87 481.82,185.24 486.67,184.62 491.52,183.99 496.36,183.36 501.21,182.73 506.06,182.10 510.91,181.47 515.76,180.84 520.61,180.21 525.45,179.58 530.30,178.95 535.15,178.32 540.00,177.69" fill="none" stroke="#3b82f6" stroke-width="3"  stroke-linecap="round" stroke-linejoin="round"/>
  <polyline points="60.00,240.00 64.85,238.74 69.70,237.48 74.55,236.22 79.39,234.97 84.24,233.71 89.09,232.45 93.94,231.19 98.79,229.93 103.64,228.67 108.48,227.41 113.33,226.15 118.18,224.90 123.03,223.64 127.88,222.38 132.73,221.12 137.58,219.86 142.42,218.60 147.27,217.34 152.12,216.08 156.97,214.83 161.82,213.57 166.67,212.31 171.52,211.05 176.36,209.79 181.21,208.53 186.06,207.27 190.91,206.01 195.76,204.76 200.61,203.50 205.45,202.24 210.30,200.98 215.15,199.72 220.00,198.46 224.85,197.20 229.70,195.94 234.55,194.69 239.39,193.43 244.24,192.17 249.09,190.91 253.94,189.65 258.79,188.39 263.64,187.13 268.48,185.87 273.33,184.62 278.18,183.36 283.03,182.10 287.88,180.84 292.73,179.58 297.58,178.32 302.42,177.06 307.27,175.80 312.12,174.55 316.97,173.29 321.82,172.03 326.67,170.77 331.52,169.51 336.36,168.25 341.21,166.99 346.06,165.73 350.91,164.48 355.76,163.22 360.61,161.96 365.45,160.70 370.30,159.44 375.15,158.18 380.00,156.92 384.85,155.66 389.70,154.41 394.55,153.15 399.39,151.89 404.24,150.63 409.09,149.37 413.94,148.11 418.79,146.85 423.64,145.59 428.48,144.34 433.33,143.08 438.18,141.82 443.03,140.56 447.88,139.30 452.73,138.04 457.58,136.78 462.42,135.52 467.27,134.27 472.12,133.01 476.97,131.75 481.82,130.49 486.67,129.23 491.52,127.97 496.36,126.71 501.21,125.45 506.06,124.20 510.91,122.94 515.76,121.68 520.61,120.42 525.45,119.16 530.30,117.90 535.15,116.64 540.00,115.38" fill="none" stroke="#22c55e" stroke-width="3"  stroke-linecap="round" stroke-linejoin="round"/>
  <polyline points="60.00,240.00 64.85,238.11 69.70,236.22 74.55,234.34 79.39,232.45 84.24,230.56 89.09,228.67 93.94,226.78 98.79,224.90 103.64,223.01 108.48,221.12 113.33,219.23 118.18,217.34 123.03,215.45 127.88,213.57 132.73,211.68 137.58,209.79 142.42,207.90 147.27,206.01 152.12,204.13 156.97,202.24 161.82,200.35 166.67,198.46 171.52,196.57 176.36,194.69 181.21,192.80 186.06,190.91 190.91,189.02 195.76,187.13 200.61,185.24 205.45,183.36 210.30,181.47 215.15,179.58 220.00,177.69 224.85,175.80 229.70,173.92 234.55,172.03 239.39,170.14 244.24,168.25 249.09,166.36 253.94,164.48 258.79,162.59 263.64,160.70 268.48,158.81 273.33,156.92 278.18,155.03 283.03,153.15 287.88,151.26 292.73,149.37 297.58,147.48 302.42,145.59 307.27,143.71 312.12,141.82 316.97,139.93 321.82,138.04 326.67,136.15 331.52,134.27 336.36,132.38 341.21,130.49 346.06,128.60 350.91,126.71 355.76,124.83 360.61,122.94 365.45,121.05 370.30,119.16 375.15,117.27 380.00,115.38 384.85,113.50 389.70,111.61 394.55,109.72 399.39,107.83 404.24,105.94 409.09,104.06 413.94,102.17 418.79,100.28 423.64,98.39 428.48,96.50 433.33,94.62 438.18,92.73 443.03,90.84 447.88,88.95 452.73,87.06 457.58,85.17 462.42,83.29 467.27,81.40 472.12,79.51 476.97,77.62 481.82,75.73 486.67,73.85 491.52,71.96 496.36,70.07 501.21,68.18 506.06,66.29 510.91,64.41 515.76,62.52 520.61,60.63 525.45,58.74 530.30,56.85 535.15,54.97 540.00,53.08" fill="none" stroke="#ef4444" stroke-width="3"  stroke-linecap="round" stroke-linejoin="round"/>
  <rect x="80.00" y="60.00" width="160.00" height="90.00" fill="white" stroke="#e2e8f0" stroke-width="0" rx="8"/>
  <line x1="95.00" y1="80.00" x2="125.00" y2="80.00" stroke="#3b82f6" stroke-width="3"  />
  <text x="135.00" y="84.00" font-family="Inter, sans-serif" font-size="11" font-weight="normal" fill="#1e293b" text-anchor="start" dominant-baseline="middle">Objeto A</text>
  <line x1="95.00" y1="100.00" x2="125.00" y2="100.00" stroke="#22c55e" stroke-width="3"  />
  <text x="135.00" y="104.00" font-family="Inter, sans-serif" font-size="11" font-weight="normal" fill="#1e293b" text-anchor="start" dominant-baseline="middle">Objeto B</text>
  <line x1="95.00" y1="120.00" x2="125.00" y2="120.00" stroke="#ef4444" stroke-width="3"  />
  <text x="135.00" y="124.00" font-family="Inter, sans-serif" font-size="11" font-weight="normal" fill="#1e293b" text-anchor="start" dominant-baseline="middle">Objeto C</text>
</svg>