<svg xmlns="http://www.w3.org/2000/svg" viewBox="0 0 600 300">
  <defs>
        <marker id="arrow-64748b-10" markerWidth="10" markerHeight="10" 
                refX="9.0" refY="5.0" orient="auto"
                markerUnits="userSpaceOnUse">
            <polygon points="0,0 10,5.0 0,10" fill="#64748b"/>
        </marker>

        <marker id="arrow-64748b-10" markerWidth="10" markerHeight="10" 
                refX="9.0" refY="5.0" orient="auto"
                markerUnits="userSpaceOnUse">
            <polygon points="0,0 10,5.0 0,10" fill="#64748b"/>
        </marker></defs>
  <rect x="0.00" y="0.00" width="600.00" height="300.00" fill="white" stroke="none" stroke-width="0" rx="0"/>
  <text x="300.00" y="30.00" font-family="Inter, sans-serif" font-size="16" font-weight="bold" fill="#1e293b" text-anchor="middle" dominant-baseline="middle">Ejercicio 2: Carrera de autos</text>
  <line x1="273.33" y1="240.00" x2="273.33" y2="60.00" stroke="#e2e8f0" stroke-width="0.5"  />
  <line x1="486.67" y1="240.00" x2="486.67" y2="60.00" stroke="#e2e8f0" stroke-width="0.5"  />
  <line x1="60.00" y1="220.00" x2="540.00" y2="220.00" stroke="#e2e8f0" stroke-width="0.5"  />
  <line x1="60.00" y1="200.00" x2="540.00" y2="200.00" stroke="#e2e8f0" stroke-width="0.5"  />
  <line x1="60.00" y1="180.00" x2="540.00" y2="180.00" stroke="#e2e8f0" stroke-width="0.5"  />
  <line x1="60.00" y1="160.00" x2="540.00" y2="160.00" stroke="#e2e8f0" stroke-width="0.5"  />
  <line x1="60.00" y1="140.00" x2="540.00" y2="140.00" stroke="#e2e8f0" stroke-width="0.5"  />
  <line x1="60.00" y1="120.00" x2="540.00" y2="120.00" stroke="#e2e8f0" stroke-width="0.5"  />
  <line x1="60.00" y1="100.00" x2="540.00" y2="100.00" stroke="#e2e8f0" stroke-width="0.5"  />
  <line x1="60.00" y1="80.00" x2="540.00" y2="80.00" stroke="#e2e8f0" stroke-width="0.5"  />
  <line x1="60.00" y1="60.00" x2="540.00" y2="60.00" stroke="#e2e8f0" stroke-width="0.5"  />
  <line x1="60.00" y1="240.00" x2="540.00" y2="240.00" stroke="#64748b" stroke-width="2"  marker-end="url(#arrow-64748b-10)"/>
  <line x1="60.00" y1="240.00" x2="60.00" y2="60.00" stroke="#64748b" stroke-width="2"  marker-end="url(#arrow-64748b-10)"/>
  <text x="535.00" y="260.00" font-family="Inter, sans-serif" font-size="14" font-weight="bold" fill="#64748b" text-anchor="middle" dominant-baseline="middle">t (s)</text>
  <text x="40.00" y="70.00" font-family="Inter, sans-serif" font-size="14" font-weight="bold" fill="#64748b" text-anchor="middle" dominant-baseline="middle">v (m/s)</text>
  <line x1="273.33" y1="235.00" x2="273.33" y2="245.00" stroke="#64748b" stroke-width="1"  />
  <text x="273.33" y="258.00" font-family="Inter, sans-serif" font-size="11" font-weight="normal" fill="#64748b" text-anchor="middle" dominant-baseline="middle">2</text>
  <line x1="486.67" y1="235.00" x2="486.67" y2="245.00" stroke="#64748b" stroke-width="1"  />
  <text x="486.67" y="258.00" font-family="Inter, sans-serif" font-size="11" font-weight="normal" fill="#64748b" text-anchor="middle" dominant-baseline="middle">4</text>
  <line x1="55.00" y1="220.00" x2="65.00" y2="220.00" stroke="#64748b" stroke-width="1"  />
  <text x="45.00" y="220.00" font-family="Inter, sans-serif" font-size="11" font-weight="normal" fill="#64748b" text-anchor="end" dominant-baseline="middle">2</text>
  <line x1="55.00" y1="200.00" x2="65.00" y2="200.00" stroke="#64748b" stroke-width="1"  />
  <text x="45.00" y="200.00" font-family="Inter, sans-serif" font-size="11" font-weight="normal" fill="#64748b" text-anchor="end" dominant-baseline="middle">4</text>
  <line x1="55.00" y1="180.00" x2="65.00" y2="180.00" stroke="#64748b" stroke-width="1"  />
  <text x="45.00" y="180.00" font-family="Inter, sans-serif" font-size="11" font-weight="normal" fill="#64748b" text-anchor="end" dominant-baseline="middle">6</text>
  <line x1="55.00" y1="160.00" x2="65.00" y2="160.00" stroke="#64748b" stroke-width="1"  />
  <text x="45.00" y="160.00" font-family="Inter, sans-serif" font-size="11" font-weight="normal" fill="#64748b" text-anchor="end" dominant-baseline="middle">8</text>
  <line x1="55.00" y1="140.00" x2="65.00" y2="140.00" stroke="#64748b" stroke-width="1"  />
  <text x="45.00" y="140.00" font-family="Inter, sans-serif" font-size="11" font-weight="normal" fill="#64748b" text-anchor="end" dominant-baseline="middle">10</text>
  <line x1="55.00" y1="120.00" x2="65.00" y2="120.00" stroke="#64748b" stroke-width="1"  />
  <text x="45.00" y="120.00" font-family="Inter, sans-serif" font-size="11" font-weight="normal" fill="#64748b" text-anchor="end" dominant-baseline="middle">12</text>
  <line x1="55.00" y1="100.00" x2="65.00" y2="100.00" stroke="#64748b" stroke-width="1"  />
  <text x="45.00" y="100.00" font-family="Inter, sans-serif" font-size="11" font-weight="normal" fill="#64748b" text-anchor="end" dominant-baseline="middle">14</text>
  <line x1="55.00" y1="80.00" x2="65.00" y2="80.00" stroke="#64748b" stroke-width="1"  />
  <text x="45.00" y="80.00" font-family="Inter, sans-serif" font-size="11" font-weight="normal" fill="#64748b" text-anchor="end" dominant-baseline="middle">16</text>
  <line x1="55.00" y1="60.00" x2="65.00" y2="60.00" stroke="#64748b" stroke-width="1"  />
  <text x="45.00" y="60.00" font-family="Inter, sans-serif" font-size="11" font-weight="normal" fill="#64748b" text-anchor="end" dominant-baseline="middle">18</text>
  <text x="48.00" y="255.00" font-family="Inter, sans-serif" font-size="11" font-weight="normal" fill="#64748b" text-anchor="middle" dominant-baseline="middle">O</text>
  <polygon points="60.00,240.00 486.67,240.00 486.67,160.00 60.00,160.00" fill="#3b82f6" stroke="none" stroke-width="2" fill-opacity="0.2"/>
  <polygon points="60.00,240.00 486.67,240.00 486.67,80.00" fill="#22c55e" stroke="none" stroke-width="2" fill-opacity="0.2"/>
  <polyline points="60.00,160.00 64.85,160.00 69.70,160.00 74.55,160.00 79.39,160.00 84.24,160.00 89.09,160.00 93.94,160.00 98.79,160.00 103.64,160.00 108.48,160.00 113.33,160.00 118.18,160.00 123.03,160.00 127.88,160.00 132.73,160.00 137.58,160.00 142.42,160.00 147.27,160.00 152.12,160.00 156.97,160.00 161.82,160.00 166.67,160.00 171.52,160.00 176.36,160.00 181.21,160.00 186.06,160.00 190.91,160.00 195.76,160.00 200.61,160.00 205.45,160.00 210.30,160.00 215.15,160.00 220.00,160.00 224.85,160.00 229.70,160.00 234.55,160.00 239.39,160.00 244.24,160.00 249.09,160.00 253.94,160.00 258.79,160.00 263.64,160.00 268.48,160.00 273.33,160.00 278.18,160.00 283.03,160.00 287.88,160.00 292.73,160.00 297.58,160.00 302.42,160.00 307.27,160.00 312.12,160.00 316.97,160.00 321.82,160.00 326.67,160.00 331.52,160.00 336.36,160.00 341.21,160.00 346.06,160.00 350.91,160.00 355.76,160.00 360.61,160.00 365.45,160.00 370.30,160.00 375.15,160.00 380.00,160.00 384.85,160.00 389.70,160.00 394.55,160.00 399.39,160.00 404.24,160.00 409.09,160.00 413.94,160.00 418.79,160.00 423.64,160.00 428.48,160.00 433.33,160.00 438.18,160.00 443.03,160.00 447.88,160.00 452.73,160.00 457.58,160.00 462.42,160.00 467.27,160.00 472.12,160.00 476.97,160.00 481.82,160.00 486.67,160.00 491.52,160.00 496.36,160.00 501.21,160.00 506.06,160.00 510.91,160.00 515.76,160.00 520.61,160.00 525.45,160.00 530.30,160.00 535.15,160.00 540.00,160.00" fill="none" stroke="#3b82f6" stroke-width="3"  stroke-linecap="round" stroke-linejoin="round"/>
  <polyline points="60.00,240.00 64.85,238.18 69.70,236.36 74.55,234.55 79.39,232.73 84.24,230.91 89.09,229.09 93.94,227.27 98.79,225.45 103.64,223.64 108.48,221.82 113.33,220.00 118.18,218.18 123.03,216.36 127.88,214.55 132.73,212.73 137.58,210.91 142.42,209.09 147.27,207.27 152.12,205.45 156.97,203.64 161.82,201.82 166.67,200.00 171.52,198.18 176.36,196.36 181.21,194.55 186.06,192.73 190.91,190.91 195.76,189.09 200.61,187.27 205.45,185.45 210.30,183.64 215.15,181.82 220.00,180.00 224.85,178.18 229.70,176.36 234.55,174.55 239.39,172.73 244.24,170.91 249.09,169.09 253.94,167.27 258.79,165.45 263.64,163.64 268.48,161.82 273.33,160.00 278.18,158.18 283.03,156.36 287.88,154.55 292.73,152.73 297.58,150.91 302.42,149.09 307.27,147.27 312.12,145.45 316.97,143.64 321.82,141.82 326.67,140.00 331.52,138.18 336.36,136.36 341.21,134.55 346.06,132.73 350.91,130.91 355.76,129.09 360.61,127.27 365.45,125.45 370.30,123.64 375.15,121.82 380.00,120.00 384.85,118.18 389.70,116.36 394.55,114.55 399.39,112.73 404.24,110.91 409.09,109.09 413.94,107.27 418.79,105.45 423.64,103.64 428.48,101.82 433.33,100.00 438.18,98.18 443.03,96.36 447.88,94.55 452.73,92.73 457.58,90.91 462.42,89.09 467.27,87.27 472.12,85.45 476.97,83.64 481.82,81.82 486.67,80.00 491.52,78.18 496.36,76.36 501.21,74.55 506.06,72.73 510.91,70.91 515.76,69.09 520.61,67.27 525.45,65.45 530.30,63.64 535.15,61.82 540.00,60.00" fill="none" stroke="#22c55e" stroke-width="3"  stroke-linecap="round" stroke-linejoin="round"/>
  <rect x="80.00" y="60.00" width="160.00" height="70.00" fill="white" stroke="#e2e8f0" stroke-width="0" rx="8"/>
  <line x1="95.00" y1="80.00" x2="125.00" y2="80.00" stroke="#3b82f6" stroke-width="3"  />
  <text x="135.00" y="84.00" font-family="Inter, sans-serif" font-size="11" font-weight="normal" fill="#1e293b" text-anchor="start" dominant-baseline="middle">Auto A</text>
  <line x1="95.00" y1="100.00" x2="125.00" y2="100.00" stroke="#22c55e" stroke-width="3"  />
  <text x="135.00" y="104.00" font-family="Inter, sans-serif" font-size="11" font-weight="normal" fill="#1e293b" text-anchor="start" dominant-baseline="middle">Auto B</text>
</svg>