<svg xmlns="http://www.w3.org/2000/svg" viewBox="0 0 600 300">
  <defs>
        <marker id="arrow-64748b-10" markerWidth="10" markerHeight="10" 
                refX="9.0" refY="5.0" orient="auto"
                markerUnits="userSpaceOnUse">
            <polygon points="0,0 10,5.0 0,10" fill="#64748b"/>
        </marker>

        <marker id="arrow-64748b-10" markerWidth="10" markerHeight="10" 
                refX="9.0" refY="5.0" orient="auto"
                markerUnits="userSpaceOnUse">
            <polygon points="0,0 10,5.0 0,10" fill="#64748b"/>
        </marker></defs>
  <rect x="0.00" y="0.00" width="600.00" height="300.00" fill="white" stroke="none" stroke-width="0" rx="0"/>
  <text x="300.00" y="30.00" font-family="Inter, sans-serif" font-size="16" font-weight="bold" fill="#1e293b" text-anchor="middle" dominant-baseline="middle">x vs t</text>
  <line x1="486.67" y1="240.00" x2="486.67" y2="60.00" stroke="#e2e8f0" stroke-width="0.5"  />
  <line x1="60.00" y1="200.00" x2="540.00" y2="200.00" stroke="#e2e8f0" stroke-width="0.5"  />
  <line x1="60.00" y1="160.00" x2="540.00" y2="160.00" stroke="#e2e8f0" stroke-width="0.5"  />
  <line x1="60.00" y1="120.00" x2="540.00" y2="120.00" stroke="#e2e8f0" stroke-width="0.5"  />
  <line x1="60.00" y1="80.00" x2="540.00" y2="80.00" stroke="#e2e8f0" stroke-width="0.5"  />
  <line x1="60.00" y1="240.00" x2="540.00" y2="240.00" stroke="#64748b" stroke-width="2"  marker-end="url(#arrow-64748b-10)"/>
  <line x1="60.00" y1="240.00" x2="60.00" y2="60.00" stroke="#64748b" stroke-width="2"  marker-end="url(#arrow-64748b-10)"/>
  <text x="535.00" y="260.00" font-family="Inter, sans-serif" font-size="14" font-weight="bold" fill="#64748b" text-anchor="middle" dominant-baseline="middle">t (s)</text>
  <text x="40.00" y="70.00" font-family="Inter, sans-serif" font-size="14" font-weight="bold" fill="#64748b" text-anchor="middle" dominant-baseline="middle">x (m)</text>
  <line x1="486.67" y1="235.00" x2="486.67" y2="245.00" stroke="#64748b" stroke-width="1"  />
  <text x="486.67" y="258.00" font-family="Inter, sans-serif" font-size="11" font-weight="normal" fill="#64748b" text-anchor="middle" dominant-baseline="middle">4</text>
  <line x1="55.00" y1="200.00" x2="65.00" y2="200.00" stroke="#64748b" stroke-width="1"  />
  <text x="45.00" y="200.00" font-family="Inter, sans-serif" font-size="11" font-weight="normal" fill="#64748b" text-anchor="end" dominant-baseline="middle">4</text>
  <line x1="55.00" y1="160.00" x2="65.00" y2="160.00" stroke="#64748b" stroke-width="1"  />
  <text x="45.00" y="160.00" font-family="Inter, sans-serif" font-size="11" font-weight="normal" fill="#64748b" text-anchor="end" dominant-baseline="middle">8</text>
  <line x1="55.00" y1="120.00" x2="65.00" y2="120.00" stroke="#64748b" stroke-width="1"  />
  <text x="45.00" y="120.00" font-family="Inter, sans-serif" font-size="11" font-weight="normal" fill="#64748b" text-anchor="end" dominant-baseline="middle">12</text>
  <line x1="55.00" y1="80.00" x2="65.00" y2="80.00" stroke="#64748b" stroke-width="1"  />
  <text x="45.00" y="80.00" font-family="Inter, sans-serif" font-size="11" font-weight="normal" fill="#64748b" text-anchor="end" dominant-baseline="middle">16</text>
  <text x="48.00" y="255.00" font-family="Inter, sans-serif" font-size="11" font-weight="normal" fill="#64748b" text-anchor="middle" dominant-baseline="middle">O</text>
  <polyline points="60.00,240.00 64.85,238.18 69.70,236.36 74.55,234.55 79.39,232.73 84.24,230.91 89.09,229.09 93.94,227.27 98.79,225.45 103.64,223.64 108.48,221.82 113.33,220.00 118.18,218.18 123.03,216.36 127.88,214.55 132.73,212.73 137.58,210.91 142.42,209.09 147.27,207.27 152.12,205.45 156.97,203.64 161.82,201.82 166.67,200.00 171.52,198.18 176.36,196.36 181.21,194.55 186.06,192.73 190.91,190.91 195.76,189.09 200.61,187.27 205.45,185.45 210.30,183.64 215.15,181.82 220.00,180.00 224.85,178.18 229.70,176.36 234.55,174.55 239.39,172.73 244.24,170.91 249.09,169.09 253.94,167.27 258.79,165.45 263.64,163.64 268.48,161.82 273.33,160.00 278.18,158.18 283.03,156.36 287.88,154.55 292.73,152.73 297.58,150.91 302.42,149.09 307.27,147.27 312.12,145.45 316.97,143.64 321.82,141.82 326.67,140.00 331.52,138.18 336.36,136.36 341.21,134.55 346.06,132.73 350.91,130.91 355.76,129.09 360.61,127.27 365.45,125.45 370.30,123.64 375.15,121.82 380.00,120.00 384.85,118.18 389.70,116.36 394.55,114.55 399.39,112.73 404.24,110.91 409.09,109.09 413.94,107.27 418.79,105.45 423.64,103.64 428.48,101.82 433.33,100.00 438.18,98.18 443.03,96.36 447.88,94.55 452.73,92.73 457.58,90.91 462.42,89.09 467.27,87.27 472.12,85.45 476.97,83.64 481.82,81.82 486.67,80.00 491.52,78.18 496.36,76.36 501.21,74.55 506.06,72.73 510.91,70.91 515.76,69.09 520.61,67.27 525.45,65.45 530.30,63.64 535.15,61.82 540.00,60.00" fill="none" stroke="#3b82f6" stroke-width="3"  stroke-linecap="round" stroke-linejoin="round"/>
</svg>