<svg xmlns="http://www.w3.org/2000/svg" viewBox="0 0 600 300">
  <defs>
        <marker id="arrow-64748b-10" markerWidth="10" markerHeight="10" 
                refX="9.0" refY="5.0" orient="auto"
                markerUnits="userSpaceOnUse">
            <polygon points="0,0 10,5.0 0,10" fill="#64748b"/>
        </marker>

        <marker id="arrow-64748b-10" markerWidth="10" markerHeight="10" 
                refX="9.0" refY="5.0" orient="auto"
                markerUnits="userSpaceOnUse">
            <polygon points="0,0 10,5.0 0,10" fill="#64748b"/>
        </marker></defs>
  <rect x="0.00" y="0.00" width="600.00" height="300.00" fill="white" stroke="none" stroke-width="0" rx="0"/>
  <text x="300.00" y="30.00" font-family="Inter, sans-serif" font-size="16" font-weight="bold" fill="#1e293b" text-anchor="middle" dominant-baseline="middle">x vs t</text>
  <line x1="486.67" y1="240.00" x2="486.67" y2="60.00" stroke="#e2e8f0" stroke-width="0.5"  />
  <line x1="60.00" y1="200.00" x2="540.00" y2="200.00" stroke="#e2e8f0" stroke-width="0.5"  />
  <line x1="60.00" y1="160.00" x2="540.00" y2="160.00" stroke="#e2e8f0" stroke-width="0.5"  />
  <line x1="60.00" y1="120.00" x2="540.00" y2="120.00" stroke="#e2e8f0" stroke-width="0.5"  />
  <line x1="60.00" y1="80.00" x2="540.00" y2="80.00" stroke="#e2e8f0" stroke-width="0.5"  />
  <line x1="60.00" y1="240.00" x2="540.00" y2="240.00" stroke="#64748b" stroke-width="2"  marker-end="url(#arrow-64748b-10)"/>
  <line x1="60.00" y1="240.00" x2="60.00" y2="60.00" stroke="#64748b" stroke-width="2"  marker-end="url(#arrow-64748b-10)"/>
  <text x="535.00" y="260.00" font-family="Inter, sans-serif" font-size="14" font-weight="bold" fill="#64748b" text-anchor="middle" dominant-baseline="middle">t (s)</text>
  <text x="40.00" y="70.00" font-family="Inter, sans-serif" font-size="14" font-weight="bold" fill="#64748b" text-anchor="middle" dominant-baseline="middle">x (m)</text>
  <line x1="486.67" y1="235.00" x2="486.67" y2="245.00" stroke="#64748b" stroke-width="1"  />
  <text x="486.67" y="258.00" font-family="Inter, sans-serif" font-size="11" font-weight="normal" fill="#64748b" text-anchor="middle" dominant-baseline="middle">4</text>
  <line x1="55.00" y1="200.00" x2="65.00" y2="200.00" stroke="#64748b" stroke-width="1"  />
  <text x="45.00" y="200.00" font-family="Inter, sans-serif" font-size="11" font-weight="normal" fill="#64748b" text-anchor="end" dominant-baseline="middle">4</text>
  <line x1="55.00" y1="160.00" x2="65.00" y2="160.00" stroke="#64748b" stroke-width="1"  />
  <text x="45.00" y="160.00" font-family="Inter, sans-serif" font-size="11" font-weight="normal" fill="#64748b" text-anchor="end" dominant-baseline="middle">8</text>
  <line x1="55.00" y1="120.00" x2="65.00" y2="120.00" stroke="#64748b" stroke-width="1"  />
  <text x="45.00" y="120.00" font-family="Inter, sans-serif" font-size="11" font-weight="normal" fill="#64748b" text-anchor="end" dominant-baseline="middle">12</text>
  <line x1="55.00" y1="80.00" x2="65.00" y2="80.00" stroke="#64748b" stroke-width="1"  />
  <text x="45.00" y="80.00" font-family="Inter, sans-serif" font-size="11" font-weight="normal" fill="#64748b" text-anchor="end" dominant-baseline="middle">16</text>
  <text x="48.00" y="255.00" font-family="Inter, sans-serif" font-size="11" font-weight="normal" fill="#64748b" text-anchor="middle" dominant-baseline="middle">O</text>
  <polyline points="60.00,240.00 64.85,239.98 69.70,239.92 74.55,239.81 79.39,239.67 84.24,239.48 89.09,239.26 93.94,238.99 98.79,238.68 103.64,238.33 108.48,237.93 113.33,237.50 118.18,237.02 123.03,236.51 127.88,235.95 132.73,235.35 137.58,234.71 142.42,234.03 147.27,233.31 152.12,232.54 156.97,231.74 161.82,230.89 166.67,230.00 171.52,229.07 176.36,228.10 181.21,227.09 186.06,226.03 190.91,224.94 195.76,223.80 200.61,222.62 205.45,221.40 210.30,220.14 215.15,218.84 220.00,217.50 224.85,216.12 229.70,214.69 234.55,213.22 239.39,211.71 244.24,210.17 249.09,208.57 253.94,206.94 258.79,205.27 263.64,203.55 268.48,201.80 273.33,200.00 278.18,198.16 283.03,196.28 287.88,194.36 292.73,192.40 297.58,190.39 302.42,188.35 307.27,186.26 312.12,184.13 316.97,181.96 321.82,179.75 326.67,177.50 331.52,175.21 336.36,172.87 341.21,170.50 346.06,168.08 350.91,165.62 355.76,163.12 360.61,160.58 365.45,158.00 370.30,155.37 375.15,152.71 380.00,150.00 384.85,147.25 389.70,144.46 394.55,141.63 399.39,138.76 404.24,135.85 409.09,132.89 413.94,129.90 418.79,126.86 423.64,123.78 428.48,120.66 433.33,117.50 438.18,114.30 443.03,111.05 447.88,107.77 452.73,104.44 457.58,101.07 462.42,97.67 467.27,94.21 472.12,90.72 476.97,87.19 481.82,83.62 486.67,80.00 491.52,76.34 496.36,72.64 501.21,68.90 506.06,65.12 510.91,61.30 515.76,57.44 520.61,53.53 525.45,49.59 530.30,45.60 535.15,41.57 540.00,37.50" fill="none" stroke="#3b82f6" stroke-width="3"  stroke-linecap="round" stroke-linejoin="round"/>
</svg>