<svg xmlns="http://www.w3.org/2000/svg" viewBox="0 0 600 300">
  <defs>
        <marker id="arrow-64748b-10" markerWidth="10" markerHeight="10" 
                refX="9.0" refY="5.0" orient="auto"
                markerUnits="userSpaceOnUse">
            <polygon points="0,0 10,5.0 0,10" fill="#64748b"/>
        </marker>

        <marker id="arrow-64748b-10" markerWidth="10" markerHeight="10" 
                refX="9.0" refY="5.0" orient="auto"
                markerUnits="userSpaceOnUse">
            <polygon points="0,0 10,5.0 0,10" fill="#64748b"/>
        </marker></defs>
  <rect x="0.00" y="0.00" width="600.00" height="300.00" fill="white" stroke="none" stroke-width="0" rx="0"/>
  <text x="300.00" y="30.00" font-family="Inter, sans-serif" font-size="16" font-weight="bold" fill="#1e293b" text-anchor="middle" dominant-baseline="middle">x vs t</text>
  <line x1="486.67" y1="240.00" x2="486.67" y2="60.00" stroke="#e2e8f0" stroke-width="0.5"  />
  <line x1="60.00" y1="200.00" x2="540.00" y2="200.00" stroke="#e2e8f0" stroke-width="0.5"  />
  <line x1="60.00" y1="160.00" x2="540.00" y2="160.00" stroke="#e2e8f0" stroke-width="0.5"  />
  <line x1="60.00" y1="120.00" x2="540.00" y2="120.00" stroke="#e2e8f0" stroke-width="0.5"  />
  <line x1="60.00" y1="80.00" x2="540.00" y2="80.00" stroke="#e2e8f0" stroke-width="0.5"  />
  <line x1="60.00" y1="240.00" x2="540.00" y2="240.00" stroke="#64748b" stroke-width="2"  marker-end="url(#arrow-64748b-10)"/>
  <line x1="60.00" y1="240.00" x2="60.00" y2="60.00" stroke="#64748b" stroke-width="2"  marker-end="url(#arrow-64748b-10)"/>
  <text x="535.00" y="260.00" font-family="Inter, sans-serif" font-size="14" font-weight="bold" fill="#64748b" text-anchor="middle" dominant-baseline="middle">t (s)</text>
  <text x="40.00" y="70.00" font-family="Inter, sans-serif" font-size="14" font-weight="bold" fill="#64748b" text-anchor="middle" dominant-baseline="middle">x (m)</text>
  <line x1="486.67" y1="235.00" x2="486.67" y2="245.00" stroke="#64748b" stroke-width="1"  />
  <text x="486.67" y="258.00" font-family="Inter, sans-serif" font-size="11" font-weight="normal" fill="#64748b" text-anchor="middle" dominant-baseline="middle">4</text>
  <line x1="55.00" y1="200.00" x2="65.00" y2="200.00" stroke="#64748b" stroke-width="1"  />
  <text x="45.00" y="200.00" font-family="Inter, sans-serif" font-size="11" font-weight="normal" fill="#64748b" text-anchor="end" dominant-baseline="middle">4</text>
  <line x1="55.00" y1="160.00" x2="65.00" y2="160.00" stroke="#64748b" stroke-width="1"  />
  <text x="45.00" y="160.00" font-family="Inter, sans-serif" font-size="11" font-weight="normal" fill="#64748b" text-anchor="end" dominant-baseline="middle">8</text>
  <line x1="55.00" y1="120.00" x2="65.00" y2="120.00" stroke="#64748b" stroke-width="1"  />
  <text x="45.00" y="120.00" font-family="Inter, sans-serif" font-size="11" font-weight="normal" fill="#64748b" text-anchor="end" dominant-baseline="middle">12</text>
  <line x1="55.00" y1="80.00" x2="65.00" y2="80.00" stroke="#64748b" stroke-width="1"  />
  <text x="45.00" y="80.00" font-family="Inter, sans-serif" font-size="11" font-weight="normal" fill="#64748b" text-anchor="end" dominant-baseline="middle">16</text>
  <text x="48.00" y="255.00" font-family="Inter, sans-serif" font-size="11" font-weight="normal" fill="#64748b" text-anchor="middle" dominant-baseline="middle">O</text>
  <polyline points="60.00,240.00 64.85,236.38 69.70,232.81 74.55,229.28 79.39,225.79 84.24,222.33 89.09,218.93 93.94,215.56 98.79,212.23 103.64,208.95 108.48,205.70 113.33,202.50 118.18,199.34 123.03,196.22 127.88,193.14 132.73,190.10 137.58,187.11 142.42,184.15 147.27,181.24 152.12,178.37 156.97,175.54 161.82,172.75 166.67,170.00 171.52,167.29 176.36,164.63 181.21,162.00 186.06,159.42 190.91,156.88 195.76,154.38 200.61,151.92 205.45,149.50 210.30,147.13 215.15,144.79 220.00,142.50 224.85,140.25 229.70,138.04 234.55,135.87 239.39,133.74 244.24,131.65 249.09,129.61 253.94,127.60 258.79,125.64 263.64,123.72 268.48,121.84 273.33,120.00 278.18,118.20 283.03,116.45 287.88,114.73 292.73,113.06 297.58,111.43 302.42,109.83 307.27,108.29 312.12,106.78 316.97,105.31 321.82,103.88 326.67,102.50 331.52,101.16 336.36,99.86 341.21,98.60 346.06,97.38 350.91,96.20 355.76,95.06 360.61,93.97 365.45,92.91 370.30,91.90 375.15,90.93 380.00,90.00 384.85,89.11 389.70,88.26 394.55,87.46 399.39,86.69 404.24,85.97 409.09,85.29 413.94,84.65 418.79,84.05 423.64,83.49 428.48,82.98 433.33,82.50 438.18,82.07 443.03,81.67 447.88,81.32 452.73,81.01 457.58,80.74 462.42,80.52 467.27,80.33 472.12,80.19 476.97,80.08 481.82,80.02 486.67,80.00 491.52,80.02 496.36,80.08 501.21,80.19 506.06,80.33 510.91,80.52 515.76,80.74 520.61,81.01 525.45,81.32 530.30,81.67 535.15,82.07 540.00,82.50" fill="none" stroke="#3b82f6" stroke-width="3"  stroke-linecap="round" stroke-linejoin="round"/>
</svg>