<svg xmlns="http://www.w3.org/2000/svg" viewBox="0 0 600 300">
  <defs>
        <marker id="arrow-64748b-10" markerWidth="10" markerHeight="10" 
                refX="9.0" refY="5.0" orient="auto"
                markerUnits="userSpaceOnUse">
            <polygon points="0,0 10,5.0 0,10" fill="#64748b"/>
        </marker>

        <marker id="arrow-64748b-10" markerWidth="10" markerHeight="10" 
                refX="9.0" refY="5.0" orient="auto"
                markerUnits="userSpaceOnUse">
            <polygon points="0,0 10,5.0 0,10" fill="#64748b"/>
        </marker></defs>
  <rect x="0.00" y="0.00" width="600.00" height="300.00" fill="white" stroke="none" stroke-width="0" rx="0"/>
  <text x="300.00" y="30.00" font-family="Inter, sans-serif" font-size="16" font-weight="bold" fill="#1e293b" text-anchor="middle" dominant-baseline="middle">a vs t</text>
  <line x1="166.67" y1="240.00" x2="166.67" y2="60.00" stroke="#e2e8f0" stroke-width="0.5"  />
  <line x1="273.33" y1="240.00" x2="273.33" y2="60.00" stroke="#e2e8f0" stroke-width="0.5"  />
  <line x1="380.00" y1="240.00" x2="380.00" y2="60.00" stroke="#e2e8f0" stroke-width="0.5"  />
  <line x1="486.67" y1="240.00" x2="486.67" y2="60.00" stroke="#e2e8f0" stroke-width="0.5"  />
  <line x1="60.00" y1="240.00" x2="540.00" y2="240.00" stroke="#e2e8f0" stroke-width="0.5"  />
  <line x1="60.00" y1="204.00" x2="540.00" y2="204.00" stroke="#e2e8f0" stroke-width="0.5"  />
  <line x1="60.00" y1="168.00" x2="540.00" y2="168.00" stroke="#e2e8f0" stroke-width="0.5"  />
  <line x1="60.00" y1="132.00" x2="540.00" y2="132.00" stroke="#e2e8f0" stroke-width="0.5"  />
  <line x1="60.00" y1="60.00" x2="540.00" y2="60.00" stroke="#e2e8f0" stroke-width="0.5"  />
  <line x1="60.00" y1="96.00" x2="540.00" y2="96.00" stroke="#64748b" stroke-width="2"  marker-end="url(#arrow-64748b-10)"/>
  <line x1="60.00" y1="240.00" x2="60.00" y2="60.00" stroke="#64748b" stroke-width="2"  marker-end="url(#arrow-64748b-10)"/>
  <text x="535.00" y="116.00" font-family="Inter, sans-serif" font-size="14" font-weight="bold" fill="#64748b" text-anchor="middle" dominant-baseline="middle">t (s)</text>
  <text x="40.00" y="70.00" font-family="Inter, sans-serif" font-size="14" font-weight="bold" fill="#64748b" text-anchor="middle" dominant-baseline="middle">a (m/s²)</text>
  <line x1="166.67" y1="91.00" x2="166.67" y2="101.00" stroke="#64748b" stroke-width="1"  />
  <text x="166.67" y="114.00" font-family="Inter, sans-serif" font-size="11" font-weight="normal" fill="#64748b" text-anchor="middle" dominant-baseline="middle">1</text>
  <line x1="273.33" y1="91.00" x2="273.33" y2="101.00" stroke="#64748b" stroke-width="1"  />
  <text x="273.33" y="114.00" font-family="Inter, sans-serif" font-size="11" font-weight="normal" fill="#64748b" text-anchor="middle" dominant-baseline="middle">2</text>
  <line x1="380.00" y1="91.00" x2="380.00" y2="101.00" stroke="#64748b" stroke-width="1"  />
  <text x="380.00" y="114.00" font-family="Inter, sans-serif" font-size="11" font-weight="normal" fill="#64748b" text-anchor="middle" dominant-baseline="middle">3</text>
  <line x1="486.67" y1="91.00" x2="486.67" y2="101.00" stroke="#64748b" stroke-width="1"  />
  <text x="486.67" y="114.00" font-family="Inter, sans-serif" font-size="11" font-weight="normal" fill="#64748b" text-anchor="middle" dominant-baseline="middle">4</text>
  <line x1="55.00" y1="240.00" x2="65.00" y2="240.00" stroke="#64748b" stroke-width="1"  />
  <text x="45.00" y="240.00" font-family="Inter, sans-serif" font-size="11" font-weight="normal" fill="#64748b" text-anchor="end" dominant-baseline="middle">-4</text>
  <line x1="55.00" y1="204.00" x2="65.00" y2="204.00" stroke="#64748b" stroke-width="1"  />
  <text x="45.00" y="204.00" font-family="Inter, sans-serif" font-size="11" font-weight="normal" fill="#64748b" text-anchor="end" dominant-baseline="middle">-3</text>
  <line x1="55.00" y1="168.00" x2="65.00" y2="168.00" stroke="#64748b" stroke-width="1"  />
  <text x="45.00" y="168.00" font-family="Inter, sans-serif" font-size="11" font-weight="normal" fill="#64748b" text-anchor="end" dominant-baseline="middle">-2</text>
  <line x1="55.00" y1="132.00" x2="65.00" y2="132.00" stroke="#64748b" stroke-width="1"  />
  <text x="45.00" y="132.00" font-family="Inter, sans-serif" font-size="11" font-weight="normal" fill="#64748b" text-anchor="end" dominant-baseline="middle">-1</text>
  <line x1="55.00" y1="60.00" x2="65.00" y2="60.00" stroke="#64748b" stroke-width="1"  />
  <text x="45.00" y="60.00" font-family="Inter, sans-serif" font-size="11" font-weight="normal" fill="#64748b" text-anchor="end" dominant-baseline="middle">1</text>
  <text x="48.00" y="111.00" font-family="Inter, sans-serif" font-size="11" font-weight="normal" fill="#64748b" text-anchor="middle" dominant-baseline="middle">O</text>
  <polyline points="60.00,168.00 64.85,168.00 69.70,168.00 74.55,168.00 79.39,168.00 84.24,168.00 89.09,168.00 93.94,168.00 98.79,168.00 103.64,168.00 108.48,168.00 113.33,168.00 118.18,168.00 123.03,168.00 127.88,168.00 132.73,168.00 137.58,168.00 142.42,168.00 147.27,168.00 152.12,168.00 156.97,168.00 161.82,168.00 166.67,168.00 171.52,168.00 176.36,168.00 181.21,168.00 186.06,168.00 190.91,168.00 195.76,168.00 200.61,168.00 205.45,168.00 210.30,168.00 215.15,168.00 220.00,168.00 224.85,168.00 229.70,168.00 234.55,168.00 239.39,168.00 244.24,168.00 249.09,168.00 253.94,168.00 258.79,168.00 263.64,168.00 268.48,168.00 273.33,168.00 278.18,168.00 283.03,168.00 287.88,168.00 292.73,168.00 297.58,168.00 302.42,168.00 307.27,168.00 312.12,168.00 316.97,168.00 321.82,168.00 326.67,168.00 331.52,168.00 336.36,168.00 341.21,168.00 346.06,168.00 350.91,168.00 355.76,168.00 360.61,168.00 365.45,168.00 370.30,168.00 375.15,168.00 380.00,168.00 384.85,168.00 389.70,168.00 394.55,168.00 399.39,168.00 404.24,168.00 409.09,168.00 413.94,168.00 418.79,168.00 423.64,168.00 428.48,168.00 433.33,168.00 438.18,168.00 443.03,168.00 447.88,168.00 452.73,168.00 457.58,168.00 462.42,168.00 467.27,168.00 472.12,168.00 476.97,168.00 481.82,168.00 486.67,168.00 491.52,168.00 496.36,168.00 501.21,168.00 506.06,168.00 510.91,168.00 515.76,168.00 520.61,168.00 525.45,168.00 530.30,168.00 535.15,168.00 540.00,168.00" fill="none" stroke="#ef4444" stroke-width="3"  stroke-linecap="round" stroke-linejoin="round"/>
</svg>